<svg data-name="Layer 1" xmlns="http://www.w3.org/2000/svg" width="827.13" height="500.90726" viewBox="0 0 827.13 500.90726" xmlns:xlink="http://www.w3.org/1999/xlink"><path d="M886.62509,569.657l7.31853-55.51618a180.67194,180.67194,0,0,1,85.80148-13.96147c-43.18553,29.46485-43.66518,93.45094-74.85277,135.4092a108.67518,108.67518,0,0,1-83.73871,43.13714l-35.53753,17.72958a182.105,182.105,0,0,1,51.00628-143.69243,175.905,175.905,0,0,1,34.80533-27.12829C877.65865,547.646,886.62509,569.657,886.62509,569.657Z" transform="translate(-186.435 -199.54637)" fill="#f2f2f2"/><path d="M808.24854,231.94971A31.00736,31.00736,0,0,1,829.12643,214.199c10.22961-2.66081,25.20832,1.39247,32.89868,7.21221,14.06717,10.64548,17.50009,47.21656,7.83536,58.77344-1.92234-.07727-8.55563-.13442-10.50127-.18975l-2.75233-6.96563v6.897c-15.18626-.35637-30.99654-.13324-46.81541.09751C808.37361,271.84136,804.996,239.82065,808.24854,231.94971Z" transform="translate(-186.435 -199.54637)" fill="#2f2e41"/><polygon points="624.392 473.392 610.541 473.391 603.951 419.964 624.394 419.965 624.392 473.392" fill="#9e616a"/><polygon points="745.646 464.778 732.242 468.272 712.389 418.235 732.172 413.079 745.646 464.778" fill="#9e616a"/><circle cx="642.96239" cy="49.87954" r="21.93835" fill="#9e616a"/><path d="M814.3231,220.8583a27.55525,27.55525,0,0,1,41.89371,24.04844c-11.95862,3.05647-24.70245,4.33491-38.20715.73613l-3.08706-7.55528-1.82,7.56086q-6.19739,4.35942-11.96313-.0157A28.1354,28.1354,0,0,1,814.3231,220.8583Z" transform="translate(-186.435 -199.54637)" fill="#2f2e41"/><path d="M817.023,699.23847h-9.82871l-1.75438-9.27947-4.49323,9.27947H774.87856a5.85987,5.85987,0,0,1-3.32978-10.682L792.366,674.17937v-9.38123l21.89606,1.3069Z" transform="translate(-186.435 -199.54637)" fill="#2f2e41"/><path d="M945.92506,687.89527l-9.51091,2.47915-4.03827-8.53691-2.00733,10.11278-25.2252,6.5753a5.85986,5.85986,0,0,1-5.91648-9.49671l16.51767-19.16308-2.36628-9.07789,21.51773-4.25833Z" transform="translate(-186.435 -199.54637)" fill="#2f2e41"/><path d="M930.381,630.72581c-8.47711-31.51319-17.90344-62.33228-40.60126-83.44757l-6.24859-91.69947c8.78784-16.32031-14.02945-59.39549-14.02945-59.39549l-7.97055-11.60451-55.24985,9.5884v.00006c-12.93066,35.26813-19.23483,43.96358-18.49249,110.18756s2.54742,135.00989,2.54742,135.00989h-.79913a5,5,0,0,0,0,10h25a5,5,0,0,0,0-10l-.64456,0c14.67407-41.24865,17.29541-104.68933,17.947-171.75659l20.86787,84.75759,50.4297,78.03936a4.98737,4.98737,0,0,0,.4,9.95966h25a4.99481,4.99481,0,0,0,1.8439-9.63887Z" transform="translate(-186.435 -199.54637)" fill="#2f2e41"/><path d="M875.21752,404.7315h-.00006a3.98668,3.98668,0,0,0-3.60507-2.9948c-6.803-6.905-11.90027-68.186-6.54883-72.42126l-.00821-.07582-1.5943-34.05774a5.03657,5.03657,0,0,0-4.70252-4.79035l-8.42077-.55041a.44563.44563,0,0,1-.43061-.44531,7.08138,7.08138,0,0,0-7.08135-7.08142H817.89464a6.63,6.63,0,0,0-6.57562,5.80383.44014.44014,0,0,1-.448.39612l-.003-.00006a11.8446,11.8446,0,0,0-11.91546,9.82434c-3.40839,19.831-1.79862,61.21782,1.57858,86.24015,1.17566,8.7107-7.79917,25.43361-8.24375,32.72182a5.36475,5.36475,0,0,0,1.33564,3.88959,3.99244,3.99244,0,0,0-2.76636,4.80768h.00006a4,4,0,0,0,4.85638,2.90088l76.60346-19.31086A4,4,0,0,0,875.21752,404.7315Z" transform="translate(-186.435 -199.54637)" fill="#e6e6e6"/><path d="M710.4499,320.73288a9.76009,9.76009,0,0,1,13.12448,7.19255l76.9754,16.55438-11.9007,13.53641-73.42007-18.389a9.81312,9.81312,0,0,1-4.77911-18.89438Z" transform="translate(-186.435 -199.54637)" fill="#9e616a"/><path d="M811.77051,363.1464c-11.8845,6.22058-83.67626-18.11563-86.81242-19.18408l-.79734-.27173,14.76366-13.57166,56.80045,8.31761,1.72129-33.25753a17.82081,17.82081,0,0,1,12.69525-16.13213,17.7905,17.7905,0,0,1,21.95294,22.66623l-14.05519,42.26181a21.25214,21.25214,0,0,1-5.3921,8.55591A3.77573,3.77573,0,0,1,811.77051,363.1464Z" transform="translate(-186.435 -199.54637)" fill="#e6e6e6"/><path d="M746.13173,698.57877H301.79726l-.11011-.35009-.1101-.3501c-1.45264-4.61865-2.781-9.30078-3.97669-14.01318s-2.25867-9.45508-3.18054-14.19483c-1.25293-6.436-2.25684-12.939-3.00659-19.46338s-1.24536-13.07031-1.48169-19.59228a85.98489,85.98489,0,0,1,86.15967-89.03614H680.26113a86.07257,86.07257,0,0,1,85.72412,95.31836v.001a154.90523,154.90523,0,0,1-4.35242,23.02869,171.5059,171.5059,0,0,1-7.93176,22.91369q-1.62342,3.80274-3.45367,7.62232-1.826,3.81079-3.83344,7.58569l-.14111.26514Z" transform="translate(-186.435 -199.54637)" fill="#e6e6e6"/><path d="M683.53115,573.07877h-319a26.5,26.5,0,0,1,0-53h319a26.5,26.5,0,0,1,0,53Z" transform="translate(-186.435 -199.54637)" fill="#6c63ff"/><path d="M687.55507,554.75163H362.849l-.21973-.7002a186.824,186.824,0,0,1-8.51269-49.1709,63.12981,63.12981,0,0,1,63.15966-65.27246H639.31142a63.13462,63.13462,0,0,1,62.83936,69.877c-1.63575,14.92774-6.45118,29.9795-14.313,44.73633Z" transform="translate(-186.435 -199.54637)" fill="#e6e6e6"/><path d="M643.53115,473.07877h-235a26.5,26.5,0,0,1,0-53h235a26.5,26.5,0,0,1,0,53Z" transform="translate(-186.435 -199.54637)" fill="#6c63ff"/><path d="M659.18117,379.86875a52.56455,52.56455,0,0,0-39.09-17.46h-183.59a52.36827,52.36827,0,0,0-52.39,54.14,154.71182,154.71182,0,0,0,7.04,40.71l.22.7h268.71l.28-.53a102.64156,102.64156,0,0,0,11.85-37.06A52.20727,52.20727,0,0,0,659.18117,379.86875Z" transform="translate(-186.435 -199.54637)" fill="#e6e6e6"/><path d="M616.74117,362.40873h-173.42a26.50236,26.50236,0,0,0,25.21,34.67h123a26.50236,26.50236,0,0,0,25.21-34.67Z" transform="translate(-186.435 -199.54637)" fill="#6c63ff"/><path d="M752.78115,682.44877q-3.24,7.59-7.25,15.13h-443a257.43081,257.43081,0,0,1-7.13-28.1,7.25609,7.25609,0,0,1,5.9-1.38,9.86272,9.86272,0,0,1,5.18,3.86005c3.73,4.84,5.29,10.97,6.76,16.91,1.57-3.5,3.2-7.09,5.94-9.79a11.36184,11.36184,0,0,1,8.44-3.47,13.78646,13.78646,0,0,1,4.61-4.88995c2.69-1.6,6.36-1.82,8.81.11a9.83567,9.83567,0,0,1,3.11,5.66c1.37,5.96.23,12.18-.91,18.2,2.88995-2.54,5.87-5.12,9.48-6.43a12.68132,12.68132,0,0,1,5.11-.75,30.8624,30.8624,0,0,1,2.6-9.62,15.6474,15.6474,0,0,1,5.8-7.17c2.69-1.6,6.36-1.82,8.81.11a9.83567,9.83567,0,0,1,3.11,5.66c1.37,5.96.23,12.18-.91,18.2,2.88995-2.54,5.87-5.12,9.48-6.43a12.68132,12.68132,0,0,1,5.11-.75,30.8624,30.8624,0,0,1,2.6-9.62,15.6474,15.6474,0,0,1,5.8-7.17c2.69-1.6,6.36-1.82,8.81.11a9.83567,9.83567,0,0,1,3.11,5.66c1.37,5.96.23,12.18-.91,18.2,2.88995-2.54,5.87-5.12,9.48-6.43a12.68132,12.68132,0,0,1,5.11-.75,30.8624,30.8624,0,0,1,2.6-9.62,15.6474,15.6474,0,0,1,5.8-7.17c2.69-1.6,6.36-1.82,8.81.11a9.83567,9.83567,0,0,1,3.11,5.66c1.37,5.96.23,12.18-.91,18.2,2.88995-2.54,5.87-5.12,9.48-6.43a12.68132,12.68132,0,0,1,5.11-.75,30.8624,30.8624,0,0,1,2.6-9.62,15.6474,15.6474,0,0,1,5.8-7.17c2.69-1.6,6.36-1.82,8.81.11a9.83567,9.83567,0,0,1,3.11,5.66c1.37,5.96.23,12.18-.91,18.2,2.88995-2.54,5.87-5.12,9.48-6.43a12.68132,12.68132,0,0,1,5.11-.75,30.8624,30.8624,0,0,1,2.6-9.62,15.6474,15.6474,0,0,1,5.8-7.17c2.69-1.6,6.36-1.82,8.81.11a9.83567,9.83567,0,0,1,3.11,5.66c1.37,5.96.23,12.18-.91,18.2,2.88995-2.54,5.87-5.12,9.48-6.43a12.68132,12.68132,0,0,1,5.11-.75,30.8624,30.8624,0,0,1,2.6-9.62,15.6474,15.6474,0,0,1,5.8-7.17c2.69-1.6,6.36-1.82,8.81.11a9.83567,9.83567,0,0,1,3.11,5.66c1.37,5.96.23,12.18-.91,18.2,2.88995-2.54,5.87-5.12,9.48-6.43a12.68132,12.68132,0,0,1,5.11-.75,30.8624,30.8624,0,0,1,2.6-9.62,15.6474,15.6474,0,0,1,5.8-7.17c2.69-1.6,6.36-1.82,8.81.11a9.83567,9.83567,0,0,1,3.11,5.66c1.37,5.96.23,12.18-.91,18.2,2.88995-2.54,5.87-5.12,9.48-6.43a12.68132,12.68132,0,0,1,5.11-.75,30.8624,30.8624,0,0,1,2.6-9.62,15.6474,15.6474,0,0,1,5.8-7.17c2.69-1.6,6.36-1.82,8.81.11a9.83567,9.83567,0,0,1,3.11,5.66c1.37,5.96.23,12.18-.91,18.2,2.88995-2.54,5.87-5.12,9.48-6.43a12.68132,12.68132,0,0,1,5.11-.75,30.8624,30.8624,0,0,1,2.6-9.62,15.6474,15.6474,0,0,1,5.8-7.17c2.69-1.6,6.36-1.82,8.81.11a9.83567,9.83567,0,0,1,3.11,5.66c1.37,5.96.23,12.18-.91,18.2,2.88995-2.54,5.87-5.12,9.48-6.43a12.68132,12.68132,0,0,1,5.11-.75,30.8624,30.8624,0,0,1,2.6-9.62,15.6474,15.6474,0,0,1,5.8-7.17c2.69-1.6,6.36-1.82,8.81.11a9.83567,9.83567,0,0,1,3.11,5.66c1.37,5.96.23,12.18-.91,18.2,2.88995-2.54,5.87-5.12,9.48-6.43a12.68132,12.68132,0,0,1,5.11-.75,30.8624,30.8624,0,0,1,2.6-9.62,15.6474,15.6474,0,0,1,5.8-7.17c2.69-1.6,6.36-1.82,8.81.11a9.83567,9.83567,0,0,1,3.11,5.66c1.37,5.96.23,12.18-.91,18.2,2.88995-2.54,5.87-5.12,9.48-6.43a12.68132,12.68132,0,0,1,5.11-.75,30.8624,30.8624,0,0,1,2.6-9.62,15.6474,15.6474,0,0,1,5.8-7.17c2.69-1.6,6.36-1.82,8.81.11a9.83567,9.83567,0,0,1,3.11,5.66A26.52792,26.52792,0,0,1,752.78115,682.44877Z" transform="translate(-186.435 -199.54637)" fill="#ccc"/><path d="M390.895,394.936c7.01662-3.09566,15.47878-1.92256,21.7422,2.35059,6.59527,4.49955,9.66561,12.42272,8.86383,20.24127a21.89887,21.89887,0,0,1-5.20647,12.14l1.06066-.43934c-3.26606-.03983-5.05489-3.86163-4.55849-6.74851.67212-3.90874,5.13657-5.93169,8.68424-6.225,4.82944-.3993,9.47354,1.6948,13.82841,3.5022a125.987,125.987,0,0,0,14.3378,5.0038,124.14725,124.14725,0,0,0,30.42939,4.53764,120.44406,120.44406,0,0,0,15.19838-.5939c4.61359-.4745,9.343-1.06056,13.6709-2.81655,4.37466-1.77495,8.15314-4.6943,10.0222-9.131a12.04059,12.04059,0,0,0-1.22-12.2656,1.50791,1.50791,0,0,0-2.50707.6619,25.1318,25.1318,0,0,0,4.34487,19.814,24.75143,24.75143,0,0,0,18.939,10.15944c8.48754.45833,16.78832-2.831,24.15912-6.72762,7.70282-4.07219,14.72977-9.28839,22.56163-13.13508,7.55428-3.71035,16.25689-6.44264,24.66149-4.21677,6.69886,1.77411,13.77979,7.62533,11.56935,15.316-.85387,2.97083-3.23638,5.47189-6.47282,5.46248-2.74589-.008-5.91456-1.74447-6.2462-4.71417-.39754-3.55978,3.012-6.355,6.04448-7.40475,4.34485-1.50407,9.1911-.37708,13.63492.00042a29.778,29.778,0,0,0,20.451-5.78294,31.47789,31.47789,0,0,0,11.72865-16.75192,28.70979,28.70979,0,0,0,.88368-5.2393c.15427-1.92466-2.84654-1.91456-3,0a27.44711,27.44711,0,0,1-10.08887,18.57822,27.939,27.939,0,0,1-9.55616,5.21416,28.8526,28.8526,0,0,1-11.69813.86079c-4.50687-.45913-9.35124-1.28234-13.703.43088-3.33339,1.31231-6.55122,3.916-7.46488,7.52826-1.77805,7.02958,6.26615,12.12228,12.43184,9.63226,6.9182-2.79392,7.98584-12.12712,4.30116-17.843-4.4286-6.87-13.26672-9.54209-21.07308-9.03069-18.54844,1.21512-32.00625,16.07941-48.74377,22.26727-7.89848,2.92006-17.02023,4.04862-24.57169-.47266A22.55949,22.55949,0,0,1,517.72936,411.324a20.46128,20.46128,0,0,1,.40441-5.37294l-2.50708.6619c1.86935,2.41786,1.79134,5.71915.7949,8.47232a13.28984,13.28984,0,0,1-6.501,7.06509,31.85814,31.85814,0,0,1-10.39706,3.03314,108.46141,108.46141,0,0,1-12.08376,1.06708,120.9295,120.9295,0,0,1-47.71142-7.92965c-6.85292-2.63223-14.11472-6.69434-21.66035-4.4548-5.68729,1.688-10.04769,7.12791-7.67008,13.13827a7.91307,7.91307,0,0,0,5.632,5.103,3.1937,3.1937,0,0,0,2.08227-.08359,6.25352,6.25352,0,0,0,1.52117-1.72328,22.82546,22.82546,0,0,0,2.56687-4.26051,26.52318,26.52318,0,0,0,1.38564-18.428c-4.17862-14.186-20.90033-21.13631-34.20514-15.26636-1.76258.77763-.23773,3.36333,1.51416,2.59041Z" transform="translate(-186.435 -199.54637)" fill="#3f3d56"/><path d="M358.08473,484.30725A75.61661,75.61661,0,0,0,406.14547,527.729a63.44733,63.44733,0,0,0,11.19756,2.32433c3.61454.38987,7.58066.16246,10.57326-2.13062,4.30948-3.30214,4.2169-12.743-2.60857-12.6735-3.37388.03434-6.19755,3.12485-6.617,6.3354-.48947,3.7468,1.83977,7.24788,4.63133,9.51223,6.12444,4.96779,14.52674,5.58126,21.99274,4.02616,8.57469-1.786,16.08911-6.63283,23.6078-10.88067,8.60921-4.864,18.84-9.74866,28.966-7.14284,7.67961,1.97628,14.68255,10.03721,12.17861,18.26693l2.20349-.89645c-3.33364-1.51111-4.1441-5.6889-2.8351-8.8847,1.6387-4.0007,6.42931-5.49516,10.40355-5.49215,5.23955.004,10.07995,2.43512,14.73088,4.57859a81.75178,81.75178,0,0,0,13.28976,4.89871,80.57758,80.57758,0,0,0,53.95371-4.78625,67.6794,67.6794,0,0,0,11.77962-6.83587c2.91678-2.15136,6.28629-5.91553,3.9351-9.6923a5.20486,5.20486,0,0,0-4.17268-2.55857c-2.05258-.011-2.95321,1.41551-3.59446,3.15551a17.85719,17.85719,0,0,0-.03943,11.43444c2.60407,8.22723,9.54562,13.90582,17.777,15.97881,9.10411,2.29279,18.90706.72919,27.70891-2.10333A78.769,78.769,0,0,0,696.363,502.99809c1.22763-1.84913,2.36308-3.75506,3.423-5.70482.92233-1.69668-1.667-3.21276-2.59042-1.51416a75.68654,75.68654,0,0,1-36.206,33.02117c-14.12951,6.13651-37.52137,10.655-46.762-5.64031a17.1196,17.1196,0,0,1-2.30373-10.67964c.16707-1.17642.545-4.58057,2.27073-3.46956,1.95421,1.25805.89214,3.48047-.35128,4.80943-2.80139,2.99413-7.037,5.09679-10.64715,6.95833a74.0151,74.0151,0,0,1-12.06781,4.91593,76.82511,76.82511,0,0,1-51.3884-1.99846c-8.69733-3.562-18.62432-9.88455-28.05368-4.65849a10.95262,10.95262,0,0,0-5.82977,9.33119c-.1042,3.54326,1.56725,7.18092,4.90013,8.69168a1.52689,1.52689,0,0,0,2.20349-.89645c1.87659-6.16778-.72111-12.62212-5.27383-16.92143-5.355-5.05689-12.64609-6.50491-19.79405-5.51818-16.23657,2.24135-28.00811,15.55673-43.90095,18.61145-6.85593,1.31776-15.315.57763-20.24731-4.96237-2.2037-2.47519-3.44795-7.48759.6718-8.94541,3.02277-1.06965,3.96832,2.5147,3.29431,4.72017-2.08228,6.81354-13.58838,3.59-18.36316,2.35507a71.04711,71.04711,0,0,1-18.67142-7.84658,72.0373,72.0373,0,0,1-29.69786-34.14692c-.71988-1.76366-3.62326-.992-2.89284.79752Z" transform="translate(-186.435 -199.54637)" fill="#ccc"/><path d="M293.92991,611.54522c22.99787-4.334,51.2742-8.69991,68.52543,11.27743a30.10263,30.10263,0,0,1,6.865,13.63392c.45629,2.27436,1.02871,4.79875-1.2806,6.20422a6.09367,6.09367,0,0,1-5.871.12215c-5.03862-2.79549-2.23154-10.23162,1.56088-12.66811,5.16438-3.31791,11.80819-1.90151,17.10868.2585,5.75043,2.34337,11.1898,5.3381,17.00857,7.54632a126.01718,126.01718,0,0,0,16.87658,5.07873,130.96381,130.96381,0,0,0,36.25189,3.03176,118.94593,118.94593,0,0,0,34.57329-6.80168c4.25674-1.58763,8.68572-3.88158,11.2779-7.76133a9.85862,9.85862,0,0,0-.32515-11.65353,9.67878,9.67878,0,0,0-12.05834-2.89783,10.54594,10.54594,0,0,0-4.3784,4.4769c-.7985,1.56555-1.84,4.66189-.82071,6.31152.51763.83776,1.78432,1.171,2.61345,1.57748q2.0831,1.02129,4.19979,1.97208,3.702,1.6632,7.49265,3.122a143.83284,143.83284,0,0,0,16.942,5.33182A151.37578,151.37578,0,0,0,579.5,640.562a143.67275,143.67275,0,0,0,16.70494-4.78027c5.16819-1.82556,10.62422-3.77843,15.37632-6.54407,3.74656-2.18043,8.13831-5.92554,7.786-10.7211a6.75213,6.75213,0,0,0-7.08753-6.19832,9.71322,9.71322,0,0,0-8.66993,5.39143c-2.03572,4.61733.00082,9.8765,2.97109,13.56264,6.414,7.95987,17.35521,10.81894,27.17121,10.72141,11.37516-.113,22.15878-3.70625,32.70879-7.61306,11.81634-4.37575,24.15063-9.23294,36.987-8.457,11.56749.69923,22.46682,7.54219,34.21275,6.12173,10.19576-1.233,16.17991-9.39162,18.825-18.68122a84.67116,84.67116,0,0,0,2.443-13.81388c.21432-1.91568-2.78739-1.90043-3,0-1.02017,9.11884-2.57,20.68356-10.6329,26.474-9.778,7.02213-22.51008.83382-32.758-1.66052-11.82294-2.8777-23.427-.91571-34.82454,2.81814-11.22713,3.678-22.03542,8.70561-33.72967,10.8046-10.158,1.82326-21.40109,1.62111-30.26071-4.29814-4.35311-2.90838-9.54463-8.62581-7.54165-14.35284,1.14426-3.27174,7.10378-5.94952,9.52465-2.51619,3.56454,5.05531-5.39662,9.84626-8.83906,11.43019A136.88136,136.88136,0,0,1,590.643,634.478a146.80448,146.80448,0,0,1-109.34681-8.82605l.74292,1.29521c-.577-5.18043,4.68595-10.04083,9.7094-7.31562,4.7843,2.59547,4.75276,8.29386,1.18261,11.86722-3.51631,3.51949-8.55915,5.08588-13.19942,6.48009a124.7517,124.7517,0,0,1-15.612,3.61237,127.29966,127.29966,0,0,1-65.84972-6.70781c-9.394-3.59982-19.12229-10.91083-29.65309-9.54945-4.20066.54305-8.26259,2.58122-10.44586,6.33546-1.92421,3.30878-2.33816,7.65745-.29271,11.00774,3.26433,5.34671,14.69713,5.10066,14.89472-2.39986.22506-8.54337-5.16608-17.07376-11.18858-22.67218-18.75595-17.43522-45.5164-13.275-68.45215-8.95268-1.89494.35711-1.09247,3.249.79752,2.89283Z" transform="translate(-186.435 -199.54637)" fill="#ccc"/><path d="M584.7585,320.32877c7.29541-1.245,10.42286-10.04669,8.70874-16.52789-1.11444-4.214-3.72924-7.83056-6.63537-11.00079-3.37195-3.67841-7.11237-7.0376-10.70539-10.49628q-6.59006-6.34379-13.18023-12.68756a1.51223,1.51223,0,0,0-2.50708.66187,48.33661,48.33661,0,0,0,8.31335,35.2434,51.02067,51.02067,0,0,0,6.21552,7.10285c2.23193,2.14508,4.62469,4.28058,6.011,7.10272l4.03516,2.95862a14.294,14.294,0,0,0-.59912-2.33295A1.70329,1.70329,0,0,0,584.7585,320.32877Z" transform="translate(-186.435 -199.54637)" fill="#fd6584"/><path d="M584.53115,319.57877h-3c1.57556,3.20734.93164,8.08735.71277,11.56385-.24475,3.88635-.58026,7.76867-.87433,11.65155q-.992,13.09725-1.98389,26.19458c-.14587,1.9256,2.85486,1.91626,3,0l1.75928-23.22913q.44916-5.93088.89837-11.86169A82.95575,82.95575,0,0,0,584.53115,319.57877Z" transform="translate(-186.435 -199.54637)" fill="#3f3d56"/><path d="M584.74329,319.91868a13.83508,13.83508,0,0,0-1.1374-11.38249,1.50112,1.50112,0,0,0-2.59041,1.51415,10.773,10.773,0,0,1,.835,9.07083,1.50038,1.50038,0,0,0,2.89284.79751Z" transform="translate(-186.435 -199.54637)" fill="#3f3d56"/><path d="M467.7585,317.32877c7.29541-1.245,10.42286-10.04669,8.70874-16.52789-1.11444-4.214-3.72924-7.83056-6.63537-11.00079-3.37195-3.67841-7.11237-7.0376-10.70539-10.49628q-6.59006-6.34379-13.18023-12.68756a1.51223,1.51223,0,0,0-2.50708.66187,48.33661,48.33661,0,0,0,8.31335,35.2434,51.02067,51.02067,0,0,0,6.21552,7.10285c2.23193,2.14508,4.62469,4.28058,6.011,7.10272l4.03516,2.95862a14.294,14.294,0,0,0-.59912-2.33295A1.70329,1.70329,0,0,0,467.7585,317.32877Z" transform="translate(-186.435 -199.54637)" fill="#fd6584"/><path d="M467.53115,316.57877h-3c1.57556,3.20734.93164,8.08735.71277,11.56385-.24475,3.88635-.58026,7.76867-.87433,11.65155q-.992,13.09725-1.98389,26.19458c-.14587,1.9256,2.85486,1.91626,3,0l1.75928-23.22913q.44916-5.93088.89837-11.86169A82.95575,82.95575,0,0,0,467.53115,316.57877Z" transform="translate(-186.435 -199.54637)" fill="#3f3d56"/><path d="M467.74329,316.91868a13.83508,13.83508,0,0,0-1.1374-11.38249,1.50112,1.50112,0,0,0-2.59041,1.51415,10.773,10.773,0,0,1,.835,9.07083,1.50038,1.50038,0,0,0,2.89284.79751Z" transform="translate(-186.435 -199.54637)" fill="#3f3d56"/><path d="M522.7585,312.32877c7.29541-1.245,10.42286-10.04669,8.70874-16.52789-1.11444-4.214-3.72924-7.83056-6.63537-11.00079-3.37195-3.67841-7.11237-7.0376-10.70539-10.49628q-6.59006-6.34379-13.18023-12.68756a1.51223,1.51223,0,0,0-2.50708.66187,48.33661,48.33661,0,0,0,8.31335,35.2434,51.02067,51.02067,0,0,0,6.21552,7.10285c2.23193,2.14508,4.62469,4.28058,6.011,7.10272l4.03516,2.95862a14.294,14.294,0,0,0-.59912-2.33295A1.70329,1.70329,0,0,0,522.7585,312.32877Z" transform="translate(-186.435 -199.54637)" fill="#fd6584"/><path d="M522.53115,311.57877h-3c1.57556,3.20734.93164,8.08735.71277,11.56385-.24475,3.88635-.58026,7.76867-.87433,11.65155q-.992,13.09725-1.98389,26.19458c-.14587,1.9256,2.85486,1.91626,3,0l1.75928-23.22913q.44916-5.93088.89837-11.86169A82.95575,82.95575,0,0,0,522.53115,311.57877Z" transform="translate(-186.435 -199.54637)" fill="#3f3d56"/><path d="M522.74329,311.91868a13.83508,13.83508,0,0,0-1.1374-11.38249,1.50112,1.50112,0,0,0-2.59041,1.51415,10.773,10.773,0,0,1,.835,9.07083,1.50038,1.50038,0,0,0,2.89284.79751Z" transform="translate(-186.435 -199.54637)" fill="#3f3d56"/><path d="M564.95327,490.81407c-.74024-2.82465-3.56592-5.2099-6.43891-4.68836-2.30877.41907-4.01037,2.53577-4.6485,4.79382a19.002,19.002,0,0,0-.191,6.99378c-2.57617-2.70954-5.25659-5.49249-8.70483-6.93762a5.99652,5.99652,0,0,0-3.91406-.48005,4.87533,4.87533,0,0,0-3.19733,4.33,9.57571,9.57571,0,0,0,1.48627,5.43683,19.29851,19.29851,0,0,0,13.68378,9.38806l-.92914-1.21289a20.95374,20.95374,0,0,0,11.21093-9.2464C564.76955,496.662,565.69338,493.63865,564.95327,490.81407Z" transform="translate(-186.435 -199.54637)" fill="#6c63ff"/><path d="M428.95327,608.81407c-.74024-2.82465-3.56592-5.2099-6.43891-4.68836-2.30877.41907-4.01037,2.53577-4.6485,4.79382a19.002,19.002,0,0,0-.191,6.99378c-2.57617-2.70954-5.25659-5.49249-8.70483-6.93762a5.99652,5.99652,0,0,0-3.91406-.48005,4.87533,4.87533,0,0,0-3.19733,4.33,9.57571,9.57571,0,0,0,1.48627,5.43683,19.29851,19.29851,0,0,0,13.68378,9.38806l-.92914-1.21289a20.95374,20.95374,0,0,0,11.21093-9.2464C428.76955,614.662,429.69338,611.63865,428.95327,608.81407Z" transform="translate(-186.435 -199.54637)" fill="#6c63ff"/><path d="M452.95327,432.81407c-.74024-2.82465-3.56592-5.2099-6.43891-4.68836-2.30877.41907-4.01037,2.53577-4.6485,4.79382a19.002,19.002,0,0,0-.191,6.99378c-2.57617-2.70954-5.25659-5.49249-8.70483-6.93762a5.99652,5.99652,0,0,0-3.91406-.48005,4.87533,4.87533,0,0,0-3.19733,4.33,9.57571,9.57571,0,0,0,1.48627,5.43683,19.29851,19.29851,0,0,0,13.68378,9.38806l-.92914-1.21289a20.95374,20.95374,0,0,0,11.21093-9.2464C452.76955,438.662,453.69338,435.63865,452.95327,432.81407Z" transform="translate(-186.435 -199.54637)" fill="#6c63ff"/><path d="M664.3171,267.60032c-2.47411,10.86971-3.65,23.19285,2.94905,32.92a22.60017,22.60017,0,0,0,11.69787,8.86176,33.194,33.194,0,0,0,14.9065.9156c11.25543-1.55937,21.25864-7.42213,32.32809-9.69833,4.88494-1.00448,10.06918-1.33649,14.77168.59669,3.52347,1.44849,7.23466,4.36065,7.25157,8.51475.01736,4.2658-3.6876,7.09706-7.37228,8.40862-4.91664,1.75008-10.02625,1.07274-15.12595.85215-5.49244-.23759-11.093.25908-15.65587,3.62275a27.22964,27.22964,0,0,0-8.70142,11.79728c-2.29343,5.56609-3.22429,11.55033-4.69075,17.35773a77.07343,77.07343,0,0,1-5.53232,15.12563,78.35242,78.35242,0,0,1-19.14375,24.81466c-3.93927,3.39016-8.7257,6.84393-14.10565,7.15466-4.14959.23967-9.1937-1.50406-10.79318-5.707a8.19476,8.19476,0,0,1,3.83658-9.72918c3.55623-1.79455,7.42916.76541,8.57758,4.279a5.47725,5.47725,0,0,1-.57067,4.93908c-1.07829,1.60789,1.51933,3.1113,2.59042,1.51416,2.48684-3.70823,1.187-8.69548-1.85867-11.66586a8.737,8.737,0,0,0-11.499-.85706,11.36124,11.36124,0,0,0-4.1531,11.73954c1.27929,4.6166,5.81562,7.5531,10.34564,8.28059,5.5941.89838,10.97783-1.30018,15.49346-4.47648a69.45246,69.45246,0,0,0,12.26916-11.333,81.43966,81.43966,0,0,0,16.24638-29.04895c3.30206-10.58122,3.54226-24.55935,13.354-31.70535,5.04883-3.6771,11.2352-3.26928,17.15487-2.93175,5.22555.29795,10.32313.24379,15.117-2.12188,3.95838-1.95337,7.15209-5.55889,7.21812-10.15241.06667-4.63721-3.22567-8.36593-7.10486-10.47861-10.24788-5.58119-22.55427-1.08-32.622,2.64875-10.12433,3.74972-21.68376,8.15072-32.4433,4.20478A20.12468,20.12468,0,0,1,667.9346,295.6198c-2.60543-5.52533-2.97613-11.79461-2.37425-17.791a77.43105,77.43105,0,0,1,1.64958-9.43092c.42786-1.87971-2.46384-2.68225-2.89283-.79752Z" transform="translate(-186.435 -199.54637)" fill="#3f3d56"/><path d="M682.70552,237.10821a100.84344,100.84344,0,0,1-13.26,27.84q-2.16,3.15006-4.54,6.14a32.49279,32.49279,0,0,0-4.45-6.22c-6.05-6.65-14.16-11-22.03-15.36-7.87-4.36-15.86-9.04-21.42-16.11a28.39926,28.39926,0,0,1-5.24-10.79c-1.26-5.33-.78-10.89,2.33-15.34,4.52-6.47,13.53-8.75,21.19-6.88,7.67,1.87,14.09,7.2,19.07,13.32-1.63-7.52,6.3-14.78,13.97-14.12,7.67.67,13.82,7.37,15.86,14.79C686.23549,221.7882,684.90553,229.7282,682.70552,237.10821Z" transform="translate(-186.435 -199.54637)" fill="#6c63ff"/><g opacity="0.2"><path d="M669.44551,264.94817q-2.16,3.15006-4.54,6.14a32.49279,32.49279,0,0,0-4.45-6.22c-6.05-6.65-14.16-11-22.03-15.36-7.87-4.36-15.86-9.04-21.42-16.11a28.39926,28.39926,0,0,1-5.24-10.79,75.76559,75.76559,0,0,1,45.9,24.35A73.709,73.709,0,0,1,669.44551,264.94817Z" transform="translate(-186.435 -199.54637)"/></g><path d="M852.90749,406.78758a9.76015,9.76015,0,0,0,9.29485-11.7299L890.98645,376.703l-16.22771-7.84364-24.7952,18.66248a9.81312,9.81312,0,0,0,2.944,19.26579Z" transform="translate(-186.435 -199.54637)" fill="#9e616a"/><path d="M858.77505,317.46878s-16.89567-13.66284-10.19084-23.35668,23.82644.86189,23.82644.86189l49.83892,56.65251s-52.94121,48.0527-51.29922,40.91628-10.63863-12.71522-10.63863-12.71522l23.62516-26.57105-5.18212-2.512,2.11446-1.21628-2.22362-5.20963Z" transform="translate(-186.435 -199.54637)" fill="#e6e6e6"/><path d="M1013.565,698.95363a1.18646,1.18646,0,0,1-1.19,1.19l-225.03.03-15.72.01-10.37.01h-11.47l-6.26.01-17.38.01-273.46.13995-2.08.01-122.31995.04h-2.02l-104.12.04h-2.02l-32.5.01a1.19,1.19,0,0,1,0-2.38l32.84-.01h2.02l104.09-.04h2.02l121.37-.04h2.07l103.42-.04h1.36l167.43-.1,17.35-.00994,7.94-.01,12.55-.01h10.72l16.89-.01,222.68-.04A1.18642,1.18642,0,0,1,1013.565,698.95363Z" transform="translate(-186.435 -199.54637)" fill="#cacaca"/><path d="M874.21425,223.03587c-2.16778-3.32447-4.55835-6.83765-8.23871-8.32306-3.68035-1.48548-8.89959.29077-9.3999,4.2279-.374,2.94306,1.87171,5.471,3.56226,7.90888s2.78955,6.11761.58142,8.09887l-1.24219.64063a12.41029,12.41029,0,0,0,10.08161,4.81073c3.86041-.24432,7.58148-3.10968,8.23248-6.92267C878.426,229.75926,876.27437,226.19523,874.21425,223.03587Z" transform="translate(-186.435 -199.54637)" fill="#2f2e41"/></svg>