<svg id="aeed419a-5a6b-43d7-93ce-9f8aaad142e0" data-name="Layer 1" xmlns="http://www.w3.org/2000/svg" width="945" height="652.75686" viewBox="0 0 945 652.75686"><title>camera</title><polygon points="722.297 119.274 599.704 203.07 779.574 203.07 722.297 119.274" fill="#f2f2f2"/><polygon points="789.145 212.022 588.498 212.022 527.329 253.833 817.724 253.833 789.145 212.022" fill="#f2f2f2"/><polygon points="520.047 262.08 326.168 394.601 464.272 596.646 866 322.053 825.007 262.08 520.047 262.08" fill="#f2f2f2"/><ellipse cx="540" cy="632.75686" rx="405" ry="20" fill="#f2f2f2"/><ellipse cx="116.5" cy="595.75686" rx="116.5" ry="15" fill="#f2f2f2"/><ellipse cx="320.18573" cy="345.70883" rx="13.79379" ry="7.98588" fill="#3f3d56"/><polygon points="682.636 404.151 372.638 404.151 380.261 376.709 386.853 352.969 398.048 312.676 657.952 312.676 668.827 352.969 676.269 380.556 682.636 404.151" fill="#3f3d56"/><polygon points="676.269 380.556 380.261 380.556 380.261 376.709 386.853 352.969 668.827 352.969 676.269 380.556" opacity="0.1"/><rect x="300.03955" y="343.16787" width="40.29237" height="31.21751" fill="#6c63ff"/><rect x="271" y="358.41364" width="514" height="274.42373" fill="#3f3d56"/><rect x="271" y="461.50403" width="514" height="68.24294" fill="#6c63ff"/><circle cx="528" cy="495.6255" r="127.41102" fill="#2f2e41"/><circle cx="528" cy="495.6255" r="118.33616" fill="#3f3d56"/><circle cx="528" cy="495.6255" r="90.0226" fill="#2f2e41"/><circle cx="705.86723" cy="377.28934" r="8.71186" fill="#6c63ff" opacity="0.2"/><circle cx="732.00282" cy="377.28934" r="8.71186" fill="#6c63ff" opacity="0.5"/><circle cx="758.13842" cy="377.28934" r="8.71186" fill="#6c63ff"/><rect x="497.14548" y="319.21025" width="60.98305" height="27.58757" fill="#2f2e41"/><path d="M180.299,360.65484l5.33849-5.3385s13.64282-23.72663,0-21.94714S171.9947,347.012,171.9947,347.012v13.64282Z" transform="translate(-127.5 -123.62157)" fill="#9f616a"/><path d="M392.05925,418.19193l5.33849-1.7795s14.236-21.354,16.01548-11.86332-7.118,22.54031-7.118,22.54031h-14.236Z" transform="translate(-127.5 -123.62157)" fill="#9f616a"/><rect x="206.6949" y="149.19119" width="239.04586" height="233.1142" transform="translate(-53.07135 -194.98222) rotate(14.07623)" fill="#3f3d56"/><rect x="229.49356" y="164.22827" width="205.29499" height="143.86092" transform="translate(-60.09004 -197.31131) rotate(14.07623)" fill="#6c63ff" opacity="0.2"/><ellipse cx="137.18656" cy="214.49296" rx="23.86524" ry="19.87106" fill="#2f2e41"/><path d="M227.75229,498.86249s-8.89749,24.3198-10.677,86.00906-3.559,100.245,4.15216,105.58353,18.98131,4.15216,19.57447,2.96583,3.559-78.2979,3.559-78.2979l15.42231-57.53709,17.20181,39.149V664.949s13.04965,11.86331,18.38815.59316,8.89749-68.80724,8.89749-68.80724,6.52482-97.87238-4.74533-109.7357S227.75229,498.86249,227.75229,498.86249Z" transform="translate(-127.5 -123.62157)" fill="#2f2e41"/><path d="M229.53179,690.45508s-6.52482-5.93166-11.86332,1.7795-23.13347,24.3198-18.98131,27.28563,25.50614,4.15216,27.8788,1.18633c0,0,17.20181-7.71116,17.20181-9.49065s-2.37266-21.354-4.74532-20.76081S230.125,695.79357,229.53179,690.45508Z" transform="translate(-127.5 -123.62157)" fill="#2f2e41"/><path d="M285.28939,661.39h11.49555s-3.19123,8.30432-.2254,8.30432,30.25146,22.54031,19.57447,24.913-40.92844-8.30432-42.11478-11.86332,4.15217-19.57447,4.15217-19.57447l7.118,3.559Z" transform="translate(-127.5 -123.62157)" fill="#2f2e41"/><path d="M252.0721,353.53684s-1.18634,20.16765-7.118,21.94714,18.98131,20.16764,18.98131,20.16764l17.20181-22.5403s-6.52482-11.27015-4.15216-19.57448S252.0721,353.53684,252.0721,353.53684Z" transform="translate(-127.5 -123.62157)" fill="#9f616a"/><path d="M252.0721,353.53684s-1.18634,20.16765-7.118,21.94714,18.98131,20.16764,18.98131,20.16764l17.20181-22.5403s-6.52482-11.27015-4.15216-19.57448S252.0721,353.53684,252.0721,353.53684Z" transform="translate(-127.5 -123.62157)" opacity="0.1"/><path d="M262.74908,376.67032s-20.76081-7.71116-23.72663-5.93166-30.84463,14.236-31.4378,16.60864,3.559,36.77629,3.559,36.77629,7.118,2.96583,7.71115,15.42231,16.60865,32.031,11.27016,45.08061-10.677,17.795-.59317,19.57448,55.7576-1.18634,58.13026-5.3385,16.01548-10.08382,20.16764-8.89749-2.37266-61.68925-2.37266-61.68925l3.559-8.89749,11.86332-32.62412s-17.795-20.16765-34.99679-18.38815C285.88255,368.366,266.90124,370.73866,262.74908,376.67032Z" transform="translate(-127.5 -123.62157)" fill="#555aa8"/><path d="M216.48214,389.1268l-8.89749-1.7795s-8.89749,5.93166-11.86332,5.93166-2.96583,2.37266-2.96583,2.37266-11.27015-17.20181-8.89748-36.77628c0,0-13.64282-6.52483-14.236-1.7795s-5.33849,58.72342,4.74533,62.28242,44.48744,4.15216,44.48744,4.15216Z" transform="translate(-127.5 -123.62157)" fill="#555aa8"/><path d="M312.575,385.5678h8.30432l21.94714,21.94714s5.33849-1.18633,7.118,2.37267,13.64282,2.96583,13.64282,2.96583l31.43779,2.96582s4.15216,13.64282,1.18633,16.01548-55.16443,2.96583-55.16443,2.96583-4.74533-2.37266-7.71116,0-24.3198-12.45648-26.69246-16.60864S312.575,385.5678,312.575,385.5678Z" transform="translate(-127.5 -123.62157)" fill="#555aa8"/><circle cx="138.21491" cy="217.45879" r="21.94714" fill="#9f616a"/><path d="M252.10737,328.31556s-3.75382-9.76,1.68922-12.9507l1.50153,4.3169s13.70146-8.25842,17.2676-6.3815l-3.37844,4.50459s15.95375,0,17.0799,6.19381l-5.63074.18769s6.00612,3.94151,6.19381,10.323l-12.01224.75076,5.81843,3.37844s-21.77218,3.00306-27.02754-5.63073Z" transform="translate(-127.5 -123.62157)" fill="#2f2e41"/><path d="M244.06436,332.47945s6.36038,6.25365,14.59188,3.16684,0-14.40512,0-14.40512l-5.48767-2.74383Z" transform="translate(-127.5 -123.62157)" fill="#2f2e41"/><rect x="340.5" y="254.37843" width="22" height="22" transform="translate(-210.5398 69.9716) rotate(-27.67193)" fill="none" stroke="#f2f2f2" stroke-miterlimit="10" stroke-width="2"/><rect x="281.5" y="236.37843" width="22" height="22" transform="translate(35.37678 -236.72915) rotate(30)" fill="#6c63ff"/><circle cx="558" cy="286.75686" r="11" fill="none" stroke="#3f3d56" stroke-miterlimit="10" stroke-width="2"/><circle cx="524" cy="244.75686" r="11" fill="none" stroke="#3f3d56" stroke-miterlimit="10" stroke-width="2"/><circle cx="580" cy="212.75686" r="11" fill="none" stroke="#3f3d56" stroke-miterlimit="10" stroke-width="2"/><circle cx="208" cy="91.75686" r="11" fill="none" stroke="#f2f2f2" stroke-miterlimit="10" stroke-width="2"/></svg>