<svg id="b45145f7-41e6-44e2-8463-18260e3356a5" data-name="Layer 1" xmlns="http://www.w3.org/2000/svg" xmlns:xlink="http://www.w3.org/1999/xlink" width="1035.95292" height="618.32756" viewBox="0 0 1035.95292 618.32756"><defs><linearGradient id="fa0f513b-d47c-4002-ac89-65e4638dd43f" x1="278.01366" y1="525.89908" x2="278.01366" y2="396.29571" gradientUnits="userSpaceOnUse"><stop offset="0" stop-color="gray" stop-opacity="0.25"/><stop offset="0.53514" stop-color="gray" stop-opacity="0.12"/><stop offset="1" stop-color="gray" stop-opacity="0.1"/></linearGradient><linearGradient id="a66a4600-d4e4-458f-9269-5522c246d383" x1="279.17776" y1="452.94868" x2="279.17776" y2="292.37606" xlink:href="#fa0f513b-d47c-4002-ac89-65e4638dd43f"/><linearGradient id="b6ebda7a-cc5d-47c5-a92f-a46c420afb32" x1="278.78973" y1="382.32648" x2="278.78973" y2="232.2371" xlink:href="#fa0f513b-d47c-4002-ac89-65e4638dd43f"/><linearGradient id="e99218ea-d8b9-4102-bb7d-f97f881ca49d" x1="278.01366" y1="311.70428" x2="278.01366" y2="177.70318" xlink:href="#fa0f513b-d47c-4002-ac89-65e4638dd43f"/><linearGradient id="fb953447-d7dd-4755-9314-66865a975b60" x1="278.01366" y1="246.51456" x2="278.01366" y2="129.34264" xlink:href="#fa0f513b-d47c-4002-ac89-65e4638dd43f"/><linearGradient id="b68771ed-b829-44c6-99f4-3c7e5950bc15" x1="278.78973" y1="183.65304" x2="278.78973" y2="78.88384" xlink:href="#fa0f513b-d47c-4002-ac89-65e4638dd43f"/><linearGradient id="b643c979-f3df-4de9-9acf-578d66a85c39" x1="758.80599" y1="525.89908" x2="758.80599" y2="396.29571" xlink:href="#fa0f513b-d47c-4002-ac89-65e4638dd43f"/><linearGradient id="a9824476-13cc-4e77-8165-c782faed57a8" x1="759.97009" y1="452.94868" x2="759.97009" y2="292.37606" xlink:href="#fa0f513b-d47c-4002-ac89-65e4638dd43f"/><linearGradient id="ac1bf71e-6b95-4dd7-aeaa-7fe76c9b4ff5" x1="759.58205" y1="382.32648" x2="759.58205" y2="232.2371" xlink:href="#fa0f513b-d47c-4002-ac89-65e4638dd43f"/><linearGradient id="e405169f-2c49-4c97-ac56-2989dc8ff0f1" x1="758.80599" y1="311.70428" x2="758.80599" y2="177.70318" xlink:href="#fa0f513b-d47c-4002-ac89-65e4638dd43f"/><linearGradient id="b81ebb6b-b9d6-462a-98ce-a5cee6f4f21e" x1="758.80599" y1="246.51456" x2="758.80599" y2="129.34264" xlink:href="#fa0f513b-d47c-4002-ac89-65e4638dd43f"/><linearGradient id="ab8c5e3a-15ae-42c1-880d-aa379b75f657" x1="759.58205" y1="183.65304" x2="759.58205" y2="78.88384" xlink:href="#fa0f513b-d47c-4002-ac89-65e4638dd43f"/><linearGradient id="a8bc26b3-d54e-4949-9551-658d8ea2eef7" x1="682.12464" y1="531.39677" x2="687.95286" y2="531.39677" xlink:href="#fa0f513b-d47c-4002-ac89-65e4638dd43f"/><linearGradient id="b679fba6-0f51-43eb-8b8a-c7bf6908f35f" x1="614.56829" y1="470.12717" x2="614.56829" y2="340.5238" xlink:href="#fa0f513b-d47c-4002-ac89-65e4638dd43f"/><linearGradient id="b07d5774-ff6c-42f0-b206-6964fdaab4d7" x1="615.73239" y1="397.17677" x2="615.73239" y2="236.60415" xlink:href="#fa0f513b-d47c-4002-ac89-65e4638dd43f"/><linearGradient id="f7dba628-339f-4069-a463-482995735f9f" x1="615.34436" y1="326.55457" x2="615.34436" y2="176.46519" xlink:href="#fa0f513b-d47c-4002-ac89-65e4638dd43f"/><linearGradient id="b4a66175-7b12-4117-ba5e-a55d76ecb696" x1="614.56829" y1="255.93237" x2="614.56829" y2="121.93127" xlink:href="#fa0f513b-d47c-4002-ac89-65e4638dd43f"/><linearGradient id="a7cf51da-3e8c-4986-856b-f96bb6a2b7a6" x1="614.56829" y1="190.74265" x2="614.56829" y2="73.57073" xlink:href="#fa0f513b-d47c-4002-ac89-65e4638dd43f"/><linearGradient id="e2d9024e-059c-421c-8a86-646b71badf56" x1="615.34436" y1="127.88113" x2="615.34436" y2="23.11193" xlink:href="#fa0f513b-d47c-4002-ac89-65e4638dd43f"/><linearGradient id="b8707c05-2631-4f8b-936f-f1717bc243c4" x1="537.88694" y1="475.62486" x2="543.71516" y2="475.62486" xlink:href="#fa0f513b-d47c-4002-ac89-65e4638dd43f"/><linearGradient id="a3f470d3-6718-4125-86a0-70a7b4389fab" x1="460.71474" y1="464.35767" x2="460.71474" y2="334.75429" xlink:href="#fa0f513b-d47c-4002-ac89-65e4638dd43f"/><linearGradient id="a7cf90bc-2282-4b0a-b298-f42ec03ddc7a" x1="461.87884" y1="391.40726" x2="461.87884" y2="230.83464" xlink:href="#fa0f513b-d47c-4002-ac89-65e4638dd43f"/><linearGradient id="bdb759bf-5cf4-46d7-89f8-4941451fe660" x1="461.49081" y1="320.78506" x2="461.49081" y2="170.69569" xlink:href="#fa0f513b-d47c-4002-ac89-65e4638dd43f"/><linearGradient id="ef7322aa-8ccb-44e3-afc8-10b31c4881c3" x1="460.71474" y1="250.16286" x2="460.71474" y2="116.16176" xlink:href="#fa0f513b-d47c-4002-ac89-65e4638dd43f"/><linearGradient id="fc0dfee9-91aa-459a-a3e6-59d633a82201" x1="460.71474" y1="184.97314" x2="460.71474" y2="67.80122" xlink:href="#fa0f513b-d47c-4002-ac89-65e4638dd43f"/><linearGradient id="a2785641-0db8-4cf0-9da6-4cd8245eadc4" x1="461.49081" y1="122.11162" x2="461.49081" y2="17.34242" xlink:href="#fa0f513b-d47c-4002-ac89-65e4638dd43f"/><linearGradient id="aa0f49c5-9729-4db2-a7be-72d2e8f1b550" x1="384.0334" y1="469.85535" x2="389.86161" y2="469.85535" xlink:href="#fa0f513b-d47c-4002-ac89-65e4638dd43f"/></defs><title>Camping</title><g opacity="0.5"><path d="M352.37237,250.61623c-12.01712,16.85183-21.23644,65.9297-23.8062,80.71851l-21.481-.43824c1.1116-12.70538,26.10083-64.38446,33.0477-78.56427C343.99842,251.72619,348.12444,251.13429,352.37237,250.61623Z" transform="translate(-82.02354 -140.83622)" fill="#6c63ff"/><rect x="611.0775" y="239.74033" width="9.51635" height="13.40537" transform="matrix(0.99982, -0.01888, 0.01888, 0.99982, -86.56737, -129.16333)" fill="#dce0ed"/><path d="M620.46643,239.65167l.08243,4.36406a7.26738,7.26738,0,0,1-2.06259.31815l-7.448.07719-.08649-4.5797Z" transform="translate(-82.02354 -140.83622)" opacity="0.1"/><path d="M606.28956,205.7602l8.98354-.16967a10.78282,10.78282,0,0,1,10.11541,6.54015c2.75351,6.42655,5.17467,16.68271-.48443,27.06379a7.42619,7.42619,0,0,1-6.44059,3.87167l-11.46712.11837Z" transform="translate(-82.02354 -140.83622)" fill="#dce0ed"/><ellipse cx="606.64297" cy="224.47236" rx="9.62209" ry="18.71549" transform="translate(-86.15413 -129.34083) rotate(-1.08199)" fill="#f0f0f4"/><rect x="526.54288" y="241.49538" width="9.51635" height="11.73684" transform="translate(-86.59983 -130.75945) rotate(-1.08199)" fill="#dce0ed"/><path d="M535.94757,241.40658l.07044,3.72975a7.26763,7.26763,0,0,1-2.06259.31815l-7.448.07719-.07452-3.94539Z" transform="translate(-82.02354 -140.83622)" opacity="0.1"/><path d="M521.77069,207.51511l8.98354-.16967a10.78284,10.78284,0,0,1,10.11542,6.54014c2.75351,6.42655,5.17467,16.68271-.48444,27.0638a7.42615,7.42615,0,0,1-6.44058,3.87166l-11.46712.11838Z" transform="translate(-82.02354 -140.83622)" fill="#dce0ed"/><ellipse cx="522.1241" cy="226.22726" rx="9.62209" ry="18.71549" transform="translate(-86.20234 -130.93651) rotate(-1.08199)" fill="#f0f0f4"/><path d="M524.30052,214.30967s-3.538.63481-1.60419,5.28424a32.36573,32.36573,0,0,1,2.26327,7.05719s3.58355,1.7783,3.32632-4.32278S524.30052,214.30967,524.30052,214.30967Z" transform="translate(-82.02354 -140.83622)" fill="#dce0ed"/><ellipse cx="168.77608" cy="488.51332" rx="56.14648" ry="61.53908" transform="translate(-91.21814 -137.56208) rotate(-1.08199)" fill="#636780"/><path d="M188.72112,430.426c-29.33961,2.5307-52.10385,29.70475-51.48634,62.40058.49775,26.3547,16.04191,48.54992,37.45669,56.91353,29.33965-2.53074,52.10382-29.70479,51.48631-62.40058C225.68,460.98486,210.13591,438.78964,188.72112,430.426Z" transform="translate(-82.02354 -140.83622)" opacity="0.1"/><ellipse cx="605.60201" cy="345.7414" rx="45.57276" ry="59.42434" transform="translate(-88.44426 -129.33887) rotate(-1.08199)" fill="#636780"/><path d="M591.79184,289.05686c-18.76059,7.599-32.12847,30.63892-31.61882,57.624.54464,28.83739,16.75538,52.57542,37.75651,57.5828,18.7606-7.599,32.12848-30.63889,31.61883-57.624C629.00372,317.80226,612.793,294.06424,591.79184,289.05686Z" transform="translate(-82.02354 -140.83622)" opacity="0.1"/><path d="M434.20432,336.28778l.43842-21.58253s-4.40444-9.22335-8.64915-9.98923-13.98078-1.11078-13.98078-1.11078-7.02671,31.11925-1.77652,40.32663S434.20432,336.28778,434.20432,336.28778Z" transform="translate(-82.02354 -140.83622)" fill="#6c63ff"/><path d="M434.20432,336.28778l.43842-21.58253s-4.40444-9.22335-8.64915-9.98923-13.98078-1.11078-13.98078-1.11078-7.02671,31.11925-1.77652,40.32663S434.20432,336.28778,434.20432,336.28778Z" transform="translate(-82.02354 -140.83622)" opacity="0.1"/><path d="M356.14021,335.43551s-3.18628-29.85485,13.24044-30.70334c2.11364-.10917,4.22737-.2,6.32974-.44366,11.37038-1.31808,42.38916-4.3016,38.80183,2.86523,0,0-6.90911,26.14649-1.71084,32.6052Z" transform="translate(-82.02354 -140.83622)" fill="#6c63ff"/><path d="M590.08509,386.48617l22.05427.218s3.03915-40.66775,4.24787-43.86326,1.55551-18.43094-2.60944-20.57316-18.01211-4.57747-18.01211-4.57747l-9.7117,23.344-.39755,20.94722Z" transform="translate(-82.02354 -140.83622)" fill="#6c63ff"/><path d="M590.08509,386.48617l22.05427.218s3.03915-40.66775,4.24787-43.86326,1.55551-18.43094-2.60944-20.57316-18.01211-4.57747-18.01211-4.57747l-9.7117,23.344-.39755,20.94722Z" transform="translate(-82.02354 -140.83622)" opacity="0.1"/><path d="M535.53015,320.097l-.18367-4.51911a2.60841,2.60841,0,0,1,2.66751-2.71361c10.93393.25473,50.72224,1.408,57.75169,4.826,0,0-6.54252,56.756,2.11667,70.07633l-1.99783,45.4071-97.50442-5.45565Z" transform="translate(-82.02354 -140.83622)" fill="#6c63ff"/><path d="M526.56816,248.74763c2.69714-.31744,5.90759-.67,9.49885-1.017l.10219,5.41069-9.51466.1797Z" transform="translate(-82.02354 -140.83622)" opacity="0.1"/><path d="M620.70663,252.36959l.01294.68506-9.51466.1797-.07775-4.11667A40.64515,40.64515,0,0,1,620.70663,252.36959Z" transform="translate(-82.02354 -140.83622)" opacity="0.1"/><polygon points="588.963 245.55 574.587 246.031 543.856 192.599 538.726 183.679 542.1 160.772 545.129 166.248 588.963 245.55" fill="#dce0ed"/><polygon points="457.676 181.612 451.925 190.604 433.776 167.012 425.469 156.205 430.21 149.56 434.019 154.006 457.676 181.612" fill="#dce0ed"/><path d="M516.04245,294.84247c.034.45621.06824.92511.10893,1.40024l-.35186,11.606-8.30717-10.80792,4.7414-6.64428Z" transform="translate(-82.02354 -140.83622)" opacity="0.1"/><polygon points="545.129 166.248 543.856 192.599 538.726 183.679 542.1 160.772 545.129 166.248" opacity="0.1"/><path d="M499.52589,311.99925s-8.10022-52.897,17.59436-61.31407a5.843,5.843,0,0,1,1.01163-.22823c5.93412-.83037,61.261-8.27034,90.19506-1.21659,0,0,19.71953,2.58874,19.70776,13.16457l-6.229,129.35161-14.16627.26755,3.03831-85.50832s6.06316-37.34066-5.19091-39.66625-62.29021-5.59195-80.1665-.178c0,0-13.165-2.71253-10.43964,29.59737l-.51829,17.35379Z" transform="translate(-82.02354 -140.83622)" fill="#dce0ed"/><path d="M542.9565,326.93665a8.17861,8.17861,0,0,0-3.4679-7.23167c-4.02134-2.9381-16.35461-9.20917-16.35461-9.20917l-3.95845.392L507.83928,340.6079l1.97591,62.62318,21.90814,26.07813Z" transform="translate(-82.02354 -140.83622)" fill="#6c63ff"/><path d="M542.9565,326.93665a8.17861,8.17861,0,0,0-3.4679-7.23167c-4.02134-2.9381-16.35461-9.20917-16.35461-9.20917l-3.95845.392L507.83928,340.6079l1.97591,62.62318,21.90814,26.07813Z" transform="translate(-82.02354 -140.83622)" opacity="0.1"/><path d="M458.776,394.20108l-.7911-64.28477s-2.37414-24.91361,12.52417-25.618c0,0,35.16189-.408,50.52412,4.2622a3.4122,3.4122,0,0,1,2.01707,4.89129c-2.94086,5.351-7.8042,19.45844-9.60035,55.44566l.72778,38.53436Z" transform="translate(-82.02354 -140.83622)" fill="#6c63ff"/><polygon points="451.69 293.036 387.698 292.753 387.634 292.754 356.184 292.619 359.038 250.527 376.493 250.832 432.229 262.152 449.7 288.473 451.69 293.036" fill="#6c63ff"/><polygon points="451.69 293.036 387.698 292.753 387.634 292.754 356.184 292.619 359.038 250.527 376.493 250.832 432.229 262.152 449.7 288.473 451.69 293.036" opacity="0.1"/><polygon points="451.69 293.036 387.698 292.753 386.113 264.61 432.229 262.152 449.7 288.473 451.69 293.036" fill="#6c63ff"/><path d="M469.65767,433.59063l-31.4502-.13571,2.85361-42.09195s10.12832,15.51349,27.07516,14.083Z" transform="translate(-82.02354 -140.83622)" fill="#fff" opacity="0.1"/><path d="M695.91766,463.32854c-1.041,12.07586-9.64013,10.33465-9.64013,10.33465l-1.60123-.11572-15.87225-1.1406.2809-18.72414a68.8588,68.8588,0,0,1,16.09169.66055C691.14329,455.46159,696.3811,457.96429,695.91766,463.32854Z" transform="translate(-82.02354 -140.83622)" fill="#dce0ed"/><path d="M695.91766,463.32854c-1.041,12.07586-9.64013,10.33465-9.64013,10.33465l-1.60123-.11572a16.19385,16.19385,0,0,1-2.6955-9.00391c-.07918-4.19278,1.18912-7.9288,3.19584-10.20028C691.14329,455.46159,696.3811,457.96429,695.91766,463.32854Z" transform="translate(-82.02354 -140.83622)" opacity="0.1"/><path d="M447.87942,310.0135c-14.47993.27348-25.91872,16.35131-25.54931,35.91082s12.40714,35.194,26.88707,34.92048,25.91868-16.3513,25.54927-35.91082S462.3593,309.74,447.87942,310.0135Zm-2.50218,63.50093c-11.03508.20841-20.198-11.12427-20.466-25.31221s8.46051-25.85852,19.49559-26.06694,20.198,11.12423,20.466,25.31221S456.41232,373.306,445.37724,373.51443Z" transform="translate(-82.02354 -140.83622)" fill="#636780"/><polygon points="367.999 215.458 380.49 227.278 384.726 216.411 366.77 206.386 367.999 215.458" fill="#636780"/><polygon points="383.825 95.836 394.526 96.933 398.575 101.564 393.081 128.7 381.143 172.476 373.336 202.522 367.788 220.784 364.489 244.875 361.048 261.459 350.001 272.931 326.597 246.341 322.674 237.405 313.32 219.185 336.383 207.862 361.861 205.128 373.29 174.126 382.374 138.288 383.825 95.836" fill="#6c63ff"/><polyline points="170.274 228.71 158.531 346.11 334.096 335.391 312.711 278.264 278.466 256.913 355.876 256.72 355.692 224.574 324.272 218.399 261.168 214.514 213.766 213.295 168.798 228.95" fill="#6c63ff"/><polyline points="170.274 228.71 158.531 346.11 334.096 335.391 312.711 278.264 278.466 256.913 355.876 256.72 355.692 224.574 324.272 218.399 261.168 214.514 213.766 213.295 168.798 228.95" opacity="0.1"/><path d="M494.54943,481.75167c.54975,29.10792-8.62036,55.78837-35.511,53.394-33.86067-.086-36.952-22.90716-37.50178-52.01508s15.38558-51.07915,35.54749-51.45994S493.99968,452.64374,494.54943,481.75167Z" transform="translate(-82.02354 -140.83622)" fill="#636780"/><path d="M494.76155,481.79711c-.42562-22.53573-10.56506-40.42027-24.47806-47.1724-17.63267,3.69938-30.85371,24.31186-30.35215,50.86831.45052,23.85419,2.61268,43.48258,22.01286,49.83966C486.75472,535.75562,495.29251,509.91012,494.76155,481.79711Z" transform="translate(-82.02354 -140.83622)" opacity="0.1"/><polygon points="446.147 294.58 436.05 306.597 454.567 303.056 468.212 290.033 480.129 265.029 497.379 254.003 540.274 259.013 579.897 259.766 594.269 246.507 577.921 244.598 561.4 244.535 519.911 244.38 470.534 243.998 460.911 271.211 453.568 289.934 446.147 294.58" fill="#6c63ff"/><path d="M671.07808,480.93016c-.81972,1.28456-28.44014,6.03856-28.44014,6.03856l-76.27236,15.40033-131.482,4.38685-15.6804-12.81971-8.07932,1.593-.32873.06334L302.88149,516.86341l-1.7682-.22043-29.59387-3.648L116.95431,493.93381l1.30269-22.41108.77181-13.22563,1.59437-27.46112,1.34841-7.22113,13.70277-1.51517,6.40173-.711,99.87645-11.06805,13.05684-1.44588,7.31993-.81086L333.6134,396.9901l104.28416.56858-.18205-32.14853,38.83418-127.64077c9.1176,1.30624,9.02411,7.444,9.02411,7.444l-32.84022,120.1225.96074,73.37874c73.13566,5.992,75.18859-9.95458,86.84063-4.8128l13.11228-44.87463,122.64326-1.68177C681.26737,393.17166,671.07808,480.93016,671.07808,480.93016Z" transform="translate(-82.02354 -140.83622)" fill="#6c63ff"/><polygon points="283.541 279.238 324.023 362.02 337.214 365.999 340.128 352.41 324.664 306.381 309.145 279.812 283.541 279.238" fill="#6c63ff"/><polygon points="283.541 279.238 324.023 362.02 337.214 365.999 340.128 352.41 324.664 306.381 309.145 279.812 283.541 279.238" opacity="0.15"/><ellipse cx="341.98004" cy="512.52716" rx="70.47169" ry="79.93736" transform="translate(-91.64072 -134.28716) rotate(-1.08199)" fill="#636780"/><path d="M365.69748,437.115c-36.82368,3.263-65.37387,38.542-64.57174,81.01284.64656,34.23394,20.17527,63.07736,47.06107,73.959,36.82373-3.263,65.37382-38.542,64.57169-81.01284C412.11194,476.84,392.58328,447.99661,365.69748,437.115Z" transform="translate(-82.02354 -140.83622)" opacity="0.1"/><path d="M150.47676,376.33653l-3.17818,16.5072L137.57445,443.416,91.6046,439.84242s-2.90627-8.40349,4.22058-11.71078c0,0,1.819-28.671,10.12945-37.84473a8.629,8.629,0,0,1,3.28628-2.38445Z" transform="translate(-82.02354 -140.83622)" fill="#6c63ff"/><path d="M147.29858,392.84373,137.57445,443.416,91.6046,439.84242s-2.90627-8.40349,4.22058-11.71078c0,0,1.819-28.671,10.12945-37.84473Z" transform="translate(-82.02354 -140.83622)" fill="#fff" opacity="0.1"/><path d="M253.95322,378.824c6.10573,9.82151-6.53858,101.64936-6.53858,101.64936L134.36523,463.99112l2.50177-80.20824c2.05632-14.42381,10.47982-16.27075,10.47982-16.27075,39.37282-20.83938,130.63361-26.79537,130.63361-26.79537,83.3639,1.59822,159.73508,24.69339,159.73508,24.69339C342.71839,352.61,253.95322,378.824,253.95322,378.824Z" transform="translate(-82.02354 -140.83622)" fill="#6c63ff"/><path d="M247.41464,480.47333,134.36523,463.99112l2.50177-80.20824c2.05632-14.42381,10.47982-16.27075,10.47982-16.27075S229.45,358.13128,253.95322,378.824C260.059,388.64548,247.41464,480.47333,247.41464,480.47333Z" transform="translate(-82.02354 -140.83622)" opacity="0.1"/><path d="M235.40109,475.41031,140.8715,461.31145l2.066-68.432c1.71471-12.30557,8.75728-13.87865,8.75728-13.87865s68.64612-7.97717,89.14071,9.6855C245.94382,397.06788,235.40109,475.41031,235.40109,475.41031Z" transform="translate(-82.02354 -140.83622)" fill="#6c63ff"/><ellipse cx="226.58682" cy="419.31453" rx="12.89994" ry="23.47367" transform="translate(-89.90114 -136.48277) rotate(-1.08199)" opacity="0.1"/><ellipse cx="226.57484" cy="418.68022" rx="12.89994" ry="23.47367" transform="translate(-89.88917 -136.48311) rotate(-1.08199)" fill="#dce0ed"/><path d="M227.93888,401.31046s-5.26994.94558-2.38949,7.87108,3.37122,10.51194,3.37122,10.51194,5.33783,2.64885,4.95469-6.43894S227.93888,401.31046,227.93888,401.31046Z" transform="translate(-82.02354 -140.83622)" fill="#f0f0f4"/><ellipse cx="157.27128" cy="411.31713" rx="12.05405" ry="21.93441" transform="translate(-89.76248 -137.7931) rotate(-1.08199)" opacity="0.1"/><ellipse cx="157.2593" cy="410.68282" rx="12.05405" ry="21.93441" transform="translate(-89.75051 -137.79343) rotate(-1.08199)" fill="#dce0ed"/><path d="M158.62334,393.313s-5.26994.94558-2.38949,7.87109,3.37122,10.51194,3.37122,10.51194,5.33784,2.64884,4.95469-6.43895S158.62334,393.313,158.62334,393.313Z" transform="translate(-82.02354 -140.83622)" fill="#f0f0f4"/><path d="M211.40873,399.7169c-.67988,8.687-3.69679,73.04154-3.69679,73.04154l-7.19669-1.06332-4.0023-.58436-5.33229-.78762-.64266-.09576-21.00448-3.09325,2.84795-68.26012a8.54748,8.54748,0,0,1,8.48145-8.18706c.20941.0024.42521.00464.64122.01961,1.44864.09956,3.01193.22232,4.63912.36923.68646.06318,1.37932.12627,2.08507.20175,2.0153.20307,4.095.45569,6.13752.7534,1.04364.158,2.06834.32262,3.08059.50021,1.71276.31033,3.36906.6534,4.89941,1.04966,1.03932.26589,2.02836.55812,2.93546.87731C209.08765,395.75682,211.58843,397.47362,211.40873,399.7169Z" transform="translate(-82.02354 -140.83622)" opacity="0.1"/><path d="M180.86292,390.687l-2.65036,76.70843-2.33187-.16536,2.622-76.19392A8.58619,8.58619,0,0,1,180.86292,390.687Z" transform="translate(-82.02354 -140.83622)" fill="#6c63ff"/><path d="M188.22833,391.27754l-2.37614,77.452-3.59653.06793,3.8876-77.72168C186.82972,391.139,187.52258,391.20206,188.22833,391.27754Z" transform="translate(-82.02354 -140.83622)" fill="#6c63ff"/><path d="M197.44644,392.53115l-4.58485,77.76025-2.3279.044.00431-.108,3.82785-78.19644C195.40949,392.18891,196.43419,392.35356,197.44644,392.53115Z" transform="translate(-82.02354 -140.83622)" fill="#6c63ff"/><path d="M205.28131,394.45812l-4.76606,77.237-.00994.14612-4.02323-.34915.03087-.38133,5.8329-77.53C203.38517,393.8467,204.37421,394.13893,205.28131,394.45812Z" transform="translate(-82.02354 -140.83622)" fill="#6c63ff"/><path d="M120.40929,455.79636s-8.528-39.97338,9.19372-42.37033,76.15918.78249,74.7263,17.30751-2.8626,41.61621-2.8626,41.61621l-12.10281-2.4682s8.32612-37.91218-5.81424-39.07282-48.78516-4.47218-48.78516-4.47218-9.386-1.40907-3.36843,31.63182Z" transform="translate(-82.02354 -140.83622)" opacity="0.1"/><path d="M120.48117,459.60222s-8.576-42.51062,9.1458-44.90757,76.15918.78249,74.7263,17.30751-2.8626,41.61621-2.8626,41.61621l-12.10281-2.4682s8.32612-37.91218-5.81424-39.07282-48.78516-4.47218-48.78516-4.47218-9.3381,1.12817-3.32051,34.16906Z" transform="translate(-82.02354 -140.83622)" fill="#dce0ed"/><path d="M434.88362,506.7559l-15.64619.07975c-12.368-50.10418-31.7789-81.03928-31.7789-81.03928-6.40708-3.26743-75.74822-1.53265-75.74822-1.53265-7.1691,1.40447-8.64075,24.27559-8.64075,24.27559s6.23356,5.16793.37941,8.66694c-2.61655,1.55962-11.31388,2.00943-21.35207,1.685-12.4637-.41184-26.99976-2.02821-34.53517-4.22733-13.61607-3.97523-2.98051-11.99991-2.98051-11.99991s1.855-2.57318,2.86008-16.552a56.4187,56.4187,0,0,1,7.28455-23.1776c.56523-.98154.92319-1.515.92319-1.515a7.317,7.317,0,0,1,2.4446-1.5944c17.78421-7.82345,105.77721-2.35315,105.77721-2.35315l32.75492,9.74972c.90753.34455,2.34,2.61452,4.12193,6.2485C411.453,435.3435,434.88362,506.7559,434.88362,506.7559Z" transform="translate(-82.02354 -140.83622)" fill="#6c63ff"/><path d="M434.88362,506.7559l-15.64619.07975c-12.368-50.10418-31.7789-81.03928-31.7789-81.03928-6.40708-3.26743-75.74822-1.53265-75.74822-1.53265-7.1691,1.40447-8.64075,24.27559-8.64075,24.27559s6.23356,5.16793.37941,8.66694c-2.61655,1.55962-11.31388,2.00943-21.35207,1.685-12.4637-.41184-26.99976-2.02821-34.53517-4.22733-13.61607-3.97523-2.98051-11.99991-2.98051-11.99991s1.855-2.57318,2.86008-16.552a56.4187,56.4187,0,0,1,7.28455-23.1776c.56523-.98154.92319-1.515.92319-1.515a7.317,7.317,0,0,1,2.4446-1.5944c17.78421-7.82345,105.77721-2.35315,105.77721-2.35315l32.75492,9.74972c.90753.34455,2.34,2.61452,4.12193,6.2485C411.453,435.3435,434.88362,506.7559,434.88362,506.7559Z" transform="translate(-82.02354 -140.83622)" opacity="0.1"/><path d="M400.7477,413.47017c-30.28053-11.10994-112.99806-3.34826-112.99806-3.34826-8.94-7.35675-25.49848-7.539-33.02379-7.18743.56523-.98154.92319-1.515.92319-1.515a7.317,7.317,0,0,1,2.4446-1.5944c17.78421-7.82345,105.77721-2.35315,105.77721-2.35315l32.75492,9.74972C397.5333,407.56622,398.96581,409.83619,400.7477,413.47017Z" transform="translate(-82.02354 -140.83622)" fill="#6c63ff"/><path d="M292.67469,413.20158c-1.77918,6.58834-9.105,32.95846-9.105,32.95846a111.37453,111.37453,0,0,0-1.47281,12.73125c-12.4637-.41184-26.99976-2.02821-34.53517-4.22733-13.61607-3.97523-2.98051-11.99991-2.98051-11.99991s1.855-2.57318,2.86008-16.552A56.18379,56.18379,0,0,1,255.649,401.4195a7.317,7.317,0,0,1,2.4446-1.5944C269.89974,402.37505,294.02091,408.21407,292.67469,413.20158Z" transform="translate(-82.02354 -140.83622)" fill="#6c63ff"/><path d="M292.67469,413.20158c-1.77918,6.58834-9.105,32.95846-9.105,32.95846a111.37453,111.37453,0,0,0-1.47281,12.73125c-12.4637-.41184-26.99976-2.02821-34.53517-4.22733-13.61607-3.97523-2.98051-11.99991-2.98051-11.99991s1.855-2.57318,2.86008-16.552A56.18379,56.18379,0,0,1,255.649,401.4195a7.317,7.317,0,0,1,2.4446-1.5944C269.89974,402.37505,294.02091,408.21407,292.67469,413.20158Z" transform="translate(-82.02354 -140.83622)" fill="#fff" opacity="0.1"/><path d="M308.87642,246.32971c-8.38065,1.42736-11.69849,18.93978-11.69849,18.93978l-21.39458,76.7071,161.93216,23.43356,38.83418-127.64077C438.32619,221.3588,308.87642,246.32971,308.87642,246.32971Zm131.41448,79.056s-.81369,7.31254-6.98624,8.06366l-104.73849-2.11462-21.481-.43824-7.20468-.14313-.51415-.0093s-7.90193,1.57694-6.75909-5.10728c0,0,7.52377-63.59576,22.81595-68.6436,0,0,1.59847-.36652,4.38582-.9458,4.38007-.914,11.70072-2.35941,20.32385-3.71516,3.86556-.606,7.99158-1.19794,12.23951-1.716,11.60452-1.40575,24.08846-2.27606,34.44652-1.47546,0,0,76.93394-8.59156,71.70718,8.63965C458.52607,257.78042,443.5222,320.08975,440.2909,325.3857Z" transform="translate(-82.02354 -140.83622)" fill="#6c63ff"/><path d="M299.88048,330.75337l-.51415-.0093s-7.90193,1.57694-6.75909-5.10728c0,0,7.52377-63.59576,22.81595-68.6436,0,0,1.59847-.36652,4.38582-.9458C314.42655,267.05039,297.21206,304.70527,299.88048,330.75337Z" transform="translate(-82.02354 -140.83622)" fill="#6c63ff"/><path d="M299.88048,330.75337l-.51415-.0093s-7.90193,1.57694-6.75909-5.10728c0,0,7.52377-63.59576,22.81595-68.6436,0,0,1.59847-.36652,4.38582-.9458C314.42655,267.05039,297.21206,304.70527,299.88048,330.75337Z" transform="translate(-82.02354 -140.83622)" opacity="0.1"/><path d="M317.04378,486.93135a10.20949,10.20949,0,0,1-9.45783,5.54047l-3.23129-.07859L273.8449,491.656l-10.99524-.26824-10.1649-.65192L118.257,471.52273l.77181-13.22563,15.45543,1.91631,6.39206.793,94.87576,11.74911,12.48518,1.54725,6.0549.7486,25.58463-.6672,27.69649-.72615a10.46261,10.46261,0,0,1,4.09981.70939,9.95392,9.95392,0,0,1,5.4626,4.99852A8.35673,8.35673,0,0,1,317.04378,486.93135Z" transform="translate(-82.02354 -140.83622)" opacity="0.1"/><path d="M317.06774,488.2a10.20949,10.20949,0,0,1-9.45783,5.54047l-44.73629-1.0841-10.1649-.65193L109.35425,471.51323l-11.268-1.60831-6.13992-.88026c-12.09982-2.30963-8.73091-14.42945-8.73091-14.42945.73978-5.51543,21.36685-10.9813,28.13269-10.89332,4.55064.05367,5.31732,7.05081,5.32782,11.6383.00436,2.24616-.16724,3.91189-.16724,3.91189l6.70371.83154L254.3161,476.32l53.28112-1.39335a10.23871,10.23871,0,0,1,9.56241,5.70792A8.35671,8.35671,0,0,1,317.06774,488.2Z" transform="translate(-82.02354 -140.83622)" fill="#dce0ed"/><path d="M101.76786,451.49516s5.84057,6.86959,14.74088,7.75906C116.50874,459.25422,112.76656,451.49894,101.76786,451.49516Z" transform="translate(-82.02354 -140.83622)" opacity="0.1"/><path d="M100.65918,471.18674s-18.82587-.06747-18.63419,10.08149,12.06409,11.61684,12.06409,11.61684l168.70323,29.17514,47.80069-.05674s16.45193-13.636-.9977-19.22877l-48.18363,2.1791L100.58751,478.591S104.70842,472.80236,100.65918,471.18674Z" transform="translate(-82.02354 -140.83622)" opacity="0.1"/><path d="M310.617,523.27209l-47.79854.05881L112.81256,497.38777l-10.97528-1.89938-7.7221-1.33264s-11.87455-1.46993-12.06623-11.6189c-.13753-7.28191,9.52632-9.30456,14.9918-9.86467,2.147-.2182,3.64453-.21476,3.64453-.21476,4.04706,1.61142-.076,7.40012-.076,7.40012l5.85591.96177,154.97044,25.40521,48.18363-2.17909C327.06679,509.63614,310.617,523.27209,310.617,523.27209Z" transform="translate(-82.02354 -140.83622)" fill="#dce0ed"/><path d="M114.6697,462.67315l9.85367-4.62786,5.07049-.30728.38378,42.71822-15.70622-2.876-6.63441-4.105-3.507-17.70079s1.12885-7.42425,1.75118-8.07054S114.6697,462.67315,114.6697,462.67315Z" transform="translate(-82.02354 -140.83622)" fill="#dce0ed"/><path d="M114.6697,462.67315l9.85367-4.62786,5.07049-.30728.38378,42.71822-15.70622-2.876-6.63441-4.105-3.507-17.70079s1.12885-7.42425,1.75118-8.07054S114.6697,462.67315,114.6697,462.67315Z" transform="translate(-82.02354 -140.83622)" opacity="0.1"/><path d="M112.81256,497.38777c.12328.1436.18817.21852.18817.21852l-11.03262-1.911c-.04573-.06893-.09145-.13785-.13083-.2069-5.97407-9.23392-6.61209-16.8109-4.79653-22.81621,2.147-.2182,3.64453-.21476,3.64453-.21476,4.04706,1.61142-.076,7.40012-.076,7.40012l5.85591.96177C106.22982,489.187,111.71566,496.08864,112.81256,497.38777Z" transform="translate(-82.02354 -140.83622)" opacity="0.1"/><path d="M128.3273,457.75979q-2.76747,1.12782-5.11489,2.32383c-7.04591,3.55959-11.36907,7.48653-13.85816,11.42961l-11.268-1.60831c4.6803-10.21561,16.22632-15.05312,16.22632-15.05312l2.36336.48839Z" transform="translate(-82.02354 -140.83622)" opacity="0.1"/><path d="M115.57913,454.83S84.941,467.67638,103.23677,495.67347l11.03465,1.90672S92.02221,473.042,129.59386,457.738Z" transform="translate(-82.02354 -140.83622)" fill="#dce0ed"/><polygon points="107.395 326.348 118.805 325.709 117.768 371.627 99.309 368.591 91.414 364.933 87.648 355.909 84.939 346.865 90.915 338.503 97.805 333.72 107.395 326.348" fill="#dce0ed"/><polygon points="107.395 326.348 118.805 325.709 117.768 371.627 99.309 368.591 91.414 364.933 87.648 355.909 84.939 346.865 90.915 338.503 97.805 333.72 107.395 326.348" opacity="0.1"/><ellipse cx="188.59734" cy="490.88862" rx="5.49834" ry="9.30488" transform="translate(-91.25946 -137.18737) rotate(-1.08199)" fill="#dce0ed"/><path d="M149.17882,517.59623c-1.73852-8.05751-7.956-9.68506-7.956-9.68506s-11.95921-3.26408-12.02778,9.90385c0,0,.31132,8.08446,5.75088,10.51987l.48787,9.03293s.63446,8.39563-4.13784,7.69259-4.27876-8.16816-4.27876-8.16816-2.687-7.881-8.79364-3.64114c0,0-1.34334,4.46713,1.87014,6.62731,1.87454,1.26009,1.99386,3.90287,1.76785,5.88639a8.60622,8.60622,0,0,0,2.10867,6.85061,7.98555,7.98555,0,0,0,7.676,2.591,11.8534,11.8534,0,0,0,6.53491-3.92278,17.31643,17.31643,0,0,0,4.36059-11.64057l.01294-11.61048S150.91734,525.65373,149.17882,517.59623Zm-9.59828,8.35093a6.74075,6.74075,0,1,1,6.61226-6.86683A6.74077,6.74077,0,0,1,139.58054,525.94716Z" transform="translate(-82.02354 -140.83622)" fill="#dce0ed"/><path d="M136.40563,504.50828a2.98361,2.98361,0,0,0-1.41749,4.19605c1.28958,2.30773,2.8418,5.2948,2.71619,6.09456-.21241,1.3524,2.7796.18545,3.17005-.13919s5.86737-.11081,6.11415-3.84338a6.45177,6.45177,0,0,0-3.04151-5.65338l1.11438-8.19071-7.54442-.49205.22006,7.45165Z" transform="translate(-82.02354 -140.83622)" fill="#636780"/><path d="M136.40563,504.50828a2.98361,2.98361,0,0,0-1.41749,4.19605c1.28958,2.30773,2.8418,5.2948,2.71619,6.09456-.21241,1.3524,2.7796.18545,3.17005-.13919s5.86737-.11081,6.11415-3.84338a6.45177,6.45177,0,0,0-3.04151-5.65338l1.11438-8.19071-7.54442-.49205.22006,7.45165Z" transform="translate(-82.02354 -140.83622)" opacity="0.1"/><path d="M138.45812,504.3148s2.702,8.67385,1.59792,9.012S138.45812,504.3148,138.45812,504.3148Z" transform="translate(-82.02354 -140.83622)" opacity="0.1"/><path d="M141.27359,502.19938s2.702,8.67385,1.59791,9.012S141.27359,502.19938,141.27359,502.19938Z" transform="translate(-82.02354 -140.83622)" opacity="0.1"/><path d="M171.17352,475.35214l-3.73559,26.30231s-5.2466-.61794-8.14444-1.185a5.80615,5.80615,0,0,1-1.83113-.53016c-.14867-.14313-.45924-.1246-.87-.03435l-.00635.00012c-1.4028.312-3.8926,1.52663-4.3996.55265a.8606.8606,0,0,0-.14348-.20666l-.00647-.00623c-.505-.52981-1.4617-.11833-2.39149.03881a2.02539,2.02539,0,0,1-1.48166-.16872c-.79-.5054-2.35363.36172-3.64238.66526-.81489.19308-1.51968.16828-1.85708-.56139a1.71666,1.71666,0,0,0-1.27929-.87687l-.00635.00012c-1.22361-.2815-2.926-.03994-3.91308-.2307-.3884-.06881-.65755-.20965-.7514-.47438-.20106-.5673-1.29721-.81944-2.46855-1.01939-1.41965-.246-2.94573-.414-3.0708-.989-.0353-.18968-.17643-.26951-.38584-.27191a12.76528,12.76528,0,0,0-2.30447.61463l-.00635.00012c-.63131.17055-1.15768.18685-1.31854-.267-.17439-.498-.90274-.42714-1.72985-.20846-.66926.17763-1.40652.45169-1.97486.5957-.51163.12387-.87918.14987-.94715-.09-.22527-.83969-2.9359,1.11512-3.6022-.5665s-9.54887-12.7198,1.38384-27.52062c0,0,3.036.15207,5.35909.527a8.36241,8.36241,0,0,1,2.24465.58579c.0127-.00024.01917.006.03195.0121.80786.44163,2.53129.30753,4.08116.39247a5.32366,5.32366,0,0,1,2.281.4963,1.491,1.491,0,0,1,.64713.6667c.37042.79888,1.18548.94847,2.07253.88094,1.19754-.0924,2.521-.57425,3.01393-.34247a.31083.31083,0,0,0,.04477.01821c.89523.3638,4.20572-.06673,4.78069.47446a.32016.32016,0,0,1,.04536.04987c.24775.3507,1.541-.04812,2.86334-.25078l.00635-.00012a3.22989,3.22989,0,0,1,2.63384.36272,2.87521,2.87521,0,0,0,2.073.57,11.89228,11.89228,0,0,1,2.69151.057,1.07317,1.07317,0,0,1,.53919.3261c.55172.65587,1.83772.54274,2.98689.57812a3.03637,3.03637,0,0,1,1.68893.39327,1.50649,1.50649,0,0,0,.61374.2422,18.16083,18.16083,0,0,0,5.09505-.35Z" transform="translate(-82.02354 -140.83622)" fill="#636780"/><path d="M125.42937,496.49589c-.66926.17763-1.40652.45169-1.97486.5957-8.84012-13.15831-1.80009-23.41214,2.19358-27.65013a8.36241,8.36241,0,0,1,2.24465.58579C119.46045,480.14239,123.69775,492.4993,125.42937,496.49589Z" transform="translate(-82.02354 -140.83622)" opacity="0.1"/><path d="M130.78858,496.3566a12.76528,12.76528,0,0,0-2.30447.61463l-.00635.00012c-7.5971-12.85817-.21967-22.71861,3.52809-26.53953a5.32366,5.32366,0,0,1,2.281.4963C126.22973,480.078,128.88313,491.2211,130.78858,496.3566Z" transform="translate(-82.02354 -140.83622)" opacity="0.1"/><path d="M137.46517,499.11129c-.3884-.06881-.65755-.20965-.7514-.47438-.20106-.5673-1.29721-.81944-2.46855-1.01939-6.66693-11.65108-1.07178-20.79891,2.76128-25.14176,1.19754-.0924,2.521-.57425,3.01393-.34247a.31083.31083,0,0,0,.04477.01821C131.16184,482.523,135.79505,495.34831,137.46517,499.11129Z" transform="translate(-82.02354 -140.83622)" opacity="0.1"/><path d="M144.521,500.78013c-.81489.19308-1.51968.16828-1.85708-.56139a1.71666,1.71666,0,0,0-1.27929-.87687l-.00635.00012c-7.77053-12.96914-.28683-22.91405,3.46764-26.716a.32016.32016,0,0,1,.04536.04987c.24775.3507,1.541-.04812,2.86334-.25078C137.27649,483.41007,143.0401,497.62906,144.521,500.78013Z" transform="translate(-82.02354 -140.83622)" opacity="0.1"/><path d="M152.0365,500.24478c-.505-.52981-1.4617-.11833-2.39149.03881-8.07954-12.86811-1.06582-22.83589,2.82278-26.92592a11.89228,11.89228,0,0,1,2.69151.057C146.19848,483.432,150.20948,495.901,152.0365,500.24478Z" transform="translate(-82.02354 -140.83622)" opacity="0.1"/><path d="M159.29349,500.46941a5.80615,5.80615,0,0,1-1.83113-.53016c-.14867-.14313-.45924-.1246-.87-.03435l-.00635.00012c-7.17021-11.75579-1.79981-21.04529,2.09933-25.5861a3.03637,3.03637,0,0,1,1.68893.39327,1.50649,1.50649,0,0,0,.61374.2422C153.58043,484.89789,157.62182,496.624,159.29349,500.46941Z" transform="translate(-82.02354 -140.83622)" opacity="0.1"/><ellipse cx="364.62499" cy="515.9067" rx="34.47034" ry="50.75388" transform="translate(-91.7005 -133.85894) rotate(-1.08199)" fill="#636780"/><ellipse cx="363.47606" cy="516.66869" rx="25.05973" ry="41.13179" transform="translate(-91.71509 -133.8805) rotate(-1.08199)" opacity="0.1"/><ellipse cx="363.4521" cy="515.40007" rx="25.05973" ry="41.13179" transform="translate(-91.69114 -133.88118) rotate(-1.08199)" fill="#f0f0f4"/><ellipse cx="367.47686" cy="487.72171" rx="2.96064" ry="5.07539" transform="translate(-91.16777 -133.81012) rotate(-1.08199)" fill="#636780"/><ellipse cx="380.15592" cy="531.89981" rx="2.96064" ry="5.07539" transform="translate(-91.99973 -133.56282) rotate(-1.08199)" fill="#636780"/><ellipse cx="347.82963" cy="511.35912" rx="2.96064" ry="5.07539" transform="translate(-91.61762 -134.1769) rotate(-1.08199)" fill="#636780"/><ellipse cx="357.05761" cy="540.79655" rx="2.96064" ry="5.07539" transform="translate(-92.17185 -133.9974) rotate(-1.08199)" fill="#636780"/><path d="M615.09606,417.26473s25.984,65.50107,24.79327,69.648c0,0,10.58592,6.14544,13.09321,4.51174s-.26387-30.77-.26387-30.77l-5.24252-25.59972L641.797,419.93313Z" transform="translate(-82.02354 -140.83622)" fill="#6c63ff"/><path d="M615.09606,417.26473s25.984,65.50107,24.79327,69.648c0,0,10.58592,6.14544,13.09321,4.51174s-.26387-30.77-.26387-30.77l-5.24252-25.59972L641.797,419.93313Z" transform="translate(-82.02354 -140.83622)" opacity="0.15"/><ellipse cx="383.86553" cy="504.33316" rx="2.96064" ry="5.07539" transform="translate(-91.47852 -133.49768) rotate(-1.08199)" fill="#636780"/><ellipse cx="368.02794" cy="516.89999" rx="8.67045" ry="12.05405" transform="translate(-91.71865 -133.79451) rotate(-1.08199)" fill="#636780"/><path d="M644.35377,504.91275c.72118,38.18488-11.30851,73.18529-46.58462,70.04432-44.4197-.11287-48.47507-30.05047-49.19625-68.23535s20.18338-67.00754,46.63254-67.50708S643.63259,466.72787,644.35377,504.91275Z" transform="translate(-82.02354 -140.83622)" fill="#636780"/><path d="M644.632,504.97236c-.55835-29.56322-13.85965-53.02483-32.11124-61.88253-23.13121,4.853-40.47506,31.89322-39.8171,66.731.591,31.29282,3.42741,57.04209,28.8773,65.38154C634.12837,575.75718,645.32857,541.85207,644.632,504.97236Z" transform="translate(-82.02354 -140.83622)" opacity="0.1"/><path d="M662.76044,488.38443s-6.24127,5.51143-9.80186,1.77146c0,0-9.857-68.34379-20.64629-68.45729l-37.11315.38367s-4.40423,1.98679-6.15143,10.26877l-22.70609,68.74939-131.482,4.38685-10.43852-20.85042,108.79023-1.7374.01174-.051c.55013-2.11706,17.49731-67.36293,29.56163-75.66842.00623-.00647.01258-.00659.01881-.01306a5.30255,5.30255,0,0,1,1.32605-.6786s45.23938-6.88251,60.22354-3.041c0,0,15.6065,3.1952,19.50221,7.88065a.38186.38186,0,0,1,.03243.03745c.5175.52322,6.52911,7.0406,8.71077,26.13069Z" transform="translate(-82.02354 -140.83622)" opacity="0.1"/><path d="M662.7844,489.65305s-6.24127,5.51143-9.80186,1.77146c0,0-9.857-68.34379-20.64629-68.45729l-37.11315.38367s-4.40423,1.98679-6.15143,10.26877l-22.70609,68.74939-131.482,4.38685L424.4451,485.90548l108.79023-1.7374.01174-.051c.55013-2.11706,17.49731-67.36293,29.56163-75.66842.00623-.00647.01258-.00659.01881-.01306a5.30216,5.30216,0,0,1,1.32605-.67859s45.23938-6.88252,60.22354-3.041c0,0,15.6065,3.1952,19.50221,7.88065a.38186.38186,0,0,1,.03243.03745c.5175.52322,6.52911,7.0406,8.71077,26.13069Z" transform="translate(-82.02354 -140.83622)" fill="#6c63ff"/><path d="M662.7844,489.65305s-6.24127,5.51143-9.80186,1.77146c0,0-9.857-68.34379-20.64629-68.45729l-37.11315.38367s-4.40423,1.98679-6.15143,10.26877l-22.70609,68.74939-131.482,4.38685L424.4451,485.90548l108.79023-1.7374.01174-.051c.55013-2.11706,17.49731-67.36293,29.56163-75.66842.00623-.00647.01258-.00659.01881-.01306a5.30216,5.30216,0,0,1,1.32605-.67859s45.23938-6.88252,60.22354-3.041c0,0,15.6065,3.1952,19.50221,7.88065a.38186.38186,0,0,1,.03243.03745c.5175.52322,6.52911,7.0406,8.71077,26.13069Z" transform="translate(-82.02354 -140.83622)" opacity="0.1"/><path d="M580.81334,416.32587c-3.05774,6.08585-28.93143,80.81531-28.93143,80.81531l-18.64658-12.9731.01174-.051c.55013-2.11706,17.515-67.433,29.58044-75.68148C570.79469,409.64305,582.89274,412.19383,580.81334,416.32587Z" transform="translate(-82.02354 -140.83622)" fill="#6c63ff"/><path d="M544.651,383.06114,530.6672,432.18457l-77.745-.75254.77208,7.28259s61.06152,7.73027,86.84063-4.8128l13.11224-44.87673,122.64532-1.68181-23.46759-5.0561Z" transform="translate(-82.02354 -140.83622)" fill="#6c63ff"/><path d="M544.651,383.06114,530.6672,432.18457l-77.745-.75254.77208,7.28259s61.06152,7.73027,86.84063-4.8128l13.11224-44.87673,122.64532-1.68181-23.46759-5.0561Z" transform="translate(-82.02354 -140.83622)" fill="#fff" opacity="0.1"/><path d="M181.799,466.90462s-41.25771,21.71893-10.01656,40.79953l8.282,1.74719s-30.64677-21.207,19.49528-42.88216Z" transform="translate(-82.02354 -140.83622)" opacity="0.1"/><path d="M183.06762,466.88066s-41.25772,21.71893-10.01656,40.79953l8.282,1.74719s-30.64677-21.207,19.49528-42.88216Z" transform="translate(-82.02354 -140.83622)" fill="#dce0ed"/><ellipse cx="614.96017" cy="510.86146" rx="23.15646" ry="39.65147" transform="translate(-91.56059 -129.13271) rotate(-1.08199)" fill="#636780"/><ellipse cx="614.19511" cy="511.73187" rx="16.8346" ry="32.13421" transform="translate(-91.57716 -129.147) rotate(-1.08199)" opacity="0.1"/><ellipse cx="614.17115" cy="510.46325" rx="16.8346" ry="32.13421" transform="translate(-91.55321 -129.14768) rotate(-1.08199)" fill="#f0f0f4"/><ellipse cx="616.81786" cy="488.84893" rx="1.9889" ry="3.96515" transform="translate(-91.14459 -129.10156) rotate(-1.08199)" fill="#636780"/><ellipse cx="625.42719" cy="523.38755" rx="1.9889" ry="3.96515" transform="translate(-91.79526 -128.93283) rotate(-1.08199)" fill="#636780"/><ellipse cx="603.66735" cy="507.27413" rx="1.9889" ry="3.96515" transform="translate(-91.49487 -129.3466) rotate(-1.08199)" fill="#636780"/><ellipse cx="609.92771" cy="530.29004" rx="1.9889" ry="3.96515" transform="translate(-91.92836 -129.22428) rotate(-1.08199)" fill="#636780"/><ellipse cx="627.86239" cy="501.85985" rx="1.9889" ry="3.96515" transform="translate(-91.38831 -128.89068) rotate(-1.08199)" fill="#636780"/><ellipse cx="617.24839" cy="511.64446" rx="5.82463" ry="9.41722" transform="translate(-91.57497 -129.08936) rotate(-1.08199)" fill="#636780"/><path d="M275.44523,340.87254S345.9016,342.08,437.71551,365.41015Z" transform="translate(-82.02354 -140.83622)" opacity="0.1"/><path d="M609.0504,211.26921s-3.81169.68393-1.72829,5.69306a34.86989,34.86989,0,0,1,2.43836,7.60316s3.86079,1.91588,3.58367-4.65721S609.0504,211.26921,609.0504,211.26921Z" transform="translate(-82.02354 -140.83622)" fill="#dce0ed"/></g><rect x="256.28375" y="396.29571" width="43.45982" height="129.60338" fill="url(#fa0f513b-d47c-4002-ac89-65e4638dd43f)"/><rect x="259.38802" y="396.29571" width="37.25127" height="127.27517" fill="#795548"/><polygon points="279.178 292.376 104.174 452.949 454.181 452.949 279.178 292.376" fill="url(#a66a4600-d4e4-458f-9269-5522c246d383)"/><polygon points="279.178 296.59 111.159 448.653 447.197 448.653 279.178 296.59" fill="#4c4981"/><polygon points="278.79 232.237 126.68 382.326 430.899 382.326 278.79 232.237" fill="url(#b6ebda7a-cc5d-47c5-a92f-a46c420afb32)"/><polygon points="278.79 236.321 132.889 380.284 424.691 380.284 278.79 236.321" fill="#4c4981"/><polygon points="278.014 177.703 160.827 311.704 395.2 311.704 278.014 177.703" fill="url(#e99218ea-d8b9-4102-bb7d-f97f881ca49d)"/><polygon points="278.014 183.822 166.26 308.645 389.767 308.645 278.014 183.822" fill="#4c4981"/><polygon points="278.014 129.343 190.318 246.515 365.709 246.515 278.014 129.343" fill="url(#fb953447-d7dd-4755-9314-66865a975b60)"/><polygon points="278.014 132.799 194.198 244.786 361.829 244.786 278.014 132.799" fill="#4c4981"/><polygon points="278.79 78.884 218.301 183.653 339.278 183.653 278.79 78.884" fill="url(#b68771ed-b829-44c6-99f4-3c7e5950bc15)"/><polygon points="278.79 81.988 220.99 182.101 336.59 182.101 278.79 81.988" fill="#4c4981"/><rect x="737.07608" y="396.29571" width="43.45982" height="129.60338" fill="url(#b643c979-f3df-4de9-9acf-578d66a85c39)"/><rect x="740.18035" y="396.29571" width="37.25127" height="127.27517" fill="#795548"/><polygon points="759.97 292.376 584.967 452.949 934.973 452.949 759.97 292.376" fill="url(#a9824476-13cc-4e77-8165-c782faed57a8)"/><polygon points="759.97 296.59 591.951 448.653 927.989 448.653 759.97 296.59" fill="#4c4981"/><polygon points="759.582 232.237 607.473 382.326 911.691 382.326 759.582 232.237" fill="url(#ac1bf71e-6b95-4dd7-aeaa-7fe76c9b4ff5)"/><polygon points="759.582 236.321 613.681 380.284 905.483 380.284 759.582 236.321" fill="#4c4981"/><polygon points="758.806 177.703 641.62 311.704 875.992 311.704 758.806 177.703" fill="url(#e405169f-2c49-4c97-ac56-2989dc8ff0f1)"/><polygon points="758.806 183.822 647.052 308.645 870.56 308.645 758.806 183.822" fill="#4c4981"/><polygon points="758.806 129.343 671.11 246.515 846.502 246.515 758.806 129.343" fill="url(#b81ebb6b-b9d6-462a-98ce-a5cee6f4f21e)"/><polygon points="758.806 132.799 674.991 244.786 842.621 244.786 758.806 132.799" fill="#4c4981"/><polygon points="759.582 78.884 699.094 183.653 820.071 183.653 759.582 78.884" fill="url(#ab8c5e3a-15ae-42c1-880d-aa379b75f657)"/><polygon points="759.582 81.988 701.782 182.101 817.382 182.101 759.582 81.988" fill="#4c4981"/><path d="M687.81995,530.83461c-.47339-2.24863-2.13026-3.84634-3.66882-3.55047s-2.367,2.42615-1.89359,4.67478,2.13027,3.84634,3.66882,3.55047S688.29334,533.14241,687.81995,530.83461Z" transform="translate(-82.02354 -140.83622)" fill="url(#a8bc26b3-d54e-4949-9551-658d8ea2eef7)"/><path d="M689.00344,529.05938c-.47339-2.24863-2.13026-3.84634-3.66882-3.55047s-2.367,2.42615-1.89359,4.67478,2.13027,3.84634,3.66882,3.55047S689.47683,531.36718,689.00344,529.05938Z" transform="translate(-82.02354 -140.83622)" fill="#fff"/><rect x="592.83838" y="340.5238" width="43.45982" height="129.60338" fill="url(#b679fba6-0f51-43eb-8b8a-c7bf6908f35f)"/><rect x="595.94265" y="340.5238" width="37.25127" height="127.27517" fill="#795548"/><polygon points="615.732 236.604 440.729 397.177 790.736 397.177 615.732 236.604" fill="url(#b07d5774-ff6c-42f0-b206-6964fdaab4d7)"/><polygon points="615.732 240.818 447.714 392.881 783.751 392.881 615.732 240.818" fill="#4c4981"/><polygon points="615.344 176.465 463.235 326.555 767.454 326.555 615.344 176.465" fill="url(#f7dba628-339f-4069-a463-482995735f9f)"/><polygon points="615.344 180.549 469.444 324.513 761.245 324.513 615.344 180.549" fill="#4c4981"/><polygon points="614.568 121.931 497.382 255.932 731.755 255.932 614.568 121.931" fill="url(#b4a66175-7b12-4117-ba5e-a55d76ecb696)"/><polygon points="614.568 128.05 502.814 252.873 726.322 252.873 614.568 128.05" fill="#4c4981"/><polygon points="614.568 73.571 526.873 190.743 702.264 190.743 614.568 73.571" fill="url(#a7cf51da-3e8c-4986-856b-f96bb6a2b7a6)"/><polygon points="614.568 77.027 530.753 189.014 698.384 189.014 614.568 77.027" fill="#4c4981"/><polygon points="615.344 23.112 554.856 127.881 675.833 127.881 615.344 23.112" fill="url(#e2d9024e-059c-421c-8a86-646b71badf56)"/><polygon points="615.344 26.216 557.544 126.329 673.145 126.329 615.344 26.216" fill="#4c4981"/><path d="M543.58226,475.0627c-.47339-2.24863-2.13027-3.84634-3.66883-3.55047s-2.367,2.42615-1.89359,4.67478,2.13027,3.84634,3.66883,3.55047S544.05564,477.3705,543.58226,475.0627Z" transform="translate(-82.02354 -140.83622)" fill="url(#b8707c05-2631-4f8b-936f-f1717bc243c4)"/><path d="M544.76574,473.28747c-.47338-2.24863-2.13026-3.84634-3.66882-3.55047s-2.367,2.42615-1.89359,4.67478,2.13027,3.84634,3.66882,3.55047S545.23913,475.59527,544.76574,473.28747Z" transform="translate(-82.02354 -140.83622)" fill="#fff"/><rect x="438.98483" y="334.75429" width="43.45982" height="129.60338" fill="url(#a3f470d3-6718-4125-86a0-70a7b4389fab)"/><rect x="442.08911" y="334.75429" width="37.25127" height="127.27517" fill="#795548"/><polygon points="461.879 230.835 286.875 391.407 636.882 391.407 461.879 230.835" fill="url(#a7cf90bc-2282-4b0a-b298-f42ec03ddc7a)"/><polygon points="461.879 235.049 293.86 387.112 629.898 387.112 461.879 235.049" fill="#4c4981"/><polygon points="461.491 170.696 309.381 320.785 613.6 320.785 461.491 170.696" fill="url(#bdb759bf-5cf4-46d7-89f8-4941451fe660)"/><polygon points="461.491 174.78 315.59 318.743 607.392 318.743 461.491 174.78" fill="#4c4981"/><polygon points="460.715 116.162 343.528 250.163 577.901 250.163 460.715 116.162" fill="url(#ef7322aa-8ccb-44e3-afc8-10b31c4881c3)"/><polygon points="460.715 122.281 348.961 247.103 572.469 247.103 460.715 122.281" fill="#4c4981"/><polygon points="460.715 67.801 373.019 184.973 548.41 184.973 460.715 67.801" fill="url(#fc0dfee9-91aa-459a-a3e6-59d633a82201)"/><polygon points="460.715 71.258 376.899 183.245 544.53 183.245 460.715 71.258" fill="#4c4981"/><polygon points="461.491 17.342 401.002 122.112 521.979 122.112 461.491 17.342" fill="url(#a2785641-0db8-4cf0-9da6-4cd8245eadc4)"/><polygon points="461.491 20.447 403.691 120.559 519.291 120.559 461.491 20.447" fill="#4c4981"/><path d="M389.72871,469.29319c-.47339-2.24863-2.13027-3.84634-3.66882-3.55047s-2.367,2.42616-1.89359,4.67479,2.13026,3.84633,3.66882,3.55046S390.2021,471.601,389.72871,469.29319Z" transform="translate(-82.02354 -140.83622)" fill="url(#aa0f49c5-9729-4db2-a7be-72d2e8f1b550)"/><ellipse cx="878.96309" cy="598.88496" rx="156.98984" ry="19.4426" fill="#6c63ff" opacity="0.1"/><path d="M906.77,688.61194a5.81585,5.81585,0,0,1-4.33026-2.61847c-4.32948-6.54792-15.82167-25.23981-7.75214-27.82206a31.58407,31.58407,0,0,1,3.90644-.95739,39.77754,39.77754,0,0,1,38.55981,15.07,37.245,37.245,0,0,1,3.16525,4.81507,4.95952,4.95952,0,0,1-2.97166,7.14984C930.19606,686.31,917.05255,689.5016,906.77,688.61194Z" transform="translate(-82.02354 -140.83622)" fill="#6c63ff"/><polygon points="816.767 546.744 860.793 538.78 926.709 538.78 917.292 553.301 825.743 553.301 816.767 546.744" fill="#33323d"/><path d="M932.2447,220.49949c4.94237-2.51064,11.38262.02568,17.26147.59509,7.62306.73836,15.1697-2.0349,22.84641-1.78827a28.59619,28.59619,0,0,1,18.73433,7.738,22.88752,22.88752,0,0,1,6.89622,15.70444,18.268,18.268,0,0,1-2.409,10.09889c-3.65408,6.09954-11.95155,10.22922-20.64765,10.911a38.65858,38.65858,0,0,1-24.11861-6.32329c-5.68416-3.85858-9.64376-8.95849-14.45007-13.46648-3.41523-3.20326-12.41691-7.25475-12.48818-11.42846C923.82056,229.66729,929.12882,222.0823,932.2447,220.49949Z" transform="translate(-82.02354 -140.83622)" fill="#4c4981"/><path d="M932.2447,220.49949c4.94237-2.51064,11.38262.02568,17.26147.59509,7.62306.73836,15.1697-2.0349,22.84641-1.78827a28.59619,28.59619,0,0,1,18.73433,7.738,22.88752,22.88752,0,0,1,6.89622,15.70444,18.268,18.268,0,0,1-2.409,10.09889c-3.65408,6.09954-11.95155,10.22922-20.64765,10.911a38.65858,38.65858,0,0,1-24.11861-6.32329c-5.68416-3.85858-9.64376-8.95849-14.45007-13.46648-3.41523-3.20326-12.41691-7.25475-12.48818-11.42846C923.82056,229.66729,929.12882,222.0823,932.2447,220.49949Z" transform="translate(-82.02354 -140.83622)" opacity="0.1"/><path d="M950.564,649.78345l-.67373,13.98071a186.27248,186.27248,0,0,1,19.866-.37783c.5373-2.1084-.02381-4.31783-.44169-6.45312a48.74327,48.74327,0,0,1-.80254-12.52365c.07532-1.15229-12.30377-2.33087-13.55306-2.38415-1.52349-.065-3.10007-.26846-3.83,1.31734C950.31779,645.105,950.65554,647.88366,950.564,649.78345Z" transform="translate(-82.02354 -140.83622)" fill="#4c4981"/><path d="M934.25882,654.29281l-.67373,13.9807a186.27,186.27,0,0,1,19.866-.37782c.53729-2.10841-.02381-4.31784-.4417-6.45313a48.74367,48.74367,0,0,1-.80254-12.52364c.07533-1.1523-12.30377-2.33088-13.553-2.38416-1.5235-.065-3.10008-.26846-3.83,1.31734C934.01262,649.61433,934.35037,652.393,934.25882,654.29281Z" transform="translate(-82.02354 -140.83622)" fill="#4c4981"/><path d="M965.11905,649.2974a7.36271,7.36271,0,0,0-2.53908,1.58831l-4.99767,4.176c-1.68638,1.40913-3.89685,2.90516-5.90251,2.00692a13.1966,13.1966,0,0,1-2.33735-1.8347,2.30222,2.30222,0,0,0-2.74263-.31245,2.81694,2.81694,0,0,0-.76754,1.73541,132.83978,132.83978,0,0,0-2.17386,26.91246,15.81441,15.81441,0,0,0,4.86573,1.08247.785.785,0,0,0,.54023-.10215c.29568-.23261.13389-.6932.094-1.06729-.13766-1.2912,1.66088-2.05456,2.82953-1.48853a5.60494,5.60494,0,0,1,2.2995,3.03809,3.06207,3.06207,0,0,0,.85829,1.28932,2.87384,2.87384,0,0,0,1.18762.43524,43.7731,43.7731,0,0,0,6.88661.62474q16.002.56357,32.01731.00446a10.62175,10.62175,0,0,0,3.28141-.46515,6.23443,6.23443,0,0,0,3.81555-4.84294,8.574,8.574,0,0,0-1.51723-6.12222,10.56024,10.56024,0,0,0-3.50767-3.2223,21.049,21.049,0,0,0-3.31637-1.4031l-5.03588-1.799c-3.64816-1.30328-7.42774-2.68831-10.1511-5.44348a25.987,25.987,0,0,1-3.8295-5.52292C973.11624,655.31333,970.16515,647.82319,965.11905,649.2974Z" transform="translate(-82.02354 -140.83622)" fill="#4c4981"/><path d="M965.11905,649.2974a7.36271,7.36271,0,0,0-2.53908,1.58831l-4.99767,4.176c-1.68638,1.40913-3.89685,2.90516-5.90251,2.00692a13.1966,13.1966,0,0,1-2.33735-1.8347,2.30222,2.30222,0,0,0-2.74263-.31245,2.81694,2.81694,0,0,0-.76754,1.73541,132.83978,132.83978,0,0,0-2.17386,26.91246,15.81441,15.81441,0,0,0,4.86573,1.08247.785.785,0,0,0,.54023-.10215c.29568-.23261.13389-.6932.094-1.06729-.13766-1.2912,1.66088-2.05456,2.82953-1.48853a5.60494,5.60494,0,0,1,2.2995,3.03809,3.06207,3.06207,0,0,0,.85829,1.28932,2.87384,2.87384,0,0,0,1.18762.43524,43.7731,43.7731,0,0,0,6.88661.62474q16.002.56357,32.01731.00446a10.62175,10.62175,0,0,0,3.28141-.46515,6.23443,6.23443,0,0,0,3.81555-4.84294,8.574,8.574,0,0,0-1.51723-6.12222,10.56024,10.56024,0,0,0-3.50767-3.2223,21.049,21.049,0,0,0-3.31637-1.4031l-5.03588-1.799c-3.64816-1.30328-7.42774-2.68831-10.1511-5.44348a25.987,25.987,0,0,1-3.8295-5.52292C973.11624,655.31333,970.16515,647.82319,965.11905,649.2974Z" transform="translate(-82.02354 -140.83622)" opacity="0.1"/><path d="M1012.88471,423.15946c-.02771,2.85133-.08305,5.71652-.18,8.56785a429.30878,429.30878,0,0,1-4.7476,52.27916c-.59517,3.88945-1.24577,7.765-2.20083,11.57143-1.37029,5.45353-3.39117,10.76868-3.97249,16.3606-.83045,8.01416,1.315,16.24984-.49827,24.098-.92744,4.014-2.86519,7.72346-4.04176,11.68209a63.52161,63.52161,0,0,0-1.57786,7.19757q-1.51572,8.388-3.03128,16.76205-.153.85611-.3061,1.71167a68.8099,68.8099,0,0,1-6.56311,18.90049,59.9835,59.9835,0,0,0-3.95481,11.583q-2.67827,9.92438-5.34278,19.87638c-2.40848,8.95537-4.83073,18.29835-2.96209,27.39219a63.19032,63.19032,0,0,1-10.824-1.578,61.50144,61.50144,0,0,1-13.13552-4.81679c-.94121-15.43325-.24914-30.908.42908-46.355.44294-9.78591.88587-19.59953,2.533-29.26083,1.78551-10.53332,4.23548-20.58222,6.38088-31.04635,3.21123-15.66852,6.43622-31.47543,6.13175-47.46236-.3876-20.70675.15224-41.80109,9.19074-60.43171a13.81718,13.81718,0,0,1,4.18006-5.66118,14.32543,14.32543,0,0,1,5.99337-2.00695,113.60492,113.60492,0,0,1,21.77256-1.56409A15.28269,15.28269,0,0,1,1012.88471,423.15946Z" transform="translate(-82.02354 -140.83622)" fill="#33323d"/><path d="M1012.88471,423.15946c-.02771,2.85133-21.64117.67523-21.73807,3.52656-26.58151-3.07951-14.12531,3.09311-15.30188,3.92356-2.51907,1.77174,9.58147-1.7856,7.06241,0-2.187,1.55023-5.591,7.56781-7.84712,9.03508-5.27359,3.44651,12.301,14.06287,8.38388,18.99042-3.5434,4.457-4.37386,10.53332-3.9033,16.19451.48451,5.675,2.11779,11.17005,2.976,16.80353a62.87267,62.87267,0,0,1-3.30813,31.68309c-2.28387,6.0487-5.48124,11.68218-8.38791,17.454-3.18351,6.35317-9.06613,12.66487-8.3602,19.73791,1.60557,15.94529-1.17657,31.98756-1.924,48.00212-.2907,6.11789-.27685,12.3604,1.42562,18.25686.63674,2.24231,1.52261,4.42928,2.03474,6.71307,1.19034,5.31515.24914,10.81016-1.31495,16.08375a61.50144,61.50144,0,0,1-13.13552-4.81679c-.94121-15.43325-.24914-30.908.42908-46.355.44294-9.78591.88587-19.59953,2.533-29.26083,1.78551-10.53332,4.23548-20.58222,6.38088-31.04635,3.21123-15.66852,6.43622-31.47543,6.13175-47.46236-.3876-20.70675.15224-41.80109,9.19074-60.43171a13.81718,13.81718,0,0,1,4.18006-5.66118,14.32543,14.32543,0,0,1,5.99337-2.00695,113.60492,113.60492,0,0,1,21.77256-1.56409A15.28269,15.28269,0,0,1,1012.88471,423.15946Z" transform="translate(-82.02354 -140.83622)" opacity="0.1"/><path d="M1014.47606,408.93682c.05534,5.07979,2.83784,16.31271-1.0516,19.57927-2.58834,2.187-5.78571,3.51578-8.56786,5.46739-2.51906,1.77174-4.66456,4.04167-7.18362,5.82727-2.187,1.55024-4.62308,2.71287-6.87925,4.18015-5.27358,3.4465-7.58508,9.71663-11.50223,14.64418-3.54341,4.457-4.37386,10.53332-3.9033,16.19451.4845,5.675,2.11778,11.17005,2.976,16.80353a62.87267,62.87267,0,0,1-3.30813,31.68309c-2.28387,6.0487-5.48124,11.68218-8.38791,17.454-3.18352,6.35317-9.06613,12.66487-8.3602,19.73791,1.60557,15.94529-1.17658,31.98756-1.924,48.00212-.29071,6.11789-.27685,12.3604,1.42562,18.25686.63674,2.24231,1.52261,4.42928,2.03474,6.71307,1.398,6.27022-.16609,12.81719-2.21469,18.90746-7.0591-1.23191-14.20125-2.46382-21.34348-1.93784-6.27013.47065-12.49878,2.28388-18.74128,1.53638-.74749-16.845.789-33.70388,2.3115-50.49356.30455-3.43265.62288-6.86538.92735-10.298,1.2042-13.14937,2.39463-26.3126,3.10047-39.51731.17994-3.322-.99655-6.85153-.05534-10.06275q2.90676-10.06961,5.84114-20.13929a66.33589,66.33589,0,0,0,2.36683-10.15966c.88587-7.156-.58132-14.36742-2.04851-21.41267q-3.01053-14.47129-6.021-28.95627c-.66445-3.21123-1.32881-6.43631-2.24239-9.606a63.67792,63.67792,0,0,1-1.68862-6.381,80.50749,80.50749,0,0,1-.55369-9.13532c-.30447-5.27359-1.53638-10.43642-1.9239-15.69623a32.23973,32.23973,0,0,1,.23528-7.57123,19.07465,19.07465,0,0,1,2.83748-7.64051,233.28438,233.28438,0,0,1,45.55224-13.0109,64.31855,64.31855,0,0,1,11.03159-1.28733,73.70267,73.70267,0,0,1,12.54035,1.398c5.78571.99663,11.66832,2.03473,16.95576,4.59537a25.17567,25.17567,0,0,1,6.893,4.803c2.68524,2.68525,1.05161-3.52276,1.8683.17288C1015.76332,402.8471,1014.46221,407.64958,1014.47606,408.93682Z" transform="translate(-82.02354 -140.83622)" fill="#33323d"/><path d="M948.81389,653.80675a7.36272,7.36272,0,0,0-2.53909,1.58832l-4.99767,4.176c-1.68637,1.40913-3.89685,2.90516-5.90251,2.00692a13.19653,13.19653,0,0,1-2.33734-1.8347,2.30222,2.30222,0,0,0-2.74263-.31245,2.817,2.817,0,0,0-.76755,1.73541,132.84049,132.84049,0,0,0-2.17385,26.91246,15.81428,15.81428,0,0,0,4.86573,1.08247.785.785,0,0,0,.54023-.10215c.29568-.23261.13389-.6932.094-1.06729-.13767-1.2912,1.66087-2.05456,2.82953-1.48853a5.605,5.605,0,0,1,2.2995,3.03809,3.06207,3.06207,0,0,0,.85829,1.28932,2.87374,2.87374,0,0,0,1.18762.43524,43.7731,43.7731,0,0,0,6.88661.62474q16.002.56357,32.01731.00446a10.62168,10.62168,0,0,0,3.2814-.46514A6.2345,6.2345,0,0,0,986.029,686.587a8.574,8.574,0,0,0-1.51724-6.12222,10.56034,10.56034,0,0,0-3.50767-3.2223,21.0493,21.0493,0,0,0-3.31636-1.4031l-5.03588-1.799c-3.64816-1.30328-7.42775-2.68831-10.1511-5.44348a25.98662,25.98662,0,0,1-3.8295-5.52292C956.81108,659.82268,953.86,652.33255,948.81389,653.80675Z" transform="translate(-82.02354 -140.83622)" fill="#4c4981"/><path d="M997.94974,246.68105a9.89892,9.89892,0,0,1-2.09007,4.277c-2.15927,3.01743-4.55381,6.17332-8.05565,7.36366a16.24475,16.24475,0,0,1-6.00722.53984,78.89516,78.89516,0,0,1-47.3239-18.83827c6.27021-4.13858,9.61982-11.68218,10.43641-19.14266a63.02245,63.02245,0,0,0-.99654-17.34337c-.2907-1.68861-.59517-3.36346-.89973-5.02445-.5536-3.059-1.9516-5.42582,1.4949-6.284,2.713-.66445,6.39474-.1938,9.163-.04157,6.09027.346,12.30507,1.661,17.26033,5.3982a11.54254,11.54254,0,0,1,3.32189,3.62645c2.13164,4.0002.40146,8.70624-.0969,13.30161a18.23521,18.23521,0,0,0-.06919,3.12818c.3876,5.09364,3.8064,9.48135,7.73741,12.73414,3.93092,3.26656,8.471,5.74415,12.305,9.09384C996.275,241.33827,998.32348,243.87128,997.94974,246.68105Z" transform="translate(-82.02354 -140.83622)" fill="#fbbebe"/><path d="M974.15629,214.51355a29.06583,29.06583,0,0,1-6.63.76126,29.55579,29.55579,0,0,1-23.6135-11.73752c-.2907-1.68861-.59517-3.36346-.89973-5.02445-.5536-3.059-1.9516-5.42582,1.4949-6.284,2.713-.66445,6.39474-.1938,9.163-.04157,6.09027.346,12.30507,1.661,17.26033,5.3982a11.54254,11.54254,0,0,1,3.32189,3.62645C976.38483,205.21214,974.65465,209.91818,974.15629,214.51355Z" transform="translate(-82.02354 -140.83622)" opacity="0.1"/><circle cx="885.5067" cy="43.42867" r="29.63252" fill="#fbbebe"/><path d="M1016.28965,404.09985c-.18.40137-1.59216,7.21086-1.81359,7.59838-9.8551-1.95161-15.98649-2.14485-26.03539-1.97876a40.817,40.817,0,0,0-7.57123.63665c-2.10392.41531-4.15243,1.10738-6.27021,1.43956-11.41919,1.75781-22.22936-7.16985-33.7593-6.29792-3.84788.2907-7.52967,1.67485-11.14235,3.03128-4.02782,1.52261-7.945,2.68524-11.90361,4.02791a19.07465,19.07465,0,0,1,2.83748-7.64051,233.28438,233.28438,0,0,1,45.55224-13.0109,64.31855,64.31855,0,0,1,11.03159-1.28733,73.70267,73.70267,0,0,1,12.54035,1.398c5.78571.99663,11.66832,2.03473,16.95576,4.59537a25.17567,25.17567,0,0,1,6.893,4.803C1016.28965,404.09985,1015.473,400.4042,1016.28965,404.09985Z" transform="translate(-82.02354 -140.83622)" opacity="0.1"/><path d="M957.644,244.76352c-.61536-2.96327-2.66664-5.39322-4.682-7.651q-5.72157-6.40982-11.82142-12.4681a16.9955,16.9955,0,0,0-4.603-3.59536,5.99262,5.99262,0,0,0-5.62892.04972c-1.53591.97053-2.32033,2.75856-3.54666,4.09911-2.66376,2.91186-7.296,3.60132-9.53342,6.85226a17.68063,17.68063,0,0,1-1.70875,2.59009,7.60481,7.60481,0,0,1-3.35293,1.65031l-14.12019,4.2281c-1.66159.49754-3.49488,1.13189-4.29239,2.67215a8.75376,8.75376,0,0,0-.62743,2.56951c-1.11727,6.3946-6.75306,10.82983-11.70247,15.03013-1.712,1.45289-3.454,3.04739-4.18412,5.17078-.71669,2.0843-.35148,4.37054.094,6.52914,1.13336,5.4921,2.78624,10.98614,5.94949,15.61664,2.1285,3.11579,4.90892,5.7934,6.65271,9.13972a31.41339,31.41339,0,0,1,2.76127,10.1c.95554,6.56905,1.51728,13.18818,2.07849,19.8026.49408,5.82325-.20638,12.36726,1.47872,17.96323,2.06331,6.85194,9.41495,10.74778,12.67743,17.11666a32.003,32.003,0,0,1,2.50615,8.41865l3.17807,15.89056a34.95358,34.95358,0,0,1,.93427,7.33719c-.0869,5.82565-3.07355,11.50865-2.12862,17.25782,5.28081-1.99707,10.38814-3.36857,15.66894-5.36564,3.61817-1.36829,7.29815-2.75074,11.15553-3.04051,11.51716-.86519,22.33567,8.05894,33.75032,6.29844,2.12043-.327,4.1675-1.01877,6.27181-1.43716a42.15295,42.15295,0,0,1,7.5686-.64308,142.43424,142.43424,0,0,1,29.96487,2.71168c1.9925-3.3515,2.32254-7.467,1.83189-11.33506s-1.73778-7.59258-2.71833-11.36633a84.25472,84.25472,0,0,1-2.17837-30.4822,67.28341,67.28341,0,0,0,.68545-7.72989c-.03825-9.66133-5.85485-18.71065-5.31573-28.357.53071-9.49576,11.37477-14.80865,15.84567-23.20282a9.94015,9.94015,0,0,0,1.49181-5.58415c-.21717-2.041-1.47626-3.796-2.28723-5.68156-1.98139-4.6067-1.2553-9.91236-2.404-14.79377-.40248-1.71035-1.03426-3.36138-1.41072-5.07765-1.04105-4.746-.091-9.78232-1.30762-14.48635-.94075-3.63726-3.11483-6.82482-5.43423-9.78032-3.92123-4.99663-8.50185-9.66837-14.2241-12.42486s-12.76123-3.3495-18.34813-.32809a6.783,6.783,0,0,0-2.26138,1.78892,9.01691,9.01691,0,0,0-1.24047,2.91614,90.35108,90.35108,0,0,1-8.21383,19.13067,8.88158,8.88158,0,0,1-7.25558-2.17524C961.6412,249.02685,958.17514,247.321,957.644,244.76352Z" transform="translate(-82.02354 -140.83622)" fill="#6c63ff"/><path d="M953.271,193.15009a9.58139,9.58139,0,0,0,.71672-4.19612,6.65372,6.65372,0,0,1,1.12286-4.06524c1.15379-1.40215,3.23612-1.78382,4.34988-3.218,1.26313-1.62652.84045-3.94327,1.2204-5.96731a7.52472,7.52472,0,0,1,6.949-5.94623c2.481-.07531,4.81161,1.10164,7.24649,1.58349,3.16968.62726,6.4398.06438,9.62153-.49861,2.37137-.4196,4.94831-.95425,6.48466-2.80873a9.82051,9.82051,0,0,0,1.713-4.24259c.53062-2.38962.93545-5.04508-.29932-7.15865-1.241-2.1243-3.83295-3.13813-5.19571-5.18647-1.19336-1.79373-1.28981-4.15153-2.49919-5.9345-1.88687-2.78177-5.801-3.26943-9.13583-2.8481s-6.706,1.4775-9.99213.77032c-3.61729-.77846-7.19864-3.63552-10.60877-2.19962-2.50682,1.05554-3.55715,3.94805-5.09189,6.19368a13.51335,13.51335,0,0,1-5.27238,4.529c-3.26108,1.56777-7.08225,1.78885-10.20952,3.609a11.40466,11.40466,0,0,0-5.41475,7.75716,3.3539,3.3539,0,0,0,.05865,1.78786,7.74179,7.74179,0,0,0,.79562,1.26487c1.30171,2.06189.458,4.80336-.80084,6.89167s-2.93813,4.041-3.3443,6.44539c-.40671,2.40751.55328,4.8409,1.7873,6.94772a51.559,51.559,0,0,1,3.68967,6.3164c1.0624,2.60293,1.26311,5.4953,2.33631,8.09379a13.11416,13.11416,0,0,0,9.79288,7.78227,2.99757,2.99757,0,0,0,2.39-.35878,3.10078,3.10078,0,0,0,.88721-1.69989,19.64576,19.64576,0,0,0,.5651-3.37648c.17608-2.23765-.0226-4.82937.998-6.89915C949.409,193.9277,951.92944,195.6822,953.271,193.15009Z" transform="translate(-82.02354 -140.83622)" fill="#33323d"/><path d="M992.39621,156.63211c-1.241-2.12429-3.83293-3.13815-5.1957-5.18649-1.19338-1.79371-1.28978-4.1515-2.49921-5.93448a6.55361,6.55361,0,0,0-3.74346-2.53242c.00481.007.01132.012.01613.019,1.20936,1.783,1.30583,4.14077,2.49913,5.93448,1.36277,2.04834,3.95475,3.0622,5.19578,5.18649,1.23478,2.11356.83,4.769.29932,7.15862a9.82013,9.82013,0,0,1-1.713,4.24258c-1.53638,1.85453-4.11332,2.38913-6.48463,2.80875-3.18174.563-6.45185,1.12589-9.62159.49861-2.43484-.48188-4.76552-1.65879-7.24649-1.58352a7.52488,7.52488,0,0,0-6.949,5.94623c-.37991,2.02409.04275,4.34082-1.22033,5.96735-1.11381,1.43415-3.19611,1.81584-4.35,3.218a6.65407,6.65407,0,0,0-1.12285,4.06525,9.58157,9.58157,0,0,1-.71665,4.19611c-1.34157,2.53208-3.862.77765-5.13935,3.36811-1.02062,2.06979-.82192,4.66151-.998,6.89917a19.64528,19.64528,0,0,1-.5651,3.37648,3.10106,3.10106,0,0,1-.88722,1.69993,2.99775,2.99775,0,0,1-2.39006.35871,12.44907,12.44907,0,0,1-3.02943-.91967,12.99561,12.99561,0,0,0,6.75683,3.43316,2.99784,2.99784,0,0,0,2.39007-.35879,3.10049,3.10049,0,0,0,.88714-1.69994,19.64223,19.64223,0,0,0,.56509-3.37647c.17615-2.23757-.02255-4.8293.998-6.89909,1.27736-2.59054,3.79787-.836,5.13935-3.36819a9.58162,9.58162,0,0,0,.71674-4.19611,6.65427,6.65427,0,0,1,1.12284-4.06525c1.15377-1.40214,3.23615-1.78383,4.34987-3.218,1.26317-1.62652.84051-3.94325,1.22042-5.96726a7.52472,7.52472,0,0,1,6.949-5.94623c2.481-.07536,4.81164,1.10164,7.24648,1.58344,3.16966.62727,6.43977.06437,9.62151-.49861,2.3714-.41954,4.94834-.95422,6.48472-2.80867a9.82031,9.82031,0,0,0,1.71294-4.24266C993.22615,161.40117,993.631,158.74566,992.39621,156.63211Z" transform="translate(-82.02354 -140.83622)" opacity="0.1"/><path d="M928.43154,710.57959c0,10.09038-7.0591,18.27072-15.76542,18.27072-8.69239,0-15.75157-8.18034-15.75157-18.27072v-.13847c.06927-10.02119,7.10066-18.13225,15.75157-18.13225,5.35663,0,10.07661,3.08661,12.91409,7.82045A20.07194,20.07194,0,0,1,928.43154,710.57959Z" transform="translate(-82.02354 -140.83622)" fill="#33323d"/><path d="M1053.98731,717.94325c0,19.43335-10.0489,35.18492-22.437,35.18492s-22.42316-15.75157-22.42316-35.18492c0-10.97634,3.19737-20.78988,8.22182-27.22618,3.87559-4.969,8.80314-7.95883,14.20134-7.95883a14.779,14.779,0,0,1,2.21459.16609c4.457.69207,8.54024,3.41888,11.83451,7.599.4567.56746.88578,1.16263,1.3011,1.78552C1051.27435,698.71746,1053.98731,707.83892,1053.98731,717.94325Z" transform="translate(-82.02354 -140.83622)" fill="#33323d"/><polygon points="958.621 536.828 939.007 538.78 936.488 517.824 936.322 516.454 932.765 486.916 932.599 485.546 914.591 336.114 914.203 332.93 903.462 243.75 903.199 241.618 902.078 232.289 901.331 226.102 917.027 226.102 917.885 232.51 918.024 233.535 918.411 236.4 931.879 337.069 932.239 339.768 951.451 483.276 955.659 514.724 958.621 536.828" fill="#33323d"/><path d="M1031.5503,682.75824a14.779,14.779,0,0,1,2.21459.16609c-.17986.12461-.37366.24922-.5536.37374a12.58933,12.58933,0,0,0-5.02445,11.65447l3.18351,30.24361c.01386.15223.02771.31833.02771.47056a4.55958,4.55958,0,0,1-9.0385.85816c-1.315-6.93449-3.79254-21.09434-4.9137-33.88382-.05533-.67822-.0969-1.315-.0969-1.924C1021.22455,685.748,1026.1521,682.75824,1031.5503,682.75824Z" transform="translate(-82.02354 -140.83622)" opacity="0.1"/><path d="M1037.21148,692.30887l-.69207-.1938c-.20765-.55361-.40145-1.09345-.609-1.59172C1036.36709,691.09081,1036.79617,691.686,1037.21148,692.30887Z" transform="translate(-82.02354 -140.83622)" opacity="0.1"/><path d="M1030.44277,674.51957s-15.95581-1.04628-14.38639,16.74052c1.1288,12.793,3.61074,26.93924,4.9154,33.87409a4.55745,4.55745,0,0,0,5.16325,3.66h0a4.55977,4.55977,0,0,0,3.85163-4.98564l-3.183-30.23848a12.59108,12.59108,0,0,1,5.028-11.65742c3.76412-2.65115,8.79369-2.80629,12.9975,8.82426l2.87728.78471S1051.36841,672.427,1030.44277,674.51957Z" transform="translate(-82.02354 -140.83622)" fill="#504f60"/><path d="M1013.90246,477.90487a12.68025,12.68025,0,0,1-2.4084.23536h-5.61962A12.90383,12.90383,0,0,1,993.085,466.66562l-8.59557-78.27334a12.88646,12.88646,0,0,1,15.55777-14.02139Z" transform="translate(-82.02354 -140.83622)" opacity="0.1"/><path d="M1014.26235,480.604a12.29574,12.29574,0,0,1-2.76829.30455h-5.61962a12.7683,12.7683,0,0,1-9.25993-3.95871l-.3876-3.18352L985.486,384.58588a12.81583,12.81583,0,0,1,14.94874-7.3498l13.4677,100.66879Z" transform="translate(-82.02354 -140.83622)" opacity="0.1"/><path d="M984.48646,389.77264c2.06818,18.82552,6.44268,58.64408,8.601,78.2905a12.86143,12.86143,0,0,0,12.79365,11.45556h5.60861a12.63939,12.63939,0,0,0,12.15216-8.6282,11.14178,11.14178,0,0,0,.52314-3.33866c0-5.965-6.43766-60.35252-8.43826-77.11019a12.68809,12.68809,0,0,0-4.74123-8.5072,44.86076,44.86076,0,0,0-8.508-5.33576C993.48332,372.42355,983.40358,379.91588,984.48646,389.77264Z" transform="translate(-82.02354 -140.83622)" fill="#6c63ff"/><path d="M984.48646,389.77264c2.06818,18.82552,6.44268,58.64408,8.601,78.2905a12.86143,12.86143,0,0,0,12.79365,11.45556h5.60861a12.63939,12.63939,0,0,0,12.15216-8.6282,11.14178,11.14178,0,0,0,.52314-3.33866c0-5.965-6.43766-60.35252-8.43826-77.11019a12.68809,12.68809,0,0,0-4.74123-8.5072,44.86076,44.86076,0,0,0-8.508-5.33576C993.48332,372.42355,983.40358,379.91588,984.48646,389.77264Z" transform="translate(-82.02354 -140.83622)" fill="#fff" opacity="0.2"/><path d="M925.58021,700.12932l-4.22163-.17995a19.68261,19.68261,0,0,0-10.72712,2.62982l-13.20479,7.59894a4.48528,4.48528,0,0,1-.51212.263c.06927-10.02119,7.10066-18.13225,15.75157-18.13225C918.02275,692.30887,922.74273,695.39548,925.58021,700.12932Z" transform="translate(-82.02354 -140.83622)" opacity="0.1"/><polygon points="955.659 516.108 936.488 517.824 936.322 516.454 932.765 486.916 951.451 484.66 955.659 516.108" opacity="0.1"/><path d="M1018.33174,657.29c3.07276,45.04-28.43038,44.168-28.43038,44.168l-68.53664-2.89882a19.8176,19.8176,0,0,0-10.73643,2.63169l-13.198,7.60982a6.87268,6.87268,0,0,1-7.70376-.56928h0a6.87268,6.87268,0,0,1-1.22681-9.50891l5.5829-7.44192a11.64392,11.64392,0,0,1,9.97693-4.63752l71.70978,4.08783c29.03932.526,38.83908-64.34886,38.83908-64.34886h.01386l18.852-2.27,4.20777,31.4478L1018.34559,657.29Z" transform="translate(-82.02354 -140.83622)" fill="#504f60"/><polygon points="917.885 232.51 902.078 232.289 901.331 226.102 917.027 226.102 917.885 232.51" opacity="0.1"/><path d="M923.65181,361.13366l132.57185,3.32353a4.14194,4.14194,0,0,1,4.03815,4.14065h0a4.142,4.142,0,0,1-4.19963,4.14156L923.49033,370.893a4.142,4.142,0,0,1-4.08428-4.14155v-1.47714A4.142,4.142,0,0,1,923.65181,361.13366Z" transform="translate(-82.02354 -140.83622)" fill="#33323d"/><path d="M932.79916,349.34268c4.62238.93788,9.73188.69388,13.5972,3.39672,3.44992,2.41236,5.123,6.76647,5.30735,10.97211s-.91414,8.34981-2.00357,12.41608c-.3441,1.28433-1.00986,2.8386-2.33906,2.87257-1.24338.03177-2.01307-1.31331-3.07608-1.95909-2.29522-1.39436-5.55016.67164-7.86389-.6918a12.28731,12.28731,0,0,1-1.82031-1.65171,6.0245,6.0245,0,0,0-6.73705-.79457,10.79352,10.79352,0,0,0-10.92066-12.78758c-1.79521.05221-3.72411.52517-5.29833-.33933-2.5284-1.38851-2.32121-5.18283-.95586-7.724,1.91605-3.566,3.38193-7.07392,7.73978-7.066C923.39658,345.99522,928.00272,348.36948,932.79916,349.34268Z" transform="translate(-82.02354 -140.83622)" fill="#fbbebe"/><path d="M1023.10178,354.31241l-.05921,9.71921c-.02227,3.65629.00262,7.50379,1.80245,10.6865.94158,1.665,2.56743,3.15924,4.48,3.126.71821-.01248,1.42369-.24044,2.14149-.21325,2.0961.07939,3.98261,2.281,5.94849,1.54935.667-.24824,1.18947-.81018,1.8715-1.01358,1.01906-.30391,2.14991.25843,3.16521-.05784,1.05767-.32946,1.60471-1.466,2.02968-2.489,2.02746-4.88078,4.0449-10.25368,2.54533-15.32161a23.62656,23.62656,0,0,0-3.40644-6.34864l-6.48282-9.58379a3.33747,3.33747,0,0,0-1.05982-1.13322,2.89228,2.89228,0,0,0-1.44887-.26459c-3.22112.04839-6.2269,1.523-9.1084,2.96616C1022.74334,347.32536,1023.11863,351.54633,1023.10178,354.31241Z" transform="translate(-82.02354 -140.83622)" fill="#fbbebe"/><path d="M1029.44721,300.27447a27.83056,27.83056,0,0,0,1.81667,6.21211c1.14676,2.26758,3.16078,4.18052,3.52162,6.69583.42892,2.98981-1.52845,6.45989.33852,8.8342.76746.976,2.02376,1.46625,2.80645,2.4301,1.91742,2.36123.08771,5.85213.36654,8.881.25546,2.77506,2.31718,5.07577,2.88754,7.80358.58993,2.8214-.38489,6.11132,1.3578,8.40726-1.77412-2.78521-5.65572-3.3407-8.91233-2.79353a20.18955,20.18955,0,0,0-13.27053,8.58354,26.35339,26.35339,0,0,0-1.24268-11.75911c-1.16472-3.37254-3.045-6.65888-2.8844-10.22327.09533-2.11572.91837-4.18678.72009-6.29535-.3103-3.29963-2.97041-5.80479-5.31982-8.14233-2.8254-2.81111-5.57236-6.146-5.85156-10.12183-.25951-3.69549,1.68232-7.18447,3.91249-10.14256a19.2767,19.2767,0,0,1,6.61136-5.99033c1.75379-.85849,7.05514-4.46072,8.2173-4.01445C1026.96953,289.57908,1028.90239,297.99327,1029.44721,300.27447Z" transform="translate(-82.02354 -140.83622)" fill="#6c63ff"/><path d="M882.9809,270.176a11.36584,11.36584,0,0,0-6.35614,5.2684,43.23747,43.23747,0,0,0-3.32461,7.75795,102.491,102.491,0,0,1-7.80625,16.47494c-2.3321,3.96565-4.96244,7.84208-6.25518,12.25727-1.12946,3.85756-1.21454,8.05706-3.07193,11.62168-.90676,1.74021-2.21281,3.274-2.90241,5.11113-.8957,2.38612-.663,5.02741-.41767,7.56426l.65428,6.76553a17.274,17.274,0,0,0,1.47214,6.43269c1.25355,2.39256,3.53588,4.04445,5.73877,5.60745l10.16872,7.215a26.37864,26.37864,0,0,0,6.36233,3.67476c6.62668,2.3214,13.76173-.88156,20.72788-1.76171,4.79621-.606,9.65519-.09068,14.462.42484-.39166-3.9299-.26154-8.08773,1.63562-11.55159s7.69434-8.0253,11.522-7.05247c-3.80562-3.2163-10.09346-1.42534-14.30371-4.09015-1.691-1.07031-3.12841-2.49862-4.7861-3.61987-5.23624-3.54172-12.73335-4.14685-16.10609-9.49349a2.2227,2.2227,0,0,1-.39846-.99775c-.05679-.794.61389-1.42532,1.19415-1.97031,4.21926-3.9628,6.33051-9.77516,6.85113-15.54013s-.40382-11.55562-1.45533-17.24774c-.84553-4.57707-1.79619-9.20088-3.8767-13.36454S887.37076,271.7232,882.9809,270.176Z" transform="translate(-82.02354 -140.83622)" fill="#6c63ff"/><ellipse cx="363.99505" cy="505.09015" rx="14.37168" ry="2.42952" fill="#6c63ff" opacity="0.1"/><path d="M436.36691,634.637s8.19791-.25249,10.66855-2.0118,12.61046-3.86,13.22336-1.03848,12.31994,14.03311,3.06454,14.10777-21.50544-1.44167-23.97133-2.94374S436.36691,634.637,436.36691,634.637Z" transform="translate(-82.02354 -140.83622)" fill="#a8a8a8"/><path d="M463.48853,644.71232c-9.2554.07467-21.50543-1.44166-23.97132-2.94374-1.87791-1.14391-2.62624-5.24853-2.87662-7.14224-.1734.00746-.27368.01067-.27368.01067s.51924,6.61167,2.98513,8.11375,14.71592,3.01841,23.97133,2.94374c2.67166-.02155,3.5945-.97209,3.54383-2.37992C466.49605,644.16515,465.47709,644.69628,463.48853,644.71232Z" transform="translate(-82.02354 -140.83622)" opacity="0.2"/><ellipse cx="675.78736" cy="538.68491" rx="34.30916" ry="5.79994" fill="#6c63ff" opacity="0.1"/><path d="M734.76968,652.57033s19.57068-.60276,25.46878-4.80272,30.10462-9.215,31.5678-2.47913,29.41109,33.5009,7.31589,33.67913-51.33939-3.44167-57.22615-7.02753S734.76968,652.57033,734.76968,652.57033Z" transform="translate(-82.02354 -140.83622)" fill="#a8a8a8"/><path d="M799.51647,676.62284c-22.0952.17827-51.33939-3.44164-57.22615-7.02751-4.48308-2.73082-6.26954-12.52967-6.86728-17.05048-.414.0178-.65335.02546-.65335.02546s1.23956,15.78389,7.12633,19.36976,35.13095,7.20578,57.22614,7.02751c6.378-.05144,8.58109-2.32064,8.46012-5.68153C806.69623,675.31661,804.26371,676.58457,799.51647,676.62284Z" transform="translate(-82.02354 -140.83622)" opacity="0.2"/></svg>