<svg data-name="Layer 1" xmlns="http://www.w3.org/2000/svg" width="938" height="604" viewBox="0 0 938 604" xmlns:xlink="http://www.w3.org/1999/xlink"><title>candidate</title><path d="M811.58429,714.65594l-4.87378-60.57568-13.92548,64.057s.18372,16.16052.64533,33.86273h17.84045C811.87158,731.76422,811.58429,714.65594,811.58429,714.65594Z" transform="translate(-131 -148)" fill="#f2f2f2"/><path d="M560.9895,736.19861A123.33379,123.33379,0,0,1,558.092,718.978l-1.94922-20.95453c-.81982-5.739-1.66186-10.79547-2.50854-15.25873-6.20777-31.82275-12.61634-32.97345-12.61634-32.97345-.27539.21082-.54309.44428-.81848.68518a20.6289,20.6289,0,0,0-2.09814,2.214C527.89478,665.66278,520.9707,699.309,517.333,721.629c-2.00879,12.32928-3.00952,21.201-3.00952,21.201s.90966,3.77911,2.15,9.17h46.57477A82.799,82.799,0,0,0,560.9895,736.19861Z" transform="translate(-131 -148)" fill="#f2f2f2"/><path d="M927.22046,148H272.77954C194.80078,148,131,211.80078,131,289.77954V610.22046C131,688.19922,194.80078,752,272.77954,752H480.20166l-2.67651-12.6015s-6.88465-44.42706,0-79.06513a260.02987,260.02987,0,0,0,4.56689-32.92883,198.37786,198.37786,0,0,1,6.09692-36.97235c.18189-.69885.38648-1.39142.57642-2.08807-1.67895-.45655-2.45044-.8216-2.06055-1.05194,1.07581-.63532,1.66748-2.58112,1.96216-5.04993a241.71787,241.71787,0,0,1,10.43714-48.09491c-6.95667,4.36725-11.57557,4.83105-14.59937,3.13873-10.62549-2.90161-6.21448-26.8-6.21448-26.8s6.60327-51.68982,8.79712-70.4057c1.261-10.758,17.41944-16.85406,31.72315-20.16418,1.5072-3.23291,2.59277-6.48981,1.90356-9.9076-.04639-.23016-.11316-.45275-.17419-.67749-1.81861-4.03955-5.51575-7.36315-6.90308-11.54632a12.18233,12.18233,0,0,1-1.28332-3.60291c-1.22864-7.17205,5.47766-13.36755,7.41125-20.26538a16.69517,16.69517,0,0,1-4.28821-6.87622c-2.94665-6.04345-1.51-13.2973,7.95215-18.89782,1.88892-1.118,3.89063-2.105,5.92383-3.0517a9.21442,9.21442,0,0,1,2.40539-1.10291c6.77015-3.06244,13.5752-6.02569,17.62684-11.988,1.04345-1.53553,1.95861-3.31684,3.64672-4.12409a7.035,7.035,0,0,1,2.51123-.56219c13.04541-1.00147,24.85755,10.18548,37.8407,8.58221,3.93311-.48572,7.94812-2.1391,11.72327-.949,2.481.782,4.41675,2.68756,6.08411,4.65777a48.00543,48.00543,0,0,1,10.4104,39.52942c-1.64637,8.55286-5.64942,17.36847-2.76477,25.59747,2.11962,6.04639,7.79419,10.95362,7.83459,17.34974.03333,5.26312-3.70276,9.46264-7.31238,13.55786q.70386.72006,1.37232,1.47906c8.8208,10.05036,7.154,18.62787,5.91,22.06238l.00037.00171L622.105,502.956,618.28,532.32306s-.9458,12.052-9.85413,14.69531c-2.59546,1.20026-5.995,1.51673-10.46362.15668-2.89978-.88251-5.34314-1.76441-7.41711-2.62177,1.96008,6.25965,5.33361,19.03992,4.78576,31.44385-.765,17.319,1.52991,18.82507,1.52991,18.82507a3.10136,3.10136,0,0,1-.48657.481c9.08679,20.07605,9.17016,40.674-.27832,61.26514-10.70972,23.343.76489,77.55914.76489,77.55914s.81677,8.45716,1.184,17.8725h164.288c-2.613-24.92285-5.75225-49.87347-7.14654-52.66205-2.29883-4.59778.62018-80.34527,1.70966-106.65588-.4842-.12256-.95728-.247-1.4032-.37506-.77643-.22284-1.4748-.45514-2.11988-.69251a15.45326,15.45326,0,0,0,.4209,3.97894c.967,2.25629-1.35217,3.91468-5.29291,5.04633,2.2923,11.18591,5.12342,32.00073-4.45489,36.03369-9.85278,4.14856-10.05005-21.05182-9.509-34.18731-1.24256.046-2.48889.07006-3.72022.07006-11.83661,0,3.48139-137.16558,2.78522-146.2171-.69635-9.05157,5.57007-45.954,5.57007-45.954s2.08887-7.65893,8.35528-9.05151,36.20612-18.79932,36.20612-18.79932A22.3618,22.3618,0,0,1,790,376.60175v-1.03016a22.965,22.965,0,0,1,2.48486-2.01117c-.36523-6.0838-1.18823-13.93237-1.78827-19.2351a24.30179,24.30179,0,0,1-6.53277-12.50012,38.36854,38.36854,0,0,1-3.64581-3.2392,18.9959,18.9959,0,0,1-4.66974-11.85571,37.46427,37.46427,0,0,1,1.85681-12.79975,15.32366,15.32366,0,0,1,1.613-3.90857,14.14546,14.14546,0,0,1,3.64532-3.61389c.42279-.31354.85931-.60712,1.29443-.90289a12.19435,12.19435,0,0,1,3.93964-4.47168c3.55389-2.33313,8.12689-2.14258,12.37665-2.03662.06286.00158.12805.00116.19226.00158q1.18222-.19025,2.37317-.31469a2.434,2.434,0,0,0,1.90381-1.86481q.86288.82891,1.72564,1.65778,1.29483-.01869,2.58808.04437A18.48927,18.48927,0,0,1,810.69855,296q.47315,1.34911.946,2.6983c.86609.09217,1.729.20832,2.58753.35749q1.015-.80667,2.03033-1.61329c.15021-.11938.689,1.64283.96076,2.2475.46575.11963.93042.24677,1.3905.38928.71936-.03277,1.51849-.16754,1.96271-.16015a13.1291,13.1291,0,0,1,6.997,1.74457,15.02664,15.02664,0,0,1,4.44744,5.13324,33.25231,33.25231,0,0,1,4.96412,14.32153,16.59989,16.59989,0,0,1,2.75415,6.15454c1.14947,6.98944-5.49286,12.8302-6.80927,19.79022-.70215,3.71326.09943,7.82538-1.792,11.097a11.58824,11.58824,0,0,1-3.18958,3.34417,24.06659,24.06659,0,0,1-2.35724,1.55231,60.5159,60.5159,0,0,0,1.441,12.51489l.89576,3.435c1.39306,1.00434,2.89544,2.16522,4.54467,3.52771,0,0,19.49561,8.35523,26.45832,12.5329,6.121,3.67261,12.77588,4.12079,14.76935,8.90521l.54852.1463s6.96277,77.2862,7.65906,90.51532,9.05151,94.69294,7.65911,98.17432c-.5155,1.28845-3.79895,2.767-7.76355,3.94281,2.31373,10.5744,6.049,33.57153-4.07324,37.8335-10.26147,4.32067-10.04962-23.19294-9.43835-35.75623-1.36853-.12366-2.26538-.48187-2.39813-1.14618-.11329-.56567-.47632-3.12237-1.00092-7.02032-.86713.13525-1.76666.27435-2.7243.41967-.19239.02906-.39478.05909-.5904.0885,8.82776,27.76832-10.7232,101.41157-14.48376,115.82679-1.965,7.53259-4.08405,26.15661-5.99487,45.00311h86.12109C1005.19922,752,1069,688.19922,1069,610.22046V289.77954C1069,211.80078,1005.19922,148,927.22046,148Z" transform="translate(-131 -148)" fill="#f2f2f2"/><ellipse cx="210" cy="169" rx="95" ry="86.45" fill="#3f3d56"/><path d="M497.5,599.5h0s32-22,32-32,22-75,34-46-17,70-17,70-32,58-51,68-35,4-35,4v-27l18.28172-27.05694A22.59052,22.59052,0,0,1,497.5,599.5Z" transform="translate(-131 -148)" fill="#ffb9b9"/><path d="M406.54367,446.33627S454.5,461.5,459.5,468.5s7-5,21,41S498,600,498,600s-34.5,11.5-30.5,56.5-6,94-6,94H449.01575L421.5,665.5l33-129S407.58734,457.17255,406.54367,446.33627Z" transform="translate(-131 -148)" fill="#575a89"/><circle cx="259.5" cy="196.5" r="60" fill="#ffb9b9"/><path d="M413.5,389.5s-17,56-2,64,32,44,32,44l-26,29h-60l-27-30-11-51,15-12s16-40,16-61S413.5,389.5,413.5,389.5Z" transform="translate(-131 -148)" fill="#ffb9b9"/><path d="M418.5,451.5s-12-3-5,9,14,34-11,35-50-12-58-39-11-25-14-24-35,34-35,34l11,62,4,222h146s6-64-4-79,9-53,9-53,17-26,4-76S423.5,451.5,418.5,451.5Z" transform="translate(-131 -148)" fill="#6c63ff"/><path d="M337.5,432.5s-15-7-28,5-42,22-42,28,25,177,8,207-35,78-35,78h83.41339S337.5,700.5,351.5,673.5s13-103,9-126S337.5,432.5,337.5,432.5Z" transform="translate(-131 -148)" fill="#575a89"/><polygon points="118.5 549.5 123.37 602.5 177.417 602.5 172.5 536.5 118.5 549.5" fill="#ffb9b9"/><polygon points="364.5 521.5 377.5 602.5 666.5 602.5 691.5 439.5 364.5 521.5" fill="#3f3d56"/><polygon points="702.5 428.5 705.5 443.5 331.5 533.5 331.5 520.5 702.5 428.5" fill="#3f3d56"/><polygon points="544.5 455.5 542.5 472.5 564.5 469.5 555.5 452.5 544.5 455.5" fill="#3f3d56"/><path d="M554.5,431.5s44-3,56,31,40,95,51,104,23,33,21,41" transform="translate(-131 -148)" fill="none" stroke="#3f3d56" stroke-miterlimit="10" stroke-width="5"/><path d="M561,431c0,4.69442-4.99187,8.5-13,8.5s-12-3.80558-12-8.5,3.99187-8.5,12-8.5S561,426.30558,561,431Z" transform="translate(-131 -148)" fill="#6c63ff"/><path d="M487,587s7.5-31.5-6.5-77.5-16-34-21-41-52.9563-22.16376-52.9563-22.16376c.3429,3.56073,5.63867,14.517,12.595,27.62348A53.19322,53.19322,0,0,0,413.5,460.5c-7-12,5-9,5-9,5,0,34,41,47,91s-4,76-4,76Z" transform="translate(-131 -148)" fill="#575a89"/><path d="M407,446s5.92022,22.45759,10.96011,25.7288,34.92965,34.32479,34.92965,34.32479L449,481l-16-24-4.25561-3.088Z" transform="translate(-131 -148)" fill="#575a89"/><path d="M274,515l1.39427-51.5S242.5,477.5,239.5,537.5s5,173,16,174,63-11,63-11,8-145,5-164S274,515,274,515Z" transform="translate(-131 -148)" opacity="0.1"/><path d="M276.5,463.5h-8.10573S235.5,477.5,232.5,537.5s5,173,16,174,63-11,63-11,8-145,5-164S276.5,463.5,276.5,463.5Z" transform="translate(-131 -148)" fill="#575a89"/><ellipse cx="188" cy="180.5" rx="62" ry="69.5" fill="#3f3d56"/><ellipse cx="232.5" cy="218.5" rx="12.5" ry="18.5" fill="#ffb9b9"/><circle cx="126" cy="111" r="51" fill="#3f3d56"/><path d="M263.5918,299.85688a50.99614,50.99614,0,0,1-73.89232-40.61309,50.9945,50.9945,0,1,0,101.1756,2.83871A50.92106,50.92106,0,0,1,263.5918,299.85688Z" transform="translate(-131 -148)" fill="#3f3d56"/><path d="M229.02071,267.42955a50.99615,50.99615,0,0,1,25.68212-80.31143,50.99449,50.99449,0,1,0,16.625,99.84072A50.921,50.921,0,0,1,229.02071,267.42955Z" transform="translate(-131 -148)" fill="#3f3d56"/><ellipse cx="263" cy="150" rx="36" ry="26" fill="#3f3d56"/></svg>