<svg id="e6c98ea5-9308-41c5-8929-78927818e530" data-name="Layer 1" xmlns="http://www.w3.org/2000/svg" width="1145.7" height="818.64" viewBox="0 0 1145.7 818.64"><title>christmas tree</title><path d="M1172.85,581.81A268.06,268.06,0,0,1,862.36,846.33H437.65a364.06,364.06,0,0,1-49.5,3.38q-17.83,0-35.23-1.7A360.62,360.62,0,0,1,27.15,488.71c0-199.38,161.63-361,361-361,160.57,0,296.63,104.84,343.52,249.8A266.84,266.84,0,0,1,905,313.91C1052.91,313.91,1172.85,433.85,1172.85,581.81Z" transform="translate(-27.15 -43.67)" fill="#6c63ff" opacity="0.1"/><path d="M1069.94,792.88a268.31,268.31,0,0,1-207.58,53.45H437.65a364.06,364.06,0,0,1-49.5,3.38q-17.83,0-35.23-1.7a361.17,361.17,0,0,1-309-250.21C78.5,523.91,167.34,471.33,271.5,471.33,373,471.33,460,521.27,496.31,592.2a301.82,301.82,0,0,1,54.19-4.87C655.7,587.33,745.27,641,779.09,716a295.63,295.63,0,0,1,86.41-12.71C951.3,703.33,1026.71,739,1069.94,792.88Z" transform="translate(-27.15 -43.67)" fill="#6c63ff" opacity="0.1"/><path d="M638.66,609.76A35.88,35.88,0,0,1,634,624.92a38.06,38.06,0,0,1,0,37.15,35.49,35.49,0,0,1,4.43,13l-13.38,23,13.57-13.43A35.9,35.9,0,0,1,634,699.22a38.08,38.08,0,0,1,0,37.16,38.06,38.06,0,0,1,0,37.15,36.77,36.77,0,0,1,4.84,18.57c0,16.79-10.39,30.39-23.22,30.39-.36,0-.71,0-1.07,0a177,177,0,0,0-21.36,0c-.35,0-.72,0-1.07,0s-.71,0-1.07,0a177,177,0,0,0-21.36,0c-.35,0-.72,0-1.07,0-12.82,0-23.22-13.6-23.22-30.39a36.58,36.58,0,0,1,4.85-18.57A36.62,36.62,0,0,1,545.37,755a39.31,39.31,0,0,1,.67-7.19l18.59,11.54-16.78-17.95a31.6,31.6,0,0,1,2.37-5,38,38,0,0,1,0-37.16,38,38,0,0,1,0-37.15,36.1,36.1,0,0,1-4.78-16.53l31.85,19.76-30.42-32.52a34.46,34.46,0,0,1,3.35-7.86,35.06,35.06,0,0,1-4.32-12.14,38.66,38.66,0,0,1-.53-6.43,36.62,36.62,0,0,1,4.85-18.58,36.58,36.58,0,0,1-4.85-18.57c0-16.79,10.4-30.4,23.22-30.4A19.18,19.18,0,0,1,580.34,543a18.6,18.6,0,0,1,23.5,0,19.16,19.16,0,0,1,11.75-4.18c12.83,0,23.22,13.61,23.22,30.4A36.77,36.77,0,0,1,634,587.77a36.81,36.81,0,0,1,4.84,18.58C638.81,607.5,638.76,608.64,638.66,609.76Z" transform="translate(-27.15 -43.67)" fill="#3f3d56"/><path d="M634,587.77a36.81,36.81,0,0,1,4.84,18.58c0,1.15,0,2.29-.15,3.41a110.06,110.06,0,0,1-41.21-25.57,110,110,0,0,1-51.55,28.59,38.66,38.66,0,0,1-.53-6.43,36.62,36.62,0,0,1,4.85-18.58,36.58,36.58,0,0,1-4.85-18.57c0-16.79,10.4-30.4,23.22-30.4A19.18,19.18,0,0,1,580.34,543a18.6,18.6,0,0,1,23.5,0,19.16,19.16,0,0,1,11.75-4.18c12.83,0,23.22,13.61,23.22,30.4A36.77,36.77,0,0,1,634,587.77Z" transform="translate(-27.15 -43.67)" opacity="0.1"/><path d="M857.66,459.78l55.49-26.67a110.65,110.65,0,0,0-47.29-42c.31-3.39.48-6.82.48-10.29a110,110,0,0,0-7-38.8L789.74,317l.25-.51,58.92,4.85a110.76,110.76,0,0,0-48.31-41.38,112,112,0,0,0,.66-12.07,109.91,109.91,0,0,0-8.54-42.62l-33,32.67,26.57-45.61a110.85,110.85,0,0,0-15.77-20.85l-34.3,33.93,24.86-42.68a109.93,109.93,0,0,0-39.36-20.78,110.5,110.5,0,0,0-58.41-71l-48.2,47.68,31.54-54.16a110.35,110.35,0,0,0-137.88,76.43,110.1,110.1,0,0,0-52.64,30.51l38.67,36.77-47.85-25.93a109.79,109.79,0,0,0-21.65,65.63c0,1.56,0,3.11.11,4.66a110.15,110.15,0,0,0-64.95,38.85l31.31,29.77-38-20.6a109.74,109.74,0,0,0-17.94,60.29c0,1.28,0,2.55.08,3.82a110,110,0,0,0-46.58,26l41.89,39.82-52.45-28.42a109.75,109.75,0,0,0-24.28,69c0,1.56,0,3.11.11,4.66l52.22,49.64L258,519a110.28,110.28,0,0,0,184.44,50.34,110.24,110.24,0,0,0,155,.44A110.24,110.24,0,0,0,747,574.33,110.29,110.29,0,0,0,920.86,448Z" transform="translate(-27.15 -43.67)" fill="#6c63ff"/><path d="M875.81,498.16c-23.34,11.84-51.31,2.53-75.95-6.29-32.24-11.55-65.19-22.13-99.29-25.37s-69.76,1.31-99.43,18.42c-17.72,10.22-33,24.68-51.82,32.73-53.05,22.71-115.38-11.58-171.26,2.81-32.88,8.46-57.84,31.92-82.2,56.72a110.22,110.22,0,0,0,146.59-7.89,110.24,110.24,0,0,0,155,.44A110.24,110.24,0,0,0,747,574.33a110.27,110.27,0,0,0,182.58-83.25,111.31,111.31,0,0,0-1.89-20.38,74.76,74.76,0,0,0-28.52,11.14C891.26,487.08,884.3,493.85,875.81,498.16Z" transform="translate(-27.15 -43.67)" opacity="0.1"/><path d="M518.39,162.84c23,5.32,45.57,14.09,63.82,29S614,228.45,615.62,252" transform="translate(-27.15 -43.67)" opacity="0.1"/><path d="M665,362c8.61-21.95,20.56-43,38-58.93s40.82-26.13,64.32-24.33" transform="translate(-27.15 -43.67)" opacity="0.1"/><path d="M366.9,382.8c23.49,1.92,47.13,7.3,67.36,19.41s36.78,31.56,41.82,54.6" transform="translate(-27.15 -43.67)" opacity="0.1"/><circle cx="467.72" cy="184.4" r="16.27" fill="#ff6f61"/><circle cx="483.99" cy="114.8" r="16.27" fill="#ff6f61"/><circle cx="398.12" cy="224.16" r="16.27" fill="#ff6f61"/><circle cx="694.58" cy="114.8" r="16.27" fill="#ff6f61"/><circle cx="765.07" cy="184.4" r="16.27" fill="#ff6f61"/><circle cx="831.96" cy="298.28" r="16.27" fill="#ff6f61"/><circle cx="893.42" cy="413.06" r="16.27" fill="#ff6f61"/><circle cx="719.88" cy="530.56" r="16.27" fill="#ff6f61"/><circle cx="415.3" cy="530.56" r="16.27" fill="#ff6f61"/><circle cx="582.5" cy="204.28" r="16.27" fill="#ff6f61"/><circle cx="637.64" cy="314.55" r="16.27" fill="#ff6f61"/><circle cx="860.88" cy="533.27" r="16.27" fill="#ff6f61"/><circle cx="447.83" cy="407.64" r="16.27" fill="#ff6f61"/><circle cx="588.83" cy="92.21" r="16.27" fill="#ff6f61"/><circle cx="308.64" cy="338.95" r="16.27" fill="#ff6f61"/><circle cx="227.3" cy="481.75" r="16.27" fill="#ff6f61"/><circle cx="252.61" cy="383.24" r="16.27" fill="#ff6f61"/><path d="M842,401.05c-2.52-.36-5.47-1.65-8-1.61s-4.42,7.68-6.93,8.07-5.74-3.39-8.19-2.68-3.55,4.81-5.9,5.78-5.16.48-7.4,1.67-3.13,4.28-5.24,5.66-6,.16-8,1.71-2.72,4.58-4.64,6.24-6.71.17-8.55,1.92-4.69,2.6-6.47,4.41-1.21,5.93-3,7.77-3.32,3.85-5,5.7" transform="translate(-27.15 -43.67)" fill="#ededf4"/><path d="M506.56,378.81c-1.24-2.23-2-5.41-3.52-7.4s-9,1.32-10.86-.44-.63-6.76-2.67-8.28-6.06.19-8.25-1.09-3.46-3.89-5.76-5-5.32.17-7.7-.67-3.68-4.78-6.12-5.45-5.31.67-7.79.15-4.15-5.44-6.66-5.84-4.9-2.24-7.42-2.57-5.47,2.76-8,2.49-5.08-.32-7.59-.58" transform="translate(-27.15 -43.67)" fill="#ededf4"/><path d="M565.14,452c1.41-2.28,5.18-4.26,7.76-5s5.82.36,8.37.58,5.07,2.2,7.67,2.45,6.11,2.36,8.67,1.69a49.37,49.37,0,0,0,7.32-3c2.41-1.09,3.46-5.34,6-6.05s6,3.4,8.56,3,4.4-5.86,7-6.14,5.33.2,8,0c1.93-.16,2.63,3.72,4.45,4.36,2.53.89,8.24-2.74,9.93-.55s1,5.68,3.5,6.55" transform="translate(-27.15 -43.67)" fill="#ededf4"/><path d="M609.65,238.43a13.92,13.92,0,0,1,6.31,1.18c2.13,1,5,.91,6.56,2.67s1.83,4.64,2.49,6.91c.41-1.43,2.27-3.28,2.27-4.85,0-2.21-1.86-4.28-2.66-6.2a16.32,16.32,0,0,0-3.36-5.41c-1.5-1.5-2.78-4.09-4.76-4.91s-4.64.34-6.85.34a16.08,16.08,0,0,0-6.22,1.16c-2,.82-4.67,1.13-6.17,2.62s-1.69,4.23-2.52,6.22.23,4,.23,6.18c0,1.57-2,2.24-1.6,3.67a15.35,15.35,0,0,1,3.15-6,18.76,18.76,0,0,1,5.79-4.69C604.38,236.41,607.23,238.43,609.65,238.43Z" transform="translate(-27.15 -43.67)" fill="#ededf4"/><path d="M747,562.9a13.92,13.92,0,0,1,6.31,1.18c2.13,1,5,.91,6.56,2.67s1.83,4.64,2.49,6.92c.41-1.44,2.27-3.29,2.27-4.86,0-2.21-1.86-4.28-2.66-6.2a16.32,16.32,0,0,0-3.36-5.41c-1.5-1.49-2.78-4.08-4.76-4.91s-4.64.34-6.85.34a16.08,16.08,0,0,0-6.22,1.16c-2,.82-4.67,1.13-6.17,2.63s-1.69,4.23-2.52,6.21.23,4,.23,6.18c0,1.57-2,2.24-1.6,3.67a15.42,15.42,0,0,1,3.15-6,18.83,18.83,0,0,1,5.8-4.69C741.76,560.89,744.61,562.9,747,562.9Z" transform="translate(-27.15 -43.67)" fill="#ededf4"/><path d="M888,562.9a13.88,13.88,0,0,1,6.3,1.18c2.14,1,5,.91,6.57,2.67s1.83,4.64,2.48,6.92c.42-1.44,2.27-3.29,2.27-4.86,0-2.21-1.86-4.28-2.65-6.2a16.51,16.51,0,0,0-3.37-5.41c-1.49-1.49-2.77-4.08-4.76-4.91s-4.63.34-6.84.34a16,16,0,0,0-6.22,1.16c-2,.82-4.67,1.13-6.17,2.63s-1.69,4.23-2.52,6.21.23,4,.23,6.18c0,1.57-2,2.24-1.6,3.67a15.53,15.53,0,0,1,3.14-6,19.06,19.06,0,0,1,5.8-4.69C882.75,560.89,885.61,562.9,888,562.9Z" transform="translate(-27.15 -43.67)" fill="#ededf4"/><path d="M467.73,440.87a14,14,0,0,1,6-2.23c2.34-.25,4.79-1.78,7-1.05s4,3,5.69,4.64c-.38-1.45.24-4-.57-5.32-1.13-1.89-3.78-2.73-5.44-4a16.36,16.36,0,0,0-5.67-2.91c-2.05-.51-4.47-2.06-6.6-1.74s-3.81,2.64-5.7,3.78a16,16,0,0,0-4.75,4.19c-1.28,1.73-3.4,3.38-3.92,5.43s.7,4.49,1,6.62,2.21,3.31,3.34,5.2c.81,1.34-.53,3,.56,4a15.21,15.21,0,0,1-.36-6.73,18.6,18.6,0,0,1,2.56-7C462.19,441.89,465.65,442.12,467.73,440.87Z" transform="translate(-27.15 -43.67)" fill="#ededf4"/><path d="M434.28,563.79a14.08,14.08,0,0,1,6-2.23c2.33-.25,4.79-1.78,7-1s3.95,3,5.69,4.64c-.38-1.45.24-4-.57-5.32-1.13-1.89-3.78-2.73-5.45-4a16.31,16.31,0,0,0-5.66-2.91c-2.06-.51-4.48-2.06-6.61-1.74s-3.8,2.64-5.7,3.78a16.13,16.13,0,0,0-4.74,4.19c-1.28,1.73-3.4,3.38-3.92,5.43s.7,4.49,1,6.62,2.21,3.31,3.34,5.2c.81,1.34-.54,2.95.56,4a15.21,15.21,0,0,1-.36-6.73,18.6,18.6,0,0,1,2.56-7C428.75,564.81,432.21,565,434.28,563.79Z" transform="translate(-27.15 -43.67)" fill="#ededf4"/><path d="M333.06,374a14,14,0,0,1,6-2.23c2.34-.25,4.8-1.78,7-1.05s4,3,5.69,4.63c-.38-1.44.24-4-.57-5.31-1.13-1.89-3.78-2.73-5.44-4a16.33,16.33,0,0,0-5.67-2.9c-2-.52-4.47-2.06-6.6-1.74s-3.81,2.64-5.7,3.78a16,16,0,0,0-4.75,4.19c-1.28,1.73-3.4,3.37-3.92,5.43s.7,4.49,1,6.62,2.21,3.3,3.34,5.2c.81,1.34-.53,2.94.56,4a15.22,15.22,0,0,1-.36-6.73,18.6,18.6,0,0,1,2.56-7C327.52,375,331,375.23,333.06,374Z" transform="translate(-27.15 -43.67)" fill="#ededf4"/><path d="M277,421a14,14,0,0,1,6-2.23c2.34-.26,4.8-1.78,7-1.05s4,3,5.69,4.63c-.38-1.44.24-4-.57-5.31-1.13-1.89-3.77-2.73-5.44-4a16.37,16.37,0,0,0-5.66-2.9c-2.06-.52-4.48-2.06-6.61-1.75s-3.81,2.65-5.7,3.78a16.17,16.17,0,0,0-4.74,4.2c-1.29,1.73-3.41,3.37-3.92,5.43s.7,4.49,1,6.62,2.21,3.3,3.35,5.19c.8,1.35-.54,2.95.55,4a15.52,15.52,0,0,1-.36-6.73,19.06,19.06,0,0,1,2.56-7C271.49,422,274.94,422.23,277,421Z" transform="translate(-27.15 -43.67)" fill="#ededf4"/><path d="M251.71,516.79a14.09,14.09,0,0,1,6-2.23c2.34-.25,4.8-1.78,7-1s3.95,3,5.69,4.64c-.39-1.45.23-4-.57-5.32-1.14-1.89-3.78-2.73-5.45-4a16.57,16.57,0,0,0-5.66-2.91c-2.06-.51-4.48-2-6.61-1.74s-3.81,2.65-5.7,3.78a16.13,16.13,0,0,0-4.74,4.19c-1.28,1.73-3.41,3.38-3.92,5.43s.7,4.5,1,6.62,2.22,3.31,3.35,5.2c.81,1.35-.54,2.95.56,4a15.41,15.41,0,0,1-.37-6.74,18.79,18.79,0,0,1,2.57-7C246.18,517.81,249.64,518,251.71,516.79Z" transform="translate(-27.15 -43.67)" fill="#ededf4"/><path d="M421.63,260.11a14.09,14.09,0,0,1,6-2.23c2.34-.26,4.8-1.78,7-1.05s3.95,3,5.69,4.63c-.39-1.44.23-4-.57-5.31-1.14-1.89-3.78-2.73-5.45-4a16.37,16.37,0,0,0-5.66-2.9c-2.06-.52-4.48-2.06-6.61-1.75s-3.81,2.65-5.7,3.78a16.17,16.17,0,0,0-4.74,4.2c-1.28,1.72-3.41,3.37-3.92,5.43s.7,4.49,1,6.62,2.22,3.3,3.35,5.19c.81,1.35-.54,2.95.56,4a15.37,15.37,0,0,1-.37-6.73,18.84,18.84,0,0,1,2.57-7C416.1,261.12,419.55,261.35,421.63,260.11Z" transform="translate(-27.15 -43.67)" fill="#ededf4"/><path d="M491.22,220.34a14.08,14.08,0,0,1,6-2.23c2.33-.25,4.79-1.78,7-1.05s3.95,3,5.69,4.63c-.38-1.44.24-4-.57-5.31-1.13-1.89-3.78-2.73-5.45-4a16.2,16.2,0,0,0-5.66-2.9c-2.05-.52-4.48-2.06-6.6-1.74s-3.81,2.64-5.71,3.78a16.13,16.13,0,0,0-4.74,4.19c-1.28,1.73-3.4,3.37-3.92,5.43s.7,4.49,1,6.62,2.21,3.3,3.34,5.2c.81,1.34-.53,2.94.56,4a15.22,15.22,0,0,1-.36-6.73,18.6,18.6,0,0,1,2.56-7C485.69,221.35,489.15,221.58,491.22,220.34Z" transform="translate(-27.15 -43.67)" fill="#ededf4"/><path d="M505.69,148.94a14,14,0,0,1,6-2.23c2.34-.26,4.8-1.78,7-1.05s4,3,5.69,4.63c-.38-1.44.24-4-.57-5.31-1.13-1.89-3.78-2.73-5.44-4a16.33,16.33,0,0,0-5.67-2.9c-2.05-.52-4.47-2.06-6.6-1.75s-3.81,2.65-5.7,3.78a16.22,16.22,0,0,0-4.75,4.2c-1.28,1.72-3.4,3.37-3.92,5.43s.7,4.49,1,6.62,2.21,3.3,3.34,5.19c.81,1.35-.53,2.95.56,4a15.22,15.22,0,0,1-.36-6.73,18.65,18.65,0,0,1,2.56-7C500.15,150,503.61,150.18,505.69,148.94Z" transform="translate(-27.15 -43.67)" fill="#ededf4"/><path d="M616,125.45a13.88,13.88,0,0,1,6.3,1.18c2.14,1,5.05.91,6.57,2.67s1.83,4.64,2.48,6.92c.42-1.44,2.27-3.29,2.27-4.86,0-2.21-1.86-4.28-2.65-6.2a16.51,16.51,0,0,0-3.37-5.41c-1.49-1.49-2.77-4.08-4.76-4.91s-4.63.34-6.84.34a16,16,0,0,0-6.22,1.16c-2,.82-4.68,1.13-6.17,2.63s-1.69,4.23-2.52,6.21.23,4,.23,6.18c0,1.57-2,2.24-1.6,3.67a15.53,15.53,0,0,1,3.14-6,18.94,18.94,0,0,1,5.8-4.69C610.7,123.44,613.56,125.45,616,125.45Z" transform="translate(-27.15 -43.67)" fill="#ededf4"/><path d="M725.36,152.56a14,14,0,0,1,5.17,3.81c1.5,1.81,4.14,3,4.74,5.26s-.36,5-.76,7.3c1-1.11,3.47-2,4.15-3.39,1-2,.19-4.66.31-6.73a16.41,16.41,0,0,0-.69-6.33c-.7-2-.73-4.88-2.16-6.49s-4.32-1.72-6.3-2.67a16,16,0,0,0-6.11-1.66c-2.15-.12-4.7-1-6.7-.3s-3.36,3.06-5,4.49-1.53,3.67-2.49,5.66c-.68,1.41-2.77,1.15-3,2.63a15.33,15.33,0,0,1,5.42-4,18.83,18.83,0,0,1,7.26-1.71C721.48,148.47,723.18,151.51,725.36,152.56Z" transform="translate(-27.15 -43.67)" fill="#ededf4"/><path d="M798.57,223.06a14,14,0,0,1,5.17,3.8c1.5,1.82,4.14,3,4.74,5.27s-.36,5-.76,7.3c1-1.11,3.47-2,4.15-3.39,1-2,.19-4.66.31-6.74a16.38,16.38,0,0,0-.69-6.32c-.7-2-.73-4.88-2.16-6.49s-4.32-1.72-6.3-2.68a16.2,16.2,0,0,0-6.11-1.65c-2.15-.13-4.7-1-6.7-.31s-3.36,3.07-5,4.5-1.53,3.67-2.49,5.66c-.68,1.41-2.77,1.15-3,2.63a15.36,15.36,0,0,1,5.42-4,19,19,0,0,1,7.26-1.7C794.69,219,796.39,222,798.57,223.06Z" transform="translate(-27.15 -43.67)" fill="#ededf4"/><path d="M861.84,331.52a14,14,0,0,1,5.17,3.8c1.49,1.81,4.14,3,4.74,5.27s-.36,5-.76,7.3c1-1.11,3.46-2,4.14-3.39,1-2,.2-4.66.31-6.74a16.41,16.41,0,0,0-.68-6.33c-.7-2-.73-4.88-2.16-6.48s-4.32-1.72-6.31-2.68a16.31,16.31,0,0,0-6.1-1.66c-2.15-.12-4.7-1-6.7-.3s-3.36,3.07-5,4.5-1.53,3.67-2.49,5.66c-.68,1.41-2.77,1.15-3,2.63a15.36,15.36,0,0,1,5.42-4,18.82,18.82,0,0,1,7.26-1.7C858,327.43,859.66,330.47,861.84,331.52Z" transform="translate(-27.15 -43.67)" fill="#ededf4"/><path d="M667.51,351.4a13.9,13.9,0,0,1,5.17,3.81c1.5,1.81,4.14,3,4.74,5.26s-.35,5-.75,7.3c1-1.11,3.46-2,4.14-3.39,1-2,.19-4.66.31-6.73a16.41,16.41,0,0,0-.68-6.33c-.7-2-.73-4.88-2.17-6.49s-4.31-1.71-6.3-2.67a15.94,15.94,0,0,0-6.11-1.66c-2.15-.12-4.69-1-6.69-.3s-3.37,3.06-5,4.49-1.53,3.67-2.49,5.66c-.68,1.42-2.77,1.16-3,2.63a15.24,15.24,0,0,1,5.42-4,18.78,18.78,0,0,1,7.25-1.71C663.63,347.31,665.33,350.35,667.51,351.4Z" transform="translate(-27.15 -43.67)" fill="#ededf4"/><path d="M923.3,448.11a14,14,0,0,1,5.17,3.81c1.49,1.81,4.13,3,4.74,5.26s-.36,5-.76,7.3c1-1.11,3.46-2,4.14-3.39,1-2,.2-4.66.31-6.73a16.41,16.41,0,0,0-.68-6.33c-.7-2-.73-4.88-2.16-6.49s-4.32-1.72-6.31-2.67a15.94,15.94,0,0,0-6.1-1.66c-2.15-.12-4.7-1-6.7-.3s-3.36,3.06-5,4.49-1.53,3.67-2.49,5.66c-.68,1.41-2.77,1.15-3,2.63a15.24,15.24,0,0,1,5.42-4,18.83,18.83,0,0,1,7.26-1.71C919.42,444,921.12,447.06,923.3,448.11Z" transform="translate(-27.15 -43.67)" fill="#ededf4"/><path d="M621.19,47.83l3.2,6.48A7.47,7.47,0,0,0,630,58.39l7.15,1a7.46,7.46,0,0,1,4.13,12.73l-5.17,5A7.49,7.49,0,0,0,634,83.81l1.22,7.12a7.46,7.46,0,0,1-10.82,7.86L618,95.43a7.47,7.47,0,0,0-6.94,0l-6.4,3.36a7.46,7.46,0,0,1-10.82-7.86L595,83.81a7.49,7.49,0,0,0-2.15-6.61l-5.17-5a7.46,7.46,0,0,1,4.13-12.73l7.15-1a7.47,7.47,0,0,0,5.62-4.08l3.2-6.48A7.46,7.46,0,0,1,621.19,47.83Z" transform="translate(-27.15 -43.67)" fill="#fee374"/><path d="M782.13,828.33c0,2.31-13.2.35-14.63,2.5-1.2,1.79,6.07,11.08,4,12.72-1.72,1.36-4.73,2.34-7,3.57-2,1.07-5.35.13-7.69,1.08-2.11.86-5.28-.91-7.67-.15-2.19.7-5.35-2.45-7.75-1.85s-4.33,1-6.74,1.45-3.43,7.31-5.85,7.67-5.65-7.79-8.08-7.52-3.79,9.64-6.22,9.81-4.85-1-7.27-.88-4.78-7.49-7.2-7.49-5,13.15-7.39,13.07-4.7-4.84-7.05-5-4.64-2.54-7-2.8-4-6-6.28-6.35-4.68.18-7-.27-6.6,7.49-8.85,6.92-3.27-6.47-5.47-7.17c-2.38-.75-2.86-5.52-5-6.38-2.35-1-7.06,4.2-9,3.13-2.27-1.23-3.72-3.35-5.44-4.71-2.09-1.64,2.07-7,.88-8.8-1.44-2.15-8.86-.23-8.86-2.54a12.61,12.61,0,0,1,2.57-6.75c1.2-1.79,6.54,1.13,8.63-.51,1.72-1.35-.19-7.83,2.09-9.06,2-1.07,1.65-8.39,4-9.34,2.11-.86,5.64.42,8-.34,2.2-.7,4.79-1.48,7.19-2.08s4.61-2.34,7-2.81,5.94,5.83,8.36,5.47,3.89-7.81,6.32-8.07,5.63,8.87,8.05,8.7,4.78,3.45,7.2,3.37,4.54-6.47,7-6.47,4.79.72,7.15.8,5.19-5.57,7.54-5.4,4.38,6.1,6.72,6.35,5.08-1.43,7.39-1.09,3.61,7.06,5.9,7.51,4.77-.15,7,.41c2.41.61,5.12-.85,7.32-.16,2.38.76,3.44,4.13,5.55,5,2.35,1,7.35-4.33,9.32-3.26a50.4,50.4,0,0,1,6.6,3.76c2.09,1.64,6,2.85,7.22,4.65C779.16,821.15,782.13,826,782.13,828.33Z" transform="translate(-27.15 -43.67)" fill="#ededf4"/><path d="M885.13,828.33c0,2.31-13.2.35-14.63,2.5-1.2,1.79,6.07,11.08,4,12.72-1.72,1.36-4.73,2.34-7,3.57-2,1.07-5.35.13-7.69,1.08-2.11.86-5.28-.91-7.67-.15-2.19.7-5.35-2.45-7.75-1.85s-4.33,1-6.74,1.45-3.43,7.31-5.85,7.67-5.65-7.79-8.08-7.52-3.79,9.64-6.22,9.81-4.85-1-7.27-.88-4.78-7.49-7.2-7.49-5,13.15-7.39,13.07-4.7-4.84-7.05-5-4.64-2.54-7-2.8-4-6-6.28-6.35-4.68.18-7-.27-6.6,7.49-8.85,6.92-3.27-6.47-5.47-7.17c-2.38-.75-2.86-5.52-5-6.38-2.35-1-7.06,4.2-9,3.13-2.27-1.23-3.72-3.35-5.44-4.71-2.09-1.64,2.07-7,.88-8.8-1.44-2.15-8.86-.23-8.86-2.54a12.61,12.61,0,0,1,2.57-6.75c1.2-1.79,6.54,1.13,8.63-.51,1.72-1.35-.19-7.83,2.09-9.06,2-1.07,1.65-8.39,4-9.34,2.11-.86,5.64.42,8-.34,2.2-.7,4.79-1.48,7.19-2.08s4.61-2.34,7-2.81,5.94,5.83,8.36,5.47,3.89-7.81,6.32-8.07,5.63,8.87,8.05,8.7,4.78,3.45,7.2,3.37,4.54-6.47,7-6.47,4.79.72,7.15.8,5.19-5.57,7.54-5.4,4.38,6.1,6.72,6.35,5.08-1.43,7.39-1.09,3.61,7.06,5.9,7.51,4.77-.15,7,.41c2.41.61,5.12-.85,7.32-.16,2.38.76,3.44,4.13,5.55,5,2.35,1,7.35-4.33,9.32-3.26a50.4,50.4,0,0,1,6.6,3.76c2.09,1.64,6,2.85,7.22,4.65C882.16,821.15,885.13,826,885.13,828.33Z" transform="translate(-27.15 -43.67)" fill="#ededf4"/><path d="M611.13,824.33c0,2.31-13.2.35-14.63,2.5-1.2,1.79,6.07,11.08,4,12.72-1.72,1.36-4.73,2.34-7,3.57-2,1.07-5.35.13-7.69,1.08-2.11.86-5.28-.91-7.67-.15-2.19.7-5.35-2.45-7.75-1.85s-4.33,1-6.74,1.45-3.43,7.31-5.85,7.67-5.65-7.79-8.08-7.52-3.79,9.64-6.22,9.81-4.85-1-7.27-.88-4.78-7.49-7.2-7.49-5,13.15-7.39,13.07-4.7-4.84-7.05-5-4.64-2.54-7-2.8-4-6-6.28-6.35-4.68.18-7-.27-6.6,7.49-8.85,6.92c-2.4-.6-3.27-6.47-5.47-7.17-2.38-.75-2.86-5.52-5-6.38-2.35-1-7.06,4.2-9,3.13-2.27-1.23-3.72-3.35-5.44-4.71-2.09-1.64,2.07-7,.88-8.8-1.44-2.15-8.86-.23-8.86-2.54a12.61,12.61,0,0,1,2.57-6.75c1.2-1.79,6.54,1.13,8.63-.51,1.72-1.35-.19-7.83,2.09-9.06,2-1.07,1.65-8.39,4-9.34,2.11-.86,5.64.42,8-.34,2.2-.7,4.79-1.48,7.19-2.08s4.61-2.34,7-2.81,5.94,5.83,8.36,5.47,3.89-7.81,6.32-8.07,5.63,8.87,8.05,8.7,4.78,3.45,7.2,3.37,4.54-6.47,7-6.47,4.79.72,7.15.8,5.19-5.57,7.54-5.4,4.38,6.1,6.72,6.35,5.08-1.43,7.39-1.09,3.61,7.06,5.9,7.51,4.77-.15,7,.41c2.41.61,5.12-.85,7.32-.16,2.38.76,3.44,4.13,5.55,5,2.35,1,7.35-4.33,9.32-3.26a50.4,50.4,0,0,1,6.6,3.76c2.09,1.64,6,2.85,7.22,4.65C608.16,817.15,611.13,822,611.13,824.33Z" transform="translate(-27.15 -43.67)" fill="#ededf4"/><path d="M524.13,822.33c0,2.31-13.2.35-14.63,2.5-1.2,1.79,6.07,11.08,4,12.72-1.72,1.36-4.73,2.34-7,3.57-2,1.07-5.35.13-7.69,1.08-2.11.86-5.28-.91-7.67-.15-2.19.7-5.35-2.45-7.75-1.85s-4.33,1-6.74,1.45-3.43,7.31-5.85,7.67-5.65-7.79-8.08-7.52-3.79,9.64-6.22,9.81-4.85-1-7.27-.88-4.78-7.49-7.2-7.49-5,13.15-7.39,13.07-4.7-4.84-7.05-5-4.64-2.54-7-2.8-4-6-6.28-6.35-4.68.18-7-.27-6.6,7.49-8.85,6.92c-2.4-.6-3.27-6.47-5.47-7.17-2.38-.75-2.86-5.52-5-6.38-2.35-1-7.06,4.2-9,3.13-2.27-1.23-3.72-3.35-5.44-4.71-2.09-1.64,2.07-7,.88-8.8-1.44-2.15-8.86-.23-8.86-2.54a12.61,12.61,0,0,1,2.57-6.75c1.2-1.79,6.54,1.13,8.63-.51,1.72-1.35-.19-7.83,2.09-9.06,2-1.07,1.65-8.39,4-9.34,2.11-.86,5.64.42,8-.34,2.2-.7,4.79-1.48,7.19-2.08s4.61-2.34,7-2.81,5.94,5.83,8.36,5.47,3.89-7.81,6.32-8.07,5.63,8.87,8,8.7,4.78,3.45,7.2,3.37,4.54-6.47,7-6.47,4.79.72,7.15.8,5.19-5.57,7.54-5.4,4.38,6.1,6.72,6.35,5.08-1.43,7.39-1.09,3.61,7.06,5.9,7.51,4.77-.15,7,.41c2.41.61,5.12-.85,7.32-.16,2.38.76,3.44,4.13,5.55,5,2.35,1,7.35-4.33,9.32-3.26a50.4,50.4,0,0,1,6.6,3.76c2.09,1.64,6,2.85,7.22,4.65C521.16,815.15,524.13,820,524.13,822.33Z" transform="translate(-27.15 -43.67)" fill="#ededf4"/><polygon points="423.6 733.92 423.6 755.67 417.85 767.27 417.85 767.27 417.67 767.64 402.44 766.64 396.59 766.25 383 765.35 383 739.33 396.59 739.71 402.66 739.88 418.03 740.32 423.6 733.92" fill="#ff6f61"/><polygon points="423.6 735.2 423.6 755.67 422.2 758.51 422.2 758.51 420.75 761.41 420.75 761.41 417.85 767.27 418.18 745.52 418.24 741.13 421 738.07 421 738.07 422.21 736.74 423.6 735.2" opacity="0.1"/><polygon points="424.38 728.14 424.38 735.74 423.6 736.98 422.21 739.2 420.97 741.17 418.24 745.52 418.18 745.52 381.81 743.65 381.81 736.15 381.9 736.05 386.24 731.36 387.81 729.65 390.66 726.58 424.38 728.14" fill="#ff6f61"/><polygon points="418.24 738.03 418.24 745.52 381.81 743.65 381.81 736.15 381.9 736.05 418.24 738.03" opacity="0.1"/><polygon points="424.38 728.14 424.38 735.74 418.24 745.52 418.24 738.03 424.38 728.14" opacity="0.15"/><polygon points="422.21 731.63 422.21 736.74 422.21 739.2 422.2 758.51 422.2 758.51 420.75 761.41 420.97 741.17 421 738.07 421 738.07 421.05 733.5 386.24 731.36 387.81 729.65 422.21 731.63" fill="#3f3d56"/><polygon points="405.13 731.89 402.69 737.18 402.66 739.88 402.44 766.64 396.59 766.25 396.59 736.83 399.71 731.89 405.13 731.89" fill="#3f3d56"/><path d="M424.24,775.91a7.71,7.71,0,0,1-4.36.16,1.77,1.77,0,0,1-.77-.36,2,2,0,0,1-.47-.94,7.52,7.52,0,0,1-.42-2.24,2.49,2.49,0,0,1,.94-2,2.33,2.33,0,0,0,.35-.27,1.55,1.55,0,0,0,.28-.56c.42-1.27,1.25-2.61,2.57-2.82s2.34.67,3.28,1.47l2.07,1.76a3.27,3.27,0,0,1,6.09-.08,11.62,11.62,0,0,1,4.6-3.16,1.47,1.47,0,0,1,1.21,0,1.36,1.36,0,0,1,.48.65,9.85,9.85,0,0,1,.9,3.92.7.7,0,0,1,.8.28,1.73,1.73,0,0,1,.26.86,11.44,11.44,0,0,1,.09,1.43,2.12,2.12,0,0,1-.38,1.42,2.31,2.31,0,0,1-1.8.56.73.73,0,0,1-.18,1.07,2.1,2.1,0,0,1-1.21.24,8.39,8.39,0,0,1-4.66-1c-.53-.35-1-.82-1.51-1.17a7.3,7.3,0,0,0-4.43-.83C426.61,774.35,425.53,775.48,424.24,775.91Z" transform="translate(-27.15 -43.67)" fill="#3f3d56"/><path d="M424,775.56s-13.43,1.87-15.3,10l2.81-.42,2,3.54s2.09-7.91,8.23-9.78A69.18,69.18,0,0,1,430,776.7s4.27,1,8.12,13.43l2.19-3,3.85.83s-2.81-9.68-10.41-12.38Z" transform="translate(-27.15 -43.67)" fill="#3f3d56"/><polygon points="467.7 731.93 467.7 764.04 459.21 781.17 459.21 781.17 458.94 781.71 436.47 780.23 427.83 779.65 407.78 778.33 407.78 739.92 427.83 740.49 436.8 740.74 459.48 741.38 467.7 731.93" fill="#6c63ff"/><polygon points="467.7 733.83 467.7 764.04 465.62 768.23 465.62 768.23 463.5 772.51 463.5 772.52 459.21 781.17 459.69 749.06 459.79 742.58 463.86 738.07 463.86 738.07 465.64 736.1 467.7 733.83" opacity="0.1"/><polygon points="468.85 723.4 468.85 734.62 467.7 736.46 465.64 739.74 463.81 742.64 459.79 749.06 459.69 749.06 406.01 746.3 406.01 735.23 406.15 735.09 412.56 728.15 414.88 725.64 419.07 721.1 468.85 723.4" fill="#6c63ff"/><polygon points="459.79 738 459.79 749.06 406.01 746.3 406.01 735.23 406.15 735.09 459.79 738" opacity="0.1"/><polygon points="468.85 723.4 468.85 734.62 459.79 749.06 459.79 738 468.85 723.4" opacity="0.15"/><polygon points="465.64 728.57 465.64 736.1 465.64 739.74 465.62 768.23 465.62 768.23 463.5 772.51 463.81 742.64 463.86 738.07 463.86 738.07 463.94 731.32 412.56 728.15 414.88 725.64 465.64 728.57" fill="#3f3d56"/><polygon points="440.43 728.93 436.83 736.75 436.8 740.74 436.47 780.23 427.83 779.65 427.83 736.23 432.44 728.93 440.43 728.93" fill="#3f3d56"/><path d="M455.72,773.13a11.48,11.48,0,0,1-6.44.23,2.72,2.72,0,0,1-1.13-.52,3.06,3.06,0,0,1-.7-1.39,10.76,10.76,0,0,1-.61-3.31,3.67,3.67,0,0,1,1.37-3,3.45,3.45,0,0,0,.53-.39,2.21,2.21,0,0,0,.4-.83c.63-1.87,1.85-3.86,3.81-4.16s3.45,1,4.84,2.17l3,2.6a4.82,4.82,0,0,1,9-.12,17.06,17.06,0,0,1,6.79-4.66,2.09,2.09,0,0,1,1.79-.07,2.06,2.06,0,0,1,.71.95,14.66,14.66,0,0,1,1.32,5.79,1,1,0,0,1,1.18.41,2.67,2.67,0,0,1,.39,1.27,18.52,18.52,0,0,1,.12,2.11,3.18,3.18,0,0,1-.55,2.1,3.46,3.46,0,0,1-2.66.82,1.07,1.07,0,0,1-.27,1.58,3,3,0,0,1-1.79.35c-2.37,0-4.9-.09-6.88-1.41-.78-.52-1.43-1.21-2.21-1.73-1.92-1.27-4.33-1.33-6.55-1.23C459.22,770.83,457.63,772.49,455.72,773.13Z" transform="translate(-27.15 -43.67)" fill="#3f3d56"/><path d="M455.29,772.61s-19.82,2.76-22.59,14.75l4.15-.62,2.92,5.23s3.07-11.68,12.14-14.45,12.29-3.22,12.29-3.22,6.3,1.53,12,19.82l3.23-4.46,5.68,1.23s-4.15-14.29-15.36-18.28Z" transform="translate(-27.15 -43.67)" fill="#3f3d56"/><path d="M502.79,818.33c0,1.95-7.75-.23-10.53,1.43-1.76,1-.78,8.55-3.44,9.43-2.1.69-4.83.9-7.4,1.46-2.24.49-5-.46-7.52-.09-2.31.34-4.92-1.06-7.43-.83-2.35.21-4.83-2-7.33-1.93s-4.66.12-7.14.12-4.94,4-7.31,3.9-4.49-5.5-6.83-5.71c-2.52-.23-5.51,5.16-7.81,4.83-2.54-.37-4.85-1.57-7.09-2.05-2.57-.56-3.49-5.68-5.59-6.37-2.66-.87-8.21,5.56-10,4.51-2.78-1.66-3.31-6.75-3.31-8.7s2.68-3.43,5.47-5.1c1.75-1,5,1.25,7.64.38,2.1-.7,3.95-1.77,6.53-2.33,2.23-.49,3.64-6.19,6.17-6.56,2.31-.33,5.14,2.71,7.65,2.48,2.35-.21,4.84,2.3,7.33,2.2s4.64-4.28,7.12-4.28,4.89.67,7.27.78,4.52,4.47,6.87,4.69c2.51.22,5.39-4.37,7.69-4,2.54.37,4.91,1,7.14,1.5,2.58.56,3.79,4.68,5.9,5.37,2.65.87,6.24-1.94,8-.89C497.65,814.19,502.79,816.38,502.79,818.33Z" transform="translate(-27.15 -43.67)" fill="#ededf4"/><path d="M557.79,810.33c0,1.95-7.75-.23-10.53,1.43-1.76,1-.78,8.55-3.44,9.43-2.1.69-4.83.9-7.4,1.46-2.24.49-5-.46-7.52-.09-2.31.34-4.92-1.06-7.43-.83-2.35.21-4.83-2-7.33-1.93s-4.66.12-7.14.12-4.94,4-7.31,3.9-4.49-5.5-6.83-5.71c-2.52-.23-5.51,5.16-7.81,4.83-2.54-.37-4.85-1.57-7.09-2.05-2.57-.56-3.49-5.68-5.59-6.37-2.66-.87-8.21,5.56-10,4.51-2.78-1.66-3.31-6.75-3.31-8.7s2.68-3.43,5.47-5.1c1.75-1,5,1.25,7.64.38,2.1-.7,3.95-1.77,6.53-2.33,2.23-.49,3.64-6.19,6.17-6.56,2.31-.33,5.14,2.71,7.65,2.48,2.35-.21,4.84,2.3,7.33,2.2s4.64-4.28,7.12-4.28,4.89.67,7.27.78,4.52,4.47,6.87,4.69c2.51.22,5.39-4.37,7.69-4,2.54.37,4.91,1,7.14,1.5,2.58.56,3.79,4.68,5.9,5.37,2.65.87,6.24-1.94,8-.89C552.65,806.19,557.79,808.38,557.79,810.33Z" transform="translate(-27.15 -43.67)" fill="#ededf4"/><path d="M674.13,825.33c0,2.31-13.2.35-14.63,2.5-1.2,1.79,6.07,11.08,4,12.72-1.72,1.36-4.73,2.34-7,3.57-2,1.07-5.35.13-7.69,1.08-2.11.86-5.28-.91-7.67-.15-2.19.7-5.35-2.45-7.75-1.85s-4.33,1-6.74,1.45-3.43,7.31-5.85,7.67-5.65-7.79-8.08-7.52-3.79,9.64-6.22,9.81-4.85-1-7.27-.88-4.78-7.49-7.2-7.49-5,13.15-7.39,13.07-4.7-4.84-7.05-5-4.64-2.54-7-2.8-4-6-6.28-6.35-4.68.18-7-.27-6.6,7.49-8.85,6.92-3.27-6.47-5.47-7.17c-2.38-.75-2.86-5.52-5-6.38-2.35-1-7.06,4.2-9,3.13-2.27-1.23-3.72-3.35-5.44-4.71-2.09-1.64,2.07-7,.88-8.8-1.44-2.15-8.86-.23-8.86-2.54a12.61,12.61,0,0,1,2.57-6.75c1.2-1.79,6.54,1.13,8.63-.51,1.72-1.35-.19-7.83,2.09-9.06,2-1.07,1.65-8.39,4-9.34,2.11-.86,5.64.42,8-.34,2.2-.7,4.79-1.48,7.19-2.08s4.61-2.34,7-2.81,5.94,5.83,8.36,5.47,3.89-7.81,6.32-8.07,5.63,8.87,8.05,8.7,4.78,3.45,7.2,3.37,4.54-6.47,7-6.47,4.79.72,7.15.8,5.19-5.57,7.54-5.4,4.38,6.1,6.72,6.35,5.08-1.43,7.39-1.09,3.61,7.06,5.9,7.51,4.77-.15,7,.41c2.41.61,5.12-.85,7.32-.16,2.38.76,3.44,4.13,5.55,5,2.35,1,7.35-4.33,9.32-3.26a50.4,50.4,0,0,1,6.6,3.76c2.09,1.64,6,2.85,7.22,4.65C671.16,818.15,674.13,823,674.13,825.33Z" transform="translate(-27.15 -43.67)" fill="#ededf4"/><polygon points="796.8 675.26 796.8 721.46 784.58 746.1 784.58 746.1 784.2 746.88 751.87 744.75 739.43 743.92 710.59 742.02 710.59 686.76 739.43 687.57 752.34 687.93 784.97 688.86 796.8 675.26" fill="#ff6f61"/><polygon points="796.8 677.99 796.8 721.46 793.81 727.48 793.81 727.48 790.75 733.65 790.75 733.65 784.58 746.1 785.27 699.9 785.41 690.58 791.28 684.09 791.28 684.09 793.84 681.26 796.8 677.99" opacity="0.1"/><polygon points="798.46 662.99 798.46 679.13 796.8 681.77 793.84 686.49 791.21 690.67 785.41 699.91 785.27 699.9 708.05 695.93 708.05 680.01 708.24 679.8 717.46 669.82 720.8 666.21 726.84 659.68 798.46 662.99" fill="#ff6f61"/><polygon points="785.41 683.99 785.41 699.91 708.05 695.93 708.05 680.01 708.24 679.8 785.41 683.99" opacity="0.1"/><polygon points="798.46 662.99 798.46 679.13 785.41 699.91 785.41 683.99 798.46 662.99" opacity="0.15"/><polygon points="793.84 670.42 793.84 681.26 793.84 686.49 793.81 727.48 793.81 727.48 790.75 733.65 791.21 690.67 791.28 684.09 791.28 684.09 791.38 674.38 717.46 669.82 720.8 666.21 793.84 670.42" fill="#3f3d56"/><polygon points="757.56 670.95 752.38 682.2 752.34 687.93 751.87 744.75 739.43 743.92 739.43 681.45 746.07 670.95 757.56 670.95" fill="#3f3d56"/><path d="M767.65,715.38a16.4,16.4,0,0,1-9.26.33,3.88,3.88,0,0,1-1.63-.76,4.23,4.23,0,0,1-1-2,15.66,15.66,0,0,1-.89-4.77,5.33,5.33,0,0,1,2-4.25,4.71,4.71,0,0,0,.76-.57,3.1,3.1,0,0,0,.58-1.18c.9-2.7,2.66-5.55,5.48-6,2.59-.4,5,1.42,7,3.12l4.39,3.74a6.94,6.94,0,0,1,12.93-.17,24.58,24.58,0,0,1,9.78-6.71,3,3,0,0,1,2.56-.1,2.89,2.89,0,0,1,1,1.37,21.2,21.2,0,0,1,1.9,8.33,1.47,1.47,0,0,1,1.7.58,4,4,0,0,1,.56,1.84,23.57,23.57,0,0,1,.17,3,4.52,4.52,0,0,1-.79,3c-.9,1-2.45,1.16-3.82,1.19a1.54,1.54,0,0,1-.4,2.27,4.4,4.4,0,0,1-2.57.5c-3.42,0-7.05-.13-9.9-2-1.12-.75-2.06-1.74-3.19-2.49-2.75-1.82-6.22-1.91-9.41-1.76C772.69,712.07,770.4,714.46,767.65,715.38Z" transform="translate(-27.15 -43.67)" fill="#3f3d56"/><path d="M767,714.62s-28.52,4-32.5,21.22l6-.88,4.2,7.52s4.42-16.8,17.46-20.78,17.69-4.64,17.69-4.64,9.06,2.21,17.24,28.51l4.64-6.41,8.18,1.77s-6-20.56-22.1-26.31Z" transform="translate(-27.15 -43.67)" fill="#3f3d56"/><polygon points="756.95 693.33 756.95 755.74 740.45 789.02 740.45 789.02 739.93 790.07 696.25 787.19 679.46 786.08 640.5 783.5 640.5 708.86 679.46 709.95 696.89 710.45 740.98 711.69 756.95 693.33" fill="#6c63ff"/><polygon points="756.95 697.01 756.95 755.74 752.92 763.87 752.92 763.87 748.79 772.2 748.79 772.21 740.45 789.02 741.38 726.61 741.57 714.02 749.5 705.26 749.5 705.25 752.95 701.43 756.95 697.01" opacity="0.1"/><polygon points="759.19 676.76 759.19 698.55 756.95 702.12 752.95 708.5 749.4 714.14 741.57 726.62 741.38 726.61 637.06 721.25 637.06 699.75 637.33 699.46 649.78 685.98 654.29 681.1 662.44 672.28 759.19 676.76" fill="#6c63ff"/><polygon points="741.57 705.12 741.57 726.62 637.06 721.25 637.06 699.75 637.33 699.46 741.57 705.12" opacity="0.1"/><polygon points="759.19 676.76 759.19 698.55 741.57 726.62 741.57 705.12 759.19 676.76" opacity="0.15"/><polygon points="752.96 686.79 752.95 701.43 752.95 708.5 752.92 763.87 752.92 763.87 748.79 772.2 749.4 714.14 749.5 705.26 749.5 705.25 749.64 692.14 649.78 685.98 654.29 681.1 752.96 686.79" fill="#3f3d56"/><polygon points="703.95 687.5 696.95 702.7 696.89 710.45 696.25 787.19 679.46 786.08 679.46 701.69 688.42 687.5 703.95 687.5" fill="#3f3d56"/><path d="M708.06,732.2a22.24,22.24,0,0,1-12.52.44,5,5,0,0,1-2.19-1,5.69,5.69,0,0,1-1.36-2.69,21.31,21.31,0,0,1-1.2-6.44,7.19,7.19,0,0,1,2.68-5.75,5.88,5.88,0,0,0,1-.76,4.34,4.34,0,0,0,.78-1.6c1.23-3.65,3.6-7.5,7.4-8.08,3.51-.54,6.71,1.91,9.41,4.21l5.93,5a9.37,9.37,0,0,1,17.47-.24,33.22,33.22,0,0,1,13.2-9.06c1.12-.42,2.44-.76,3.47-.13a3.9,3.9,0,0,1,1.38,1.85,28.58,28.58,0,0,1,2.57,11.25,2,2,0,0,1,2.29.79,5.19,5.19,0,0,1,.76,2.48,34.93,34.93,0,0,1,.24,4.09,6.17,6.17,0,0,1-1.07,4.09c-1.22,1.41-3.31,1.56-5.17,1.6.9.8.46,2.4-.53,3.07a5.94,5.94,0,0,1-3.47.67c-4.62,0-9.53-.17-13.37-2.74-1.52-1-2.79-2.36-4.31-3.36-3.73-2.47-8.41-2.59-12.72-2.38C714.86,727.72,711.76,731,708.06,732.2Z" transform="translate(-27.15 -43.67)" fill="#3f3d56"/><path d="M707.21,731.18s-38.52,5.37-43.89,28.66l8.06-1.19,5.67,10.15s6-22.69,23.59-28.07,23.89-6.27,23.89-6.27,12.24,3,23.29,38.52l6.27-8.66,11,2.39s-8.06-27.77-29.86-35.53Z" transform="translate(-27.15 -43.67)" fill="#3f3d56"/><polygon points="819.46 724.33 819.46 762.95 809.25 783.55 809.25 783.55 808.93 784.21 781.9 782.42 771.5 781.73 747.39 780.14 747.39 733.94 771.5 734.62 782.29 734.92 809.58 735.69 819.46 724.33" fill="#3f3d56"/><polygon points="819.46 726.61 819.46 762.95 816.97 767.99 816.97 767.99 814.41 773.14 814.41 773.15 809.25 783.55 809.83 744.93 809.95 737.14 814.85 731.71 814.85 731.71 816.99 729.34 819.46 726.61" opacity="0.1"/><polygon points="820.85 714.07 820.85 727.56 819.46 729.77 816.99 733.72 814.79 737.21 809.95 744.93 809.83 744.93 745.26 741.61 745.26 728.3 745.42 728.13 753.13 719.78 755.92 716.76 760.97 711.3 820.85 714.07" fill="#3f3d56"/><polygon points="809.95 731.63 809.95 744.93 745.26 741.61 745.26 728.3 745.42 728.13 809.95 731.63" opacity="0.1"/><polygon points="820.85 714.07 820.85 727.56 809.95 744.93 809.95 731.63 820.85 714.07" opacity="0.15"/><polygon points="817 720.28 816.99 729.34 816.99 733.72 816.97 767.99 816.97 767.99 814.41 773.14 814.79 737.21 814.85 731.71 814.85 731.71 814.94 723.59 753.13 719.78 755.92 716.76 817 720.28" fill="#6c63ff"/><polygon points="786.66 720.72 782.33 730.13 782.29 734.92 781.9 782.42 771.5 781.73 771.5 729.5 777.05 720.72 786.66 720.72" fill="#6c63ff"/><path d="M799.55,765a13.73,13.73,0,0,1-7.75.27,3.21,3.21,0,0,1-1.36-.63,3.58,3.58,0,0,1-.84-1.67,13.27,13.27,0,0,1-.74-4,4.44,4.44,0,0,1,1.66-3.56,4.13,4.13,0,0,0,.63-.47,2.7,2.7,0,0,0,.49-1c.75-2.26,2.22-4.64,4.58-5,2.17-.33,4.14,1.19,5.82,2.61l3.67,3.13a5.8,5.8,0,0,1,10.81-.15,20.55,20.55,0,0,1,8.17-5.61,2.5,2.5,0,0,1,2.15-.08,2.47,2.47,0,0,1,.85,1.15,17.62,17.62,0,0,1,1.6,7,1.2,1.2,0,0,1,1.41.49,3.16,3.16,0,0,1,.47,1.53,21.47,21.47,0,0,1,.15,2.53,3.79,3.79,0,0,1-.66,2.53c-.75.88-2,1-3.2,1a1.29,1.29,0,0,1-.33,1.9,3.74,3.74,0,0,1-2.15.41c-2.86,0-5.9-.1-8.28-1.69-.93-.63-1.72-1.46-2.66-2.08-2.31-1.53-5.2-1.6-7.87-1.48C803.76,762.26,801.84,764.26,799.55,765Z" transform="translate(-27.15 -43.67)" fill="#6c63ff"/><path d="M799,764.39s-23.84,3.33-27.16,17.75l5-.74,3.51,6.28s3.7-14,14.6-17.37,14.78-3.88,14.78-3.88,7.58,1.85,14.42,23.84l3.88-5.36,6.84,1.48s-5-17.19-18.48-22Z" transform="translate(-27.15 -43.67)" fill="#6c63ff"/><path d="M721.79,825.33c0,1.95-7.75-.23-10.53,1.43-1.76,1-.78,8.55-3.44,9.43-2.1.69-4.83.9-7.4,1.46-2.24.49-5-.46-7.52-.09-2.31.34-4.92-1.06-7.43-.83-2.35.21-4.83-2-7.33-1.93s-4.66.12-7.14.12-4.94,4-7.31,3.9-4.49-5.5-6.83-5.71c-2.52-.23-5.51,5.16-7.81,4.83-2.54-.37-4.85-1.57-7.09-2.05-2.57-.56-3.49-5.68-5.59-6.37-2.66-.87-8.21,5.56-10,4.51-2.78-1.66-3.31-6.75-3.31-8.7s2.68-3.43,5.47-5.1c1.75-1,5,1.25,7.64.38,2.1-.7,3.95-1.77,6.53-2.33,2.23-.49,3.64-6.19,6.17-6.56,2.31-.33,5.14,2.71,7.65,2.48,2.35-.21,4.84,2.3,7.33,2.2s4.64-4.28,7.12-4.28,4.89.67,7.27.78,4.52,4.47,6.87,4.69c2.51.22,5.39-4.37,7.69-4,2.54.37,4.91,1,7.14,1.5,2.58.56,3.79,4.68,5.9,5.37,2.65.87,6.24-1.94,8-.89C716.65,821.19,721.79,823.38,721.79,825.33Z" transform="translate(-27.15 -43.67)" fill="#ededf4"/><path d="M785.79,825.33c0,1.95-7.75-.23-10.53,1.43-1.76,1-.78,8.55-3.44,9.43-2.1.69-4.83.9-7.4,1.46-2.24.49-5-.46-7.52-.09-2.31.34-4.92-1.06-7.43-.83-2.35.21-4.83-2-7.33-1.93s-4.66.12-7.14.12-4.94,4-7.31,3.9-4.49-5.5-6.83-5.71c-2.52-.23-5.51,5.16-7.81,4.83-2.54-.37-4.85-1.57-7.09-2.05-2.57-.56-3.49-5.68-5.59-6.37-2.66-.87-8.21,5.56-10,4.51-2.78-1.66-3.31-6.75-3.31-8.7s2.68-3.43,5.47-5.1c1.75-1,5,1.25,7.64.38,2.1-.7,3.95-1.77,6.53-2.33,2.23-.49,3.64-6.19,6.17-6.56,2.31-.33,5.14,2.71,7.65,2.48,2.35-.21,4.84,2.3,7.33,2.2s4.64-4.28,7.12-4.28,4.89.67,7.27.78,4.52,4.47,6.87,4.69c2.51.22,5.39-4.37,7.69-4,2.54.37,4.91,1,7.14,1.5,2.58.56,3.79,4.68,5.9,5.37,2.65.87,6.24-1.94,8-.89C780.65,821.19,785.79,823.38,785.79,825.33Z" transform="translate(-27.15 -43.67)" fill="#ededf4"/><path d="M860.79,818.33c0,1.95-7.75-.23-10.53,1.43-1.76,1-.78,8.55-3.44,9.43-2.1.69-4.83.9-7.4,1.46-2.24.49-5-.46-7.52-.09-2.31.34-4.92-1.06-7.43-.83-2.35.21-4.83-2-7.33-1.93s-4.66.12-7.14.12-4.94,4-7.31,3.9-4.49-5.5-6.83-5.71c-2.52-.23-5.51,5.16-7.81,4.83-2.54-.37-4.85-1.57-7.09-2.05-2.57-.56-3.49-5.68-5.59-6.37-2.66-.87-8.21,5.56-10,4.51-2.78-1.66-3.31-6.75-3.31-8.7s2.68-3.43,5.47-5.1c1.75-1,5,1.25,7.64.38,2.1-.7,3.95-1.77,6.53-2.33,2.23-.49,3.64-6.19,6.17-6.56,2.31-.33,5.14,2.71,7.65,2.48,2.35-.21,4.84,2.3,7.33,2.2s4.64-4.28,7.12-4.28,4.89.67,7.27.78,4.52,4.47,6.87,4.69c2.51.22,5.39-4.37,7.69-4,2.54.37,4.91,1,7.14,1.5,2.58.56,3.79,4.68,5.9,5.37,2.65.87,6.24-1.94,8-.89C855.65,814.19,860.79,816.38,860.79,818.33Z" transform="translate(-27.15 -43.67)" fill="#ededf4"/></svg>