<svg id="a3a13504-18ee-4099-a22c-5e563c906cad" data-name="Layer 1" xmlns="http://www.w3.org/2000/svg" width="1191.52346" height="764.2153" viewBox="0 0 1191.52346 764.2153"><title>collab</title><path d="M445.92507,288.73575c-199.27666,154.41785-98.875,220.8434-220.8434,220.8434s-220.8434-98.875-220.8434-220.8434,98.875-220.8434,220.8434-220.8434S645.20174,134.3179,445.92507,288.73575Z" transform="translate(-4.23827 -67.89235)" fill="#f2f2f2"/><path d="M492.76173,516.73582c0,25.6646-94.5706,84-219.25,84s-232.75-58.3354-232.75-84c0-6.41927,10.5859,1.55248,22-4,33.22955-16.19272,112.46437-4.25692,202.39516-4.92275q4.16162-.0376,8.35484-.03765C398.19113,507.77542,492.76173,491.07122,492.76173,516.73582Z" transform="translate(-4.23827 -67.89235)" fill="#3f3d56"/><path d="M492.76173,516.73582c0,25.6646-94.5706,84-219.25,84s-232.75-58.3354-232.75-84c0-6.41927,10.5859,1.55248,22-4,33.22955-16.19272,112.46437-4.25692,202.39516-4.92275q4.16162-.0376,8.35484-.03765C398.19113,507.77542,492.76173,491.07122,492.76173,516.73582Z" transform="translate(-4.23827 -67.89235)" opacity="0.1"/><path d="M492.26173,516.25562c0,25.6646-101.0706,46.4802-225.75,46.4802s-225.75-20.8156-225.75-46.4802c0-6.41927,6.30832-12.52457,17.72242-18.07705,33.22955-16.19271,109.742-27.69967,199.67274-28.3655q4.16162-.0376,8.35484-.03765C391.19113,469.77542,492.26173,490.591,492.26173,516.25562Z" transform="translate(-4.23827 -67.89235)" fill="#3f3d56"/><path d="M260.84175,470.76579a121.49607,121.49607,0,0,1-189.28,22.58C103.06172,480.45579,175.59175,471.29582,260.84175,470.76579Z" transform="translate(-4.23827 -67.89235)" opacity="0.1"/><ellipse cx="155.52346" cy="320.84347" rx="112" ry="120" fill="#3f3d56"/><path d="M281.60987,202.8061v28.13067l-14.44548,16.72635s-6.08231-2.28087-6.08231-17.48663l-2.28086-22.04837Z" transform="translate(-4.23827 -67.89235)" fill="#ffb9b9"/><path d="M267.16439,230.93677s23.56894-15.966,24.32923-21.28807,34.213-29.65125,28.891-14.44548-22.04836,22.04836-22.04836,22.04836-12.92491,34.97327-24.32923,34.213S262.60266,236.25879,267.16439,230.93677Z" transform="translate(-4.23827 -67.89235)" fill="#ffb9b9"/><polygon points="249.241 334.109 246.96 347.795 259.125 344.753 259.125 334.109 249.241 334.109" fill="#ffb9b9"/><path d="M255.76006,409.60455s14.05973-8.32964,14.63275-4.545,6.65533,18.23015,9.69648,19.75073,6.8426,18.24692,0,17.48663c-5.29966-.58885-24.73757-10.75521-33.23417-15.31008a4.64255,4.64255,0,0,1-1.99622-6.067,9.57877,9.57877,0,0,0,1.01742-2.95218C245.87632,416.44715,255.76006,409.60455,255.76006,409.60455Z" transform="translate(-4.23827 -67.89235)" fill="#2f2e41"/><path d="M248.91747,255.266s55.501,25.84981,50.179,45.61731S274.007,404.28253,274.007,404.28253s-22.04837,5.322-23.56894,0,14.44548-88.19345,12.9249-91.23461-29.65125-22.80865-29.65125-22.80865L175.92978,265.91,200.259,243.10139Z" transform="translate(-4.23827 -67.89235)" fill="#2f2e41"/><polygon points="286.495 338.671 293.338 356.158 281.173 361.48 273.57 347.795 286.495 338.671" fill="#ffb9b9"/><path d="M249.67776,130.5787s-6.8426,9.12346-1.52058,13.6852,1.52058,21.28807,1.52058,21.28807l-6.8426,19.00721-27.37038-5.322V148.06534l1.52058-15.20577s13.68519-12.9249,15.20576-22.80865S249.67776,130.5787,249.67776,130.5787Z" transform="translate(-4.23827 -67.89235)" fill="#ffb9b9"/><path d="M249.67776,130.5787s-6.8426,9.12346-1.52058,13.6852,1.52058,21.28807,1.52058,21.28807l-6.8426,19.00721-27.37038-5.322V148.06534l1.52058-15.20577s13.68519-12.9249,15.20576-22.80865S249.67776,130.5787,249.67776,130.5787Z" transform="translate(-4.23827 -67.89235)" opacity="0.1"/><path d="M204.06045,249.1837s35.73356,39.535,35.73356,41.05557,19.00721,32.6924,19.00721,32.6924l37.25413,82.87144s-14.44548,19.7675-20.52779,18.24692-49.41874-89.714-49.41874-89.714-7.60289-19.7675-28.13067-24.32923-36.49385-20.52779-28.891-38.77471S204.06045,249.1837,204.06045,249.1837Z" transform="translate(-4.23827 -67.89235)" fill="#2f2e41"/><circle cx="245.43949" cy="43.67914" r="24.32923" fill="#ffb9b9"/><path d="M248.91747,151.10649s-3.04115,17.48663-6.08231,19.00721-5.322,6.8426-12.16461-.76029-12.92491-22.80865-12.92491-22.80865l-23.56894,28.891L191.89584,255.266s26.61009-6.84259,34.97326,0,26.6101,6.08231,26.6101,6.08231l-3.80144-15.20577,3.04115-25.8498-.76029-23.56894-.76029-16.72635Z" transform="translate(-4.23827 -67.89235)" fill="#f2f2f2"/><path d="M246.2391,138.30933s10.28125,5.19428,11.04154,8.23543,14.44548,9.12346,14.44548,9.12346,5.322,5.322,5.322,8.36317-18.24692,38.01442-18.24692,38.01442-3.80144,23.569-2.28087,28.13068-3.04115,22.04836-3.04115,22.04836l9.12346,10.644h-8.36317s-9.12346-4.56173-9.12346-6.8426,1.52057-18.24692,2.28086-25.08952.76029-31.17182-.76029-39.535-.76028-30.41154-.76028-35.73356S246.2391,138.30933,246.2391,138.30933Z" transform="translate(-4.23827 -67.89235)" fill="#3f3d56"/><path d="M222.68752,126.76475s-3.4213.7728-13.305,3.81395-25.08952,7.60289-30.41154,13.6852a94.24783,94.24783,0,0,0-9.88374,14.44547l3.04115,54.74077s-6.08231,11.40433-5.322,17.48663,6.8426,6.8426,2.28087,19.7675-13.6852,24.32923-5.322,25.84981,30.41153-3.80144,40.29528-.76029,21.28808-11.40433,21.28808-11.40433-15.20577,1.52058-12.92491-4.56173,27.37039-74.50826,22.04837-89.714S222.68752,126.76475,222.68752,126.76475Z" transform="translate(-4.23827 -67.89235)" fill="#3f3d56"/><path d="M273.2467,160.23l3.80144,3.04116s10.644,38.01442,7.60288,41.81586-27.37038,12.16461-28.891,6.84259S273.2467,160.23,273.2467,160.23Z" transform="translate(-4.23827 -67.89235)" fill="#3f3d56"/><path d="M160.724,186.84005s-11.40432,32.6924-11.40432,41.81586,1.52057,62.34365,1.52057,62.34365.76029,22.80865,16.72635,13.68519,0-15.20577,0-15.20577.76029-60.06278,6.84259-68.42595,8.36318-20.52779,8.36318-20.52779Z" transform="translate(-4.23827 -67.89235)" fill="#ffb9b9"/><path d="M285.41131,423.28974s11.40433-6.0823,13.68519-1.52057,14.44548,29.65125,12.92491,32.6924-9.88375,15.20577-19.7675,12.16461-10.644-19.00721-10.644-19.00721l-.76029-18.24692Z" transform="translate(-4.23827 -67.89235)" fill="#2f2e41"/><path d="M254.44179,105.69472c-1.6759.78887-3.66405,1.26021-4.71714,2.784-.78033,1.1291-.8579,2.59638-1.42727,3.84522a5.43744,5.43744,0,0,1-6.99527,2.55818,6.03223,6.03223,0,0,0-2.45993-3.73583,3.583,3.583,0,0,0-4.25368.23352c-1.56706,1.494-1.01244,4.09923-1.74364,6.1371a12.95307,12.95307,0,0,1-2.78616,3.82048c-1.66408,1.92-2.9898,4.17181-4.99378,5.73377s-5.043,2.23889-7.03394.66032c-1.6741-1.32737-2.0211-3.77624-1.61458-5.87368s1.41475-4.02891,1.98335-6.08833c1.84762-6.69179-1.098-13.83609-.18661-20.71818,1.16775-8.81839,8.66294-15.784,17.02888-18.80695A19.922,19.922,0,0,1,246.236,75.07952c3.82594.85429,7.09438,3.29007,10.75865,4.68315,3.91854,1.48974,8.17957,1.74987,12.28027,2.62079s8.32063,2.55482,10.70026,6.00614c1.65973,2.40721,2.23022,5.39673,3.60571,7.97693a14.311,14.311,0,0,0,7.24879,6.49424l-4.33481-.24707a12.777,12.777,0,0,0,3.45385,5.04091,9.26938,9.26938,0,0,1-6.00092-.79324,6.52319,6.52319,0,0,0,2.23734,4.67626c-3.33564-.10048-6.8532-.25422-9.67173-2.041-1.38059-.87519-2.50643-2.09416-3.80559-3.08621-2.7692-2.11458-6.20478-3.11829-9.55388-4.07948-1.7586-.50471-3.87536-1.20653-5.46579-.0755C256.36366,103.19734,256.15456,104.8885,254.44179,105.69472Z" transform="translate(-4.23827 -67.89235)" fill="#2f2e41"/><path d="M180.49151,149.58591l-11.40432,9.12346-15.20577,34.97327s21.28807,16.72635,26.61009,14.44548S194.937,165.552,194.937,165.552Z" transform="translate(-4.23827 -67.89235)" fill="#3f3d56"/><path d="M351.53849,191.31716l-47.98714,26.35868a2.28534,2.28534,0,0,1-3.36012-.9912l-11.75542-24.5717a3.06719,3.06719,0,0,1,1.57216-3.6833l39.84138-20.536a2.32618,2.32618,0,0,1,3.04849.58278l19.90118,18.749A2.95539,2.95539,0,0,1,351.53849,191.31716Z" transform="translate(-4.23827 -67.89235)" fill="#2f2e41"/><polygon points="344.098 119.795 299.111 145.508 287.139 123.932 325.732 102.945 344.098 119.795" fill="#6c63ff"/><ellipse cx="310.15732" cy="179.89326" rx="0.66226" ry="0.56465" transform="translate(-30.91383 234.8942) rotate(-50.15848)" fill="#f2f2f2"/><ellipse cx="326.86049" cy="201.96788" rx="0.4415" ry="0.37643" transform="translate(-41.86114 255.65138) rotate(-50.15848)" fill="#f2f2f2"/><path d="M101.27674,507.57325c0,17.41683-10.35262,23.49772-23.12524,23.49772-.29586,0-.5917-.00427-.88542-.01066-.5917-.01277-1.17915-.04042-1.75807-.08086-11.5275-.81519-20.48174-7.209-20.48174-23.4062,0-16.75915,21.41612-37.90922,23.02945-39.47786l.00213-.00213c.06173-.06172.09365-.09152.09365-.09152S101.27674,490.15855,101.27674,507.57325Z" transform="translate(-4.23827 -67.89235)" fill="#6c63ff"/><path d="M77.30865,528.40618l8.45833-11.817-8.47962,13.1153-.02128,1.3558c-.5917-.01277-1.17915-.04042-1.75807-.08086l.91095-17.42323-.00637-.13621.0149-.02342.08726-1.64739L68.01386,498.602l8.52643,11.91275.02129.34906.68747-13.16426L69.972,484.11385l7.36644,11.27635.71728-27.29481.00213-.09365v.09152l-.11919,21.52254,7.24513-8.53282-7.27493,10.38668-.19155,11.78717,6.76623-11.31254-6.7939,13.04719-.10643,6.5534,9.81839-15.746L77.5449,513.8308Z" transform="translate(-4.23827 -67.89235)" fill="#3f3d56"/><path d="M424.27674,471.57325c0,17.41683-10.35262,23.49772-23.12524,23.49772-.29586,0-.5917-.00427-.88542-.01066-.5917-.01277-1.17915-.04042-1.75807-.08086-11.5275-.81519-20.48174-7.209-20.48174-23.4062,0-16.75915,21.41612-37.90922,23.02945-39.47786l.00213-.00213c.06173-.06172.09365-.09152.09365-.09152S424.27674,454.15855,424.27674,471.57325Z" transform="translate(-4.23827 -67.89235)" fill="#6c63ff"/><path d="M400.30865,492.40618l8.45833-11.817-8.47962,13.1153-.02128,1.3558c-.5917-.01277-1.17915-.04042-1.75807-.08086l.911-17.42323-.00637-.13621.0149-.02342.08726-1.64739L391.01386,462.602l8.52643,11.91275.02129.34906.68747-13.16426L392.972,448.11385l7.36644,11.27635.71728-27.29481.00213-.09365v.09152l-.11919,21.52254,7.24513-8.53282-7.27493,10.38668-.19155,11.78717,6.76623-11.31254-6.7939,13.04719-.10643,6.5534,9.81839-15.746-9.8567,18.03195Z" transform="translate(-4.23827 -67.89235)" fill="#3f3d56"/><rect x="514.77346" y="261.47164" width="384.45103" height="211.68286" fill="#f2f2f2"/><circle cx="579.20069" cy="337.96293" r="31.68552" fill="#6c63ff" opacity="0.3"/><circle cx="706.99897" cy="337.96293" r="31.68552" fill="#6c63ff" opacity="0.3"/><circle cx="834.79726" cy="337.96293" r="31.68552" fill="#6c63ff" opacity="0.3"/><rect x="535.36905" y="393.4126" width="86.6071" height="8.44947" fill="#6c63ff" opacity="0.3"/><rect x="664.22351" y="393.4126" width="86.6071" height="8.44947" fill="#6c63ff" opacity="0.3"/><rect x="793.07798" y="393.4126" width="86.6071" height="8.44947" fill="#6c63ff"/><path d="M1195.76173,743.38818c0,27.10654-99.884,88.71947-231.56838,88.71947s-245.82686-61.61293-245.82686-88.71947c0-6.77994,11.18066,1.6397,23.236-4.22474,35.09653-17.10249,118.78309-4.49608,213.76656-5.19933q4.39544-.03972,8.82425-.03976C1095.87777,733.92435,1195.76173,716.28164,1195.76173,743.38818Z" transform="translate(-4.23827 -67.89235)" fill="#3f3d56"/><path d="M1195.76173,743.38818c0,27.10654-99.884,88.71947-231.56838,88.71947s-245.82686-61.61293-245.82686-88.71947c0-6.77994,11.18066,1.6397,23.236-4.22474,35.09653-17.10249,118.78309-4.49608,213.76656-5.19933q4.39544-.03972,8.82425-.03976C1095.87777,733.92435,1195.76173,716.28164,1195.76173,743.38818Z" transform="translate(-4.23827 -67.89235)" opacity="0.1"/><path d="M1195.23364,742.881c0,27.10654-106.74916,49.09165-238.43358,49.09165S718.36649,769.98754,718.36649,742.881c0-6.77993,6.66275-13.22825,18.71813-19.09269,35.09654-17.10249,115.90772-29.25595,210.89119-29.9592q4.39544-.03972,8.82425-.03976C1088.48448,693.78935,1195.23364,715.77446,1195.23364,742.881Z" transform="translate(-4.23827 -67.89235)" fill="#3f3d56"/><ellipse cx="964.91336" cy="566.66393" rx="57.07669" ry="64.73065" fill="#36334a"/><path d="M994.22579,517.43359l-85.78,2.63939s-88,82.58781-25.31457,105.02257c0,0,89.31964,3.852,107.79534-10.66458C990.92656,614.431,1014.02117,523.37221,994.22579,517.43359Zm-3.95908,24.41431-91.71861,5.93862s6.59846-22.43477,32.9923-22.43477,56.08692-5.93862,58.72631,7.91815S990.26671,541.8479,990.26671,541.8479Z" transform="translate(-4.23827 -67.89235)" fill="#3f3d56"/><path d="M1081.98532,569.56144l-112.83369-3.95908,26.39385-111.514s105.57538-7.91816,102.936,19.13553S1081.98532,569.56144,1081.98532,569.56144Z" transform="translate(-4.23827 -67.89235)" fill="#36334a"/><path d="M973.0573,622.86784s-67.91074,12.01836-92.32505-23.61333,92.37846-16.49615,92.37846-16.49615l9.89769,27.05369Z" transform="translate(-4.23827 -67.89235)" fill="#36334a"/><circle cx="948.41721" cy="675.20862" r="31.01277" fill="#36334a"/><ellipse cx="951.38652" cy="675.20862" rx="19.46546" ry="22.43477" fill="#3f3d56"/><path d="M1122.23593,450.78914s-25.734-14.51662-27.05369,19.79538l-21.77492,159.68276h9.23785l25.07415-170.90014s12.53708,1.97953,14.51661,1.97953S1122.23593,450.78914,1122.23593,450.78914Z" transform="translate(-4.23827 -67.89235)" fill="#3f3d56"/><path d="M1147.878,468.40809v0a6.17144,6.17144,0,0,1-8.3724,4.02281l-29.85236-12.7631,5.41532-11.92818,29.4212,13.40039A6.17143,6.17143,0,0,1,1147.878,468.40809Z" transform="translate(-4.23827 -67.89235)" fill="#36334a"/><path d="M966.51225,619.0499s-47.50892-5.27877-60.70584,40.25061-11.87724,80.50123-23.09462,77.86184S847.74,725.28512,847.74,725.28512l1.97953,13.85677s41.57031,21.11508,48.16877-1.31969,10.55754-104.91553,48.16877-102.936,44.20969-1.97953,44.20969-1.97953Z" transform="translate(-4.23827 -67.89235)" fill="#3f3d56"/><path d="M876.11333,597.275s-36.95138,4.61892-51.468,31.67261-21.77492,75.8823-21.77492,75.8823h13.85677s7.91815-96.99738,49.48846-91.71861Z" transform="translate(-4.23827 -67.89235)" fill="#3f3d56"/><path d="M851.03918,748.37974,792.31287,712.0882s-3.29923-13.19692,34.312-18.47569c0,0,71.1096,24.86931,64.25811,34.20958S860.93687,751.679,851.03918,748.37974Z" transform="translate(-4.23827 -67.89235)" fill="#36334a"/><path d="M960.06882,539.7936c1.80879,1.9697,35.0858,33.63025,35.0858,33.63025s-3.30685,22.098-38.91119,24.8404l-59.34056,4.57058s-11.21613,41.16111-24.5518,54.31508-7.21573,13.88776-12.22042,20.299,2.01964,8.12985-5.57756,8.75267-23.29375-8.56261-23.46437-15.66739,4.2612-11.17456,6.23089-12.98335,6.96466-19.10328,9.95943-22.7611,14.33158-47.65278,14.33158-47.65278,11.316-21.28383,27.00285-22.98167,33.13975-9.32786,33.13975-9.32786" transform="translate(-4.23827 -67.89235)" fill="#2f2e41"/><path d="M960.06882,539.7936c1.80879,1.9697,35.0858,33.63025,35.0858,33.63025s-3.30685,22.098-38.91119,24.8404l-59.34056,4.57058s-11.21613,41.16111-24.5518,54.31508-7.21573,13.88776-12.22042,20.299,2.01964,8.12985-5.57756,8.75267-23.29375-8.56261-23.46437-15.66739,4.2612-11.17456,6.23089-12.98335,6.96466-19.10328,9.95943-22.7611,14.33158-47.65278,14.33158-47.65278,11.316-21.28383,27.00285-22.98167,33.13975-9.32786,33.13975-9.32786" transform="translate(-4.23827 -67.89235)" opacity="0.1"/><path d="M902.50775,434.12469s-12.48807-33.93256-21.0357-23.12063,13.75366,28.56676,13.75366,28.56676Z" transform="translate(-4.23827 -67.89235)" fill="#a0616a"/><path d="M968.29159,451.838l-7.11013-3.0085s-13.05135,8.82007-13.91075,11.68376,1.00214,1.86155-4.12424,4.38118-19.13079,8.61816-20.99234,9.62031-22.94-36.28994-17.89923-41.64472c0,0-9.43486,3.40146-13.73039,2.11237,0,0,10.72294,51.9878,12.35463,59.03282s5.44042,7.87588,12.54255,8.13428,50.23169-12.39543,50.23169-12.39543Z" transform="translate(-4.23827 -67.89235)" fill="#575a89"/><path d="M857.046,675.2731s-.35965,7.37566.87161,8.2235,8.84021,18.79285-2.8794,20.52417-18.15455-.52165-20.9886.431-49.55049-2.901-49.19084-10.27664,23.71788-5.44886,23.71788-5.44886,23.1368-10.93119,27.46888-17.74954S857.046,675.2731,857.046,675.2731Z" transform="translate(-4.23827 -67.89235)" fill="#2f2e41"/><path d="M857.046,675.2731s-.35965,7.37566.87161,8.2235,8.84021,18.79285-2.8794,20.52417-18.15455-.52165-20.9886.431-49.55049-2.901-49.19084-10.27664,23.71788-5.44886,23.71788-5.44886,23.1368-10.93119,27.46888-17.74954S857.046,675.2731,857.046,675.2731Z" transform="translate(-4.23827 -67.89235)" opacity="0.1"/><path d="M881.15118,714.12259s-7.10505,30.95669-12.31708,30.64119-42.00694-18.22232-46.53423-21.769c-5.813-4.55393-5.58317-12.60111,1.08925-10.91086s25.54482.17422,28.75256-3.23337l8.24848-8.76237Z" transform="translate(-4.23827 -67.89235)" fill="#2f2e41"/><path d="M953.99294,542.13135c1.94719,1.833,61.16526,52.06907,61.16526,52.06907s-1.6917,22.28-37.00249,27.60328l-58.85131,8.87219s-8.1943,41.86755-20.53846,55.95615-6.18709,14.37555-10.71248,21.13362,2.60529,7.96153-4.92654,9.135-23.85457-6.84664-24.54121-13.92022,3.4376-11.45476,5.27059-13.402,5.55754-19.559,8.27849-23.42487,10.82959-48.56853,10.82959-48.56853,9.73888-22.05012,25.26078-24.8838,32.374-11.71224,32.374-11.71224" transform="translate(-4.23827 -67.89235)" fill="#2f2e41"/><circle cx="1004.26502" cy="337.32724" r="28.07926" fill="#a0616a"/><path d="M1023.22143,422.74724s-4.21135,17.15359,2.20268,25.946-42.89971,4.60666-42.89971,4.60666,13.34777-27.8346,8.42269-34.30719S1023.22143,422.74724,1023.22143,422.74724Z" transform="translate(-4.23827 -67.89235)" fill="#a0616a"/><path d="M960.18732,449.71806c-5.95723,6.32838-3.92731,42.21161-3.92731,42.21161l3.80582,32.046s-4.55394,5.813-3.065,8.13282,3.92294,4.611-.77375,5.69883-15.5219,2.83368-12.05721,7.93152a49.14714,49.14714,0,0,0,3.62943,4.13271c1.10422,1.168,2.41733,2.52349,3.90558,4.03463,3.48311,3.51757,7.913,7.8437,12.82765,12.40587q2.088,1.95179,4.28093,3.93808c18.74955,16.96131,42.06473,34.915,46.88864,26.29868,8.07718-14.43265,13.69037-16.494,13.31922-28.77965s10.0273-43.81475,10.0273-43.81475,12.09014-53.80911-4.9478-69.84782l-2.66376-4.26128a11.13039,11.13039,0,0,0-12.04368-4.92847c-8.316,1.987-21.06437,4.73209-26.58767,4.28885-8.534-.68811-6.66306-4.19722-6.66306-4.19722S966.14456,443.38969,960.18732,449.71806Z" transform="translate(-4.23827 -67.89235)" fill="#575a89"/><path d="M933.85854,564.49552s-34.73834,8.6167-29.642,20.75956,35.168-10.04855,35.168-10.04855Z" transform="translate(-4.23827 -67.89235)" fill="#a0616a"/><path d="M1024.04331,415.49248c-.69146-.83768-.00761-2.06137.59438-2.96549,3.22371-4.84167,3.83933-11.731.29255-16.34128a15.55822,15.55822,0,0,0-5.12851-4.10315,24.84,24.84,0,0,0-8.95039-2.74714,13.85589,13.85589,0,0,1-4.8633-.958c-.97929-.49689-5.60005-2.11512-6.59184-2.58657-2.18055-1.03652-5.21411-.58858-6.61108-2.55775-1.3365-1.88391-.08845-4.46441,1.21-6.37475,2.95814-4.35212,10.43857-7.95912,15.57536-9.10145,3.89812-.86688,7.96631.352,11.57874,2.0541a70.69127,70.69127,0,0,1,11.79423,7.37879c5.05329,3.74391,10.03167,7.89284,13.06662,13.40117s3.7663,12.68266.33774,17.955c-.7142,1.09827-1.58756,2.08968-2.25629,3.21622-1.63135,2.74819-1.92573,6.07191-3.07835,9.05273a16.75588,16.75588,0,0,1-9.68285,9.54035c-3.5118,1.29842-7.83094,1.65711-9.90566,4.77387l-.96817-6.49837a3.747,3.747,0,0,1,1.7521-4.37365l4.974-4.18966a5.6839,5.6839,0,0,0,2.15032-2.77249C1030.40879,412.80669,1025.19621,416.88914,1024.04331,415.49248Z" transform="translate(-4.23827 -67.89235)" fill="#2f2e41"/><path d="M974.24007,539.15493l-22.53519,14.7512c4.46876,4.51889,10.50525,10.36662,17.10858,16.344,6.25485-3.36717,12.63365-7.01246,18.34031-10.67527,20.87814-13.40049,38.77985-47.04812,46.79993-63.37086s1.49186-28.8953,1.49186-28.8953a60.969,60.969,0,0,0-16.69534-4.69814C1008.29761,461.03445,974.24007,539.15493,974.24007,539.15493Z" transform="translate(-4.23827 -67.89235)" opacity="0.1"/><path d="M971.26219,534.51534,947.7993,549.8715c1.10422,1.168,2.41733,2.52349,3.90558,4.03463,3.48311,3.51757,7.913,7.8437,12.82765,12.40587,6.6651-3.55937,13.54237-7.46082,19.64335-11.37677,20.87814-13.40049,38.77985-47.04812,46.79993-63.37086s-13.559-10.46835-13.559-10.46835,11.19781-5.06783.7452-6.64388S971.26219,534.51534,971.26219,534.51534Z" transform="translate(-4.23827 -67.89235)" opacity="0.1"/><path d="M1034.41487,464.50206s6.52822,12.57256-1.49187,28.8953-25.92179,49.97037-46.79993,63.37086-50.74849,26.59969-50.74849,26.59969-2.83369-15.5219-7.616-17.26925l45.45082-29.75033s34.05753-78.12047,44.51014-76.54442A60.96919,60.96919,0,0,1,1034.41487,464.50206Z" transform="translate(-4.23827 -67.89235)" fill="#575a89"/><polygon points="937.86 562.375 937.86 639.577 946.438 639.577 946.438 561.055 937.86 562.375" fill="#3f3d56"/><path d="M954.635,677.7762s16.49615,64.66492,5.93861,73.90277c0,0-13.85677-40.91046-24.4143-35.63169l3.29923-38.27108Z" transform="translate(-4.23827 -67.89235)" fill="#36334a"/><path d="M1082.64517,537.229l-85.78,2.63938s-75.8823,73.90277-13.19692,96.33754c0,0,77.202,12.53707,95.67769-1.97954C1079.34594,634.22636,1102.44055,543.16759,1082.64517,537.229Zm-3.95908,24.4143-91.71861,5.93862s6.59846-22.43477,32.9923-22.43477,56.08693-5.93861,58.72631,7.91815S1078.68609,561.64328,1078.68609,561.64328Z" transform="translate(-4.23827 -67.89235)" fill="#3f3d56"/><ellipse cx="1058.94143" cy="608.56416" rx="86.10992" ry="97.65723" fill="#36334a"/><ellipse cx="1062.90051" cy="608.56416" rx="64.99484" ry="72.58307" fill="#3f3d56"/><path d="M1083.96486,675.46674a19.32852,19.32852,0,0,0-.3768-3.77072l48.54557-24.27274-3.29923-7.25831-49.03869,23.89067a10.24043,10.24043,0,0,0-1.62915-1.36126l.03753.0079,14.33877-71.36592-12.68367-.28836-8.43141,70.232.80838.16967a7.91615,7.91615,0,0,0-1.891.6462l-42.41162-43.53406-5.9942,8.40619,43.57474,40.08875a17.52762,17.52762,0,0,0-1.92936,6.75658l-61.44076,25.0779-1.31969,10.55754,64.0447-26.93469a13.99772,13.99772,0,0,0,2.5031,4.04551l-19.69873,67.09887h7.25831l16.5349-64.368a7.53418,7.53418,0,0,0,2.27071.36295,7.864,7.864,0,0,0,4.1938-1.257l34.4072,45.46667,10.55754-7.2583-40.31433-44.03567A18.45161,18.45161,0,0,0,1083.96486,675.46674Z" transform="translate(-4.23827 -67.89235)" fill="#36334a"/><circle cx="853.54453" cy="337.5169" r="31.68552" fill="#6c63ff"/><path d="M1178.27674,730.57325c0,17.41683-10.35262,23.49772-23.12524,23.49772-.29586,0-.5917-.00427-.88542-.01066-.5917-.01277-1.17915-.04042-1.75807-.08086-11.5275-.81519-20.48174-7.209-20.48174-23.4062,0-16.75915,21.41612-37.90922,23.02945-39.47786l.00213-.00213c.06173-.06172.09365-.09152.09365-.09152S1178.27674,713.15855,1178.27674,730.57325Z" transform="translate(-4.23827 -67.89235)" fill="#6c63ff"/><path d="M1154.30865,751.40618l8.45833-11.817-8.47962,13.1153-.02128,1.3558c-.5917-.01277-1.17915-.04042-1.75807-.08086l.91095-17.42323-.00637-.13621.0149-.02342.08726-1.64739-8.50089-13.14723,8.52643,11.91275.02129.34906.68747-13.16426-7.277-13.58567,7.36644,11.27635.71728-27.29481.00213-.09365v.09152l-.11919,21.52254,7.24513-8.53282-7.27493,10.38668-.19155,11.78717,6.76623-11.31254-6.7939,13.04719-.10643,6.5534,9.81839-15.746-9.8567,18.03195Z" transform="translate(-4.23827 -67.89235)" fill="#3f3d56"/></svg>