<svg id="a1564cff-f165-45d5-b330-5a55512dec45" data-name="Layer 1" xmlns="http://www.w3.org/2000/svg" width="817.21528" height="523.62072" viewBox="0 0 817.21528 523.62072"><rect x="0.34879" y="0.46308" width="816.86649" height="523.15763" fill="#e6e6e6"/><rect x="23.7069" y="66.0801" width="770.15027" height="426.59057" fill="#fff"/><rect width="816.86649" height="34.70348" fill="#6c63ff"/><circle cx="25.78884" cy="17.74225" r="6.43202" fill="#fff"/><circle cx="50.20318" cy="17.74225" r="6.43202" fill="#fff"/><circle cx="74.61753" cy="17.74225" r="6.43202" fill="#fff"/><rect x="118.46528" y="101.16701" width="150.63" height="163.41998" fill="#e6e6e6"/><rect x="333.46528" y="101.16701" width="150.63" height="163.41998" fill="#e6e6e6"/><rect x="548.46528" y="101.16701" width="150.63" height="163.41998" fill="#e6e6e6"/><rect x="118.46528" y="294.16701" width="150.63" height="163.41998" fill="#e6e6e6"/><rect x="333.46528" y="294.16701" width="150.63" height="163.41998" fill="#e6e6e6"/><rect x="548.46528" y="294.16701" width="150.63" height="163.41998" fill="#e6e6e6"/><circle cx="176.97482" cy="174.51978" r="25.46232" fill="#ffb9b9"/><path d="M358.42091,382.204s3.18279,15.11827,3.18279,16.70964,15.11825,8.75269,15.11825,8.75269l13.52686-2.38709,4.77419-14.32258s-7.957-11.93546-7.957-16.70965Z" transform="translate(-191.39236 -188.18964)" fill="#ffb9b9"/><path d="M346.28627,342.19527s8.08418-17.51576,23.5789-13.47366,24.25258,10.10523,24.92628,16.16835-.33685,15.1579-.33685,15.1579-1.68418-12.46314-12.46314-9.76844-27.621.67369-27.621.67369l-2.69472,24.25259s-3.03158-4.37894-6.4-1.68421S335.50737,347.58472,346.28627,342.19527Z" transform="translate(-191.39236 -188.18964)" fill="#2f2e41"/><path d="M449.12766,446.65664l-6.36005-28.65c-3.19-9.55-11.13995-17.5-11.13995-17.5l-39.24-13.8h-.01a16.47935,16.47935,0,0,1-11.67005,15.4c-11.94,3.97-20.16-9.41-20.16-9.41l-33.17,25.31s-10.34,8.76-9.54,25.47l-1.1,9.3h135.45Z" transform="translate(-191.39236 -188.18964)" fill="#6c63ff"/><ellipse cx="391.39963" cy="175.98401" rx="34.56023" ry="36.687" fill="#2f2e41"/><circle cx="422.06386" cy="213.32033" r="18.18116" fill="#2f2e41"/><polygon points="409.402 188.971 419.142 214.294 394.468 224.684 392.301 219.773 384.727 202.607 409.402 188.971" fill="#9f616a"/><circle cx="389.92219" cy="183.77594" r="21.75246" fill="#9f616a"/><path d="M563.53471,369.57978c13.67218-9.12328,17.75933-11.30419,33.43067-7.78014l.93991-22.86273-40.49715,8.49536Z" transform="translate(-191.39236 -188.18964)" fill="#2f2e41"/><path d="M651.43765,421.30666l-.6.07a.37833.37833,0,0,0-.05-.06006c-2.38-2.37994-13.74-6.71-22.21-9.71h-.01c-5.38-1.91-9.59-3.28-9.59-3.28l-10.24-10.53c-2.58,2.9-8.03,5.14-13.21,6.72a103.73786,103.73786,0,0,1-12.08,2.88h-.01l-2.12,6.77s-24.03,18.19-25.97,20.13h-.01v.02a1.057,1.057,0,0,0-.18.76v.05a88.17172,88.17172,0,0,0-1.86,17.65h104.64v-6.14C657.93765,438.19661,651.43765,421.30666,651.43765,421.30666Z" transform="translate(-191.39236 -188.18964)" fill="#575a89"/><path d="M843.85764,452.77663h-51.74l-2.85-28.11-.17-1.71-.35-3.39-1.43-14.17-1.79,15.22-3.78,32.16h-9.4l.35-10.01.35-10.15.15-4.09,1.93-55.64a39.72794,39.72794,0,0,1,7.93-24.49,30.94226,30.94226,0,0,1,24.99-12.09,31.83983,31.83983,0,0,1,25.42,12.53,40.26067,40.26067,0,0,1,8.31,24.86l.89,33.68006Z" transform="translate(-191.39236 -188.18964)" fill="#2f2e41"/><circle cx="616.6557" cy="181.84964" r="22.75803" fill="#fbbebe"/><path d="M796.669,386.295s6.50229,21.94524,0,28.44753-8.12787,8.94066-8.12787,8.94066l18.69409,25.19639,32.51147-39.82655s-22.758-6.5023-17.06852-24.3836Z" transform="translate(-191.39236 -188.18964)" fill="#fbbebe"/><polygon points="675.485 264.587 656.285 264.587 655.965 261.297 655.675 258.257 664.515 257.147 675.175 255.817 675.295 259.227 675.485 264.587" fill="#fbbebe"/><path d="M868.19425,447.254s-3.25116-20.31964-5.68952-28.44751-4.87671-8.12787-4.87671-8.12787h-.00048l.00012-.00195c-2.87-2.87-9.77-3.38-14.96-3.3-3.64.04-6.44.36-6.44.36l-28.99,30.58-14.6-19.41v-.01a21.2487,21.2487,0,0,0-3.89.67,25.75678,25.75678,0,0,0-3.22,1.05,44.18213,44.18213,0,0,0-12.33,7.91h-.01c-2.1,1.89-3.34,3.28-3.34,3.28a95.18694,95.18694,0,0,0-7.22,20.97h92.9l.21-4.18v-.008Z" transform="translate(-191.39236 -188.18964)" fill="#6c63ff"/><path d="M788.94755,366.38175c14.69852-7.92443,20.73643-7.58887,39.01376,0L832.838,354.5003a8.44772,8.44772,0,0,0-8.43821-8.43822H791.69631a8.44773,8.44773,0,0,0-8.43822,8.43822Z" transform="translate(-191.39236 -188.18964)" fill="#2f2e41"/><path d="M383.18073,521.91086a5.995,5.995,0,0,0-3.477.77673,9.06994,9.06994,0,0,0-2.35192,3.10434,37.1345,37.1345,0,0,1-10.11607,11.42691c-3.00585,2.202-6.82735,4.94767-6.31308,9.00764a12.17511,12.17511,0,0,0,1.46516,3.8024c2.77293,5.59759,10.33985,9.92334,9.59556,16.31066,2.755-4.61216-.93-6.89275,1.825-11.50486,1.312-2.19642,3.59117-4.67576,5.572-3.29641.66326.46185,1.09876,1.2902,1.78933,1.69545,1.64783.96695,3.40088-.88165,4.85952-2.191,5.0298-4.51524,12.18265-3.33235,18.44175-1.92551,2.9549.66416,6.20051,1.53553,7.9473,4.3597,2.29665,3.71319-2.182,7.72347-3.3136,11.9216a2.28755,2.28755,0,0,0,2.455,2.8469c1.87807-.18527,4.10284-.33711,4.214-1.16125,2.36291.0841,5.25816-.18348,6.27058-2.64391a10.34621,10.34621,0,0,0,.48533-3.00883c.3716-4.133,2.12572-7.90347,3.28777-11.83709s1.66733-8.54356-.29372-12.03113a13.921,13.921,0,0,0-2.56926-3.12263C411.82571,523.67091,397.194,521.89487,383.18073,521.91086Z" transform="translate(-191.39236 -188.18964)" fill="#2f2e41"/><path d="M374.40362,574.40713s2.42027,20.169-6.45407,21.7825,8.06759,29.04333,8.06759,29.04333l40.338,4.84057L406.674,597.80315s-6.45406-2.42028-2.42027-18.55547S374.40362,574.40713,374.40362,574.40713Z" transform="translate(-191.39236 -188.18964)" fill="#9f616a"/><circle cx="201.16334" cy="375.32623" r="24.20279" fill="#9f616a"/><path d="M350.89762,645.77663c4.28-16.83,10.19-39.5,10.19-39.5s2.3.47,5.92,1a140.1124,140.1124,0,0,0,15.96,1.45c6.84.19,14.04-.26,19.61-2.19a18.36251,18.36251,0,0,0,5.79-3.09,11.16158,11.16158,0,0,0,1.94-2.00994c9.68-12.91,13.71,36.3,13.71,36.3l.75,8.04Z" transform="translate(-191.39236 -188.18964)" fill="#6c63ff"/><path d="M428.22763,697.77663q-.48,0-.96.03l.46-.86005C427.88767,697.21663,428.04764,697.49666,428.22763,697.77663Z" transform="translate(-191.39236 -188.18964)" fill="#ffb8b8"/><path d="M384.35976,528.24346a5.49315,5.49315,0,0,0-2.83045.549,6.59728,6.59728,0,0,0-1.91456,2.19412,27.87411,27.87411,0,0,1-8.2349,8.07646c-2.4469,1.55639-5.55775,3.497-5.1391,6.36654a7.961,7.961,0,0,0,1.19269,2.68751,21.13962,21.13962,0,0,1,2.56871,13.17621l6.7281-9.77948c1.068-1.55241,2.92338-3.3048,4.53588-2.32988.53991.32644.89444.91191,1.4566,1.19833,1.3414.68344,2.76844-.62312,3.95586-1.54862,4.09447-3.19133,9.91718-2.35527,15.01235-1.36093,2.40541.46943,5.04747,1.08531,6.46942,3.08142,2.363,3.31714-.10441,8.11016,1.2747,11.94227a3.52062,3.52062,0,0,0,1.45671-2.32479c1.92349.05946,4.28037-.12966,5.10451-1.8687a6.43931,6.43931,0,0,0,.3951-2.12662c.30249-2.92115,1.7304-5.58614,2.67637-8.36638s1.35727-6.03853-.2391-8.50352a10.28883,10.28883,0,0,0-2.09147-2.20706C407.678,529.48745,395.76717,528.23216,384.35976,528.24346Z" transform="translate(-191.39236 -188.18964)" fill="#2f2e41"/><path d="M382.06766,607.07662c-5.52-6.31-8.8-15.51-8.95-15.92v-.01s-8.8-5.04-11.22-.2-25.01,16.94-27.43,16.94a.32075.32075,0,0,1-.06.02c-.96.32-12.98,4.69-16.07,20.96a121.76607,121.76607,0,0,0-1.34,16.91h65.79c.68-7.13,1.19-13.8,1.39-19.56.29-8.03.01-14.27-1.21-17.49A5.0946,5.0946,0,0,0,382.06766,607.07662Z" transform="translate(-191.39236 -188.18964)" fill="#2f2e41"/><path d="M438.63767,611.61666c-.04-.19-.07-.35-.1-.5a3.72037,3.72037,0,0,0-.54-1.2.07747.07747,0,0,1-.01-.03c-4.66-7.22-34.63-17.16-34.63-17.16l-1.12,3.87s.14,3.82.34,9.94c.2,5.73.44,13.47.67,21.97.16,5.55.3,11.43006.43,17.27h44.83A261.80046,261.80046,0,0,0,438.63767,611.61666Z" transform="translate(-191.39236 -188.18964)" fill="#2f2e41"/><path d="M858.07761,645.77663l3.43-16.76,3.19-1.35.02.01c.29.11,3.76,1.58,3.76,7.15,0,1.12-.17,5.15-.45,10.95Z" transform="translate(-191.39236 -188.18964)" fill="#575a89"/><circle cx="630.65786" cy="371.19086" r="27.85562" fill="#ffb8b8"/><polygon points="648.068 387.44 645.746 435.026 609.766 414.135 614.408 387.44 648.068 387.44" fill="#ffb8b8"/><polygon points="658.515 437.347 656.155 457.587 637.265 457.587 616.765 418.197 610.985 407.107 608.215 405.297 611.425 404.567 613.955 406.397 642.265 426.907 646.805 413.277 646.925 412.927 648.065 409.497 658.515 437.347" fill="#6c63ff"/><path d="M805.22079,532.1052s3.48194-17.40975,23.213-13.92781l-2.32131,1.16065s18.57042-2.3213,16.24911,8.12456c0,0,15.08845,9.28521,11.6065,19.73106a118.097,118.097,0,0,0-4.64261,18.5704l-3.48194-3.48194s-3.48195-23.213-24.37367-20.89171c-15.66878,1.741-22.05237,9.14012-23.68453,14.47186a47.09447,47.09447,0,0,1-2.86747,7.29458l-1.30362.2859S786.65037,537.90845,805.22079,532.1052Z" transform="translate(-191.39236 -188.18964)" fill="#2f2e41"/><path d="M864.71762,627.67666l-.02-.01-14.79-13.74v-9.28l-11.42-9-.17,5.47-1.18,37.19-18.99-26.12-12.8-17.6-2.3-3.15.56-2.95-7.09,8.03-25.66,19.25-2.2,1.65a69.98687,69.98687,0,0,0-6.96,8.12c-.69,1.03-3.83,9.23-7.92,20.24h114.25c.28-5.8.45-9.83.45-10.95C868.47763,629.25661,865.00766,627.78664,864.71762,627.67666Z" transform="translate(-191.39236 -188.18964)" fill="#2f2e41"/><path d="M597.88035,528.78277h0c-18.87588,0-34.17774,16.98175-34.17774,37.92977v26.61472H571.888l4.73894-9.861-1.18476,9.861h52.613l4.30813-8.96453-1.077,8.96453H637.21V572.43C637.21,548.3243,619.6015,528.78277,597.88035,528.78277Z" transform="translate(-191.39236 -188.18964)" fill="#2f2e41"/><path d="M570.29764,645.77663h-22.23l-.21-18.13c-.01-.19-.01-.37-.01-.56l4.45-5.01.08-.09,16.99,10.76Z" transform="translate(-191.39236 -188.18964)" fill="#d0cde1"/><circle cx="403.46402" cy="377.08755" r="24.33111" fill="#fbbebe"/><path d="M580.90658,579.87585s7.13713,36.98327,3.893,40.87623,34.388-7.13713,34.388-7.13713-12.32774-25.30435-5.83948-39.57858Z" transform="translate(-191.39236 -188.18964)" fill="#fbbebe"/><path d="M646.91764,604.88662h-.01a5.586,5.586,0,0,0-2.79-2.72c-4.77-2.01-8.88-3.55-12.26-4.72a25.9264,25.9264,0,0,0-18.34.57c-.56995.23-1.12994.48-1.68.76,0,0-23.79,4.53-26.62,3.96-.21-.04-.43-.07-.64-.09a11.22637,11.22637,0,0,0-1.29-.11,28.50287,28.50287,0,0,0-15.8,3.92c-7.81,4.53-19.39,12.56-19.63,20.38l-.22.25.22,18.69h104.42c.21-17.91.33-31.37.33-32.28C652.60764,610.66665,646.91764,604.88662,646.91764,604.88662Z" transform="translate(-191.39236 -188.18964)" fill="#6c63ff"/><path d="M607.59648,539.23118a17.92461,17.92461,0,0,0-14.14307-7.21731h-.671c-12.93754,0-23.42543,11.707-23.42543,26.1483v.00005h4.335l.70008-5.32888,1.02648,5.32888h25.71083l2.15407-4.50834-.53856,4.50834H607.803q3.54044,17.58255-10.17392,35.165h8.61626l4.30813-9.01668-1.077,9.01668h16.42473l3.23108-20.73842C629.13227,557.05767,620.10816,543.8876,607.59648,539.23118Z" transform="translate(-191.39236 -188.18964)" fill="#2f2e41"/><circle cx="420.92645" cy="340.42412" r="12.80115" fill="#2f2e41"/></svg>