<svg id="e35aa0bb-a640-4331-9239-0651161b835c" data-name="Layer 1" xmlns="http://www.w3.org/2000/svg" xmlns:xlink="http://www.w3.org/1999/xlink" width="888" height="617.49306" viewBox="0 0 888 617.49306"><defs><linearGradient id="b95f881a-d54d-4793-b39d-fd8d178292d1" x1="444" y1="377.20785" x2="444" gradientUnits="userSpaceOnUse"><stop offset="0" stop-color="gray" stop-opacity="0.25"/><stop offset="0.53514" stop-color="gray" stop-opacity="0.12"/><stop offset="1" stop-color="gray" stop-opacity="0.1"/></linearGradient><linearGradient id="bf3ac460-e980-4a56-bf10-7e8f45fba3a4" x1="565.57775" y1="184.62916" x2="565.57775" y2="139.96647" xlink:href="#b95f881a-d54d-4793-b39d-fd8d178292d1"/><linearGradient id="b00b2116-0e12-434e-959a-85c093d94590" x1="296.26627" y1="331.11277" x2="296.26627" y2="286.45007" xlink:href="#b95f881a-d54d-4793-b39d-fd8d178292d1"/><linearGradient id="eb777225-ba4b-43a3-8f36-ede016b06cb0" x1="698.58019" y1="174.12897" x2="698.58019" y2="129.46627" xlink:href="#b95f881a-d54d-4793-b39d-fd8d178292d1"/><linearGradient id="a5536af8-f538-4f5c-bd4b-f0de679d4e6e" x1="565.74412" y1="302.41586" x2="565.74412" y2="257.75316" xlink:href="#b95f881a-d54d-4793-b39d-fd8d178292d1"/><linearGradient id="f89f6c0b-50e3-4377-a82a-6d71d8d7a732" x1="272.77691" y1="77.68635" x2="272.77691" y2="33.02365" xlink:href="#b95f881a-d54d-4793-b39d-fd8d178292d1"/><linearGradient id="b8b49c0e-c264-4775-aa6e-2a14b987a2d6" x1="721.32609" y1="67.67815" x2="721.32609" y2="23.01545" xlink:href="#b95f881a-d54d-4793-b39d-fd8d178292d1"/><linearGradient id="a32cc75e-d258-4708-866c-2eb46f780a0f" x1="830.50642" y1="228.71914" x2="830.50642" y2="184.05644" xlink:href="#b95f881a-d54d-4793-b39d-fd8d178292d1"/><linearGradient id="b200c498-46e8-4ae5-8985-5e2f3d61fee6" x1="107.18675" y1="61.3093" x2="107.18675" y2="16.6466" xlink:href="#b95f881a-d54d-4793-b39d-fd8d178292d1"/><linearGradient id="b3829c89-4915-4f55-9cb4-28d414033534" x1="627.60666" y1="100.82207" x2="627.60666" y2="56.15937" xlink:href="#b95f881a-d54d-4793-b39d-fd8d178292d1"/><linearGradient id="a6787d5e-d3ff-4ff7-a9c8-8f7152892aef" x1="348.28699" y1="195.44502" x2="348.28699" y2="150.78232" xlink:href="#b95f881a-d54d-4793-b39d-fd8d178292d1"/><linearGradient id="ba11985d-29a3-423e-b59d-ce2d3bc97e11" x1="503.86896" y1="244.57617" x2="503.86896" y2="199.91347" xlink:href="#b95f881a-d54d-4793-b39d-fd8d178292d1"/><linearGradient id="e142e87e-1316-43eb-97ff-e25a5f9aee53" x1="557.79983" y1="77.88172" x2="557.79983" y2="33.21902" xlink:href="#b95f881a-d54d-4793-b39d-fd8d178292d1"/><linearGradient id="af03e972-8795-4f82-a4ce-7a326cc80323" x1="638.77524" y1="273.49647" x2="638.77524" y2="228.83378" xlink:href="#b95f881a-d54d-4793-b39d-fd8d178292d1"/><linearGradient id="aeab9009-66c2-4437-abf0-c21a97ad1ce9" x1="360.3654" y1="77.88172" x2="360.3654" y2="33.21902" xlink:href="#b95f881a-d54d-4793-b39d-fd8d178292d1"/><linearGradient id="a99e06ce-daa7-472a-954a-1f510efeba2a" x1="421.32442" y1="321.71779" x2="421.32442" y2="277.05509" xlink:href="#b95f881a-d54d-4793-b39d-fd8d178292d1"/><linearGradient id="b8c44bde-4016-4e5e-a844-edaf1cdd8ad8" x1="494.79867" y1="139.12833" x2="494.79867" y2="94.46563" xlink:href="#b95f881a-d54d-4793-b39d-fd8d178292d1"/><linearGradient id="e9fd1ed7-6864-4b08-a5ca-c03436a79804" x1="261.88064" y1="153.68571" x2="261.88064" y2="109.02301" xlink:href="#b95f881a-d54d-4793-b39d-fd8d178292d1"/><linearGradient id="a6f6dfe2-34cd-4380-ac25-8987790e5589" x1="830.52818" y1="110.92341" x2="830.52818" y2="66.26071" xlink:href="#b95f881a-d54d-4793-b39d-fd8d178292d1"/><linearGradient id="b0f139fd-d6c3-4e79-943e-84b96cc8b419" x1="744.09375" y1="322.00538" x2="744.09375" y2="277.34268" xlink:href="#b95f881a-d54d-4793-b39d-fd8d178292d1"/></defs><title>Creation process</title><rect width="888" height="377.20785" fill="url(#b95f881a-d54d-4793-b39d-fd8d178292d1)"/><rect x="9.92528" y="2.66006" width="869.39429" height="370.04155" fill="#eee"/><rect x="542.51281" y="139.96647" width="46.12988" height="44.6627" fill="url(#bf3ac460-e980-4a56-bf10-7e8f45fba3a4)"/><rect x="543.30715" y="140.73554" width="44.54121" height="43.12455" fill="#f5f5f5"/><rect x="273.20133" y="286.45007" width="46.12988" height="44.6627" fill="url(#b00b2116-0e12-434e-959a-85c093d94590)"/><rect x="273.99567" y="287.21914" width="44.54121" height="43.12455" fill="#f5f5f5"/><rect x="675.51525" y="129.46627" width="46.12988" height="44.6627" fill="url(#eb777225-ba4b-43a3-8f36-ede016b06cb0)"/><rect x="676.30959" y="130.23535" width="44.54121" height="43.12455" fill="#f5f5f5"/><rect x="542.67918" y="257.75316" width="46.12988" height="44.6627" fill="url(#a5536af8-f538-4f5c-bd4b-f0de679d4e6e)"/><rect x="543.47352" y="258.52223" width="44.54121" height="43.12455" fill="#f5f5f5"/><rect x="249.71197" y="33.02365" width="46.12988" height="44.6627" fill="url(#f89f6c0b-50e3-4377-a82a-6d71d8d7a732)"/><rect x="250.50631" y="33.79272" width="44.54121" height="43.12455" fill="#f5f5f5"/><rect x="698.26115" y="23.01545" width="46.12988" height="44.6627" fill="url(#b8b49c0e-c264-4775-aa6e-2a14b987a2d6)"/><rect x="699.05549" y="23.78453" width="44.54121" height="43.12455" fill="#f5f5f5"/><rect x="807.44148" y="184.05644" width="46.12988" height="44.6627" fill="url(#a32cc75e-d258-4708-866c-2eb46f780a0f)"/><rect x="808.23582" y="184.82551" width="44.54121" height="43.12455" fill="#f5f5f5"/><rect x="84.12181" y="16.6466" width="46.12988" height="44.6627" fill="url(#b200c498-46e8-4ae5-8985-5e2f3d61fee6)"/><rect x="84.91614" y="17.41567" width="44.54121" height="43.12455" fill="#f5f5f5"/><rect x="604.54173" y="56.15937" width="46.12988" height="44.6627" fill="url(#b3829c89-4915-4f55-9cb4-28d414033534)"/><rect x="605.33606" y="56.92844" width="44.54121" height="43.12455" fill="#7cfcff"/><rect x="325.22205" y="150.78232" width="46.12988" height="44.6627" fill="url(#a6787d5e-d3ff-4ff7-a9c8-8f7152892aef)"/><rect x="326.01639" y="151.5514" width="44.54121" height="43.12455" fill="#7cfcff"/><rect x="480.80402" y="199.91347" width="46.12988" height="44.6627" fill="url(#ba11985d-29a3-423e-b59d-ce2d3bc97e11)"/><rect x="481.59836" y="200.68254" width="44.54121" height="43.12455" fill="#7cfcff"/><rect x="534.73489" y="33.21902" width="46.12988" height="44.6627" fill="url(#e142e87e-1316-43eb-97ff-e25a5f9aee53)"/><rect x="535.52922" y="33.98809" width="44.54121" height="43.12455" fill="#ffffa5"/><rect x="615.7103" y="228.83378" width="46.12988" height="44.6627" fill="url(#af03e972-8795-4f82-a4ce-7a326cc80323)"/><rect x="616.50463" y="229.60285" width="44.54121" height="43.12455" fill="#ffffa5"/><rect x="337.30046" y="33.21902" width="46.12988" height="44.6627" fill="url(#aeab9009-66c2-4437-abf0-c21a97ad1ce9)"/><rect x="338.0948" y="33.98809" width="44.54121" height="43.12455" fill="#ffffa5"/><rect x="398.25948" y="277.05509" width="46.12988" height="44.6627" fill="url(#a99e06ce-daa7-472a-954a-1f510efeba2a)"/><rect x="399.05382" y="277.82416" width="44.54121" height="43.12455" fill="#ffffa5"/><rect x="471.73373" y="94.46563" width="46.12988" height="44.6627" fill="url(#b8c44bde-4016-4e5e-a844-edaf1cdd8ad8)"/><rect x="472.52807" y="95.2347" width="44.54121" height="43.12455" fill="#ff69b4"/><rect x="244.27471" y="112.66235" width="46.12987" height="44.66271" opacity="0.1"/><rect x="238.8157" y="109.02301" width="46.12988" height="44.6627" fill="url(#e9fd1ed7-6864-4b08-a5ca-c03436a79804)"/><rect x="239.61004" y="109.79208" width="44.54121" height="43.12455" fill="#ff69b4"/><rect x="807.46324" y="66.26071" width="46.12988" height="44.6627" fill="url(#a6f6dfe2-34cd-4380-ac25-8987790e5589)"/><rect x="808.25758" y="67.02979" width="44.54121" height="43.12455" fill="#ff69b4"/><rect x="721.02881" y="277.34268" width="46.12988" height="44.6627" fill="url(#b0f139fd-d6c3-4e79-943e-84b96cc8b419)"/><rect x="721.82315" y="278.11175" width="44.54121" height="43.12455" fill="#ff69b4"/><polygon points="113.125 185.611 108.132 200.26 159.439 198.421 139.731 186.596 113.125 185.611" fill="#edeef9"/><polygon points="243.527 200.392 246.155 197.107 268.491 210.246 268.491 216.158 243.527 200.392" fill="#edeef9"/><path d="M344.545,314.0159l20-21s22-33,38-24-23,30-23,30l-20,33Z" transform="translate(-156 -141.25347)" fill="#a0616a"/><path d="M281.545,721.0159s-15,29-4,31,65,5,66,2,9-13,3-17-30-7-30-7l-8-8Z" transform="translate(-156 -141.25347)" fill="#2f2e41"/><path d="M273.545,438.0159s-32,40-6,81l6,69s-11,95,3,127l2,11h35l-9-84s1-10,4-12,52-110,52-110-8-15-5-18-3-63-6-65S273.545,438.0159,273.545,438.0159Z" transform="translate(-156 -141.25347)" fill="#2f2e41"/><polygon points="174.545 570.762 178.545 593.762 139.545 591.762 144.545 566.762 174.545 570.762" fill="#a0616a"/><circle cx="167.54501" cy="132.76244" r="30" fill="#a0616a"/><path d="M296.545,279.0159l-3,36,32,15s-5.5-33.5-1.5-42.5Z" transform="translate(-156 -141.25347)" fill="#a0616a"/><path d="M329.545,328.0159l-3-12-41-15s-4,0-3,7,1,6,1,6-14,6-15,16-17,13-16,28,6,23,6,23-5,12,3,19c0,0,8,14,4,24s-9,27,2,24,87-8,87-8,11-41-1-56c0,0,0-9-9-27S329.545,328.0159,329.545,328.0159Z" transform="translate(-156 -141.25347)" fill="#575a89"/><path d="M276.545,441.0159s13,55,29,61c0,0,3,40,20,38s0-38,0-38l-19-69Z" transform="translate(-156 -141.25347)" fill="#a0616a"/><path d="M327.545,331.0159s15-24,19-20,24,16,23,24-10,8-10,8l-21,16Z" transform="translate(-156 -141.25347)" fill="#575a89"/><path d="M348.545,510.0159l12,8.626,8,85.374s-29,116-37,117-41,1-40-2,6-15,6-18,10.42947-26.9916,10.42947-26.9916L321.545,618.0159l-3-44Z" transform="translate(-156 -141.25347)" fill="#2f2e41"/><path d="M333.545,727.0159s-42-13-44-10-15.34029,33.23622,3.32986,36.61811,85.67014,9.38189,85.67014.38189-2-15-8-15-33-13-35-16S333.545,727.0159,333.545,727.0159Z" transform="translate(-156 -141.25347)" fill="#2f2e41"/><path d="M295.09874,275.98782a2.96116,2.96116,0,0,1,4.00626-3.95925l.05282.03039a5.18949,5.18949,0,0,1,2.44,5.18855c3.60617-3.59817.94848-10.81406,4.84485-14.09577,1.80348-1.519,4.731-1.85316,5.65752-4.02144.53938-1.26232.17266-2.75854.64811-4.04629.706-1.91216,2.96144-2.71065,4.97748-3.01129,6.33994-.94544,12.75166.66337,18.95976,2.25967,2.28275.587,4.68306,1.23922,6.34578,2.9098,1.75129,1.75955,2.36066,4.31619,3.43452,6.55445s8.11694,2.036,10.57919,1.71926c.856-2.43147-5.46588-2.61479-5.98194-5.14036-1.41054-6.903,3.50152-14.24353,1.09178-20.86431-1.452-3.98948-5.24519-6.63037-9.06408-8.48522a48.10819,48.10819,0,0,0-34.039-2.90465,7.55783,7.55783,0,0,0-3.14377,1.52008c-1.45333,1.35677-1.72276,3.53517-2.69065,5.27189-2.20532,3.95705-7.43556,4.89751-10.9623,7.74071-5.34123,4.306-5.9434,12.08108-6.11634,18.93969-.0871,3.454-.14856,7.043,1.26617,10.19524s4.76725,5.72073,8.1587,5.06048C295.403,276.58864,295.249,276.29708,295.09874,275.98782Z" transform="translate(-156 -141.25347)" fill="#2f2e41"/><path d="M300.31628,340.76058a21.30653,21.30653,0,0,0-26.00812,1.3217c-6.89193,5.85666-14.306,14.24779-13.76315,22.93362,1,16,7,82,15,83s37-7,37-12-7-11-7-11l8.49925-50.9955a33.70885,33.70885,0,0,0-13.2793-32.9407Q300.54223,340.91937,300.31628,340.76058Z" transform="translate(-156 -141.25347)" fill="#575a89"/></svg>