<svg id="6d8c951e-08f3-4e9b-9bbb-c5bd07483b7d" data-name="Layer 1" xmlns="http://www.w3.org/2000/svg" xmlns:xlink="http://www.w3.org/1999/xlink" width="1089.05" height="792.04" viewBox="0 0 1089.05 792.04"><defs><linearGradient id="dc384eb3-1ab8-4ed8-85c9-3c05fb4364da" x1="363.23" y1="724.55" x2="363.23" y2="134.03" gradientTransform="matrix(-1, 0, 0, 1, 828.87, 0)" gradientUnits="userSpaceOnUse"><stop offset="0" stop-color="gray" stop-opacity="0.25"/><stop offset="0.54" stop-color="gray" stop-opacity="0.12"/><stop offset="1" stop-color="gray" stop-opacity="0.1"/></linearGradient><linearGradient id="fe70a47d-0b65-4156-9878-337bc12fa6de" x1="646.9" y1="676.21" x2="646.9" y2="530.17" gradientTransform="matrix(1, 0, 0, 1, 0, 0)" xlink:href="#dc384eb3-1ab8-4ed8-85c9-3c05fb4364da"/></defs><title>exploring</title><path d="M660.34,436h0a141.82,141.82,0,0,0-75.07,21.37A142.43,142.43,0,0,0,442.85,316h0a142.06,142.06,0,0,0-49.64,8.9V290.43A142.43,142.43,0,0,0,250.77,148h0A142.43,142.43,0,0,0,108.34,290.43v378H802.77v-90A142.43,142.43,0,0,0,660.34,436Z" transform="translate(-55.48 -53.98)" fill="#6c63ff" opacity="0.1"/><path d="M821.67,651.45s20-31.35,22.36-44.74A172.59,172.59,0,0,1,851,581" transform="translate(-55.48 -53.98)" fill="none" stroke="#535461" stroke-miterlimit="10" stroke-width="2"/><path d="M855.54,607.78,843,608.85S849.65,620.36,855.54,607.78Z" transform="translate(-55.48 -53.98)" fill="#6c63ff"/><path d="M833.58,600.82l10,8S830.64,613.94,833.58,600.82Z" transform="translate(-55.48 -53.98)" fill="#6c63ff"/><path d="M857.15,596.8l-11.33,1.52S855.81,606.44,857.15,596.8Z" transform="translate(-55.48 -53.98)" fill="#6c63ff"/><path d="M838.4,592.78l7.48,5.25S836.8,601.89,838.4,592.78Z" transform="translate(-55.48 -53.98)" fill="#6c63ff"/><path d="M848.66,588s9.29-2.46,10.63-1.92.54,6.42-3.21,6.69S848.66,588,848.66,588Z" transform="translate(-55.48 -53.98)" fill="#6c63ff"/><path d="M842.42,581s5.89,5.62,6.16,7-4.82,4.55-7.5,0S842.42,581,842.42,581Z" transform="translate(-55.48 -53.98)" fill="#6c63ff"/><circle cx="797.92" cy="527.55" r="2.68" fill="#ffd037"/><circle cx="793.1" cy="526.21" r="2.68" fill="#ffd037"/><path d="M709.89,339.1c-10,10.11-10.61,25.61-10.61,25.61s15.49-.88,25.45-11,10.61-25.61,10.61-25.61S719.85,329,709.89,339.1Z" transform="translate(-55.48 -53.98)" fill="#6c63ff" opacity="0.1"/><path d="M625,270.09c3.53,13.75,16.47,22.3,16.47,22.3s7.23-13.73,3.71-27.48-16.48-22.29-16.48-22.29S621.5,256.35,625,270.09Z" transform="translate(-55.48 -53.98)" fill="#6c63ff" opacity="0.1"/><path d="M805.85,400.9c-10,10.11-10.62,25.61-10.62,25.61s15.49-.88,25.45-11,10.62-25.61,10.62-25.61S815.81,390.79,805.85,400.9Z" transform="translate(-55.48 -53.98)" fill="#6c63ff" opacity="0.1"/><path d="M845.7,487.92c-1.16,14.14,8.27,26.46,8.27,26.46s11.33-10.61,12.49-24.75-8.27-26.46-8.27-26.46S846.86,473.78,845.7,487.92Z" transform="translate(-55.48 -53.98)" fill="#6c63ff" opacity="0.1"/><path d="M1076.63,422c-1.16,14.14,8.28,26.46,8.28,26.46s11.32-10.61,12.48-24.75-8.27-26.46-8.27-26.46S1077.79,407.88,1076.63,422Z" transform="translate(-55.48 -53.98)" fill="#6c63ff" opacity="0.1"/><path d="M119.93,657.87s444.33-84.68,934,0S-123.37,729.56,119.93,657.87Z" transform="translate(-55.48 -53.98)" fill="#6c63ff"/><path d="M366.22,671.67c.79,10.12-9.08,17.77-18.52,21.48s-20.21,6-26.72,13.76a12.63,12.63,0,0,0-3.25,7.26c-.3,5.93,5.22,10.43,10.53,13.07,15.2,7.54,32.67,8.46,49.38,11.39s34.31,8.88,43.91,22.87C426,768,428.42,775.85,433.41,782c8,9.77,21.71,13.61,34.21,11.92s23.9-8.22,33.72-16.14c11-8.87,21.14-20,34.83-23.52,23.56-6.11,45.58,12.14,68.09,21.42,27.18,11.2,58.14,9.32,86.69,2.29,6.4-1.58,12.88-3.46,18.33-7.17,6.29-4.27,10.8-10.67,16.69-15.47,14.62-11.92,35.17-12.37,54-12.26l54.69.31c10.81.06,22.33-.08,31.37-6,9.27-6.08,14.17-17.66,13.58-28.73s-6.14-21.51-13.91-29.42c-17.27-17.58-43.33-22.58-67.75-26C680.43,637,561.25,638.33,442.59,639.68c-19.85.23-39.8.44-59.5,3.19-4.89.68-25.26,1.69-27.18,6.88C354.1,654.63,365.75,665.64,366.22,671.67Z" transform="translate(-55.48 -53.98)" fill="#6c63ff"/><ellipse cx="172.77" cy="704.93" rx="40.21" ry="6.8" fill="#6c63ff"/><ellipse cx="204.73" cy="761.35" rx="40.21" ry="6.8" fill="#6c63ff"/><ellipse cx="79.79" cy="667.18" rx="26.93" ry="4.55" fill="#6c63ff"/><ellipse cx="299.16" cy="725.47" rx="26.93" ry="4.55" fill="#6c63ff"/><ellipse cx="876.82" cy="687.68" rx="26.93" ry="4.55" fill="#6c63ff"/><ellipse cx="706.79" cy="732.09" rx="26.93" ry="4.55" fill="#6c63ff"/><ellipse cx="991.33" cy="704.93" rx="40.21" ry="6.8" fill="#6c63ff"/><ellipse cx="829.47" cy="743.07" rx="64.95" ry="10.98" fill="#6c63ff"/><ellipse cx="522.22" cy="776.69" rx="90.76" ry="15.34" fill="#6c63ff"/><path d="M1054.26,525.23s-20.33,20.33-8.85,50.49-19.68,80.34-19.68,80.34l1-.16c41.75-7.37,62.5-55.13,39.28-90.6C1057.34,552.11,1050.25,536.64,1054.26,525.23Z" transform="translate(-55.48 -53.98)" fill="#6c63ff"/><path d="M1054.26,525.23s-11.47,24.92,0,45.25,2,77.38-28.53,85.58" transform="translate(-55.48 -53.98)" fill="none" stroke="#535461" stroke-miterlimit="10"/><path d="M1090.47,607.45s-23.2-3.69-25.31,17.1-44.61,23.67-44.61,23.67l.8.53c35.08,23,68.62,14.67,63.57-15.91C1083,621.47,1083.19,610.05,1090.47,607.45Z" transform="translate(-55.48 -53.98)" fill="#6c63ff"/><path d="M1090.47,607.45s-23.2-3.69-25.31,17.1-44.61,23.67-44.61,23.67l.8.53c35.08,23,68.62,14.67,63.57-15.91C1083,621.47,1083.19,610.05,1090.47,607.45Z" transform="translate(-55.48 -53.98)" fill="#f5f5f5" opacity="0.2"/><path d="M1090.47,607.45s-18,4-16.53,20.33-26.74,36-53.39,20.44" transform="translate(-55.48 -53.98)" fill="none" stroke="#535461" stroke-miterlimit="10"/><path d="M817.38,627.68s-6.21-21.08,1.16-36.6a33.27,33.27,0,0,0,2.7-20.89,56.7,56.7,0,0,0-3-9.81" transform="translate(-55.48 -53.98)" fill="none" stroke="#535461" stroke-miterlimit="10" stroke-width="2"/><path d="M822.87,550.57c0,2.59-4.68,10.08-4.68,10.08s-4.68-7.49-4.68-10.08a4.68,4.68,0,1,1,9.36,0Z" transform="translate(-55.48 -53.98)" fill="#6c63ff"/><path d="M830.6,564.89c-1.4,2.17-9.4,5.91-9.4,5.91s.14-8.83,1.55-11a4.68,4.68,0,1,1,7.85,5.09Z" transform="translate(-55.48 -53.98)" fill="#6c63ff"/><path d="M830.26,589.35c-2.3,1.16-11.1.36-11.1.36s4.58-7.56,6.89-8.72a4.68,4.68,0,0,1,4.21,8.36Z" transform="translate(-55.48 -53.98)" fill="#6c63ff"/><path d="M825.84,607.79C823.76,609.33,815,610,815,610s3.24-8.22,5.32-9.76a4.68,4.68,0,1,1,5.56,7.52Z" transform="translate(-55.48 -53.98)" fill="#6c63ff"/><path d="M811.37,571.3c1.86,1.8,10.49,3.67,10.49,3.67s-2.11-8.58-4-10.38a4.68,4.68,0,0,0-6.52,6.71Z" transform="translate(-55.48 -53.98)" fill="#6c63ff"/><path d="M806.47,592.94c2.31,1.17,11.11.36,11.11.36s-4.59-7.55-6.89-8.71a4.68,4.68,0,1,0-4.22,8.35Z" transform="translate(-55.48 -53.98)" fill="#6c63ff"/><path d="M804.6,614.63c2.08,1.54,10.88,2.23,10.88,2.23s-3.24-8.21-5.32-9.75a4.68,4.68,0,1,0-5.56,7.52Z" transform="translate(-55.48 -53.98)" fill="#6c63ff"/><path d="M803.87,625.63s11.35-2.27,14.37-5.29,16.65-8.33,18.16-4.54,20.42,16.64,7.56,18.91-30.26,3-34,1.51S803.87,625.63,803.87,625.63Z" transform="translate(-55.48 -53.98)" fill="#a8a8a8"/><path d="M844,633.3c-12.86,2.27-30.26,3-34,1.52-2.88-1.16-4.88-6.69-5.67-9.27l-.38.08s2.27,9.08,6,10.59,21.18.76,34-1.51c3.72-.66,4.78-2.19,4.38-4.14C848,631.84,846.73,632.82,844,633.3Z" transform="translate(-55.48 -53.98)" opacity="0.2"/><path d="M720.9,693.48s34.43-6.89,43.62-16.07,50.5-25.26,55.09-13.78,62,50.51,23,57.39-91.83,9.19-103.31,4.59S720.9,693.48,720.9,693.48Z" transform="translate(-55.48 -53.98)" fill="#a8a8a8"/><path d="M842.57,716.76c-39,6.89-91.83,9.18-103.31,4.59-8.74-3.5-14.81-20.3-17.21-28.11l-1.15.24s6.89,27.54,18.36,32.13,64.28,2.3,103.31-4.59c11.26-2,14.48-6.65,13.27-12.56C854.88,712.31,851,715.28,842.57,716.76Z" transform="translate(-55.48 -53.98)" opacity="0.2"/><path d="M145.94,559.43c15.33,22.63,10.44,103.64,10.44,103.64s-77-25.5-92.38-48.13a49.49,49.49,0,1,1,81.94-55.51Z" transform="translate(-55.48 -53.98)" fill="#6c63ff"/><path d="M145.94,559.43c15.33,22.63,10.44,103.64,10.44,103.64s-77-25.5-92.38-48.13a49.49,49.49,0,1,1,81.94-55.51Z" transform="translate(-55.48 -53.98)" opacity="0.1"/><path d="M77.51,546.27s57.74,44.57,79.17,116.86" transform="translate(-55.48 -53.98)" fill="none" stroke="#535461" stroke-miterlimit="10"/><path d="M171.22,601.73s-41-7-12.95,60.91c0,0,28.49-10.86,30.71-37.88a21.56,21.56,0,0,0-17.15-22.92Z" transform="translate(-55.48 -53.98)" fill="#6c63ff"/><path d="M171.82,601.65s7.82,37.56-13.55,61" transform="translate(-55.48 -53.98)" fill="none" stroke="#535461" stroke-miterlimit="10"/><path d="M1021.79,600.3s5.49,7.19-2.54,18-14.65,20-12,26.77c0,0,12.11-20.15,22-20.43S1032.63,612.42,1021.79,600.3Z" transform="translate(-55.48 -53.98)" fill="#6c63ff"/><path d="M1021.79,600.3a9.25,9.25,0,0,1,1.12,2.26c9.62,11.3,14.74,21.85,5.5,22.11-8.62.25-19,15.65-21.43,19.54a9.3,9.3,0,0,0,.3.89s12.11-20.15,22-20.43S1032.63,612.42,1021.79,600.3Z" transform="translate(-55.48 -53.98)" opacity="0.1"/><path d="M1032,609.46c0,2.53-.29,4.58-.64,4.58s-.63-2-.63-4.58.36-1.34.71-1.34S1032,606.93,1032,609.46Z" transform="translate(-55.48 -53.98)" fill="#ffd037"/><path d="M1035.5,612.48c-2.22,1.21-4.15,1.94-4.32,1.63s1.5-1.53,3.72-2.74,1.34-.33,1.51,0S1037.72,611.27,1035.5,612.48Z" transform="translate(-55.48 -53.98)" fill="#ffd037"/><path d="M992.77,600.3s-5.49,7.19,2.53,18,14.65,20,12,26.77c0,0-12.12-20.15-22-20.43S981.92,612.42,992.77,600.3Z" transform="translate(-55.48 -53.98)" fill="#6c63ff"/><path d="M992.77,600.3a8.83,8.83,0,0,0-1.12,2.26c-9.62,11.3-14.75,21.85-5.5,22.11,8.61.25,19,15.65,21.42,19.54a9.24,9.24,0,0,1-.29.89s-12.12-20.15-22-20.43S981.92,612.42,992.77,600.3Z" transform="translate(-55.48 -53.98)" opacity="0.1"/><path d="M982.56,609.46c0,2.53.28,4.58.63,4.58s.63-2,.63-4.58-.35-1.34-.7-1.34S982.56,606.93,982.56,609.46Z" transform="translate(-55.48 -53.98)" fill="#ffd037"/><path d="M979.05,612.48c2.22,1.21,4.16,1.94,4.33,1.63s-1.5-1.53-3.72-2.74-1.35-.33-1.51,0S976.83,611.27,979.05,612.48Z" transform="translate(-55.48 -53.98)" fill="#ffd037"/><path d="M984.31,644.16s15.36-.48,20-3.77,23.63-7.23,24.78-1.95,23.08,26.29,5.74,26.43-40.29-2.7-44.91-5.51S984.31,644.16,984.31,644.16Z" transform="translate(-55.48 -53.98)" fill="#a8a8a8"/><path d="M1035.12,663c-17.34.14-40.29-2.7-44.91-5.51-3.52-2.14-4.92-9.83-5.39-13.38l-.51,0s1,12.38,5.59,15.2,27.57,5.65,44.91,5.51c5,0,6.74-1.82,6.64-4.45C1040.75,662,1038.85,663,1035.12,663Z" transform="translate(-55.48 -53.98)" opacity="0.2"/><path d="M1063.43,747.8a11.64,11.64,0,0,0,3.83-5.79c.5-2.3-.48-5-2.68-5.89-2.46-.94-5.08.76-7.08,2.49s-4.27,3.68-6.88,3.32a10.5,10.5,0,0,0,3.24-9.81,4.11,4.11,0,0,0-.9-2c-1.37-1.45-3.84-.83-5.48.32-5.2,3.66-6.65,10.72-6.68,17.08-.52-2.29-.08-4.68-.09-7s-.66-5-2.65-6.23a8,8,0,0,0-4-1c-2.34-.08-5,.15-6.54,1.86-2,2.13-1.47,5.69.25,8s4.35,3.8,6.77,5.42a15.13,15.13,0,0,1,4.84,4.61,5.06,5.06,0,0,1,.35.82h14.66A40.73,40.73,0,0,0,1063.43,747.8Z" transform="translate(-55.48 -53.98)" fill="#6c63ff"/><path d="M371.26,768.57a11.73,11.73,0,0,0,3.84-5.79c.49-2.29-.49-5-2.68-5.89-2.46-.94-5.09.77-7.08,2.49s-4.28,3.69-6.89,3.32a10.47,10.47,0,0,0,3.24-9.81,4.12,4.12,0,0,0-.9-2c-1.37-1.46-3.84-.84-5.48.31-5.2,3.66-6.65,10.73-6.67,17.08-.53-2.29-.09-4.68-.1-7s-.66-5-2.64-6.23a8,8,0,0,0-4-.94c-2.34-.09-4.94.15-6.54,1.86-2,2.12-1.47,5.68.26,8s4.35,3.81,6.76,5.42a15,15,0,0,1,4.84,4.61,4.83,4.83,0,0,1,.36.83H362.2A40.77,40.77,0,0,0,371.26,768.57Z" transform="translate(-55.48 -53.98)" fill="#6c63ff"/><path d="M272.26,675.45s-14.06-47.71,2.63-82.83a75.4,75.4,0,0,0,6.1-47.27,127.26,127.26,0,0,0-6.7-22.19" transform="translate(-55.48 -53.98)" fill="none" stroke="#535461" stroke-miterlimit="10" stroke-width="2"/><path d="M284.68,501c0,5.84-10.59,22.8-10.59,22.8s-10.59-17-10.59-22.8a10.59,10.59,0,0,1,21.18,0Z" transform="translate(-55.48 -53.98)" fill="#6c63ff"/><path d="M302.18,533.36c-3.18,4.9-21.28,13.38-21.28,13.38s.32-20,3.5-24.89a10.59,10.59,0,1,1,17.78,11.51Z" transform="translate(-55.48 -53.98)" fill="#6c63ff"/><path d="M301.41,588.7c-5.22,2.63-25.13.81-25.13.81s10.38-17.08,15.6-19.72a10.59,10.59,0,1,1,9.53,18.91Z" transform="translate(-55.48 -53.98)" fill="#6c63ff"/><path d="M291.4,630.45c-4.7,3.47-24.63,5-24.63,5s7.34-18.59,12-22.07a10.59,10.59,0,1,1,12.59,17Z" transform="translate(-55.48 -53.98)" fill="#6c63ff"/><path d="M258.67,547.87c4.19,4.08,23.73,8.3,23.73,8.3s-4.79-19.41-9-23.48a10.58,10.58,0,1,0-14.75,15.18Z" transform="translate(-55.48 -53.98)" fill="#6c63ff"/><path d="M247.58,596.84c5.22,2.64,25.13.82,25.13.82s-10.38-17.09-15.6-19.72a10.58,10.58,0,1,0-9.53,18.9Z" transform="translate(-55.48 -53.98)" fill="#6c63ff"/><path d="M243.34,645.92C248,649.4,268,651,268,651s-7.34-18.6-12-22.07a10.59,10.59,0,1,0-12.59,17Z" transform="translate(-55.48 -53.98)" fill="#6c63ff"/><path d="M284.68,501c0,5.84-10.59,22.8-10.59,22.8s-10.59-17-10.59-22.8a10.59,10.59,0,0,1,21.18,0Z" transform="translate(-55.48 -53.98)" fill="#fc6681"/><path d="M302.18,533.36c-3.18,4.9-21.28,13.38-21.28,13.38s.32-20,3.5-24.89a10.59,10.59,0,1,1,17.78,11.51Z" transform="translate(-55.48 -53.98)" fill="#fc6681"/><path d="M301.41,588.7c-5.22,2.63-25.13.81-25.13.81s10.38-17.08,15.6-19.72a10.59,10.59,0,1,1,9.53,18.91Z" transform="translate(-55.48 -53.98)" fill="#fc6681"/><path d="M291.4,630.45c-4.7,3.47-24.63,5-24.63,5s7.34-18.59,12-22.07a10.59,10.59,0,1,1,12.59,17Z" transform="translate(-55.48 -53.98)" fill="#fc6681"/><path d="M258.67,547.87c4.19,4.08,23.73,8.3,23.73,8.3s-4.79-19.41-9-23.48a10.58,10.58,0,1,0-14.75,15.18Z" transform="translate(-55.48 -53.98)" fill="#fc6681"/><path d="M247.58,596.84c5.22,2.64,25.13.82,25.13.82s-10.38-17.09-15.6-19.72a10.58,10.58,0,1,0-9.53,18.9Z" transform="translate(-55.48 -53.98)" fill="#fc6681"/><path d="M243.34,645.92C248,649.4,268,651,268,651s-7.34-18.6-12-22.07a10.59,10.59,0,1,0-12.59,17Z" transform="translate(-55.48 -53.98)" fill="#fc6681"/><path d="M239.05,672.44s17.11-3.4,21.67-7.93,25.1-12.46,27.38-6.79,30.8,24.91,11.41,28.31-45.63,4.53-51.34,2.27S239.05,672.44,239.05,672.44Z" transform="translate(-55.48 -53.98)" fill="#a8a8a8"/><path d="M299.51,683.93c-19.4,3.39-45.63,4.53-51.34,2.26-4.34-1.72-7.36-10-8.55-13.87l-.57.12s3.42,13.59,9.12,15.86,31.94,1.13,51.34-2.27c5.59-1,7.19-3.28,6.59-6.2C305.62,681.73,303.67,683.2,299.51,683.93Z" transform="translate(-55.48 -53.98)" opacity="0.2"/><path d="M1131.16,129V322.77c0,32.12-39.65,47.57-61.17,23.72l-.51-.56c-6.94-7.77-16.44-17.22-26-13.08-3,1.27-5.22,3.69-7.86,5.53a114.57,114.57,0,0,1,4.93,13c8.25,27.32,1.82,56.84-7,84s-20.08,54.06-21.59,82.57c-.72,13.69.85,27.39,2.41,41,3,25.86,6.07,52.22,16.88,75.9,5.92,13,14.29,26.06,12.52,40.19A408.78,408.78,0,0,1,906,657.54c30.86-31.07,30.82-80.37,28.76-124.11q-2.47-52.84-5-105.7c-.48-10.32-1.06-21-5.77-30.2C917.6,385,904.28,377.14,890.56,374s-28-2.29-42.07-1.4a22.53,22.53,0,0,1,2.93-15.95,200.58,200.58,0,0,0,69.29,16.25c3,.15,6.37.12,8.6-1.91s2.57-5.38,2.71-8.4a183.89,183.89,0,0,0-4.72-52.06c-.77.19-1.54.38-2.31.62-11.76,3.56-22.41,12.35-34.66,11.42-17.12-1.3-27.27-20.48-43.4-26.37-12.36-4.52-25.95-.53-38.9,1.82s-28.3,2.19-36.81-7.85c-10.74-12.68-4-32.79-11-47.89-9.89-21.5-39.83-21.9-63.33-19a74.5,74.5,0,0,1,39.69-29.86c-8.32-14.93-37.56-14.26-37.39-31.35.06-6.63,5.34-11.9,10.24-16.37l22-20.06-38.93-14.7c-8.72-3.29-18.46-7.61-21.37-16.46-2.84-8.68,2.32-18,8.74-24.51l.17-.16A54.56,54.56,0,0,1,718.74,54h337.43A75,75,0,0,1,1131.16,129Z" transform="translate(-55.48 -53.98)" fill="#6c63ff" opacity="0.1"/><path d="M366.76,722.28s22.91,6.29,33.95-2.07,15.82-5.67,15.82-5.67,26.31-1.46,28.47-7.67-10.09-28.81-10.09-28.82c-.88-1.95-2.14-4.55-2.72-4.55l.12-9.53h0l3.81-39.86c8.8-22.55.16-51.7.16-51.7l-1.57-7.23a18.14,18.14,0,0,1,1.49-12l16-32.15a47.75,47.75,0,0,1,3-6.15c1-1.84,2.33-4.11,4-6.83.49-.77,1-1.59,1.56-2.44,1.94-3,4.29-6.42,7.12-10.35,7.08-9.8,10.8-22,12.72-31.1l.85,2.83h0l.14,0h0l.23,0h0l.32.06h.06l.41.06h.08l.08,0,4.91,62.54c.31,24.39,9.26,37.89,9.26,37.89l-1.24,53.84c1.69,13-2,30.27-3.69,37.16l-3.88,8.74a10.52,10.52,0,0,0-5.7,7.94c-.77,6.45-7.56,20.35-7.56,20.35C472.39,699,466.68,708,466.68,708s-2.78,8.59-1.08,11.81,15.58,2.92,15.58,2.92c15.9,3.52,28.09-5.07,27.32-10.9s2.46-7.36,2.46-7.36c6.33-2,5.71-6.29,5.71-6.29a39.35,39.35,0,0,0-4.78-25.62l-1,2.32a35,35,0,0,1,1.91-13.67c-.2.14-.39.28-.59.4l-.18.12-.06,0c1-8.79,10.24-25.09,10.24-25.09,17-29.76,10.8-70.11,10.8-70.11L530.41,554l-.15-4.74a158,158,0,0,1,2.51-33.78c.91-4.93,1.85-10.89,2.58-17.47,1.52-13.88,6.44-28.2,8.7-34.26l.68-.12.09,0,2.8-.49.18,0s.54-2.93,1-7.92c.27-3.18.49-7.21.49-11.84a133.05,133.05,0,0,0-6.32-41.23l.5-.74s1.22-1.64,3.43-4.49v0c4.08-5.17,10.41-13,18.23-21.91,14-15.95,9.87-32.11,9.87-32.11s-10.08-37-14.61-59.32c-2.57-12.68-7.41-21.32-11.11-26.42a52,52,0,0,0,1.4-10.71c.31-6.6.07-13.48-2.89-19.4s-9.29-10.62-15.89-9.82a6.1,6.1,0,0,1-2.85,0,4.29,4.29,0,0,1-1.87-1.64c-3.87-5.32-4.12-12.48-2.92-18.94s3.68-12.64,4.78-19.12.61-13.67-3.52-18.8c-4.84-6-13.29-7.72-19.59-12.24-4.42-3.18-7.74-7.75-12.4-10.56s-9-1.75-14.09-.68c-8.52,1.79-16.61,2.61-24.66,6.28a65.63,65.63,0,0,0-21.5,15.63,20.52,20.52,0,0,0-4.79,7.57c-2,6.62,1.91,13.68,1.09,20.54-.58,4.86-3.45,9.1-5.73,13.44s-4,9.5-2.22,14.06c2.8,7.09,12,8.6,18.62,12.38a5.63,5.63,0,0,1,2.21,1.91c1.64,2.87-1.72,5.85-3.83,8.4a12.66,12.66,0,0,0-2.51,5.09,18.21,18.21,0,0,0-10.9,13.16c-2.26,10.1,1.21,22.85,4.27,31.27-3.34,18.77,1,26.17,4.2,29a16,16,0,0,1,5.58,11l0,.35c.21,3.42.57,6.81,1.05,10.2h0c-.11-.79-.22-1.63-.28-2-2.62,4.85-7.6,17.22-10.41,38a114.27,114.27,0,0,1-2.54,13.25,72.69,72.69,0,0,0-2.13,23.69l.51,6.75a2,2,0,0,1-1.36-.45l3.52,6.45V432a40.16,40.16,0,0,1-2.67,14.34c-.25.67-.53,1.33-.82,2a11.67,11.67,0,0,0-1.18,5.9C415.37,465.81,398,530.84,398,530.84c-9.42,21.32.77,35.13.77,35.13s4.94,59.37,5.86,62.43,2.93,39.27,2.93,39.27h0c0,1,0,1.94,0,2.88a7.2,7.2,0,0,0-1.71-.5c-8.26-.46-10.5,12.58-10.5,12.58l-16.89,16.18s-7.72-1.3-19.06,7.21S366.76,722.28,366.76,722.28ZM535.4,379.2l0-.18-.46.27h0l-.19.11-.09,0h0L526.8,352a45.53,45.53,0,0,1-.58-22.6l6-26.36h0V296.7l19.13,51C552.62,354.53,541.26,371.18,535.4,379.2Z" transform="translate(-55.48 -53.98)" fill="url(#dc384eb3-1ab8-4ed8-85c9-3c05fb4364da)"/><path d="M543.77,462.1s-7.73,18.78-9.7,36.81c-.71,6.49-1.63,12.38-2.53,17.25a156.72,156.72,0,0,0-2.46,33.36l.14,4.69,2.58,12.42s6.06,39.84-10.6,69.23c0,0-9.85,17.57-10.15,25.91l-6.67,2.57-13.48-3.79s6.51-23.33,4.39-39.69l1.21-53.17s-8.78-13.33-9.09-37.42l-5.15-66Z" transform="translate(-55.48 -53.98)" fill="#fdc2cc"/><path d="M482.26,452.71s-1.66,25.75-14.39,43.47-15.44,25.45-15.44,25.45l-15.69,31.75a18.13,18.13,0,0,0-1.47,11.86l1.54,7.14s8.49,28.79-.15,51.06l-4.09,43H408.64s-2-35.75-2.88-38.78S400,566,400,566s-10-13.63-.76-34.69c0,0,20.91-78.78,26.51-77.41S482.26,452.71,482.26,452.71Z" transform="translate(-55.48 -53.98)" fill="#fdc2cc"/><g opacity="0.1"><path d="M434.39,572.38l-1.54-7.14a18.07,18.07,0,0,1,1.47-11.86L450,521.63s2.72-7.72,15.45-25.45c12.23-17,14.24-41.48,14.38-43.36l2.43-.11s-1.66,25.75-14.39,43.47-15.44,25.45-15.44,25.45l-15.69,31.75a18.13,18.13,0,0,0-1.47,11.86l1.54,7.14s8.49,28.79-.15,51.06l-4.09,43h-2.42l4.09-43C442.87,601.17,434.39,572.38,434.39,572.38Z" transform="translate(-55.48 -53.98)"/></g><path d="M508.62,661.77c.3-8.34,10.15-25.91,10.15-25.91,16.67-29.39,10.61-69.23,10.61-69.23l-2.58-12.42-.15-4.69a157.38,157.38,0,0,1,2.47-33.36c.89-4.87,1.82-10.76,2.53-17.25,1.89-17.36,9.12-35.41,9.66-36.73l2.46-.08s-7.73,18.78-9.7,36.81c-.71,6.49-1.63,12.38-2.53,17.25a156.72,156.72,0,0,0-2.46,33.36l.14,4.69,2.58,12.42s6.06,39.84-10.6,69.23c0,0-9.85,17.57-10.15,25.91l-6.67,2.57L503,664Z" transform="translate(-55.48 -53.98)" opacity="0.1"/><path d="M500.9,661.46A11.58,11.58,0,0,0,512,660.1a35.59,35.59,0,0,0-.9,20c2.72,10.9-25.46-8.79-25.46-8.79l6.07-13.75S493.93,661.92,500.9,661.46Z" transform="translate(-55.48 -53.98)" fill="#d39999"/><path d="M503,662.07a11.24,11.24,0,0,0,8.95-2,35.59,35.59,0,0,0-.9,20c2.72,10.9-25.46-8.79-25.46-8.79l6.07-13.75s1.75,3.35,6.88,3.87C500,661.58,501.52,661.79,503,662.07Z" transform="translate(-55.48 -53.98)" opacity="0.1"/><polygon points="381.49 352.61 393.26 352.61 393.26 285.81 384.43 284.22 381.49 352.61" fill="#fdc2cc"/><polygon points="381.49 352.61 393.26 352.61 393.26 285.81 384.43 284.22 381.49 352.61" opacity="0.05"/><path d="M494.23,666.61s7.42-.45,10.76,6.21l4.09,3.19,2-4.7a39.05,39.05,0,0,1,4.69,25.3s.61,4.24-5.6,6.21c0,0-3.18,1.52-2.43,7.27s-11.21,14.24-26.81,10.76c0,0-13.64.3-15.3-2.88s1.06-11.67,1.06-11.67,5.6-8.88,8.18-12.17c0,0,6.66-13.73,7.42-20.09S490.29,663.13,494.23,666.61Z" transform="translate(-55.48 -53.98)" fill="#7e5659"/><path d="M432.8,672.22l.12-9.41s-13.55,3.88-24.52-.51c0,0,.92,9.46-.6,10.75s5.08,13.48,5.08,13.48l7.37,7.73,12.67-4.62,3.44-10.83S433.71,672.22,432.8,672.22Z" transform="translate(-55.48 -53.98)" fill="#d39999"/><path d="M432.8,672.22l.12-9.41s-13.55,3.88-24.52-.51c0,0,.92,9.46-.6,10.75s5.08,13.48,5.08,13.48l7.37,7.73,12.67-4.62,3.44-10.83S433.71,672.22,432.8,672.22Z" transform="translate(-55.48 -53.98)" opacity="0.1"/><path d="M407,668.81s7.2.83,6.29,10,.38,0,.38,0,7.65,3.1,10.37,7.42,7.65-3.86,8-6.21,3.43-3.31,3.43-3.31,12,22.32,9.9,28.46-27.95,7.57-27.95,7.57-4.69-2.65-15.53,5.61-33.32,2-33.32,2-18.33-7.65-7.2-16,18.71-7.13,18.71-7.13l16.59-16S398.86,668.36,407,668.81Z" transform="translate(-55.48 -53.98)" fill="#7e5659"/><path d="M493,141.27c4.58,2.77,7.84,7.29,12.18,10.42,6.18,4.47,14.47,6.13,19.23,12.09,4,5.07,4.53,12.17,3.45,18.57s-3.51,12.5-4.69,18.88-.93,13.45,2.87,18.7a4.15,4.15,0,0,0,1.83,1.62,6,6,0,0,0,2.8,0c6.48-.78,12.69,3.85,15.6,9.7s3.14,12.64,2.84,19.16c-.25,5.35-.85,10.81-3.2,15.62-4,8.18-12.35,13.24-20.59,17.11a159.08,159.08,0,0,1-16.44,6.64c-3.84,1.31-7.91,2.48-11.91,1.79-6.85-1.18-11.7-7.4-18.2-9.85-5.33-2-11.24-1.28-16.91-.78-4.83.42-10.36.42-13.68-3.11-4.27-4.54-2.35-11.85-.17-17.68a12.6,12.6,0,0,1-8.9-20.58c2.07-2.52,5.36-5.46,3.75-8.3a5.58,5.58,0,0,0-2.16-1.89c-6.54-3.73-15.53-5.22-18.28-12.22-1.77-4.51-.05-9.6,2.18-13.89s5.05-8.47,5.62-13.27c.81-6.78-3-13.75-1.07-20.29a20.34,20.34,0,0,1,4.7-7.47,64.68,64.68,0,0,1,21.11-15.44c7.91-3.62,15.85-4.43,24.21-6.2C484.11,139.54,488.26,138.41,493,141.27Z" transform="translate(-55.48 -53.98)" fill="#865a61"/><path d="M448.73,242.23s-19.19-1-22.82,15.35,7.87,39.79,7.87,39.79Z" transform="translate(-55.48 -53.98)" fill="#fdc2cc"/><path d="M448.73,242.23s-19.19-1-22.82,15.35,7.87,39.79,7.87,39.79Z" transform="translate(-55.48 -53.98)" opacity="0.05"/><path d="M436.51,290.91l7.27,5.76,33.94,1.51,21.17-14.54,21.55-37c-13.18-3.36-18.5-12.45-20.48-21a45.92,45.92,0,0,1-.43-17.51s-34.54-17.88-30.3,10a37.23,37.23,0,0,1,.32,10.37c-2,16.34-17.87,13.27-17.87,13.27l-6.08,9.39-7,23Z" transform="translate(-55.48 -53.98)" fill="#fdc2cc"/><path d="M469.23,218.19a37.23,37.23,0,0,1,.32,10.37A30.63,30.63,0,0,0,500,225.71a45.92,45.92,0,0,1-.43-17.51S465,190.32,469.23,218.19Z" transform="translate(-55.48 -53.98)" opacity="0.1"/><circle cx="426.81" cy="145.53" r="30.6" fill="#fdc2cc"/><path d="M460.65,285.07c.73.05,1.47.12,2.2.19,4,.4,20.77,1.3,30.32-10.1,10.68-12.76,24.9-28.52,25.48-29.16a0,0,0,0,1,0,0l14.47,4.38s-11.45-4.08-19.08,17.22A22.11,22.11,0,0,0,521.54,293a23,23,0,0,0,9.46,4,.05.05,0,0,1,0,.05v9.35h0l-5.92,26a45.23,45.23,0,0,0,.56,22.32l9,31.9s0,0,0,.05c-1.36.94-57.37,39-94.78,12.73a0,0,0,0,1,0,0c.14-1.14,4.76-38.58,1.56-56.9a126.89,126.89,0,0,1-1.68-14.16c0-.12,0-.23,0-.35a16,16,0,0,0-5.48-10.83c-3.37-3-7.94-11-3.43-32.24a78.09,78.09,0,0,1,5-15.27l12.54-28.35a.05.05,0,0,1,.05,0l11.56.23a0,0,0,0,1,0,.07c-1,1.25-14.41,18-15.86,28.79C442.69,280.66,440.94,283.81,460.65,285.07Z" transform="translate(-55.48 -53.98)" fill="#d39999"/><path d="M542.86,255.36s11.31,9.7,15.75,31.71S573,345.65,573,345.65s4,16-9.7,31.71-22.82,28.08-22.82,28.08l-9,13.29a11.29,11.29,0,0,1-6.5,4.59c-4.12,1.09-10.43,1.87-15.91-1.13a9.27,9.27,0,0,1-4.05-11.7l1.95-4.65s-18.58,11.72-20.19,5.25,21.61-12.92,21.61-12.92,19.19-3.23,23-12.32c0,0,20.6-26.46,19-35.55L530.44,297s-24.76-3.28-16.27-31.23S542.86,255.36,542.86,255.36Z" transform="translate(-55.48 -53.98)" fill="#fdc2cc"/><path d="M423.89,456.54s45.45,9.09,56.15,7.88l1.15,3.84s17.26,3.86,56.25-2.33q3.82-.6,7.94-1.35l.91-.16s.54-2.89,1-7.82c.94-11.18,1.27-32.83-6.6-55l-6.57-20.2s-40.53,24.3-67.37,22.06c-2.39-.2-4.78-.39-7.17-.48-5.51-.2-14,0-19.58-4.44l-11.64,2V433.7a39.81,39.81,0,0,1-2.63,14.16c-.25.66-.51,1.31-.8,2C423.94,452,423.31,454.4,423.89,456.54Z" transform="translate(-55.48 -53.98)" fill="#7e5659"/><path d="M481.19,458v10.3s19.86,4.44,65.1-3.84c0,0,.54-2.89,1-7.82C533.36,458.83,495.08,464.19,481.19,458Z" transform="translate(-55.48 -53.98)" opacity="0.1"/><path d="M423.89,456.54s45.45,9.09,56.15,7.88l1.15,3.84V458c-5.17,2.14-42.13-6.76-55.51-10.1-.25.66-.51,1.31-.8,2C423.94,452,423.31,454.4,423.89,456.54Z" transform="translate(-55.48 -53.98)" opacity="0.1"/><path d="M534.07,445l3.37,20.9q3.82-.6,7.94-1.35c-1-6.11-3.35-20-2.72-22.38l-4.24-3.63Z" transform="translate(-55.48 -53.98)" fill="#7e5659"/><path d="M534.07,445l3.37,20.9q3.82-.6,7.94-1.35c-1-6.11-3.35-20-2.72-22.38l-4.24-3.63Z" transform="translate(-55.48 -53.98)" opacity="0.1"/><g opacity="0.05"><path d="M464.27,403.46c-2.39-.2-4.77-.39-7.17-.48-5.35-.19-13.53,0-19.1-4.1l1.95-.34c5.57,4.43,14.07,4.24,19.58,4.44,2.39.09,4.78.28,7.17.48.78.07,1.58.11,2.39.13A45.13,45.13,0,0,1,464.27,403.46Z" transform="translate(-55.48 -53.98)"/><path d="M535,465.93q3.83-.6,7.94-1.35l.91-.16s.53-2.89,1-7.82c.94-11.18,1.27-32.83-6.61-55l-6.18-19c1.32-.74,2-1.18,2-1.18l6.57,20.2c7.87,22.17,7.54,43.82,6.6,55-.41,4.93-1,7.82-1,7.82l-.91.16q-4.11.75-7.94,1.35c-18.21,2.89-31.68,3.59-40.87,3.51A256.12,256.12,0,0,0,535,465.93Z" transform="translate(-55.48 -53.98)"/><path d="M477.61,464.42l0,.11-1.31,0C476.81,464.49,477.23,464.46,477.61,464.42Z" transform="translate(-55.48 -53.98)"/></g><ellipse cx="484.25" cy="391.45" rx="1.71" ry="3.53" fill="#d39999"/><path d="M430.27,373.94c2.76-20.56,7.65-32.78,10.22-37.56.11.66.37,2.77.48,3.43.53,3,.07,6.79.23,10.61L438.63,397l3.44,14.54c3.23,11.51-8.74,2.42-8.74,2.42-2.48,5.46-7,4.85-7,4.85l-.62-8.34a72,72,0,0,1,2.09-23.4A113.57,113.57,0,0,0,430.27,373.94Z" transform="translate(-55.48 -53.98)" fill="#fdc2cc"/><path d="M430.27,373.94c2.76-20.56,7.65-32.78,10.22-37.56.11.66.37,2.77.48,3.43.53,3,.07,6.79.23,10.61L438.63,397l3.44,14.54c3.23,11.51-8.74,2.42-8.74,2.42-2.48,5.46-7,4.85-7,4.85l-.62-8.34a72,72,0,0,1,2.09-23.4A113.57,113.57,0,0,0,430.27,373.94Z" transform="translate(-55.48 -53.98)" opacity="0.05"/><path d="M545.38,399c-2.18,2.81-3.37,4.43-3.37,4.43l-9,13.29a11.27,11.27,0,0,1-6.49,4.59c-4.12,1.09-10.44,1.87-15.91-1.13a9.25,9.25,0,0,1-4.05-11.7l2-4.65s-18.58,11.72-20.2,5.26,21.61-12.93,21.61-12.93,19.19-3.23,23-12.32c0,0,1.68-2.16,4-5.45" transform="translate(-55.48 -53.98)" fill="#fdc2cc"/><path d="M534.07,421.3s-22-2.13-28.93-14.7L502,416.94s23,15.92,28.33,13.86Z" transform="translate(-55.48 -53.98)" fill="#7e5659"/><path d="M534.07,421.3s-22-2.13-28.93-14.7L502,416.94s23,15.92,28.33,13.86Z" transform="translate(-55.48 -53.98)" opacity="0.1"/><path d="M434.05,415.44s-7.69,2.72-9.2,1.21l3.46,6.36,6.53-5Z" transform="translate(-55.48 -53.98)" fill="#7e5659"/><path d="M434.05,415.44s-7.69,2.72-9.2,1.21l3.46,6.36,6.53-5Z" transform="translate(-55.48 -53.98)" opacity="0.1"/><polygon points="425.71 403.98 425.71 390.69 422.55 404.3 425.71 403.98" opacity="0.1"/><path d="M512.35,183.36c-1.85,2.6-5.07,3.93-8.24,4.34s-6.38.06-9.58,0c-5-.09-10.34.68-14.45,3.63-2.62,1.88-4.58,4.51-6.63,7-6.2,7.58-14.81,14.66-24.57,13.87a6.34,6.34,0,0,1-4.56-1.93,7.23,7.23,0,0,1-1.17-4.14,95.24,95.24,0,0,1,.59-18.72,39.23,39.23,0,0,1,2.84-11.16,37.74,37.74,0,0,1,6.79-9.71,41.6,41.6,0,0,1,11.87-9.51c4.57-2.27,9.92-3.25,14.84-1.91,5.84,1.59,10.4,6.16,16,8.52C502.43,166.35,519.34,173.5,512.35,183.36Z" transform="translate(-55.48 -53.98)" opacity="0.1"/><path d="M512.35,182.14c-1.85,2.61-5.07,3.93-8.24,4.35s-6.38.06-9.58,0c-5-.08-10.34.69-14.45,3.63-2.62,1.89-4.58,4.52-6.63,7-6.2,7.57-14.81,14.66-24.57,13.87a6.34,6.34,0,0,1-4.56-1.93,7.24,7.24,0,0,1-1.17-4.15,95.17,95.17,0,0,1,.59-18.71,39.23,39.23,0,0,1,2.84-11.16,37.74,37.74,0,0,1,6.79-9.71,41.6,41.6,0,0,1,11.87-9.51c4.57-2.27,9.92-3.25,14.84-1.91,5.84,1.59,10.4,6.16,16,8.52C502.43,165.13,519.34,172.29,512.35,182.14Z" transform="translate(-55.48 -53.98)" fill="#865a61"/><polygon points="384.47 344.56 384.39 348.22 383.57 344.72 384.47 344.56" fill="#fdc2cc"/><polygon points="384.47 344.56 384.39 348.22 383.57 344.72 384.47 344.56" opacity="0.05"/><g opacity="0.05"><path d="M517.29,263.82c-8.49,27.95,16.27,31.23,16.27,31.23l19.9,53.33c1.61,9.09-19,35.55-19,35.55-1.43,3.4-5,6-8.93,7.87a13.89,13.89,0,0,0,5.3-5.81s20.6-26.46,19-35.55l-19.89-53.33s-24.76-3.28-16.27-31.23c2.84-9.34,7-13.59,11.25-15.12C522,253.11,519.31,257.17,517.29,263.82Z" transform="translate(-55.48 -53.98)"/></g><g opacity="0.1"><path d="M517.7,289.22a21,21,0,0,0,4,3.8,22.89,22.89,0,0,0,9.46,4,0,0,0,0,1,0,0v1a22.83,22.83,0,0,1-8.59-3.81A21,21,0,0,1,517.7,289.22Z" transform="translate(-55.48 -53.98)"/><path d="M440.78,329.2c0,.12,0,.23,0,.35a124.85,124.85,0,0,0,1.68,14.16c3,17.29-.93,51.62-1.5,56.37-.32-.21-.64-.42-1-.64,0,0,0,0,0,0,.14-1.14,4.76-38.58,1.56-56.9a127.17,127.17,0,0,1-1.68-14.16c0-.12,0-.24,0-.35a15.47,15.47,0,0,0-2.69-7.67A15.69,15.69,0,0,1,440.78,329.2Z" transform="translate(-55.48 -53.98)"/><path d="M459.24,242.67l-9.81-.19a.05.05,0,0,0-.05,0l-12.54,28.35a77.87,77.87,0,0,0-5,15.27c-3.65,17.15-1.36,25.69,1.43,29.91-3.14-3.7-6.38-12.14-2.34-31.12a78.18,78.18,0,0,1,5-15.28l12.54-28.34a.05.05,0,0,1,0,0l11.56.22a0,0,0,0,1,0,.08C460,241.72,459.68,242.1,459.24,242.67Z" transform="translate(-55.48 -53.98)"/><path d="M533.15,250.36l.17,0Z" transform="translate(-55.48 -53.98)"/><path d="M529.55,250.21l-9.79-3h0c-.58.65-14.8,16.4-25.48,29.16-9.55,11.4-26.29,10.51-30.32,10.11-.73-.08-1.47-.14-2.2-.19-11-.7-15.28-2-16.72-4.77,2.06,2,6.58,3,15.81,3.56.73.05,1.47.11,2.2.18,4,.41,20.77,1.3,30.32-10.1,10.68-12.76,24.9-28.51,25.48-29.16h0l14.3,4.33A8.83,8.83,0,0,0,529.55,250.21Z" transform="translate(-55.48 -53.98)"/></g><path d="M413.18,683.39s-13.84,3.78-16.51-2.16" transform="translate(-55.48 -53.98)" opacity="0.1"/><path d="M501.05,680.55s-16.09,4.14-19.76-2.27" transform="translate(-55.48 -53.98)" opacity="0.1"/><path d="M705.2,609.9s-2-8-3.77-15.89c-.37-4.94-1.24-11.35-1.61-14v-.32a4.25,4.25,0,0,0-1.13-2.9c1-2.88,4.63-13.84,3.95-17-.78-3.64-3.58-12.52-6.9-15.45a8.89,8.89,0,0,0-4.37-3.45,11.52,11.52,0,0,0-9.72.78l-16.88,9.47c-6.77-1-12.26-1.77-12.26-1.77s-4.19-.5-9.43-1c-1.63-3.88-7-15.61-12.57-17.47-6-2-13,.71-14.53,1.34h0l-.08,0-.2.08h0c-11,5.09-9.72,26.64-9.3,31.35a78.17,78.17,0,0,1-6.62,7.37c-3.77,3.32-4.94,12-1.43,13.79,1.66.85,4,1.86,6.08,2.69-9.52,20.25-25.63,60.06-11.2,71.37,19.62,15.37,56.38,20.48,69,15.37a2,2,0,0,0,1-.07s20.45-4.87,25.23-10.32a35.37,35.37,0,0,0,7.15-15.4,29.92,29.92,0,0,0,9.6-16.79C707.72,619.1,705.2,609.9,705.2,609.9Zm-12.79-43.66.49-2.42.81.45c-.13.67-.27,1.36-.45,2.07L692.5,571Zm-3.85-20.14c.87.58,6.64,4.87,5.49,15.82a5.28,5.28,0,0,0-.32-1.24c-.25-1.57-1.38-3.7-5.28-5a85.26,85.26,0,0,0-10.2-2.27A33.79,33.79,0,0,1,688.56,546.1Zm-57.35,1.14c-4.42-.34-7.9-.48-8.38-.14h-.07a4,4,0,0,0-1.68.21,12.84,12.84,0,0,0-4.75,2.22c2-11.19,7.84-12.13,9.11-12.2A31,31,0,0,1,631.21,547.24ZM694.75,636c-.61-9.14-1.17-23.42-1.47-31.74l.51-.08a13.28,13.28,0,0,0,1.7-.34c.56,5.38,1.56,11.77,3.29,15.92C701,625.12,697.53,631.86,694.75,636Z" transform="translate(-55.48 -53.98)" fill="url(#fe70a47d-0b65-4156-9878-337bc12fa6de)"/><polygon points="635.52 507.28 624.12 503.74 611.83 508.17 610.95 515.89 617.02 519.82 626.65 519.5 635.14 515.51 636.59 508.17 635.52 507.28" fill="#cd939c"/><polygon points="635.52 507.28 624.12 503.74 611.83 508.17 610.95 515.89 617.02 519.82 626.65 519.5 635.14 515.51 636.59 508.17 635.52 507.28" opacity="0.2"/><path d="M607.59,565.06s-3.11-26.7,9.22-32.1c0,0,6.59.33,9.46,5.06,0,0-9-.5-9.73,18.24Z" transform="translate(-55.48 -53.98)" fill="#f6c6cd"/><path d="M607.59,565.06s-3.11-26.7,9.22-32.1c0,0,6.59.33,9.46,5.06,0,0-9-.5-9.73,18.24Z" transform="translate(-55.48 -53.98)" opacity="0.1"/><path d="M614.24,555.5s-9.5,12.67-13.18,16-4.81,11.91-1.39,13.68,10,4.31,10,4.31Z" transform="translate(-55.48 -53.98)" fill="#cd939c"/><path d="M614.24,555.5s-9.5,12.67-13.18,16-4.81,11.91-1.39,13.68,10,4.31,10,4.31Z" transform="translate(-55.48 -53.98)" opacity="0.05"/><path d="M643.68,550.18s-6.2-16.34-12.72-18.55-14.42,1.45-14.42,1.45,9.6-1,15.49,15.83Z" transform="translate(-55.48 -53.98)" fill="#f6c6cd"/><path d="M697.05,577.86s4.83-13.94,4.07-17.55-3.48-12.41-6.71-15.32-7.09,1.64-7.09,1.64,8.3,5,4.69,20.14l-1.08,6.72Z" transform="translate(-55.48 -53.98)" fill="#f6c6cd"/><path d="M697.05,577.86s4.83-13.94,4.07-17.55-3.48-12.41-6.71-15.32-7.09,1.64-7.09,1.64,8.3,5,4.69,20.14l-1.08,6.72Z" transform="translate(-55.48 -53.98)" opacity="0.1"/><path d="M661.8,553.16l18.9-10.81a11,11,0,0,1,9.46-.77,8.63,8.63,0,0,1,4.25,3.41s-9.12-.51-19.25,11.4Z" transform="translate(-55.48 -53.98)" fill="#f6c6cd"/><path d="M693.48,594.26s.51,17.22,3.89,25.5-6.76,19.93-6.76,19.93l1.86,10s8.7-5.57,11.15-18.07,0-21.61,0-21.61-7-28.08-6-31.08S693.48,594.26,693.48,594.26Z" transform="translate(-55.48 -53.98)" fill="#f6c6cd"/><path d="M693.48,594.26s.51,17.22,3.89,25.5-6.76,19.93-6.76,19.93l1.86,10s8.7-5.57,11.15-18.07,0-21.61,0-21.61-7-28.08-6-31.08S693.48,594.26,693.48,594.26Z" transform="translate(-55.48 -53.98)" opacity="0.1"/><path d="M691.12,564s1.52,8.78-16.38,4.9l-12,104.8s19.89-4.83,24.54-10.23,8.1-15.71,7-19.42-2.49-46.27-2.49-46.27Z" transform="translate(-55.48 -53.98)" fill="#cd939c"/><path d="M611.41,575.89s-35.81,67.43-16.72,82.67,54.84,20.31,67.11,15.24c0,0,5.68,1.52,4.83-16.21s6.59-67.22,6.59-67.22Z" transform="translate(-55.48 -53.98)" fill="#cd939c"/><path d="M612.6,578.9S579,642.27,596.88,656.59s51.55,19.08,63.07,14.32c0,0,5.34,1.43,4.54-15.24s6.19-63.16,6.19-63.16Z" transform="translate(-55.48 -53.98)" fill="#f6c6cd"/><path d="M690.36,605c-1.38,1-9.25-1.4-9.25-1.4-8.51-.59-5.48-15.25-3.94-21.08.39-1.45.68-2.35.68-2.35,4,5.07,11.12,2.91,11.12,2.91s.21,1.63.49,4C690.19,593.24,691.35,604.31,690.36,605Z" transform="translate(-55.48 -53.98)" opacity="0.1"/><path d="M690.61,604.52c-1.37,1-9.24-1.39-9.24-1.39-8.52-.6-5.49-15.26-3.94-21.08.38-1.45.67-2.36.67-2.36,4,5.08,11.12,2.92,11.12,2.92s.21,1.63.5,4C690.44,592.73,691.6,603.8,690.61,604.52Z" transform="translate(-55.48 -53.98)" fill="#f6c6cd"/><path d="M690.61,604.88c-1.37,1-9.24-1.39-9.24-1.39-8.52-.6-5.49-15.25-3.94-21.08.38-1.45.67-2.35.67-2.35,4,5.07,11.12,2.91,11.12,2.91s.21,1.63.5,4C690.44,593.1,691.6,604.16,690.61,604.88Z" transform="translate(-55.48 -53.98)" opacity="0.05"/><path d="M689.72,586.61c-3.88-.49-9.83-3.32-12.29-4.56.38-1.45.67-2.36.67-2.36,4,5.08,11.12,2.92,11.12,2.92S689.43,584.24,689.72,586.61Z" transform="translate(-55.48 -53.98)" opacity="0.1"/><path d="M685.93,582s-9.67,25.2,6.58,22.29c0,0,7.64-.8,7.6-6.59s-1.9-18.53-1.9-18.53Z" transform="translate(-55.48 -53.98)" fill="#f6c6cd"/><path d="M678.71,575.71s-4.92,20.41,10.83,12.84,5.67-12.84,5.67-12.84l-7.52-4.91Z" transform="translate(-55.48 -53.98)" opacity="0.1"/><path d="M678.71,575.46s-4.92,20.4,10.83,12.83,5.67-12.83,5.67-12.83l-7.52-4.91Z" transform="translate(-55.48 -53.98)" fill="#cd939c"/><path d="M681.72,572.61s-4.51,1.2-2.2,5.66a12.85,12.85,0,0,1,1.45,6.55,3,3,0,0,0,2.47,3.18c1.62.29,3.93-.11,6.85-2.66,0,0,5.82-2.17,5.37-5s-10-9.19-10-9.19Z" transform="translate(-55.48 -53.98)" opacity="0.1"/><path d="M681.72,572.35s-4.51,1.21-2.2,5.67a12.85,12.85,0,0,1,1.45,6.55,3,3,0,0,0,2.47,3.18c1.62.28,3.93-.12,6.85-2.66,0,0,5.82-2.18,5.37-5s-10-9.19-10-9.19Z" transform="translate(-55.48 -53.98)" fill="#f6c6cd"/><circle cx="632.31" cy="525.63" r="2.97" opacity="0.1"/><circle cx="632.31" cy="525.38" r="2.97" fill="#cd939c"/><path d="M651.49,550.84s-28.27-3.5-29.71-2.42c0,0-15,2.56-15,30.55,0,0-.31,16.08,30.62,23.82,0,0,24.82,2.18,32.92-7.66s4.08-26.39,4.08-26.39,3.23-12.65,18.23-3.9c0,0,1.57-5-5.2-7.4S651.49,550.84,651.49,550.84Z" transform="translate(-55.48 -53.98)" opacity="0.1"/><path d="M651.49,550.34s-28.27-3.5-29.71-2.43c0,0-15,2.56-15,30.55,0,0-.31,16.09,30.62,23.83,0,0,24.82,2.18,32.92-7.66s4.08-26.39,4.08-26.39,3.23-12.65,18.23-3.91c0,0,1.57-5-5.2-7.4S651.49,550.34,651.49,550.34Z" transform="translate(-55.48 -53.98)" fill="#cd939c"/><path d="M652.36,550.43s-27.48-3.29-28.88-2.28c0,0-14.56,2.41-14.56,28.76,0,0-.3,15.13,29.76,22.42,0,0,24.13,2,32-7.21s4-24.84,4-24.84,3.14-11.91,17.72-3.67c0,0,1.54-4.69-5-7S652.36,550.43,652.36,550.43Z" transform="translate(-55.48 -53.98)" opacity="0.1"/><path d="M652.36,550.18s-27.48-3.29-28.88-2.28c0,0-14.56,2.41-14.56,28.75,0,0-.3,15.14,29.76,22.42,0,0,24.13,2,32-7.21s4-24.83,4-24.83,3.14-11.91,17.72-3.68c0,0,1.54-4.68-5-7S652.36,550.18,652.36,550.18Z" transform="translate(-55.48 -53.98)" fill="#f6c6cd"/><path d="M638.55,593.49s-7.47-3.41-7.85,3c0,0-2.53,6.46-2.66,7.22s.38,7.34,6.21,7.09A9,9,0,0,0,642.1,606s1.27-7.08,3-8.6-1.27-3-2.41-3A24.47,24.47,0,0,1,638.55,593.49Z" transform="translate(-55.48 -53.98)" fill="#cd939c"/><path d="M637.54,592.48s-7.47-3.41-7.85,3c0,0-2.53,6.46-2.66,7.22s.38,7.34,6.21,7.09a9,9,0,0,0,7.85-4.82s1.26-7.09,3-8.61-1.27-3-2.41-3A24.71,24.71,0,0,1,637.54,592.48Z" transform="translate(-55.48 -53.98)" opacity="0.1"/><path d="M637.79,592.23s-7.47-3.42-7.85,3c0,0-2.53,6.46-2.66,7.22s.38,7.35,6.21,7.1a9,9,0,0,0,7.85-4.83s1.27-7.08,3-8.6-1.27-3-2.41-3A24.71,24.71,0,0,1,637.79,592.23Z" transform="translate(-55.48 -53.98)" fill="#f6c6cd"/><circle cx="578.58" cy="550.81" r="2.71" opacity="0.1"/><circle cx="578.58" cy="550.56" r="2.71" fill="#cd939c"/><path d="M659.39,619.34s-29.45-3.43-50-14c0,0-16.21,40.86-3.29,46.58s39.77,14.87,47.3,11.71c0,0,4.5.74,3-14.13S659.39,619.34,659.39,619.34Z" transform="translate(-55.48 -53.98)" fill="#cd939c"/><path d="M657.62,622.25s-29.45-3.23-50-13.17c0,0-16.22,38.44-3.3,43.82s39.77,14,47.31,11c0,0,4.5.7,3-13.3S657.62,622.25,657.62,622.25Z" transform="translate(-55.48 -53.98)" opacity="0.1"/><path d="M658.12,622s-29.44-3.23-50-13.17c0,0-16.21,38.44-3.29,43.82s39.77,14,47.31,11c0,0,4.49.7,3-13.3S658.12,622,658.12,622Z" transform="translate(-55.48 -53.98)" fill="#f6c6cd"/><g opacity="0.1"><path d="M687.32,556.18c-6.59-2.28-35-6.2-35-6.2s-27.48-3.3-28.88-2.28c0,0-7.1,1.17-11.38,10.85,4.31-8.69,10.88-9.78,10.88-9.78,1.39-1,28.88,2.28,28.88,2.28s28.37,3.93,35,6.21c4.42,1.53,5.18,4.14,5.2,5.7l.35.19S693.91,558.46,687.32,556.18Z" transform="translate(-55.48 -53.98)"/><path d="M674.9,566.11a8.67,8.67,0,0,0-.75,1.79S676.94,579,673,588.08c4.63-9.2,1.61-21.26,1.61-21.26S674.73,566.55,674.9,566.11Z" transform="translate(-55.48 -53.98)"/></g></svg>