<svg id="e9132ac9-0ebd-419d-9811-844b4d88d8cc" data-name="Layer 1" xmlns="http://www.w3.org/2000/svg" xmlns:xlink="http://www.w3.org/1999/xlink" width="1144" height="742.88" viewBox="0 0 1144 742.88"><defs><linearGradient id="b150bed3-50d4-4a2d-b475-394527b87b3c" x1="495.92" y1="801.36" x2="495.92" y2="420.45" gradientUnits="userSpaceOnUse"><stop offset="0" stop-color="gray" stop-opacity="0.25"/><stop offset="0.54" stop-color="gray" stop-opacity="0.12"/><stop offset="1" stop-color="gray" stop-opacity="0.1"/></linearGradient><linearGradient id="eba2aeb6-e081-474a-b312-4768ced23b8d" x1="591.52" y1="620.32" x2="744.51" y2="620.32" xlink:href="#b150bed3-50d4-4a2d-b475-394527b87b3c"/></defs><title>fireworks</title><path d="M1170.92,594.43a244,244,0,0,1-8.87,40.62A229.22,229.22,0,0,1,1147,672c0,82.52-66.1,149.4-147.65,149.4H246.25A186.29,186.29,0,0,1,116,768.36l1-.25c69.46-18.42,142.75-24.77,203-68.53q-123.08-20.42-244.78-50.7c-5-1.26-10.68-3.16-16.51-5.13-.27-4.16-.42-8.35-.42-12.57-.37-.67-.73-1.35-1.09-2q-2.38-4.41-4.58-9c-14.93-31-23.46-66.91-23.46-105.23,0-60.44,21.23-115,55.25-153.5C313.2,380.39,543.44,372.36,773,364.29L571.63,324.23,243.29,258.89C313.14,160.21,436.41,94.67,576.83,94.67c98.82,0,189.14,32.46,258.34,86.08,25.44-16.91,54.73-26.56,85.9-26.56,64.9,0,121.63,41.73,152.44,104,0,0,0,0,0,.05,15.58,31.5,24.52,68.23,24.52,107.47,0,7-.29,14-.86,20.9,0,.41-.06.81-.1,1.22,21.4,17.81,39.35,41.11,52.41,68.2.16.32.32.66.47,1q3.43,7.15,6.38,14.66l-.19,0q-12.6,2.79-25.17,5.68Q995.5,508.67,862.52,553.22q-38.12,12.76-76,26.62c-21.32,7.79-48.74,25.47-70.84,26.94,151.1-10.13,303.41,4.64,453.81-12.19Z" transform="translate(-28 -78.56)" fill="#6c63ff" opacity="0.1"/><path d="M1172,559.22c0-71.94-30.06-135.47-76-173.67q.95-10.91,1-22.12C1097,246.64,1017.73,152,920,152c-31.18,0-60.47,9.65-85.91,26.56C764.89,124.9,674.56,92.44,575.74,92.44c-160.79,0-299.1,85.93-360.46,209.16-3.41-.24-6.84-.37-10.3-.37-97.74,0-177,94.68-177,211.48,0,42.93,10.72,82.88,29.12,116.23h0c0,105.08,84.19,190.27,188,190.27H998.24c81.54,0,147.64-66.89,147.64-149.39h0C1162.44,637.64,1172,599.76,1172,559.22Z" transform="translate(-28 -78.56)" fill="#6c63ff" opacity="0.1"/><path d="M849,804.29c0,5.14-5.1,10.09-14.49,14.69-1.68.83-3.51,1.65-5.46,2.46H329c-1.95-.81-3.78-1.63-5.46-2.46-9.39-4.6-14.49-9.55-14.49-14.69,0-25.06,120.88-45.37,270-45.37S849,779.23,849,804.29Z" transform="translate(-28 -78.56)" fill="#6c63ff" opacity="0.1"/><ellipse cx="361.76" cy="717.68" rx="29.24" ry="5.62" fill="#6c63ff"/><ellipse cx="361.27" cy="715.29" rx="3.4" ry="4.46" fill="#3f3d56"/><ellipse cx="361.27" cy="709.84" rx="3.4" ry="4.46" fill="#3f3d56"/><ellipse cx="361.27" cy="704.39" rx="3.4" ry="4.46" fill="#3f3d56"/><ellipse cx="361.27" cy="698.95" rx="3.4" ry="4.46" fill="#3f3d56"/><ellipse cx="361.27" cy="693.5" rx="3.4" ry="4.46" fill="#3f3d56"/><ellipse cx="361.27" cy="688.05" rx="3.4" ry="4.46" fill="#3f3d56"/><ellipse cx="361.27" cy="682.61" rx="3.4" ry="4.46" fill="#3f3d56"/><path d="M402,723.89a15.65,15.65,0,0,0,1.27-1.86l-8.94-1.47,9.67.07a16.35,16.35,0,0,0,.31-12.92l-13,6.73,12-8.8a16.31,16.31,0,1,0-26.93,18.25,16.35,16.35,0,0,0-1.86,3l11.61,6-12.38-4.16a16.33,16.33,0,0,0,2.63,15.32,16.31,16.31,0,1,0,25.63,0,16.32,16.32,0,0,0,0-20.17Z" transform="translate(-28 -78.56)" fill="#6c63ff"/><path d="M372.89,734a16.24,16.24,0,0,0,3.49,10.09,16.31,16.31,0,1,0,25.63,0C404.2,741.28,372.89,732.14,372.89,734Z" transform="translate(-28 -78.56)" opacity="0.1"/><g opacity="0.8"><path d="M708.62,253.18c-2.43-3.31-7.45.27-5.18,3.69.59.89,1.24,1.76,1.86,2.58,7.47,10.09,11.34,22.34,14.67,34.44.82,3,1.61,6.15.68,9.09,1.34-7.87.47-16-1.55-23.71s-5.15-15.1-8.39-22.39A19.93,19.93,0,0,0,708.62,253.18Z" transform="translate(-28 -78.56)" fill="#6c63ff" opacity="0.5"/><path d="M660.14,274.39c-5-.16-5.68,7.49-.66,7.89,1.32.1,2.64.13,3.91.17,15.43.42,30,6,44.05,12,3.44,1.47,7,3.13,9.07,6.29-6.32-7.33-14.65-12.7-23.5-16.65s-18.29-6.53-27.72-8.95A23.55,23.55,0,0,0,660.14,274.39Z" transform="translate(-28 -78.56)" fill="#6c63ff"/><path d="M661.53,293.18c-3.18.12-2.46,4.64.74,4.67.84,0,1.68,0,2.48-.07,9.73-.39,19.7,2.29,29.37,5.25,2.38.72,4.88,1.55,6.61,3.32a52.91,52.91,0,0,0-17.17-8.81,131.8,131.8,0,0,0-18.68-4.11A17.07,17.07,0,0,0,661.53,293.18Z" transform="translate(-28 -78.56)" fill="#6c63ff" opacity="0.2"/><path d="M726.67,377.27c.9,3.05,5.1,1.24,4.33-1.88-.2-.81-.44-1.61-.67-2.38-2.8-9.33-2.67-19.65-2.21-29.76.12-2.47.29-5.11,1.58-7.22a52.94,52.94,0,0,0-4.27,18.82,131,131,0,0,0,.65,19.12A16.93,16.93,0,0,0,726.67,377.27Z" transform="translate(-28 -78.56)" fill="#6c63ff" opacity="0.5"/><path d="M667.33,248.93c-1.91-.33-2.06,2.46-.15,2.88.5.12,1,.2,1.49.28,5.86,1,11.47,3.87,16.87,6.87a9.16,9.16,0,0,1,3.53,2.82,32.21,32.21,0,0,0-9.14-7.44,79.22,79.22,0,0,0-10.63-4.83A10.36,10.36,0,0,0,667.33,248.93Z" transform="translate(-28 -78.56)" fill="#6c63ff" opacity="0.2"/><path d="M637.75,322.9c-4.86,2.5-.75,9.37,4.24,7.09,1.31-.6,2.58-1.27,3.8-1.9,14.86-7.7,32.11-10.54,49.09-12.72,4.16-.54,8.6-1,12.46.64-10.51-3-21.69-3.21-32.5-1.95s-21.32,4-31.73,6.82A28.22,28.22,0,0,0,637.75,322.9Z" transform="translate(-28 -78.56)" fill="#6c63ff"/><path d="M651.64,349.63c-3.5,3.26,2,7.11,5.62,4,1-.82,1.87-1.68,2.75-2.5,10.64-10,24.71-17.11,38.72-23.66,3.44-1.61,17.59-3.26,21.37-3.17-9.87.89-30,4-39,8a216.31,216.31,0,0,0-25.42,14.27A26.94,26.94,0,0,0,651.64,349.63Z" transform="translate(-28 -78.56)" fill="#6c63ff" opacity="0.5"/><path d="M676.56,392.31c-1,4.66,5.65,4.73,6.89.07.32-1.22.58-2.45.83-3.62,3.08-14.27,10.61-28.12,18.41-41.48,1.92-3.28,12.63-12.67,15.79-14.75-7.62,6.34-22.45,20.34-27.51,28.78a216.23,216.23,0,0,0-12.81,26.19A26.88,26.88,0,0,0,676.56,392.31Z" transform="translate(-28 -78.56)" fill="#6c63ff"/><path d="M726.72,228.48c-2.38-4.86-9.18-.87-7,4.11.57,1.3,1.2,2.58,1.81,3.79,7.32,14.82,9.84,32,11.73,48.82.46,4.13.85,8.54-.83,12.34,3.07-10.38,3.48-21.46,2.42-32.19s-3.57-21.18-6.21-31.54A27.76,27.76,0,0,0,726.72,228.48Z" transform="translate(-28 -78.56)" fill="#6c63ff"/><path d="M688.82,236.73a.78.78,0,0,0,.41.12c.26,0,.45-.26.56-.5.59-1.29.25-3,1.17-4.06a14,14,0,0,1,2.22,3.73l3.49-1.09a5.23,5.23,0,0,1-.66,4,5.28,5.28,0,0,1,1.64,1.11,1.81,1.81,0,0,1,.43,1.85,8.87,8.87,0,0,1-2.46.25,16,16,0,0,1-.27,4.58.85.85,0,0,1-.3.59c-.25.16-.59,0-.85-.14a8.16,8.16,0,0,1-2.87-3.05l-1.3,3.1a1.37,1.37,0,0,1-.58.78,1,1,0,0,1-1.09-.38,2.79,2.79,0,0,1-.38-1.17l-.49-3a.65.65,0,0,0-.16-.41.7.7,0,0,0-.51-.15c-1.24,0-2.47-.05-3.7,0-.21-.65.44-1.26,1.07-1.54s1.38-.48,1.7-1.09c.64-1.25-1-3-.32-4.06C686.4,235,687.74,236.2,688.82,236.73Z" transform="translate(-28 -78.56)" fill="#6c63ff"/><path d="M756.21,253.18c2.43-3.31,7.44.27,5.18,3.69-.6.89-1.24,1.76-1.86,2.58-7.47,10.09-11.34,22.34-14.68,34.44-.82,3-1.61,6.15-.67,9.09-1.34-7.87-.47-16,1.55-23.71a146.49,146.49,0,0,1,8.38-22.39A20.57,20.57,0,0,1,756.21,253.18Z" transform="translate(-28 -78.56)" fill="#6c63ff" opacity="0.5"/><path d="M804.68,274.39c5-.16,5.68,7.49.66,7.89-1.31.1-2.64.13-3.9.17-15.44.42-30,6-44.05,12-3.44,1.47-7.06,3.13-9.07,6.29,6.32-7.33,14.64-12.7,23.5-16.65s18.28-6.53,27.72-8.95A23.55,23.55,0,0,1,804.68,274.39Z" transform="translate(-28 -78.56)" fill="#6c63ff"/><path d="M803.29,293.18c3.19.12,2.47,4.64-.73,4.67-.84,0-1.68,0-2.48-.07-9.74-.39-19.7,2.29-29.37,5.25-2.38.72-4.89,1.55-6.61,3.32a52.91,52.91,0,0,1,17.17-8.81A131.8,131.8,0,0,1,800,293.43,17,17,0,0,1,803.29,293.18Z" transform="translate(-28 -78.56)" fill="#6c63ff" opacity="0.5"/><path d="M797.5,248.93c1.91-.33,2.06,2.46.15,2.88-.5.12-1,.2-1.49.28-5.86,1-11.48,3.87-16.88,6.87a9.13,9.13,0,0,0-3.52,2.82,32.17,32.17,0,0,1,9.13-7.44,79.92,79.92,0,0,1,10.64-4.83A10.36,10.36,0,0,1,797.5,248.93Z" transform="translate(-28 -78.56)" fill="#6c63ff" opacity="0.2"/><path d="M747.61,383.06c-.43,1.89-3.06.95-2.71-1,.09-.51.21-1,.32-1.48,1.33-5.8.85-12.08.17-18.22a9.2,9.2,0,0,0-1.25-4.34,32.37,32.37,0,0,1,3.35,11.3,79.94,79.94,0,0,1,.35,11.67A10,10,0,0,1,747.61,383.06Z" transform="translate(-28 -78.56)" fill="#6c63ff" opacity="0.2"/><path d="M796.27,370.45c1.5,2.53-2.18,2.36-3.8-.18-.42-.66-.81-1.33-1.18-2-4.56-7.76-11.49-15.43-18.48-22.83a25.43,25.43,0,0,0-5.73-5,90.57,90.57,0,0,1,15,12.84c4.48,4.69,8.44,9.57,12.32,14.45A23.68,23.68,0,0,1,796.27,370.45Z" transform="translate(-28 -78.56)" fill="#6c63ff" opacity="0.5"/><path d="M663.14,370.45c-1.5,2.53,2.18,2.36,3.79-.18.43-.66.82-1.33,1.19-2,4.56-7.76,11.49-15.43,18.48-22.83a25.21,25.21,0,0,1,5.73-5,90.16,90.16,0,0,0-15,12.84c-4.48,4.69-8.45,9.57-12.32,14.45A23.68,23.68,0,0,0,663.14,370.45Z" transform="translate(-28 -78.56)" fill="#6c63ff" opacity="0.2"/><path d="M711.83,383.06c.43,1.89,3.06.95,2.71-1-.09-.51-.21-1-.32-1.48-1.33-5.8-.85-12.08-.17-18.22a9.2,9.2,0,0,1,1.25-4.34,32.37,32.37,0,0,0-3.35,11.3A79.94,79.94,0,0,0,711.6,381,10,10,0,0,0,711.83,383.06Z" transform="translate(-28 -78.56)" fill="#6c63ff" opacity="0.2"/><path d="M782.16,268c1.91-.34,2.06,2.46.15,2.88-.5.11-1,.19-1.49.28-5.86,1-11.47,3.87-16.88,6.86a9.32,9.32,0,0,0-3.52,2.83,32.42,32.42,0,0,1,9.14-7.45,80.5,80.5,0,0,1,10.63-4.83A10.33,10.33,0,0,1,782.16,268Z" transform="translate(-28 -78.56)" fill="#6c63ff" opacity="0.2"/><path d="M764.27,230.59c1.65-1,2.83,1.51,1.21,2.61-.42.29-.86.56-1.27.81-5.07,3.12-9.2,7.88-13.09,12.68a9.07,9.07,0,0,0-2.21,3.94,32.3,32.3,0,0,1,5.69-10.32,79.66,79.66,0,0,1,8.06-8.46A9.83,9.83,0,0,1,764.27,230.59Z" transform="translate(-28 -78.56)" fill="#6c63ff" opacity="0.2"/><path d="M827.08,322.9c4.86,2.5.75,9.37-4.24,7.09-1.31-.6-2.59-1.27-3.8-1.9-14.86-7.7-32.12-10.54-49.09-12.72-4.16-.54-8.6-1-12.46.64,10.5-3,21.69-3.21,32.5-1.95s21.32,4,31.73,6.82A28.48,28.48,0,0,1,827.08,322.9Z" transform="translate(-28 -78.56)" fill="#6c63ff"/><path d="M813.19,349.63c3.49,3.26-2,7.11-5.63,4-.95-.82-1.87-1.68-2.74-2.5-10.65-10-24.72-17.11-38.72-23.66-3.44-1.61-17.6-3.26-21.37-3.17,9.87.89,30,4,39,8a216.44,216.44,0,0,1,25.43,14.27A26.94,26.94,0,0,1,813.19,349.63Z" transform="translate(-28 -78.56)" fill="#6c63ff" opacity="0.5"/><path d="M772,397.63c.43,4.76-6.21,4-6.85-.79-.17-1.25-.27-2.5-.37-3.69-1.27-14.55-7-29.24-13.07-43.46-1.49-3.49-10.94-14.16-13.82-16.61,6.77,7.24,19.73,23,23.69,32A215.87,215.87,0,0,1,771,392.66,27.51,27.51,0,0,1,772,397.63Z" transform="translate(-28 -78.56)" fill="#6c63ff"/><path d="M776,236.73a.78.78,0,0,1-.41.12c-.27,0-.45-.26-.56-.5-.6-1.29-.25-3-1.17-4.06a14,14,0,0,0-2.22,3.73l-3.49-1.09a5.19,5.19,0,0,0,.66,4,5.33,5.33,0,0,0-1.65,1.11,1.83,1.83,0,0,0-.42,1.85,8.83,8.83,0,0,0,2.46.25,16.36,16.36,0,0,0,.26,4.58.89.89,0,0,0,.3.59.86.86,0,0,0,.86-.14,8.16,8.16,0,0,0,2.87-3.05l1.3,3.1a1.33,1.33,0,0,0,.58.78.93.93,0,0,0,1.08-.38,2.66,2.66,0,0,0,.39-1.17l.48-3a.72.72,0,0,1,.17-.41.7.7,0,0,1,.51-.15c1.23,0,2.47-.05,3.7,0,.21-.65-.45-1.26-1.08-1.54s-1.37-.48-1.69-1.09c-.64-1.25,1-3,.31-4.06C778.43,235,777.09,236.2,776,236.73Z" transform="translate(-28 -78.56)" fill="#6c63ff"/><path d="M786.54,380.51a.9.9,0,0,1-.41.13c-.27,0-.45-.27-.56-.51-.59-1.29-.25-3-1.17-4.06a14,14,0,0,0-2.22,3.73l-3.49-1.08a5.21,5.21,0,0,0,.66,4,5.46,5.46,0,0,0-1.64,1.11,1.81,1.81,0,0,0-.43,1.85,8.87,8.87,0,0,0,2.46.25,16,16,0,0,0,.27,4.58.83.83,0,0,0,.3.59c.25.16.59,0,.85-.14a8.16,8.16,0,0,0,2.87-3l1.3,3.1a1.37,1.37,0,0,0,.58.78.94.94,0,0,0,1.09-.38,2.74,2.74,0,0,0,.38-1.17l.49-3a.65.65,0,0,1,.16-.41.7.7,0,0,1,.51-.15c1.23,0,2.47-.05,3.7,0,.21-.65-.44-1.26-1.07-1.54s-1.38-.48-1.7-1.09c-.64-1.25,1-3,.32-4.06C789,378.74,787.62,380,786.54,380.51Z" transform="translate(-28 -78.56)" fill="#6c63ff" opacity="0.2"/><path d="M816.13,284.13a.8.8,0,0,1-.42.13c-.26,0-.44-.27-.55-.51-.6-1.29-.26-3-1.17-4.05a13.75,13.75,0,0,0-2.22,3.72l-3.49-1.08a5.17,5.17,0,0,0,.66,4,5.24,5.24,0,0,0-1.65,1.12,1.83,1.83,0,0,0-.43,1.84,8.94,8.94,0,0,0,2.47.25,16.45,16.45,0,0,0,.26,4.59.87.87,0,0,0,.3.58.84.84,0,0,0,.85-.14,8,8,0,0,0,2.88-3.05l1.29,3.1a1.37,1.37,0,0,0,.58.78.93.93,0,0,0,1.09-.38,2.62,2.62,0,0,0,.39-1.17l.48-2.95a.86.86,0,0,1,.16-.42.78.78,0,0,1,.52-.15c1.23,0,2.46,0,3.69,0,.22-.65-.44-1.26-1.07-1.54s-1.38-.48-1.69-1.09c-.64-1.25,1-3,.31-4.06C818.55,282.36,817.2,283.6,816.13,284.13Z" transform="translate(-28 -78.56)" fill="#6c63ff"/><path d="M697.84,394.93a1.08,1.08,0,0,1-.57.17c-.37,0-.63-.37-.78-.7-.83-1.8-.35-4.13-1.63-5.65a19.34,19.34,0,0,0-3.09,5.19l-4.87-1.51a7.27,7.27,0,0,0,.92,5.57,7.74,7.74,0,0,0-2.29,1.56,2.57,2.57,0,0,0-.6,2.58,12.49,12.49,0,0,0,3.44.34,22.48,22.48,0,0,0,.37,6.39.9.9,0,0,0,1.6.62,11.19,11.19,0,0,0,4-4.25l1.81,4.32a1.92,1.92,0,0,0,.81,1.09,1.32,1.32,0,0,0,1.52-.53,3.82,3.82,0,0,0,.53-1.64l.68-4.11a1,1,0,0,1,.22-.58,1.06,1.06,0,0,1,.72-.21c1.72-.05,3.44-.06,5.15-.05.3-.91-.62-1.76-1.49-2.15s-1.92-.67-2.36-1.52c-.9-1.74,1.42-4.16.43-5.66C701.21,392.46,699.34,394.19,697.84,394.93Z" transform="translate(-28 -78.56)" fill="#6c63ff"/><path d="M648.63,287a1.22,1.22,0,0,1-.58.17c-.36,0-.62-.37-.78-.7-.82-1.8-.35-4.14-1.62-5.65a19.47,19.47,0,0,0-3.1,5.18l-4.86-1.5a7.19,7.19,0,0,0,.92,5.57,7.27,7.27,0,0,0-2.29,1.56,2.53,2.53,0,0,0-.6,2.57,12.42,12.42,0,0,0,3.44.35,22.84,22.84,0,0,0,.36,6.39,1.17,1.17,0,0,0,.42.81c.36.23.82,0,1.19-.2a11.31,11.31,0,0,0,4-4.24l1.81,4.32a1.9,1.9,0,0,0,.8,1.08,1.3,1.3,0,0,0,1.52-.52,3.88,3.88,0,0,0,.54-1.64l.67-4.11a1.1,1.1,0,0,1,.23-.59,1,1,0,0,1,.72-.2c1.71-.05,3.43-.07,5.15-.05.29-.92-.62-1.76-1.5-2.15s-1.92-.67-2.36-1.52c-.89-1.74,1.42-4.16.44-5.66C652,284.53,650.13,286.27,648.63,287Z" transform="translate(-28 -78.56)" fill="#6c63ff"/><path d="M798,353.84a.67.67,0,0,1-.3.1.59.59,0,0,1-.42-.38c-.44-1-.18-2.2-.86-3a10.23,10.23,0,0,0-1.64,2.75l-2.59-.8a3.84,3.84,0,0,0,.49,3,3.91,3.91,0,0,0-1.22.82,1.37,1.37,0,0,0-.31,1.37,6.19,6.19,0,0,0,1.82.18,11.76,11.76,0,0,0,.2,3.4.62.62,0,0,0,.22.43c.19.12.44,0,.63-.1a6,6,0,0,0,2.12-2.26l1,2.3a1,1,0,0,0,.43.57.7.7,0,0,0,.81-.28,2,2,0,0,0,.28-.87l.36-2.18a.56.56,0,0,1,.12-.31.52.52,0,0,1,.38-.11c.92,0,1.83,0,2.74,0,.16-.48-.33-.93-.79-1.14s-1-.36-1.26-.81c-.47-.92.76-2.21.23-3S798.76,353.45,798,353.84Z" transform="translate(-28 -78.56)" fill="#6c63ff" opacity="0.2"/><path d="M731.11,392.44a.59.59,0,0,1-.31.09c-.19,0-.33-.19-.41-.37-.44-1-.19-2.2-.86-3a10.26,10.26,0,0,0-1.65,2.75l-2.58-.8a3.8,3.8,0,0,0,.49,3,4.12,4.12,0,0,0-1.22.83,1.35,1.35,0,0,0-.32,1.37,6.62,6.62,0,0,0,1.83.18,12.14,12.14,0,0,0,.19,3.4.67.67,0,0,0,.22.43c.19.12.44,0,.63-.11a5.9,5.9,0,0,0,2.13-2.25l1,2.29a1.07,1.07,0,0,0,.43.58.7.7,0,0,0,.81-.28,2,2,0,0,0,.28-.87l.36-2.19a.51.51,0,0,1,.12-.3.52.52,0,0,1,.38-.11c.91,0,1.82,0,2.74,0,.15-.49-.33-.94-.8-1.14s-1-.36-1.25-.81c-.48-.93.75-2.21.23-3S731.91,392.05,731.11,392.44Z" transform="translate(-28 -78.56)" fill="#6c63ff" opacity="0.2"/><path d="M666.41,257.35a.69.69,0,0,1-.3.09c-.2,0-.34-.2-.42-.38-.44-.95-.19-2.19-.86-3a10.32,10.32,0,0,0-1.65,2.76l-2.58-.8a3.81,3.81,0,0,0,.49,3,3.94,3.94,0,0,0-1.22.83,1.34,1.34,0,0,0-.32,1.36,6.66,6.66,0,0,0,1.83.19,12,12,0,0,0,.19,3.39.63.63,0,0,0,.23.43.62.62,0,0,0,.63-.1,6,6,0,0,0,2.12-2.26l1,2.3a1,1,0,0,0,.43.57.69.69,0,0,0,.81-.27,2,2,0,0,0,.28-.88l.36-2.18a.56.56,0,0,1,.12-.31.52.52,0,0,1,.38-.11c.91,0,1.83,0,2.74,0,.15-.48-.33-.93-.8-1.14s-1-.35-1.25-.81c-.48-.92.76-2.2.23-3S667.21,257,666.41,257.35Z" transform="translate(-28 -78.56)" fill="#6c63ff" opacity="0.5"/><path d="M700.84,333.48a.75.75,0,0,1-.3.09c-.2,0-.33-.2-.41-.38-.44-.95-.19-2.19-.87-3a10.55,10.55,0,0,0-1.64,2.76l-2.59-.8a3.91,3.91,0,0,0,.49,3,3.78,3.78,0,0,0-1.21.83,1.33,1.33,0,0,0-.32,1.36,6.59,6.59,0,0,0,1.82.19,12,12,0,0,0,.2,3.39.62.62,0,0,0,.22.43.62.62,0,0,0,.63-.1A6.08,6.08,0,0,0,699,339l1,2.3a1,1,0,0,0,.43.57.68.68,0,0,0,.8-.28,2,2,0,0,0,.29-.87l.36-2.18a.41.41,0,0,1,.5-.42l2.73,0c.16-.48-.32-.93-.79-1.14s-1-.35-1.25-.81c-.48-.92.75-2.21.23-3S701.64,333.08,700.84,333.48Z" transform="translate(-28 -78.56)" fill="#6c63ff" opacity="0.5"/><path d="M675.85,303.8a.53.53,0,0,1-.3.09c-.2,0-.33-.2-.41-.38-.44-.95-.19-2.19-.87-3a10.28,10.28,0,0,0-1.64,2.76l-2.59-.8a3.9,3.9,0,0,0,.49,3,3.94,3.94,0,0,0-1.22.83,1.36,1.36,0,0,0-.31,1.36,6.55,6.55,0,0,0,1.82.19,12,12,0,0,0,.2,3.39.6.6,0,0,0,.22.43.62.62,0,0,0,.63-.1,6.05,6.05,0,0,0,2.13-2.25l1,2.29a1,1,0,0,0,.42.57.68.68,0,0,0,.81-.27,2,2,0,0,0,.29-.87l.35-2.19a.56.56,0,0,1,.12-.31.64.64,0,0,1,.39-.11l2.73,0c.16-.48-.33-.93-.79-1.13s-1-.36-1.26-.82c-.47-.92.76-2.2.24-3S676.65,303.4,675.85,303.8Z" transform="translate(-28 -78.56)" fill="#6c63ff" opacity="0.5"/><path d="M783.19,310.79a.75.75,0,0,1-.3.09c-.2,0-.33-.2-.41-.38-.44-.95-.19-2.19-.87-3a10.28,10.28,0,0,0-1.64,2.76l-2.59-.8a3.9,3.9,0,0,0,.49,3,3.94,3.94,0,0,0-1.22.83,1.35,1.35,0,0,0-.31,1.36,6.55,6.55,0,0,0,1.82.19,12,12,0,0,0,.2,3.39.62.62,0,0,0,.22.43.62.62,0,0,0,.63-.1,6.08,6.08,0,0,0,2.13-2.26l1,2.3a1,1,0,0,0,.43.57.69.69,0,0,0,.8-.28,2,2,0,0,0,.29-.87l.36-2.18a.55.55,0,0,1,.11-.31.53.53,0,0,1,.39-.11l2.73,0c.16-.48-.33-.93-.79-1.14s-1-.35-1.26-.81c-.47-.92.76-2.21.24-3S784,310.39,783.19,310.79Z" transform="translate(-28 -78.56)" fill="#6c63ff" opacity="0.5"/><path d="M731.11,305a.69.69,0,0,1-.31.09c-.19,0-.33-.2-.41-.38-.44-1-.19-2.19-.86-3a10.32,10.32,0,0,0-1.65,2.76l-2.58-.8a3.81,3.81,0,0,0,.49,3,3.94,3.94,0,0,0-1.22.83,1.34,1.34,0,0,0-.32,1.36,6.62,6.62,0,0,0,1.83.19,12,12,0,0,0,.19,3.39.67.67,0,0,0,.22.43.62.62,0,0,0,.63-.1,6,6,0,0,0,2.13-2.26l1,2.3a1,1,0,0,0,.43.57.7.7,0,0,0,.81-.27,2,2,0,0,0,.28-.88l.36-2.18a.56.56,0,0,1,.12-.31.52.52,0,0,1,.38-.11c.91,0,1.82,0,2.74,0,.15-.48-.33-.93-.8-1.14s-1-.35-1.25-.81c-.48-.92.75-2.2.23-3S731.91,304.55,731.11,305Z" transform="translate(-28 -78.56)" fill="#6c63ff" opacity="0.2"/><path d="M714.76,312.06a.62.62,0,0,1-.3.09c-.2,0-.33-.2-.41-.38-.44-.95-.19-2.19-.87-3a10.28,10.28,0,0,0-1.64,2.76l-2.59-.8a3.9,3.9,0,0,0,.49,3,3.94,3.94,0,0,0-1.22.83,1.36,1.36,0,0,0-.31,1.36,6.55,6.55,0,0,0,1.82.19,12,12,0,0,0,.2,3.39.62.62,0,0,0,.22.43.62.62,0,0,0,.63-.1,6.08,6.08,0,0,0,2.13-2.26l1,2.3a1,1,0,0,0,.43.57.67.67,0,0,0,.8-.27,2,2,0,0,0,.29-.87l.36-2.19a.55.55,0,0,1,.11-.31.64.64,0,0,1,.39-.11l2.73,0c.16-.48-.33-.93-.79-1.14s-1-.35-1.26-.81c-.47-.92.76-2.2.24-3S715.56,311.66,714.76,312.06Z" transform="translate(-28 -78.56)" fill="#6c63ff" opacity="0.3"/><path d="M699.53,269a.85.85,0,0,1-.31.09c-.19,0-.33-.2-.41-.38-.44-.95-.19-2.19-.86-3a10.32,10.32,0,0,0-1.65,2.76l-2.58-.8a3.82,3.82,0,0,0,.49,3,4.09,4.09,0,0,0-1.22.82,1.36,1.36,0,0,0-.32,1.37,6.29,6.29,0,0,0,1.83.18,12.12,12.12,0,0,0,.19,3.4.67.67,0,0,0,.22.43.62.62,0,0,0,.63-.1,6,6,0,0,0,2.13-2.26l1,2.3a1,1,0,0,0,.43.57.7.7,0,0,0,.81-.28,2,2,0,0,0,.28-.87l.36-2.18a.56.56,0,0,1,.12-.31.52.52,0,0,1,.38-.11c.91,0,1.83,0,2.74,0,.15-.48-.33-.93-.8-1.14s-1-.36-1.25-.81c-.48-.92.75-2.21.23-3S700.33,268.63,699.53,269Z" transform="translate(-28 -78.56)" fill="#6c63ff" opacity="0.2"/><path d="M729.54,325.18a.59.59,0,0,1-.31.09c-.19,0-.33-.2-.41-.38-.44-.95-.19-2.19-.86-3a10.32,10.32,0,0,0-1.65,2.76l-2.58-.8a3.81,3.81,0,0,0,.49,3,3.94,3.94,0,0,0-1.22.83,1.35,1.35,0,0,0-.32,1.37,7.07,7.07,0,0,0,1.83.18,12,12,0,0,0,.19,3.39.62.62,0,0,0,.22.43c.19.13.44,0,.64-.1a6,6,0,0,0,2.12-2.25l1,2.29a1,1,0,0,0,.43.57.68.68,0,0,0,.81-.27,2,2,0,0,0,.28-.87l.36-2.19a.56.56,0,0,1,.12-.31.63.63,0,0,1,.38-.11c.91,0,1.83,0,2.74,0,.15-.49-.33-.94-.8-1.14s-1-.36-1.25-.81c-.48-.93.75-2.21.23-3S730.34,324.78,729.54,325.18Z" transform="translate(-28 -78.56)" fill="#6c63ff" opacity="0.3"/></g><g opacity="0.6"><path d="M672.46,95.46a2,2,0,0,0-3.25,2.32c.37.56.78,1.11,1.17,1.63,4.69,6.33,7.12,14,9.22,21.63.51,1.87,1,3.86.42,5.71a35.59,35.59,0,0,0-1-14.9,92.28,92.28,0,0,0-5.27-14.06A12.23,12.23,0,0,0,672.46,95.46Z" transform="translate(-28 -78.56)" fill="#6c63ff" opacity="0.5"/><path d="M642,108.79c-3.17-.1-3.57,4.7-.42,5,.83.06,1.66.08,2.46.1,9.7.27,18.86,3.79,27.67,7.56,2.17.93,4.44,2,5.7,4a41.55,41.55,0,0,0-14.76-10.46,108.23,108.23,0,0,0-17.42-5.62A14.32,14.32,0,0,0,642,108.79Z" transform="translate(-28 -78.56)" fill="#6c63ff"/><path d="M642.88,120.59c-2,.08-1.55,2.92.47,2.94.52,0,1,0,1.55,0,6.12-.25,12.38,1.44,18.46,3.29a9.61,9.61,0,0,1,4.15,2.09,33.5,33.5,0,0,0-10.79-5.54A83.72,83.72,0,0,0,645,120.75,11.3,11.3,0,0,0,642.88,120.59Z" transform="translate(-28 -78.56)" fill="#6c63ff" opacity="0.2"/><path d="M683.8,173.42c.57,1.92,3.21.78,2.73-1.17-.13-.52-.28-1-.43-1.5-1.75-5.86-1.67-12.35-1.38-18.7a9.43,9.43,0,0,1,1-4.53A33.33,33.33,0,0,0,683,159.34a82.86,82.86,0,0,0,.41,12A11.09,11.09,0,0,0,683.8,173.42Z" transform="translate(-28 -78.56)" fill="#6c63ff" opacity="0.5"/><path d="M646.53,92.8c-1.21-.21-1.3,1.54-.1,1.81.32.07.63.12.93.17,3.69.63,7.21,2.43,10.61,4.31a5.69,5.69,0,0,1,2.21,1.78,20.28,20.28,0,0,0-5.74-4.68,49.43,49.43,0,0,0-6.68-3A6,6,0,0,0,646.53,92.8Z" transform="translate(-28 -78.56)" fill="#6c63ff" opacity="0.2"/><path d="M627.94,139.27c-3.05,1.57-.47,5.88,2.67,4.45.82-.37,1.62-.79,2.38-1.19,9.34-4.84,20.18-6.62,30.84-8,2.62-.33,5.41-.63,7.83.41a52.8,52.8,0,0,0-20.42-1.23A133.4,133.4,0,0,0,631.31,138,17.15,17.15,0,0,0,627.94,139.27Z" transform="translate(-28 -78.56)" fill="#6c63ff"/><path d="M636.67,156.06c-2.2,2.05,1.23,4.47,3.53,2.5.6-.51,1.18-1.06,1.72-1.57,6.69-6.28,15.53-10.75,24.33-14.87,2.16-1,11-2,13.43-2-6.2.55-18.87,2.49-24.5,5.05a135.79,135.79,0,0,0-16,9A17,17,0,0,0,636.67,156.06Z" transform="translate(-28 -78.56)" fill="#6c63ff" opacity="0.5"/><path d="M652.32,182.87c-.64,2.93,3.55,3,4.33,0,.2-.77.37-1.54.53-2.28,1.93-9,6.66-17.67,11.56-26.06,1.2-2.05,7.93-8,9.92-9.26-4.79,4-14.11,12.77-17.28,18.08a135.13,135.13,0,0,0-8,16.45A18.15,18.15,0,0,0,652.32,182.87Z" transform="translate(-28 -78.56)" fill="#6c63ff"/><path d="M683.84,79.94c-1.5-3-5.77-.54-4.41,2.59.35.82.75,1.62,1.13,2.38,4.6,9.31,6.19,20.08,7.37,30.67.29,2.6.54,5.36-.52,7.75a53,53,0,0,0,1.52-20.22A134.09,134.09,0,0,0,685,83.29,17.83,17.83,0,0,0,683.84,79.94Z" transform="translate(-28 -78.56)" fill="#6c63ff"/><path d="M660,85.13a.57.57,0,0,0,.25.08.46.46,0,0,0,.35-.32c.38-.81.16-1.86.74-2.55a8.78,8.78,0,0,1,1.39,2.34L665,84a3.29,3.29,0,0,1-.42,2.52,3.23,3.23,0,0,1,1,.7,1.14,1.14,0,0,1,.26,1.16,5.71,5.71,0,0,1-1.55.15,9.93,9.93,0,0,1-.16,2.88.54.54,0,0,1-.19.37.52.52,0,0,1-.53-.09,5,5,0,0,1-1.81-1.91l-.81,2a.82.82,0,0,1-.37.48.57.57,0,0,1-.68-.23,1.7,1.7,0,0,1-.24-.74l-.31-1.86a.42.42,0,0,0-.1-.26.45.45,0,0,0-.32-.09c-.78,0-1.55,0-2.32,0-.14-.41.27-.8.67-1s.86-.3,1.06-.69c.41-.78-.64-1.87-.19-2.55S659.35,84.8,660,85.13Z" transform="translate(-28 -78.56)" fill="#6c63ff"/><path d="M702.36,95.46a2,2,0,0,1,3.26,2.32c-.38.56-.78,1.11-1.17,1.63-4.69,6.33-7.13,14-9.22,21.63-.52,1.87-1,3.86-.43,5.71a35.6,35.6,0,0,1,1-14.9,91.23,91.23,0,0,1,5.27-14.06A12.18,12.18,0,0,1,702.36,95.46Z" transform="translate(-28 -78.56)" fill="#6c63ff" opacity="0.5"/><path d="M732.82,108.79c3.16-.1,3.57,4.7.41,5-.82.06-1.66.08-2.45.1-9.7.27-18.87,3.79-27.68,7.56-2.16.93-4.43,2-5.69,4a41.55,41.55,0,0,1,14.76-10.46,108.44,108.44,0,0,1,17.41-5.62A14.5,14.5,0,0,1,732.82,108.79Z" transform="translate(-28 -78.56)" fill="#6c63ff"/><path d="M732,120.59c2,.08,1.54,2.92-.47,2.94-.53,0-1.05,0-1.55,0-6.12-.25-12.38,1.44-18.46,3.29a9.55,9.55,0,0,0-4.15,2.09,33.4,33.4,0,0,1,10.79-5.54,83.72,83.72,0,0,1,11.74-2.58A11.3,11.3,0,0,1,732,120.59Z" transform="translate(-28 -78.56)" fill="#6c63ff" opacity="0.5"/><path d="M728.3,92.8c1.21-.21,1.3,1.54.1,1.81-.32.07-.63.12-.94.17-3.68.63-7.21,2.43-10.6,4.31a5.69,5.69,0,0,0-2.21,1.78,20.24,20.24,0,0,1,5.73-4.68,50.12,50.12,0,0,1,6.69-3A5.79,5.79,0,0,1,728.3,92.8Z" transform="translate(-28 -78.56)" fill="#6c63ff" opacity="0.2"/><path d="M697,177.06c-.27,1.19-1.92.6-1.7-.61,0-.32.13-.63.2-.93.84-3.64.53-7.59.11-11.45a5.78,5.78,0,0,0-.79-2.72,20.23,20.23,0,0,1,2.1,7.1,51.4,51.4,0,0,1,.23,7.33A6.13,6.13,0,0,1,697,177.06Z" transform="translate(-28 -78.56)" fill="#6c63ff" opacity="0.2"/><path d="M727.53,169.14c.94,1.59-1.37,1.48-2.38-.11-.27-.42-.51-.84-.75-1.24-2.86-4.87-7.22-9.69-11.61-14.34a16.07,16.07,0,0,0-3.59-3.11,56.94,56.94,0,0,1,9.43,8.07c2.82,2.94,5.3,6,7.74,9.08A15.94,15.94,0,0,1,727.53,169.14Z" transform="translate(-28 -78.56)" fill="#6c63ff" opacity="0.5"/><path d="M643.89,169.14c-.94,1.59,1.37,1.48,2.39-.11.26-.42.51-.84.74-1.24,2.86-4.87,7.22-9.69,11.61-14.34a16.12,16.12,0,0,1,3.6-3.11,57,57,0,0,0-9.44,8.07c-2.81,2.94-5.3,6-7.74,9.08A15.94,15.94,0,0,0,643.89,169.14Z" transform="translate(-28 -78.56)" fill="#6c63ff" opacity="0.2"/><path d="M674.48,177.06c.27,1.19,1.92.6,1.71-.61-.06-.32-.13-.63-.2-.93-.84-3.64-.54-7.59-.11-11.45a5.66,5.66,0,0,1,.78-2.72,20.23,20.23,0,0,0-2.1,7.1,50,50,0,0,0-.22,7.33A6.87,6.87,0,0,0,674.48,177.06Z" transform="translate(-28 -78.56)" fill="#6c63ff" opacity="0.2"/><path d="M718.67,104.76c1.2-.21,1.29,1.55.09,1.81-.31.07-.63.12-.93.18-3.69.62-7.21,2.43-10.61,4.31a5.83,5.83,0,0,0-2.21,1.77,20.25,20.25,0,0,1,5.74-4.67,49.49,49.49,0,0,1,6.68-3A6.54,6.54,0,0,1,718.67,104.76Z" transform="translate(-28 -78.56)" fill="#6c63ff" opacity="0.2"/><path d="M707.42,81.27c1-.64,1.78,1,.77,1.64l-.8.51c-3.18,2-5.78,5-8.23,8a5.69,5.69,0,0,0-1.38,2.47,20.15,20.15,0,0,1,3.57-6.48,49.88,49.88,0,0,1,5.06-5.31A6.46,6.46,0,0,1,707.42,81.27Z" transform="translate(-28 -78.56)" fill="#6c63ff" opacity="0.2"/><path d="M746.89,139.27c3.05,1.57.47,5.88-2.67,4.45-.82-.37-1.62-.79-2.39-1.19-9.33-4.84-20.17-6.62-30.83-8-2.62-.33-5.41-.63-7.83.41a52.76,52.76,0,0,1,20.41-1.23A133.26,133.26,0,0,1,743.52,138,17.64,17.64,0,0,1,746.89,139.27Z" transform="translate(-28 -78.56)" fill="#6c63ff"/><path d="M738.16,156.06c2.2,2.05-1.23,4.47-3.53,2.5-.6-.51-1.18-1.06-1.73-1.57-6.69-6.28-15.52-10.75-24.33-14.87-2.15-1-11.05-2-13.42-2,6.2.55,18.86,2.49,24.49,5.05a135.12,135.12,0,0,1,16,9A17,17,0,0,1,738.16,156.06Z" transform="translate(-28 -78.56)" fill="#6c63ff" opacity="0.5"/><path d="M712.3,186.22c.27,3-3.9,2.5-4.3-.5-.1-.78-.17-1.57-.24-2.32-.79-9.14-4.4-18.37-8.21-27.3-.93-2.2-6.87-8.9-8.67-10.44,4.25,4.55,12.39,14.44,14.88,20.1a136.38,136.38,0,0,1,5.92,17.34A16.58,16.58,0,0,1,712.3,186.22Z" transform="translate(-28 -78.56)" fill="#6c63ff"/><path d="M714.8,85.13a.61.61,0,0,1-.26.08c-.16,0-.28-.17-.35-.32-.37-.81-.16-1.86-.73-2.55a8.81,8.81,0,0,0-1.4,2.34L709.87,84a3.24,3.24,0,0,0,.42,2.52,3.23,3.23,0,0,0-1,.7,1.14,1.14,0,0,0-.27,1.16,5.79,5.79,0,0,0,1.55.15,10.3,10.3,0,0,0,.17,2.88.54.54,0,0,0,.19.37.52.52,0,0,0,.53-.09,5,5,0,0,0,1.81-1.91l.81,2a.85.85,0,0,0,.36.48.58.58,0,0,0,.69-.23,1.7,1.7,0,0,0,.24-.74l.31-1.86a.42.42,0,0,1,.1-.26.45.45,0,0,1,.32-.09c.77,0,1.55,0,2.32,0,.14-.41-.28-.8-.67-1s-.87-.3-1.07-.69c-.4-.78.65-1.87.2-2.55S715.48,84.8,714.8,85.13Z" transform="translate(-28 -78.56)" fill="#6c63ff"/><path d="M721.42,175.46a.61.61,0,0,1-.26.08c-.17,0-.28-.17-.35-.32-.37-.81-.16-1.86-.73-2.55a8.71,8.71,0,0,0-1.4,2.34l-2.19-.68a3.28,3.28,0,0,0,.41,2.52,3.48,3.48,0,0,0-1,.7,1.14,1.14,0,0,0-.27,1.16,5.79,5.79,0,0,0,1.55.15,10.37,10.37,0,0,0,.16,2.89.53.53,0,0,0,.19.36c.16.1.37,0,.54-.09a5.08,5.08,0,0,0,1.8-1.91l.82,1.95a.86.86,0,0,0,.36.49.58.58,0,0,0,.68-.24,1.71,1.71,0,0,0,.25-.74l.3-1.85a.58.58,0,0,1,.1-.27.46.46,0,0,1,.33-.09c.77,0,1.55,0,2.32,0,.13-.41-.28-.8-.67-1s-.87-.3-1.07-.69c-.4-.78.64-1.87.2-2.55S722.1,175.13,721.42,175.46Z" transform="translate(-28 -78.56)" fill="#6c63ff" opacity="0.2"/><path d="M740,114.91a.65.65,0,0,1-.26.08c-.17,0-.28-.17-.35-.32-.38-.81-.16-1.86-.74-2.55a8.94,8.94,0,0,0-1.39,2.34l-2.2-.68a3.29,3.29,0,0,0,.42,2.52,3.19,3.19,0,0,0-1,.7,1.14,1.14,0,0,0-.27,1.16,5.75,5.75,0,0,0,1.55.15,10.37,10.37,0,0,0,.16,2.89.53.53,0,0,0,.19.36.52.52,0,0,0,.53-.09,5,5,0,0,0,1.81-1.91l.82,2a.86.86,0,0,0,.36.49.58.58,0,0,0,.68-.24,1.58,1.58,0,0,0,.24-.74l.31-1.85a.43.43,0,0,1,.1-.27.45.45,0,0,1,.32-.09c.78,0,1.55,0,2.33,0,.13-.41-.28-.8-.68-1s-.86-.3-1.06-.69c-.41-.78.64-1.87.2-2.55S740.68,114.58,740,114.91Z" transform="translate(-28 -78.56)" fill="#6c63ff"/><path d="M665.69,184.52a.66.66,0,0,1-.36.11c-.23,0-.39-.23-.49-.44-.52-1.14-.22-2.6-1-3.55a12.08,12.08,0,0,0-1.94,3.26l-3.06-1a4.54,4.54,0,0,0,.58,3.5,4.77,4.77,0,0,0-1.44,1,1.61,1.61,0,0,0-.38,1.62,7.89,7.89,0,0,0,2.16.21,14.65,14.65,0,0,0,.23,4,.76.76,0,0,0,.27.51c.22.14.51,0,.74-.12A7.18,7.18,0,0,0,663.5,191l1.13,2.71a1.19,1.19,0,0,0,.51.68.8.8,0,0,0,1-.33,2.29,2.29,0,0,0,.34-1l.42-2.58a.71.71,0,0,1,.15-.37.69.69,0,0,1,.45-.13c1.08,0,2.15,0,3.23,0,.19-.57-.39-1.1-.94-1.35s-1.2-.42-1.48-.95c-.56-1.1.89-2.62.27-3.56C667.81,183,666.64,184.05,665.69,184.52Z" transform="translate(-28 -78.56)" fill="#6c63ff"/><path d="M634.77,116.72a.76.76,0,0,1-.36.11c-.23,0-.39-.24-.49-.45-.52-1.13-.22-2.59-1-3.55a12.24,12.24,0,0,0-1.94,3.26l-3.06-.94a4.54,4.54,0,0,0,.58,3.5,4.6,4.6,0,0,0-1.44,1,1.57,1.57,0,0,0-.37,1.61,7.42,7.42,0,0,0,2.15.22,14.56,14.56,0,0,0,.23,4,.76.76,0,0,0,.27.52c.22.14.51,0,.74-.13a7.23,7.23,0,0,0,2.52-2.66l1.13,2.71a1.23,1.23,0,0,0,.51.68.8.8,0,0,0,.95-.33,2.29,2.29,0,0,0,.34-1l.42-2.58a.71.71,0,0,1,.15-.37.69.69,0,0,1,.45-.13c1.08,0,2.15,0,3.23,0,.19-.57-.38-1.11-.94-1.35s-1.2-.42-1.48-1c-.56-1.09.89-2.61.28-3.55C636.89,115.16,635.72,116.25,634.77,116.72Z" transform="translate(-28 -78.56)" fill="#6c63ff"/><path d="M728.59,158.71a.32.32,0,0,1-.19,0c-.12,0-.21-.12-.26-.23-.27-.6-.11-1.38-.54-1.89a6.6,6.6,0,0,0-1,1.73l-1.63-.5a2.43,2.43,0,0,0,.31,1.86,2.39,2.39,0,0,0-.76.52.84.84,0,0,0-.2.86,4.38,4.38,0,0,0,1.14.12,7.26,7.26,0,0,0,.13,2.13.4.4,0,0,0,.14.27c.11.08.27,0,.39-.07a3.7,3.7,0,0,0,1.34-1.41l.6,1.44a.62.62,0,0,0,.27.36.45.45,0,0,0,.51-.17,1.49,1.49,0,0,0,.18-.55l.22-1.37a.36.36,0,0,1,.08-.2.38.38,0,0,1,.24-.07c.57,0,1.14,0,1.71,0,.1-.31-.2-.59-.49-.72s-.65-.22-.79-.51c-.3-.58.47-1.39.14-1.89S729.1,158.46,728.59,158.71Z" transform="translate(-28 -78.56)" fill="#6c63ff" opacity="0.2"/><path d="M686.59,183a.32.32,0,0,1-.19,0c-.12,0-.21-.12-.26-.23-.27-.6-.11-1.38-.54-1.89a6.6,6.6,0,0,0-1,1.73l-1.63-.5a2.43,2.43,0,0,0,.31,1.86,2.39,2.39,0,0,0-.76.52.84.84,0,0,0-.2.86,4,4,0,0,0,1.14.11,7.31,7.31,0,0,0,.13,2.14.43.43,0,0,0,.13.27.4.4,0,0,0,.4-.07,3.7,3.7,0,0,0,1.34-1.41l.6,1.44a.66.66,0,0,0,.27.36.46.46,0,0,0,.51-.17,1.31,1.31,0,0,0,.17-.55l.23-1.37a.36.36,0,0,1,.08-.2.33.33,0,0,1,.24-.07c.57,0,1.14,0,1.71,0,.1-.31-.2-.59-.49-.72s-.65-.23-.79-.51c-.3-.58.47-1.39.14-1.89S687.09,182.71,686.59,183Z" transform="translate(-28 -78.56)" fill="#6c63ff" opacity="0.2"/><path d="M646,98.08a.47.47,0,0,1-.19.06.33.33,0,0,1-.26-.24c-.28-.6-.12-1.38-.55-1.88a6.45,6.45,0,0,0-1,1.73l-1.62-.5a2.4,2.4,0,0,0,.3,1.86,2.34,2.34,0,0,0-.76.52.84.84,0,0,0-.2.86,4,4,0,0,0,1.15.11,7.61,7.61,0,0,0,.12,2.13.4.4,0,0,0,.14.28c.12.07.27,0,.39-.07a3.73,3.73,0,0,0,1.34-1.42l.6,1.44a.65.65,0,0,0,.27.37.44.44,0,0,0,.51-.18,1.28,1.28,0,0,0,.18-.55l.22-1.37a.27.27,0,0,1,.32-.26c.57,0,1.14,0,1.72,0,.09-.3-.21-.59-.5-.71s-.64-.23-.79-.51c-.3-.58.47-1.39.15-1.89S646.45,97.83,646,98.08Z" transform="translate(-28 -78.56)" fill="#6c63ff" opacity="0.5"/><path d="M667.58,145.91a.42.42,0,0,1-.19.06c-.12,0-.21-.13-.26-.24-.28-.6-.12-1.38-.54-1.88a6.23,6.23,0,0,0-1,1.73l-1.62-.5a2.4,2.4,0,0,0,.31,1.86,2.38,2.38,0,0,0-.77.52.85.85,0,0,0-.2.85,4.06,4.06,0,0,0,1.15.12,7.61,7.61,0,0,0,.12,2.13.38.38,0,0,0,.14.27c.12.08.28,0,.4-.06a3.78,3.78,0,0,0,1.33-1.42l.61,1.44a.59.59,0,0,0,.27.36.41.41,0,0,0,.5-.17,1.19,1.19,0,0,0,.18-.55l.23-1.37a.32.32,0,0,1,.07-.19.34.34,0,0,1,.24-.07c.57,0,1.15,0,1.72,0,.1-.3-.21-.59-.5-.72s-.64-.22-.79-.51c-.29-.58.48-1.38.15-1.88S668.08,145.66,667.58,145.91Z" transform="translate(-28 -78.56)" fill="#6c63ff" opacity="0.5"/><path d="M651.88,127.27a.32.32,0,0,1-.19,0c-.12,0-.21-.12-.26-.23-.28-.6-.12-1.38-.54-1.89a6.38,6.38,0,0,0-1,1.73l-1.62-.5a2.39,2.39,0,0,0,.31,1.86,2.55,2.55,0,0,0-.77.52.86.86,0,0,0-.2.86,4,4,0,0,0,1.15.11,7.66,7.66,0,0,0,.12,2.14.3.3,0,0,0,.54.2,3.75,3.75,0,0,0,1.33-1.41l.61,1.44a.66.66,0,0,0,.27.36.43.43,0,0,0,.5-.18,1.24,1.24,0,0,0,.18-.54l.23-1.38a.25.25,0,0,1,.31-.26l1.72,0c.1-.3-.21-.58-.5-.71s-.64-.23-.79-.51c-.3-.58.48-1.39.15-1.89S652.38,127,651.88,127.27Z" transform="translate(-28 -78.56)" fill="#6c63ff" opacity="0.5"/><path d="M719.32,131.66a.34.34,0,0,1-.19.05c-.13,0-.21-.12-.26-.23-.28-.6-.12-1.38-.55-1.89a6.6,6.6,0,0,0-1,1.73l-1.62-.5a2.38,2.38,0,0,0,.3,1.86,2.51,2.51,0,0,0-.76.52.84.84,0,0,0-.2.86,4,4,0,0,0,1.15.11,7.66,7.66,0,0,0,.12,2.14.4.4,0,0,0,.14.27.38.38,0,0,0,.39-.07,3.78,3.78,0,0,0,1.34-1.41l.6,1.44a.66.66,0,0,0,.27.36.44.44,0,0,0,.51-.18,1.24,1.24,0,0,0,.18-.54l.22-1.38a.36.36,0,0,1,.08-.19.33.33,0,0,1,.24-.07l1.72,0c.09-.3-.21-.58-.5-.71s-.64-.23-.79-.51c-.3-.58.47-1.39.15-1.89S719.82,131.41,719.32,131.66Z" transform="translate(-28 -78.56)" fill="#6c63ff" opacity="0.5"/><path d="M686.59,128a.32.32,0,0,1-.19,0c-.12,0-.21-.12-.26-.23-.27-.6-.11-1.38-.54-1.89a6.6,6.6,0,0,0-1,1.73l-1.63-.5a2.43,2.43,0,0,0,.31,1.86,2.39,2.39,0,0,0-.76.52.84.84,0,0,0-.2.86,4.38,4.38,0,0,0,1.14.12,7.26,7.26,0,0,0,.13,2.13.43.43,0,0,0,.13.27c.12.08.28,0,.4-.07a3.7,3.7,0,0,0,1.34-1.41l.6,1.44a.62.62,0,0,0,.27.36.46.46,0,0,0,.51-.17,1.31,1.31,0,0,0,.17-.55l.23-1.37a.36.36,0,0,1,.08-.2.38.38,0,0,1,.24-.07c.57,0,1.14,0,1.71,0,.1-.31-.2-.59-.49-.72s-.65-.22-.79-.51c-.3-.58.47-1.39.14-1.89S687.09,127.74,686.59,128Z" transform="translate(-28 -78.56)" fill="#6c63ff" opacity="0.2"/><path d="M676.33,132.45a.39.39,0,0,1-.2.06c-.12,0-.2-.12-.26-.23-.27-.6-.11-1.38-.54-1.89a6.6,6.6,0,0,0-1,1.73l-1.63-.5a2.43,2.43,0,0,0,.31,1.86,2.51,2.51,0,0,0-.76.52.84.84,0,0,0-.2.86,4,4,0,0,0,1.14.11,7.69,7.69,0,0,0,.13,2.14.4.4,0,0,0,.14.27.38.38,0,0,0,.39-.07,3.78,3.78,0,0,0,1.34-1.41l.6,1.44a.66.66,0,0,0,.27.36.44.44,0,0,0,.51-.18,1.38,1.38,0,0,0,.18-.54l.22-1.38a.27.27,0,0,1,.32-.26c.57,0,1.14,0,1.72,0,.09-.3-.21-.58-.5-.71s-.64-.23-.79-.51c-.3-.58.47-1.39.14-1.89S676.83,132.21,676.33,132.45Z" transform="translate(-28 -78.56)" fill="#6c63ff" opacity="0.3"/><path d="M666.75,105.42a.42.42,0,0,1-.19.06c-.12,0-.21-.13-.26-.24-.27-.6-.11-1.38-.54-1.88a6.29,6.29,0,0,0-1,1.73l-1.63-.51a2.43,2.43,0,0,0,.31,1.86,2.56,2.56,0,0,0-.76.52.85.85,0,0,0-.2.86,4.38,4.38,0,0,0,1.14.12,7.26,7.26,0,0,0,.13,2.13.41.41,0,0,0,.13.27c.12.08.28,0,.4-.06a3.8,3.8,0,0,0,1.34-1.42l.6,1.44a.62.62,0,0,0,.27.36.43.43,0,0,0,.51-.17,1.31,1.31,0,0,0,.17-.55l.23-1.37a.36.36,0,0,1,.08-.2.32.32,0,0,1,.24-.06c.57,0,1.14,0,1.71,0,.1-.31-.2-.59-.49-.72s-.65-.22-.79-.51c-.3-.58.47-1.38.14-1.88S667.25,105.17,666.75,105.42Z" transform="translate(-28 -78.56)" fill="#6c63ff" opacity="0.2"/><path d="M685.61,140.7a.34.34,0,0,1-.19.05c-.13,0-.21-.12-.26-.23-.28-.6-.12-1.38-.55-1.89a6.5,6.5,0,0,0-1,1.74l-1.62-.51a2.42,2.42,0,0,0,.3,1.86,2.63,2.63,0,0,0-.76.52.84.84,0,0,0-.2.86,4.45,4.45,0,0,0,1.15.12,7.61,7.61,0,0,0,.12,2.13.4.4,0,0,0,.14.27c.12.08.27,0,.39-.06a3.8,3.8,0,0,0,1.34-1.42l.6,1.44a.62.62,0,0,0,.27.36.45.45,0,0,0,.51-.17,1.32,1.32,0,0,0,.18-.55l.22-1.37a.44.44,0,0,1,.08-.2.38.38,0,0,1,.24-.07c.57,0,1.15,0,1.72,0,.1-.31-.21-.59-.5-.72s-.64-.22-.79-.51c-.3-.58.48-1.39.15-1.89S686.11,140.45,685.61,140.7Z" transform="translate(-28 -78.56)" fill="#6c63ff" opacity="0.3"/></g><path d="M454.64,121.29c-3.65-5-11.19.41-7.78,5.55.89,1.34,1.86,2.65,2.78,3.89,11.24,15.16,17.06,33.58,22.07,51.78,1.23,4.46,2.42,9.23,1,13.65,2-11.83.7-24-2.33-35.64s-7.74-22.7-12.61-33.66A29.89,29.89,0,0,0,454.64,121.29Z" transform="translate(-28 -78.56)" fill="#6c63ff" opacity="0.5"/><path d="M381.77,153.18c-7.58-.23-8.54,11.26-1,11.86,2,.16,4,.21,5.88.26,23.2.63,45.14,9,66.22,18.09,5.17,2.22,10.6,4.72,13.63,9.47-9.5-11-22-19.1-35.33-25S403.68,158,389.5,154.37A36.44,36.44,0,0,0,381.77,153.18Z" transform="translate(-28 -78.56)" fill="#6c63ff"/><path d="M383.85,181.43c-4.78.18-3.7,7,1.12,7,1.26,0,2.51,0,3.71-.1,14.64-.59,29.63,3.45,44.17,7.89,3.57,1.09,7.33,2.33,9.93,5-7.57-6.09-16.6-10.32-25.81-13.25s-18.67-4.64-28.09-6.18A25.6,25.6,0,0,0,383.85,181.43Z" transform="translate(-28 -78.56)" fill="#6c63ff" opacity="0.2"/><path d="M481.77,307.85c1.36,4.59,7.68,1.86,6.53-2.82-.31-1.22-.67-2.43-1-3.58-4.21-14-4-29.55-3.32-44.74.17-3.72.44-7.68,2.38-10.86-4,8.85-5.87,18.64-6.43,28.29s.14,19.24,1,28.75A26.32,26.32,0,0,0,481.77,307.85Z" transform="translate(-28 -78.56)" fill="#6c63ff" opacity="0.5"/><path d="M392.57,114.91c-2.88-.5-3.1,3.7-.22,4.34.75.16,1.51.29,2.23.41,8.82,1.51,17.25,5.82,25.37,10.32,2,1.11,4.09,2.33,5.3,4.25A48.51,48.51,0,0,0,411.52,123a119.47,119.47,0,0,0-16-7.26A16,16,0,0,0,392.57,114.91Z" transform="translate(-28 -78.56)" fill="#6c63ff" opacity="0.2"/><path d="M348.1,226.11c-7.31,3.76-1.13,14.09,6.38,10.66,2-.9,3.88-1.9,5.71-2.85,22.33-11.58,48.27-15.85,73.79-19.14,6.26-.8,12.94-1.51,18.73,1-15.79-4.45-32.6-4.82-48.85-2.93s-32.06,6-47.71,10.26A43,43,0,0,0,348.1,226.11Z" transform="translate(-28 -78.56)" fill="#6c63ff"/><path d="M369,266.3c-5.25,4.9,2.95,10.69,8.46,6,1.44-1.23,2.81-2.53,4.12-3.76,16-15,37.16-25.72,58.22-35.57,5.17-2.42,26.44-4.89,32.12-4.76-14.83,1.33-45.14,6-58.61,12.09S387.35,254,375.06,261.73A41.29,41.29,0,0,0,369,266.3Z" transform="translate(-28 -78.56)" fill="#6c63ff" opacity="0.5"/><path d="M406.44,330.46c-1.53,7,8.5,7.11,10.36.11.49-1.84.88-3.68,1.26-5.44,4.62-21.46,15.95-42.29,27.67-62.36,2.88-4.93,19-19.06,23.73-22.18-11.45,9.53-33.75,30.57-41.35,43.27s-13.54,26-19.26,39.37A41.45,41.45,0,0,0,406.44,330.46Z" transform="translate(-28 -78.56)" fill="#6c63ff"/><path d="M481.86,84.16c-3.58-7.3-13.8-1.3-10.56,6.18.85,2,1.81,3.88,2.71,5.7,11,22.28,14.81,48.05,17.64,73.39.69,6.21,1.29,12.84-1.24,18.55,4.62-15.59,5.23-32.25,3.63-48.38s-5.36-31.85-9.34-47.42A41.38,41.38,0,0,0,481.86,84.16Z" transform="translate(-28 -78.56)" fill="#6c63ff"/><path d="M424.88,96.57a1.14,1.14,0,0,0,.61.18c.4,0,.68-.4.84-.76.9-1.94.38-4.46,1.76-6.09a21,21,0,0,1,3.34,5.59l5.25-1.62a7.8,7.8,0,0,1-1,6,8.17,8.17,0,0,1,2.48,1.68,2.75,2.75,0,0,1,.64,2.78,13.22,13.22,0,0,1-3.71.37,24.59,24.59,0,0,1-.39,6.9,1.3,1.3,0,0,1-.45.87c-.39.25-.89,0-1.28-.21a12.1,12.1,0,0,1-4.32-4.58l-1.95,4.66a2.09,2.09,0,0,1-.87,1.17,1.41,1.41,0,0,1-1.64-.56,4,4,0,0,1-.58-1.77l-.73-4.44a1.06,1.06,0,0,0-.24-.63,1.16,1.16,0,0,0-.78-.22q-2.78-.08-5.55-.06c-.32-1,.66-1.9,1.61-2.31s2.07-.73,2.55-1.65c1-1.87-1.54-4.48-.47-6.1C421.24,93.9,423.26,95.77,424.88,96.57Z" transform="translate(-28 -78.56)" fill="#6c63ff"/><path d="M526.19,121.29c3.65-5,11.19.41,7.78,5.55-.89,1.34-1.87,2.65-2.79,3.89-11.23,15.16-17,33.58-22.07,51.78-1.23,4.46-2.42,9.23-1,13.65-2-11.83-.7-24,2.33-35.64s7.74-22.7,12.61-33.66A29.89,29.89,0,0,1,526.19,121.29Z" transform="translate(-28 -78.56)" fill="#6c63ff" opacity="0.5"/><path d="M599.06,153.18c7.58-.23,8.54,11.26,1,11.86-2,.16-4,.21-5.88.26-23.2.63-45.14,9-66.22,18.09-5.18,2.22-10.61,4.72-13.63,9.47,9.5-11,22-19.1,35.33-25s27.48-9.82,41.66-13.46A36.63,36.63,0,0,1,599.06,153.18Z" transform="translate(-28 -78.56)" fill="#6c63ff"/><path d="M597,181.43c4.79.18,3.71,7-1.11,7-1.26,0-2.52,0-3.72-.1-14.63-.59-29.62,3.45-44.16,7.89-3.57,1.09-7.34,2.33-9.93,5,7.57-6.09,16.59-10.32,25.81-13.25s18.67-4.64,28.09-6.18A25.56,25.56,0,0,1,597,181.43Z" transform="translate(-28 -78.56)" fill="#6c63ff" opacity="0.5"/><path d="M588.25,114.91c2.88-.5,3.1,3.7.23,4.34-.75.16-1.51.29-2.23.41-8.82,1.51-17.26,5.82-25.38,10.32-2,1.11-4.08,2.33-5.29,4.25A48.51,48.51,0,0,1,569.31,123a119.47,119.47,0,0,1,16-7.26A15.87,15.87,0,0,1,588.25,114.91Z" transform="translate(-28 -78.56)" fill="#6c63ff" opacity="0.2"/><path d="M513.27,316.55c-.65,2.85-4.61,1.43-4.09-1.46.14-.76.32-1.51.48-2.22,2-8.72,1.28-18.17.26-27.39-.25-2.27-.57-4.67-1.88-6.53a48.58,48.58,0,0,1,5,17,121.24,121.24,0,0,1,.53,17.55A15.76,15.76,0,0,1,513.27,316.55Z" transform="translate(-28 -78.56)" fill="#6c63ff" opacity="0.2"/><path d="M586.41,297.59c2.25,3.81-3.28,3.56-5.7-.26-.64-1-1.22-2-1.79-3-6.85-11.65-17.27-23.18-27.77-34.32-2.58-2.73-5.37-5.61-8.62-7.43a135.59,135.59,0,0,1,22.58,19.3c6.74,7,12.69,14.39,18.52,21.72A35.89,35.89,0,0,1,586.41,297.59Z" transform="translate(-28 -78.56)" fill="#6c63ff" opacity="0.5"/><path d="M386.27,297.59c-2.25,3.81,3.28,3.56,5.7-.26.64-1,1.23-2,1.79-3,6.85-11.65,17.28-23.18,27.77-34.32,2.58-2.73,5.37-5.61,8.62-7.43a135.59,135.59,0,0,0-22.58,19.3c-6.74,7-12.69,14.39-18.52,21.72A35.89,35.89,0,0,0,386.27,297.59Z" transform="translate(-28 -78.56)" fill="#6c63ff" opacity="0.2"/><path d="M459.46,316.55c.65,2.85,4.61,1.43,4.09-1.46-.14-.76-.32-1.51-.48-2.22-2-8.72-1.28-18.17-.26-27.39.25-2.27.57-4.67,1.87-6.53a48.77,48.77,0,0,0-5,17,119.83,119.83,0,0,0-.53,17.55A15.76,15.76,0,0,0,459.46,316.55Z" transform="translate(-28 -78.56)" fill="#6c63ff" opacity="0.2"/><path d="M565.2,143.54c2.88-.5,3.1,3.7.22,4.34-.75.16-1.51.29-2.23.41-8.82,1.51-17.25,5.82-25.37,10.32-2,1.11-4.09,2.33-5.3,4.25a48.51,48.51,0,0,1,13.73-11.19,120.75,120.75,0,0,1,16-7.26A16,16,0,0,1,565.2,143.54Z" transform="translate(-28 -78.56)" fill="#6c63ff" opacity="0.2"/><path d="M538.3,87.33c2.48-1.54,4.25,2.27,1.83,3.93-.64.44-1.29.84-1.92,1.22-7.61,4.7-13.83,11.85-19.68,19.06-1.43,1.77-2.92,3.68-3.32,5.92A48.57,48.57,0,0,1,523.76,102a121.61,121.61,0,0,1,12.12-12.72A16,16,0,0,1,538.3,87.33Z" transform="translate(-28 -78.56)" fill="#6c63ff" opacity="0.2"/><path d="M632.73,226.11c7.31,3.76,1.13,14.09-6.38,10.66-2-.9-3.88-1.9-5.71-2.85-22.33-11.58-48.28-15.85-73.79-19.14-6.27-.8-12.94-1.51-18.73,1,15.79-4.45,32.59-4.82,48.85-2.93s32,6,47.71,10.26A43,43,0,0,1,632.73,226.11Z" transform="translate(-28 -78.56)" fill="#6c63ff"/><path d="M611.85,266.3c5.25,4.9-3,10.69-8.46,6-1.44-1.23-2.81-2.53-4.12-3.76-16-15-37.16-25.72-58.22-35.57-5.17-2.42-26.45-4.89-32.13-4.76,14.84,1.33,45.15,6,58.62,12.09s25.94,13.73,38.22,21.45A40.86,40.86,0,0,1,611.85,266.3Z" transform="translate(-28 -78.56)" fill="#6c63ff" opacity="0.5"/><path d="M550,338.46c.64,7.15-9.33,6-10.29-1.19-.26-1.88-.41-3.76-.57-5.55-1.9-21.87-10.53-44-19.65-65.34-2.23-5.24-16.44-21.28-20.76-25,10.17,10.88,29.65,34.55,35.61,48.09s10.17,27.54,14.17,41.48A41.87,41.87,0,0,1,550,338.46Z" transform="translate(-28 -78.56)" fill="#6c63ff"/><path d="M556,96.57a1.15,1.15,0,0,1-.62.18c-.39,0-.67-.4-.84-.76-.89-1.94-.38-4.46-1.75-6.09a20.73,20.73,0,0,0-3.34,5.59l-5.25-1.62a7.84,7.84,0,0,0,1,6,8.25,8.25,0,0,0-2.47,1.68,2.75,2.75,0,0,0-.64,2.78,13.22,13.22,0,0,0,3.71.37,24.22,24.22,0,0,0,.39,6.9,1.26,1.26,0,0,0,.45.87c.39.25.89,0,1.28-.21a12.18,12.18,0,0,0,4.32-4.58l2,4.66a2,2,0,0,0,.87,1.17,1.41,1.41,0,0,0,1.64-.56,4.3,4.3,0,0,0,.58-1.77l.73-4.44a1.06,1.06,0,0,1,.24-.63,1.13,1.13,0,0,1,.77-.22c1.86-.05,3.71-.07,5.56-.06.32-1-.67-1.9-1.61-2.31s-2.08-.73-2.55-1.65c-1-1.87,1.53-4.48.47-6.1C559.59,93.9,557.57,95.77,556,96.57Z" transform="translate(-28 -78.56)" fill="#6c63ff"/><path d="M571.79,312.73a1.42,1.42,0,0,1-.62.18c-.4,0-.68-.4-.84-.76-.9-1.94-.38-4.46-1.76-6.1a21.48,21.48,0,0,0-3.34,5.6L560,310a7.82,7.82,0,0,0,1,6,8.17,8.17,0,0,0-2.48,1.68,2.75,2.75,0,0,0-.64,2.78,13.6,13.6,0,0,0,3.71.37,24.5,24.5,0,0,0,.39,6.89,1.32,1.32,0,0,0,.45.88,1.27,1.27,0,0,0,1.28-.21,12.18,12.18,0,0,0,4.32-4.58l2,4.66a2.12,2.12,0,0,0,.87,1.17,1.42,1.42,0,0,0,1.64-.57,4,4,0,0,0,.58-1.77l.73-4.43a.83.83,0,0,1,1-.85c1.85-.06,3.7-.07,5.55-.06.32-1-.66-1.9-1.61-2.31s-2.07-.73-2.55-1.65c-1-1.88,1.54-4.49.47-6.1C575.42,310.05,573.4,311.92,571.79,312.73Z" transform="translate(-28 -78.56)" fill="#6c63ff" opacity="0.2"/><path d="M616.26,167.83a1.25,1.25,0,0,1-.61.19,1.13,1.13,0,0,1-.84-.76c-.9-1.95-.38-4.46-1.76-6.1a20.79,20.79,0,0,0-3.34,5.6l-5.25-1.63a7.86,7.86,0,0,0,1,6,8.07,8.07,0,0,0-2.47,1.68,2.74,2.74,0,0,0-.64,2.77,13.22,13.22,0,0,0,3.71.37,24.2,24.2,0,0,0,.39,6.9,1.32,1.32,0,0,0,.45.88,1.28,1.28,0,0,0,1.28-.22,12.23,12.23,0,0,0,4.32-4.57l2,4.66a2.06,2.06,0,0,0,.87,1.16,1.4,1.4,0,0,0,1.64-.56,4.16,4.16,0,0,0,.58-1.77l.73-4.44a1.06,1.06,0,0,1,.24-.62,1.11,1.11,0,0,1,.78-.23c1.85,0,3.7-.07,5.55,0,.32-1-.66-1.9-1.61-2.32s-2.07-.72-2.55-1.64c-1-1.88,1.54-4.49.47-6.1C619.9,165.16,617.88,167,616.26,167.83Z" transform="translate(-28 -78.56)" fill="#6c63ff"/><path d="M438.44,334.41a1.78,1.78,0,0,1-.86.25c-.56,0-.94-.56-1.17-1.06-1.25-2.71-.53-6.21-2.45-8.49a29.06,29.06,0,0,0-4.65,7.8L422,330.64a10.84,10.84,0,0,0,1.39,8.38,11.44,11.44,0,0,0-3.45,2.34,3.84,3.84,0,0,0-.89,3.87,18.67,18.67,0,0,0,5.16.52,34.06,34.06,0,0,0,.55,9.61,1.35,1.35,0,0,0,2.41.92,16.92,16.92,0,0,0,6-6.38l2.72,6.5a2.87,2.87,0,0,0,1.21,1.62,1.93,1.93,0,0,0,2.28-.78,5.69,5.69,0,0,0,.81-2.47l1-6.18a1.55,1.55,0,0,1,.33-.87,1.52,1.52,0,0,1,1.08-.31c2.58-.08,5.17-.1,7.75-.08.44-1.37-.93-2.65-2.25-3.23s-2.89-1-3.55-2.29c-1.35-2.62,2.14-6.25.66-8.5C443.51,330.68,440.69,333.29,438.44,334.41Z" transform="translate(-28 -78.56)" fill="#6c63ff"/><path d="M364.45,172.16a1.78,1.78,0,0,1-.86.25c-.55,0-.94-.55-1.17-1.06-1.25-2.7-.53-6.21-2.45-8.49a29.21,29.21,0,0,0-4.65,7.8L348,168.39a10.88,10.88,0,0,0,1.38,8.38,11.41,11.41,0,0,0-3.45,2.35,3.83,3.83,0,0,0-.89,3.87,18.66,18.66,0,0,0,5.16.51,34.43,34.43,0,0,0,.55,9.61,1.8,1.8,0,0,0,.63,1.22,1.76,1.76,0,0,0,1.78-.29,17,17,0,0,0,6-6.38l2.72,6.49a2.93,2.93,0,0,0,1.21,1.63,2,2,0,0,0,2.28-.79,5.56,5.56,0,0,0,.81-2.46l1-6.19a1.49,1.49,0,0,1,.34-.87,1.54,1.54,0,0,1,1.08-.31q3.87-.1,7.74-.08c.44-1.37-.93-2.65-2.25-3.23s-2.89-1-3.54-2.29c-1.35-2.61,2.13-6.25.65-8.5C369.52,168.43,366.71,171,364.45,172.16Z" transform="translate(-28 -78.56)" fill="#6c63ff"/><path d="M589,272.63a.88.88,0,0,1-.46.14c-.3,0-.5-.3-.62-.56-.67-1.44-.28-3.3-1.3-4.52a15.31,15.31,0,0,0-2.47,4.15l-3.89-1.21a5.83,5.83,0,0,0,.73,4.46,5.71,5.71,0,0,0-1.82,1.24,2,2,0,0,0-.48,2.06,10.12,10.12,0,0,0,2.74.27,18.18,18.18,0,0,0,.3,5.1.9.9,0,0,0,.33.65c.28.18.66,0,1-.15a9.11,9.11,0,0,0,3.19-3.39l1.45,3.45a1.52,1.52,0,0,0,.64.86,1,1,0,0,0,1.21-.42,3,3,0,0,0,.43-1.31l.54-3.28a.85.85,0,0,1,.18-.47.83.83,0,0,1,.58-.16c1.37,0,2.74-.05,4.11,0,.23-.73-.5-1.41-1.2-1.72s-1.53-.53-1.88-1.21c-.72-1.39,1.13-3.32.35-4.52C591.65,270.65,590.15,272,589,272.63Z" transform="translate(-28 -78.56)" fill="#6c63ff" opacity="0.2"/><path d="M488.45,330.66a1.07,1.07,0,0,1-.46.14c-.29,0-.49-.3-.62-.57-.66-1.44-.28-3.3-1.3-4.51a15.51,15.51,0,0,0-2.47,4.14l-3.88-1.2a5.76,5.76,0,0,0,.73,4.45,6,6,0,0,0-1.83,1.25,2,2,0,0,0-.48,2.05,10.2,10.2,0,0,0,2.75.28,17.83,17.83,0,0,0,.29,5.1,1,1,0,0,0,.33.65.94.94,0,0,0,.95-.16,9,9,0,0,0,3.2-3.39l1.44,3.45a1.56,1.56,0,0,0,.65.87,1.05,1.05,0,0,0,1.21-.42,3.12,3.12,0,0,0,.43-1.31l.54-3.29a.78.78,0,0,1,.18-.46.8.8,0,0,1,.57-.16c1.37,0,2.74-.06,4.11-.05.24-.72-.49-1.4-1.19-1.71s-1.53-.54-1.89-1.22c-.71-1.39,1.14-3.32.35-4.51C491.14,328.68,489.65,330.07,488.45,330.66Z" transform="translate(-28 -78.56)" fill="#6c63ff" opacity="0.2"/><path d="M391.19,127.56a1,1,0,0,1-.46.14c-.3,0-.5-.3-.62-.56-.67-1.44-.28-3.3-1.3-4.52a15.31,15.31,0,0,0-2.47,4.15l-3.89-1.21a5.79,5.79,0,0,0,.74,4.46,5.64,5.64,0,0,0-1.83,1.24,2,2,0,0,0-.48,2.05,9.75,9.75,0,0,0,2.74.28,18.18,18.18,0,0,0,.3,5.1.94.94,0,0,0,.33.65c.28.18.66,0,.95-.15a9.11,9.11,0,0,0,3.19-3.39l1.45,3.45a1.52,1.52,0,0,0,.64.86,1,1,0,0,0,1.21-.42,3,3,0,0,0,.43-1.31l.54-3.28a.85.85,0,0,1,.18-.47.83.83,0,0,1,.58-.16c1.37,0,2.74-.05,4.11,0,.23-.73-.5-1.41-1.2-1.72s-1.53-.53-1.88-1.21c-.72-1.39,1.13-3.32.35-4.52C393.88,125.58,392.38,127,391.19,127.56Z" transform="translate(-28 -78.56)" fill="#6c63ff" opacity="0.5"/><path d="M443,242a.91.91,0,0,1-.45.14c-.3,0-.5-.3-.63-.56-.66-1.44-.28-3.3-1.29-4.52a15.6,15.6,0,0,0-2.48,4.15L434.22,240a5.83,5.83,0,0,0,.73,4.46,5.87,5.87,0,0,0-1.83,1.24,2,2,0,0,0-.47,2,9.71,9.71,0,0,0,2.74.28,18.56,18.56,0,0,0,.29,5.1.91.91,0,0,0,.34.65c.28.18.66,0,.94-.15a9.05,9.05,0,0,0,3.2-3.39l1.45,3.45a1.52,1.52,0,0,0,.64.86,1,1,0,0,0,1.21-.42,3.08,3.08,0,0,0,.43-1.31l.54-3.28a.85.85,0,0,1,.18-.47.8.8,0,0,1,.57-.16c1.37,0,2.74,0,4.12,0,.23-.73-.5-1.41-1.2-1.72s-1.53-.53-1.88-1.21c-.72-1.39,1.13-3.32.35-4.52C445.65,240,444.15,241.42,443,242Z" transform="translate(-28 -78.56)" fill="#6c63ff" opacity="0.5"/><path d="M405.38,197.4a.9.9,0,0,1-.45.13c-.3,0-.5-.29-.63-.56-.66-1.44-.28-3.3-1.3-4.51a15.51,15.51,0,0,0-2.47,4.14l-3.88-1.2a5.8,5.8,0,0,0,.73,4.45,6.1,6.1,0,0,0-1.83,1.24,2,2,0,0,0-.47,2.06,9.7,9.7,0,0,0,2.74.27,18.25,18.25,0,0,0,.29,5.11,1,1,0,0,0,.34.65c.28.18.65,0,.94-.16a9.05,9.05,0,0,0,3.2-3.39l1.45,3.45a1.49,1.49,0,0,0,.64.86,1,1,0,0,0,1.21-.41,3.17,3.17,0,0,0,.43-1.31l.54-3.29a.82.82,0,0,1,.18-.46.81.81,0,0,1,.57-.17c1.37,0,2.74-.05,4.11,0,.24-.73-.49-1.4-1.19-1.71s-1.53-.54-1.88-1.22c-.72-1.39,1.13-3.32.34-4.52C408.08,195.42,406.58,196.8,405.38,197.4Z" transform="translate(-28 -78.56)" fill="#6c63ff" opacity="0.5"/><path d="M566.75,207.9a.91.91,0,0,1-.45.14c-.3,0-.5-.3-.62-.57-.67-1.43-.29-3.3-1.3-4.51a15.31,15.31,0,0,0-2.47,4.15L558,205.9a5.8,5.8,0,0,0,.73,4.45,6.07,6.07,0,0,0-1.83,1.25,2,2,0,0,0-.47,2.05,10.09,10.09,0,0,0,2.74.28,18.56,18.56,0,0,0,.29,5.1.94.94,0,0,0,.34.65c.28.18.66,0,.94-.16a8.91,8.91,0,0,0,3.2-3.39l1.45,3.45a1.55,1.55,0,0,0,.64.87,1,1,0,0,0,1.21-.42,3.12,3.12,0,0,0,.43-1.31l.54-3.28a.85.85,0,0,1,.18-.47.8.8,0,0,1,.57-.16c1.37,0,2.75-.05,4.12,0,.23-.73-.5-1.41-1.2-1.72s-1.53-.54-1.88-1.22c-.72-1.39,1.13-3.32.35-4.51C569.45,205.92,568,207.31,566.75,207.9Z" transform="translate(-28 -78.56)" fill="#6c63ff" opacity="0.5"/><path d="M488.45,199.12a1,1,0,0,1-.46.14c-.29,0-.49-.3-.62-.56-.66-1.44-.28-3.3-1.3-4.52a15.57,15.57,0,0,0-2.47,4.15l-3.88-1.21a5.79,5.79,0,0,0,.73,4.46,5.75,5.75,0,0,0-1.83,1.24,2,2,0,0,0-.48,2.05,9.82,9.82,0,0,0,2.75.28,17.81,17.81,0,0,0,.29,5.1.94.94,0,0,0,.33.65,1,1,0,0,0,.95-.15,9.13,9.13,0,0,0,3.2-3.39l1.44,3.45a1.54,1.54,0,0,0,.65.86,1,1,0,0,0,1.21-.42,3.08,3.08,0,0,0,.43-1.31l.54-3.28a.78.78,0,0,1,.18-.47.8.8,0,0,1,.57-.16c1.37,0,2.74-.05,4.11,0,.24-.73-.49-1.41-1.19-1.72s-1.53-.53-1.89-1.21c-.71-1.39,1.14-3.32.35-4.52C491.14,197.14,489.65,198.53,488.45,199.12Z" transform="translate(-28 -78.56)" fill="#6c63ff" opacity="0.2"/><path d="M463.88,209.81a1,1,0,0,1-.46.14c-.29,0-.5-.3-.62-.56-.66-1.44-.28-3.31-1.3-4.52A15.57,15.57,0,0,0,459,209l-3.89-1.21a5.79,5.79,0,0,0,.74,4.46,5.75,5.75,0,0,0-1.83,1.24,2,2,0,0,0-.48,2.05,9.82,9.82,0,0,0,2.75.28,17.81,17.81,0,0,0,.29,5.1.94.94,0,0,0,.33.65,1,1,0,0,0,.95-.15,9.13,9.13,0,0,0,3.2-3.39l1.44,3.45a1.56,1.56,0,0,0,.64.86,1,1,0,0,0,1.22-.42,2.94,2.94,0,0,0,.42-1.31l.54-3.28a.93.93,0,0,1,.18-.47.83.83,0,0,1,.58-.16c1.37,0,2.74-.05,4.11,0,.24-.73-.49-1.41-1.19-1.72s-1.54-.53-1.89-1.21c-.71-1.39,1.14-3.32.35-4.52C466.57,207.83,465.08,209.22,463.88,209.81Z" transform="translate(-28 -78.56)" fill="#6c63ff" opacity="0.3"/><path d="M441,145.12a1,1,0,0,1-.46.14c-.3,0-.5-.3-.62-.57-.66-1.43-.28-3.3-1.3-4.51a15.41,15.41,0,0,0-2.47,4.14l-3.89-1.2a5.76,5.76,0,0,0,.74,4.45,5.83,5.83,0,0,0-1.83,1.25,2,2,0,0,0-.48,2.05,10.13,10.13,0,0,0,2.74.28,18.2,18.2,0,0,0,.3,5.1.94.94,0,0,0,.33.65c.28.18.66,0,.95-.16a9,9,0,0,0,3.19-3.39l1.45,3.45a1.55,1.55,0,0,0,.64.87,1,1,0,0,0,1.21-.42,3,3,0,0,0,.43-1.31l.54-3.28a.85.85,0,0,1,.18-.47.83.83,0,0,1,.58-.16c1.37,0,2.74-.06,4.11-.05.23-.72-.49-1.4-1.2-1.71s-1.53-.54-1.88-1.22c-.72-1.39,1.13-3.32.35-4.51C443.67,143.14,442.17,144.53,441,145.12Z" transform="translate(-28 -78.56)" fill="#6c63ff" opacity="0.2"/><path d="M486.09,229.54a.91.91,0,0,1-.46.13c-.29,0-.49-.29-.62-.56-.66-1.44-.28-3.3-1.3-4.51a15.51,15.51,0,0,0-2.47,4.14l-3.88-1.2a5.76,5.76,0,0,0,.73,4.45,6.1,6.1,0,0,0-1.83,1.24,2,2,0,0,0-.47,2.06,9.7,9.7,0,0,0,2.74.27,18.25,18.25,0,0,0,.29,5.11,1,1,0,0,0,.33.65.94.94,0,0,0,1-.16,9.06,9.06,0,0,0,3.2-3.39l1.44,3.45a1.61,1.61,0,0,0,.65.87,1.05,1.05,0,0,0,1.21-.42,3.12,3.12,0,0,0,.43-1.31l.54-3.29a.85.85,0,0,1,.18-.46.81.81,0,0,1,.57-.17c1.37,0,2.74-.05,4.11,0,.24-.73-.49-1.4-1.19-1.71s-1.53-.54-1.88-1.22c-.72-1.39,1.13-3.32.34-4.51C488.79,227.56,487.29,228.94,486.09,229.54Z" transform="translate(-28 -78.56)" fill="#6c63ff" opacity="0.3"/><path d="M535.13,636.59a14.68,14.68,0,0,0,1.66-7.68,30.47,30.47,0,0,0-.5-3.43,54.78,54.78,0,0,0-1.3-5.81c-.61-2-1.44-3.95-2.16-5.92-1.08-3-1.89-6.08-2.76-9.14-.05-.17-.1-.33-.14-.5-.2-.68-.4-1.36-.61-2a3.77,3.77,0,0,1,1.24.31,2.54,2.54,0,0,1-.55-1,1.33,1.33,0,0,0,0-.19,28.61,28.61,0,0,1-.9-4.55c-.12-1-.18-2-.21-3l.79-.34a19.9,19.9,0,0,0-.38-7.52c.31-2.73.73-5.47,1.09-8.2.18-1.26.34-2.52.47-3.78.16-1.48.11-3.35-1.26-3.72-.28-2.12-.4-4.27-.51-6.42q-.57-11.24-1.16-22.47c-.39-7.51-.78-15-.94-22.54l0-1.54a58.1,58.1,0,0,0-1.26-12.76,19.83,19.83,0,0,0,0-2.31,15.24,15.24,0,0,0-.18-1.91,13.58,13.58,0,0,0-.52-2.25,14.1,14.1,0,0,0-2.72-4.87,12.53,12.53,0,0,0-9.45-4.66h-.38c-.32-.45-.65-.88-1-1.31a25.17,25.17,0,0,0-2.19-2.42,21,21,0,0,0-2.74-2.27c.47-1,1-2.12,1.5-3.15.67-1.35,1.34-2.64,2-3.76a19.68,19.68,0,0,0,3.64-1.59,22.86,22.86,0,0,0,11.51-20.1,24.28,24.28,0,0,0-.49-4.86,23.53,23.53,0,0,0-2.07-5.91c.12-.34.24-.68.34-1l.06-.23a10.25,10.25,0,0,0-.42-6,14.7,14.7,0,0,0-.94-2.16c-.24-.47-.5-.93-.77-1.37-.14-.23-.28-.45-.43-.67-.29-.43-.59-.86-.89-1.26l-.27-.35a27.6,27.6,0,0,0-1.85-2.2,21.06,21.06,0,0,0-3-2.71,13.23,13.23,0,0,0-5-2.31,14.93,14.93,0,0,0-3.19-.3c-.65,0-1.29,0-1.94.07-1.29.06-2.59.16-3.88.15q-.65,0-1.29-.06a49.06,49.06,0,0,1-6.73-1.4c-.37-.09-.74-.17-1.12-.24s-.75-.14-1.13-.19a21.13,21.13,0,0,0-3.08-.18l-1,0c-1,0-2.05.17-3.07.32l-1,.16a29.15,29.15,0,0,0-7.48,2.22c-.32.14-.62.3-.93.46l-.19.1-.73.42-.15.09-.78.5-.07.05c-7.38,5-11.74,14.36-12.84,23.69a55.15,55.15,0,0,0-.3,8.9c.29,7.53,1.84,15.05,3.39,22.44l2,9.32c.09.41.18.83.26,1.24l-.22.18a20.66,20.66,0,0,0-5.9,8.32,30.89,30.89,0,0,0-1.81,11.63v0c0,1,0,2,.05,3.06s.06,2,.16,3.07l-.15,1.26c-.17,1.51-.32,3-.41,4.56-.08,1.22-.13,2.44-.15,3.67-.17,7.81.62,15.63.37,23.44,0,.21,0,.41,0,.62a1.34,1.34,0,0,1,0,.2c-.18,4.38-.64,8.75-.8,13.12a61.27,61.27,0,0,0,.07,6.91c.45,6.14,2.1,12.1,3.74,18l2.34,8.45a2.3,2.3,0,0,0,.59,1.16,1.8,1.8,0,0,0,1.31.27c-.26.56-.5,1.13-.74,1.7a77.9,77.9,0,0,0-3.16,8.83,33.38,33.38,0,0,0-1.38,6.86,24,24,0,0,0,0,2.94.09.09,0,0,0,0,.07,55.28,55.28,0,0,0,1.69,9.61q2.22,9.33,4.43,18.66c0,.06,0,.13,0,.19q1.54,6.45,3.08,12.91c2,8.6,4.1,17.26,4.48,26.12a56.18,56.18,0,0,1-.93,13.27,115.77,115.77,0,0,0-1.15,39.81A196.35,196.35,0,0,0,477,772.21l.78-.39c.5-.26,1-.5,1.52-.73l-.33.6c-.08.14-.16.27-.23.41q-1.28,2.24-2.38,4.56c-.13.24-.24.49-.36.74a35,35,0,0,0-1.59,3.92C473.2,785,473,789,472.85,792.9a6.05,6.05,0,0,0,.19,2.25,4.66,4.66,0,0,0,3.35,2.51,21.14,21.14,0,0,0,5.91.73,52.44,52.44,0,0,0,6.45-.54,1.52,1.52,0,0,0,.06.2.19.19,0,0,0,0,.07c.51,1.41,2,2.12,3.35,2.51a21.33,21.33,0,0,0,6.65.71c3.68-.1,7.39-.82,11.07-1.17,5.82-.56,11.74-.16,17.44-1.52a8.31,8.31,0,0,0,2.41-.88,8,8,0,0,0,3-4.23,6,6,0,0,0,.35-1.38c.19-2.06-1.51-3.85-3.35-4.52s-3.84-.57-5.78-.78a17.92,17.92,0,0,1-10.65-5.16,19.41,19.41,0,0,1-4.26-6.49c.62.22,1.23.45,1.85.7a6.77,6.77,0,0,1-.3-.82,9.33,9.33,0,0,1-.4-2,11.25,11.25,0,0,1,0-2.17,32,32,0,0,1,2.5-8.6q4.35-11.12,8.22-22.43c6.52-19,12.08-38.84,12-59.1,0-7.32-1.35-14.24-1.61-21.56-.17-4.93.5-9.85.59-14.78,0-.5,0-1,0-1.5q0-1.14-.06-2.28A13.48,13.48,0,0,0,535.13,636.59ZM474,572.19a5.55,5.55,0,0,1-1.8,2.87c-.22.23-.43.48-.62.72s-.35.43-.51.64q-.26-3.76-.54-7.51l-.12-1.63.3.25.24.22a20.16,20.16,0,0,1,2.24,2.38,3.64,3.64,0,0,1,.78,1.43,2.17,2.17,0,0,1,0,.62Zm36.19,129.39a23.31,23.31,0,0,1-1.85,6.3,120.3,120.3,0,0,0-9.54,29.9,138.57,138.57,0,0,0-2.11,20.67c-.08,4.72.08,9.63-1.57,14-.14.37-.29.72-.45,1.08l.77-.12c-.2.38-.4.76-.59,1.1l-.1.18-.12.21-.19-.35a19.45,19.45,0,0,1-2.1-5.51c-.09-.39-.17-.78-.23-1.17,0,0,0-.05,0-.08s-.42-.16-1.07-.19a192.72,192.72,0,0,1-2.71-44.5,21.25,21.25,0,0,1,.74-5.35c.48-1.5,1.28-2.86,1.89-4.31a31.4,31.4,0,0,0,1.9-7.56,108,108,0,0,0,1.17-20c-.22-6.31,1.24-12.59,2.49-18.87.11-.55.21-1.09.32-1.64.46-2.44.87-4.88,1.11-7.32l.06-.61c.63,1,1.25,2.06,1.83,3.12A91.22,91.22,0,0,1,509.4,687,42.46,42.46,0,0,1,510.18,701.58Z" transform="translate(-28 -78.56)" fill="url(#b150bed3-50d4-4a2d-b475-394527b87b3c)"/><path d="M457.52,509l-1,7.9c-.35,2.67-.7,5.34-.88,8-.62,8.94.53,17.91.23,26.87-.23,6.9-1.33,13.79-.8,20.66.47,6.09,2.2,12,3.92,17.85l2.46,8.37a2.24,2.24,0,0,0,.62,1.15,2.18,2.18,0,0,0,1.56.25l10.89-1c-.69-3.19-1.47-6.53-1.84-9.78-.3-2.57-.48-5.16-.66-7.74-.58-8.05-1.24-16.09-1.9-24.13L469,543.33c-.5-6.13-1-12.29-2.55-18.24A36.34,36.34,0,0,0,457.52,509Z" transform="translate(-28 -78.56)" fill="#6c63ff"/><path d="M457.52,509l-1,7.9c-.35,2.67-.7,5.34-.88,8-.62,8.94.53,17.91.23,26.87-.23,6.9-1.33,13.79-.8,20.66.47,6.09,2.2,12,3.92,17.85l2.46,8.37a2.24,2.24,0,0,0,.62,1.15,2.18,2.18,0,0,0,1.56.25l10.89-1c-.69-3.19-1.47-6.53-1.84-9.78-.3-2.57-.48-5.16-.66-7.74-.58-8.05-1.24-16.09-1.9-24.13L469,543.33c-.5-6.13-1-12.29-2.55-18.24A36.34,36.34,0,0,0,457.52,509Z" transform="translate(-28 -78.56)" opacity="0.1"/><path d="M476.92,777.61a34.24,34.24,0,0,0-1.67,3.89c-1.25,3.67-1.44,7.6-1.62,11.48a5.52,5.52,0,0,0,.21,2.22c.53,1.39,2.07,2.1,3.51,2.49,6,1.62,12.4.09,18.62-.46s12.33-.16,18.31-1.5a9.38,9.38,0,0,0,2.53-.88,7.9,7.9,0,0,0,3.21-4.19,5,5,0,0,0,.36-1.37c.2-2-1.58-3.81-3.51-4.48s-4-.56-6.08-.77a19.14,19.14,0,0,1-17-16c-.07-.44-10.07-.18-11.13.4-1.23.67-2,2.36-2.67,3.5Q478.36,774.71,476.92,777.61Z" transform="translate(-28 -78.56)" fill="#3f3d56"/><path d="M476.92,777.61a34.24,34.24,0,0,0-1.67,3.89c-1.25,3.67-1.44,7.6-1.62,11.48a5.52,5.52,0,0,0,.21,2.22c.53,1.39,2.07,2.1,3.51,2.49,6,1.62,12.4.09,18.62-.46s12.33-.16,18.31-1.5a9.38,9.38,0,0,0,2.53-.88,7.9,7.9,0,0,0,3.21-4.19,5,5,0,0,0,.36-1.37c.2-2-1.58-3.81-3.51-4.48s-4-.56-6.08-.77a19.14,19.14,0,0,1-17-16c-.07-.44-10.07-.18-11.13.4-1.23.67-2,2.36-2.67,3.5Q478.36,774.71,476.92,777.61Z" transform="translate(-28 -78.56)" opacity="0.1"/><path d="M493.5,780.56a34.88,34.88,0,0,0-1.67,3.88c-1.25,3.68-1.44,7.61-1.61,11.49a5.36,5.36,0,0,0,.2,2.22c.53,1.39,2.07,2.1,3.52,2.49,6,1.62,12.39.09,18.61-.47s12.33-.15,18.31-1.49a9.33,9.33,0,0,0,2.54-.88,7.93,7.93,0,0,0,3.2-4.19,5,5,0,0,0,.36-1.37c.2-2-1.58-3.81-3.51-4.48s-4-.56-6.08-.77a19.17,19.17,0,0,1-16.95-16c-.07-.45-10.07-.18-11.13.39-1.23.68-2,2.37-2.67,3.51Q494.94,777.66,493.5,780.56Z" transform="translate(-28 -78.56)" fill="#3f3d56"/><path d="M536.75,681.85c.13,20.08-5.71,39.71-12.56,58.58q-4.07,11.22-8.63,22.23c-1.8,4.35-3.83,9.18-1.9,13.47-5.56-2.11-11.25-3.36-17.12-2.39,2.24-4.55,2-9.84,2.13-14.91a129.18,129.18,0,0,1,2.21-20.5,114,114,0,0,1,10-29.62,22.57,22.57,0,0,0,1.94-6.25A39.63,39.63,0,0,0,512,688a86,86,0,0,0-12-29.36q0,.3-.06.6a86.38,86.38,0,0,1-1.5,8.89c-1.31,6.22-2.84,12.44-2.61,18.69a101.27,101.27,0,0,1-1.23,19.83,29.83,29.83,0,0,1-2,7.49c-.64,1.44-1.47,2.79-2,4.28a19.62,19.62,0,0,0-.78,5.29,179.12,179.12,0,0,0,3.09,45.3,28.9,28.9,0,0,0-15,3.41,184.53,184.53,0,0,1-7.9-32.62,108.39,108.39,0,0,1,1.21-39.45,53.28,53.28,0,0,0,1-13.16c-.4-8.78-2.56-17.37-4.71-25.89l-3.27-13q-2.32-9.25-4.66-18.5c-1-4.1-2.07-8.29-1.75-12.51a31.11,31.11,0,0,1,1.45-6.8,75.89,75.89,0,0,1,10.29-21c17.9,1,36-.67,53.9-2a2.68,2.68,0,0,1,3.55,2.73l6.72,38.06a95.9,95.9,0,0,1,1.91,16.08c0,5.39-.84,10.76-.64,16.14C535.34,667.73,536.71,674.59,536.75,681.85Z" transform="translate(-28 -78.56)" fill="#33313f"/><path d="M500,659.28a86.38,86.38,0,0,1-1.5,8.89c-3.9-6.74-8.09-13.31-11.68-20.21-.92-1.78-1.8-3.58-2.69-5.38l-2.64-5.4c-.49-1-1-2-1.44-3a22.69,22.69,0,0,1-1.66-4.68c1.3-.24,4.51,3.28,5.48,4.19a76.31,76.31,0,0,1,5.6,6.18,66.9,66.9,0,0,1,5.82,7.61A37,37,0,0,1,500,659.28Z" transform="translate(-28 -78.56)" opacity="0.1"/><path d="M514.89,474.43s-9.94,15.84-8.1,19.16-31.32-2.95-31.32-2.95,18-15.84,16.21-22.48S514.89,474.43,514.89,474.43Z" transform="translate(-28 -78.56)" fill="#efb7b9"/><circle cx="478.05" cy="378.18" r="22.48" fill="#efb7b9"/><path d="M515.23,491a23,23,0,0,0-9.46-7.63,34.09,34.09,0,0,0-6.71-1.65l-9-1.58c-2.2-.39-4.55-.75-6.59.15a10.82,10.82,0,0,0-2.81,2.06c-3.11,2.88-6.13,6.06-10,7.72-1.07.46-2.19.79-3.26,1.25-4.37,1.88-7.64,5.82-9.5,10.2-1.95,4.6-2,9.58-1.85,14.57a25.87,25.87,0,0,0,.51,5.13,33.1,33.1,0,0,0,1.7,4.71,84.41,84.41,0,0,1,3.1,10q3.5,13.35,5.8,27a10.3,10.3,0,0,0,1.13,3.73,13.27,13.27,0,0,0,3.1,3,21.12,21.12,0,0,1,2.6,2.58,3.54,3.54,0,0,1,.82,1.41c.29,1.35-.9,2.49-1.86,3.47a16.85,16.85,0,0,0-4.2,7.31,2.9,2.9,0,0,0-.66,2,2.3,2.3,0,0,1-.64,2.91,5,5,0,0,0-.93,4,63.1,63.1,0,0,0,22,5.16c1.86.08,3.72.08,5.57.31,1.31.16,2.61.44,3.93.6a42.69,42.69,0,0,0,5.77.14c10-.2,20.3-.45,29.49-4.42.86-4.71-1-9.51-2.17-14.16-1.86-7.39-2.33-15-3.71-22.54-.95-5.13-2.33-10.18-3.11-15.33s-1-10.5.44-15.52c1.25-4.45,1.63-9,2.93-13.41s2.22-9.24.75-13.62C526.59,495,521,490.74,515.23,491Z" transform="translate(-28 -78.56)" fill="#6c63ff"/><path d="M526.27,444.82c1.09-4-1.06-8.14-3.63-11.38-2.77-3.49-6.34-6.63-10.69-7.5-3.55-.72-7.22.14-10.82-.14-3.19-.26-6.25-1.4-9.43-1.81a30,30,0,0,0-8.62.32,31.82,31.82,0,0,0-7.85,2.2c-9.57,4.24-15.18,14.71-16.48,25.09s1,20.85,3.25,31.07l2.05,9.23c2.13,9.61,4.27,19.28,4.84,29.11s-.49,19.92-4.53,28.89a62.17,62.17,0,0,0,28.55-32.33c1.46-3.8,2.53-7.74,4.14-11.48,1.39-3.22,3.16-6.26,4.39-9.54a31.18,31.18,0,0,0,2-11.6c-.07-3-.57-5.92-.48-8.9s.84-6.07,2.9-8.22c1.82-1.91,4.42-2.82,6.77-4a28.07,28.07,0,0,0,9.46-7.89c1.48-1.93,1.56-2.76,1.94-5S525.69,446.93,526.27,444.82Z" transform="translate(-28 -78.56)" fill="#33313f"/><path d="M526.3,613.68c.22,2.31-.19,4.68.31,7,.38,1.7,1.26,3.25,1.78,4.92a23,23,0,0,1,.79,5.92c.08,1.67,0,3.71-1.54,4.49-.65.35-1.43.36-2.11.65s-1.25,1.11-.87,1.73,1.07.54,1.68.66,1.27.75.92,1.26a1.11,1.11,0,0,1-.54.35,6.21,6.21,0,0,0-1.74.83,1.77,1.77,0,0,0-.72,1.7,1.05,1.05,0,0,0,1.5.69,4.74,4.74,0,0,0-.44,1.85c2.37,1,5-.31,7.27-1.61a27.06,27.06,0,0,0,2.8-1.78,14,14,0,0,0,5.4-11.86,26.12,26.12,0,0,0-.53-3.4,51.27,51.27,0,0,0-1.36-5.76c-.64-2-1.52-3.91-2.27-5.87-1.61-4.17-2.64-8.54-4.08-12.77a2,2,0,0,0-.7-1.11,2,2,0,0,0-1-.19,17.08,17.08,0,0,0-4.84.45c-1,.28-2.53.89-3,1.89s.26,1.72.67,2.49A20.85,20.85,0,0,1,526.3,613.68Z" transform="translate(-28 -78.56)" fill="#efb7b9"/><path d="M524.78,500.76a6.8,6.8,0,0,1,1.19,1.66c3.19,5.8,3.23,12.75,3.38,19.37.17,7.46.58,14.91,1,22.35l1.22,22.27c.11,2.13.23,4.26.53,6.37,1.43.36,1.49,2.22,1.33,3.69-1,9.08-3.59,18.44-.91,27.18a2.65,2.65,0,0,0,.63,1.22,7.18,7.18,0,0,0-4.16-.06c-1.33.28-2.62.77-4,1.07-1.69.39-3.61.55-4.76,1.85a92.9,92.9,0,0,1-3.11-12c-.63-3.7-.81-7.55-2.31-11-.61-1.39-1.43-2.68-2.17-4-3.9-7-5.81-14.81-7.68-22.56a33,33,0,0,1-.59-11.21,40.56,40.56,0,0,0,.47-5.15,43.41,43.41,0,0,0-.72-5.43,36.44,36.44,0,0,1,1.08-15.71c1.4-4.73,2.63-9.71,5.55-13.69S519.84,500.83,524.78,500.76Z" transform="translate(-28 -78.56)" opacity="0.1"/><path d="M525.88,500a6.49,6.49,0,0,1,1.19,1.65c3.2,5.81,3.24,12.75,3.39,19.38.17,7.45.57,14.9,1,22.35l1.22,22.26c.12,2.13.24,4.26.53,6.37,1.44.36,1.5,2.22,1.33,3.69-1,9.09-3.58,18.44-.9,27.19a2.69,2.69,0,0,0,.62,1.21,7.23,7.23,0,0,0-4.15-.06c-1.34.28-2.62.77-4,1.07-1.69.39-3.61.56-4.77,1.85a93.69,93.69,0,0,1-3.11-12c-.63-3.7-.8-7.54-2.31-11-.61-1.39-1.42-2.67-2.16-4-3.9-7-5.81-14.82-7.68-22.56a33.27,33.27,0,0,1-.6-11.21,40.72,40.72,0,0,0,.47-5.16,41.6,41.6,0,0,0-.71-5.43,36.45,36.45,0,0,1,1.08-15.71c1.4-4.73,2.62-9.71,5.55-13.68S521,500.09,525.88,500Z" transform="translate(-28 -78.56)" fill="#6c63ff"/><g opacity="0.1"><path d="M522.64,433.44c-2.77-3.49-6.34-6.63-10.69-7.5-3.55-.72-7.22.14-10.82-.14-3.19-.26-6.25-1.4-9.43-1.81a30,30,0,0,0-8.62.32,31.82,31.82,0,0,0-7.85,2.2,22.72,22.72,0,0,0-3.88,2.2,33.94,33.94,0,0,1,6.94-1.82,30,30,0,0,1,8.62-.32c3.18.41,6.24,1.55,9.43,1.81,3.6.28,7.27-.58,10.81.13,4.36.88,7.93,4,10.7,7.51,2.57,3.24,4.72,7.39,3.63,11.38-.58,2.11-1.91,3.94-2.28,6.11s-.46,3.05-1.94,5a28.41,28.41,0,0,1-6.82,6.35c.72-.34,1.45-.68,2.15-1a28.07,28.07,0,0,0,9.46-7.89c1.48-1.93,1.56-2.76,1.94-5s1.7-4,2.28-6.11C527.36,440.83,525.21,436.68,522.64,433.44Z" transform="translate(-28 -78.56)"/><path d="M505.82,467.83a10,10,0,0,1,1.25-1.09c-2.14,1-4.4,2-6,3.67-2.06,2.15-2.81,5.25-2.9,8.22s.41,5.93.48,8.9a31.22,31.22,0,0,1-2,11.6c-1.23,3.28-3,6.32-4.39,9.54-1.61,3.74-2.68,7.68-4.14,11.48a62.24,62.24,0,0,1-23.6,29.38c-.06.12-.11.25-.16.37a62.17,62.17,0,0,0,28.55-32.33c1.46-3.8,2.53-7.74,4.14-11.48,1.39-3.22,3.16-6.26,4.39-9.54a31,31,0,0,0,2-11.6c-.07-3-.57-5.92-.48-8.9S503.76,470,505.82,467.83Z" transform="translate(-28 -78.56)"/></g><path d="M743.27,512a17.9,17.9,0,0,0-.45-3.59c-.9-3.38-2.93-7.47-6.27-8.49a52.64,52.64,0,0,1-9.94-4.2c0-.31,0-.61,0-.92-.28-6.95.62-14,.49-20.92,0-.19,0-.39,0-.59a43,43,0,0,0-1.25-9.65c-1-3.8-2.65-7.44-3.09-11.33,0-.25-.05-.5-.07-.74-.2-2.61.06-5.28,0-7.88v-.08a15.47,15.47,0,0,0-1.09-5.76c-1.52-3.52-4.86-6-8.45-7.3s-7.46-1.65-11.27-2c-4.8-.39-20.34-2.23-25.76,2.06a5.66,5.66,0,0,0-1,1l0,0a4,4,0,0,0-.32.52l-.05.08a4.06,4.06,0,0,0-.27.65h0a5.06,5.06,0,0,0-.17.75c0,.08,0,.16,0,.24s0,.35,0,.53v.27c0,.18,0,.36,0,.55s0,.14,0,.21c.07.9.2,1.8.2,2.69a5.79,5.79,0,0,1-.12,1.32,9.24,9.24,0,0,1-1.66,3.24l-.18.26c-.11.16-.22.31-.32.47s-.18.28-.26.42-.16.23-.23.36a4.89,4.89,0,0,0-.26.51c0,.1-.11.19-.15.29a4.94,4.94,0,0,0-.3.84,5.58,5.58,0,0,0-.06,2.66l.09.38v0a10.48,10.48,0,0,0,1.27,2.75c.25.41.52.81.8,1.21l.7.95-.09.75a19.26,19.26,0,0,0,.3,6.15,20.7,20.7,0,0,0,7.48,12.16c0,.34.07.68.09,1a62.39,62.39,0,0,1-.22,11.66c-.09.88-.2,1.77-.32,2.65s-.21,1.46-.33,2.19a10.15,10.15,0,0,1-4.37-.33,20.59,20.59,0,0,0-2-.77c-2.91-.73-5.88,2.17-8.76,1.29,0,.14-.08.27-.13.4a3.92,3.92,0,0,0-2-.59c-1.71-.08-3.1-1.32-4.34-2.49l-3.81-3.59a4.21,4.21,0,0,1-.66-.74,5.19,5.19,0,0,1-.46-1.23c-.64-2.07-2.19-3.72-3.69-5.29a2.5,2.5,0,0,0-1.09-.79,1.68,1.68,0,0,0-.5,0,4.39,4.39,0,0,0-.33-.4,9.41,9.41,0,0,0-.83-.84c-1.82-1.68-2-3.12-3.58-5a43.34,43.34,0,0,1-3.56-5.36l-.18-.29c-.13-1.05-.31-2.13-.53-3.22q-.2-.95-.42-1.86v0a40.43,40.43,0,0,0-1.76-5.41l-2-4.43-.23.23c-1.45-2.16-3-3.34-4.39-3.06-2.33.48-3.48,5-3.11,10.91l.8,6c0,.15.07.3.11.45a11.07,11.07,0,0,0-.22,2.16,1.73,1.73,0,0,0,.33,1c.27.41.63.79.86,1.22s.33.63.48,1a6.23,6.23,0,0,1,.5,1.43s0,.06,0,.09a3.61,3.61,0,0,1,0,.93c-.05.43-.18.84-.2,1.26a3.31,3.31,0,0,0,.35,1.51,10.36,10.36,0,0,0,.59,1.09l5,8.4,1,1.76.06.08.29.46a3.5,3.5,0,0,0,1,1.08c0,.31.07.61.11.92a18.66,18.66,0,0,0,.65,2.85.32.32,0,0,0,0,.09,16,16,0,0,0,.86,2.21c.17.38.36.74.56,1.1a35.37,35.37,0,0,0,4.72,6.13l2.38,2.67c2.35,2.62,4.7,5.25,7.25,7.67a9.71,9.71,0,0,0,3.24,2.27,3.67,3.67,0,0,0,3.64-.53c0,.39,0,.79,0,1.18,0,.85,0,1.69,0,2.54l.2,0a2.51,2.51,0,0,1,1.54,1.09,1.46,1.46,0,0,1,.17.87,4.56,4.56,0,0,1-.33,1.28c-2.1,5.39-4.22,10.83-7.4,15.66l.58.38a30.15,30.15,0,0,1,5.62,4.35,27.88,27.88,0,0,1,3.23,4.37c0,.22.05.44.07.65.06.52.1,1,.13,1.55.74,11.92-3.87,23.75-8,35.11-1.19,3.22-2.49,6.59-2.39,9.94a19.51,19.51,0,0,0-2.24,1.61c.82,2.14.5,4,.41,6.34a11.23,11.23,0,0,1-.83,4,28.12,28.12,0,0,1-1.44,2.57c-2.59,4.57-3.16,10-3.68,15.22-.31,3.15.91,7-.52,9.82-2.47,4.84-4.66,10-5,15.38a15.42,15.42,0,0,1-.46,3.59c-.31,1-.86,1.85-1.14,2.83a12.11,12.11,0,0,0-.2,4,38.28,38.28,0,0,1-2.1,14.11c-1.25,3.57-2.63,7.39-1.65,11.06a15.59,15.59,0,0,0-4.23,9.29,14.65,14.65,0,0,1-.32,2.65,12.89,12.89,0,0,1-1.2,2.55,22.32,22.32,0,0,0-2.72,12c-3,4.07-4.5,9.09-5.39,14.08s-1.28,10.07-2.42,15c-1.52,6.52-4.27,13.11-4.81,19.79-3.24,2.07-4.64,6.08-5.26,9.87s-.72,7.77-2.31,11.27c-.61,1.36-1.44,2.61-2.13,3.93a14.44,14.44,0,0,0-.65,1.38,24.38,24.38,0,0,0-1.2,4.57c-.48,2.44-.9,5.16-.31,7.5a10.21,10.21,0,0,1-2.38,1.9,6.16,6.16,0,0,1-.55.33c.11-.42.2-.84.28-1.26,0-.2.08-.41.12-.61-2.58,2.34-7.26,1.52-9.32,4.33a4.22,4.22,0,0,0,1,5.79,5.65,5.65,0,0,0,1.26.61l.81.28c5,1.6,10.14,3.21,15.28,2.36a4.56,4.56,0,0,0,1.73-.55,5.57,5.57,0,0,0,1.61-1.86c.76-1.2,1.51-2.4,2.26-3.6l0-.06.41.12a47.08,47.08,0,0,0,5.2,1.19.57.57,0,0,1,0,.13c.19,1.56.32,3.11.39,4.67l.34.06c1,.14,2,.1,2.47-.73a2.43,2.43,0,0,0,.17-1.11c0-.67.09-1.55.15-2.46,0,0,0-.1,0-.15h.36a19,19,0,0,0,8.69-1.79c-.81-6.67,1-13.23,3.25-19.65.73-2.1,1.51-4.18,2.27-6.25,3.23-8.82,6-17.8,8.79-26.78,2-6.32,4.21-12.44,6.17-18.77q3.7-12,7.43-24.05c1.08-3.52,2.17-7,3.41-10.5a163.57,163.57,0,0,1,9.27-20.63c1-1.89,2-3.76,2.82-5.72,1-2.39,1.71-4.89,2.51-7.36a114,114,0,0,1,6.28-14.78c.07-.13.12-.25.19-.37,0,.1,0,.21.07.31s.06.21.08.31c.76,3.11,1.5,6.26,2,9.42a38,38,0,0,1,.17,12.36c-.48,2.79-1.39,5.55-1.28,8.38a15.42,15.42,0,0,0,.75,4l.08.26c.64,2,1.53,4,2.16,6a2.41,2.41,0,0,1,.08.25c.07.22.14.44.2.66a42.74,42.74,0,0,1,1.12,8.6c.28,4.5,2.72,9.55,1,13.72-5.35,13.21-2.76,28.13-5.81,42.05-1.57,7.12-6.38,13.81-6,21.09.21,4,.52,8,1,12,.12,1.17.25,2.34.4,3.51a14.71,14.71,0,0,0,1.1,4.56,17.22,17.22,0,0,0,1.37,2.24c-.44.17-.81.62-1.13,1.57a6.28,6.28,0,0,0,1.27,6.18.52.52,0,0,0,.1.11,4.6,4.6,0,0,0,.85.66,9.72,9.72,0,0,0,2.89,1,15.22,15.22,0,0,0,4.18.58,8.25,8.25,0,0,0,1.1-.13l.21,0,.32.13c1.45.59,2.92,1.13,4.41,1.57,0,0,0,.09,0,.13l.12,1.1a1.77,1.77,0,0,0,.36,1,.46.46,0,0,0,.16.15,1.56,1.56,0,0,0,.8.14l5.43,0c0-.39,0-.8,0-1.19v-.17h.11a4.36,4.36,0,0,0,3.34-1.12,5.34,5.34,0,0,0,1-2.08c1.41-4.78,2.81-9.58,4.2-14.36l.21-.71a48.18,48.18,0,0,0,2.15-17.2c-1.93-18.43,2.31-36.92.93-55.4a132.71,132.71,0,0,1,1.7-33.24c.45-2.48,1-5,1.2-7.47.44-4.66-.1-9.37.23-14.05.11-1.62.33-3.23.53-4.84a232.43,232.43,0,0,0,2.15-30.15c0-2.5-.15-5-.37-7.48,0-.57-.1-1.13-.17-1.69,0,0,0-.08,0-.12,0-.23,0-.45-.07-.68a5.71,5.71,0,0,0,2.73-1.6c.89-1.16.66-2.79.65-4.27,0-3.54,1.49-6.88,2.69-10.22a121.44,121.44,0,0,0,3.78-14.06,52.39,52.39,0,0,0,1.68-10.94,2.26,2.26,0,0,0,0-.26v0c0-.17,0-.33,0-.5s0-.28,0-.42,0-.52,0-.78a3.1,3.1,0,0,0,.92-1,5.81,5.81,0,0,0,.48-1.85c.36-2.55.73-5.11,1.09-7.67q.4-2.74.79-5.49l3.18-22.19c.27-1.93.55-3.85.82-5.77s.55-3.83.83-5.74l.12-.88c0-.39.1-.77.14-1.16a.83.83,0,0,0,.09-.16,7.74,7.74,0,0,0,1-3.68,1.33,1.33,0,0,0,0-.2C744.61,518.73,743.45,515.16,743.27,512Zm-26.53,83.08a23.84,23.84,0,0,1-1.91-6.1v0a11.66,11.66,0,0,1-.1-1.68.71.71,0,0,1,0-.14c0-.24,0-.49,0-.74l-.11,0a5.43,5.43,0,0,0,.17-1.32,4.27,4.27,0,0,0-.3-1.5c-.31-.73-.85-1.35-1.18-2.08a5.48,5.48,0,0,1-.42-1.5,11.42,11.42,0,0,1-.12-1.3,74.4,74.4,0,0,1,1.26-17.16c0-.33.11-.65.17-1l.21-1.1c.06-.34.13-.67.19-1l.29-.19a4.4,4.4,0,0,0,.85-.7,8.11,8.11,0,0,0,1.29-2c1.13-2.27,2.16-4.58,3.11-6.93.31-.76.76-1.64,1.53-1.83,0,.3,0,.59,0,.89-.09,5.56.34,11.2-1.92,16.21a10.82,10.82,0,0,0-1,2.7,6.42,6.42,0,0,0,0,1.75c.07.6.17,1.21.19,1.81a4.69,4.69,0,0,1,0,.92c-.11.77-.44,1.48-.57,2.24a2.75,2.75,0,0,0,0,1.21,0,0,0,0,0,0,0,1.67,1.67,0,0,0,.55.89,1.75,1.75,0,0,0,.43.22c0,.25-.07.5-.1.75s0,.3,0,.45c-.08.82-.12,1.59-.17,2.07a64.5,64.5,0,0,0-.27,7.36c0,2.65.1,5.3.06,8a5.43,5.43,0,0,1-.38,2.27,3.94,3.94,0,0,1-.76,1C717.4,596.62,717.08,595.83,716.74,595.05Z" transform="translate(-28 -78.56)" fill="url(#eba2aeb6-e081-474a-b312-4768ced23b8d)"/><ellipse cx="634.59" cy="463.4" rx="5.64" ry="15.97" transform="translate(-108.09 58.23) rotate(-11.58)" fill="#fbbebe"/><path d="M684.4,800.44a6,6,0,0,0,2.22,6.94,9.87,9.87,0,0,0,2.87,1,15.15,15.15,0,0,0,4.17.58c1.73-.09,3.39-.76,5.12-1a.85.85,0,0,1,.59.09.83.83,0,0,1,.22.69,26.43,26.43,0,0,0,.22,3,1.53,1.53,0,0,0,.52,1.13,1.56,1.56,0,0,0,.8.14l5.42,0A52.86,52.86,0,0,0,705,798.79a3.16,3.16,0,0,0-.4-1,3.24,3.24,0,0,0-1.73-1,9.67,9.67,0,0,0-4.19-.73c-1.75.22-3.21,1.36-4.7,2.3s-3.52,1.77-5.33,1.28S685.33,797.66,684.4,800.44Z" transform="translate(-28 -78.56)" fill="#3f3d56"/><path d="M604.82,796.05a15,15,0,0,1-5.47,3.71l-.92.45a.59.59,0,0,0-.31.25.54.54,0,0,0,.1.45,6.48,6.48,0,0,0,7.34,2.67,3.89,3.89,0,0,0,1.61-.84,5.3,5.3,0,0,0,1.24-3.22,6.59,6.59,0,0,0-.15-3.69C606.87,792.69,606.36,794.12,604.82,796.05Z" transform="translate(-28 -78.56)" fill="#fbbebe"/><path d="M625.6,808.37a2.45,2.45,0,0,1-.17,1.11c-.47.92-1.78.86-2.8.67A67.43,67.43,0,0,0,621.4,800c-1.94-.08-3.34,1.76-4.38,3.41l-2.68,4.25a5.41,5.41,0,0,1-1.6,1.85,4.76,4.76,0,0,1-1.73.56c-5.12.85-10.29-.76-15.23-2.36a8.07,8.07,0,0,1-2.07-.88,4.23,4.23,0,0,1-1-5.78c2.07-2.8,6.72-2,9.3-4.32a23.28,23.28,0,0,1-1.32,4.77c3.45-.52,5.77-3.68,8.55-5.79a5.28,5.28,0,0,1,2.44-1.17,5.6,5.6,0,0,1,2,.22,23.31,23.31,0,0,1,8.8,4.33c1.05.83,2.69,2,3.15,3.28C626.12,803.94,625.6,806.74,625.6,808.37Z" transform="translate(-28 -78.56)" fill="#3f3d56"/><circle cx="666.39" cy="379.2" r="20.66" fill="#fbbebe"/><path d="M735.09,579.75a49,49,0,0,1-1.67,11.72,120.64,120.64,0,0,1-3.78,14c-1.19,3.33-2.68,6.67-2.67,10.2,0,1.47.24,3.09-.66,4.26a6.22,6.22,0,0,1-2.92,1.67,3.65,3.65,0,0,0-2.46,2.19,15.45,15.45,0,0,1-2.08-4.58q-2.69-8.24-5-16.57a2.15,2.15,0,0,1,.14-2,2.34,2.34,0,0,1,.87-.49,8.85,8.85,0,0,0,2.77-1.79,3.89,3.89,0,0,0,.92-1.18,5.44,5.44,0,0,0,.39-2.27c0-2.64,0-5.29-.07-7.93a66.34,66.34,0,0,1,.28-7.33c0-.48.09-1.25.17-2.07.15-1.58.45-3.39,1.3-4,1.27-.85,5.07.29,6.51.49,2.48.34,5,.74,7.42,1.21A19.81,19.81,0,0,1,735.09,579.75Z" transform="translate(-28 -78.56)" fill="#3f3d56"/><path d="M651.67,480.9c-.8,1.6-2.72,2.37-4.2,3.38l-5.07,3.48a3.46,3.46,0,0,1-2.51.86,3.3,3.3,0,0,1-1.87-1.75.9.9,0,0,0,0-.09L636.92,485l-5-8.38a4.77,4.77,0,0,1-.93-2.58c0-.43.15-.84.19-1.26a6.05,6.05,0,0,0-1-3.4c-.4-.75-1.2-1.37-1.18-2.21a8,8,0,0,1,.56-3.23,6.65,6.65,0,0,1,2.19-2.35c.47-.33.95-.65,1.45-.95a2.64,2.64,0,0,1,.87-.4c.83-.17,1.65.51,2.49.55,3.61,2.41,5,7,7.84,10.3,1.6,1.88,1.76,3.32,3.57,5,.29.26.57.54.84.83a5.81,5.81,0,0,1,.9,1.3C650.09,479.06,652.08,480.08,651.67,480.9Z" transform="translate(-28 -78.56)" fill="#3f3d56"/><path d="M687.13,478.48c1.49,3.15,2.65,6.61,2.22,10.07a6.34,6.34,0,0,1-.87,2.65c-1.44,2.21-4.46,2.6-7.09,2.74a4.18,4.18,0,0,0-3.08,1,2.79,2.79,0,0,0,.19,3.41,7.64,7.64,0,0,0,3.06,2c4.16,1.83,8.65,3.34,13.17,2.91,2.1-.19,4.14-.8,6.23-1.11a65.41,65.41,0,0,1,6.86-.38c2.72-.1,5.43-.37,8.14-.64l7.18-.71a1.6,1.6,0,0,0,1.07-.39c.53-.62-.15-1.53-.81-2-3.81-2.82-8.66-4.76-10.83-9-1-2-1.31-4.37-2.05-6.54s-1.92-4.1-2.38-6.3a41.81,41.81,0,0,1-.33-5.82,7.78,7.78,0,0,0-2-5.32c-1.43-1.33-3.5-1.67-5.44-1.76-4.78-.2-9.87.94-13.26,4.31-.91.91-1.69,2-2.63,2.82s-2.22,1.06-1.6,2.14,1.84,1.74,2.5,2.7A22.38,22.38,0,0,1,687.13,478.48Z" transform="translate(-28 -78.56)" fill="#fbbebe"/><path d="M727.86,507.52a113.25,113.25,0,0,1-6.12,22.53,85.65,85.65,0,0,0-3.6,10.11c-.77,3.1-.62,6.42-1.33,9.53-.88,3.87-1.76,7.75-2.47,11.65a76.35,76.35,0,0,0-1.42,18.08,7.58,7.58,0,0,0,.54,2.8c.33.72.86,1.34,1.17,2.08a5,5,0,0,1-.28,4,11.58,11.58,0,0,1-2.06,3.12c-9.32,2.78-19.29,1.87-29,2.45-8.95.55-18,2.39-26.82.86-1-4,.67-8.19,2.1-12.09,4.15-11.33,8.74-23.13,8-35a36.34,36.34,0,0,0-.47-4.12c-1.45-8.41.13-17.12,2.66-25.28,1.57-5.07,1.5-10.48,1.14-15.78a28.71,28.71,0,0,1-.07-5.16,9.06,9.06,0,0,1,1.88-4.83c0-.07.09-.14.14-.21s.44-.07.75,0h0c.2.05.4.08.5,0l.11-.07a.25.25,0,0,1,.29,0c.23.14.36.62.86.7a20,20,0,0,0,2.23.22,12,12,0,0,1,2.66.38l.12,0a7.81,7.81,0,0,0,3.88-.33,10.31,10.31,0,0,0,2.38-.92c.22-.24,1.6-.46,1.88-.63.91-.56.71-3.14.9-4.19a11.52,11.52,0,0,1,.75-3.1,5.28,5.28,0,0,1,4.28-2.49,21.68,21.68,0,0,1,5.13.46c3.73.53,7.55.44,11.21,1.29,1.84.44,3.85,1.09,5.54.25.46.1.53.51.53,1a6.54,6.54,0,0,1-.28,1.37c-.64,2.76,1.53,5.29,3.53,7.3a11.32,11.32,0,0,0,2.95,2.35c1,.46,2,.65,3,1.15a5.37,5.37,0,0,1,2,1.83,7.64,7.64,0,0,1,1.14,2.91A17.33,17.33,0,0,1,727.86,507.52Z" transform="translate(-28 -78.56)" fill="#3f3d56"/><path d="M727.86,507.52a113.25,113.25,0,0,1-6.12,22.53,85.65,85.65,0,0,0-3.6,10.11c-.77,3.1-.62,6.42-1.33,9.53-.88,3.87-1.76,7.75-2.47,11.65-.21.12-.43.22-.65.32a15.37,15.37,0,0,1-3.92,1.27,24.33,24.33,0,0,1-7.32-.24l-14.27-1.91c-5.7-.77-11.77-1.7-16-5.56-2.35-2.12-3.89-4.92-5.58-7.63a36.34,36.34,0,0,0-.47-4.12c-1.45-8.41.13-17.12,2.66-25.28,1.57-5.07,1.5-10.48,1.14-15.78a28.71,28.71,0,0,1-.07-5.16,9.06,9.06,0,0,1,1.88-4.83,7.17,7.17,0,0,1,.89-.21h0c.21,0,.41-.06.61-.07h.29a4.34,4.34,0,0,1,1,.11,18.17,18.17,0,0,1,2,.78l.12,0a7.9,7.9,0,0,0,2.66.38c1.32,0,2.68-.21,4-.3A7.44,7.44,0,0,1,688,494a30,30,0,0,1,2.64,2.42A11.82,11.82,0,0,0,694,498.2a35.39,35.39,0,0,0,26.62-.56,5.21,5.21,0,0,1,2.67-.68,5.15,5.15,0,0,1,1.92.81c.6.35,1.19.69,1.8,1a7.64,7.64,0,0,1,1.14,2.91A17.33,17.33,0,0,1,727.86,507.52Z" transform="translate(-28 -78.56)" opacity="0.1"/><path d="M736.57,500.9a52.85,52.85,0,0,1-11.4-5,5,5,0,0,0-1.92-.82,5.27,5.27,0,0,0-2.68.68,35.37,35.37,0,0,1-26.61.56,11.57,11.57,0,0,1-3.33-1.81,30,30,0,0,0-2.64-2.42c-3.29-2.13-7.84.38-11.52-1a18,18,0,0,0-2-.76c-2.91-.73-5.87,2.16-8.73,1.29a48.65,48.65,0,0,0-2.35,8.92,97.08,97.08,0,0,0-.65,10.52c0,2.11-.1,4.22,0,6.32a2.63,2.63,0,0,1,1.74,1.14,2.54,2.54,0,0,1-.16,2.14c-2.09,5.38-4.21,10.8-7.38,15.62a33.48,33.48,0,0,1,6.18,4.72c3.5,3.7,5.22,8.88,9,12.3,4.26,3.86,10.33,4.79,16,5.56l14.27,1.91a24.39,24.39,0,0,0,7.33.24,15.43,15.43,0,0,0,3.91-1.27,7,7,0,0,0,2.18-1.43,8.19,8.19,0,0,0,1.29-2c1.13-2.26,2.16-4.57,3.11-6.91.33-.83.83-1.81,1.73-1.87,5.3-4.78,10.3-9.68,15.6-14.46a35.29,35.29,0,0,0,5.69-6c2.63-3.89.24-9.41,0-14.1a18,18,0,0,0-.45-3.58C741.92,506,739.9,501.92,736.57,500.9Z" transform="translate(-28 -78.56)" fill="#6c63ff"/><path d="M651.67,480.9c-.8,1.6-2.72,2.37-4.2,3.38l-5.07,3.48a3.46,3.46,0,0,1-2.51.86,3.3,3.3,0,0,1-1.87-1.75c0-.24,0-.48,0-.72a6.65,6.65,0,0,1,.32-2.39,7.45,7.45,0,0,1,2.24-2.88,18.2,18.2,0,0,1,6.57-4,2.25,2.25,0,0,1,1.2-.12,1.58,1.58,0,0,1,.44.19,5.81,5.81,0,0,1,.9,1.3C650.09,479.06,652.08,480.08,651.67,480.9Z" transform="translate(-28 -78.56)" opacity="0.1"/><path d="M663.61,491.47c-1.7-.08-3.09-1.32-4.33-2.48l-3.79-3.59a3.26,3.26,0,0,1-.66-.73,5.36,5.36,0,0,1-.46-1.23,14.11,14.11,0,0,0-3.68-5.28,2.4,2.4,0,0,0-1.09-.78,2.19,2.19,0,0,0-1.21.12,18.15,18.15,0,0,0-6.57,4,7.39,7.39,0,0,0-2.24,2.88,6.65,6.65,0,0,0-.32,2.39,18.36,18.36,0,0,0,1.75,7.68c.17.37.36.74.56,1.1a34.63,34.63,0,0,0,4.7,6.11l2.38,2.66c2.34,2.61,4.68,5.23,7.22,7.65a9.54,9.54,0,0,0,3.24,2.26,3.6,3.6,0,0,0,3.72-.61,5.25,5.25,0,0,0,1.06-1.89c1.54-4,3-8.16,3.09-12.47a47,47,0,0,0-.22-5.17C666.6,492.26,665.31,491.55,663.61,491.47Z" transform="translate(-28 -78.56)" fill="#6c63ff"/><path d="M724.21,631.47a231.07,231.07,0,0,1-2.14,30.07c-.2,1.61-.42,3.21-.53,4.83-.33,4.67.21,9.36-.23,14-.23,2.5-.75,5-1.19,7.45a132.41,132.41,0,0,0-1.7,33.14c1.38,18.43-2.85,36.87-.93,55.25a44.6,44.6,0,0,1-.59,10.69,45.11,45.11,0,0,1-1.55,6.47q-2.19,7.51-4.4,15a5.1,5.1,0,0,1-1,2.07,4.71,4.71,0,0,1-3.75,1.12c-5.77-.18-11.2-2.67-16.44-5.11a5.5,5.5,0,0,1-1.65-1c-1.09-1.13-1-2.91-1.48-4.4s-1.78-2.89-2.52-4.43a14.37,14.37,0,0,1-1.09-4.54c-.64-5.12-1.09-10.27-1.36-15.42-.38-7.26,4.42-13.94,6-21,3-13.88.46-28.76,5.79-41.94,1.68-4.15-.76-9.19-1-13.67a43.37,43.37,0,0,0-1.12-8.58c-1-3.76-3.11-7.3-3.26-11.2-.11-2.82.8-5.57,1.27-8.36a37.48,37.48,0,0,0-.17-12.32c-.53-3.36-1.34-6.72-2.15-10l-.18.37a113,113,0,0,0-6.27,14.75c-.8,2.45-1.5,4.94-2.5,7.33-.82,2-1.83,3.83-2.82,5.7A164.75,164.75,0,0,0,666,698.28c-1.24,3.46-2.33,7-3.41,10.47l-7.41,24c-2,6.31-4.19,12.41-6.15,18.71-2.77,9-5.54,17.92-8.76,26.71-3,8.36-6.57,17-5.5,25.83a19,19,0,0,1-8.83,1.79,52,52,0,0,1-15-3.64c-1.91-.71-3.89-1.51-5.18-3.09-2.22-2.71-1.67-6.68-1-10.12a24.28,24.28,0,0,1,1.2-4.56c.76-1.85,2-3.47,2.78-5.29,1.57-3.49,1.67-7.45,2.29-11.23s2-7.79,5.24-9.85c.55-6.66,3.29-13.24,4.8-19.74,1.14-4.93,1.52-10,2.42-15s2.35-10,5.37-14a22.33,22.33,0,0,1,2.72-12,13,13,0,0,0,1.19-2.54,14.65,14.65,0,0,0,.32-2.65,15.61,15.61,0,0,1,4.22-9.26c-1-3.66.39-7.46,1.64-11a38.25,38.25,0,0,0,2.1-14.07,12.32,12.32,0,0,1,.19-4c.28-1,.83-1.85,1.15-2.82a15.88,15.88,0,0,0,.45-3.58c.39-5.41,2.58-10.51,5-15.34,1.44-2.82.22-6.65.52-9.79.52-5.23,1.09-10.62,3.68-15.18.48-.85,1-1.67,1.43-2.56a11.18,11.18,0,0,0,.83-4c.09-2.28.41-4.18-.41-6.31,5.35-4.46,12.65-5.7,19.61-6s14,.33,20.81-1.15c2-.45,4-1.08,6.11-1.38,4.79-.7,9.65.4,14.38,1.48-.33,3,.77,5.88,2,8.67A93.07,93.07,0,0,1,724.21,631.47Z" transform="translate(-28 -78.56)" fill="#33313f"/><path d="M700.66,633.73l-11.49,25.84c-.53-3.36-1.34-6.72-2.15-10l-.18.37,0-.54,6.26-13.77Z" transform="translate(-28 -78.56)" opacity="0.1"/><path d="M735.09,579.75a4.41,4.41,0,0,1-2.28.85,11.34,11.34,0,0,1-3.74-.51l-9-2.26a3.78,3.78,0,0,1-.82-.28c.15-1.58.45-3.39,1.3-4,1.27-.85,5.07.29,6.51.49,2.48.34,5,.74,7.42,1.21A19.81,19.81,0,0,1,735.09,579.75Z" transform="translate(-28 -78.56)" opacity="0.1"/><path d="M742.7,520.25c.19.83.46,1.65.62,2.49a18.89,18.89,0,0,1-.21,6.18l-.82,5.72-.82,5.76-3.17,22.13-.78,5.48-1.1,7.65a5.56,5.56,0,0,1-.48,1.84,3.85,3.85,0,0,1-3.13,1.85,11.34,11.34,0,0,1-3.74-.51l-9-2.26a2.82,2.82,0,0,1-1.1-.45,2.18,2.18,0,0,1-.58-2.11c.13-.76.46-1.47.57-2.23.22-1.48-.4-3-.18-4.47a11,11,0,0,1,1-2.69c3-6.63,1.26-14.37,2.28-21.57A32.74,32.74,0,0,1,729,527.61a43.91,43.91,0,0,1,7.66-7.51c1.12-.87,2.9-2.67,4.31-3C742.78,516.72,742.4,519,742.7,520.25Z" transform="translate(-28 -78.56)" fill="#6c63ff"/><path d="M674.59,434.11c-.66,2.1.37,4.4-.1,6.55-.51,2.36-2.73,4-3.36,6.37-1,3.61,2.06,6.9,4.3,9.9,8.3,11.13,7.21,26.55,4.37,40.15a207.31,207.31,0,0,1-9.45,32c-1.25,3.22-2.63,6.51-5.09,8.93,4.6-1.32,9.49-2.65,14.1-1.37,5.84,1.62,10.88,7.29,16.8,6,3.56-.8,6.06-4,9.26-5.7,6-3.23,13.23-1.2,19.92-.17a7.64,7.64,0,0,0,4.35-.22,7.12,7.12,0,0,0,2.64-2.42,24.66,24.66,0,0,0,5.14-13.3,17.06,17.06,0,0,0-4.91-13.13c-1.42-1.34-3.12-2.42-4.21-4a12.36,12.36,0,0,1-1.65-6.06c-.79-11,1.89-22.22-.87-32.86-1-3.79-2.63-7.42-3.07-11.3-.55-4.83.76-10-1.16-14.42-1.51-3.51-4.84-6-8.43-7.28a42.14,42.14,0,0,0-11.24-2C696.45,429.31,676.88,427,674.59,434.11Z" transform="translate(-28 -78.56)" fill="#33313f"/><g opacity="0.1"><path d="M679.8,497.08A206.9,206.9,0,0,1,670.4,529c.69-1.37,1.27-2.81,1.82-4.24a206,206,0,0,0,9.45-32c2.85-13.59,3.94-29-4.36-40.15-2-2.65-4.57-5.53-4.48-8.66a10.71,10.71,0,0,0-1.7,3.15c-1,3.61,2.06,6.9,4.3,9.9C683.73,468.06,682.64,483.48,679.8,497.08Z" transform="translate(-28 -78.56)"/><path d="M674.61,439.64a9.69,9.69,0,0,0,1.76-3.36,17.2,17.2,0,0,0-.12-4.47,4.88,4.88,0,0,0-1.66,2.3C674,435.88,674.68,437.8,674.61,439.64Z" transform="translate(-28 -78.56)"/><path d="M734.21,529.73a7.29,7.29,0,0,1-2.64,2.42,7.64,7.64,0,0,1-4.35.22c-6.69-1-14-3.07-19.92.17-3.21,1.74-5.7,4.9-9.27,5.7-5.91,1.32-10.95-4.35-16.79-6-4.14-1.15-8.5-.2-12.67,1a17.52,17.52,0,0,1-3.31,4.79c4.6-1.32,9.49-2.65,14.1-1.37,5.84,1.62,10.88,7.29,16.8,6,3.56-.8,6.06-4,9.26-5.7,6-3.23,13.23-1.2,19.92-.17a7.64,7.64,0,0,0,4.35-.22,7.12,7.12,0,0,0,2.64-2.42,26.88,26.88,0,0,0,4.14-7.92A29.08,29.08,0,0,1,734.21,529.73Z" transform="translate(-28 -78.56)"/></g><ellipse cx="749.19" cy="722.57" rx="40.21" ry="6.8" fill="#6c63ff"/><path d="M793.82,790a11.64,11.64,0,0,0,3.83-5.79c.5-2.3-.48-5.05-2.68-5.89-2.46-.94-5.09.76-7.08,2.49s-4.28,3.68-6.88,3.32a10.5,10.5,0,0,0,3.24-9.81,4.08,4.08,0,0,0-.9-2c-1.37-1.46-3.84-.84-5.48.31-5.2,3.66-6.65,10.72-6.68,17.08-.52-2.29-.08-4.68-.09-7s-.66-5-2.65-6.23a7.91,7.91,0,0,0-4-.94c-2.33-.09-4.94.14-6.53,1.85-2,2.13-1.47,5.69.25,8s4.35,3.8,6.77,5.42a15,15,0,0,1,4.83,4.61,4.33,4.33,0,0,1,.36.82h14.66A40.73,40.73,0,0,0,793.82,790Z" transform="translate(-28 -78.56)" fill="#6c63ff"/></svg>