<svg id="f772c685-e28d-4a37-b17e-733fdc5ab5f5" data-name="Layer 1" xmlns="http://www.w3.org/2000/svg" width="926.0745" height="800" viewBox="0 0 926.0745 800"><title>golf</title><path d="M157.30709,782.54092l-2.00623-.45186c22.36973-99.48094,78.58677-189.8184,158.29513-254.37212a456.64533,456.64533,0,0,1,732.24928,253.15815l-2.00422.45587C996.48787,573.41635,814.26662,428.20587,600.71088,428.20587,389.95362,428.20587,203.47541,577.225,157.30709,782.54092Z" transform="translate(-136.96275 -50)" fill="#3f3d56"/><ellipse cx="463.03725" cy="742.69341" rx="463.03725" ry="57.30659" fill="#3f3d56"/><path d="M708.88252,739.73843a20.4375,20.4375,0,0,1-.2126,2.94982,20.20189,20.20189,0,0,1-1.921,6.16545,20.53588,20.53588,0,0,1-4.104,5.60734c-.18982.186-.38724.36826-.58844.54669a20.334,20.334,0,0,1-11.80317,5.14418c-.615.05695-1.24144.08733-1.87164.08733a20.49168,20.49168,0,0,1-20.32239-17.77117,20.86457,20.86457,0,0,1-.17843-2.72964,20.63783,20.63783,0,0,1,.28854-3.44718,20.28528,20.28528,0,0,1,2.107-6.16923,19.21693,19.21693,0,0,1,1.61349-2.5588,20.46343,20.46343,0,0,1,16.49177-8.32561,20.04541,20.04541,0,0,1,2.09184.10629,20.25091,20.25091,0,0,1,6.16923,1.62869,20.49,20.49,0,0,1,5.00371,3.13585c.39863.33789.78207.691,1.15412,1.05922a20.3527,20.3527,0,0,1,3.78887,5.148,20.10532,20.10532,0,0,1,2.03869,6.192A20.57573,20.57573,0,0,1,708.88252,739.73843Z" transform="translate(-136.96275 -50)" fill="#f2f2f2"/><rect x="696.57644" y="730.27878" width="6.17933" height="6.17933" transform="translate(-174.41657 1379.08113) rotate(-89.69192)" fill="#ccc"/><path d="M708.88252,739.73843a20.4375,20.4375,0,0,1-.2126,2.94982l-5.96423-.03415.03418-6.18063,5.8883.03418A20.57573,20.57573,0,0,1,708.88252,739.73843Z" transform="translate(-136.96275 -50)" fill="#ccc"/><path d="M706.74892,748.8537a20.53588,20.53588,0,0,1-4.104,5.60734l.02658-5.62634Z" transform="translate(-136.96275 -50)" fill="#ccc"/><path d="M678.10092,721.99761l-.01137,1.98556-2.80558-.0152A20.46591,20.46591,0,0,1,678.10092,721.99761Z" transform="translate(-136.96275 -50)" fill="#ccc"/><path d="M690.47355,719.3439l-.02657,4.70761-6.18063-.03418.02278-4.36972a20.47159,20.47159,0,0,1,4.09258-.41A20.04541,20.04541,0,0,1,690.47355,719.3439Z" transform="translate(-136.96275 -50)" fill="#ccc"/><path d="M701.64649,724.10844l-5.01891-.02656.0152-3.10929A20.49,20.49,0,0,1,701.64649,724.10844Z" transform="translate(-136.96275 -50)" fill="#ccc"/><path d="M671.88994,727.56322l-.01518,2.5664-1.59831-.0076A19.21693,19.21693,0,0,1,671.88994,727.56322Z" transform="translate(-136.96275 -50)" fill="#ccc"/><rect x="678.07196" y="723.99987" width="6.17933" height="6.17933" transform="translate(-186.54273 1354.33176) rotate(-89.69192)" fill="#ccc"/><rect x="690.43043" y="724.06632" width="6.17933" height="6.17933" transform="translate(-174.31716 1366.75615) rotate(-89.69192)" fill="#ccc"/><path d="M706.58948,730.31564l-3.81545-.019.02658-5.129A20.3527,20.3527,0,0,1,706.58948,730.31564Z" transform="translate(-136.96275 -50)" fill="#ccc"/><rect x="671.8595" y="730.14588" width="6.17933" height="6.17933" transform="translate(-198.86772 1354.23235) rotate(-89.69192)" fill="#ccc"/><rect x="684.21797" y="730.21233" width="6.17933" height="6.17933" transform="matrix(0.00538, -0.99999, 0.99999, 0.00538, -186.64214, 1366.65674)" fill="#ccc"/><rect x="678.00551" y="736.35834" width="6.17933" height="6.17933" transform="translate(-198.96713 1366.55733) rotate(-89.69192)" fill="#ccc"/><rect x="690.36398" y="736.42479" width="6.17933" height="6.17933" transform="matrix(0.00538, -0.99999, 0.99999, 0.00538, -186.74155, 1378.98172)" fill="#ccc"/><path d="M671.84439,736.31022l-.03418,6.17683-3.75089-.019a20.86457,20.86457,0,0,1-.17843-2.72964,20.63783,20.63783,0,0,1,.28854-3.44718Z" transform="translate(-136.96275 -50)" fill="#ccc"/><rect x="671.79304" y="742.50435" width="6.17933" height="6.17933" transform="translate(-211.29211 1366.45792) rotate(-89.69192)" fill="#ccc"/><rect x="684.15152" y="742.5708" width="6.17933" height="6.17933" transform="translate(-199.06653 1378.88231) rotate(-89.69192)" fill="#ccc"/><rect x="696.50999" y="742.63725" width="6.17933" height="6.17933" transform="translate(-186.84096 1391.3067) rotate(-89.69192)" fill="#ccc"/><path d="M671.77605,748.66766l-.0152,3.07133a20.18952,20.18952,0,0,1-1.84507-3.08271Z" transform="translate(-136.96275 -50)" fill="#ccc"/><rect x="677.93906" y="748.71681" width="6.17933" height="6.17933" transform="translate(-211.39152 1378.78291) rotate(-89.69192)" fill="#ccc"/><rect x="690.29753" y="748.78327" width="6.17933" height="6.17933" transform="matrix(0.00538, -0.99999, 0.99999, 0.00538, -199.16594, 1391.2073)" fill="#ccc"/><path d="M677.9225,754.87866l-.0152,2.48667a20.54229,20.54229,0,0,1-3.36365-2.50567Z" transform="translate(-136.96275 -50)" fill="#ccc"/><path d="M690.27993,754.947l-.02658,5.20492c-.615.05695-1.24144.08733-1.87164.08733a20.35026,20.35026,0,0,1-4.30518-.45558l.02657-4.87084Z" transform="translate(-136.96275 -50)" fill="#ccc"/><path d="M702.05652,755.00773a20.49007,20.49007,0,0,1-5.615,3.58764l.019-3.618Z" transform="translate(-136.96275 -50)" fill="#ccc"/><path d="M893.73974,473.62886,918.4438,569.7002s.915,67.70742,6.40476,94.24141,23.78909,90.58155,23.78909,90.58155l21.95917,3.65986L966.022,668.51643s0-53.98294-4.57483-65.87749S947.72269,469.054,947.72269,469.054Z" transform="translate(-136.96275 -50)" fill="#a0616a"/><path d="M893.73974,473.62886,918.4438,569.7002s.915,67.70742,6.40476,94.24141,23.78909,90.58155,23.78909,90.58155l21.95917,3.65986L966.022,668.51643s0-53.98294-4.57483-65.87749S947.72269,469.054,947.72269,469.054Z" transform="translate(-136.96275 -50)" opacity="0.1"/><path d="M962.23115,70.95641h-.00008c-30.49847,0-55.22237,27.4381-55.22237,61.28469v43.00248h13.22559l7.65686-15.93277-1.91424,15.93277h85.009l6.96079-14.48433-1.74018,14.48433h9.57109V141.47893C1025.77761,102.53046,997.32689,70.95641,962.23115,70.95641Z" transform="translate(-136.96275 -50)" fill="#2f2e41"/><path d="M870.40813,458.53194s-10.97958,46.66322,3.65986,51.238,10.97958-51.238,10.97958-51.238Z" transform="translate(-136.96275 -50)" fill="#a0616a"/><polygon points="751.745 171.556 744.425 179.791 746.255 338.08 729.786 413.107 766.384 416.767 784.683 265.797 779.194 188.94 751.745 171.556" fill="#3f3d56"/><polygon points="751.745 171.556 744.425 179.791 746.255 338.08 729.786 413.107 766.384 416.767 784.683 265.797 779.194 188.94 751.745 171.556" opacity="0.1"/><circle cx="820.38248" cy="79.92192" r="39.31275" fill="#a0616a"/><path d="M934.80592,153.50957s11.53174,59.75537,6.29,66.04541,55.562-11.53174,55.562-11.53174-19.91846-40.88525-9.43506-63.94873Z" transform="translate(-136.96275 -50)" fill="#a0616a"/><path d="M1034.18689,415.52857s10.97958,46.66323-3.65986,51.238-10.97958-51.238-10.97958-51.238Z" transform="translate(-136.96275 -50)" fill="#a0616a"/><path d="M949.55262,462.64928s-15.55441,93.32644-14.63945,107.05092,0,15.55441,0,15.55441-15.5544,40.25846-20.12923,63.13259-14.63944,52.153-14.63944,52.153-11.89455,26.534-1.82993,26.534,23.78909-3.65986,23.78909-3.65986a46.72578,46.72578,0,0,1,10.06462-29.12927c10.97958-13.87409,43.91833-78.83661,43.91833-87.0713S981.5764,575.19,981.5764,575.19l21.0442-101.56113Z" transform="translate(-136.96275 -50)" fill="#a0616a"/><path d="M885.50506,400.43165s-15.55441,78.687-1.82993,80.51693,32.93874-11.89455,57.6428,3.65986,65.87749,11.89455,65.87749,11.89455,28.36392-72.28225,2.7449-89.66659S885.50506,400.43165,885.50506,400.43165Z" transform="translate(-136.96275 -50)" fill="#2f2e41"/><path d="M902.88939,716.09462a24.3724,24.3724,0,0,1,12.80952-1.82993,16.70913,16.70913,0,0,0,11.89454-2.74489s-7.31972,26.534-6.40475,36.5986-2.7449,53.068-21.95917,48.49315-24.704-18.2993-17.38433-42.08839,5.48979-51.238,5.48979-51.238,13.35337-13.79293,15.82633-11.92877S902.88939,716.09462,902.88939,716.09462Z" transform="translate(-136.96275 -50)" fill="#2f2e41"/><path d="M964.19206,749.94833s-9.14965-20.12923-20.12923-1.82993-11.89455,22.87413-11.89455,22.87413-31.10882,28.36392-9.14965,31.10882,39.3435-.915,39.3435-5.4898,10.97958-3.65986,11.89455-7.31972-1.82993-37.51357-1.82993-37.51357Z" transform="translate(-136.96275 -50)" fill="#2f2e41"/><path d="M984.77879,184.04239h0s-38.42853,7.31972-43.00336,6.40476a22.71118,22.71118,0,0,0-3.11872-.33073,46.2398,46.2398,0,0,0-25.53948,6.33351c-12.74133,7.40123-31.7295,20.573-31.7295,33.34072,0,19.21427,24.70406,52.153,24.70406,52.153s-22.87413,78.687-21.0442,86.00673-13.72447,32.02378-3.65986,40.25846,106.136,0,123.5203,8.23469,9.14965-109.79582,9.14965-109.79582,46.66322-107.05092,22.87413-117.11554c-7.69772-3.25672-14.34163-5.747-19.80771-7.62594A41.87152,41.87152,0,0,0,984.77879,184.04239Z" transform="translate(-136.96275 -50)" fill="#3f3d56"/><path d="M1020.46242,190.44715l20.99438,3.46949s9.19946,9.34,9.19946,13.91485-1.82993,202.20729-4.57482,208.612-32.93875,3.65986-32.93875,3.65986l5.4898-112.54071Z" transform="translate(-136.96275 -50)" fill="#3f3d56"/><path d="M977.92987,87.83832C972.38528,80.699,964.20744,76.177,955.07838,76.177H953.9942c-20.90371,0-37.84943,18.91545-37.84943,42.24888v.00009h7.00428l1.13118-8.6101,1.65852,8.6101h41.542l3.48043-7.28431-.87013,7.28431h8.1725q5.72037,28.40879-16.43844,56.81758h13.92166l6.96079-14.56862-1.74018,14.56862h26.53808l5.22061-33.5079C1012.72608,116.64138,998.14556,95.3619,977.92987,87.83832Z" transform="translate(-136.96275 -50)" fill="#2f2e41"/><circle cx="848.59726" cy="20.68334" r="20.68334" fill="#2f2e41"/><ellipse cx="318.62464" cy="725.50143" rx="53.86819" ry="17.19198" opacity="0.2"/><rect x="310.1841" y="316.50117" width="18.04511" height="411.17066" fill="#3f3d56"/><path d="M721.64656,215.0842l.00075-.13947-15.16121-.08153-15.16121-.08152-15.16121-.08152-15.1612-.08152-15.16121-.08153-15.16121-.08152-15.16121-.08152-15.16121-.08153-15.16121-.08152-15.1612-.08152L554.874,214.048l-15.16364.37028a98.626,98.626,0,0,0-15.14673,2.302c-.00912.003-.0182.00293-.02733.00592-.04554.00884-.088.02076-.1336.03263q-1.46643.34236-2.915.73029c-.06377.01481-.13056.03265-.19436.05353a97.06114,97.06114,0,0,0-9.64757,3.14116q-1.15316.44412-2.29737.91554a98.01486,98.01486,0,0,0-13.17174,6.63669c-.35592.21338-.70884.42982-1.06178.65232l-.97058.6073a98.89131,98.89131,0,0,0-15.22561,11.89583q-1.32126,1.25283-2.59124,2.55749a99.17482,99.17482,0,0,0-12.10436,15.09656l-.64248,15.15819,15.1612.08153.08153-15.16121,15.16121.08152-.08153,15.16121,15.16121.08152.08152-15.16121,15.16121.08153-.08152,15.16121,15.16121.08152.08152-15.16121,15.16121.08152-.08152,15.16121,15.16121.08152.08152-15.16121,15.16121.08153-.08153,15.16121,15.16121.08152.08152-15.16121,15.16121.08152-.08152,15.16121,15.16121.08152.08152-15.1612,15.16121.08152-.08152,15.16121,15.16121.08152.08152-15.16121,15.16121.08152-.08153,15.16121,15.16121.08152.08152-15.1612,15.16121.08152L706.16,275.508l15.16121.08152.08152-15.16121,7.88383.04239.08152-15.16121.08152-15.1612.08078-15.02174Z" transform="translate(-136.96275 -50)" fill="#3f3d56"/><path d="M456.13349,274.16363A98.03418,98.03418,0,0,0,451.07,289.29805l12.42915.06683.08153-15.16121Z" transform="translate(-136.96275 -50)" fill="#3f3d56"/><rect x="478.70101" y="274.32585" width="15.16143" height="15.16143" transform="translate(64.80176 716.66546) rotate(-89.69192)" fill="#3f3d56"/><rect x="509.02343" y="274.48889" width="15.16143" height="15.16143" transform="translate(94.7981 747.1496) rotate(-89.69192)" fill="#3f3d56"/><rect x="539.34585" y="274.65194" width="15.16143" height="15.16143" transform="translate(124.79443 777.63375) rotate(-89.69192)" fill="#3f3d56"/><rect x="569.66826" y="274.81498" width="15.16143" height="15.16143" transform="translate(154.79076 808.1179) rotate(-89.69192)" fill="#3f3d56"/><rect x="599.99068" y="274.97803" width="15.16143" height="15.16143" transform="translate(184.78709 838.60204) rotate(-89.69192)" fill="#3f3d56"/><rect x="630.3131" y="275.14108" width="15.16143" height="15.16143" transform="translate(214.78342 869.08619) rotate(-89.69192)" fill="#3f3d56"/><rect x="660.63551" y="275.30412" width="15.16143" height="15.16143" transform="translate(244.77975 899.57034) rotate(-89.69192)" fill="#3f3d56"/><rect x="690.95793" y="275.46717" width="15.16143" height="15.16143" transform="translate(274.77608 930.05448) rotate(-89.69192)" fill="#3f3d56"/><path d="M728.74753,290.79114q.39609-4.29165.42272-8.6884l.0348-6.47079-7.88383-.04239-.08152,15.16121Z" transform="translate(-136.96275 -50)" fill="#3f3d56"/><rect x="463.45828" y="289.40553" width="15.16143" height="15.16143" transform="translate(34.56153 716.42155) rotate(-89.69192)" fill="#3f3d56"/><rect x="493.7807" y="289.56858" width="15.16143" height="15.16143" transform="translate(64.55786 746.9057) rotate(-89.69192)" fill="#3f3d56"/><rect x="524.10312" y="289.73163" width="15.16143" height="15.16143" transform="translate(94.55419 777.38984) rotate(-89.69192)" fill="#3f3d56"/><rect x="554.42553" y="289.89467" width="15.16143" height="15.16143" transform="translate(124.55052 807.87399) rotate(-89.69192)" fill="#3f3d56"/><rect x="584.74795" y="290.05772" width="15.16143" height="15.16143" transform="translate(154.54685 838.35814) rotate(-89.69192)" fill="#3f3d56"/><rect x="615.07037" y="290.22076" width="15.16143" height="15.16143" transform="translate(184.54318 868.84228) rotate(-89.69192)" fill="#3f3d56"/><rect x="645.39278" y="290.38381" width="15.16143" height="15.16143" transform="translate(214.53951 899.32643) rotate(-89.69192)" fill="#3f3d56"/><rect x="675.7152" y="290.54685" width="15.16143" height="15.16143" transform="translate(244.53584 929.81058) rotate(-89.69192)" fill="#3f3d56"/><rect x="706.03762" y="290.7099" width="15.16143" height="15.16143" transform="translate(274.53217 960.29472) rotate(-89.69192)" fill="#3f3d56"/><rect x="448.21555" y="304.48522" width="15.16143" height="15.16143" transform="translate(4.32129 716.17764) rotate(-89.69192)" fill="#3f3d56"/><rect x="478.53797" y="304.64827" width="15.16143" height="15.16143" transform="translate(34.31762 746.66179) rotate(-89.69192)" fill="#3f3d56"/><rect x="508.86039" y="304.81131" width="15.16143" height="15.16143" transform="translate(64.31395 777.14593) rotate(-89.69192)" fill="#3f3d56"/><rect x="539.1828" y="304.97436" width="15.16143" height="15.16143" transform="translate(94.31028 807.63008) rotate(-89.69192)" fill="#3f3d56"/><rect x="569.50522" y="305.1374" width="15.16143" height="15.16143" transform="translate(124.30661 838.11423) rotate(-89.69192)" fill="#3f3d56"/><rect x="599.82764" y="305.30045" width="15.16143" height="15.16143" transform="translate(154.30294 868.59837) rotate(-89.69192)" fill="#3f3d56"/><rect x="630.15005" y="305.46349" width="15.16143" height="15.16143" transform="translate(184.29927 899.08252) rotate(-89.69192)" fill="#3f3d56"/><rect x="660.47247" y="305.62654" width="15.16143" height="15.16143" transform="translate(214.2956 929.56667) rotate(-89.69192)" fill="#3f3d56"/><rect x="690.79489" y="305.78958" width="15.16143" height="15.16143" transform="translate(244.29193 960.05082) rotate(-89.69192)" fill="#3f3d56"/><path d="M726.1462,305.9388l-4.988-.02682-.0801,14.8974A98.08684,98.08684,0,0,0,726.1462,305.9388Z" transform="translate(-136.96275 -50)" fill="#3f3d56"/><rect x="463.29524" y="319.72795" width="15.16143" height="15.16143" transform="translate(4.07738 746.41788) rotate(-89.69192)" fill="#3f3d56"/><rect x="493.61765" y="319.891" width="15.16143" height="15.16143" transform="translate(34.07371 776.90203) rotate(-89.69192)" fill="#3f3d56"/><rect x="523.94007" y="320.05404" width="15.16143" height="15.16143" transform="translate(64.07004 807.38617) rotate(-89.69192)" fill="#3f3d56"/><rect x="554.26249" y="320.21709" width="15.16143" height="15.16143" transform="translate(94.06637 837.87032) rotate(-89.69192)" fill="#3f3d56"/><rect x="584.5849" y="320.38013" width="15.16143" height="15.16143" transform="translate(124.0627 868.35447) rotate(-89.69192)" fill="#3f3d56"/><rect x="614.90732" y="320.54318" width="15.16143" height="15.16143" transform="translate(154.05903 898.83861) rotate(-89.69192)" fill="#3f3d56"/><rect x="645.22974" y="320.70622" width="15.16143" height="15.16143" transform="translate(184.05536 929.32276) rotate(-89.69192)" fill="#3f3d56"/><rect x="675.55215" y="320.86927" width="15.16143" height="15.16143" transform="translate(214.0517 959.80691) rotate(-89.69192)" fill="#3f3d56"/><path d="M712.7262,336.18993a98.413,98.413,0,0,0,8.23522-15.11737l-15.046-.0809-.08152,15.16121Z" transform="translate(-136.96275 -50)" fill="#3f3d56"/><rect x="448.05251" y="334.80764" width="15.16143" height="15.16143" transform="translate(-26.16286 746.17397) rotate(-89.69192)" fill="#3f3d56"/><rect x="478.37492" y="334.97068" width="15.16143" height="15.16143" transform="translate(3.83347 776.65812) rotate(-89.69192)" fill="#3f3d56"/><rect x="508.69734" y="335.13373" width="15.16143" height="15.16143" transform="translate(33.8298 807.14227) rotate(-89.69192)" fill="#3f3d56"/><rect x="539.01976" y="335.29677" width="15.16143" height="15.16143" transform="translate(63.82613 837.62641) rotate(-89.69192)" fill="#3f3d56"/><rect x="569.34217" y="335.45982" width="15.16143" height="15.16143" transform="translate(93.82246 868.11056) rotate(-89.69192)" fill="#3f3d56"/><rect x="599.66459" y="335.62286" width="15.16143" height="15.16143" transform="translate(123.81879 898.59471) rotate(-89.69192)" fill="#3f3d56"/><rect x="629.98701" y="335.78591" width="15.16143" height="15.16143" transform="matrix(0.00538, -0.99999, 0.99999, 0.00538, 153.81513, 929.07885)" fill="#3f3d56"/><rect x="660.30942" y="335.94895" width="15.16143" height="15.16143" transform="translate(183.81146 959.563) rotate(-89.69192)" fill="#3f3d56"/><polygon points="553.628 301.233 563.438 301.285 568.821 295.422 568.871 286.153 553.71 286.071 553.628 301.233" fill="#3f3d56"/><polygon points="326.21 300.01 326.134 314.261 310.972 314.18 310.968 315.089 310.891 329.341 310.89 329.444 326.052 329.526 326.052 329.422 326.129 315.171 341.29 315.252 341.372 300.091 326.21 300.01" fill="#3f3d56"/><rect x="493.45461" y="350.21341" width="15.16143" height="15.16143" transform="translate(3.58956 806.89836) rotate(-89.69192)" fill="#3f3d56"/><rect x="523.77703" y="350.37646" width="15.16143" height="15.16143" transform="translate(33.58589 837.3825) rotate(-89.69192)" fill="#3f3d56"/><rect x="554.09944" y="350.5395" width="15.16143" height="15.16143" transform="translate(63.58222 867.86665) rotate(-89.69192)" fill="#3f3d56"/><rect x="584.42186" y="350.70255" width="15.16143" height="15.16143" transform="translate(93.57856 898.3508) rotate(-89.69192)" fill="#3f3d56"/><rect x="614.74428" y="350.86559" width="15.16143" height="15.16143" transform="translate(123.57489 928.83494) rotate(-89.69192)" fill="#3f3d56"/><rect x="645.06669" y="351.02864" width="15.16143" height="15.16143" transform="matrix(0.00538, -0.99999, 0.99999, 0.00538, 153.57122, 959.31909)" fill="#3f3d56"/><path d="M675.34846,366.31224l5.8401.0314a98.33222,98.33222,0,0,0,9.35569-6.38127l.04694-8.72981L675.43,351.151Z" transform="translate(-136.96275 -50)" fill="#3f3d56"/><rect x="478.61735" y="364.88981" width="14.35483" height="15.16143" transform="translate(-26.24523 806.25549) rotate(-89.69192)" fill="#3f3d56"/><rect x="508.93976" y="365.05285" width="14.35483" height="15.16143" transform="translate(3.7511 836.73964) rotate(-89.69192)" fill="#3f3d56"/><rect x="539.26218" y="365.2159" width="14.35483" height="15.16143" transform="translate(33.74743 867.22379) rotate(-89.69192)" fill="#3f3d56"/><rect x="569.5846" y="365.37894" width="14.35483" height="15.16143" transform="translate(63.74376 897.70793) rotate(-89.69192)" fill="#3f3d56"/><rect x="599.90701" y="365.54199" width="14.35483" height="15.16143" transform="translate(93.74009 928.19208) rotate(-89.69192)" fill="#3f3d56"/><path d="M629.78765,380.4223a100.17863,100.17863,0,0,0,10.41866-.48676l4.74876-.587.071-13.19933-15.16121-.08153Z" transform="translate(-136.96275 -50)" fill="#3f3d56"/><path d="M660.13555,375.846a97.92929,97.92929,0,0,0,15.19522-6.24373l.01769-3.29-15.16121-.08152Z" transform="translate(-136.96275 -50)" fill="#3f3d56"/><rect x="508.77886" y="319.97252" width="15.16143" height="15.16143" transform="translate(49.07188 792.1441) rotate(-89.69192)" fill="#6c63ff"/><rect x="599.90916" y="290.13924" width="15.16143" height="15.16143" transform="translate(169.54502 853.60021) rotate(-89.69192)" fill="#6c63ff"/><path d="M451.07,289.29805a99.005,99.005,0,0,0-2.49216,15.14825l14.83979.07979.08152-15.16121Z" transform="translate(-136.96275 -50)" fill="#6c63ff"/><path d="M644.95507,379.34853a97.92556,97.92556,0,0,0,15.18048-3.50258l.0517-9.61523L645.026,366.1492Z" transform="translate(-136.96275 -50)" fill="#6c63ff"/><rect x="614.98884" y="305.38197" width="15.16143" height="15.16143" transform="translate(169.30111 883.84045) rotate(-89.69192)" fill="#6c63ff"/><rect x="614.8258" y="335.70439" width="15.16143" height="15.16143" transform="translate(138.81696 913.83678) rotate(-89.69192)" fill="#6c63ff"/><rect x="691.03945" y="260.30596" width="15.16143" height="15.16143" transform="translate(290.01816 915.05632) rotate(-89.69192)" fill="#6c63ff"/><rect x="717.72318" y="264.08818" width="15.16143" height="7.88394" transform="translate(316.41493 941.88237) rotate(-89.69192)" fill="#6c63ff"/><rect x="675.79672" y="275.38564" width="15.16143" height="15.16143" transform="translate(259.77792 914.81241) rotate(-89.69192)" fill="#6c63ff"/><rect x="706.11914" y="275.54869" width="15.16143" height="15.16143" transform="translate(289.77425 945.29656) rotate(-89.69192)" fill="#6c63ff"/><rect x="690.87641" y="290.62837" width="15.16143" height="15.16143" transform="translate(259.53401 945.05265) rotate(-89.69192)" fill="#6c63ff"/><path d="M726.1462,305.9388a98.62661,98.62661,0,0,0,2.60133-15.14766l-7.50783-.04037-.08153,15.16121Z" transform="translate(-136.96275 -50)" fill="#6c63ff"/><rect x="675.63368" y="305.70806" width="15.16143" height="15.16143" transform="translate(229.29377 944.80874) rotate(-89.69192)" fill="#6c63ff"/><rect x="705.95609" y="305.8711" width="15.16143" height="15.16143" transform="translate(259.2901 975.29289) rotate(-89.69192)" fill="#6c63ff"/><rect x="690.71336" y="320.95079" width="15.16143" height="15.16143" transform="translate(229.04986 975.04898) rotate(-89.69192)" fill="#6c63ff"/><rect x="675.47063" y="336.03048" width="15.16143" height="15.16143" transform="translate(198.80962 974.80507) rotate(-89.69192)" fill="#6c63ff"/><path d="M712.7262,336.18993l-6.89228-.03706-.04984,9.26956A99.20292,99.20292,0,0,0,712.7262,336.18993Z" transform="translate(-136.96275 -50)" fill="#6c63ff"/><rect x="660.2279" y="351.11016" width="15.16143" height="15.16143" transform="matrix(0.00538, -0.99999, 0.99999, 0.00538, 168.56938, 974.56117)" fill="#6c63ff"/><path d="M691.73487,359.0318a99.53489,99.53489,0,0,0,8.66561-7.7465l-9.80929-.05274-.04694,8.72981C690.94315,359.65521,691.342,359.345,691.73487,359.0318Z" transform="translate(-136.96275 -50)" fill="#6c63ff"/><rect x="509.10495" y="259.32769" width="15.16143" height="15.16143" transform="translate(110.04017 732.15144) rotate(-89.69192)" fill="#6c63ff"/><rect x="539.42737" y="259.49073" width="15.16143" height="15.16143" transform="translate(140.0365 762.63558) rotate(-89.69192)" fill="#6c63ff"/><rect x="569.74979" y="259.65378" width="15.16143" height="15.16143" transform="translate(170.03283 793.11973) rotate(-89.69192)" fill="#6c63ff"/><rect x="600.0722" y="259.81682" width="15.16143" height="15.16143" transform="translate(200.02916 823.60388) rotate(-89.69192)" fill="#6c63ff"/><rect x="630.39462" y="259.97987" width="15.16143" height="15.16143" transform="translate(230.02549 854.08803) rotate(-89.69192)" fill="#6c63ff"/><rect x="660.71704" y="260.14291" width="15.16143" height="15.16143" transform="translate(260.02182 884.57217) rotate(-89.69192)" fill="#6c63ff"/><rect x="524.18464" y="274.57042" width="15.16143" height="15.16143" transform="translate(109.79626 762.39168) rotate(-89.69192)" fill="#6c63ff"/><rect x="554.50706" y="274.73346" width="15.16143" height="15.16143" transform="translate(139.79259 792.87582) rotate(-89.69192)" fill="#6c63ff"/><rect x="584.82947" y="274.89651" width="15.16143" height="15.16143" transform="translate(169.78892 823.35997) rotate(-89.69192)" fill="#6c63ff"/><rect x="615.15189" y="275.05955" width="15.16143" height="15.16143" transform="translate(199.78525 853.84412) rotate(-89.69192)" fill="#6c63ff"/><rect x="645.47431" y="275.2226" width="15.16143" height="15.16143" transform="translate(229.78159 884.32826) rotate(-89.69192)" fill="#6c63ff"/><rect x="478.61949" y="289.48706" width="15.16143" height="15.16143" transform="translate(49.55969 731.66362) rotate(-89.69192)" fill="#6c63ff"/><rect x="539.26432" y="289.81315" width="15.16143" height="15.16143" transform="translate(109.55235 792.63192) rotate(-89.69192)" fill="#6c63ff"/><rect x="569.58674" y="289.97619" width="15.16143" height="15.16143" transform="translate(139.54868 823.11606) rotate(-89.69192)" fill="#6c63ff"/><rect x="630.23157" y="290.30228" width="15.16143" height="15.16143" transform="translate(199.54135 884.08436) rotate(-89.69192)" fill="#6c63ff"/><rect x="660.55399" y="290.46533" width="15.16143" height="15.16143" transform="translate(229.53768 914.5685) rotate(-89.69192)" fill="#6c63ff"/><rect x="463.37676" y="304.56674" width="15.16143" height="15.16143" transform="translate(19.31945 731.41971) rotate(-89.69192)" fill="#6c63ff"/><rect x="493.69918" y="304.72979" width="15.16143" height="15.16143" transform="translate(49.31578 761.90386) rotate(-89.69192)" fill="#6c63ff"/><rect x="554.34401" y="305.05588" width="15.16143" height="15.16143" transform="translate(109.30845 822.87215) rotate(-89.69192)" fill="#6c63ff"/><rect x="584.66643" y="305.21892" width="15.16143" height="15.16143" transform="translate(139.30478 853.3563) rotate(-89.69192)" fill="#6c63ff"/><rect x="645.31126" y="305.54501" width="15.16143" height="15.16143" transform="translate(199.29744 914.3246) rotate(-89.69192)" fill="#6c63ff"/><rect x="448.13403" y="319.64643" width="15.16143" height="15.16143" transform="translate(-10.92079 731.17581) rotate(-89.69192)" fill="#6c63ff"/><rect x="478.45645" y="319.80947" width="15.16143" height="15.16143" transform="translate(19.07554 761.65995) rotate(-89.69192)" fill="#6c63ff"/><path d="M456.13349,274.16363l7.44719.04.688-15.15794A111.26559,111.26559,0,0,0,456.13349,274.16363Z" transform="translate(-136.96275 -50)" fill="#6c63ff"/><rect x="478.78254" y="259.16464" width="15.16143" height="15.16143" transform="translate(80.04384 701.66729) rotate(-89.69192)" fill="#6c63ff"/><rect x="463.53981" y="274.24433" width="15.16143" height="15.16143" transform="translate(49.8036 701.42338) rotate(-89.69192)" fill="#6c63ff"/><rect x="493.86222" y="274.40737" width="15.16143" height="15.16143" transform="translate(79.79993 731.90753) rotate(-89.69192)" fill="#6c63ff"/><rect x="508.94191" y="289.6501" width="15.16143" height="15.16143" transform="translate(79.55602 762.14777) rotate(-89.69192)" fill="#6c63ff"/><rect x="524.02159" y="304.89283" width="15.16143" height="15.16143" transform="translate(79.31211 792.38801) rotate(-89.69192)" fill="#6c63ff"/><rect x="539.10128" y="320.13556" width="15.16143" height="15.16143" transform="translate(79.06821 822.62825) rotate(-89.69192)" fill="#6c63ff"/><rect x="569.4237" y="320.29861" width="15.16143" height="15.16143" transform="translate(109.06454 853.11239) rotate(-89.69192)" fill="#6c63ff"/><rect x="599.74611" y="320.46166" width="15.16143" height="15.16143" transform="translate(139.06087 883.59654) rotate(-89.69192)" fill="#6c63ff"/><rect x="630.06853" y="320.6247" width="15.16143" height="15.16143" transform="translate(169.0572 914.08069) rotate(-89.69192)" fill="#6c63ff"/><rect x="660.39095" y="320.78775" width="15.16143" height="15.16143" transform="translate(199.05353 944.56483) rotate(-89.69192)" fill="#6c63ff"/><rect x="463.21372" y="334.88916" width="15.16143" height="15.16143" transform="translate(-11.16469 761.41604) rotate(-89.69192)" fill="#6c63ff"/><rect x="493.53613" y="335.05221" width="15.16143" height="15.16143" transform="translate(18.83164 791.90019) rotate(-89.69192)" fill="#6c63ff"/><rect x="523.85855" y="335.21525" width="15.16143" height="15.16143" transform="translate(48.82797 822.38434) rotate(-89.69192)" fill="#6c63ff"/><rect x="554.18097" y="335.3783" width="15.16143" height="15.16143" transform="translate(78.8243 852.86849) rotate(-89.69192)" fill="#6c63ff"/><rect x="584.50338" y="335.54134" width="15.16143" height="15.16143" transform="translate(108.82063 883.35263) rotate(-89.69192)" fill="#6c63ff"/><rect x="645.14822" y="335.86743" width="15.16143" height="15.16143" transform="translate(168.81329 944.32093) rotate(-89.69192)" fill="#6c63ff"/><rect x="447.97098" y="349.96885" width="15.16143" height="15.16143" transform="translate(-41.40493 761.17214) rotate(-89.69192)" fill="#6c63ff"/><rect x="478.2934" y="350.13189" width="15.16143" height="15.16143" transform="translate(-11.4086 791.65628) rotate(-89.69192)" fill="#6c63ff"/><rect x="508.61582" y="350.29494" width="15.16143" height="15.16143" transform="translate(18.58773 822.14043) rotate(-89.69192)" fill="#6c63ff"/><rect x="538.93823" y="350.45798" width="15.16143" height="15.16143" transform="translate(48.58406 852.62458) rotate(-89.69192)" fill="#6c63ff"/><rect x="569.26065" y="350.62103" width="15.16143" height="15.16143" transform="translate(78.58039 883.10872) rotate(-89.69192)" fill="#6c63ff"/><rect x="599.58307" y="350.78407" width="15.16143" height="15.16143" transform="translate(108.57672 913.59287) rotate(-89.69192)" fill="#6c63ff"/><rect x="629.90548" y="350.94712" width="15.16143" height="15.16143" transform="translate(138.57305 944.07702) rotate(-89.69192)" fill="#6c63ff"/><rect x="463.45614" y="364.80828" width="14.35483" height="15.16143" transform="translate(-41.2434 791.01342) rotate(-89.69192)" fill="#6c63ff"/><rect x="493.77855" y="364.97133" width="14.35483" height="15.16143" transform="translate(-11.24707 821.49757) rotate(-89.69192)" fill="#6c63ff"/><rect x="524.10097" y="365.13437" width="14.35483" height="15.16143" transform="translate(18.74926 851.98171) rotate(-89.69192)" fill="#6c63ff"/><rect x="554.42339" y="365.29742" width="14.35483" height="15.16143" transform="translate(48.7456 882.46586) rotate(-89.69192)" fill="#6c63ff"/><rect x="584.7458" y="365.46046" width="14.35483" height="15.16143" transform="translate(78.74193 912.95001) rotate(-89.69192)" fill="#6c63ff"/><rect x="615.06822" y="365.62351" width="14.35483" height="15.16143" transform="translate(108.73826 943.43415) rotate(-89.69192)" fill="#6c63ff"/><path d="M681.18856,366.34364l-5.8401-.0314-.01769,3.29Q678.32284,368.07183,681.18856,366.34364Z" transform="translate(-136.96275 -50)" fill="#6c63ff"/><path d="M877.28331,499.70451l-2.13109-.84169L800.51815,687.70958c-3.54172-7.47742-16.13182-26.58446-52.75585-27.92332a7.02693,7.02693,0,0,0-7.22943,6.57627l-.63533,9.52967A20.22925,20.22925,0,0,0,757.74115,697.345c14.98345,1.73193,34.75079,2.04407,43.63653-6.33954l.26093.103Z" transform="translate(-136.96275 -50)" fill="#3f3d56"/></svg>