<svg id="a3d13d42-87da-4aff-8252-a292de51d919" data-name="Layer 1" xmlns="http://www.w3.org/2000/svg" width="963.5" height="866.4359" viewBox="0 0 963.5 866.4359"><title>greek_freak</title><path d="M1034.51,821.29v.95c0,.25,0,.51-.02.76a58.68911,58.68911,0,0,1-12.87,35.6c-.41.53-.84,1.04-1.27991,1.55-.66016.78-1.34009,1.53-2.04,2.27-.06006.06-.12012.13-.19006.19l-.02991.03c-.08008.08-.16016.17-.24.25q-1.84515,1.90494-3.87012,3.65c-.27.23-.55.47-.84.7A58.79236,58.79236,0,0,1,976,880.8c-.1.01-.21.01-.31006.01h-.34985c-.1001,0-.20008,0-.30005-.01-.3501,0-.69006-.01-1.04-.02a58.72831,58.72831,0,0,1-36.90991-14.19c-.28-.23-.56006-.47-.83008-.72-1.07007-.94-2.1001-1.93-3.09009-2.95-.07983-.08-.15991-.17-.24-.25l-.02991-.03c-.06994-.06-.13-.13-.19006-.19-.84-.88-1.6499-1.79-2.42993-2.72q-.64508-.765-1.26-1.56A58.61459,58.61459,0,0,1,916.49,823c-.02-.24-.02-.49-.02-.74v-.93c0-.11,0-.22.01-.33A58.69289,58.69289,0,0,1,928.79,785.68q.61486-.795,1.26-1.56c.79-.96,1.61987-1.89,2.47-2.8.06006-.07.12-.13.18994-.2,0-.01.01-.02.02-.03.08008-.08.16-.17.25-.25q1.66517-1.725,3.47-3.32c.27-.25.55005-.49.83008-.72A58.77748,58.77748,0,0,1,974.98,762.77c.1001-.01.21-.01.31006-.01h.6499a58.80169,58.80169,0,0,1,37,13.4c.28.24.56006.47.84009.71,1.46,1.24,2.86,2.56,4.18994,3.94.08008.08.16.17.24.25l.02.02c.07007.06.14.14.2.2.74.78,1.45007,1.59,2.14014,2.41.43994.51.85986,1.02,1.27991,1.55A58.69052,58.69052,0,0,1,1034.5,821,2.807,2.807,0,0,1,1034.51,821.29Z" transform="translate(-118.25 -16.78205)" fill="#6c63ff"/><rect x="855.75" y="746.21795" width="2" height="118" fill="#fff"/><rect x="797.75" y="804.21795" width="118.51001" height="2" fill="#fff"/><path d="M949.98,821a45.92906,45.92906,0,0,0-19.92993-36.88q-.64508.765-1.26,1.56A43.96072,43.96072,0,0,1,947.99,821c.01.33.01.66.01,1s0,.67-.01,1a44.004,44.004,0,0,1-18.97,35.17q.61486.795,1.26,1.56A45.95941,45.95941,0,0,0,949.98,823c.02-.33.02-.67.02-1S950,821.33,949.98,821Z" transform="translate(-118.25 -16.78205)" fill="#fff"/><path d="M1002.01,823c-.01-.33-.01-.66-.01-1s0-.67.01-1a43.99751,43.99751,0,0,1,19.84-35.76c-.42-.53-.84-1.04-1.27991-1.55A45.96454,45.96454,0,0,0,1000.02,821c-.02.33-.02.67-.02,1s0,.67.02,1a45.95016,45.95016,0,0,0,20.32007,37.15c.43994-.51.86987-1.02,1.27991-1.55A43.981,43.981,0,0,1,1002.01,823Z" transform="translate(-118.25 -16.78205)" fill="#fff"/><rect y="863.65795" width="963.5" height="2.23999" fill="#2f2e41"/><path d="M1026.48892,432.62283A414.549,414.549,0,0,1,912.21881,719.16669c-.49979.53016-1.0096,1.06038-1.5194,1.59055a415.99933,415.99933,0,0,1-600.19991.23022c-.51021-.52977-1.02043-1.05961-1.52063-1.58938a415.996,415.996,0,0,1-1.33933-571.80953c.48978-.54023.99959-1.07039,1.5094-1.60062a416.00336,416.00336,0,0,1,602.45991-.23109c.51022.52984,1.02043,1.05961,1.51063,1.59946A414.50971,414.50971,0,0,1,1026.48892,432.62283Z" transform="translate(-118.25 -16.78205)" fill="#3f3d56"/><rect x="76.23895" y="415.00035" width="832" height="2" fill="#fff"/><rect x="491.23895" y="0.00035" width="2" height="832" fill="#fff"/><path d="M428.53632,295.67219a353.75173,353.75173,0,0,0-76.12324-112.81083,356.31017,356.31017,0,0,0-43.26414-36.87343c-.50981.53023-1.01962,1.06039-1.5094,1.60062,88.85462,64.1259,146.80465,168.54368,146.8498,286.25369.045,117.21-57.3351,221.292-145.51047,285.55584.5002.52977,1.01042,1.05961,1.52063,1.58938a356.73685,356.73685,0,0,0,42.10615-36.08616,355.36118,355.36118,0,0,0,75.93067-389.22911Z" transform="translate(-118.25 -16.78205)" fill="#fff"/><path d="M766.48932,433.72256c-.04515-117.71,57.82476-222.17222,146.63016-286.36626-.4902-.53985-1.00041-1.06962-1.51063-1.59946a355.31295,355.31295,0,0,0-.90944,575.0004c.5098-.53017,1.01961-1.06039,1.5194-1.59055C824.00418,654.97048,766.53428,550.93252,766.48932,433.72256Z" transform="translate(-118.25 -16.78205)" fill="#fff"/><polygon points="390.955 704.422 388.184 759.842 417.279 765.384 425.592 712.735 390.955 704.422" fill="#9d616a"/><polygon points="535.046 722.434 541.974 768.155 568.298 768.155 562.756 719.663 535.046 722.434" fill="#9d616a"/><path d="M514.74687,614.521l-5.542,63.73283-5.542,54.03436s20.78244-8.313,40.17939,4.15648c0,0,12.46947-2.771,9.69847-56.80534L566.01023,622.834Z" transform="translate(-118.25 -16.78205)" fill="#efefef"/><path d="M626.97206,635.30342s8.313,49.87786,12.46947,54.03435c0,0,6.86206,44.60339,10.1953,55.87859a10.05517,10.05517,0,0,0,.88867,2.31225c2.771,4.15649,33.25191,13.855,34.63741-2.771s5.542-44.33588-8.313-65.11832l-8.313-52.64886Z" transform="translate(-118.25 -16.78205)" fill="#efefef"/><path d="M710.79459,629.06869c-1.3855,15.24045-77.58779,12.46946-91.44275,12.46946-4.37839,0-10.00291-.67888-12.80231-8.24363-4.79377-12.92679-7.42608-31.81111-8.313-39.19575-.35991,6.84427-3.51922,23.41475-11.41614,34.02787-4.808,6.484-12.76037,5.19561-21.50293,3.713-14.52-2.46623-43.38-11.44422-51.26336-9.69848-12.46947,2.771-27.4745,3.048-27.70993,0a35.6842,35.6842,0,0,1,.02774-5.00162c1.82861-28.65213,28.37494-106.32314,28.37494-112.07281,0-6.92748,12.46946-36.0229,12.46946-36.0229L654.682,453.80341s50.4874,136.19435,57.42909,169.72329C712.70641,626.42234,710.90554,627.86331,710.79459,629.06869Z" transform="translate(-118.25 -16.78205)" fill="#efefef"/><path d="M539.6858,775.23854l-36.0229-6.92748,3.46374,57.49809,28.40267,20.0897S532.75832,790.479,539.6858,775.23854Z" transform="translate(-118.25 -16.78205)" fill="#efefef"/><path d="M686.5484,771.08205s-18.01145,11.084-33.25191,0L665.766,822.34541l20.78244-2.771S696.24688,789.0935,686.5484,771.08205Z" transform="translate(-118.25 -16.78205)" fill="#efefef"/><path d="M690.70489,814.03244s-29.09542,1.38549-29.09542,4.15648V863.9103c0,4.15649,5.542,9.69847,4.15649,12.46947s8.313,9.69847,30.48092,5.542,13.855-18.01145,13.855-18.01145S687.9339,825.11641,690.70489,814.03244Z" transform="translate(-118.25 -16.78205)" fill="#2f2e41"/><path d="M502.97015,814.72518s33.25191.69275,33.25191,3.46374V863.9103c0,4.15649-5.542,9.69847-4.15649,12.46947s-8.313,9.69847-30.48092,5.542-13.855-18.01145-13.855-18.01145S505.74114,825.80915,502.97015,814.72518Z" transform="translate(-118.25 -16.78205)" fill="#2f2e41"/><path d="M712.87283,629.76143c-1.38549,15.24046-81.74428,16.626-95.59924,16.626-4.37838,0-7.92466-5.52812-10.72406-13.09287,14.867-2.95129,78.80754-14.99117,105.56155-9.76782A25.43567,25.43567,0,0,1,712.87283,629.76143Z" transform="translate(-118.25 -16.78205)" fill="#6c63ff"/><path d="M586.82041,628.12664c-4.808,6.484-11.37487,10.7376-20.11743,9.255-14.52-2.46622-44.76547-8.67322-52.64886-6.92748-12.46947,2.771-27.4745-5.26495-27.70993-8.313a35.6842,35.6842,0,0,1,.02774-5.00162C515.53636,616.34992,567.188,616.6963,586.82041,628.12664Z" transform="translate(-118.25 -16.78205)" fill="#6c63ff"/><path d="M532.75832,286.15836s-24.93893-8.313-47.10687,16.626l-4.15649,8.313s-31.86642,9.69848-41.56489,16.626c0,0-29.09542-6.92748-65.11832,0l-36.02291-8.313S269.514,270.9179,262.58655,301.39882s65.11832,41.56489,65.11832,41.56489l59.57634,16.62595s45.72138,11.084,63.73283,2.771c0,0,51.26336-2.771,60.96184-22.16794l20.78244,9.69847Z" transform="translate(-118.25 -16.78205)" fill="#9d616a"/><path d="M618.65909,279.23088s51.26336-5.542,70.66031,20.78244l40.17939,11.084s44.33588-8.313,60.96183-4.15648l36.02291-9.69848s34.6374-55.41985,54.03435-40.17939-45.72138,63.73283-45.72138,63.73283l-87.28626,29.09542s-67.88932,5.542-81.74428-19.397L650.5255,365.13165l-58.19084-13.855Z" transform="translate(-118.25 -16.78205)" fill="#9d616a"/><circle cx="451.91672" cy="218.11295" r="37.4084" fill="#9d616a"/><path d="M550.76977,257.06294v30.48092l13.855,48.49237,41.56489-48.49237s-11.084-33.25191-11.084-38.7939S550.76977,257.06294,550.76977,257.06294Z" transform="translate(-118.25 -16.78205)" fill="#9d616a"/><path d="M660.91672,457.26715s-.67922,5.00162-6.983,5.45877c-12.62168.92835-33.87566,3.07576-47.74415,7.70344-20.78244,6.92749-83.12977,6.92749-83.12977,6.92749L519.0143,351.85849l1.9673-9.58753c-1.3855-11.084,9.69847-55.41985,9.69847-55.41985l8.09109-5.97149,7.579-1.63487,2.34141,2.06438c0,18.45482,18.01145,36.0229,18.01145,36.0229,26.32443-12.46947,37.4084-40.17939,37.4084-40.17939l7.80018-1.15,8.16076.91439,7.3848.83135-2.5633,2.17524-1.3855,2.771c-.08321.16625.069-.16625,0,0-20.1729,42.798,4.18423,62.15351,19.39695,70.66031,6.30442,3.54695,6.92748,6.92748,6.92748,6.92748s5.6942-1.70413,5.542,4.15649c-.45732,18.96753-3.90686,61.7931,1.38549,73.4313C663.68772,453.11066,660.91672,457.26715,660.91672,457.26715Z" transform="translate(-118.25 -16.78205)" fill="#efefef"/><path d="M530.68007,209.60529a93.27626,93.27626,0,0,1,3.15894-9.06556c1.57946-3.62622,0-14.50488,1.57946-14.50488h6.31787l7.89732-7.25245,4.7384,3.62622,6.31786-3.62622,7.89733,3.62622,7.89733-3.62622,12.63573,9.06556,3.15893-1.81311,3.15893,5.43933h1.57947l6.31786,9.06555h3.15893v9.06556h3.15893v23.57044l-4.15649,16.267-1.38549-7.98178a.504.504,0,0,0-.92806-.27248l-3.00675,4.67905-1.92912-7.3816A49.34078,49.34078,0,0,0,579.79791,210.884c-11.68845-8.48128-28.58478-12.52-45.9589,11.41308Z" transform="translate(-118.25 -16.78205)" fill="#2f2e41"/><path d="M538.77116,280.87962c-2.63231,16.00247-10.58471,60.25514-19.75686,70.97887l-.11094-3.3528c-1.3855-11.084,8.313-65.11832,8.313-65.11832Z" transform="translate(-118.25 -16.78205)" fill="#6c63ff"/><path d="M611.91156,276.00265c-6.95522,13.13448-26.87849,47.03762-45.90133,44.79312-18.35783-2.16137-19.882-29.56653-19.66011-41.551l4.41965-.956c0,18.45482,16.626,34.194,16.626,34.194,26.32442-12.46947,34.70641-37.57465,34.70641-37.57465Z" transform="translate(-118.25 -16.78205)" fill="#6c63ff"/><path d="M657.453,355.43317s-.15221,3.713-.30443,9.57366a57.66579,57.66579,0,0,1-11.41681-1.7733C602.93357,351.9417,615.445,293.82011,620.07232,276.917l7.3848.83135h.01353c.20769.194.42959.40176.65148.60962-20.1729,42.798,2.84,63.60818,18.05272,72.115A57.88143,57.88143,0,0,0,657.453,355.43317Z" transform="translate(-118.25 -16.78205)" fill="#6c63ff"/><path d="M664.38046,462.11639s-4.143.15238-10.44669.60953A329.94787,329.94787,0,0,1,646.369,427.479c-1.82861-12.802-1.24681-44.29427-.63727-64.24545.16642-5.22335.31864-9.67091.44311-12.76054a57.88143,57.88143,0,0,0,11.27813,4.96018s-.15221,3.713-.30443,9.57366c-.45732,18.96753-.83143,60.53242,4.46092,72.17062C668.537,452.41791,664.38046,462.11639,664.38046,462.11639Z" transform="translate(-118.25 -16.78205)" fill="#6c63ff"/><path d="M534.83656,367.10234s44.33588-21.21213,87.28627,0" transform="translate(-118.25 -16.78205)" fill="#6c63ff"/><path d="M525.489,477.7824s13-1,45,2,85-17,85-17" transform="translate(-118.25 -16.78205)" fill="#cacaca"/><path d="M350.51,254.29v.95c0,.25,0,.51-.02.76a58.68911,58.68911,0,0,1-12.87,35.6c-.41.53-.84,1.04-1.27991,1.55-.66016.78-1.34009,1.53-2.04,2.27-.06006.06-.12012.13-.19006.19l-.02991.03c-.08008.08-.16016.17-.24.25q-1.84515,1.90494-3.87012,3.65c-.27.23-.55.47-.84.7A58.79236,58.79236,0,0,1,292,313.8c-.1.01-.21.01-.31006.01h-.34985c-.1001,0-.20008,0-.3-.01-.3501,0-.69006-.01-1.04-.02a58.72831,58.72831,0,0,1-36.90991-14.19c-.28-.23-.56006-.47-.83008-.72-1.07007-.94-2.1001-1.93-3.09009-2.95-.07983-.08-.15991-.17-.24-.25l-.02991-.03c-.06994-.06-.13-.13-.19006-.19-.84-.88-1.6499-1.79-2.42993-2.72q-.64508-.765-1.26-1.56A58.61459,58.61459,0,0,1,232.49,256c-.02-.24-.02-.49-.02-.74v-.93c0-.11,0-.22.01-.33A58.69289,58.69289,0,0,1,244.79,218.68q.61486-.795,1.26-1.56c.79-.96,1.61987-1.89,2.47-2.8.06006-.07.12-.13.18994-.2,0-.01.01-.02.02-.03.08008-.08.16-.17.25-.25q1.66517-1.725,3.47-3.32c.27-.25.55-.49.83008-.72a58.77748,58.77748,0,0,1,37.7-14.03c.1001-.01.21-.01.31006-.01h.6499a58.80169,58.80169,0,0,1,37,13.4c.28.24.56006.47.84009.71,1.46,1.24,2.86,2.56,4.18994,3.94.08008.08.16.17.24.25l.02.02c.07007.06.14.14.2.2.74.78,1.45007,1.59,2.14014,2.41.43994.51.85986,1.02,1.27991,1.55A58.69052,58.69052,0,0,1,350.5,254,2.807,2.807,0,0,1,350.51,254.29Z" transform="translate(-118.25 -16.78205)" fill="#6c63ff"/><rect x="171.75" y="179.21795" width="2" height="118" fill="#fff"/><rect x="113.75" y="237.21795" width="118.51001" height="2" fill="#fff"/><path d="M265.98,254a45.92906,45.92906,0,0,0-19.92993-36.88q-.64507.765-1.26,1.56A43.96072,43.96072,0,0,1,263.99,254c.01.33.01.66.01,1s0,.67-.01,1a44.004,44.004,0,0,1-18.97,35.17q.61487.795,1.26,1.56A45.95941,45.95941,0,0,0,265.98,256c.02-.33.02-.67.02-1S266,254.33,265.98,254Z" transform="translate(-118.25 -16.78205)" fill="#fff"/><path d="M318.01,256c-.01-.33-.01-.66-.01-1s0-.67.01-1a43.99751,43.99751,0,0,1,19.84-35.76c-.42005-.53-.84-1.04-1.27991-1.55A45.96454,45.96454,0,0,0,316.02,254c-.02.33-.02.67-.02,1s0,.67.02,1a45.95016,45.95016,0,0,0,20.32007,37.15c.43994-.51.86987-1.02,1.27991-1.55A43.981,43.981,0,0,1,318.01,256Z" transform="translate(-118.25 -16.78205)" fill="#fff"/></svg>