<svg id="b15325d2-ef49-41bb-b39b-b88ff27f55f0" data-name="Layer 1" xmlns="http://www.w3.org/2000/svg" width="1136" height="647.59525" viewBox="0 0 1136 647.59525"><title>journey</title><circle cx="248" cy="214.52253" r="86" fill="#ff6584"/><path d="M1132.4,737.99486a174.16457,174.16457,0,0,1-15.93,12.73,201.78713,201.78713,0,0,1-42.42993,22.81c-62.3501-1.5-154.01-9.15-269.71-13.23q-12.945-4.42492-26.48-9.58-17.91-6.825-36.85-15c-52.44-22.66-106.28-37.39-159.61-46.19q-17.19-2.835-34.29-4.86C306.28,655.87487,84.2,740.49486,58.48,750.7249H56l15.82-30.64L341,198.7249l62.95,161.62,20.09,51.59,55.37-75.98,28.59-39.23,130.2,149.27,36.8-81.27,254.78,207.92,14.21,11.59,14.38,11.74,4.58,3.74,136.2099,111.16Z" transform="translate(-32 -126.20237)" fill="#f2f2f2"/><polygon points="285 177.523 311 120.523 347 203.523 316 143.523 285 177.523" opacity="0.1"/><path d="M581.39,689.5349q-17.19-2.835-34.29-4.86L424.04,411.93486Z" transform="translate(-32 -126.20237)" opacity="0.1"/><polygon points="447.411 209.752 476 187.523 606 337.523 474 209.523 447.411 209.752" opacity="0.1"/><polygon points="606.197 319.789 866 568.523 830.464 576.904 606.197 319.789" opacity="0.1"/><path d="M1168,751.2249c0,19.37-32.96,23.78-93.96,22.31-62.3501-1.5-154.01-9.15-269.71-13.23-43.76-1.54-90.97-2.58-141.33-2.58-313.7,0-631,40.17-631-6.5,0-11,14.12-21.5,39.82-31.14,76.2-28.58,254.18-49.51,467.4-52.88q14.55-.24,29.31006-.35,15.63-.135,31.47-.13c84.77,0,165.21,2.76,237.46,7.71.23.02.45.04.68.05005q8.7.6,17.23,1.24,9.315.705,18.43,1.45c1.25.1,2.5.19995,3.74.31.9.06995,1.8.15,2.69.23,1.64.13,3.28.27,4.9.42a.9139.9139,0,0,1,.17.01q4.47006.39,8.88.78c.31.03.62.06.93.07995,85.45,7.75,156.06994,18.76,204.04992,31.87C1143.06006,722.86492,1168,736.60491,1168,751.2249Z" transform="translate(-32 -126.20237)" fill="#3f3d56"/><path d="M102.88672,584.38439c0,64.01613,40.16036,115.81716,89.79084,115.81716" transform="translate(-32 -126.20237)" fill="#3f3d56"/><path d="M192.67756,700.20155c0-64.73541,44.81663-117.11848,100.20137-117.11848" transform="translate(-32 -126.20237)" fill="#6c63ff"/><path d="M135.41964,590.18756c0,60.80851,25.6095,110.014,57.25792,110.014" transform="translate(-32 -126.20237)" fill="#6c63ff"/><path d="M192.67756,700.20155c0-82.71747,51.801-149.65139,115.81717-149.65139" transform="translate(-32 -126.20237)" fill="#3f3d56"/><path d="M173.78788,701.01808s12.73382-.39219,16.57147-3.12493,19.58782-5.99579,20.53985-1.61307,19.13657,21.79764,4.76015,21.91361-33.4044-2.23935-37.23467-4.57252S173.78788,701.01808,173.78788,701.01808Z" transform="translate(-32 -126.20237)" fill="#a8a8a8"/><path d="M215.91591,716.668c-14.37642.116-33.40439-2.23933-37.23466-4.5725-2.917-1.77683-4.07933-8.15254-4.46826-11.094-.26934.01158-.4251.01657-.4251.01657s.80653,10.26991,4.6368,12.60309,22.85824,4.6885,37.23466,4.57251c4.14991-.03347,5.58335-1.51,5.50465-3.69673C220.58748,715.81814,219.00474,716.64314,215.91591,716.668Z" transform="translate(-32 -126.20237)" opacity="0.2"/><path d="M794.88672,575.38439c0,64.01613,40.16036,115.81716,89.79084,115.81716Z" transform="translate(-32 -126.20237)" fill="#3f3d56"/><path d="M884.67756,691.20155c0-64.73541,44.81663-117.11848,100.20137-117.11848Z" transform="translate(-32 -126.20237)" fill="#6c63ff"/><path d="M827.41964,581.18756c0,60.80851,25.6095,110.014,57.25792,110.014Z" transform="translate(-32 -126.20237)" fill="#6c63ff"/><path d="M884.67756,691.20155c0-82.71747,51.801-149.65139,115.81717-149.65139Z" transform="translate(-32 -126.20237)" fill="#3f3d56"/><path d="M865.78788,692.01808s12.73382-.39219,16.57147-3.12493,19.58782-5.99579,20.53985-1.61307,19.13657,21.79764,4.76015,21.91361-33.4044-2.23935-37.23467-4.57252S865.78788,692.01808,865.78788,692.01808Z" transform="translate(-32 -126.20237)" fill="#a8a8a8"/><path d="M907.91591,707.668c-14.37642.116-33.40439-2.23933-37.23466-4.5725-2.917-1.77683-4.07933-8.15254-4.46826-11.094-.26934.01158-.4251.01657-.4251.01657s.80653,10.26991,4.6368,12.60309,22.85824,4.6885,37.23466,4.57251c4.14991-.03347,5.58335-1.51,5.50465-3.69673C912.58748,706.81814,911.00474,707.64314,907.91591,707.668Z" transform="translate(-32 -126.20237)" opacity="0.2"/><rect x="481" y="440.47905" width="18" height="32.08696" fill="#3f3d56"/><circle cx="490" cy="449.08775" r="3.52174" fill="#f2f2f2"/><path d="M524.1823,539.26133s-5.47845,31.775,4.38275,32.87065,1.09569-33.96634,1.09569-33.96634Z" transform="translate(-32 -126.20237)" fill="#ffb9b9"/><path d="M530.75643,430.78818s-11.50473,109.021-8.21767,110.66453,12.05257,3.8349,13.69611,2.19137,8.21766-69.02836,8.21766-69.02836l-4.9306-35.062Z" transform="translate(-32 -126.20237)" fill="#575a89"/><path d="M530.75643,430.78818s-11.50473,109.021-8.21767,110.66453,12.05257,3.8349,13.69611,2.19137,8.21766-69.02836,8.21766-69.02836l-4.9306-35.062Z" transform="translate(-32 -126.20237)" opacity="0.1"/><rect x="519.84843" y="255.55376" width="34.51418" height="37.2534" fill="#2f2e41"/><path d="M559.79217,398.46538s-1.09569,24.10514-8.76551,25.74867,7.122,29.58359,7.122,29.58359l23.00946-2.19138,5.47844-32.87065s-12.60042-2.19138-8.21766-19.17455Z" transform="translate(-32 -126.20237)" fill="#ffb9b9"/><path d="M559.79217,398.46538s-1.09569,24.10514-8.76551,25.74867,7.122,29.58359,7.122,29.58359l23.00946-2.19138,5.47844-32.87065s-12.60042-2.19138-8.21766-19.17455Z" transform="translate(-32 -126.20237)" opacity="0.1"/><polygon points="528.888 547.829 530.531 557.142 540.393 554.951 538.201 545.637 528.888 547.829" fill="#ffb9b9"/><polygon points="560.115 533.585 556.828 543.446 567.237 548.924 567.785 540.707 560.115 533.585" fill="#ffb9b9"/><path d="M549.38313,511.86912s-13.14826,38.34909-10.409,56.42795,13.6961,104.09039,13.6961,104.09039,12.60042,8.21766,20.27024-1.09569L567.462,597.88066s1.09569-44.37538,5.47845-39.99263,21.36592,55.88011,21.36592,55.88011l-3.28707,46.56675s1.64354,14.244,11.50473,8.21766l13.69611-51.49735s-4.38276-69.02836-6.57413-71.76759-16.43533-34.51418-16.43533-34.51418Z" transform="translate(-32 -126.20237)" fill="#2f2e41"/><circle cx="539.02297" cy="267.05848" r="15.88748" fill="#ffb9b9"/><path d="M554.86157,432.43172s6.02628,8.7655,13.6961,2.73922,12.05257-6.57413,12.05257-6.57413l9.31336,5.47844-2.19138,21.36592,3.28706,59.16717s-39.99262,3.28707-42.184-1.09569,2.73922-23.00945,2.73922-23.00945l-7.122-39.99263V432.43172Z" transform="translate(-32 -126.20237)" fill="#6c63ff"/><path d="M567.462,448.3192s-9.86119-30.13143-13.14826-30.67928-12.60041,6.02629-12.60041,6.02629-13.69611,4.38275-13.69611,7.122,2.19138,2.73922,2.19138,2.73922l7.66982,14.7918s3.28706,13.14826,2.19138,21.91376a88.13933,88.13933,0,0,0-.54785,15.88748s-12.05257,72.31543-6.02628,74.50681,6.02628,4.38275,6.02628,4.38275,8.76551,4.9306,10.409,2.73923,17.531-96.42058,17.531-96.42058S575.67965,455.44117,567.462,448.3192Z" transform="translate(-32 -126.20237)" fill="#575a89"/><path d="M569.65336,448.3192s4.9306-11.50473,2.19138-19.17455c0,0,2.73922-.54784,3.83491-2.19138s0-9.86119,2.73922-10.409,23.00945,0,24.10514,1.09569,4.38276,8.76551,4.38276,8.76551h-1.64354l-12.05257,19.72239s6.02629,37.2534,4.9306,43.27969,15.88748,31.22712,18.07886,32.87065,12.05257,27.94005,7.66981,30.67927-42.73184,20.27024-44.37537,11.50473-13.14826-61.35855-13.14826-61.35855-.54785-29.03574,1.09568-36.15771S569.65336,448.3192,569.65336,448.3192Z" transform="translate(-32 -126.20237)" fill="#575a89"/><path d="M595.402,535.97426s-11.50473,37.80125,0,36.15772,8.7655-37.2534,8.7655-37.2534Z" transform="translate(-32 -126.20237)" fill="#ffb9b9"/><path d="M571.32123,681.17238s9.08285,2.5951,8.43408,8.43408a9.71568,9.71568,0,0,1-5.839,7.78531,5.864,5.864,0,0,0-2.5951,5.839c.64877,3.89266-5.19021,9.73163-14.92184,7.13653s-7.7853-5.1902-7.7853-5.1902a11.26783,11.26783,0,0,1,4.54143-7.13653c3.89265-2.5951,8.43408-11.678,8.43408-12.32673s1.29755-5.1902,1.29755-5.1902S568.07735,677.27973,571.32123,681.17238Z" transform="translate(-32 -126.20237)" fill="#2f2e41"/><path d="M590.47144,668.55255s-9.8612,4.38276-7.66982,9.8612,9.31335,13.14826,10.409,21.36592,10.409,15.33964,16.98317,10.95688-1.09569-13.14826-1.09569-13.14826-8.21766-15.33963-8.7655-18.6267,1.09568-6.57413-2.19138-7.66982S590.47144,668.55255,590.47144,668.55255Z" transform="translate(-32 -126.20237)" fill="#2f2e41"/><path d="M604.98931,432.15779s-1.36961-6.3002.27392-2.4653,13.69611,50.40167,2.73922,78.34172c0,0-1.09568,34.51418-2.19137,34.51418s-14.24395-.54784-13.69611-4.38275,1.64354-65.7413,1.64354-69.57621,1.91745-28.76182,1.91745-28.76182Z" transform="translate(-32 -126.20237)" opacity="0.1"/><path d="M602.524,422.57052a33.12091,33.12091,0,0,1,4.38276,7.122c1.64353,3.83491,13.6961,50.40167,2.73922,78.34172,0,0-1.09569,34.51418-2.19138,34.51418s-14.244-.54784-13.6961-4.38275,1.64353-65.7413,1.64353-69.57621-3.28707-29.58358-3.28707-29.58358Z" transform="translate(-32 -126.20237)" fill="#575a89"/><path d="M562.06664,365.29006c-5.74816,1.7972-10.04012,6.49335-14.04029,10.99556a23.29811,23.29811,0,0,0-3.91847,5.36453,21.60534,21.60534,0,0,0-1.58244,7.88578q-.40026,6.28729-.25579,12.5935c.09248,4.02734.33893,8.1557-.899,11.98919-1.19679,3.70616-3.68829,6.83907-5.39964,10.33753-2.73008,5.581-3.36011,12.35333-.84,18.03222,1.38711,3.12574,3.63192,5.7863,5.30932,8.76634a27.15147,27.15147,0,0,1,3.11988,17.46249l7.88892-10.21951c5.05278-6.54551,10.26534-13.44251,11.68688-21.58828,2.06188-11.81519-4.24075-23.38756-5.48446-35.31664-.3468-3.32637-.23023-6.91861,1.6525-9.68273,2.77915-4.08018,8.82389-5.52151,10.495-10.16684.24173,1.94545,11.89466,8.14075,13.29816,6.93564a14.51,14.51,0,0,1-2.20146,14.01457c-1.12786,1.40049-2.51435,2.57886-3.61445,4.00127-2.84925,3.684-3.49747,8.65127-3.09527,13.29114s1.738,9.14584,2.44412,13.74927a102.11345,102.11345,0,0,1,.85323,13.82413c.0524,3.19959-.03538,6.77005-2.2792,9.05158a27.39518,27.39518,0,0,0,9.86112-6.04363,49.11278,49.11278,0,0,1,4.91821-4.662c3.529-2.54585,8.31031-3.301,11.18921-6.564,2.57039-2.91334,2.97992-7.1873,2.37625-11.02528s-2.07566-7.48963-2.81646-11.30352a30.364,30.364,0,0,1,.76223-14.58414c1.048-3.43319,2.72045-6.74252,2.92493-10.32629.41707-7.30951-5.2188-13.42364-10.63754-18.34709C585.66419,366.379,573.092,361.84293,562.06664,365.29006Z" transform="translate(-32 -126.20237)" fill="#2f2e41"/><path d="M1027.39482,230.5689c-4.857,1.7933-13.38259,3.26015-23.2535,4.44438-26.83867,3.22058-63.62032,4.36383-63.62032,4.36383s-189.0253,15.679-330.70558-42.63071c0,0-20.60808-10.8064-1.46545-25.34357a61.77838,61.77838,0,0,1,9.348-5.70772s.07914-.08056.236-.23036a49.53381,49.53381,0,0,1,7.02339-5.4138c7.33852-4.744,19.73332-10.37258,34.81595-7.82324l372.09132,60.18636S1045.45639,223.89738,1027.39482,230.5689Z" transform="translate(-32 -126.20237)" fill="#f2f2f2"/><path d="M953.25012,203.29453l77.89968-55.271,34.33449,5.93771-33.61984,58.45215S954.14479,213.03181,953.25012,203.29453Z" transform="translate(-32 -126.20237)" fill="#f2f2f2"/><polygon points="725.129 43.517 880.294 0 905.307 5.226 835.216 36.756 813.306 61.264 725.129 43.517" fill="#f2f2f2"/><path d="M1004.14132,235.01328c-26.83867,3.22058-63.62032,4.36383-63.62032,4.36383s-189.0253,15.679-330.70558-42.63071c0,0-20.60808-10.8064-1.46545-25.34357l.065.2657s30.56942,20.66176,176.63616,37.91357Z" transform="translate(-32 -126.20237)" fill="#f2f2f2"/><path d="M979.19823,233.81849l69.37564,28.32362L1066,260.207l-41.496-31.18418S974.31509,218.319,979.19823,233.81849Z" transform="translate(-32 -126.20237)" fill="#f2f2f2"/><path d="M633.54373,174.69408c-3.31244.05795-10.89544-5.49577-15.60973-9.22933a49.53381,49.53381,0,0,1,7.02339-5.4138c3.8,2.91676,10.56476,7.63952,14.32517,7.47136C644.7105,167.27925,638.52652,174.60788,633.54373,174.69408Z" transform="translate(-32 -126.20237)" fill="#f2f2f2"/><path d="M948.70229,331.73429l-44.539,2.32843L778.94323,249.62211l-23.24661-15.676-11.29818-7.61838c21.18648-17.9069,107.61585,6.78284,107.61585,6.78284,1.65531,1.397,2.18045,3.71721,2.1051,6.27929-.14236,4.802-2.39709,10.454-3.26684,12.46526-.209.48479-.33747.75758-.33747.75758Z" transform="translate(-32 -126.20237)" fill="#f2f2f2"/><path d="M1027.39482,230.5689c-4.857,1.7933-13.38259,3.26015-23.2535,4.44438-26.83867,3.22058-63.62032,4.36383-63.62032,4.36383s-189.0253,15.679-330.70558-42.63071c0,0-20.60808-10.8064-1.46545-25.34357a61.77838,61.77838,0,0,1,9.348-5.70772s.07914-.08056.236-.23036a49.53381,49.53381,0,0,1,7.02339-5.4138c7.33852-4.744,19.73332-10.37258,34.81595-7.82324l372.09132,60.18636S1045.45639,223.89738,1027.39482,230.5689Z" transform="translate(-32 -126.20237)" fill="#3f3d56"/><path d="M953.25012,203.29453l77.89968-55.271,34.33449,5.93771-33.61984,58.45215S954.14479,213.03181,953.25012,203.29453Z" transform="translate(-32 -126.20237)" fill="#3f3d56"/><polygon points="725.129 43.517 880.294 0 905.307 5.226 835.216 36.756 813.306 61.264 725.129 43.517" fill="#3f3d56"/><path d="M1004.14132,235.01328c-26.83867,3.22058-63.62032,4.36383-63.62032,4.36383s-189.0253,15.679-330.70558-42.63071c0,0-20.60808-10.8064-1.46545-25.34357l.065.2657s30.56942,20.66176,176.63616,37.91357Z" transform="translate(-32 -126.20237)" fill="#6c63ff"/><path d="M979.19823,233.81849l69.37564,28.32362L1066,260.207l-41.496-31.18418S974.31509,218.319,979.19823,233.81849Z" transform="translate(-32 -126.20237)" fill="#3f3d56"/><path d="M633.54373,174.69408c-3.31244.05795-10.89544-5.49577-15.60973-9.22933a49.53381,49.53381,0,0,1,7.02339-5.4138c3.8,2.91676,10.56476,7.63952,14.32517,7.47136C644.7105,167.27925,638.52652,174.60788,633.54373,174.69408Z" transform="translate(-32 -126.20237)" fill="#6c63ff"/><path d="M948.70229,331.73429l-44.539,2.32843L778.94323,249.62211l-23.24661-15.676-11.29818-7.61838c21.18648-17.9069,107.61585,6.78284,107.61585,6.78284,1.65531,1.397,2.18045,3.71721,2.1051,6.27929-.14236,4.802-2.39709,10.454-3.26684,12.46526-.209.48479-.33747.75758-.33747.75758Z" transform="translate(-32 -126.20237)" fill="#3f3d56"/></svg>