<svg id="a43fef58-93e3-4b2a-95d4-5d6f5b254bac" data-name="Layer 1" xmlns="http://www.w3.org/2000/svg" xmlns:xlink="http://www.w3.org/1999/xlink" width="789.64856" height="685.81238" viewBox="0 0 789.64856 685.81238"><defs><linearGradient id="a58bc77d-d7c6-4666-8a0d-ed00993bb943" x1="402.82428" y1="111" x2="402.82428" gradientUnits="userSpaceOnUse"><stop offset="0" stop-color="gray" stop-opacity="0.25"/><stop offset="0.53514" stop-color="gray" stop-opacity="0.12"/><stop offset="1" stop-color="gray" stop-opacity="0.1"/></linearGradient><linearGradient id="b7096b96-a6e5-40a0-8495-668f721fa865" x1="156.14856" y1="155.60793" x2="156.14856" y2="44.60793" xlink:href="#a58bc77d-d7c6-4666-8a0d-ed00993bb943"/><linearGradient id="bd8fcb0c-fc33-4ce6-a14c-6ae057f424a4" x1="600.82428" y1="162" x2="600.82428" y2="51" xlink:href="#a58bc77d-d7c6-4666-8a0d-ed00993bb943"/><linearGradient id="b817f28f-fb8d-43b3-b5e3-371fe4351c11" x1="284.18665" y1="444.3671" x2="284.18665" y2="347.43966" xlink:href="#a58bc77d-d7c6-4666-8a0d-ed00993bb943"/><linearGradient id="f3733011-0533-4b0a-99a5-b2cac69df381" x1="328.38005" y1="612.95355" x2="328.38005" y2="477.10645" xlink:href="#a58bc77d-d7c6-4666-8a0d-ed00993bb943"/><linearGradient id="a3522568-3ad6-481f-991f-585577151e97" x1="293.79834" y1="784.26076" x2="293.79834" y2="656.50058" xlink:href="#a58bc77d-d7c6-4666-8a0d-ed00993bb943"/><linearGradient id="a9f0b9d3-d092-4ac0-8e54-902a8072ad58" x1="293.79834" y1="690.64039" x2="293.79834" y2="656.50058" xlink:href="#a58bc77d-d7c6-4666-8a0d-ed00993bb943"/><linearGradient id="ebdf252d-6d4f-435b-b47b-ef58c7336c9b" x1="276.50749" y1="601.74621" x2="276.50749" y2="440.36493" xlink:href="#a58bc77d-d7c6-4666-8a0d-ed00993bb943"/><linearGradient id="a546c8a8-dfb7-4e23-b8ce-f6544446d5f8" x1="316.37251" y1="767.18338" x2="316.37251" y2="601.74621" xlink:href="#a58bc77d-d7c6-4666-8a0d-ed00993bb943"/><linearGradient id="b4ed1ae3-c5bf-44e2-8c9e-d6e5af190705" x1="342.78912" y1="792.90619" x2="342.78912" y2="765.04871" xlink:href="#a58bc77d-d7c6-4666-8a0d-ed00993bb943"/><linearGradient id="bcb8a234-7b78-4ba6-93d7-ce8b78a4a410" x1="283.23171" y1="457.65578" x2="283.23171" y2="394.25599" xlink:href="#a58bc77d-d7c6-4666-8a0d-ed00993bb943"/><linearGradient id="ba302c6a-2722-46f0-8149-65cae9a02800" x1="72.29237" y1="361.1286" x2="72.29237" y2="333.37982" xlink:href="#a58bc77d-d7c6-4666-8a0d-ed00993bb943"/><linearGradient id="a9cd1f96-d352-499f-8e59-9ebd9c284d79" x1="283.23171" y1="428.83769" x2="283.23171" y2="397.1378" xlink:href="#a58bc77d-d7c6-4666-8a0d-ed00993bb943"/><linearGradient id="a900c852-3439-4d8e-ac72-a8e7321524f8" x1="78.05599" y1="318.86207" x2="78.05599" y2="215.11696" xlink:href="#a58bc77d-d7c6-4666-8a0d-ed00993bb943"/><linearGradient id="be92a705-e08c-4765-9715-9cc7233e10c4" x1="276.32281" y1="466.89204" x2="276.32281" y2="307.79241" xlink:href="#a58bc77d-d7c6-4666-8a0d-ed00993bb943"/><linearGradient id="ba810955-72e3-4a78-b469-e9cfab8e6a34" x1="276.32281" y1="464.80137" x2="276.32281" y2="305.70174" xlink:href="#a58bc77d-d7c6-4666-8a0d-ed00993bb943"/><linearGradient id="a9afce16-eb32-4f3c-8c61-05036a8e6450" x1="253.3898" y1="400.68394" x2="253.3898" y2="379.92859" gradientTransform="translate(521.86886 10.22158) rotate(68.22804)" xlink:href="#a58bc77d-d7c6-4666-8a0d-ed00993bb943"/><linearGradient id="b09ab568-d423-461a-a998-8d977d55b81d" x1="173.65422" y1="494.6524" x2="173.65422" y2="380.95123" xlink:href="#a58bc77d-d7c6-4666-8a0d-ed00993bb943"/><linearGradient id="ff3bc7dc-83b3-4bdb-81ac-fafcc5246435" x1="298.39707" y1="574.45518" x2="298.39707" y2="479.85413" xlink:href="#a58bc77d-d7c6-4666-8a0d-ed00993bb943"/><linearGradient id="f47ed495-81b3-4e2a-b748-5c8af9bf9b88" x1="373.13621" y1="573.88873" x2="373.13621" y2="542.20705" xlink:href="#a58bc77d-d7c6-4666-8a0d-ed00993bb943"/><linearGradient id="e15167c7-b911-4efd-b364-9547d628f3d8" x1="300.18665" y1="429.3671" x2="300.18665" y2="332.43966" gradientTransform="matrix(-1, 0, 0, 1, 1216, 0)" xlink:href="#a58bc77d-d7c6-4666-8a0d-ed00993bb943"/><linearGradient id="a07136d1-5b48-487d-a6a8-eeabdb4e7fea" x1="344.38005" y1="597.95355" x2="344.38005" y2="462.10645" gradientTransform="matrix(-1, 0, 0, 1, 1216, 0)" xlink:href="#a58bc77d-d7c6-4666-8a0d-ed00993bb943"/><linearGradient id="b61113da-2310-4dfa-b2c9-a70829250f50" x1="309.79834" y1="769.26076" x2="309.79834" y2="641.50058" gradientTransform="matrix(-1, 0, 0, 1, 1216, 0)" xlink:href="#a58bc77d-d7c6-4666-8a0d-ed00993bb943"/><linearGradient id="b7151272-18f7-4d8c-b708-b6374cef37ae" x1="309.79834" y1="675.64039" x2="309.79834" y2="641.50058" gradientTransform="matrix(-1, 0, 0, 1, 1216, 0)" xlink:href="#a58bc77d-d7c6-4666-8a0d-ed00993bb943"/><linearGradient id="f3ab1e42-1d0a-4147-b4d7-415ca273666b" x1="292.50749" y1="586.74621" x2="292.50749" y2="425.36493" gradientTransform="matrix(-1, 0, 0, 1, 1216, 0)" xlink:href="#a58bc77d-d7c6-4666-8a0d-ed00993bb943"/><linearGradient id="bdd462fd-bb43-40b3-b41e-e9097edfb2f7" x1="332.37251" y1="752.18338" x2="332.37251" y2="586.74621" gradientTransform="matrix(-1, 0, 0, 1, 1216, 0)" xlink:href="#a58bc77d-d7c6-4666-8a0d-ed00993bb943"/><linearGradient id="a5f660d2-018b-4969-aca4-69815ea27757" x1="358.78912" y1="777.90619" x2="358.78912" y2="750.04871" gradientTransform="matrix(-1, 0, 0, 1, 1216, 0)" xlink:href="#a58bc77d-d7c6-4666-8a0d-ed00993bb943"/><linearGradient id="e0093b5f-f2ba-4ac9-9420-f0136628424b" x1="299.23171" y1="442.65578" x2="299.23171" y2="379.25599" gradientTransform="matrix(-1, 0, 0, 1, 1216, 0)" xlink:href="#a58bc77d-d7c6-4666-8a0d-ed00993bb943"/><linearGradient id="ac6bb45d-adac-48ad-9764-c8be5dcd5329" x1="293.46809" y1="453.22241" x2="293.46809" y2="425.47363" gradientTransform="matrix(-1, 0, 0, 1, 1010.82428, -107.09381)" xlink:href="#a58bc77d-d7c6-4666-8a0d-ed00993bb943"/><linearGradient id="af0e1ca7-6d63-4f50-a099-b97e74540867" x1="299.23171" y1="413.83769" x2="299.23171" y2="382.1378" gradientTransform="matrix(-1, 0, 0, 1, 1216, 0)" xlink:href="#a58bc77d-d7c6-4666-8a0d-ed00993bb943"/><linearGradient id="aa1c28a0-21ff-4de2-84f4-f67526b5257b" x1="299.23171" y1="410.95589" x2="299.23171" y2="307.21077" gradientTransform="matrix(-1, 0, 0, 1, 1010.82428, -107.09381)" xlink:href="#a58bc77d-d7c6-4666-8a0d-ed00993bb943"/><linearGradient id="aeaa8ce8-4d56-4a02-a3fe-ada3d5695ef0" x1="292.32281" y1="451.89204" x2="292.32281" y2="292.79241" gradientTransform="matrix(-1, 0, 0, 1, 1216, 0)" xlink:href="#a58bc77d-d7c6-4666-8a0d-ed00993bb943"/><linearGradient id="a4390f66-820b-4840-ade1-63ec7397c555" x1="292.32281" y1="449.80137" x2="292.32281" y2="290.70174" gradientTransform="matrix(-1, 0, 0, 1, 1216, 0)" xlink:href="#a58bc77d-d7c6-4666-8a0d-ed00993bb943"/><linearGradient id="fb7b27c2-abc0-4911-bec2-f0e053f6c084" x1="269.3898" y1="385.68394" x2="269.3898" y2="364.92859" gradientTransform="matrix(-0.92867, -0.37091, -0.37091, 0.92867, 1335.98986, 126.69183)" xlink:href="#a58bc77d-d7c6-4666-8a0d-ed00993bb943"/><linearGradient id="e1d17c14-8c36-4fdf-9703-49f1162c5dae" x1="394.82994" y1="586.74621" x2="394.82994" y2="473.04504" gradientTransform="matrix(-1, 0, 0, 1, 1010.82428, -107.09381)" xlink:href="#a58bc77d-d7c6-4666-8a0d-ed00993bb943"/><linearGradient id="b3b5b917-e022-4456-a68a-754c74f8d9e2" x1="314.39707" y1="559.45518" x2="314.39707" y2="464.85413" gradientTransform="matrix(-1, 0, 0, 1, 1216, 0)" xlink:href="#a58bc77d-d7c6-4666-8a0d-ed00993bb943"/><linearGradient id="af7cd6a3-d00c-4765-bc85-b47f5ccbaa2d" x1="389.13621" y1="558.88873" x2="389.13621" y2="527.20705" gradientTransform="matrix(-1, 0, 0, 1, 1216, 0)" xlink:href="#a58bc77d-d7c6-4666-8a0d-ed00993bb943"/></defs><title>Meeting</title><rect x="366.32428" y="16" width="93" height="107" opacity="0.1"/><rect x="354.32428" width="97" height="111" fill="url(#a58bc77d-d7c6-4666-8a0d-ed00993bb943)"/><rect x="356.32428" y="2" width="93" height="107" fill="#fff"/><rect x="365.32428" y="15" width="14" height="15" fill="#3ad29f"/><rect x="390.32428" y="20" width="46" height="4" fill="#eee"/><rect x="379.32428" y="43" width="46" height="4" fill="#eee"/><rect x="379.32428" y="52" width="46" height="4" fill="#eee"/><rect x="379.32428" y="61" width="46" height="4" fill="#eee"/><rect x="379.32428" y="70" width="46" height="4" fill="#eee"/><rect x="379.32428" y="79" width="46" height="4" fill="#eee"/><rect x="379.32428" y="88" width="46" height="4" fill="#eee"/><rect x="119.64856" y="61.60793" width="93" height="107" opacity="0.1"/><rect x="107.64856" y="44.60793" width="97" height="111" fill="url(#b7096b96-a6e5-40a0-8495-668f721fa865)"/><rect x="109.64856" y="46.60793" width="93" height="107" fill="#fff"/><rect x="145.64856" y="71.60793" width="46" height="4" fill="#eee"/><rect x="145.64856" y="98.60793" width="46" height="4" fill="#eee"/><rect x="145.64856" y="125.60793" width="46" height="4" fill="#eee"/><rect x="119.64856" y="66.10793" width="16" height="16" fill="#6c63ff"/><rect x="119.64856" y="92.10793" width="16" height="16" fill="#6c63ff"/><rect x="119.64856" y="118.10793" width="16" height="16" fill="#6c63ff"/><rect x="569.32428" y="68" width="93" height="107" opacity="0.1"/><rect x="552.32428" y="51" width="97" height="111" fill="url(#bd8fcb0c-fc33-4ce6-a14c-6ae057f424a4)"/><rect x="554.32428" y="53" width="93" height="107" fill="#fff"/><rect x="580.32428" y="71" width="46" height="4" fill="#6c63ff"/><rect x="580.32428" y="129" width="46" height="4" fill="#eee"/><rect x="580.32428" y="138" width="46" height="4" fill="#eee"/><rect x="605.32428" y="90" width="34" height="4" fill="#eee"/><rect x="605.32428" y="99" width="34" height="4" fill="#eee"/><rect x="605.32428" y="108" width="34" height="4" fill="#eee"/><path d="M781.5,195.09381a14,14,0,1,0,14,14h-14Z" transform="translate(-205.17572 -107.09381)" fill="#3ad29f"/><path d="M783.5,192.09381v14h14A14,14,0,0,0,783.5,192.09381Z" transform="translate(-205.17572 -107.09381)" fill="#3ad29f" opacity="0.25"/><path d="M231.43778,387.69293l25.088,49.13072s55.40273,14.63468,77.35475,3.136c0,0,7.31735-88.85343,0-91.98943S226.2111,355.28756,231.43778,387.69293Z" transform="translate(-205.17572 -107.09381)" fill="url(#b817f28f-fb8d-43b3-b5e3-371fe4351c11)"/><path d="M349.28726,609.75487l-18.94391,3.19868L307.47283,477.5046l.82159-.13872a18.37884,18.37884,0,0,1,21.18227,15.06238Z" transform="translate(-205.17572 -107.09381)" fill="url(#f3733011-0533-4b0a-99a5-b2cac69df381)"/><path d="M377.37079,687.56644v65.6284a31.067,31.067,0,0,1-31.06592,31.06592H241.29181a31.067,31.067,0,0,1-31.06592-31.06592v-65.6284a31.028,31.028,0,0,1,31.06592-31.06586H346.30487a31.028,31.028,0,0,1,31.06592,31.06586Z" transform="translate(-205.17572 -107.09381)" fill="url(#a3522568-3ad6-481f-991f-585577151e97)"/><path d="M375.488,676.88454c-61.44974,30.95066-163.3793,0-163.3793,0a31.09429,31.09429,0,0,1,29.18312-20.384H346.30487A31.09429,31.09429,0,0,1,375.488,676.88454Z" transform="translate(-205.17572 -107.09381)" fill="url(#a9f0b9d3-d092-4ac0-8e54-902a8072ad58)"/><path d="M334.14366,601.74621H218.87132V489.19558A48.83064,48.83064,0,0,1,267.702,440.36493h31.0595c26.96842,0,35.3822,21.86222,35.3822,48.83065Z" transform="translate(-205.17572 -107.09381)" fill="url(#ebdf252d-6d4f-435b-b47b-ef58c7336c9b)"/><path d="M368.34748,601.74621H218.87132v.00006c0,24.9347,20.21358,54.75431,45.14827,54.75431h95.09975l-65.321,108.54813h.00006c55.71491,0,.96054,4.803,55.71491,0l59.654-100.61042a33.65765,33.65765,0,0,0,4.70643-17.1658v-.00006A45.52622,45.52622,0,0,0,368.34748,601.74621Z" transform="translate(-205.17572 -107.09381)" fill="url(#a546c8a8-dfb7-4e23-b8ce-f6544446d5f8)"/><path d="M391.77984,792.90619H293.7984V765.04871h71.33211A26.64932,26.64932,0,0,1,391.77984,791.698Z" transform="translate(-205.17572 -107.09381)" fill="url(#b4ed1ae3-c5bf-44e2-8c9e-d6e5af190705)"/><path d="M276.312,457.65578h-9.4105V394.256H299.562v40.14979A23.25,23.25,0,0,1,276.312,457.65578Z" transform="translate(-205.17572 -107.09381)" fill="url(#bcb8a234-7b78-4ba6-93d7-ce8b78a4a410)"/><polygon points="59.301 333.38 93.426 356.326 71.332 361.129 51.159 358.247 59.301 333.38" fill="url(#ba302c6a-2722-46f0-8149-65cae9a02800)"/><g opacity="0.1"><path d="M266.90146,426.19938a51.85853,51.85853,0,0,0,32.6605,0V397.1378h-32.6605Z" transform="translate(-205.17572 -107.09381)" fill="url(#a9cd1f96-d352-499f-8e59-9ebd9c284d79)"/></g><circle cx="78.05599" cy="266.98952" r="51.87256" fill="url(#a900c852-3439-4d8e-ac72-a8e7321524f8)"/><g opacity="0.1"><path d="M285.79517,362.6049s32.40537,13.58935,61.67473,0c0,0-12.544-60.6294-62.72007-54.35739s-113.94145,80.49075-57.49339,121.2588L276.32281,466.892l-8.29833-27.97772S226.2111,399.19161,285.79517,362.6049Z" transform="translate(-205.17572 -107.09381)" fill="url(#be92a705-e08c-4765-9715-9cc7233e10c4)"/></g><path d="M285.79517,360.51423s32.40537,13.58935,61.67473,0c0,0-12.544-60.62939-62.72007-54.35739s-113.94145,80.49076-57.49339,121.2588l49.06637,37.38573-8.29833-27.97772S226.2111,397.10094,285.79517,360.51423Z" transform="translate(-205.17572 -107.09381)" fill="url(#ba810955-72e3-4a78-b469-e9cfab8e6a34)"/><ellipse cx="253.3898" cy="390.30627" rx="10.97601" ry="5.22667" transform="translate(-408.23632 373.7575) rotate(-68.22804)" fill="url(#a9afce16-eb32-4f3c-8c61-05036a8e6450)"/><polygon points="142.294 399.767 150.101 494.652 205.014 472.941 196.652 380.951 142.294 399.767" fill="url(#b09ab568-d423-461a-a998-8d977d55b81d)"/><path d="M232.82525,493.72952c6.717,18.24575,38.2988,87.03613,130.77774,80.25756a1.12512,1.12512,0,0,0,1.01658-1.34943l-3.579-17.00037s-54.2465-1.64384-76.06833-41.42459a76.42735,76.42735,0,0,0-23.89885-26.80258c-9.18416-6.21514-19.49319-10.58692-25.69535-4.95384A10.38269,10.38269,0,0,0,232.82525,493.72952Z" transform="translate(-205.17572 -107.09381)" fill="url(#ff3bc7dc-83b3-4bdb-81ac-fafcc5246435)"/><path d="M361.04054,555.63728s22.09387-22.09387,28.81809-9.606-18.25145,24.01507-25.93628,27.85748l-8.64542-9.606Z" transform="translate(-205.17572 -107.09381)" fill="url(#f47ed495-81b3-4e2a-b748-5c8af9bf9b88)"/><path d="M234.82428,394.70174l24,47s53,14,74,3c0,0,7-85,0-88S229.82428,363.70174,234.82428,394.70174Z" transform="translate(-205.17572 -107.09381)" fill="#fdd835"/><path d="M318.37289,478.17139h0a18.37885,18.37885,0,0,1,18.37885,18.37885v113.03a0,0,0,0,1,0,0H318.37289a0,0,0,0,1,0,0V478.17139A0,0,0,0,1,318.37289,478.17139Z" transform="matrix(0.98604, -0.16649, 0.16649, 0.98604, -291.15534, -44.9659)" fill="#fdb797"/><path d="M374.42842,681.57022v62.7822a29.7197,29.7197,0,0,1-29.71865,29.71865H244.251a29.71969,29.71969,0,0,1-29.71864-29.71865v-62.7822A29.6824,29.6824,0,0,1,244.251,651.85164H344.70977a29.6824,29.6824,0,0,1,29.71865,29.71858Z" transform="translate(-205.17572 -107.09381)" fill="#3ad29f"/><path d="M372.62727,671.35158c-58.78476,29.60838-156.2938,0-156.2938,0A29.74577,29.74577,0,0,1,244.251,651.85164H344.70977A29.74577,29.74577,0,0,1,372.62727,671.35158Z" transform="translate(-205.17572 -107.09381)" fill="#fff" opacity="0.5"/><path d="M333.076,599.47188H222.80281V491.80238a46.71293,46.71293,0,0,1,46.71294-46.71294h29.71249c25.79885,0,33.84774,20.91409,33.84774,46.71294Z" transform="translate(-205.17572 -107.09381)" fill="#6c63ff"/><path d="M365.79643,599.47188H222.80281v0c0,23.85332,19.337,52.37971,43.19027,52.37971H356.9685L294.48037,755.69221h0c53.29865,0,.91889,4.59471,53.29865,0l57.06687-96.24711a32.19806,32.19806,0,0,0,4.50232-16.42135v0A43.55182,43.55182,0,0,0,365.79643,599.47188Z" transform="translate(-205.17572 -107.09381)" fill="#0e0d15"/><path d="M89.30471,648.5984h67.08282a26.64932,26.64932,0,0,1,26.64932,26.64932v0a0,0,0,0,1,0,0H89.30471a0,0,0,0,1,0,0V648.5984A0,0,0,0,1,89.30471,648.5984Z" fill="#0e0d15"/><path d="M65.07424,295.38636H96.31831a0,0,0,0,1,0,0V332.7866a23.25,23.25,0,0,1-23.25,23.25H65.07424a0,0,0,0,1,0,0V295.38636A0,0,0,0,1,65.07424,295.38636Z" fill="#fdb797"/><polygon points="61.254 338.1 93.899 360.05 72.764 364.645 53.466 361.888 61.254 338.1" fill="#6c63ff"/><path d="M268.75,431.53822a49.60934,49.60934,0,0,0,31.24407,0V403.737H268.75Z" transform="translate(-205.17572 -107.09381)" opacity="0.1"/><circle cx="80.69628" cy="276.08855" r="49.62293" fill="#fdb797"/><path d="M286.82428,370.70174s31,13,59,0c0,0-12-58-60-52s-109,77-55,116l46.93844,35.76437-7.93844-26.76437S229.82428,405.70174,286.82428,370.70174Z" transform="translate(-205.17572 -107.09381)" opacity="0.1"/><path d="M286.82428,368.70174s31,13,59,0c0,0-12-58-60-52s-109,77-55,116l46.93844,35.76437-7.93844-26.76437S229.82428,403.70174,286.82428,368.70174Z" transform="translate(-205.17572 -107.09381)" fill="#fdd835"/><ellipse cx="257.32428" cy="398.70174" rx="10.5" ry="5" transform="translate(-413.55779 382.6928) rotate(-68.22804)" fill="#fdb797"/><polygon points="140.649 401.608 148.117 492.378 200.649 471.608 192.649 383.608 140.649 401.608" fill="#e0e0e0"/><path d="M237.65158,497.63969c6.42574,17.45446,36.63785,83.26152,125.10612,76.77692a1.07632,1.07632,0,0,0,.9725-1.2909l-3.42381-16.2631s-51.89393-1.57254-72.76938-39.62807a73.1129,73.1129,0,0,0-22.86239-25.6402c-8.78586-5.94559-18.6478-10.12778-24.581-4.739A9.93241,9.93241,0,0,0,237.65158,497.63969Z" transform="translate(-205.17572 -107.09381)" fill="#fdb797"/><path d="M358.80639,555.36261s21.13569-21.13569,27.56829-9.18943-17.45992,22.97358-24.81147,26.64935l-8.27048-9.18943Z" transform="translate(-205.17572 -107.09381)" fill="#fdb797"/><path d="M968.56222,372.69293l-25.088,49.13072s-55.40273,14.63468-77.35475,3.136c0,0-7.31735-88.85343,0-91.98943S973.7889,340.28756,968.56222,372.69293Z" transform="translate(-205.17572 -107.09381)" fill="url(#e15167c7-b911-4efd-b364-9547d628f3d8)"/><path d="M850.71274,594.75487l18.94391,3.19868L892.52717,462.5046l-.82159-.13872a18.37884,18.37884,0,0,0-21.18227,15.06238Z" transform="translate(-205.17572 -107.09381)" fill="url(#a07136d1-5b48-487d-a6a8-eeabdb4e7fea)"/><path d="M822.62921,672.56644v65.6284a31.067,31.067,0,0,0,31.06592,31.06592H958.70819a31.067,31.067,0,0,0,31.06592-31.06592v-65.6284a31.028,31.028,0,0,0-31.06592-31.06586H853.69513a31.028,31.028,0,0,0-31.06592,31.06586Z" transform="translate(-205.17572 -107.09381)" fill="url(#b61113da-2310-4dfa-b2c9-a70829250f50)"/><path d="M824.512,661.88454c61.44974,30.95066,163.3793,0,163.3793,0a31.09429,31.09429,0,0,0-29.18312-20.384H853.69513A31.09429,31.09429,0,0,0,824.512,661.88454Z" transform="translate(-205.17572 -107.09381)" fill="url(#b7151272-18f7-4d8c-b708-b6374cef37ae)"/><path d="M865.85634,586.74621H981.12868V474.19558A48.83064,48.83064,0,0,0,932.298,425.36493h-31.0595c-26.96842,0-35.3822,21.86222-35.3822,48.83065Z" transform="translate(-205.17572 -107.09381)" fill="url(#f3ab1e42-1d0a-4147-b4d7-415ca273666b)"/><path d="M831.65252,586.74621H981.12868v.00006c0,24.9347-20.21358,54.75431-45.14827,54.75431H840.88066l65.321,108.54813h-.00006c-55.71491,0-.96054,4.803-55.71491,0l-59.654-100.61042a33.65765,33.65765,0,0,1-4.70643-17.1658v-.00006A45.52622,45.52622,0,0,1,831.65252,586.74621Z" transform="translate(-205.17572 -107.09381)" fill="url(#bdd462fd-bb43-40b3-b41e-e9097edfb2f7)"/><path d="M808.22016,777.90619H906.2016V750.04871H834.86949A26.64932,26.64932,0,0,0,808.22016,776.698Z" transform="translate(-205.17572 -107.09381)" fill="url(#a5f660d2-018b-4969-aca4-69815ea27757)"/><path d="M923.688,442.65578h9.4105V379.256H900.438v40.14979A23.25,23.25,0,0,0,923.688,442.65578Z" transform="translate(-205.17572 -107.09381)" fill="url(#e0093b5f-f2ba-4ac9-9420-f0136628424b)"/><polygon points="730.348 318.38 696.223 341.326 718.317 346.129 738.489 343.247 730.348 318.38" fill="url(#ac6bb45d-adac-48ad-9764-c8be5dcd5329)"/><g opacity="0.1"><path d="M933.09854,411.19938a51.85853,51.85853,0,0,1-32.6605,0V382.1378h32.6605Z" transform="translate(-205.17572 -107.09381)" fill="url(#af0e1ca7-6d63-4f50-a099-b97e74540867)"/></g><circle cx="711.59257" cy="251.98952" r="51.87256" fill="url(#aa1c28a0-21ff-4de2-84f4-f67526b5257b)"/><g opacity="0.1"><path d="M914.20483,347.6049s-32.40537,13.58935-61.67473,0c0,0,12.544-60.6294,62.72007-54.35739s113.94145,80.49075,57.49339,121.2588L923.67719,451.892l8.29833-27.97772S973.7889,384.19161,914.20483,347.6049Z" transform="translate(-205.17572 -107.09381)" fill="url(#aeaa8ce8-4d56-4a02-a3fe-ada3d5695ef0)"/></g><path d="M914.20483,345.51423s-32.40537,13.58935-61.67473,0c0,0,12.544-60.62939,62.72007-54.35739s113.94145,80.49076,57.49339,121.2588l-49.06637,37.38573,8.29833-27.97772S973.7889,382.10094,914.20483,345.51423Z" transform="translate(-205.17572 -107.09381)" fill="url(#a4390f66-820b-4840-ade1-63ec7397c555)"/><ellipse cx="946.6102" cy="375.30627" rx="5.22667" ry="10.97601" transform="translate(-276.85773 270.78813) rotate(-21.77196)" fill="url(#fb7b27c2-abc0-4911-bec2-f0e053f6c084)"/><polygon points="647.354 384.767 639.547 479.652 584.634 457.941 592.997 365.951 647.354 384.767" fill="url(#e1d17c14-8c36-4fdf-9703-49f1162c5dae)"/><path d="M967.17475,478.72952c-6.717,18.24575-38.2988,87.03613-130.77774,80.25756a1.12512,1.12512,0,0,1-1.01658-1.34943l3.579-17.00037s54.2465-1.64384,76.06833-41.42459a76.42735,76.42735,0,0,1,23.89885-26.80258c9.18416-6.21514,19.49319-10.58692,25.69535-4.95384A10.38269,10.38269,0,0,1,967.17475,478.72952Z" transform="translate(-205.17572 -107.09381)" fill="url(#b3b5b917-e022-4456-a68a-754c74f8d9e2)"/><path d="M838.95946,540.63728s-22.09387-22.09387-28.81809-9.606,18.25145,24.01507,25.93628,27.85748l8.64542-9.606Z" transform="translate(-205.17572 -107.09381)" fill="url(#af7cd6a3-d00c-4765-bc85-b47f5ccbaa2d)"/><path d="M965.17572,379.70174l-24,47s-53,14-74,3c0,0-7-85,0-88S970.17572,348.70174,965.17572,379.70174Z" transform="translate(-205.17572 -107.09381)" fill="#fdd835"/><path d="M863.24825,463.17139h18.37886a0,0,0,0,1,0,0v113.03a18.37885,18.37885,0,0,1-18.37885,18.37885h0a0,0,0,0,1,0,0V463.17139a0,0,0,0,1,0,0Z" transform="translate(1439.46858 1088.5309) rotate(-170.41602)" fill="#fdb797"/><path d="M825.57158,666.57022v62.7822a29.7197,29.7197,0,0,0,29.71865,29.71865H955.749a29.71969,29.71969,0,0,0,29.71864-29.71865v-62.7822A29.6824,29.6824,0,0,0,955.749,636.85164H855.29023a29.6824,29.6824,0,0,0-29.71865,29.71858Z" transform="translate(-205.17572 -107.09381)" fill="#3ad29f"/><path d="M827.37273,656.35158c58.78476,29.60838,156.2938,0,156.2938,0A29.74577,29.74577,0,0,0,955.749,636.85164H855.29023A29.74577,29.74577,0,0,0,827.37273,656.35158Z" transform="translate(-205.17572 -107.09381)" fill="#fff" opacity="0.5"/><path d="M866.924,584.47188H977.19719V476.80238a46.71293,46.71293,0,0,0-46.71294-46.71294H900.77176c-25.79885,0-33.84774,20.91409-33.84774,46.71294Z" transform="translate(-205.17572 -107.09381)" fill="#6c63ff"/><path d="M834.20357,584.47188H977.19719v0c0,23.85332-19.337,52.37971-43.19027,52.37971H843.0315l62.48813,103.84057h0c-53.29865,0-.91889,4.59471-53.29865,0L795.15406,644.4451a32.19806,32.19806,0,0,1-4.50232-16.42135v0A43.55182,43.55182,0,0,1,834.20357,584.47188Z" transform="translate(-205.17572 -107.09381)" fill="#0e0d15"/><path d="M811.78744,740.69221h93.73214a0,0,0,0,1,0,0v0a26.64932,26.64932,0,0,1-26.64932,26.64932H811.78744a0,0,0,0,1,0,0V740.69221A0,0,0,0,1,811.78744,740.69221Z" transform="translate(1512.13129 1400.93995) rotate(-180)" fill="#0e0d15"/><path d="M898.506,387.48017H906.5a23.25,23.25,0,0,1,23.25,23.25v37.40024a0,0,0,0,1,0,0H898.506a0,0,0,0,1,0,0V387.48017A0,0,0,0,1,898.506,387.48017Z" transform="translate(1623.08029 728.51677) rotate(-180)" fill="#fdb797"/><polygon points="728.394 323.1 695.749 345.05 716.885 349.645 736.183 346.888 728.394 323.1" fill="#6c63ff"/><path d="M931.25,416.53822a49.60934,49.60934,0,0,1-31.24407,0V388.737H931.25Z" transform="translate(-205.17572 -107.09381)" opacity="0.1"/><circle cx="708.95229" cy="261.08855" r="49.62293" fill="#fdb797"/><path d="M913.17572,355.70174s-31,13-59,0c0,0,12-58,60-52s109,77,55,116l-46.93844,35.76437,7.93844-26.76437S970.17572,390.70174,913.17572,355.70174Z" transform="translate(-205.17572 -107.09381)" opacity="0.1"/><path d="M913.17572,353.70174s-31,13-59,0c0,0,12-58,60-52s109,77,55,116l-46.93844,35.76437,7.93844-26.76437S970.17572,388.70174,913.17572,353.70174Z" transform="translate(-205.17572 -107.09381)" fill="#fdd835"/><ellipse cx="942.67572" cy="383.70174" rx="5" ry="10.5" transform="translate(-280.25238 269.92765) rotate(-21.77196)" fill="#fdb797"/><polygon points="649 386.608 641.532 477.378 589 456.608 597 368.608 649 386.608" fill="#e0e0e0"/><path d="M962.34842,482.63969c-6.42574,17.45446-36.63785,83.26152-125.10612,76.77692a1.07632,1.07632,0,0,1-.9725-1.2909l3.42381-16.2631s51.89393-1.57254,72.76938-39.62807a73.1129,73.1129,0,0,1,22.86239-25.6402c8.78586-5.94559,18.6478-10.12778,24.581-4.739A9.93241,9.93241,0,0,1,962.34842,482.63969Z" transform="translate(-205.17572 -107.09381)" fill="#fdb797"/><path d="M841.19361,540.36261s-21.13569-21.13569-27.56829-9.18943,17.45992,22.97358,24.81147,26.64935l8.27048-9.18943Z" transform="translate(-205.17572 -107.09381)" fill="#fdb797"/></svg>