<svg id="e1e18c23-21c5-4ba7-8e43-9b52646246a3" data-name="Layer 1" xmlns="http://www.w3.org/2000/svg" xmlns:xlink="http://www.w3.org/1999/xlink" width="895.76" height="694.3" viewBox="0 0 895.76 694.3"><defs><linearGradient id="3ccf89fc-b235-48c4-a7b3-ec74ccda02b2" x1="727.96" y1="757.2" x2="727.96" y2="618.07" gradientUnits="userSpaceOnUse"><stop offset="0" stop-color="gray" stop-opacity="0.25"/><stop offset="0.54" stop-color="gray" stop-opacity="0.12"/><stop offset="1" stop-color="gray" stop-opacity="0.1"/></linearGradient><linearGradient id="3d0c0a2e-ebd5-4792-8384-d506b1409550" x1="463.13" y1="554.16" x2="463.13" y2="196.77" xlink:href="#3ccf89fc-b235-48c4-a7b3-ec74ccda02b2"/><linearGradient id="cfc67d4e-9240-408d-ae53-2d0cbcb1d112" x1="615.25" y1="738.75" x2="615.25" y2="213.88" xlink:href="#3ccf89fc-b235-48c4-a7b3-ec74ccda02b2"/><linearGradient id="55618a58-b994-4cf3-bc33-e350414592a2" x1="137.3" y1="442.59" x2="137.3" y2="412.32" xlink:href="#3ccf89fc-b235-48c4-a7b3-ec74ccda02b2"/><linearGradient id="a62bac33-b4e8-4f63-988d-f7345c8676e6" x1="181.03" y1="442.59" x2="181.03" y2="412.32" xlink:href="#3ccf89fc-b235-48c4-a7b3-ec74ccda02b2"/><linearGradient id="01b0c20f-63c0-4fa3-acca-bb5f9cdc7d47" x1="56.57" y1="442.59" x2="56.57" y2="412.32" xlink:href="#3ccf89fc-b235-48c4-a7b3-ec74ccda02b2"/><linearGradient id="e792799f-2a16-4b5c-8db0-cb1aa0d2a23d" x1="113.76" y1="404.47" x2="113.76" y2="374.19" xlink:href="#3ccf89fc-b235-48c4-a7b3-ec74ccda02b2"/><linearGradient id="4900b58d-8dde-4024-9730-e3dd5ba623cc" x1="202.9" y1="410.64" x2="202.9" y2="380.36" xlink:href="#3ccf89fc-b235-48c4-a7b3-ec74ccda02b2"/><linearGradient id="8c5be7c8-2b17-4a1f-8c6e-c3983b864ee6" x1="181.03" y1="397.18" x2="181.03" y2="366.91" xlink:href="#3ccf89fc-b235-48c4-a7b3-ec74ccda02b2"/><linearGradient id="d5b7eefc-9f3e-4b39-92f9-ccf9139cee39" x1="191.69" y1="429.14" x2="191.69" y2="398.86" xlink:href="#3ccf89fc-b235-48c4-a7b3-ec74ccda02b2"/><linearGradient id="c31766a7-9c9c-44b4-8ede-5888174e1f8a" x1="152.44" y1="404.47" x2="152.44" y2="374.19" xlink:href="#3ccf89fc-b235-48c4-a7b3-ec74ccda02b2"/><linearGradient id="4348c26f-db85-4738-947f-fb5f7cbdce4b" x1="150.76" y1="361.86" x2="150.76" y2="331.59" xlink:href="#3ccf89fc-b235-48c4-a7b3-ec74ccda02b2"/><linearGradient id="66a2fc62-0231-470f-8d66-10fd6d934ae3" x1="225.32" y1="383.73" x2="225.32" y2="353.45" xlink:href="#3ccf89fc-b235-48c4-a7b3-ec74ccda02b2"/><linearGradient id="da71f962-9307-4dc4-b5fe-1d8a8f7784ac" x1="218.04" y1="412.32" x2="218.04" y2="382.04" xlink:href="#3ccf89fc-b235-48c4-a7b3-ec74ccda02b2"/><linearGradient id="1ef09f19-b93e-4b1d-bf2c-735162991b2b" x1="251.67" y1="406.71" x2="251.67" y2="376.44" xlink:href="#3ccf89fc-b235-48c4-a7b3-ec74ccda02b2"/><linearGradient id="5c1ea6b8-5bc0-4af9-a2e3-6a873526abd3" x1="236.54" y1="420.73" x2="236.54" y2="390.45" xlink:href="#3ccf89fc-b235-48c4-a7b3-ec74ccda02b2"/><linearGradient id="30840ded-278f-4d73-abee-5ec61025ef00" x1="135.62" y1="383.73" x2="135.62" y2="353.45" xlink:href="#3ccf89fc-b235-48c4-a7b3-ec74ccda02b2"/><linearGradient id="640daeec-fe0d-4cc5-bfb0-7d2502bda475" x1="113.76" y1="440.91" x2="113.76" y2="410.64" xlink:href="#3ccf89fc-b235-48c4-a7b3-ec74ccda02b2"/><linearGradient id="9ac0ede8-18c8-48c9-b5a7-91d4c442db44" x1="79.56" y1="442.59" x2="79.56" y2="412.32" xlink:href="#3ccf89fc-b235-48c4-a7b3-ec74ccda02b2"/><linearGradient id="9b6ad9db-95ba-4532-a5ad-4f7024867a5b" x1="96.94" y1="433.06" x2="96.94" y2="402.79" xlink:href="#3ccf89fc-b235-48c4-a7b3-ec74ccda02b2"/><linearGradient id="8d86ace4-e95e-473e-bb5a-5a267cbf00d9" x1="170.94" y1="416.24" x2="170.94" y2="385.97" xlink:href="#3ccf89fc-b235-48c4-a7b3-ec74ccda02b2"/><linearGradient id="90785fb7-aff9-4894-accc-b6020db5a58e" x1="170.94" y1="380.36" x2="170.94" y2="350.09" xlink:href="#3ccf89fc-b235-48c4-a7b3-ec74ccda02b2"/><linearGradient id="fbadd24b-c03d-437f-bbb8-4d8b289ce3da" x1="187.76" y1="408.95" x2="187.76" y2="378.68" xlink:href="#3ccf89fc-b235-48c4-a7b3-ec74ccda02b2"/><linearGradient id="2d033cbb-f20a-46be-baa8-652f77a00af9" x1="172.62" y1="351.77" x2="172.62" y2="321.49" xlink:href="#3ccf89fc-b235-48c4-a7b3-ec74ccda02b2"/><linearGradient id="3423a687-c1fa-4574-8890-e009c1c8d223" x1="175.99" y1="366.91" x2="175.99" y2="336.63" xlink:href="#3ccf89fc-b235-48c4-a7b3-ec74ccda02b2"/><linearGradient id="aed7bf24-752c-4d72-bb46-8eee374d80ce" x1="193.93" y1="377" x2="193.93" y2="346.72" xlink:href="#3ccf89fc-b235-48c4-a7b3-ec74ccda02b2"/><linearGradient id="74b2a53a-bb8d-4817-af0f-547fba41d21c" x1="212.43" y1="374.19" x2="212.43" y2="343.92" xlink:href="#3ccf89fc-b235-48c4-a7b3-ec74ccda02b2"/><linearGradient id="8b75dab9-0f62-4d02-bfac-491ded2e8f2f" x1="207.38" y1="389.33" x2="207.38" y2="359.06" xlink:href="#3ccf89fc-b235-48c4-a7b3-ec74ccda02b2"/><linearGradient id="d7f4ebc6-3fcc-4c72-a8ed-0cc210982a88" x1="144.03" y1="369.71" x2="144.03" y2="339.44" xlink:href="#3ccf89fc-b235-48c4-a7b3-ec74ccda02b2"/><linearGradient id="6c583912-91b6-4898-86fb-e2ec9a4e0915" x1="100.3" y1="415.68" x2="100.3" y2="385.41" xlink:href="#3ccf89fc-b235-48c4-a7b3-ec74ccda02b2"/><linearGradient id="57016bda-f426-4e23-aab0-98541199fe77" x1="126.65" y1="390.45" x2="126.65" y2="360.18" xlink:href="#3ccf89fc-b235-48c4-a7b3-ec74ccda02b2"/><linearGradient id="45131267-4006-4d03-89e8-6cf31dacf3a7" x1="72.83" y1="433.62" x2="72.83" y2="403.35" xlink:href="#3ccf89fc-b235-48c4-a7b3-ec74ccda02b2"/><linearGradient id="654e43e5-b13a-4b15-8a9f-95a325fe6551" x1="218.04" y1="421.85" x2="218.04" y2="391.57" xlink:href="#3ccf89fc-b235-48c4-a7b3-ec74ccda02b2"/><linearGradient id="5100e24e-f82a-4c67-8efd-1fb0621d1452" x1="150.2" y1="336.63" x2="150.2" y2="306.36" xlink:href="#3ccf89fc-b235-48c4-a7b3-ec74ccda02b2"/><linearGradient id="98eaa204-732d-48bb-8eba-68176b6cb80d" x1="122.73" y1="371.39" x2="122.73" y2="341.12" xlink:href="#3ccf89fc-b235-48c4-a7b3-ec74ccda02b2"/><linearGradient id="47bc87d9-d95f-4520-8d49-0141d8e84b1f" x1="100.86" y1="397.18" x2="100.86" y2="366.91" xlink:href="#3ccf89fc-b235-48c4-a7b3-ec74ccda02b2"/><linearGradient id="ad8ea935-4f51-4121-a461-22ce9308a26b" x1="116.56" y1="425.77" x2="116.56" y2="395.5" xlink:href="#3ccf89fc-b235-48c4-a7b3-ec74ccda02b2"/><linearGradient id="4b3fdb4f-0fba-4558-ae10-fa0899fde927" x1="137.86" y1="406.71" x2="137.86" y2="376.44" xlink:href="#3ccf89fc-b235-48c4-a7b3-ec74ccda02b2"/><linearGradient id="9c82f46e-67f9-4854-a913-e80fd40b4505" x1="149.08" y1="425.77" x2="149.08" y2="395.5" xlink:href="#3ccf89fc-b235-48c4-a7b3-ec74ccda02b2"/><linearGradient id="94b4005c-0a99-4511-8f26-3ae56047de0a" x1="265.13" y1="442.59" x2="265.13" y2="412.32" xlink:href="#3ccf89fc-b235-48c4-a7b3-ec74ccda02b2"/><linearGradient id="b0fffae2-bb48-43ea-8ac9-db11dbc5ea9d" x1="243.82" y1="439.23" x2="243.82" y2="408.95" xlink:href="#3ccf89fc-b235-48c4-a7b3-ec74ccda02b2"/><linearGradient id="cf6dd8e8-cefc-4e0a-9d9b-373f21e110d7" x1="202.9" y1="440.91" x2="202.9" y2="410.64" xlink:href="#3ccf89fc-b235-48c4-a7b3-ec74ccda02b2"/><linearGradient id="6678c91d-2717-425d-bef9-c555f736cbe7" x1="157.49" y1="442.59" x2="157.49" y2="412.32" xlink:href="#3ccf89fc-b235-48c4-a7b3-ec74ccda02b2"/><linearGradient id="5297df59-5499-4111-a486-7e1a06cfabac" x1="153" y1="382.04" x2="153" y2="351.77" xlink:href="#3ccf89fc-b235-48c4-a7b3-ec74ccda02b2"/><linearGradient id="059442aa-5aeb-41b7-ba5d-abf1ca3bc974" x1="168.14" y1="401.11" x2="168.14" y2="370.83" xlink:href="#3ccf89fc-b235-48c4-a7b3-ec74ccda02b2"/><linearGradient id="3d4d63e0-fb61-411a-91fb-e2ee16a6c4e8" x1="142.91" y1="354.57" x2="142.91" y2="324.3" xlink:href="#3ccf89fc-b235-48c4-a7b3-ec74ccda02b2"/><linearGradient id="7c9762fe-252f-458c-96ed-c5fe01f53e6d" x1="159.73" y1="356.25" x2="159.73" y2="325.98" xlink:href="#3ccf89fc-b235-48c4-a7b3-ec74ccda02b2"/><linearGradient id="e399a398-50f6-464e-a885-e2a5124368b6" x1="187.76" y1="364.1" x2="187.76" y2="333.83" xlink:href="#3ccf89fc-b235-48c4-a7b3-ec74ccda02b2"/><linearGradient id="94c95248-6c1c-459f-b349-9d8070fcbbf6" x1="112.07" y1="388.77" x2="112.07" y2="358.5" xlink:href="#3ccf89fc-b235-48c4-a7b3-ec74ccda02b2"/><linearGradient id="be7c7a75-c839-44e3-bb95-11462ca995f7" x1="122.73" y1="408.39" x2="122.73" y2="378.12" xlink:href="#3ccf89fc-b235-48c4-a7b3-ec74ccda02b2"/><linearGradient id="1c025a95-16c1-47b2-af84-f4fd4588f3a8" x1="130.02" y1="431.38" x2="130.02" y2="401.11" xlink:href="#3ccf89fc-b235-48c4-a7b3-ec74ccda02b2"/><linearGradient id="658db19d-e937-4a58-9320-b67d9fa7c9d4" x1="172.62" y1="424.09" x2="172.62" y2="393.82" xlink:href="#3ccf89fc-b235-48c4-a7b3-ec74ccda02b2"/><linearGradient id="0245e264-ac34-4cd8-966e-2281cb490f4d" x1="216.35" y1="410.64" x2="216.35" y2="380.36" xlink:href="#3ccf89fc-b235-48c4-a7b3-ec74ccda02b2"/><linearGradient id="a8f660ac-f157-41d9-8717-6af001822d1a" x1="230.37" y1="398.86" x2="230.37" y2="368.59" xlink:href="#3ccf89fc-b235-48c4-a7b3-ec74ccda02b2"/><linearGradient id="2cdabf00-84c0-4b21-a27b-03dfa6b06df6" x1="252.23" y1="425.77" x2="252.23" y2="395.5" xlink:href="#3ccf89fc-b235-48c4-a7b3-ec74ccda02b2"/><linearGradient id="70d16174-6305-4c7a-b913-022da8e4a220" x1="181.59" y1="444.27" x2="181.59" y2="414" xlink:href="#3ccf89fc-b235-48c4-a7b3-ec74ccda02b2"/><linearGradient id="9a2bc465-fb6e-45e3-9715-3fb4637fc86b" x1="103.67" y1="437.55" x2="103.67" y2="407.27" xlink:href="#3ccf89fc-b235-48c4-a7b3-ec74ccda02b2"/><linearGradient id="0b09d010-e7df-434f-9178-cb9e8138f131" x1="81.8" y1="417.92" x2="81.8" y2="387.65" xlink:href="#3ccf89fc-b235-48c4-a7b3-ec74ccda02b2"/><linearGradient id="f1cdb18a-c771-4917-ac86-fbe766f55ee6" x1="110.39" y1="408.39" x2="110.39" y2="378.12" xlink:href="#3ccf89fc-b235-48c4-a7b3-ec74ccda02b2"/><linearGradient id="3d3bbc5b-4d7c-45e9-b40c-05c49dd87298" x1="94.69" y1="385.41" x2="94.69" y2="355.13" xlink:href="#3ccf89fc-b235-48c4-a7b3-ec74ccda02b2"/><linearGradient id="50d3cbe8-c642-4d06-9147-8b3a8a66b0b8" x1="108.15" y1="364.1" x2="108.15" y2="333.83" xlink:href="#3ccf89fc-b235-48c4-a7b3-ec74ccda02b2"/><linearGradient id="68b00927-fbaa-4146-b5b0-462ab386aad4" x1="225.32" y1="442.59" x2="225.32" y2="412.32" xlink:href="#3ccf89fc-b235-48c4-a7b3-ec74ccda02b2"/><linearGradient id="0f076225-1862-4162-b858-1281b651f875" x1="162.81" y1="677.5" x2="162.81" y2="427.46" xlink:href="#3ccf89fc-b235-48c4-a7b3-ec74ccda02b2"/><linearGradient id="abf7e6f2-bcd0-4405-8985-f1e62f4c1e4c" x1="86.85" y1="401.11" x2="86.85" y2="370.83" xlink:href="#3ccf89fc-b235-48c4-a7b3-ec74ccda02b2"/><linearGradient id="d54eb898-f786-4f85-9a48-33b963b5d8b8" x1="124.97" y1="358.5" x2="124.97" y2="328.22" xlink:href="#3ccf89fc-b235-48c4-a7b3-ec74ccda02b2"/><linearGradient id="96aa09be-8ec1-4566-95c8-ce78961e7eb1" x1="71.71" y1="424.09" x2="71.71" y2="393.82" xlink:href="#3ccf89fc-b235-48c4-a7b3-ec74ccda02b2"/><linearGradient id="4ab383be-6c91-44a3-82ed-3e1940113dba" x1="53.57" y1="321.26" x2="53.57" y2="290.98" xlink:href="#3ccf89fc-b235-48c4-a7b3-ec74ccda02b2"/><linearGradient id="b114d039-19d3-4273-96cd-721b3ffa56ca" x1="979.26" y1="510.07" x2="979.26" y2="351.98" xlink:href="#3ccf89fc-b235-48c4-a7b3-ec74ccda02b2"/><clipPath id="a19b45cf-fcb4-4c03-9939-acced4c0c67e" transform="translate(-152.12 -100.85)"><path id="57881ca8-e7c9-455e-98a0-adebd859a564" data-name="&lt;Clipping Path&gt;" d="M1031.12,373.43l-6.77-16.49L934.08,394a11.15,11.15,0,0,0-6.91,10.31v97.53H945V408.81Z" fill="#f2f2f2"/></clipPath><linearGradient id="d0c5ed15-51fe-4852-891e-b0305d57f60c" x1="787.61" y1="694.3" x2="787.61" y2="384" xlink:href="#3ccf89fc-b235-48c4-a7b3-ec74ccda02b2"/><linearGradient id="73a4f828-edd2-4e48-97bd-9bcb305196f0" x1="787.2" y1="576.01" x2="787.2" y2="477.17" gradientUnits="userSpaceOnUse"><stop offset="0" stop-opacity="0.12"/><stop offset="0.55" stop-opacity="0.09"/><stop offset="1" stop-opacity="0.02"/></linearGradient><linearGradient id="a8b03343-4c5a-4436-8864-65c423c59246" x1="117.26" y1="234.51" x2="117.26" y2="204.24" xlink:href="#3ccf89fc-b235-48c4-a7b3-ec74ccda02b2"/><linearGradient id="69c2fe58-062f-467b-afb9-81a24de72d6c" x1="172.16" y1="168.63" x2="172.16" y2="138.35" xlink:href="#3ccf89fc-b235-48c4-a7b3-ec74ccda02b2"/><linearGradient id="11536ec6-4cc6-47e7-92d7-710fd5bff50d" x1="278.67" y1="310.28" x2="278.67" y2="280" xlink:href="#3ccf89fc-b235-48c4-a7b3-ec74ccda02b2"/><linearGradient id="08e02247-7e66-482b-b68c-8243a28a41b2" x1="363.22" y1="417.89" x2="363.22" y2="387.61" xlink:href="#3ccf89fc-b235-48c4-a7b3-ec74ccda02b2"/><linearGradient id="c4f8377c-dae5-454f-b3f1-2b316ac317fc" x1="49.18" y1="680.32" x2="49.18" y2="650.05" xlink:href="#3ccf89fc-b235-48c4-a7b3-ec74ccda02b2"/><linearGradient id="c3564592-807d-4bae-b07e-cd7d41f54c08" x1="28.31" y1="652.87" x2="28.31" y2="622.6" xlink:href="#3ccf89fc-b235-48c4-a7b3-ec74ccda02b2"/><linearGradient id="02e0d9b2-dd62-4bea-9309-8de5f110771b" x1="15.14" y1="504.63" x2="15.14" y2="474.36" xlink:href="#3ccf89fc-b235-48c4-a7b3-ec74ccda02b2"/><linearGradient id="15613dbc-00f1-4fe8-8ae5-2fad0c90759c" x1="300.63" y1="668.24" x2="300.63" y2="637.97" xlink:href="#3ccf89fc-b235-48c4-a7b3-ec74ccda02b2"/><linearGradient id="f931e1d4-9cb1-419c-ad36-53d7f8c99488" x1="328.08" y1="650.68" x2="328.08" y2="620.4" xlink:href="#3ccf89fc-b235-48c4-a7b3-ec74ccda02b2"/><linearGradient id="80cee248-a86c-4263-9e87-b18be0896754" x1="331.38" y1="671.54" x2="331.38" y2="641.26" xlink:href="#3ccf89fc-b235-48c4-a7b3-ec74ccda02b2"/><linearGradient id="d6702938-2bc7-4b9e-8a2c-5c8674d68bcc" x1="274.28" y1="671.54" x2="274.28" y2="641.26" xlink:href="#3ccf89fc-b235-48c4-a7b3-ec74ccda02b2"/><linearGradient id="c3c2f947-8308-4e36-bb02-388a47ed335c" x1="759.61" y1="142.75" x2="759.61" y2="0" xlink:href="#3ccf89fc-b235-48c4-a7b3-ec74ccda02b2"/><linearGradient id="e103c76e-73c8-428f-b06b-eaa70735fb85" x1="770.44" y1="104.32" x2="770.44" y2="38.43" xlink:href="#73a4f828-edd2-4e48-97bd-9bcb305196f0"/></defs><title>movie night</title><path d="M578.24,635.33S655.16,798.6,877.68,747.19c0,0-23.55-20.41,0-47.88L691.27,618.07Z" transform="translate(-152.12 -100.85)" fill="url(#3ccf89fc-b235-48c4-a7b3-ec74ccda02b2)"/><path d="M585.34,637.82s73.27,155.52,285.24,106.54c0,0-22.43-19.44,0-45.61L693,621.37Z" transform="translate(-152.12 -100.85)" fill="#6c63ff"/><circle cx="463.13" cy="375.47" r="178.7" fill="url(#3d0c0a2e-ebd5-4792-8384-d506b1409550)"/><circle cx="463.13" cy="375.47" r="171.23" fill="#6c63ff"/><path d="M615.25,213.88c-144.94,0-262.44,117.5-262.44,262.44s117.5,262.44,262.44,262.44,262.44-117.5,262.44-262.44S760.19,213.88,615.25,213.88Zm95.57,137.05A60.8,60.8,0,1,1,688.56,434,60.8,60.8,0,0,1,710.82,350.94ZM519.68,601.7a60.8,60.8,0,1,1,22.25-83.05A60.8,60.8,0,0,1,519.68,601.7ZM541.93,434a60.8,60.8,0,1,1-22.25-83.05A60.8,60.8,0,0,1,541.93,434Zm73.31,248.58a60.8,60.8,0,1,1,60.8-60.8A60.8,60.8,0,0,1,615.25,682.57ZM576.77,473.24a38.48,38.48,0,1,1,38.48,38.48A38.48,38.48,0,0,1,576.77,473.24Zm38.48-81.58a60.8,60.8,0,1,1,60.8-60.8A60.8,60.8,0,0,1,615.25,391.66ZM793.87,579.44a60.8,60.8,0,1,1-22.25-83.05A60.8,60.8,0,0,1,793.87,579.44Z" transform="translate(-152.12 -100.85)" fill="url(#cfc67d4e-9240-408d-ae53-2d0cbcb1d112)"/><path d="M615.25,221.36c-140.81,0-255,114.15-255,255s114.15,255,255,255,255-114.15,255-255S756.06,221.36,615.25,221.36Zm92.85,133.15a59.07,59.07,0,1,1-21.62,80.69A59.07,59.07,0,0,1,708.09,354.51ZM522.4,598.13A59.07,59.07,0,1,1,544,517.44,59.07,59.07,0,0,1,522.4,598.13ZM544,435.19a59.07,59.07,0,1,1-21.62-80.69A59.07,59.07,0,0,1,544,435.19Zm71.23,241.5a59.07,59.07,0,1,1,59.07-59.07A59.07,59.07,0,0,1,615.25,676.7ZM577.86,473.33a37.38,37.38,0,1,1,37.38,37.38A37.38,37.38,0,0,1,577.86,473.33Zm37.38-79.25A59.07,59.07,0,1,1,674.31,335,59.07,59.07,0,0,1,615.25,394.07ZM788.78,576.51a59.07,59.07,0,1,1-21.62-80.69A59.07,59.07,0,0,1,788.78,576.51Z" transform="translate(-152.12 -100.85)" fill="#e6e6e6"/><path d="M377.49,491.27c0-140.81,114.15-255,255-255a253.79,253.79,0,0,1,148.18,47.47,253.93,253.93,0,0,0-165.38-60.93c-140.81,0-255,114.15-255,255A254.63,254.63,0,0,0,467.07,685.3,254.38,254.38,0,0,1,377.49,491.27Z" transform="translate(-152.12 -100.85)" fill="#fff" opacity="0.2"/><circle cx="463.13" cy="372.47" r="42.99" fill="none" stroke="#fff" stroke-miterlimit="10" stroke-width="13" opacity="0.2"/><circle cx="137.3" cy="427.46" r="15.14" fill="url(#55618a58-b994-4cf3-bc33-e350414592a2)"/><circle cx="137.3" cy="427.46" r="13.46" fill="#fdd835"/><path d="M279.33,532.23a13.45,13.45,0,0,1,22.83-9.65A13.45,13.45,0,1,0,280.61,538,13.4,13.4,0,0,1,279.33,532.23Z" transform="translate(-152.12 -100.85)" fill="#fff" opacity="0.2"/><circle cx="181.03" cy="427.46" r="15.14" fill="url(#a62bac33-b4e8-4f63-988d-f7345c8676e6)"/><circle cx="181.03" cy="427.46" r="13.46" fill="#fdd835"/><path d="M323.06,532.23a13.45,13.45,0,0,1,22.83-9.65A13.45,13.45,0,1,0,324.34,538,13.4,13.4,0,0,1,323.06,532.23Z" transform="translate(-152.12 -100.85)" fill="#fff" opacity="0.2"/><circle cx="56.57" cy="427.46" r="15.14" fill="url(#01b0c20f-63c0-4fa3-acca-bb5f9cdc7d47)"/><circle cx="56.57" cy="427.46" r="13.46" fill="#fdd835"/><path d="M198.6,532.23a13.45,13.45,0,0,1,22.83-9.65A13.45,13.45,0,1,0,199.87,538,13.4,13.4,0,0,1,198.6,532.23Z" transform="translate(-152.12 -100.85)" fill="#fff" opacity="0.2"/><circle cx="113.76" cy="389.33" r="15.14" fill="url(#e792799f-2a16-4b5c-8db0-cb1aa0d2a23d)"/><circle cx="113.76" cy="389.33" r="13.46" fill="#fdd835"/><path d="M255.78,494.11a13.45,13.45,0,0,1,22.83-9.65,13.45,13.45,0,1,0-21.55,15.37A13.4,13.4,0,0,1,255.78,494.11Z" transform="translate(-152.12 -100.85)" fill="#fff" opacity="0.2"/><circle cx="202.9" cy="395.5" r="15.14" fill="url(#4900b58d-8dde-4024-9730-e3dd5ba623cc)"/><circle cx="202.9" cy="395.5" r="13.46" fill="#fdd835"/><path d="M344.92,500.28a13.45,13.45,0,0,1,22.83-9.65A13.45,13.45,0,1,0,346.2,506,13.4,13.4,0,0,1,344.92,500.28Z" transform="translate(-152.12 -100.85)" fill="#fff" opacity="0.2"/><circle cx="181.03" cy="382.04" r="15.14" fill="url(#8c5be7c8-2b17-4a1f-8c6e-c3983b864ee6)"/><circle cx="181.03" cy="382.04" r="13.46" fill="#fdd835"/><path d="M323.06,486.82a13.45,13.45,0,0,1,22.83-9.65,13.45,13.45,0,1,0-21.55,15.37A13.4,13.4,0,0,1,323.06,486.82Z" transform="translate(-152.12 -100.85)" fill="#fff" opacity="0.2"/><circle cx="191.69" cy="414" r="15.14" fill="url(#d5b7eefc-9f3e-4b39-92f9-ccf9139cee39)"/><circle cx="191.69" cy="414" r="13.46" fill="#fdd835"/><path d="M333.71,518.78a13.45,13.45,0,0,1,22.83-9.65A13.45,13.45,0,1,0,335,524.5,13.4,13.4,0,0,1,333.71,518.78Z" transform="translate(-152.12 -100.85)" fill="#fff" opacity="0.2"/><circle cx="152.44" cy="389.33" r="15.14" fill="url(#c31766a7-9c9c-44b4-8ede-5888174e1f8a)"/><circle cx="152.44" cy="389.33" r="13.46" fill="#fdd835"/><path d="M294.47,494.11a13.45,13.45,0,0,1,22.83-9.65,13.45,13.45,0,1,0-21.55,15.37A13.4,13.4,0,0,1,294.47,494.11Z" transform="translate(-152.12 -100.85)" fill="#fff" opacity="0.2"/><circle cx="150.76" cy="346.72" r="15.14" fill="url(#4348c26f-db85-4738-947f-fb5f7cbdce4b)"/><circle cx="150.76" cy="346.72" r="13.46" fill="#fdd835"/><path d="M292.79,451.5a13.45,13.45,0,0,1,22.83-9.65,13.45,13.45,0,1,0-21.55,15.37A13.4,13.4,0,0,1,292.79,451.5Z" transform="translate(-152.12 -100.85)" fill="#fff" opacity="0.2"/><circle cx="225.32" cy="368.59" r="15.14" fill="url(#66a2fc62-0231-470f-8d66-10fd6d934ae3)"/><circle cx="225.32" cy="368.59" r="13.46" fill="#fdd835"/><path d="M367.35,473.36a13.45,13.45,0,0,1,22.83-9.65,13.45,13.45,0,1,0-21.55,15.37A13.4,13.4,0,0,1,367.35,473.36Z" transform="translate(-152.12 -100.85)" fill="#fff" opacity="0.2"/><circle cx="218.04" cy="397.18" r="15.14" fill="url(#da71f962-9307-4dc4-b5fe-1d8a8f7784ac)"/><circle cx="218.04" cy="397.18" r="13.46" fill="#fdd835"/><path d="M360.06,502a13.45,13.45,0,0,1,22.83-9.65,13.45,13.45,0,1,0-21.55,15.37A13.4,13.4,0,0,1,360.06,502Z" transform="translate(-152.12 -100.85)" fill="#fff" opacity="0.2"/><circle cx="251.67" cy="391.57" r="15.14" fill="url(#1ef09f19-b93e-4b1d-bf2c-735162991b2b)"/><circle cx="251.67" cy="391.57" r="13.46" fill="#fdd835"/><path d="M393.7,496.35a13.45,13.45,0,0,1,22.83-9.65A13.45,13.45,0,1,0,395,502.07,13.4,13.4,0,0,1,393.7,496.35Z" transform="translate(-152.12 -100.85)" fill="#fff" opacity="0.2"/><circle cx="236.54" cy="405.59" r="15.14" fill="url(#5c1ea6b8-5bc0-4af9-a2e3-6a873526abd3)"/><circle cx="236.54" cy="405.59" r="13.46" fill="#fdd835"/><path d="M378.56,510.37a13.45,13.45,0,0,1,22.83-9.65,13.45,13.45,0,1,0-21.55,15.37A13.4,13.4,0,0,1,378.56,510.37Z" transform="translate(-152.12 -100.85)" fill="#fff" opacity="0.2"/><circle cx="135.62" cy="368.59" r="15.14" fill="url(#30840ded-278f-4d73-abee-5ec61025ef00)"/><circle cx="135.62" cy="368.59" r="13.46" fill="#fdd835"/><path d="M277.65,473.36a13.45,13.45,0,0,1,22.83-9.65,13.45,13.45,0,1,0-21.55,15.37A13.4,13.4,0,0,1,277.65,473.36Z" transform="translate(-152.12 -100.85)" fill="#fff" opacity="0.2"/><circle cx="113.76" cy="425.77" r="15.14" fill="url(#640daeec-fe0d-4cc5-bfb0-7d2502bda475)"/><circle cx="113.76" cy="425.77" r="13.46" fill="#fbc02d"/><path d="M255.78,530.55a13.45,13.45,0,0,1,22.83-9.65,13.45,13.45,0,1,0-21.55,15.37A13.4,13.4,0,0,1,255.78,530.55Z" transform="translate(-152.12 -100.85)" fill="#fff" opacity="0.2"/><circle cx="79.56" cy="427.46" r="15.14" fill="url(#9ac0ede8-18c8-48c9-b5a7-91d4c442db44)"/><circle cx="79.56" cy="427.46" r="13.46" fill="#fbc02d"/><path d="M221.58,532.23a13.45,13.45,0,0,1,22.83-9.65A13.45,13.45,0,1,0,222.86,538,13.4,13.4,0,0,1,221.58,532.23Z" transform="translate(-152.12 -100.85)" fill="#fff" opacity="0.2"/><circle cx="96.94" cy="417.92" r="15.14" fill="url(#9b6ad9db-95ba-4532-a5ad-4f7024867a5b)"/><circle cx="96.94" cy="417.92" r="13.46" fill="#fbc02d"/><path d="M239,522.7a13.45,13.45,0,0,1,22.83-9.65,13.45,13.45,0,1,0-21.55,15.37A13.4,13.4,0,0,1,239,522.7Z" transform="translate(-152.12 -100.85)" fill="#fff" opacity="0.2"/><circle cx="170.94" cy="401.11" r="15.14" fill="url(#8d86ace4-e95e-473e-bb5a-5a267cbf00d9)"/><circle cx="170.94" cy="401.11" r="13.46" fill="#fbc02d"/><path d="M313,505.88a13.45,13.45,0,0,1,22.83-9.65,13.45,13.45,0,1,0-21.55,15.37A13.4,13.4,0,0,1,313,505.88Z" transform="translate(-152.12 -100.85)" fill="#fff" opacity="0.2"/><circle cx="170.94" cy="365.22" r="15.14" fill="url(#90785fb7-aff9-4894-accc-b6020db5a58e)"/><circle cx="170.94" cy="365.22" r="13.46" fill="#fbc02d"/><path d="M313,470a13.45,13.45,0,0,1,22.83-9.65,13.45,13.45,0,1,0-21.55,15.37A13.4,13.4,0,0,1,313,470Z" transform="translate(-152.12 -100.85)" fill="#fff" opacity="0.2"/><circle cx="187.76" cy="393.82" r="15.14" fill="url(#fbadd24b-c03d-437f-bbb8-4d8b289ce3da)"/><circle cx="187.76" cy="393.82" r="13.46" fill="#fbc02d"/><path d="M329.79,498.59a13.45,13.45,0,0,1,22.83-9.65,13.45,13.45,0,1,0-21.55,15.37A13.4,13.4,0,0,1,329.79,498.59Z" transform="translate(-152.12 -100.85)" fill="#fff" opacity="0.2"/><circle cx="172.62" cy="336.63" r="15.14" fill="url(#2d033cbb-f20a-46be-baa8-652f77a00af9)"/><circle cx="172.62" cy="336.63" r="13.46" fill="#fbc02d"/><path d="M314.65,441.41a13.45,13.45,0,0,1,22.83-9.65,13.45,13.45,0,1,0-21.55,15.37A13.4,13.4,0,0,1,314.65,441.41Z" transform="translate(-152.12 -100.85)" fill="#fff" opacity="0.2"/><circle cx="175.99" cy="351.77" r="15.14" fill="url(#3423a687-c1fa-4574-8890-e009c1c8d223)"/><circle cx="175.99" cy="351.77" r="13.46" fill="#fbc02d"/><path d="M318,456.55a13.45,13.45,0,0,1,22.83-9.65,13.45,13.45,0,1,0-21.55,15.37A13.4,13.4,0,0,1,318,456.55Z" transform="translate(-152.12 -100.85)" fill="#fff" opacity="0.2"/><circle cx="193.93" cy="361.86" r="15.14" fill="url(#aed7bf24-752c-4d72-bb46-8eee374d80ce)"/><circle cx="193.93" cy="361.86" r="13.46" fill="#fbc02d"/><path d="M336,466.64A13.45,13.45,0,0,1,358.79,457a13.45,13.45,0,1,0-21.55,15.37A13.4,13.4,0,0,1,336,466.64Z" transform="translate(-152.12 -100.85)" fill="#fff" opacity="0.2"/><circle cx="212.43" cy="359.06" r="15.14" fill="url(#74b2a53a-bb8d-4817-af0f-547fba41d21c)"/><circle cx="212.43" cy="359.06" r="13.46" fill="#fbc02d"/><path d="M354.46,463.83a13.45,13.45,0,0,1,22.83-9.65,13.45,13.45,0,1,0-21.55,15.37A13.4,13.4,0,0,1,354.46,463.83Z" transform="translate(-152.12 -100.85)" fill="#fff" opacity="0.2"/><circle cx="207.38" cy="374.19" r="15.14" fill="url(#8b75dab9-0f62-4d02-bfac-491ded2e8f2f)"/><circle cx="207.38" cy="374.19" r="13.46" fill="#fbc02d"/><path d="M349.41,479a13.45,13.45,0,0,1,22.83-9.65,13.45,13.45,0,1,0-21.55,15.37A13.4,13.4,0,0,1,349.41,479Z" transform="translate(-152.12 -100.85)" fill="#fff" opacity="0.2"/><circle cx="144.03" cy="354.57" r="15.14" fill="url(#d7f4ebc6-3fcc-4c72-a8ed-0cc210982a88)"/><circle cx="144.03" cy="354.57" r="13.46" fill="#fbc02d"/><path d="M286.06,459.35a13.45,13.45,0,0,1,22.83-9.65,13.45,13.45,0,1,0-21.55,15.37A13.4,13.4,0,0,1,286.06,459.35Z" transform="translate(-152.12 -100.85)" fill="#fff" opacity="0.2"/><circle cx="100.3" cy="400.54" r="15.14" fill="url(#6c583912-91b6-4898-86fb-e2ec9a4e0915)"/><circle cx="100.3" cy="400.54" r="13.46" fill="#fbc02d"/><path d="M242.33,505.32a13.45,13.45,0,0,1,22.83-9.65A13.45,13.45,0,1,0,243.6,511,13.4,13.4,0,0,1,242.33,505.32Z" transform="translate(-152.12 -100.85)" fill="#fff" opacity="0.2"/><circle cx="126.65" cy="375.32" r="15.14" fill="url(#57016bda-f426-4e23-aab0-98541199fe77)"/><circle cx="126.65" cy="375.32" r="13.46" fill="#fbc02d"/><path d="M268.68,480.09a13.45,13.45,0,0,1,22.83-9.65A13.45,13.45,0,1,0,270,485.81,13.4,13.4,0,0,1,268.68,480.09Z" transform="translate(-152.12 -100.85)" fill="#fff" opacity="0.2"/><circle cx="72.83" cy="418.49" r="15.14" fill="url(#45131267-4006-4d03-89e8-6cf31dacf3a7)"/><circle cx="72.83" cy="418.49" r="13.46" fill="#fbc02d"/><path d="M214.86,523.26a13.45,13.45,0,0,1,22.83-9.65A13.45,13.45,0,1,0,216.13,529,13.4,13.4,0,0,1,214.86,523.26Z" transform="translate(-152.12 -100.85)" fill="#fff" opacity="0.2"/><circle cx="218.04" cy="406.71" r="15.14" fill="url(#654e43e5-b13a-4b15-8a9f-95a325fe6551)"/><circle cx="218.04" cy="406.71" r="13.46" fill="#fbc02d"/><path d="M360.06,511.49a13.45,13.45,0,0,1,22.83-9.65,13.45,13.45,0,1,0-21.55,15.37A13.4,13.4,0,0,1,360.06,511.49Z" transform="translate(-152.12 -100.85)" fill="#fff" opacity="0.2"/><circle cx="150.2" cy="321.49" r="15.14" fill="url(#5100e24e-f82a-4c67-8efd-1fb0621d1452)"/><circle cx="150.2" cy="321.49" r="13.46" fill="#fbc02d"/><path d="M292.22,426.27a13.45,13.45,0,0,1,22.83-9.65A13.45,13.45,0,1,0,293.5,432,13.4,13.4,0,0,1,292.22,426.27Z" transform="translate(-152.12 -100.85)" fill="#fff" opacity="0.2"/><circle cx="122.73" cy="356.25" r="15.14" fill="url(#98eaa204-732d-48bb-8eba-68176b6cb80d)"/><circle cx="122.73" cy="356.25" r="13.46" fill="#fbc02d"/><path d="M264.75,461a13.45,13.45,0,0,1,22.83-9.65A13.45,13.45,0,1,0,266,466.75,13.4,13.4,0,0,1,264.75,461Z" transform="translate(-152.12 -100.85)" fill="#fff" opacity="0.2"/><circle cx="100.86" cy="382.04" r="15.14" fill="url(#47bc87d9-d95f-4520-8d49-0141d8e84b1f)"/><circle cx="100.86" cy="382.04" r="13.46" fill="#fbc02d"/><path d="M242.89,486.82a13.45,13.45,0,0,1,22.83-9.65,13.45,13.45,0,1,0-21.55,15.37A13.4,13.4,0,0,1,242.89,486.82Z" transform="translate(-152.12 -100.85)" fill="#fff" opacity="0.2"/><circle cx="116.56" cy="410.64" r="15.14" fill="url(#ad8ea935-4f51-4121-a461-22ce9308a26b)"/><circle cx="116.56" cy="410.64" r="13.46" fill="#fbc02d"/><path d="M258.59,515.41a13.45,13.45,0,0,1,22.83-9.65,13.45,13.45,0,1,0-21.55,15.37A13.4,13.4,0,0,1,258.59,515.41Z" transform="translate(-152.12 -100.85)" fill="#fff" opacity="0.2"/><circle cx="137.86" cy="391.57" r="15.14" fill="url(#4b3fdb4f-0fba-4558-ae10-fa0899fde927)"/><circle cx="137.86" cy="391.57" r="13.46" fill="#fbc02d"/><path d="M279.89,496.35a13.45,13.45,0,0,1,22.83-9.65,13.45,13.45,0,1,0-21.55,15.37A13.4,13.4,0,0,1,279.89,496.35Z" transform="translate(-152.12 -100.85)" fill="#fff" opacity="0.2"/><circle cx="149.08" cy="410.64" r="15.14" fill="url(#9c82f46e-67f9-4854-a913-e80fd40b4505)"/><circle cx="149.08" cy="410.64" r="13.46" fill="#fbc02d"/><path d="M291.1,515.41a13.45,13.45,0,0,1,22.83-9.65,13.45,13.45,0,1,0-21.55,15.37A13.4,13.4,0,0,1,291.1,515.41Z" transform="translate(-152.12 -100.85)" fill="#fff" opacity="0.2"/><circle cx="265.13" cy="427.46" r="15.14" fill="url(#94b4005c-0a99-4511-8f26-3ae56047de0a)"/><circle cx="265.13" cy="427.46" r="13.46" fill="#fbc02d"/><path d="M407.16,532.23A13.45,13.45,0,0,1,430,522.59,13.45,13.45,0,1,0,408.43,538,13.4,13.4,0,0,1,407.16,532.23Z" transform="translate(-152.12 -100.85)" fill="#fff" opacity="0.2"/><circle cx="243.82" cy="424.09" r="15.14" fill="url(#b0fffae2-bb48-43ea-8ac9-db11dbc5ea9d)"/><circle cx="243.82" cy="424.09" r="13.46" fill="#fbc02d"/><path d="M385.85,528.87a13.45,13.45,0,0,1,22.83-9.65,13.45,13.45,0,1,0-21.55,15.37A13.4,13.4,0,0,1,385.85,528.87Z" transform="translate(-152.12 -100.85)" fill="#fff" opacity="0.2"/><circle cx="202.9" cy="425.77" r="15.14" fill="url(#cf6dd8e8-cefc-4e0a-9d9b-373f21e110d7)"/><circle cx="202.9" cy="425.77" r="13.46" fill="#fbc02d"/><circle cx="205.7" cy="410.08" r="13.46" fill="#fbc02d"/><path d="M344.92,530.55a13.45,13.45,0,0,1,22.83-9.65,13.45,13.45,0,1,0-21.55,15.37A13.4,13.4,0,0,1,344.92,530.55Z" transform="translate(-152.12 -100.85)" fill="#fff" opacity="0.2"/><circle cx="157.49" cy="427.46" r="15.14" fill="url(#6678c91d-2717-425d-bef9-c555f736cbe7)"/><circle cx="157.49" cy="427.46" r="13.46" fill="#fbc02d"/><path d="M299.51,532.23a13.45,13.45,0,0,1,22.83-9.65A13.45,13.45,0,1,0,300.79,538,13.4,13.4,0,0,1,299.51,532.23Z" transform="translate(-152.12 -100.85)" fill="#fff" opacity="0.2"/><circle cx="153" cy="366.91" r="15.14" fill="url(#5297df59-5499-4111-a486-7e1a06cfabac)"/><circle cx="153" cy="366.91" r="13.46" fill="#fdd835"/><path d="M295,471.68A13.45,13.45,0,0,1,317.86,462a13.45,13.45,0,1,0-21.55,15.37A13.4,13.4,0,0,1,295,471.68Z" transform="translate(-152.12 -100.85)" fill="#fff" opacity="0.2"/><circle cx="168.14" cy="385.97" r="15.14" fill="url(#059442aa-5aeb-41b7-ba5d-abf1ca3bc974)"/><circle cx="168.14" cy="385.97" r="13.46" fill="#fdd835"/><path d="M310.16,490.74A13.45,13.45,0,0,1,333,481.1a13.45,13.45,0,1,0-21.55,15.37A13.4,13.4,0,0,1,310.16,490.74Z" transform="translate(-152.12 -100.85)" fill="#fff" opacity="0.2"/><circle cx="142.91" cy="339.44" r="15.14" fill="url(#3d4d63e0-fb61-411a-91fb-e2ee16a6c4e8)"/><circle cx="142.91" cy="339.44" r="13.46" fill="#fdd835"/><path d="M284.94,444.21a13.45,13.45,0,0,1,22.83-9.65,13.45,13.45,0,1,0-21.55,15.37A13.4,13.4,0,0,1,284.94,444.21Z" transform="translate(-152.12 -100.85)" fill="#fff" opacity="0.2"/><circle cx="159.73" cy="341.12" r="15.14" fill="url(#7c9762fe-252f-458c-96ed-c5fe01f53e6d)"/><circle cx="159.73" cy="341.12" r="13.46" fill="#fdd835"/><path d="M301.76,445.89a13.45,13.45,0,0,1,22.83-9.65A13.45,13.45,0,1,0,303,451.62,13.4,13.4,0,0,1,301.76,445.89Z" transform="translate(-152.12 -100.85)" fill="#fff" opacity="0.2"/><circle cx="187.76" cy="348.97" r="15.14" fill="url(#e399a398-50f6-464e-a885-e2a5124368b6)"/><circle cx="187.76" cy="348.97" r="13.46" fill="#fdd835"/><path d="M329.79,453.74a13.45,13.45,0,0,1,22.83-9.65,13.45,13.45,0,1,0-21.55,15.37A13.4,13.4,0,0,1,329.79,453.74Z" transform="translate(-152.12 -100.85)" fill="#fff" opacity="0.2"/><circle cx="112.07" cy="373.63" r="15.14" fill="url(#94c95248-6c1c-459f-b349-9d8070fcbbf6)"/><circle cx="112.07" cy="373.63" r="13.46" fill="#fdd835"/><path d="M254.1,478.41a13.45,13.45,0,0,1,22.83-9.65,13.45,13.45,0,1,0-21.55,15.37A13.4,13.4,0,0,1,254.1,478.41Z" transform="translate(-152.12 -100.85)" fill="#fff" opacity="0.2"/><circle cx="122.73" cy="393.26" r="15.14" fill="url(#be7c7a75-c839-44e3-bb95-11462ca995f7)"/><circle cx="122.73" cy="393.26" r="13.46" fill="#fdd835"/><path d="M264.75,498a13.45,13.45,0,0,1,22.83-9.65A13.45,13.45,0,1,0,266,503.76,13.4,13.4,0,0,1,264.75,498Z" transform="translate(-152.12 -100.85)" fill="#fff" opacity="0.2"/><circle cx="130.02" cy="416.24" r="15.14" fill="url(#1c025a95-16c1-47b2-af84-f4fd4588f3a8)"/><circle cx="130.02" cy="416.24" r="13.46" fill="#fdd835"/><path d="M272,521a13.45,13.45,0,0,1,22.83-9.65,13.45,13.45,0,1,0-21.55,15.37A13.4,13.4,0,0,1,272,521Z" transform="translate(-152.12 -100.85)" fill="#fff" opacity="0.2"/><circle cx="172.62" cy="408.95" r="15.14" fill="url(#658db19d-e937-4a58-9320-b67d9fa7c9d4)"/><circle cx="172.62" cy="408.95" r="13.46" fill="#fdd835"/><path d="M314.65,513.73a13.45,13.45,0,0,1,22.83-9.65,13.45,13.45,0,1,0-21.55,15.37A13.4,13.4,0,0,1,314.65,513.73Z" transform="translate(-152.12 -100.85)" fill="#fff" opacity="0.2"/><circle cx="216.35" cy="395.5" r="15.14" fill="url(#0245e264-ac34-4cd8-966e-2281cb490f4d)"/><circle cx="216.35" cy="395.5" r="13.46" fill="#fdd835"/><path d="M358.38,500.28a13.45,13.45,0,0,1,22.83-9.65A13.45,13.45,0,1,0,359.66,506,13.4,13.4,0,0,1,358.38,500.28Z" transform="translate(-152.12 -100.85)" fill="#fff" opacity="0.2"/><circle cx="230.37" cy="383.73" r="15.14" fill="url(#a8f660ac-f157-41d9-8717-6af001822d1a)"/><circle cx="230.37" cy="383.73" r="13.46" fill="#fdd835"/><circle cx="196.17" cy="382.6" r="13.46" fill="#fdd835"/><path d="M372.4,488.5a13.45,13.45,0,0,1,22.83-9.65,13.45,13.45,0,1,0-21.55,15.37A13.4,13.4,0,0,1,372.4,488.5Z" transform="translate(-152.12 -100.85)" fill="#fff" opacity="0.2"/><circle cx="252.23" cy="410.64" r="15.14" fill="url(#2cdabf00-84c0-4b21-a27b-03dfa6b06df6)"/><circle cx="252.23" cy="410.64" r="13.46" fill="#fdd835"/><path d="M394.26,515.41a13.45,13.45,0,0,1,22.83-9.65,13.45,13.45,0,1,0-21.55,15.37A13.4,13.4,0,0,1,394.26,515.41Z" transform="translate(-152.12 -100.85)" fill="#fff" opacity="0.2"/><circle cx="181.59" cy="429.14" r="15.14" fill="url(#70d16174-6305-4c7a-b913-022da8e4a220)"/><circle cx="181.59" cy="429.14" r="13.46" fill="#fdd835"/><path d="M323.62,533.91a13.45,13.45,0,0,1,22.83-9.65,13.45,13.45,0,1,0-21.55,15.37A13.4,13.4,0,0,1,323.62,533.91Z" transform="translate(-152.12 -100.85)" fill="#fff" opacity="0.2"/><circle cx="103.67" cy="422.41" r="15.14" fill="url(#9a2bc465-fb6e-45e3-9715-3fb4637fc86b)"/><circle cx="103.67" cy="422.41" r="13.46" fill="#fdd835"/><path d="M245.69,527.19a13.45,13.45,0,0,1,22.83-9.65A13.45,13.45,0,1,0,247,532.91,13.4,13.4,0,0,1,245.69,527.19Z" transform="translate(-152.12 -100.85)" fill="#fff" opacity="0.2"/><circle cx="81.8" cy="402.79" r="15.14" fill="url(#0b09d010-e7df-434f-9178-cb9e8138f131)"/><circle cx="81.8" cy="402.79" r="13.46" fill="#fdd835"/><path d="M223.83,507.56a13.45,13.45,0,0,1,22.83-9.65,13.45,13.45,0,1,0-21.55,15.37A13.4,13.4,0,0,1,223.83,507.56Z" transform="translate(-152.12 -100.85)" fill="#fff" opacity="0.2"/><circle cx="110.39" cy="393.26" r="15.14" fill="url(#f1cdb18a-c771-4917-ac86-fbe766f55ee6)"/><circle cx="110.39" cy="393.26" r="13.46" fill="#fdd835"/><path d="M252.42,498a13.45,13.45,0,0,1,22.83-9.65,13.45,13.45,0,1,0-21.55,15.37A13.4,13.4,0,0,1,252.42,498Z" transform="translate(-152.12 -100.85)" fill="#fff" opacity="0.2"/><circle cx="94.69" cy="370.27" r="15.14" fill="url(#3d3bbc5b-4d7c-45e9-b40c-05c49dd87298)"/><circle cx="94.69" cy="370.27" r="13.46" fill="#fdd835"/><path d="M236.72,475a13.45,13.45,0,0,1,22.83-9.65A13.45,13.45,0,1,0,238,480.77,13.4,13.4,0,0,1,236.72,475Z" transform="translate(-152.12 -100.85)" fill="#fff" opacity="0.2"/><circle cx="108.15" cy="348.97" r="15.14" fill="url(#50d3cbe8-c642-4d06-9147-8b3a8a66b0b8)"/><circle cx="108.15" cy="348.97" r="13.46" fill="#fdd835"/><path d="M250.18,453.74A13.45,13.45,0,0,1,273,444.1a13.45,13.45,0,1,0-21.55,15.37A13.4,13.4,0,0,1,250.18,453.74Z" transform="translate(-152.12 -100.85)" fill="#fff" opacity="0.2"/><circle cx="225.32" cy="427.46" r="15.14" fill="url(#68b00927-fbaa-4146-b5b0-462ab386aad4)"/><circle cx="225.32" cy="427.46" r="13.46" fill="#fdd835"/><path d="M367.35,532.23a13.45,13.45,0,0,1,22.83-9.65A13.45,13.45,0,1,0,368.63,538,13.4,13.4,0,0,1,367.35,532.23Z" transform="translate(-152.12 -100.85)" fill="#fff" opacity="0.2"/><polygon points="246.22 677.5 78.82 677.5 36.39 427.45 289.24 427.45 246.22 677.5" fill="url(#0f076225-1862-4162-b858-1281b651f875)"/><polygon points="243.82 674.14 82.36 674.14 41.43 431.38 285.31 431.38 243.82 674.14" fill="#fff"/><polygon points="41.43 431.38 82.92 431.38 122.17 674.14 81.8 674.14 41.43 431.38" fill="#6c63ff"/><polygon points="285.31 431.38 243.26 431.38 202.9 674.14 243.82 674.14 285.31 431.38" fill="#6c63ff"/><rect x="142.35" y="431.38" width="40.37" height="242.76" fill="#6c63ff"/><circle cx="86.85" cy="385.97" r="15.14" fill="url(#abf7e6f2-bcd0-4405-8985-f1e62f4c1e4c)"/><circle cx="86.85" cy="385.97" r="13.46" fill="#fbc02d"/><path d="M228.87,490.74a13.45,13.45,0,0,1,22.83-9.65,13.45,13.45,0,1,0-21.55,15.37A13.4,13.4,0,0,1,228.87,490.74Z" transform="translate(-152.12 -100.85)" fill="#fff" opacity="0.2"/><circle cx="124.97" cy="343.36" r="15.14" fill="url(#d54eb898-f786-4f85-9a48-33b963b5d8b8)"/><circle cx="124.97" cy="343.36" r="13.46" fill="#fbc02d"/><path d="M267,448.14a13.45,13.45,0,0,1,22.83-9.65,13.45,13.45,0,1,0-21.55,15.37A13.4,13.4,0,0,1,267,448.14Z" transform="translate(-152.12 -100.85)" fill="#fff" opacity="0.2"/><circle cx="71.71" cy="408.95" r="15.14" fill="url(#96aa09be-8ec1-4566-95c8-ce78961e7eb1)"/><circle cx="71.71" cy="408.95" r="13.46" fill="#fbc02d"/><path d="M213.73,513.73a13.45,13.45,0,0,1,22.83-9.65A13.45,13.45,0,1,0,215,519.45,13.4,13.4,0,0,1,213.73,513.73Z" transform="translate(-152.12 -100.85)" fill="#fff" opacity="0.2"/><circle cx="53.57" cy="306.12" r="15.14" fill="url(#4ab383be-6c91-44a3-82ed-3e1940113dba)"/><circle cx="53.57" cy="306.12" r="13.46" fill="#fbc02d"/><path d="M195.6,410.9a13.45,13.45,0,0,1,22.83-9.65,13.45,13.45,0,1,0-21.55,15.37A13.4,13.4,0,0,1,195.6,410.9Z" transform="translate(-152.12 -100.85)" fill="#fff" opacity="0.2"/><g id="d4a79658-ee59-416f-a379-a492ff752217" data-name="&lt;Group&gt;"><path d="M1035.73,373.86l-9.1-21.87L930.18,391.6a11.91,11.91,0,0,0-7.38,11V506.83l27.87,3.24V410.64Z" transform="translate(-152.12 -100.85)" fill="url(#b114d039-19d3-4273-96cd-721b3ffa56ca)"/></g><path id="2572ddba-42e8-4159-9036-35cbff74dfb7" data-name="&lt;Clipping Path&gt;" d="M1031.12,373.43l-6.77-16.49L934.08,394a11.15,11.15,0,0,0-6.91,10.31v97.53H945V408.81Z" transform="translate(-152.12 -100.85)" fill="#f2f2f2"/><g clip-path="url(#a19b45cf-fcb4-4c03-9939-acced4c0c67e)"><rect x="847.96" y="238.17" width="19.44" height="61.57" fill="#6c63ff"/><rect x="817.18" y="251.13" width="19.44" height="61.57" fill="#6c63ff"/><polygon points="806.64 303.79 792.87 307.84 787.2 242.22 806.64 242.22 806.64 303.79" fill="#6c63ff"/><rect x="929.6" y="390.87" width="19.44" height="61.57" transform="translate(365.54 1260.12) rotate(-90)" fill="#6c63ff"/><rect x="929.6" y="417.61" width="19.44" height="61.57" transform="translate(338.81 1286.86) rotate(-90)" fill="#6c63ff"/><rect x="929.6" y="444.34" width="19.44" height="61.57" transform="translate(312.07 1313.6) rotate(-90)" fill="#6c63ff"/></g><polygon points="895.76 384 679.45 384 679.45 418.12 694.22 418.12 724.29 694.3 853.56 694.3 880.29 416.5 895.76 416.5 895.76 384" fill="url(#d0c5ed15-51fe-4852-891e-b0305d57f60c)"/><polygon points="847.96 688.63 728.87 688.63 699.7 396.96 873.89 396.96 847.96 688.63" fill="#6c63ff"/><rect x="687.55" y="392.1" width="199.3" height="19.44" fill="#6c63ff"/><circle cx="787.2" cy="526.59" r="49.42" fill="url(#73a4f828-edd2-4e48-97bd-9bcb305196f0)"/><circle cx="787.2" cy="526.59" r="45.37" fill="#fff"/><circle cx="117.26" cy="219.38" r="15.14" fill="url(#a8b03343-4c5a-4436-8864-65c423c59246)"/><circle cx="117.26" cy="219.38" r="13.46" fill="#fbc02d"/><path d="M259.28,324.15a13.45,13.45,0,0,1,22.83-9.65,13.45,13.45,0,1,0-21.55,15.37A13.4,13.4,0,0,1,259.28,324.15Z" transform="translate(-152.12 -100.85)" fill="#fff" opacity="0.2"/><circle cx="172.16" cy="153.49" r="15.14" fill="url(#69c2fe58-062f-467b-afb9-81a24de72d6c)"/><circle cx="172.16" cy="153.49" r="13.46" fill="#fdd835"/><path d="M314.19,258.27A13.45,13.45,0,0,1,337,248.62,13.45,13.45,0,1,0,315.46,264,13.4,13.4,0,0,1,314.19,258.27Z" transform="translate(-152.12 -100.85)" fill="#fff" opacity="0.2"/><circle cx="278.67" cy="295.14" r="15.14" fill="url(#11536ec6-4cc6-47e7-92d7-710fd5bff50d)"/><circle cx="278.67" cy="295.14" r="13.46" fill="#fdd835"/><path d="M420.7,399.92a13.45,13.45,0,0,1,22.83-9.65A13.45,13.45,0,1,0,422,405.64,13.4,13.4,0,0,1,420.7,399.92Z" transform="translate(-152.12 -100.85)" fill="#fff" opacity="0.2"/><circle cx="363.22" cy="402.75" r="15.14" fill="url(#08e02247-7e66-482b-b68c-8243a28a41b2)"/><circle cx="363.22" cy="402.75" r="13.46" fill="#fdd835"/><path d="M505.25,507.53a13.45,13.45,0,0,1,22.83-9.65,13.45,13.45,0,1,0-21.55,15.37A13.4,13.4,0,0,1,505.25,507.53Z" transform="translate(-152.12 -100.85)" fill="#fff" opacity="0.2"/><circle cx="49.18" cy="665.19" r="15.14" fill="url(#c4f8377c-dae5-454f-b3f1-2b316ac317fc)"/><circle cx="49.18" cy="665.19" r="13.46" fill="#fbc02d"/><path d="M191.2,770A13.45,13.45,0,0,1,214,760.32a13.45,13.45,0,1,0-21.55,15.37A13.4,13.4,0,0,1,191.2,770Z" transform="translate(-152.12 -100.85)" fill="#fff" opacity="0.2"/><circle cx="28.31" cy="637.73" r="15.14" fill="url(#c3564592-807d-4bae-b07e-cd7d41f54c08)"/><circle cx="28.31" cy="637.73" r="13.46" fill="#fdd835"/><path d="M170.34,742.51a13.45,13.45,0,0,1,22.83-9.65,13.45,13.45,0,1,0-21.55,15.37A13.4,13.4,0,0,1,170.34,742.51Z" transform="translate(-152.12 -100.85)" fill="#fff" opacity="0.2"/><circle cx="15.14" cy="489.5" r="15.14" fill="url(#02e0d9b2-dd62-4bea-9309-8de5f110771b)"/><circle cx="15.14" cy="489.5" r="13.46" fill="#fbc02d"/><path d="M157.16,594.27A13.45,13.45,0,0,1,180,584.63,13.45,13.45,0,1,0,158.44,600,13.4,13.4,0,0,1,157.16,594.27Z" transform="translate(-152.12 -100.85)" fill="#fff" opacity="0.2"/><circle cx="300.63" cy="653.11" r="15.14" fill="url(#15613dbc-00f1-4fe8-8ae5-2fad0c90759c)"/><circle cx="300.63" cy="653.11" r="13.46" fill="#fbc02d"/><path d="M442.66,757.88a13.45,13.45,0,0,1,22.83-9.65,13.45,13.45,0,1,0-21.55,15.37A13.4,13.4,0,0,1,442.66,757.88Z" transform="translate(-152.12 -100.85)" fill="#fff" opacity="0.2"/><circle cx="328.08" cy="635.54" r="15.14" fill="url(#f931e1d4-9cb1-419c-ad36-53d7f8c99488)"/><circle cx="328.08" cy="635.54" r="13.46" fill="#fbc02d"/><path d="M470.11,740.32a13.45,13.45,0,0,1,22.83-9.65A13.45,13.45,0,1,0,471.39,746,13.4,13.4,0,0,1,470.11,740.32Z" transform="translate(-152.12 -100.85)" fill="#fff" opacity="0.2"/><circle cx="331.38" cy="656.4" r="15.14" fill="url(#80cee248-a86c-4263-9e87-b18be0896754)"/><circle cx="331.38" cy="656.4" r="13.46" fill="#fdd835"/><path d="M473.4,761.18a13.45,13.45,0,0,1,22.83-9.65,13.45,13.45,0,1,0-21.55,15.37A13.4,13.4,0,0,1,473.4,761.18Z" transform="translate(-152.12 -100.85)" fill="#fff" opacity="0.2"/><circle cx="274.28" cy="656.4" r="15.14" fill="url(#d6702938-2bc7-4b9e-8a2c-5c8674d68bcc)"/><circle cx="274.28" cy="656.4" r="13.46" fill="#fdd835"/><path d="M416.3,761.18a13.45,13.45,0,0,1,22.83-9.65,13.45,13.45,0,1,0-21.55,15.37A13.4,13.4,0,0,1,416.3,761.18Z" transform="translate(-152.12 -100.85)" fill="#fff" opacity="0.2"/><circle cx="759.61" cy="71.37" r="71.37" fill="url(#c3c2f947-8308-4e36-bb02-388a47ed335c)"/><circle cx="759.61" cy="71.37" r="66.98" fill="#3ad29f"/><polygon points="803.96 71.37 736.92 104.31 736.92 71.37 736.92 38.43 803.96 71.37" fill="url(#e103c76e-73c8-428f-b06b-eaa70735fb85)"/><polygon points="799.93 71.37 740.94 100.36 740.94 71.37 740.94 42.38 799.93 71.37" fill="#fff"/><path d="M850.23,179.91a67,67,0,0,1,118.62-42.66,67,67,0,1,0-108.77,77.64A66.66,66.66,0,0,1,850.23,179.91Z" transform="translate(-152.12 -100.85)" fill="#fff" opacity="0.2"/></svg>