<svg id="ec0dd667-d318-4b3f-ae69-b5acae297142" data-name="Layer 1" xmlns="http://www.w3.org/2000/svg" width="705.28125" height="719.47629" viewBox="0 0 705.28125 719.47629"><title>party</title><path d="M903.0849,390.69022c-41.62683-163.68615-185.46063-281.84467-354.29039-286.5839-89.25523-2.50549-183.17666,27.09649-251.55837,130.68463-122.23971,185.175,7.51191,313.13662,97.97132,373.94142A566.02717,566.02717,0,0,1,512.203,713.88758c61.10238,72.50779,178.64943,162.60892,318.64265,21.43432C932.31291,632.99837,930.81249,499.72137,903.0849,390.69022Z" transform="translate(-247.35938 -90.26185)" fill="#f2f2f2"/><path d="M569.28464,291.64582s8.51146,19.02562-9.01214,22.53034,20.52765,21.02833,20.52765,21.02833l29.53979-5.00675,15.02023-11.51551S595.3197,300.658,599.3251,286.63907,569.28464,291.64582,569.28464,291.64582Z" transform="translate(-247.35938 -90.26185)" fill="#ffb8b8"/><path d="M569.28464,291.64582s8.51146,19.02562-9.01214,22.53034,20.52765,21.02833,20.52765,21.02833l29.53979-5.00675,15.02023-11.51551S595.3197,300.658,599.3251,286.63907,569.28464,291.64582,569.28464,291.64582Z" transform="translate(-247.35938 -90.26185)" opacity="0.1"/><path d="M284.11426,209.5348c-17.3584,0-27.91895-.98779-28.14991-1.01074l.19434-1.99023c.51123.05029,51.8916,4.84863,115.3999-6.99805C430.104,188.61488,511.23535,160.90541,565.27,90.91762l.50635-.65577.73877.376c.69677.35449,70.647,35.76855,152.74463,61.44434,48.18164,15.06884,91.05371,23.88378,127.4248,26.1997,45.332,2.88819,80.58691-4.3706,104.79785-21.56836l1.1582,1.63086c-24.59765,17.47168-60.29882,24.8501-106.0957,21.93262-36.5332-2.32764-79.56738-11.17383-127.90723-26.29346-77.71484-24.3081-144.561-57.32226-152.29-61.1914-23.97413,30.84228-55.11524,56.11816-92.56788,75.12841-30.15234,15.30518-64.43994,26.60645-101.91015,33.59131A486.29275,486.29275,0,0,1,284.11426,209.5348Z" transform="translate(-247.35938 -90.26185)" fill="#2f2e41"/><polygon points="60.902 118.658 92.312 116.075 79.702 158.267 60.902 118.658" fill="#6c63ff"/><polygon points="127.054 110.767 137.702 141.267 149.812 105.756 127.054 110.767" fill="#6c63ff"/><polygon points="221.828 77.567 251.702 99.267 245.864 66.884 221.828 77.567" fill="#6c63ff"/><polygon points="372.272 24.735 375.702 67.267 394.786 36.237 372.272 24.735" fill="#6c63ff"/><polygon points="585.415 88.861 607.702 135.267 626.671 88.861 585.415 88.861" fill="#6c63ff"/><polygon points="451.776 57.373 451.702 103.267 478.626 65.982 451.776 57.373" fill="#6c63ff"/><rect x="49.70215" y="717.26709" width="648" height="2" fill="#2f2e41"/><circle cx="336.94549" cy="157.81855" r="44.75665" fill="#ff6584"/><path d="M660.90805,349.724l11.01483,68.09172L717.48425,455.867s31.54249,18.02428,16.52225,29.53979S701.713,465.63016,701.713,465.63016s-45.56137-16.52225-51.06879-38.05125-18.96445-59.34415-18.96445-59.34415Z" transform="translate(-247.35938 -90.26185)" fill="#ffb8b8"/><path d="M503.19562,560.508s6.50877,62.08363,5.00674,66.58969,3.00405,75.60183,3.00405,75.60183l28.53844-6.50876s4.25573-37.30024.751-73.84947c0,0,10.51416-34.54653.50067-54.57351S503.19562,560.508,503.19562,560.508Z" transform="translate(-247.35938 -90.26185)" fill="#ffb8b8"/><path d="M591.56465,584.29s14.51955,43.058,23.53169,52.07013c0,0,13.26787,63.836,26.78608,66.33935S667.41681,691.184,667.41681,691.184s-15.5209-57.57755-25.03372-66.58969l-11.51551-47.06339Z" transform="translate(-247.35938 -90.26185)" fill="#ffb8b8"/><path d="M543.24957,690.18262H508.20236l4.0054,41.556s2.50337,38.05125-1.502,44.05934-7.51012,34.05126,6.50876,33.04991,20.52765-8.01619,20.52765-11.02023,1.502-37.55058,5.00675-43.55868,3.50472-19.5263-2.50338-21.529S543.24957,690.18262,543.24957,690.18262Z" transform="translate(-247.35938 -90.26185)" fill="#2f2e41"/><path d="M634.37231,698.69408l20.027,35.54788s-3.50472,10.51416,1.00135,18.525,5.50742,23.031,5.50742,29.03912,7.00944,29.04181,22.53034,27.03911,9.01214-21.031,9.01214-21.031l-12.01618-48.06474-13.01754-54.07283Z" transform="translate(-247.35938 -90.26185)" fill="#2f2e41"/><polygon points="274.862 276.986 269.354 312.033 232.805 392.141 267.352 400.652 290.883 280.991 274.862 276.986" fill="#ffb8b8"/><circle cx="336.69516" cy="179.10395" r="33.04451" fill="#ffb8b8"/><path d="M639.87972,324.18965,621.20053,315.972s-27.88352,13.7251-60.928-1.79581l-26.03507,5.00675s0,43.55867-4.50607,47.06339-10.01349,18.02428-7.00944,26.53574,8.01079,32.04316-1.00135,36.54923-39.0526,18.52495-47.56406,34.54653-58.07823,4.50607-60.08093,25.03372,32.04316,44.05934,20.52765,65.58834-17.02293,26.03507,16.52226,28.53844,67.09036-23.031,95.12813-3.00405,63.085,27.03642,76.60317,15.52091,30.54114-36.04856,53.07149-35.54788,40.55462-3.00405,37.55058-17.5236,12.51685-7.00944-3.00405-26.03507-60.5816-27.53709-67.09037-46.062-36.04855-26.03507-36.04855-26.03507-5.00674-7.00944,3.00405-11.51551S639.87972,324.18965,639.87972,324.18965Z" transform="translate(-247.35938 -90.26185)" fill="#2f2e41"/><path d="M541.24687,323.689l-7.00944-4.50607s-33.54518,19.02562-30.54114,29.03911,5.50742,7.00944,4.50607,15.52091-5.50741,9.01213,2.0027,11.01483,9.51281-3.004,9.51281,4.0054,12.51686,5.00674,12.51686,5.00674Z" transform="translate(-247.35938 -90.26185)" fill="#2f2e41"/><path d="M633.87163,326.693l6.00809-2.50337s27.53709,20.52765,24.53305,39.55328-16.02158-.50068-18.02428,4.50607-8.51146,5.00674-9.01214,13.01753,6.00809,9.51281-.50067,11.01484-19.5263-34.04586-19.5263-34.04586Z" transform="translate(-247.35938 -90.26185)" fill="#2f2e41"/><rect x="305.65334" y="138.04866" width="62.08362" height="35.54788" fill="#ff6584"/><circle cx="321.17425" cy="111.99066" r="14.51956" fill="#ff6584"/><circle cx="357.21741" cy="112.99066" r="14.51956" fill="#ff6584"/><path d="M927.7055,365.1473c-26.91169,27.14981-91.8722,48.66484-119.022,21.75315s-6.20783-92.0592,20.70386-119.209A69.21723,69.21723,0,0,1,927.7055,365.1473Z" transform="translate(-247.35938 -90.26185)" fill="#6c63ff"/><path d="M808.72505,396.33534a11.46645,11.46645,0,0,0-9.47645-9.39333l9.39334-9.47645,9.47645,9.39334Z" transform="translate(-247.35938 -90.26185)" fill="#6c63ff"/><path d="M813.40039,392.35254a15.65616,15.65616,0,0,1-10.18164-10.01416l1.90039-.62109a13.654,13.654,0,0,0,8.88281,8.728Z" transform="translate(-247.35938 -90.26185)" fill="#2f2e41"/><rect x="698.87864" y="433.20249" width="126.75737" height="1.9998" transform="translate(-330.15837 579.41401) rotate(-45.23741)" fill="#2f2e41"/><ellipse cx="919.52794" cy="315.94402" rx="17.51279" ry="14.594" transform="translate(-199.55375 656.32409) rotate(-45.25236)" fill="#fff" opacity="0.4"/><rect x="98.70215" y="277.26709" width="6" height="19" fill="#6c63ff" opacity="0.3"/><rect x="434.70215" y="151.26709" width="6" height="19" fill="#6c63ff" opacity="0.3"/><rect x="195.70215" y="223.26709" width="6" height="19" fill="#6c63ff" opacity="0.3"/><rect x="475.70215" y="233.26709" width="6" height="19" fill="#6c63ff" opacity="0.3"/><rect x="425.06152" y="371.52894" width="6" height="19" transform="translate(-391.50898 259.23701) rotate(-38.5192)" fill="#6c63ff" opacity="0.3"/><rect x="714.06152" y="379.52894" width="6" height="19" transform="translate(-333.60466 440.96032) rotate(-38.5192)" fill="#6c63ff" opacity="0.3"/><rect x="391.06152" y="429.52894" width="6" height="19" transform="translate(24.94933 -228.47389) rotate(30)" fill="#6c63ff" opacity="0.3"/><rect x="696.06152" y="283.52894" width="6" height="19" transform="translate(-7.18842 -400.53418) rotate(30)" fill="#6c63ff" opacity="0.3"/><rect x="364.06152" y="244.52894" width="6" height="19" transform="translate(-71.16798 -239.75919) rotate(30)" fill="#6c63ff" opacity="0.3"/></svg>