<svg data-name="Layer 1" xmlns="http://www.w3.org/2000/svg" width="901.99951" height="702.00734" viewBox="0 0 901.99951 702.00734" xmlns:xlink="http://www.w3.org/1999/xlink"><title>pay_online</title><path d="M965.71224,741.859c-.06572-.28941-6.42292-29.27871,6.56012-53.35614,12.983-24.07627,40.69652-34.69446,40.975-34.79938l1.26659-.47505.29921,1.32022c.06572.2894,6.42292,29.27871-6.56012,53.35613-12.98246,24.07627-40.69652,34.69446-40.975,34.79938l-1.26717.47505Zm47.06466-85.409c-5.55122,2.38791-27.46039,12.83891-38.42564,33.17362-10.9664,20.337-7.6578,44.38677-6.60278,50.33406,5.54892-2.38214,27.44944-12.817,38.42564-33.17362C1017.13994,686.44821,1013.8325,662.40076,1012.7769,656.45Z" transform="translate(-171.00024 -88.99633)" fill="#3f3d56"/><path d="M998.33141,699.45924c-23.33121,14.03683-32.3168,41.91784-32.3168,41.91784s28.84178,5.12281,52.173-8.914,32.3168-41.91784,32.3168-41.91784S1021.66262,685.42241,998.33141,699.45924Z" transform="translate(-171.00024 -88.99633)" fill="#d0cde1"/><path d="M491.41852,614.99633c-2.77442,0-5.57715-.04395-8.32813-.12988l.0625-1.99805c3.9502.12305,7.98145.15723,11.9502.10254l.02734,2Q493.27741,614.99584,491.41852,614.99633Zm15.74511-.46387-.11719-1.99609c3.95606-.2334,7.9629-.56152,11.90918-.97461l.209,1.98828C515.18805,613.967,511.15094,614.29809,507.16363,614.53246Zm-36.0957-.31152c-3.98926-.30567-8.02051-.70606-11.98242-1.19238l.24414-1.98438c3.93164.48145,7.93164.87988,11.89062,1.18262Zm60.03906-2.19922-.2998-1.97656c3.93066-.59668,7.8916-1.28906,11.76953-2.05957l.38965,1.96093C539.05816,610.72289,535.06793,611.42113,531.107,612.02172Zm-83.93506-.73145c-3.94091-.668-7.91894-1.43554-11.82324-2.2832l.42432-1.95508c3.87451.8418,7.82177,1.60352,11.73291,2.26563Zm107.54834-3.96191-.48047-1.94141c3.8584-.9541,7.73829-2.00878,11.53223-3.13378l.56836,1.918C562.51715,605.30492,558.608,606.36742,554.72027,607.32836ZM423.6441,606.18188c-3.86572-1.02832-7.75586-2.15918-11.5625-3.36328l.60254-1.90625c3.77783,1.19433,7.63818,2.3164,11.47363,3.33593Zm154.1582-5.70118L577.146,598.592c3.74414-1.30176,7.50977-2.709,11.19434-4.18359l.74219,1.85742C585.37066,597.75121,581.57574,599.16918,577.8023,600.4807Zm-177.1455-1.5664c-3.7544-1.37988-7.53223-2.86914-11.22754-4.42578l.77636-1.84375c3.667,1.54492,7.41553,3.02246,11.14161,4.39258Zm199.47461-7.36817-.82813-1.82031c3.5957-1.63379,7.21-3.37793,10.74219-5.18359l.91015,1.78125C607.396,588.14281,603.75445,589.89965,600.13141,591.54613Zm21.39843-10.93847-.99023-1.73633c3.44824-1.96777,6.89062-4.03613,10.22949-6.14844l1.06836,1.68946C628.4732,576.54125,625.00543,578.62621,621.52984,580.60766Zm20.32325-12.85742-1.14454-1.63868c3.24707-2.26855,6.48731-4.64453,9.63086-7.06054l1.21875,1.58593C648.39117,563.07152,645.12555,565.46508,641.85309,567.75024ZM337.0274,564.93383c-3.228-2.34473-6.45263-4.80078-9.585-7.30176l1.24805-1.5625c3.1084,2.48145,6.30859,4.91895,9.51172,7.24512Zm323.90283-11.8457-1.28906-1.5293c3.02637-2.55371,6.03809-5.21484,8.95313-7.91016l1.35742,1.46875C667.01519,547.83324,663.98,550.51488,660.93023,553.08813Zm-342.728-3.18555c-3.00635-2.63281-5.99317-5.37109-8.877-8.13965l1.38477-1.44336c2.8623,2.74805,5.82617,5.46582,8.80957,8.0791Zm360.40088-13.16113-1.42383-1.4043c2.79-2.82715,5.5498-5.75293,8.20117-8.69531l1.48633,1.33789C684.19488,530.94555,681.41461,533.89281,678.60309,536.74145Zm-377.77295-3.51172c-2.7583-2.90039-5.48243-5.89844-8.09668-8.91016l1.51074-1.31055c2.59424,2.98926,5.29736,5.96387,8.03515,8.8418ZM694.7232,518.84985l-1.54492-1.26954c2.52051-3.06738,5.002-6.23242,7.37793-9.40918l1.60156,1.19727C699.76422,512.56957,697.26324,515.76,694.7232,518.84985ZM285.0523,515.053c-2.47705-3.12988-4.916-6.36133-7.24951-9.60449l1.623-1.168c2.31592,3.21777,4.73633,6.4248,7.19482,9.53223ZM709.15191,499.5559l-1.65429-1.12305c2.23047-3.28418,4.415-6.66406,6.49218-10.04785l1.70508,1.04688C713.60016,492.84106,711.399,496.24731,709.15191,499.5559ZM271.001,495.5266c-2.17919-3.34082-4.312-6.77832-6.33984-10.21972l1.72266-1.01563c2.01269,3.415,4.12939,6.82715,6.292,10.1416Zm450.76612-16.51074-1.75-.9668c1.91992-3.47461,3.78515-7.043,5.5459-10.60644l1.793.88672C725.58258,471.91918,723.70172,475.51488,721.76715,479.01586Zm10.68066-21.62109-1.832-.80274c1.59375-3.63965,3.124-7.36718,4.54883-11.07812l1.86719.71679C735.59625,449.97094,734.05328,453.7268,732.44781,457.39477Zm-483.90234-4.31543c-1.5332-3.67969-3.00147-7.44434-4.36377-11.19043l1.87988-.6836c1.35156,3.71778,2.8086,7.45313,4.32959,11.1045Zm492.55078-18.21582-1.89844-.62891c1.24805-3.76074,2.42578-7.60449,3.5-11.42578l1.92578.541C743.54059,427.20043,742.35309,431.07445,741.09625,434.86352ZM240.32916,430.4807c-1.18994-3.81152-2.30811-7.70507-3.32324-11.57421l1.93457-.50782c1.00732,3.83985,2.11719,7.7041,3.29785,11.48633ZM747.6148,411.68578l-1.94824-.45312c.89551-3.85449,1.71387-7.791,2.4336-11.69824l1.96679.36132C749.34234,403.83422,748.51715,407.8,747.6148,411.68578Zm-513.394-4.49414c-.834-3.90625-1.58887-7.88574-2.24316-11.83008l1.97265-.32812c.64991,3.915,1.39893,7.86426,2.22657,11.74023ZM751.9732,388.00805l-1.98242-.27149c.53809-3.917.99219-7.91113,1.35059-11.87207l1.99218.17969C752.97223,380.03637,752.51422,384.06078,751.9732,388.00805Zm-521.69385-4.56641c-.47167-3.959-.85888-7.99121-1.15136-11.98437l1.99511-.14649c.28956,3.96387.67432,7.96485,1.14258,11.89453ZM754.148,364.03246l-1.99805-.08984c.17773-3.96289.26856-7.98242.26856-11.94629h2C754.41852,355.99047,754.32769,360.04027,754.148,364.03246ZM228.522,359.4309c-.06836-2.45215-.103-4.9541-.10351-7.43457q0-2.30859.03955-4.6084l2,.03516q-.03955,2.28222-.03955,4.57324c.00048,2.46191.03515,4.94531.10253,7.37988Zm2.41065-23.94775-1.9961-.125c.24951-3.9961.59424-8.03223,1.02344-11.99659l1.98828.21534C231.522,327.51147,231.18072,331.51684,230.93268,335.48315Zm520.19445-12.20159c-.39941-3.94288-.94885-5.86531-1.52893-9.79109l1.97852-.292c.584,3.95556,1.085,6.9751,1.48828,10.94775Zm-517.6217-11.55134-1.97656-.30567c.61279-3.95654,1.3247-7.94433,2.11621-11.854l1.96.39648C234.81988,303.84692,234.11334,307.80444,233.50543,311.73022Zm514.07422-10.01563c-.7627-3.90137-1.62305-7.82861-2.5586-11.67236l1.94336-.47266c.94239,3.873,1.80957,7.83057,2.57813,11.76123ZM238.24273,288.31322l-1.93994-.48632c.97119-3.87354,2.04688-7.7793,3.19727-11.60938l1.915.5752C240.274,280.5935,239.2066,284.46947,238.24273,288.31322Zm503.68457-9.81347c-1.11523-3.80811-2.334-7.63867-3.62207-11.38672l1.89063-.65039c1.29883,3.77685,2.52734,7.63769,3.65137,11.47461Zm-496.7998-13.1001-1.88672-.66309c1.3291-3.78076,2.76416-7.57959,4.26514-11.291l1.85449.75C247.87066,257.87817,246.44635,261.64819,245.1275,265.39965ZM734.1607,255.905c-1.459-3.68066-3.02148-7.37451-4.64453-10.97949l1.82422-.82129c1.63574,3.63281,3.21,7.355,4.67969,11.06348ZM254.10406,243.20238l-1.81738-.835c1.67041-3.63769,3.44824-7.28564,5.28418-10.84228l1.77734.917C257.52594,235.97192,255.76178,239.592,254.10406,243.20238Zm470.26856-9.03564c-1.79-3.53076-3.68653-7.06885-5.63672-10.51465l1.74023-.98535c1.96582,3.47266,3.876,7.0376,5.67969,10.5957ZM265.08111,221.93725l-1.7334-.99805c1.99512-3.46435,4.09913-6.93213,6.25391-10.30615l1.68555,1.07617C269.149,215.05785,267.0606,218.49926,265.08111,221.93725Zm447.54151-8.53516c-2.11328-3.36426-4.32618-6.71582-6.57715-9.96191l1.64258-1.13965c2.26855,3.271,4.499,6.64795,6.62793,10.03808ZM277.95416,201.77856l-1.63477-1.15235c2.30567-3.27,4.71631-6.52929,7.16651-9.6875l1.58008,1.22559C282.63482,195.29906,280.24176,198.53344,277.95416,201.77856Zm421.064-7.99219c-2.41015-3.15674-4.91992-6.29492-7.46191-9.32715l1.5332-1.28467c2.56055,3.05567,5.08985,6.21729,7.51856,9.39795ZM292.60748,182.88744l-1.52246-1.29687c2.5874-3.03906,5.28418-6.064,8.01514-8.99072l1.46191,1.36425C297.85211,176.86889,295.17584,179.87133,292.60748,182.88744Zm391.06982-7.4082c-2.68652-2.92432-5.47363-5.82275-8.28222-8.61377l1.41015-1.41895c2.83008,2.813,5.6377,5.73292,8.34473,8.6792Zm-374.76513-10.064-1.39844-1.42968c2.85986-2.79785,5.81934-5.564,8.79541-8.22119l1.332,1.49218C314.68756,159.8933,311.75055,162.63842,308.91217,165.41527ZM666.73,158.63549c-2.94434-2.67041-5.98438-5.3042-9.03516-7.82813l1.27539-1.541c3.07325,2.543,6.13672,5.19678,9.10352,7.88769Zm-339.99951-9.13184-1.2627-1.55078c3.09326-2.519,6.29-5.00342,9.502-7.38427l1.19141,1.60644C332.9732,144.53832,329.80035,147.00365,326.73053,149.50365Zm19.18213-14.21728-1.11622-1.65918c3.31055-2.22754,6.71875-4.40869,10.13038-6.48438l1.03906,1.709C352.58062,130.91137,349.1983,133.07641,345.91266,135.28637ZM366.30035,122.885l-.96-1.75488c3.50244-1.91651,7.09375-3.77588,10.67383-5.52735l.8789,1.79688C373.34039,119.13744,369.77643,120.98266,366.30035,122.885Zm241.37012-4.63379c-3.5586-1.77295-7.2041-3.48584-10.835-5.09082l.80859-1.8291c3.65918,1.61719,7.333,3.34326,10.91895,5.12988ZM387.72223,112.407l-.79493-1.835c3.66016-1.58642,7.4043-3.10791,11.12793-4.52246l.71,1.87012C395.06988,109.323,391.35455,110.83276,387.72223,112.407ZM585.774,108.5725c-3.70312-1.436-7.49316-2.80615-11.26562-4.07178l.63672-1.89648c3.80078,1.27588,7.62011,2.65625,11.35156,4.104Zm-175.74316-4.63672-.623-1.90039c3.80078-1.24609,7.67871-2.41943,11.52539-3.48633l.53467,1.92676C417.65045,101.5349,413.8023,102.699,410.03082,103.93578Zm153.06348-2.97363c-3.81446-1.0874-7.70508-2.1001-11.56348-3.00977l.459-1.94628c3.88868.9165,7.8086,1.937,11.65332,3.03222ZM433.05279,97.54662l-.44531-1.9497c3.89648-.89014,7.86572-1.70118,11.79687-2.41016l.35547,1.96777C440.858,95.85863,436.91949,96.66332,433.05279,97.54662Zm106.7876-2.06689c-3.89453-.731-7.86133-1.38135-11.791-1.93311l.27735-1.98047c3.96.55616,7.958,1.21143,11.88281,1.94776ZM456.565,93.30346l-.26465-1.98242c3.959-.52832,7.98535-.97266,11.9668-1.31934l.17383,1.99219C464.4898,92.33861,460.49469,92.779,456.565,93.30346ZM516.18121,92.156c-3.93945-.3711-7.94922-.65723-11.91894-.84912l.09765-1.99805c3.999.19385,8.03906.48193,12.00879.856Zm-35.81445-.9292-.084-1.998c3.67578-.15332,7.42188-.23144,11.13575-.23242l.90527.00146-.00586,2-.89941-.00146C487.733,90.99731,484.01422,91.07494,480.36676,91.2268Z" transform="translate(-171.00024 -88.99633)" fill="#3f3d56"/><rect x="169" y="652.29235" width="732.99951" height="2" fill="#3f3d56"/><path d="M769.01079,405.02149l10,155s24,61,23,119c0,0-9,23-2,27s11,7,7,10-7,10-4,12,4,5,3,5h-30s6-15-3-19-4-14-4-14l-67-196-53,180s9,6,2,9-10-3-7,3-1,9-1,10-30-3-30-3,15-13,8-16-10-6-8-8,10-21,10-21,4-72,5-75,0-17,0-24-1-35,2-42,6-93,22-103S769.01079,405.02149,769.01079,405.02149Z" transform="translate(-171.00024 -88.99633)" fill="#2f2e41"/><path d="M642.01079,701.02149s20,41,6,46-32,1-36,7-48,13-49-2,48-43,48-43l6.38294-10.278Z" transform="translate(-171.00024 -88.99633)" fill="#2f2e41"/><path d="M804.01079,731.02149s20,41,6,46-32,1-36,7-48,13-49-2,48-43,48-43l6.38294-10.278Z" transform="translate(-171.00024 -88.99633)" fill="#2f2e41"/><circle cx="540.51054" cy="94.52516" r="33" fill="#a0616a"/><polygon points="563.011 112.025 559.011 141.025 529.011 164.025 521.011 153.025 521.011 115.025 563.011 112.025" fill="#a0616a"/><path d="M687.01079,238.02149s31,3,47-8l32,189s-113,9-118,3v-59l20-96Z" transform="translate(-171.00024 -88.99633)" fill="#3f3d56"/><path d="M731.25716,220.98529l10.75363,9.0362s44,7,41,19l-12,142,4,48s-34-9-60,0-5.34348-193.40333-5.34348-193.40333S733.50353,223.94908,731.25716,220.98529Z" transform="translate(-171.00024 -88.99633)" fill="#d0cde1"/><path d="M692.01079,231.93094s-32,23.09055-36,38.09055-17,173-17,173,6-3,9,2S697.01079,239.84039,692.01079,231.93094Z" transform="translate(-171.00024 -88.99633)" fill="#d0cde1"/><path d="M678.52663,182.08371s-3.57245-5.35868-2.19843-11.12956a33.73126,33.73126,0,0,0,.96181-10.03036s2.88544-9.34334,5.77089-14.56461,1.51142-7.41972,10.58-9.06854,5.35868-13.4654,29.26664-.687a7.01143,7.01143,0,0,0,7.28231,2.748c4.94647-.96181,6.7327,5.90829,6.7327,5.90829s3.29765-1.92363,4.53427.82441,10.054-1.64932,10.054,16.9-10.03388,35.11857-10.03388,35.11857.73558-31.20212-15.61527-34.36236-33.93831-12.36619-38.19777-.54961A90.08054,90.08054,0,0,1,678.52663,182.08371Z" transform="translate(-171.00024 -88.99633)" fill="#2f2e41"/><ellipse cx="570.83502" cy="96.20587" rx="3.22517" ry="4.30023" fill="#a0616a"/><path d="M606.301,494.446c-7.91283-4.75844-17.45386-4.395-21.08095-4.03157,1.38129,3.37232,5.52576,11.974,13.43859,16.73484,7.93214,4.77052,17.4605,4.39622,21.08216,4.0352C618.36014,507.81331,614.21507,499.208,606.301,494.446Z" transform="translate(-171.00024 -88.99633)" fill="#d0cde1"/><path d="M643.48415,588.86985H594.02821a11.12758,11.12758,0,1,0,0,22.25517h49.45594a11.12759,11.12759,0,0,0,0-22.25517Z" transform="translate(-171.00024 -88.99633)" fill="#d0cde1"/><path d="M867.43777,471.412H590.15352A24.56242,24.56242,0,0,0,565.591,495.97447V631.07289a24.56248,24.56248,0,0,0,24.56248,24.56248H867.43777a24.56247,24.56247,0,0,0,24.56247-24.56248V495.97447A24.56242,24.56242,0,0,0,867.43777,471.412ZM583.293,488.16737c.54757-.099,13.53156-2.30859,24.283,4.16077,10.75087,6.46815,14.88146,18.97582,15.0517,19.50467l.43467,1.34869-1.39517.24752a37.0364,37.0364,0,0,1-6.01718.44191c-4.88281,0-11.95829-.80776-18.26646-4.60389-10.75087-6.46694-14.88085-18.97461-15.0511-19.50346l-.43467-1.34869Zm60.19112,125.43045H594.02821a13.60038,13.60038,0,0,1,0-27.20076h49.45594a13.60038,13.60038,0,0,1,0,27.20076Zm225.02452-2.4728a14.88044,14.88044,0,0,1-14.83678,14.83679H816.57994A14.88045,14.88045,0,0,1,801.74315,611.125V588.86985a14.8804,14.8804,0,0,1,14.83679-14.83678h37.092a14.88039,14.88039,0,0,1,14.83678,14.83678Z" transform="translate(-171.00024 -88.99633)" fill="#d0cde1"/><path d="M828.32572,606.79763H812.25254a4.32739,4.32739,0,0,0,0,8.65479h16.07318a4.32739,4.32739,0,1,0,0-8.65479Zm0,6.182H812.25254a1.8546,1.8546,0,1,1,0-3.70919h16.07318a1.8546,1.8546,0,1,1,0,3.70919Z" transform="translate(-171.00024 -88.99633)" fill="#d0cde1"/><path d="M857.99929,606.79763H841.92611a4.3274,4.3274,0,1,0,0,8.65479h16.07318a4.32739,4.32739,0,0,0,0-8.65479Zm0,6.182H841.92611a1.8546,1.8546,0,1,1,0-3.70919h16.07318a1.8546,1.8546,0,0,1,0,3.70919Z" transform="translate(-171.00024 -88.99633)" fill="#d0cde1"/><path d="M828.32572,595.67H812.25254a4.32739,4.32739,0,0,0,0,8.65479h16.07318a4.3274,4.3274,0,1,0,0-8.65479Zm0,6.182H812.25254a1.8546,1.8546,0,1,1,0-3.7092h16.07318a1.8546,1.8546,0,1,1,0,3.7092Z" transform="translate(-171.00024 -88.99633)" fill="#d0cde1"/><path d="M857.99929,595.67H841.92611a4.3274,4.3274,0,1,0,0,8.65479h16.07318a4.32739,4.32739,0,0,0,0-8.65479Zm0,6.182H841.92611a1.8546,1.8546,0,0,1,0-3.7092h16.07318a1.8546,1.8546,0,0,1,0,3.7092Z" transform="translate(-171.00024 -88.99633)" fill="#d0cde1"/><path d="M828.32572,584.54246H812.25254a4.32739,4.32739,0,0,0,0,8.65479h16.07318a4.32739,4.32739,0,1,0,0-8.65479Zm0,6.182H812.25254a1.8546,1.8546,0,0,1,0-3.7092h16.07318a1.8546,1.8546,0,0,1,0,3.7092Z" transform="translate(-171.00024 -88.99633)" fill="#d0cde1"/><path d="M857.99929,584.54246H841.92611a4.3274,4.3274,0,1,0,0,8.65479h16.07318a4.3274,4.3274,0,0,0,0-8.65479Zm0,6.182H841.92611a1.8546,1.8546,0,0,1,0-3.7092h16.07318a1.8546,1.8546,0,0,1,0,3.7092Z" transform="translate(-171.00024 -88.99633)" fill="#d0cde1"/><path d="M780.01079,441.02149l-7.1683,23.39148s-1.8317,43.60852-25.8317,37.60852,7-57,7-57l7-11Z" transform="translate(-171.00024 -88.99633)" fill="#a0616a"/><path d="M644.01079,441.02149l-7.1683,23.39148s-1.8317,43.60852-25.8317,37.60852,7-57,7-57l7-11Z" transform="translate(-171.00024 -88.99633)" fill="#a0616a"/><path d="M775.01079,242.02149s16-4,21,23,11,104,11,104l-24,81s-24-13-29-11l18.88626-70.32085-15.88626-71.67915S771.01079,242.02149,775.01079,242.02149Z" transform="translate(-171.00024 -88.99633)" fill="#d0cde1"/><polygon points="580.747 209.393 601.747 279.393 580.747 350.393 592.747 279.393 580.747 209.393" opacity="0.15"/><path d="M656.01079,297.02149l-36,142s18.98945,6.26719,25.98945,11.26719Z" transform="translate(-171.00024 -88.99633)" fill="#d0cde1"/><circle cx="107.3622" cy="464.88438" r="100" fill="#3f3d56"/><circle cx="107.3622" cy="464.88438" r="86" opacity="0.1"/><path d="M274.24154,604.62862V592.11155c-6.32734-.12344-12.87306-2.355-16.69109-5.45315l2.618-8.30316a26.68127,26.68127,0,0,0,15.70942,5.3285c7.74578,0,12.98225-5.081,12.98225-12.14493,0-6.81644-4.2548-11.02974-12.32763-14.74807-11.12757-4.957-18.00034-10.6582-18.00034-21.43985,0-10.28667,6.43653-18.09425,16.47324-19.95312V502.88071h6.76357V514.9022a26.54268,26.54268,0,0,1,14.18232,4.33734l-2.7277,8.17972a24.10675,24.10675,0,0,0-13.74554-4.2139c-8.39987,0-11.56381,5.70063-11.56381,10.6582,0,6.4443,4.03641,9.66645,13.52769,14.12845,11.23623,5.205,16.90947,11.64935,16.90947,22.67909,0,9.79049-6.00029,18.962-17.23705,21.06771v12.88981Z" transform="translate(-171.00024 -88.99633)" fill="#6c63ff"/><path d="M384.00024,757.28868a722.02568,722.02568,0,0,1-213,0v-24a802.32929,802.32929,0,0,0,213,0Z" transform="translate(-171.00024 -88.99633)" fill="#3f3d56"/><path d="M384.00024,720.28868a722.02568,722.02568,0,0,1-213,0v-24a802.32929,802.32929,0,0,0,213,0Z" transform="translate(-171.00024 -88.99633)" fill="#3f3d56"/><path d="M384.00024,683.28868a722.02568,722.02568,0,0,1-213,0v-24a802.32929,802.32929,0,0,0,213,0Z" transform="translate(-171.00024 -88.99633)" fill="#3f3d56"/></svg>