<svg id="a02cdd3d-0742-4d95-884a-8f77ee9b02ff" data-name="Layer 1" xmlns="http://www.w3.org/2000/svg" width="896" height="525.82716" viewBox="0 0 896 525.82716"><title>skateboard</title><path d="M380.134,671.66583c12.42842,23.049,38.806,32.9435,38.806,32.9435s6.22712-27.47543-6.2013-50.52448-38.806-32.9435-38.806-32.9435S367.70559,648.61678,380.134,671.66583Z" transform="translate(-152 -187.08642)" fill="#3f3d56"/><path d="M388.67653,664.08285c22.43841,13.49969,31.08016,40.3138,31.08016,40.3138s-27.73812,4.92679-50.17653-8.57291S338.5,655.50994,338.5,655.50994,366.23811,650.58316,388.67653,664.08285Z" transform="translate(-152 -187.08642)" fill="#6c63ff"/><rect y="523.82716" width="896" height="2" fill="#2f2e41"/><path d="M766.34728,225.41358l41-8s10-34,22-30-8,38-8,38l-57,26Z" transform="translate(-152 -187.08642)" fill="#a0616a"/><path d="M517.34728,259.41358l-18,23s-26-1-18,13,26,6,27,3,30-29,30-29Z" transform="translate(-152 -187.08642)" fill="#a0616a"/><path d="M590.84728,232.91358l15-8s64-5,88,11-101,18-101,18Z" transform="translate(-152 -187.08642)" fill="#6c63ff"/><path d="M619.34728,218.41358s-8-19,3-21a49.37054,49.37054,0,0,1,19,0l-12,10Z" transform="translate(-152 -187.08642)" fill="#3f3d56"/><path d="M619.34728,218.41358s-8-19,3-21a49.37054,49.37054,0,0,1,19,0l-12,10Z" transform="translate(-152 -187.08642)" opacity="0.1"/><path d="M564.34728,333.41358l-29-2,5,9s-40,12-27,46,33,66,33,66l13,25s27,4,28-4,0-12-5-16-8-12-8-16,1-8-2-10-4-5-4-11-11-28-11-28,35-1,46,8,47,43,47,43a30.29554,30.29554,0,0,1,5,7c2,4,2,6,6,8s1,10,0,11-11,41-11,41-11,19,1,20,23,2,24,0a54.36233,54.36233,0,0,1,4-8c3-5,0-16,0-16s29-37,20-60-28-75-28-75l-29-12-53-19Z" transform="translate(-152 -187.08642)" fill="#2f2e41"/><path d="M562.34728,472.41358s-6,23-8,24-24,20-9,23,26,2,29-1,2-6,7-7,14-4,13-11-6-26-9-28S562.34728,472.41358,562.34728,472.41358Z" transform="translate(-152 -187.08642)" fill="#2f2e41"/><path d="M649.34728,523.41358s-9,7-4,20,12,27,12,27,8,25,21,21c5.28125-1.625,7.92188-6.05566,9.19577-10.7442a25.6964,25.6964,0,0,0-3.63167-20.90966l-7.5641-11.34614-8-21Z" transform="translate(-152 -187.08642)" fill="#2f2e41"/><path d="M624.34728,229.41358s-12-1-14,2-11,43,0,47,44,11,49,6,7-49,7-49Z" transform="translate(-152 -187.08642)" fill="#a0616a"/><path d="M624.34728,229.41358s-12-1-14,2-11,43,0,47,44,11,49,6,7-49,7-49Z" transform="translate(-152 -187.08642)" opacity="0.1"/><path d="M606.34728,262.41358s14,14,23,12,30-11,32-15,27-5,27-5l-27,75,19,63s11-13-19-14-70-16-77-36c0,0-44-6-46-7s5-7,5-7l29-8,21-27Z" transform="translate(-152 -187.08642)" fill="#f2f2f2"/><path d="M615.34728,231.41358s5-7,0-7-19,0-24,1-24-4-26,2-2,43,2,46,6,3,1,9-17,26-14,33-32,9-27,17a16.42479,16.42479,0,0,0,13,8s2-16,14-8,28,28,41,15,18-25,19-42,0-28-2-38S615.34728,231.41358,615.34728,231.41358Z" transform="translate(-152 -187.08642)" fill="#6c63ff"/><path d="M667.34728,250.41358s8,7,0,24-29,57-12,83,24,33,20,38a19.42485,19.42485,0,0,0-4,11l11-4s2-14,6-24-8-40-8-40l4-39s16-25,18-26-4-44-4-44-10-3-15,0S667.34728,250.41358,667.34728,250.41358Z" transform="translate(-152 -187.08642)" fill="#6c63ff"/><path d="M571.34728,228.41358h-6l-41,21s-3-13-5-10-1,11-6,13-8,5,0,9,9,1,9,8,6,8,11,6,6-3,11-1,2,5,9,2,25-2,25-2Z" transform="translate(-152 -187.08642)" fill="#6c63ff"/><path d="M691.34728,231.41358l7-2s21,2,26,2,10-1,13-1,18-2,20-4,11-7,12-4,12,22,2,31-12,5-18,9-54,12-55,11S691.34728,231.41358,691.34728,231.41358Z" transform="translate(-152 -187.08642)" fill="#6c63ff"/><circle cx="498.34728" cy="52.32716" r="30" fill="#a0616a"/><path d="M628.27125,240.62a5.68193,5.68193,0,0,1,.62048,2.09953,7.85438,7.85438,0,0,0,7.51659,6.05575,4.6939,4.6939,0,0,0,4.06966,5.68292,25.86261,25.86261,0,0,0,4.4571-8.72693,8.01258,8.01258,0,0,1,1.506-3.4222c1.06537-1.12956,2.73-1.40655,4.27-1.605a224.53251,224.53251,0,0,1,24.06215-1.79285,5.982,5.982,0,0,0,3.16367-.64674c2.26071-1.45707,1.50643-4.97047.0785-7.24969a22.68689,22.68689,0,0,0-12.09915-9.44111c-3.58723-1.1654-7.39574-1.40867-11.14209-1.846-5.017-.58564-10.01077-1.53455-15.06172-1.56392s-10.2742.94226-14.40294,3.852c-3.00676,2.119-7.94133,8.05757-5.527,11.805.38661.60007,1.60761.89578,2.12712,1.50742.70692.83227.71013,2.0904,1.51323,2.84587C624.76353,239.43526,627.19453,239.03461,628.27125,240.62Z" transform="translate(-152 -187.08642)" fill="#2f2e41"/><path d="M650.34728,189.41358s-34,12-31,29,12,37,31,36,29-21.6811,29-21.6811l-5-28.3189S655.34728,189.41358,650.34728,189.41358Z" transform="translate(-152 -187.08642)" fill="#3f3d56"/><path d="M646.05693,249.422s13.367-14.5025,20.09654-6.09336C666.15347,243.32866,665.84728,242.91358,646.05693,249.422Z" transform="translate(-152 -187.08642)" fill="#2f2e41"/><path d="M671.29553,620.229c-17.92578,0-40.1045-5.93848-61.71778-27.40234C556.6676,540.27784,506.401,535.00733,505.89953,534.96046l.18652-1.99219c.50879.04785,51.48829,5.39062,104.90186,58.43847,27.44629,27.25879,55.77539,28.92872,74.707,25.52735a93.3633,93.3633,0,0,0,34.999-14.10547l1.18164,1.61328a95.44494,95.44494,0,0,1-35.748,14.44629A83.49825,83.49825,0,0,1,671.29553,620.229Z" transform="translate(-152 -187.08642)" fill="#2f2e41"/><circle cx="380.84728" cy="377.82716" r="12" fill="#2f2e41"/><circle cx="465.84728" cy="433.82716" r="12" fill="#2f2e41"/><path d="M835.5,711.91358q-36.47625-5.71032-70.14288-9.71417L774,684.91358c-3-1-16,9-16,9l11-50c-15,2-22,53-22,53l-17-17,8.36835,19.24713c-68.68128-7.21667-127.94678-9.46881-177.76581-8.95227L568,675.41358c-3-1-16,9-16,9l11-50c-15,2-22,53-22,53l-17-17,8.8634,20.38586a997.84838,997.84838,0,0,0-102.02258,8.21589C438.22235,676.01954,464,653.91358,464,653.91358c-19.82056,6.16638-30.13214,16.2124-35.4693,25.5246A401.561,401.561,0,0,1,450,540.41358s-40,90-34,150l.76129,10.65808C381.96191,706.50043,364.5,711.91358,364.5,711.91358Z" transform="translate(-152 -187.08642)" fill="#3f3d56"/></svg>