<svg data-name="Layer 1" xmlns="http://www.w3.org/2000/svg" width="982" height="469.75" viewBox="0 0 982 469.75" xmlns:xlink="http://www.w3.org/1999/xlink"><title>subway</title><path d="M1090,230.88V669.13a16.28,16.28,0,0,1-.37,3.45,15.43,15.43,0,0,1-15,12.3H124.32a15.29,15.29,0,0,1-14.18-9.81,15.9,15.9,0,0,1-1.14-5.94V230.88a15.53,15.53,0,0,1,15.32-15.75h950.36A15.53,15.53,0,0,1,1090,230.88Z" transform="translate(-109 -215.13)" fill="#f2f2f2"/><rect x="307" y="45" width="366" height="412" opacity="0.03"/><rect x="355" y="100" width="114" height="214" rx="14.62" opacity="0.03"/><rect x="620" y="315.13" width="114" height="214" rx="14.62" transform="translate(1245 629.13) rotate(-180)" opacity="0.03"/><rect x="26" y="52" width="262" height="262" rx="19.62" opacity="0.03"/><rect x="801" y="267.13" width="262" height="262" rx="19.62" transform="translate(1755 581.13) rotate(-180)" opacity="0.03"/><polygon points="419.16 100 355 170.24 355 191.89 434.62 100 419.16 100" fill="#f2f2f2"/><polygon points="469 172.3 355 283.64 355.5 303.5 469.5 191.89 469 172.3" fill="#f2f2f2"/><polygon points="575.16 100 511 170.24 511 191.89 590.62 100 575.16 100" fill="#f2f2f2"/><polygon points="625 172.3 511 283.64 511.5 303.5 625.5 191.89 625 172.3" fill="#f2f2f2"/><polygon points="112.97 52 26 151.69 26 215.6 157 52 112.97 52" fill="#f2f2f2"/><polygon points="228.44 52 26 251 26 266.12 255.24 52 228.44 52" fill="#f2f2f2"/><polygon points="780.47 52.5 693.5 152.19 693.5 216.1 824.5 52.5 780.47 52.5" fill="#f2f2f2"/><polygon points="895.94 52.5 693.5 251.5 693.5 266.62 922.74 52.5 895.94 52.5" fill="#f2f2f2"/><path d="M397,500.45v9.06a19.62,19.62,0,0,1-19.62,19.62H344.12c-1-.94-1.93-1.89-2.88-2.86-4.06-4.15-8.17-8.78-10.73-14.49-3.77-8.39-3.53-17.82-3.33-25.39,0-.73.05-1.45.07-2.19a29.14,29.14,0,0,1-53.59-7.93,28.47,28.47,0,0,1-.74-8,29,29,0,0,1,9.42-20.12l10.59,10.16-5.15-14.1a29.1,29.1,0,0,1,40.45,12.64q.47-10.83,1.07-21.62l-.12,0c-.61-.1-1.22-.23-1.81-.36l-1-.26c-.55-.16-1.1-.32-1.63-.5l-1-.35c-.54-.2-1.08-.44-1.6-.68a9,9,0,0,1-.84-.38c-.65-.31-1.27-.64-1.89-1-.14-.08-.28-.15-.42-.24-.74-.45-1.45-.93-2.14-1.44-.24-.16-.46-.36-.68-.53-.46-.36-.91-.73-1.34-1.1l-.76-.71c-.38-.36-.75-.73-1.1-1.1s-.5-.53-.74-.82-.67-.77-1-1.18l-.65-.84c-.34-.47-.66-.94-1-1.43-.16-.24-.33-.48-.48-.73-.43-.72-.83-1.45-1.2-2.21-.14-.29-.26-.6-.39-.88-.23-.5-.45-1-.65-1.53-.14-.34-.25-.7-.38-1.07s-.31-.94-.45-1.44-.2-.75-.3-1.14c0-.2-.11-.41-.15-.61h0a28.94,28.94,0,0,1,13.9-31.4l6.52,12.9-.19-15.62a29.14,29.14,0,0,1,34.21,14.78s0,0,0,0l.09.22c.14.27.26.53.39.81.23.52.46,1,.66,1.58.1.24.2.46.29.7.26.73.48,1.46.69,2.21.07.25.13.51.19.76.17.69.31,1.38.43,2.08,0,.13,0,.25.08.39.12.82.2,1.67.26,2.52,0,.22,0,.42,0,.65,0,.88.05,1.75,0,2.64a29.1,29.1,0,0,1-25.88,27.57c-1,17.08-1.69,34.21-2.13,51.19-.22,8.59-.16,15.65,2.63,21.87a34.65,34.65,0,0,0,5.76,8.5c0-.54,0-1.09,0-1.64a29.14,29.14,0,0,1,30.47-27.76h.08l6.6,13.07-.15-12A29.17,29.17,0,0,1,397,500.45Z" transform="translate(-109 -215.13)" fill="#f2f2f2"/><rect x="484" y="45" width="12" height="412" opacity="0.03"/><path d="M1089.63,672.58a15.43,15.43,0,0,1-15,12.3H124.32a15.29,15.29,0,0,1-14.18-9.81c43.13-10.93,157.55-19.78,305.86-23.91q12.39-.36,25.09-.64l1.57,0c2-.05,4.1-.08,6.16-.14q13.49-.29,27.3-.55l3.18-.06,10.9-.19,3.88-.06q11.49-.18,23.18-.32c24.69-.3,50-.48,75.74-.51h22.54q10.69,0,21.28,0l21.26.14c43.11.29,84.64,1,123.92,2l15.5.43q11.13.3,22,.66C944.72,655.92,1042.89,663.39,1089.63,672.58Z" transform="translate(-109 -215.13)" fill="#3f3d56"/><path d="M397.5,557.63h0c0,6.07-4.4,11-9.82,11H145.32c-5.42,0-9.82-4.93-9.82-11h0c0-6.08,4.4-11,9.82-11H387.68C393.1,546.63,397.5,551.55,397.5,557.63Z" transform="translate(-109 -215.13)" fill="#3f3d56"/><rect x="515.82" y="109.38" width="34.86" height="60.15" fill="#3f3d56"/><rect x="515.82" y="109.38" width="34.86" height="60.15" opacity="0.1"/><path d="M796.18,373.71c2.08-1.25,4.66-1.17,7.09-1a9,9,0,0,1,4.21.9c2.5,1.51,2.88,4.92,3,7.84.12,3.48.12,7.34-2.2,10-1.84,2.07-4.71,2.83-7.44,3.31a20.15,20.15,0,0,0-5.59,1.42,24.55,24.55,0,0,0-4.86,3.73c-3.25,2.77-7.57,5.49-11.83,6.16-2.86-5.77-3.6-11.3.87-16.26,2.47-2.74,5.66-4.85,8.34-7.39S792.91,375.68,796.18,373.71Z" transform="translate(-109 -215.13)" fill="#a0616a"/><path d="M632,666.29a9.4,9.4,0,0,0-.7,3.79c.28,3,3.25,4.89,6,6.14,3.68,1.69,8.32,2.93,11.52.44,3.56-2.77,3-8.19,4.39-12.49.82-2.51,2.36-4.72,3.37-7.16,2.77-6.69,1.31-14.3-.19-21.38l-2.19-10.31a3.87,3.87,0,0,0-1-2.19c-1.61-1.41-9.16-1.92-11.08-.58-3.07,2.13-2.33,9.32-2.82,12.7A179.48,179.48,0,0,1,632,666.29Z" transform="translate(-109 -215.13)" fill="#575a89"/><path d="M620.4,666.29a9.58,9.58,0,0,1,.7,3.79c-.28,3-3.25,4.89-6,6.14-3.68,1.69-8.33,2.93-11.52.44-3.56-2.77-3-8.19-4.4-12.49-.81-2.51-2.35-4.72-3.36-7.16-2.78-6.69-1.31-14.3.19-21.38l2.19-10.31a3.87,3.87,0,0,1,1-2.19c1.61-1.41,9.16-1.92,11.08-.58,3.06,2.13,2.32,9.32,2.81,12.7A179.5,179.5,0,0,0,620.4,666.29Z" transform="translate(-109 -215.13)" fill="#575a89"/><path d="M645.74,357a4.67,4.67,0,0,1,1.17,2.07c.36,1.88-1.39,3.54-3.18,4.22s-3.79.84-5.41,1.87a9.39,9.39,0,0,0-3.42,5c-3.4,9.56.39,21.61,9.41,26.26,6.22,3.21,13.62,2.71,20.6,2.13a7.9,7.9,0,0,0,2.85-.6,7.26,7.26,0,0,0,2.32-2.1,40.91,40.91,0,0,0,7.48-35.64,4,4,0,0,0-.59-1.43c-1.8-2.47-6.14.57-8.69-1.11a5.19,5.19,0,0,1-1.69-2.4A51.3,51.3,0,0,1,663,342.42c-.08-.54-11.44,3.81-12.41,4.29-3.87,2-4.07.16-6.94,3.43C646.73,351,643.19,354.06,645.74,357Z" transform="translate(-109 -215.13)" fill="#a0616a"/><path d="M645.74,357a4.67,4.67,0,0,1,1.17,2.07c.36,1.88-1.39,3.54-3.18,4.22s-3.79.84-5.41,1.87a9.39,9.39,0,0,0-3.42,5c-3.4,9.56.39,21.61,9.41,26.26,6.22,3.21,13.62,2.71,20.6,2.13a7.9,7.9,0,0,0,2.85-.6,7.26,7.26,0,0,0,2.32-2.1,40.91,40.91,0,0,0,7.48-35.64,4,4,0,0,0-.59-1.43c-1.8-2.47-6.14.57-8.69-1.11a5.19,5.19,0,0,1-1.69-2.4A51.3,51.3,0,0,1,663,342.42c-.08-.54-11.44,3.81-12.41,4.29-3.87,2-4.07.16-6.94,3.43C646.73,351,643.19,354.06,645.74,357Z" transform="translate(-109 -215.13)" opacity="0.1"/><path d="M605.85,476.23q1,9.66,1.41,19.36c.29,6.21.41,12.57-1.48,18.49-1,3.32-2.71,6.42-3.6,9.78-1,3.95-1,8.09-.95,12.18a28.36,28.36,0,0,0,.66,7c.55,2.09,1.57,4,2.32,6,2.7,7.17,2.08,15.12,1.15,22.72-1.75,14.3-4.48,28.46-7.21,42.6L593.22,640a82.89,82.89,0,0,0,16.68,4.89c3.54.64,8.16.52,9.57-2.8a9.4,9.4,0,0,0,.21-4.69,47.85,47.85,0,0,1,2.42-21.1c1.94-5.49,4.87-10.62,6.36-16.25A58.24,58.24,0,0,0,630,589.23q.69-9.6.58-19.23c-.1-8.66-.65-17.53,1.94-25.8,3.39-10.82,12.07-20.46,11.06-31.76.21,12.45.43,24.91-.41,37.33a123.29,123.29,0,0,0-.6,15.48c.42,7.57,2.61,15.21,1,22.63-.66,3-1.92,5.9-2.25,9-.52,4.82,1.3,9.88-.31,14.46-1.39,4-5.26,7.16-5.14,11.37.08,3.15,2.53,5.84,5.39,7.17s6.08,1.55,9.22,1.75c3.4.22,7.52.08,9.23-2.87,2.09-3.59-1.22-7.83-1.84-11.93s1.57-8.1,3.53-11.78a151.63,151.63,0,0,0,17.72-67.38c.17-7.11-.16-14.23-.12-21.34a206.26,206.26,0,0,1,6-48.41C658.23,466.9,631.11,467.15,605.85,476.23Z" transform="translate(-109 -215.13)" fill="#3c354c"/><circle cx="539.75" cy="121.69" r="20.17" fill="#a0616a"/><path d="M664.15,366.23c-2.18,3.94-4.89,7.87-8.92,9.9s-9.66,1.51-12.19-2.23c-1.91-2.83-1.95-7.08-4.92-8.74-2.38-1.33-5.55-.09-7.2,2.08s-2.14,5-2.46,7.68a158.39,158.39,0,0,0-.7,20.32c.42,33.05,3.06,66.07,2.64,99.13a126.75,126.75,0,0,1-.89,15.46c12.17-3.08,24.42-6.16,37-6.94,6.07-.37,12.18-.2,18.2-1a112.47,112.47,0,0,0,12.27-2.6,2.73,2.73,0,0,0,1.45-.69,2.68,2.68,0,0,0,.5-1.52c1.24-11.69-2.85-23.2-4.66-34.81-1.7-10.83-1.4-21.89-2.86-32.76-2-15.25-7.51-30.1-7.39-45.49,0-5.59.82-11.27-.42-16.73-1-4.5-4.47-10.5-9.5-11.38C668.53,354.93,666.25,362.44,664.15,366.23Z" transform="translate(-109 -215.13)" fill="#6c63ff"/><path d="M661.91,373.56c-6.17,12.29-12.44,24.85-14.45,38.47-1.81,12.28-.07,24.85-1.56,37.17-1.91,15.82-9.07,31.92-4.21,47.1,1.08,3.39,2.73,6.57,3.88,9.93,5,14.76,0,31.21,3.23,46.47a2.56,2.56,0,0,0,1.15,1.94c.85.37,1.78-.25,2.67-.53,3.85-1.23,6.5,3.66,9.55,6.32a10.27,10.27,0,0,0,11.2,1.36c5.71-2.94,7.23-10.26,8-16.63q5.75-45.7,7-91.83c.19-7,.29-14-.86-20.9-1.39-8.37-4.59-16.33-6.31-24.63-2.76-13.36-1.61-27.17-.86-40.79.21-4-.91-15.52-7.7-11.76C667.42,358.14,664.44,368.53,661.91,373.56Z" transform="translate(-109 -215.13)" fill="#575a89"/><path d="M630.93,408.11c-.06,4.36-.13,8.79-1.47,12.94s-3.92,7.83-6,11.71c-5,9.5-6.81,20.38-7.06,31.1s1,21.42,1.83,32.11a409.16,409.16,0,0,1,.85,48.9,35.74,35.74,0,0,1,20.78-.87c4,1,8.77,2.64,11.9-.08,2.23-1.94,2.5-5.25,2.6-8.2q1.59-45.09,1-90.22a95.08,95.08,0,0,1,.33-11.82c.33-3,1-6.06,1-9.12,0-4.3-1.15-8.5-2.32-12.64l-10.55-37.39c-.69-2.46-1.43-5-3.14-6.92s-6.88-4.46-8.89-2c-1.74,2.16-.45,9.56-.48,12.22Z" transform="translate(-109 -215.13)" opacity="0.1"/><path d="M629.57,407.42c-.06,4.36-.14,8.8-1.48,12.95s-3.91,7.82-6,11.71c-5,9.5-6.81,20.38-7.06,31.1s1,21.42,1.83,32.11a409,409,0,0,1,.85,48.89,35.86,35.86,0,0,1,20.79-.87c4,1.05,8.76,2.65,11.89-.07,2.23-1.94,2.5-5.25,2.61-8.21q1.58-45.09,1-90.22a94.92,94.92,0,0,1,.32-11.81,88,88,0,0,0,1-9.12c0-4.3-1.14-8.51-2.31-12.64l-10.55-37.39c-.7-2.47-1.44-5-3.15-6.93s-6.88-4.45-8.89-1.95c-1.73,2.15-.44,9.56-.48,12.21Z" transform="translate(-109 -215.13)" fill="#575a89"/><path d="M633.83,361.61c-5.45.55-9.64,5.25-11.77,10.29s-2.75,10.58-4.37,15.8c-2.83,9.05-8.7,17.21-9.65,26.64-.88,8.9,2.76,17.93,1,26.69a54,54,0,0,1-2.11,6.91c-3.4,9.95-5.34,20.33-7.28,30.67L596.77,494c-2,10.85-4.07,22-2.21,32.87a10.27,10.27,0,0,1,13,.83c1,.93,1.83,2.11,3.14,2.31,2.25.32,3.63-2.36,4.22-4.55a136.39,136.39,0,0,0,4.25-23.89c.38-4.38.56-8.82,1.85-13,.82-2.63,2-5.1,2.9-7.71,2-6.17,1.73-12.81,2.56-19.24.71-5.57,2.24-11,3.11-16.54a138.43,138.43,0,0,0,1.19-20.36l.39-39.17c.05-5.07.39-10.8,4.25-14.08,2-1.67,7.19-3.21,6.71-6.35C641.66,362.17,636.07,361.39,633.83,361.61Z" transform="translate(-109 -215.13)" fill="#ff6584"/><path d="M666.05,358c5.84-4.39,12.29-9,19.6-8.82a33,33,0,0,1,7.15,1.24l16.54,4.13a16.34,16.34,0,0,1-7.05,6.5,12,12,0,0,1,13.12,7.23c2.31,6.06-.73,12.7-3.42,18.61-4.6,10.09-8.42,20.83-8.38,31.93,0,5.63-3.89,11.2-4.27,16.82a33,33,0,0,0,.86,10.49,70.44,70.44,0,0,0,3.76,9.76c10.13,23.78,12.43,50.23,11.31,76.06l-22.58,0a10,10,0,0,0-3.69.47c-1.42.55-2.49,1.71-3.75,2.57a9.93,9.93,0,0,1-7.4,1.54c-2.41-11,1.4-22.18,3.28-33.24A164.25,164.25,0,0,0,682.94,485q.79-14.56.8-29.17c0-7.36-.18-14.87-2.61-21.81-1.2-3.44-2.94-6.69-4.07-10.16a61,61,0,0,1-2.1-10.65C672.44,394.62,668.57,376.57,666.05,358Z" transform="translate(-109 -215.13)" fill="#ff6584"/><path d="M617.78,373.56c-1.7,1.24-2.2,3.5-2.95,5.47-1.88,4.94-5.87,8.74-8.49,13.32a53,53,0,0,0-3.72,8.82c-3.47,9.9-7,20.23-5.76,30.64.28,2.33.87,4.77,2.52,6.44,3.61,3.63,10.28,1.39,13.07-2.91s2.95-9.7,3.51-14.78c1.06-9.68,3.87-19,6-28.5a111,111,0,0,0,2.52-14.48c.15-1.5,1-4.84-.42-5.79C623.17,371.19,618.61,373,617.78,373.56Z" transform="translate(-109 -215.13)" fill="#ff6584"/><path d="M728.06,400.23c2.49,3,5.52,6.17,9.38,6.07a13.3,13.3,0,0,0,5.41-1.81,259.71,259.71,0,0,1,40.33-16.07,18.76,18.76,0,0,0,4.39,21.18A139,139,0,0,0,754.07,423a28.74,28.74,0,0,0-6.17,4.29,40.82,40.82,0,0,1-3.86,3.92c-3.06,2.34-7.21,2.5-11.07,2.56a16.18,16.18,0,0,1-12.72-3.89l-27.62-19.75a2.95,2.95,0,0,1-.92-4.81l8.74-15.59c2-3.53,4.25-9.37,8.94-10s6.41,4.41,8.63,7.71A146.38,146.38,0,0,0,728.06,400.23Z" transform="translate(-109 -215.13)" fill="#ff6584"/><rect x="598.85" y="366.89" width="18.46" height="38.28" rx="4.1" transform="translate(-208.34 35.5) rotate(-21.57)" fill="#3f3d56"/><rect x="598.85" y="366.89" width="18.46" height="38.28" rx="4.1" transform="translate(-208.34 35.5) rotate(-21.57)" opacity="0.1"/><rect x="597.48" y="367.57" width="18.46" height="38.28" rx="4.1" transform="translate(-208.69 35.04) rotate(-21.57)" fill="#3f3d56"/><circle cx="496.34" cy="165.09" r="2.39" fill="#6c63ff"/><path d="M598.56,403.65c-1.24-1.54-2.79-2.82-3.88-4.46A17.1,17.1,0,0,1,592.4,392a66.48,66.48,0,0,1-.65-8.35,2.43,2.43,0,0,1,3-2.4,19.68,19.68,0,0,1,10.28,6.2,26.64,26.64,0,0,1,6.08,13.67,67.88,67.88,0,0,1,.57,7.81l.36,10.71c-2.61,0-6.41.73-8.91,0-3.59-1-2.14-.37-1.78-3.9C601.76,411.34,601.46,407.25,598.56,403.65Z" transform="translate(-109 -215.13)" fill="#a0616a"/><path d="M605.61,415.1a9.61,9.61,0,0,1-4.23-.58c-2.74-1.15-4.31-4-5.67-6.63a94.86,94.86,0,0,1-.88,17.19c-.52,3-1.33,6-1.26,9.07a15.93,15.93,0,0,0,4.3,10.44,7.48,7.48,0,0,0,2.64,1.93c2.16.85,4.62.06,6.6-1.14a16.73,16.73,0,0,0,6.55-7.38c2-4.44,1.9-9.33,2-14.09.1-4.45,1.53-9.12,1.45-13.39C613.65,410.11,609.82,414.88,605.61,415.1Z" transform="translate(-109 -215.13)" fill="#ff6584"/><path d="M625.69,329.74a27.63,27.63,0,0,0,23,1.28c-1.17,5.11,1.51,10.21,2.9,15.27,3.66,13.33-2,27.81-11,38.28a28,28,0,0,0,22.77-8.25,59.61,59.61,0,0,1-11.24,18.73c17.31-5.39,29.67-21.44,35.22-38.7,4.24-13.22,5-28.06-.78-40.67s-19.06-22.24-32.89-21.1c-10.09.83-19.32,7.27-24.45,16S622.92,330,625,340Z" transform="translate(-109 -215.13)" fill="#3f3d56"/><path d="M651.63,346.29a36.14,36.14,0,0,1-1.27,21.77c3.57-8,4.94-16.82,2.64-25.19-1.39-5.06-4.08-10.16-2.91-15.27a27.61,27.61,0,0,1-23-1.28l-.28,4a27.65,27.65,0,0,0,22,.74C647.56,336.13,650.24,341.23,651.63,346.29Z" transform="translate(-109 -215.13)" opacity="0.1"/><path d="M627.61,313.77A42.51,42.51,0,0,0,625,340l.61-8.58A42.3,42.3,0,0,1,627.61,313.77Z" transform="translate(-109 -215.13)" opacity="0.1"/><path d="M664.77,372.9a28.1,28.1,0,0,1-21.49,8.35c-.85,1.15-1.73,2.26-2.65,3.32a28,28,0,0,0,22.69-8.18C663.84,375.24,664.33,374.08,664.77,372.9Z" transform="translate(-109 -215.13)" opacity="0.1"/><path d="M655.45,391c-1,1.41-2.13,2.77-3.29,4.08,16.29-5.07,28.2-19.59,34.16-35.67C680.27,373.44,669.62,385.81,655.45,391Z" transform="translate(-109 -215.13)" opacity="0.1"/><path d="M819.5,257.63v-42h-22v442a11,11,0,1,0,22,0v-378h54v31.15c-19.18,1.2-34,9.17-34,18.85,0,8.9,12.6,16.39,29.59,18.44a79.45,79.45,0,0,0,9.41.56c21.54,0,39-8.52,39-19,0-7.2-8.2-13.46-20.3-16.68a70.76,70.76,0,0,0-13.7-2.17V279.63h110v31.15a74.56,74.56,0,0,0-9.2,1.15c-14.52,2.77-24.8,9.65-24.8,17.7a9.81,9.81,0,0,0,1.09,4.45c4.11,8.34,19.52,14.55,37.91,14.55,21.54,0,39-8.52,39-19,0-9.68-14.82-17.65-34-18.85V279.63H1091v-22Zm210,72c0,8.33-13.88,15.09-31,15.09s-31-6.76-31-15.09a7.3,7.3,0,0,1,.39-2.36c1.06-3.34,4.36-6.3,9.11-8.51a49.32,49.32,0,0,1,17.93-4.13h7.14C1017.51,315.48,1029.5,321.88,1029.5,329.63Zm-135.23-13c9.12,2.65,15.23,7.48,15.23,13,0,8.33-13.88,15.09-31,15.09a61.84,61.84,0,0,1-6.47-.33c-14-1.44-24.53-7.5-24.53-14.76,0-7.75,12-14.15,27.43-15h7.14A56.47,56.47,0,0,1,894.27,316.61Z" transform="translate(-109 -215.13)" fill="#3f3d56"/><rect x="381.22" y="232.37" width="3.52" height="107.47" fill="#575a89"/><rect x="392.15" y="232.37" width="3.53" height="107.47" fill="#575a89"/><circle cx="373.43" cy="444.42" r="6.02" fill="#575a89"/><path d="M461.11,550s6-4.88,11.27-3.19,19,3.38,21.4,12,0,103.45,0,103.45-11.64,3-14.83,1.5S476.13,648,476.13,648l-.93-84.11Z" transform="translate(-109 -215.13)" fill="#6c63ff"/><path d="M461.11,550s6-4.88,11.27-3.19,19,3.38,21.4,12,0,103.45,0,103.45-11.64,3-14.83,1.5S476.13,648,476.13,648l-.93-84.11Z" transform="translate(-109 -215.13)" opacity="0.1"/><path d="M515.75,657.4,490.48,663l-.26-4.49-.17-88.47a26.94,26.94,0,0,0-10.58-21.37h0s13.09-.17,23.12,4.35c2.14,1,4.29,1.91,6.49,2.72,2.73,1,6.43,3.15,6.67,7.39.31,5.52,1.36,60.2,1.74,80.11a50.39,50.39,0,0,1-1.74,14.14Z" transform="translate(-109 -215.13)" fill="#6c63ff"/><rect x="379.57" y="224.39" width="5.87" height="9.2" fill="#535461"/><rect x="379.57" y="224.39" width="5.87" height="9.2" opacity="0.1"/><rect x="390.6" y="225.85" width="5.87" height="9.2" fill="#535461"/><path d="M505.47,441H499.6a5.83,5.83,0,0,0-5.16,3.43c-.08.18-.16.36-.24.56l-1.29-1.25-2.69-2.6-1.65-1.59S499.41,434,505.47,441Z" transform="translate(-109 -215.13)" fill="#535461"/><circle cx="399.03" cy="448.66" r="6.02" fill="#575a89"/><circle cx="336.86" cy="440.44" r="6.02" fill="#575a89"/><path d="M457.17,548.69s-17.08,4.51-18,47.5-1.13,47.5-1.13,47.5.38,12.4,25.53,20.09H479L481.39,565S478.57,550,457.17,548.69Z" transform="translate(-109 -215.13)" fill="#6c63ff"/><path d="M455.67,615.34s-4.38-60.11,19.22-60.38l2.21,2.16S456.42,549.63,455.67,615.34Z" transform="translate(-109 -215.13)" opacity="0.1"/><circle cx="357.28" cy="453.91" r="6.02" fill="#575a89"/><path d="M499.67,440.94s0,0,0,0h-.06a5.83,5.83,0,0,0-5.16,3.43c-.08.18-.16.36-.24.56l-1.29-1.25a1.82,1.82,0,0,1,0-.33,3.41,3.41,0,0,1,1.28-2.22,5.06,5.06,0,0,1,4.89-.88C499.38,440.39,499.73,440.62,499.67,440.94Z" transform="translate(-109 -215.13)" opacity="0.1"/></svg>