<svg data-name="Layer 1" xmlns="http://www.w3.org/2000/svg" xmlns:xlink="http://www.w3.org/1999/xlink" width="1144" height="703.24" viewBox="0 0 1144 703.24"><defs><linearGradient id="df3da9d4-8aff-4be2-8f87-0704aadf5872-4" x1="431.81" y1="789.02" x2="431.81" y2="267.15" gradientUnits="userSpaceOnUse"><stop offset="0" stop-color="gray" stop-opacity="0.25"/><stop offset="0.54" stop-color="gray" stop-opacity="0.12"/><stop offset="1" stop-color="gray" stop-opacity="0.1"/></linearGradient></defs><title>wedding</title><path d="M715.72,586.55c22.1-1.26,49.52-16.26,70.84-22.88q37.85-11.76,76-22.6Q995.33,503.3,1131,476.67q12.66-2.48,25.36-4.86a179.65,179.65,0,0,0-59.26-71.17,181.86,181.86,0,0,0,1-18.77c0-99.14-79.23-179.51-177-179.51a174.27,174.27,0,0,0-85.9,22.54c-69.2-45.52-159.52-73.07-258.34-73.07-140.42,0-263.69,55.64-333.54,139.4l328.34,55.46,201.34,34c-229.53,6.85-459.77,13.66-688.64-2.42a181.42,181.42,0,0,0-26.12,229h0c0,3.59.15,7.14.42,10.67,5.83,1.68,11.46,3.29,16.51,4.36q121.61,25.68,244.78,43c-60.51,37.31-134.2,42.58-204,58.38,33.8,27.9,79.7,45.06,130.28,45.06H999.32c81.55,0,147.65-56.78,147.65-126.82h0a180.14,180.14,0,0,0,24-65.88C1020.07,590.57,867.29,577.92,715.72,586.55Z" transform="translate(-28 -98.38)" fill="#6c63ff" opacity="0.1"/><path d="M1172,546.17a180,180,0,0,0-76-147.42,184.86,184.86,0,0,0,1-18.77c0-99.15-79.24-179.51-177-179.51A174.18,174.18,0,0,0,834.08,223c-69.19-45.52-159.52-73.07-258.34-73.07-160.79,0-299.1,72.94-360.46,177.55-3.41-.2-6.84-.31-10.3-.31-97.74,0-177,80.36-177,179.5a180.5,180.5,0,0,0,29.12,98.67h0c0,89.2,84.19,161.51,188,161.51H998.24c81.54,0,147.64-56.77,147.64-126.81h0A180.57,180.57,0,0,0,1172,546.17Z" transform="translate(-28 -98.38)" fill="#6c63ff" opacity="0.1"/><path d="M861.23,98.38s-75,38.56-36.4,84.26c0,0,3.62,10,14.16,9.23,0,0-2.1-3.84,6-6.89a38.92,38.92,0,0,0,8.09-4.29,19,19,0,0,0,7.27-9.67h0s15.38-20.48,3.57-58.45c0,0,1.56-10.73.22-12.46L855,112.57s9.4,6.35,10.46,15.62c0,0-9.77-15.59-11.9-13.82-.43.36-4.54,6.82-4.54,6.82s16.29,11.1,17.48,25.48c0,0-9.16-20.15-19.07-23l-5.63,10.12s17.8,10.89,19.78,27.21c0,0-10.3-20.72-20.86-24.91l-4.19,10.7s17.15,11,18.71,24.55c0,0-14.33-22.75-19.51-22,0,0-3.25,10.06-2.83,13.15,0,0,12.13,8.15,12.33,16.12,0,0-11.18-14.18-12.91-13.25,0,0-.75,14.23,2.69,21.64,0,0-5.87-10.58-4.92-21.64,0,0-5.9,5-7.21,11.55,0,0-3.22-7.84,7.44-15,0,0,1-11.07,2.25-12.43,0,0-11.51,5.58-16.41,12.47,0,0,1.82-10.27,17.42-15.34l4-10.85s-15.61,6.58-20.44,12.39c0,0,3.48-10.19,21.67-15l5.41-10s-13.88,4.64-20.65,9.94c0,0,5.26-8.76,22.31-12.74l4.39-6.25s-10.07,3.57-12.87,4.86-3.38.64-3.38.64A36.38,36.38,0,0,1,852,111.35S861.92,99.05,861.23,98.38Z" transform="translate(-28 -98.38)" fill="#6c63ff" opacity="0.1"/><path d="M761.74,145.3s5.84,37.66,30.94,27.62c0,0,4.79-.13,6-4.76,0,0-1.95.35-2.11-3.54a17.62,17.62,0,0,0-.68-4.08,8.58,8.58,0,0,0-3.12-4.49h0s-6.58-9.51-24.55-9.86c0,0-4.38-2.2-5.31-1.87l4,5.69s4.06-3.13,8.19-2.26c0,0-8.08,2-7.62,3.13.09.24,2.27,2.92,2.27,2.92s7.09-5.4,13.42-3.87c0,0-9.94,1.06-12.6,4.9l3.54,3.85s7.21-6.08,14.49-4.6c0,0-10.36,1.47-13.66,5.4l4,3.32s7.15-5.8,13.2-4.53c0,0-11.8,2.91-12.23,5.23,0,0,3.85,2.83,5.23,3.08,0,0,5.22-4,8.67-3,0,0-7.67,2.77-7.52,3.64,0,0,6,2.35,9.66,1.94a19.48,19.48,0,0,1-10-1,10.76,10.76,0,0,0,3.93,4.74s-3.82.26-5.37-5.33c0,0-4.6-2-5-2.74,0,0,.75,5.73,3,8.82,0,0-4.15-2.25-4.1-9.66l-4.08-3.25s.59,7.63,2.4,10.53c0,0-3.88-2.95-3.37-11.44l-3.51-3.74s0,6.62,1.33,10.27c0,0-3-3.5-2.29-11.38l-2-2.77s.1,4.82.25,6.21-.21,1.54-.21,1.54a16.4,16.4,0,0,1-.92-8.9S762.13,145.1,761.74,145.3Z" transform="translate(-28 -98.38)" fill="#6c63ff" opacity="0.1"/><path d="M913.84,161.92S876.57,154,877,181c0,0-1.59,4.52,2.31,7.28,0,0,.37-1.95,4.06-.71a17.37,17.37,0,0,0,4.05.81,8.62,8.62,0,0,0,5.31-1.3h0s11.24-2.77,18-19.44c0,0,3.62-3.31,3.64-4.29l-6.76,1.75s1.48,4.91-.8,8.45c0,0,1-8.25-.21-8.24-.26,0-3.54,1.09-3.54,1.09s2.52,8.54-1.17,13.92c0,0,2.56-9.67-.09-13.52l-4.86,1.93s3.12,8.9-.86,15.18c0,0,2.32-10.2-.17-14.68l-4.53,2.55s2.87,8.73-.47,13.93c0,0,1.49-12.05-.53-13.28,0,0-4,2.59-4.75,3.79,0,0,1.92,6.32-.29,9.17,0,0,.14-8.16-.73-8.33,0,0-4.33,4.76-5.25,8.34a19.5,19.5,0,0,1,4.47-9,10.77,10.77,0,0,0-5.83,2s1.12-3.66,6.9-3.12c0,0,3.52-3.58,4.34-3.71,0,0-5.63-1.34-9.31-.33,0,0,3.57-3.07,10.48-.38l4.49-2.66s-7.34-2.16-10.69-1.51c0,0,4.13-2.57,11.88.93l4.75-2s-6.18-2.34-10.07-2.42c0,0,4.35-1.56,11.45,1.92l3.32-.93s-4.54-1.63-5.89-2-1.37-.74-1.37-.74a16.37,16.37,0,0,1,8.65,2.31S913.89,162.35,913.84,161.92Z" transform="translate(-28 -98.38)" fill="#6c63ff" opacity="0.1"/><ellipse cx="672.19" cy="662.76" rx="40.21" ry="6.8" fill="#6c63ff"/><path d="M716.82,750a11.64,11.64,0,0,0,3.83-5.79c.5-2.29-.48-5.05-2.68-5.89-2.46-.94-5.09.77-7.08,2.49s-4.28,3.68-6.88,3.32a10.5,10.5,0,0,0,3.24-9.81,4.12,4.12,0,0,0-.9-2c-1.37-1.46-3.84-.84-5.48.31-5.2,3.66-6.65,10.72-6.68,17.08-.52-2.29-.08-4.68-.09-7s-.66-5-2.65-6.23a7.91,7.91,0,0,0-4-.94c-2.33-.09-4.94.14-6.53,1.85-2,2.13-1.47,5.69.25,8s4.35,3.81,6.77,5.42a15,15,0,0,1,4.83,4.61,4.16,4.16,0,0,1,.36.83h14.66A40.77,40.77,0,0,0,716.82,750Z" transform="translate(-28 -98.38)" fill="#6c63ff"/><ellipse cx="765.19" cy="683.85" rx="40.21" ry="6.8" fill="#6c63ff"/><path d="M809.82,771.11a11.64,11.64,0,0,0,3.83-5.79c.5-2.3-.48-5.05-2.68-5.89-2.46-.94-5.09.76-7.08,2.49s-4.28,3.68-6.88,3.32a10.5,10.5,0,0,0,3.24-9.81,4.08,4.08,0,0,0-.9-2c-1.37-1.46-3.84-.84-5.48.31-5.2,3.66-6.65,10.72-6.68,17.08-.52-2.29-.08-4.68-.09-7s-.66-5-2.65-6.23a7.91,7.91,0,0,0-4-.94c-2.33-.09-4.94.14-6.53,1.85-2,2.13-1.47,5.69.25,8s4.35,3.8,6.77,5.42a15,15,0,0,1,4.83,4.61,4.16,4.16,0,0,1,.36.83h14.66A41.11,41.11,0,0,0,809.82,771.11Z" transform="translate(-28 -98.38)" fill="#6c63ff"/><ellipse cx="180.19" cy="676.35" rx="40.21" ry="6.8" fill="#6c63ff"/><path d="M224.82,763.61a11.64,11.64,0,0,0,3.83-5.79c.5-2.29-.48-5.05-2.68-5.89-2.46-.94-5.09.77-7.08,2.49s-4.28,3.69-6.88,3.32a10.5,10.5,0,0,0,3.24-9.81,4.12,4.12,0,0,0-.9-2c-1.37-1.46-3.84-.84-5.48.31-5.2,3.66-6.65,10.73-6.68,17.08-.52-2.29-.08-4.68-.09-7s-.66-5-2.65-6.23a7.91,7.91,0,0,0-4-.94c-2.33-.09-4.94.15-6.53,1.86-2,2.12-1.47,5.68.25,8s4.35,3.81,6.77,5.42a15,15,0,0,1,4.83,4.61,4.16,4.16,0,0,1,.36.83h14.66A40.77,40.77,0,0,0,224.82,763.61Z" transform="translate(-28 -98.38)" fill="#6c63ff"/><path d="M589.93,759.38a2.45,2.45,0,0,0,0-.27,8,8,0,0,0-.71-3.71c-1.62-3.28-5.52-3.82-8.83-4.39A43.55,43.55,0,0,1,565,745.22c-3.13-1.91-6.34-4.72-6.73-8.67,0-.81.06-1.62,0-2.36,0-.54,0-1.07,0-1.58,0-2.11-.12-4.05-1.69-4.43-9.38-2.32-17.49-10.31-20.72-20.44-.69-2.16-1.17-4.41-2.06-6.48-2.83-6.56-9.13-10.12-13.89-15.08-6.26-6.53-9.89-15.61-12.52-24.72s-4.45-18.54-7.9-27.31c-5.75-14.63-10.94-30.21-20.69-41.9-1.47-1.77-3.09-3.58-4.8-5.41-8.67-12.66-14.56-27.63-22.07-41.29a41.34,41.34,0,0,0-5.21-7.83c-2.6-2.88-5.82-4.94-8.82-7.29-14.45-11.28-23.69-29-36.14-42.93-2.17-2.43-5.55-5.85-7.15-8.78a28,28,0,0,1,.44-5.1c.8-4.15,2.95-8.09,2.58-12.32a17.31,17.31,0,0,1-.21-2.49,9,9,0,0,1,.76-2.78,27.5,27.5,0,0,1,2.54-5.46,23.23,23.23,0,0,0,3.5-9.21c2.49-2.36,3.57-6.68,6.68-7.77,1.73-.6,4-.19,5-1.9a4.58,4.58,0,0,0,.47-1.88,28.63,28.63,0,0,0-.85-10.06,24.74,24.74,0,0,0,.2-5.23,31.46,31.46,0,0,0-3.65-12.43c-1.27-2.42-3-4.84-5.47-5.4-.54-.12-1.09-.15-1.61-.31-3.18-.93-4.28-5.84-7.15-7.36,3.69,2,7.46,4.26,10.93,2.58,4.36-2.13,4.72-8.77,4.39-14.07L412,357.9c-.62-10-1.4-20.61-6.55-28.85-4.64-7.44-12.24-11.91-20-14.7-5.24-1.89-11-3.1-16.19-1.17.31-.22.61-.44.91-.64a14.57,14.57,0,0,0-1.87.7,34.86,34.86,0,0,0-7.52,5.16,27.14,27.14,0,0,0,1.9-10,26.58,26.58,0,0,0-4.18-14.46l5.86-4.93-1.37-2.23,2.58-2.46a1.81,1.81,0,0,0-1.54-.86,2.17,2.17,0,0,0-.36,0,5.34,5.34,0,0,0-.18-2.19l-.18.17a6.6,6.6,0,0,0-.72-1.74l.21,0a6.42,6.42,0,0,0-.41-.65c0,.1,0,.21,0,.31a14.45,14.45,0,0,0-3.06-3.27c-4.48-3.68-9.61-6.73-15.16-7.14-2.7-.2-5.41.23-8.11,0-3.64-.25-7.17-1.63-10.82-1.78s-7.76,1.34-9.27,5c-.65,1.6-.74,3.4-1.23,5.05-1.09,3.68-4,6.23-6.47,8.95s-4.76,6.37-4.08,10.17a14.62,14.62,0,0,0,1.26,3.48l12.67,27.36a53.64,53.64,0,0,1-.18,6q-.12,1.29-.33,2.61c-.06.37-.13.75-.22,1.13a6.33,6.33,0,0,0-3.82,2.2,3.14,3.14,0,0,0-.66,1.58,14.28,14.28,0,0,0,.48,2.71,7,7,0,0,1-.81,3.39c-1.27,2.95-2.62,5.95-4.78,8.16-.88.91-1.88,1.67-2.77,2.57a27.55,27.55,0,0,0-2.77,3.47c-1.85,2.6-3.76,5.32-4.44,8.56-1.12,5.3-3.38,10.34-5,15.51a5.29,5.29,0,0,1-.85,1.14c-1,.94-2.28,1.34-3.26,2.26-2.2,2.08-2,5.88-1.46,9.05,1.94,11.78,5.34,23.25,6.69,35.13.54,4.66.76,9.4,1.8,13.95a17,17,0,0,0,2.15,5.56c-.15,4.47.31,9-1.28,13.12-.74,1.86-1.77,3.56-2.67,5.34a78.38,78.38,0,0,0-3.31,7.88l-5.43,14.3c-1,2.71-2.06,5.44-2.84,8.26-2.25,8.21-2.26,17-1.94,25.55a1.1,1.1,0,0,1-.16.76c-.16.2-.54.14-.55-.13-.07.5-.35,1.35-.41,1.84,2.42,1.18,5.14.8,7.84.51,0,.26,0,.53,0,.79a1.28,1.28,0,0,0,0,.19,16.83,16.83,0,0,0,.25,2.43s0,0,0,.06c.07.41.16.81.25,1.21,0,.11,0,.21.08.32.09.36.19.73.3,1.08.06.19.11.36.17.54s.15.44.23.65.09.27.14.4c.66,1.72,1.45,3.38,2.2,5.06a27,27,0,0,1,2.55,8.26c.06.66.08,1.32.11,2l0,.69a18.92,18.92,0,0,0,.18,2.13c.18,1.14.52,2.23.79,3.35.16.66.28,1.34.4,2s.23,1.53.33,2.29q1.13,8.48,1.67,17c.09,1.37.17,2.75.24,4.12.47,10,.35,20,.23,30.06a60.26,60.26,0,0,1-1,9.78c-1.67,9.47-5.12,18.67-7.4,28.07-.24,1-.46,2-.67,3a40.25,40.25,0,0,0-1,6.45,45.6,45.6,0,0,0,.78,8.64q.74,5.19,1.14,10.43a29.22,29.22,0,0,0-3.54,10.54c-1.21,11.13-10.64,19.48-11.92,30.61a13.75,13.75,0,0,0-.09,2.13,10.6,10.6,0,0,0,0,1.38,9,9,0,0,0,.3,3.52,7,7,0,0,0,5.83,4.39c2.45.31,4.9-.31,7.34-.72,1.1-.19,2.2-.31,3.3-.42a7.23,7.23,0,0,1,0,1.14,19.67,19.67,0,0,0-1.32,2.9,10.25,10.25,0,0,0-1.13,3.77,8.38,8.38,0,0,0,1.13,4.44c2.46,4.49,7.37,6.6,12.07,7s9.37-.63,14.07-.88l.8,0a8.71,8.71,0,0,0,.59,1.28c2.45,4.49,7.37,6.6,12.06,7s9.38-.62,14.08-.87c1.4-.07,2.81-.07,4.21-.17a41,41,0,0,0,8.48-1.55,49.15,49.15,0,0,0,6.81,7.79c8.24,7,19.63,6.6,29.93,5.23s21.91-3.91,31.3,1c7.2-.79,11.49,10.64,18.72,10.93,3.32.13,6.3-2.2,8.7-4.76a8.81,8.81,0,0,1,3.1-2.54,6.1,6.1,0,0,1,3.09-.1,23.18,23.18,0,0,1,14.14,8.54c1.82,2.28,3.68,5.15,6.41,5.21,2.45,0,4.62-2.31,7.05-2,1.65.22,3,1.63,4.43,2.5,4.48,2.65,10,.2,14.3-2.72s8.9-6.45,13.94-5.92c3.27.34,6.18,2.38,9.23,3.71,9.4,4.1,20.93,1,27.67-7.36,1.07-1.34,2.17-2.89,3.75-3.24a5.88,5.88,0,0,1,3.1.46c5.65,1.88,11.59,3.61,17.37,2.33s11.28-6.51,11.4-13.09a9.63,9.63,0,0,0-.05-1.2c0-.25.05-.51.05-.77A5.56,5.56,0,0,0,589.93,759.38Zm-227-375.72a5.91,5.91,0,0,1-2,2.64c-.08-.43-.16-.86-.25-1.3-.36-1.86-.77-3.71-1.21-5.55a21.27,21.27,0,0,0,4.25,2.1C363.43,382.25,363.19,383,362.9,383.66Zm-14.66-45.14c0,.07,0,.14,0,.21,0,3.52,1.22,5.53,3,6.68a27,27,0,0,0-3,12.46c-.68-.53-1.41-1-2-1.59a13.5,13.5,0,0,1-2.63-3.87,1.34,1.34,0,0,0,.84-.13c.51-.35.49-1.17.42-1.83a39.29,39.29,0,0,1,2.47-18.51,20.12,20.12,0,0,0,3.37-1.55,16.59,16.59,0,0,0-2.45,8S348.24,338.47,348.24,338.52Zm48.94,50.19a25.27,25.27,0,0,0-.85,5.94,15.16,15.16,0,0,0-7.61-6,10.74,10.74,0,0,0-1.12-.27,6.5,6.5,0,0,1,.75-.64c2.87-2,6.1-.6,9.4,1.15A4.82,4.82,0,0,0,397.18,388.71Z" transform="translate(-28 -98.38)" fill="url(#df3da9d4-8aff-4be2-8f87-0704aadf5872-4)"/><path d="M278.4,751.59a7.87,7.87,0,0,0,1.29,4.52c2.79,4.57,8.39,6.71,13.72,7.11s10.67-.64,16-.89c1.6-.07,3.2-.08,4.79-.17,8.28-.5,16.19-3.43,24-6.33,1.28-.47,2.77-1.23,2.84-2.58a3.17,3.17,0,0,0-1.32-2.36,13.56,13.56,0,0,0-3.41-2.18c-4.34-1.91-9.54-1.41-13.66-3.76-.91-.52-1.74-1.16-2.69-1.59a11.46,11.46,0,0,0-3.48-.8,53.21,53.21,0,0,0-15.48.51c-3.89.71-7.72,1.86-11.67,2.14a14.91,14.91,0,0,1-4.47-.29c-1-.23-2.27-1.13-3.22-.53s-1.48,2.51-1.93,3.36A9.77,9.77,0,0,0,278.4,751.59Z" transform="translate(-28 -98.38)" fill="#3f3d56"/><path d="M278.4,751.59a7.87,7.87,0,0,0,1.29,4.52c2.79,4.57,8.39,6.71,13.72,7.11s10.67-.64,16-.89c1.6-.07,3.2-.08,4.79-.17,8.28-.5,16.19-3.43,24-6.33,1.28-.47,2.77-1.23,2.84-2.58a3.17,3.17,0,0,0-1.32-2.36,13.56,13.56,0,0,0-3.41-2.18c-4.34-1.91-9.54-1.41-13.66-3.76-.91-.52-1.74-1.16-2.69-1.59a11.46,11.46,0,0,0-3.48-.8,53.21,53.21,0,0,0-15.48.51c-3.89.71-7.72,1.86-11.67,2.14a14.91,14.91,0,0,1-4.47-.29c-1-.23-2.27-1.13-3.22-.53s-1.48,2.51-1.93,3.36A9.77,9.77,0,0,0,278.4,751.59Z" transform="translate(-28 -98.38)" opacity="0.05"/><path d="M309.72,759.09a7.8,7.8,0,0,0,1.29,4.52c2.79,4.57,8.38,6.71,13.72,7.11s10.67-.64,16-.89c1.6-.07,3.19-.08,4.79-.17,8.28-.5,16.19-3.43,24-6.33,1.28-.48,2.77-1.23,2.84-2.59a3.15,3.15,0,0,0-1.32-2.35,13.29,13.29,0,0,0-3.41-2.18c-4.34-1.91-9.54-1.42-13.66-3.77-.91-.51-1.74-1.16-2.69-1.58a11.77,11.77,0,0,0-3.48-.81,53.21,53.21,0,0,0-15.48.52c-3.89.71-7.72,1.86-11.67,2.13a14.57,14.57,0,0,1-4.47-.28c-1-.23-2.27-1.13-3.22-.53s-1.49,2.51-1.93,3.36A9.61,9.61,0,0,0,309.72,759.09Z" transform="translate(-28 -98.38)" fill="#3f3d56"/><path d="M293.36,384.75a5.25,5.25,0,0,0-1.9-2.5c-2.09-1.16-4.56,1-5.47,3.17s-1.21,4.83-3,6.4c-1.09,1-2.59,1.36-3.71,2.3-2.5,2.11-2.25,6-1.66,9.2,2.21,12,6.08,23.66,7.62,35.75.61,4.75.86,9.57,2,14.2.7,2.74,1.81,5.52,4,7.3s5.69,2.21,7.75.27a88.87,88.87,0,0,1-5.49-31.55c.06-7,1-14,1.19-21.08.21-6.18-.1-12.37-.41-18.55a11.53,11.53,0,0,0-.88-4.63,4,4,0,0,0-3.77-2.37" transform="translate(-28 -98.38)" fill="#fbbebe"/><circle cx="310.26" cy="214.13" r="25.17" fill="#cb8c8e"/><circle cx="344.18" cy="264.55" r="25.25" fill="#fbbebe"/><path d="M382.57,387.38c.22,2,1,4.33,2.91,4.84a21.4,21.4,0,0,0,2.67.15,4.55,4.55,0,0,1,3.29,2.54,8.15,8.15,0,0,1,.69,4.23,13.32,13.32,0,0,1-2.06,6.18,17.75,17.75,0,0,1-9.26,6.78,49.92,49.92,0,0,1-11.46,2.11,13.7,13.7,0,0,1-5.19-.16,11,11,0,0,1-3-1.52,29.61,29.61,0,0,1-7.37-7.06,17.7,17.7,0,0,1-3.17-6.49,9.76,9.76,0,0,1,.93-7,3.45,3.45,0,0,1,1.68-1.59c2.14-.77,4.08,1.88,6.35,1.94,1.8,0,3.22-1.54,4-3.16s1.19-3.45,2.35-4.82c1.35-1.61,3.47-2.32,5.5-2.86,3.34-.88,7.72-2.21,11.2-1.84,1.91.19.66,1.33.22,2.71A12.16,12.16,0,0,0,382.57,387.38Z" transform="translate(-28 -98.38)" fill="#fbbebe"/><path d="M358.77,413.73c3.07-1.38,4.77-4.71,7.51-6.68,2.3-1.65,5.17-2.24,7.8-3.29a22.75,22.75,0,0,0,7.2-4.6c1.9-1.79,3.59-4,6-4.88a9.34,9.34,0,0,1,5.66,0c5.19,1.44,9.18,5.76,11.5,10.61s3.21,10.25,4.08,15.56l1.3,8a73.49,73.49,0,0,1,1.39,14.84c-.21,5-1.51,10-4.54,14a27.33,27.33,0,0,0-2.89,5.55,8.47,8.47,0,0,0-.85,2.84,15.56,15.56,0,0,0,.23,2.53c.42,4.3-2,8.31-2.94,12.53a36.08,36.08,0,0,0-.44,8.57,2.1,2.1,0,0,0,.22,1.08,2,2,0,0,0,.85.68c.66.35,1.34.68,2,1a74.91,74.91,0,0,1-16.81,1.78c-9.91-.23-19.58-3-29.43-4.15-.37-4.52.87-8.88,1.15-13.4a54.29,54.29,0,0,0-.55-8.82,107,107,0,0,1,.23-24c.34-2.8.8-5.59.93-8.41.15-3.34-.15-6.69.09-10,.23-3.17,1-6.31,1.08-9.49A1.64,1.64,0,0,0,358.77,413.73Z" transform="translate(-28 -98.38)" fill="#f4f6fb"/><path d="M369.93,484.79c10.36.06,19.49.36,29.82,1.07,1.82,3-2.54,11.09-.07,13.57,14.16,14.19,17.31,33.26,33.75,44.75,3.41,2.38,13,4.31,16,7.25,2.35,2.33-1.24.67.5,3.5,10,16.32,32.55,32.43,45.62,46.46,11.08,11.89,17,27.75,23.54,42.64,3.92,8.91,6,18.52,9,27.79s7.13,18.5,14.25,25.14c5.42,5.06,12.59,8.68,15.8,15.35a63.89,63.89,0,0,1,2.35,6.6,33,33,0,0,0,23.58,20.79c2.91.64,1.58,5.49,1.88,8.46.41,4.06,4.08,6.94,7.66,8.89a53.67,53.67,0,0,0,17.49,5.89c3.76.57,8.2,1.13,10,4.46a7.47,7.47,0,0,1,.81,3.78c-.13,6.7-6.4,12-13,13.32s-13.34-.46-19.76-2.37a7.43,7.43,0,0,0-3.53-.47c-1.8.35-3,1.93-4.27,3.3a29.15,29.15,0,0,1-31.47,7.49c-3.48-1.36-6.78-3.43-10.5-3.78-5.74-.54-10.93,3.06-15.87,6s-11.18,5.46-16.27,2.76c-1.68-.88-3.16-2.31-5-2.54-2.77-.32-5.24,2.08-8,2-3.1-.06-5.23-3-7.3-5.3A27.06,27.06,0,0,0,470.84,783a7.56,7.56,0,0,0-3.51.1,9.88,9.88,0,0,0-3.53,2.58c-2.73,2.61-6.12,5-9.89,4.84-8.23-.29-13.12-11.92-21.31-11.12-10.68-5-23.9-2.42-35.61-1s-24.68,1.83-34.06-5.32c-4.94-3.78-8.29-9.27-12.9-13.46-7.28-6.62-17.1-9.51-26.57-12.21-15-4.28-30.58-8.6-46-6.27-2.78.42-5.57,1-8.36.73s-5.65-1.84-6.63-4.46a8.73,8.73,0,0,1-.28-4.16c1.45-11.32,12.18-19.82,13.55-31.15.69-5.62,3.71-10.54,6.93-15.19A131,131,0,0,0,290.16,674c5.33-10,10.68-20,14.7-30.56,4.23-11.11,6.94-22.73,9.64-34.31,2.6-11.17,3.84-22.61,5.71-33.93,1.36-8.23,3.49-16.31,5.62-24.38,6.3-23.84,12.64-47.82,23-70.18C355.57,482.54,363,484.75,369.93,484.79Z" transform="translate(-28 -98.38)" fill="#e3e8f4"/><path d="M369.93,487.79c10.36.06,19.49-.64,29.82.07,1.82,3,5.67,6.46,8.14,8.93C422.05,511,432.57,529,449,540.48c3.41,2.39,7.07,4.49,10,7.42a41.62,41.62,0,0,1,5.93,8c10,16.33,17.51,34.5,30.58,48.53,11.08,11.89,17,27.75,23.54,42.64,3.92,8.91,6,18.52,9,27.79s7.13,18.5,14.25,25.14c5.42,5.06,12.59,8.68,15.8,15.35a63.89,63.89,0,0,1,2.35,6.6,33,33,0,0,0,23.58,20.79c2.91.64,1.58,5.49,1.88,8.46.41,4.06,4.08,6.94,7.66,8.89a53.67,53.67,0,0,0,17.49,5.89c3.76.57,8.2,1.13,10,4.46a7.47,7.47,0,0,1,.81,3.78c-.13,6.7-6.4,12-13,13.32s-13.34-.46-19.76-2.37a7.43,7.43,0,0,0-3.53-.47c-1.8.35-3,1.93-4.27,3.3a29.15,29.15,0,0,1-31.47,7.49c-3.48-1.36-6.78-3.43-10.5-3.78-5.74-.54-10.93,3.06-15.87,6s-11.18,5.46-16.27,2.76c-1.68-.88-3.16-2.31-5-2.54-2.77-.32-5.24,2.08-8,2-3.1-.06-5.23-3-7.3-5.3A27.06,27.06,0,0,0,470.84,786a7.56,7.56,0,0,0-3.51.1,9.88,9.88,0,0,0-3.53,2.58c-2.73,2.61-6.12,5-9.89,4.84-8.23-.29-13.12-11.92-21.31-11.12-10.68-5-23.9-2.42-35.61-1s-24.68,1.83-34.06-5.32c-4.94-3.78-8.29-9.27-12.9-13.46-7.28-6.62-17.1-9.51-26.57-12.21-15-4.28-30.58-8.6-46-6.27-2.78.42-5.57,1-8.36.73s-5.65-1.84-6.63-4.46a8.73,8.73,0,0,1-.28-4.16c1.45-11.32,12.18-19.82,13.55-31.15.69-5.62,3.71-10.54,6.93-15.19A131,131,0,0,0,290.16,677c5.33-10,10.68-20,14.7-30.56,4.23-11.11,6.94-22.73,9.64-34.31,2.6-11.17,3.84-22.61,5.71-33.93,1.36-8.23,3.49-16.31,5.62-24.38,6.3-23.84,12.64-47.82,23-70.18C355.57,485.54,363,487.75,369.93,487.79Z" transform="translate(-28 -98.38)" fill="#e3e8f4"/><path d="M369.93,485.79c10.36.06,19.49-.64,29.82.07,1.82,3,5.67,6.46,8.14,8.93C422.05,509,432.57,527,449,538.48c3.41,2.39,7.07,4.49,10,7.42a41.62,41.62,0,0,1,5.93,8c10,16.33,17.51,34.5,30.58,48.53,11.08,11.89,17,27.75,23.54,42.64,3.92,8.91,6,18.52,9,27.79s7.13,18.5,14.25,25.14c5.42,5.06,12.59,8.68,15.8,15.35a63.89,63.89,0,0,1,2.35,6.6,33,33,0,0,0,23.58,20.79c2.91.64,1.58,5.49,1.88,8.46.41,4.06,4.08,6.94,7.66,8.89a53.67,53.67,0,0,0,17.49,5.89c3.76.57,8.2,1.13,10,4.46a7.47,7.47,0,0,1,.81,3.78c-.13,6.7-6.4,12-13,13.32s-13.34-.46-19.76-2.37a7.43,7.43,0,0,0-3.53-.47c-1.8.35-3,1.93-4.27,3.3a29.15,29.15,0,0,1-31.47,7.49c-3.48-1.36-6.78-3.43-10.5-3.78-5.74-.54-10.93,3.06-15.87,6s-11.18,5.46-16.27,2.76c-1.68-.88-3.16-2.31-5-2.54-2.77-.32-5.24,2.08-8,2-3.1-.06-5.23-3-7.3-5.3A27.06,27.06,0,0,0,470.84,784a7.56,7.56,0,0,0-3.51.1,9.88,9.88,0,0,0-3.53,2.58c-2.73,2.61-6.12,5-9.89,4.84-8.23-.29-13.12-11.92-21.31-11.12-10.68-5-23.9-2.42-35.61-1s-24.68,1.83-34.06-5.32c-4.94-3.78-8.29-9.27-12.9-13.46-7.28-6.62-17.1-9.51-26.57-12.21-15-4.28-30.58-8.6-46-6.27-2.78.42-5.57,1-8.36.73s-5.65-1.84-6.63-4.46a8.73,8.73,0,0,1-.28-4.16c1.45-11.32,12.18-19.82,13.55-31.15.69-5.62,3.71-10.54,6.93-15.19A131,131,0,0,0,290.16,675c5.33-10,10.68-20,14.7-30.56,4.23-11.11,6.94-22.73,9.64-34.31,2.6-11.17,3.84-22.61,5.71-33.93,1.36-8.23,3.49-16.31,5.62-24.38,6.3-23.84,12.64-47.82,23-70.18C355.57,483.54,363,485.75,369.93,485.79Z" transform="translate(-28 -98.38)" fill="#f4f6fb"/><path d="M279.74,531.68c-3.3,3.61-2.55,9.35-.62,13.84s4.86,8.7,5.4,13.56c.18,1.62.08,3.26.36,4.87.21,1.16.6,2.27.9,3.41a38.44,38.44,0,0,1,.84,4.38c1.06,7.12,1.78,14.3,2.16,21.5.55,10.18.41,20.39.27,30.59-.2,14.27-7,27.63-10.31,41.51a35.9,35.9,0,0,0-1.14,6.56,42.68,42.68,0,0,0,.87,8.79,144.28,144.28,0,0,1-1.75,54.78c3,2.36,5.09,6.32,4.37,10.06,6.45,1.13,13.2,2.24,19.41.19,3.75-1.23,7.12-3.57,11-4.3,3-.55,6.47-.27,8.59-2.45a9.13,9.13,0,0,0,1.84-3.5c7.32-21.3,5.27-44.49,4.86-67-.22-12.1,0-24.21-.46-36.3a281.08,281.08,0,0,0-10.08-63.72c-2.8-10-5.5-20-11-28.87a15.08,15.08,0,0,0-4.58-5.16c-2.09-1.28-4.62-1.59-7.06-1.87C288.51,532,284.84,532.26,279.74,531.68Z" transform="translate(-28 -98.38)" fill="#3f3d56"/><path d="M321.93,735.48a9.16,9.16,0,0,1-1.84,3.49c-2.12,2.19-5.6,1.9-8.59,2.46-.38.07-.76.16-1.13.26-3.41.91-6.49,2.92-9.86,4-6.22,2-13,.94-19.42-.19.72-3.74-1.37-7.71-4.37-10.07a144.23,144.23,0,0,0,1.76-54.77,42,42,0,0,1-.88-8.79,36.62,36.62,0,0,1,1.14-6.56c3.29-13.89,10.11-27.25,10.31-41.52.14-10.2.28-20.41-.26-30.59q-.59-10.8-2.17-21.5a40.72,40.72,0,0,0-.83-4.38c-.31-1.13-.7-2.25-.9-3.41-.29-1.6-.19-3.25-.37-4.87-.54-4.86-3.46-9.06-5.4-13.55a20.06,20.06,0,0,1-1.56-5.82,10,10,0,0,1,2.18-8c3.43.38,6.2.37,9.2.5,1.47.06,3,.16,4.67.35,2.44.27,5,.58,7.07,1.87a15,15,0,0,1,4.57,5.16c.54.87,1.05,1.75,1.54,2.64,4.49,8.17,6.94,17.17,9.46,26.22a281.17,281.17,0,0,1,10.08,63.72c.51,12.09.24,24.2.46,36.31C327.21,691,329.25,714.17,321.93,735.48Z" transform="translate(-28 -98.38)" opacity="0.05"/><path d="M358.8,539.52c0,1.75,0,3.51,0,5.26q-.07,25.34-.13,50.67c0,6.95,0,13.92-.72,20.83-1.77,18-8.35,35.43-7.65,53.45.5,13.09,1,26.33-1.63,39.17-1,4.92-2.46,9.76-3.18,14.73s-.64,10.21,1.33,14.84c1.42,3.31,3.81,6.44,3.68,10a9.81,9.81,0,0,1-4.73,7.48,22.48,22.48,0,0,1-8.66,2.89,66.48,66.48,0,0,1-11.53.89c-5.53-.06-11.83-1.27-14.69-6-1.92-3.18-1.77-7.22-.85-10.83.11-.42.22-.83.34-1.24.94-3.15,2.28-6.18,3-9.38a26.11,26.11,0,0,0-1.07-15.17c-.34-.9-1.41-2.6-2.37-2.49-1.53-3.95-1.76-8.27-2-12.51l-1.41-28.7c-.3-6.25-.6-12.58.68-18.7,1-5,3.13-9.76,3.73-14.83a49.07,49.07,0,0,0-.05-9.15A406.28,406.28,0,0,0,304.81,584a5.6,5.6,0,0,0-.77-2.22c-.66-.92-1.81-1.35-2.62-2.15-1.7-1.66-1.54-4.37-1.94-6.72-.72-4.24-3.53-7.76-5.7-11.46a42,42,0,0,1-5.63-19.57,41.06,41.06,0,0,1,.79-9.71c.08-.43.18-.86.28-1.29a261.53,261.53,0,0,1,65.14,4c1.57.29,3.33.74,4.06,2.16A5.41,5.41,0,0,1,358.8,539.52Z" transform="translate(-28 -98.38)" fill="#3f3d56"/><path d="M481.58,618.23c10.76,18.94,21.56,37.92,30.12,57.95,6.95,16.25,12.65,33.56,24.31,46.84,10.92,12.43,26,20.19,40.81,27.66L563.56,739c-13.31-11.75-26.9-23.83-35.35-39.44-4.6-8.5-7.52-17.79-11-26.84a246.13,246.13,0,0,0-36.63-64.64A182.38,182.38,0,0,0,466.78,592C470.17,601,476.8,609.83,481.58,618.23Z" transform="translate(-28 -98.38)" fill="#e3e8f4"/><path d="M426.69,748c3.24,6.66,6.54,13.42,11.48,18.94.42-3.3-1.84-6.26-3.63-9.06-3.24-5.09-5.21-10.82-7.18-16.49-1.82-5.25-3.51-12.49-7.38-16.64C418,731.87,423.69,741.88,426.69,748Z" transform="translate(-28 -98.38)" fill="#e3e8f4"/><path d="M389.18,623.26c.94,5,1.49,10,2.75,14.89a106.19,106.19,0,0,0,4.55,12.9l21.08,52.54c-.18-7.14-4-13.6-6.43-20.3-3-8.23-4.08-17-6.53-25.46-2-6.86-4.9-13.41-7-20.24-2.92-9.63-4.15-19.69-6.44-29.49a215.66,215.66,0,0,0-7.73-25c-1.4-3.86-3-7.87-6.09-10.54s-8.27-3.43-11.19-.54c-4.11,4.07,2.12,6.62,4.17,9.27a99.42,99.42,0,0,1,18.84,42Z" transform="translate(-28 -98.38)" fill="#e3e8f4"/><path d="M417.47,514.72a19.16,19.16,0,0,1,2.9,3.76c1.13,2.08,1.58,4.51,3,6.44a62.91,62.91,0,0,0-8.52-9.68c-1.92-1.65-4-3.07-5.93-4.72-1.47-1.26-7.91-6.72-6.63-8.58C407.93,504.81,413.18,510.09,417.47,514.72Z" transform="translate(-28 -98.38)" fill="#e3e8f4"/><path d="M350.55,326.84c-.23,2.07-1.5,3.86-2.59,5.64a36.09,36.09,0,0,0-5.15,17.45,35,35,0,0,0,.24,5.41c.08.67.1,1.51-.48,1.86a1.68,1.68,0,0,1-1,.13c-.68-.06-1.34-.14-2-.25-10.69-1.71-20.05-9-30.81-10.84a5.14,5.14,0,0,0,2.75-3.25,14.62,14.62,0,0,0,.65-2.48c.16-.89.28-1.78.37-2.65.68-6.44-.3-12.36-.66-18.9-.41-7.62,9-5.11,14.52-5.21,4.43-.08,8.94-.15,13.22,1.05s8.35,3.85,10.19,7.89A8,8,0,0,1,350.55,326.84Z" transform="translate(-28 -98.38)" fill="#cb8c8e"/><path d="M342.57,357.2a1.68,1.68,0,0,1-1,.13c-.68-.06-1.34-.14-2-.25-.92-.86-1.81-1.76-2.66-2.7-2-2.22-3.8-4.66-6.12-6.55a21.24,21.24,0,0,0-12.5-4.46,41.12,41.12,0,0,1-6.78-.38,14.62,14.62,0,0,0,.65-2.48c.16-.89.28-1.78.37-2.65a33.54,33.54,0,0,1,3.78-.27,18.17,18.17,0,0,1,4.48-.09c2.47.37,4.65,1.75,6.87,2.9,3.07,1.59,6.36,2.79,9.21,4.76.88.62,1.72,1.3,2.56,2,1.14.93,2.27,1.87,3.41,2.79a35,35,0,0,0,.24,5.41C343.13,356,343.15,356.85,342.57,357.2Z" transform="translate(-28 -98.38)" fill="#e3e8f4"/><path d="M358.8,539.52c0,1.75,0,3.51,0,5.26-4.16.12-8.41.73-12.55,1-3.89.28-7.79.29-11.69.24a33.94,33.94,0,0,1-9.06-1c-2.13-.62-4.13-1.64-6.25-2.28-4-1.23-8.22-1.08-12.45-.58-3.44.4-6.91,1-10.34,1.31a13.88,13.88,0,0,1-6.6-.68,12.24,12.24,0,0,1-1.7-.94,23.2,23.2,0,0,0-2.64-1.53c-2.46-1.1-5.2-.92-7.95-.66a10,10,0,0,1,2.18-8c3.43.38,6.2.37,9.2.5.08-.43.18-.86.28-1.29a261.53,261.53,0,0,1,65.14,4c1.57.29,3.33.74,4.06,2.16A5.41,5.41,0,0,1,358.8,539.52Z" transform="translate(-28 -98.38)" opacity="0.1"/><path d="M313.42,341.42c-2.17.26-4.49.81-5.89,2.48a3,3,0,0,0-.75,1.61,13.47,13.47,0,0,0,.54,2.76,6.45,6.45,0,0,1-.92,3.44c-1.45,3-3,6.06-5.44,8.31-1,.93-2.14,1.7-3.15,2.61a27.87,27.87,0,0,0-3.15,3.54c-2.11,2.64-4.28,5.41-5.05,8.7-1.35,5.71-4.16,11.1-6,16.68s-3,11.52-2,17.3c.47,2.74,1.42,5.37,2.08,8.07,1.06,4.33,1.36,8.81,2.48,13.12.71,2.69,1.73,5.29,2.5,8A43.58,43.58,0,0,1,290,455.93c-.75,5.47.51,11.29-1.7,16.34a61.65,61.65,0,0,1-3,5.44,75.93,75.93,0,0,0-3.77,8l-6.17,14.56a84.56,84.56,0,0,0-3.23,8.4c-2.57,8.36-2.58,17.27-2.22,26a1.1,1.1,0,0,1-.17.78c-.19.2-.62.14-.63-.13-.08.5-.4,1.37-.47,1.87,5.25,2.28,11.71-1.17,16.94,1.16,1.52.68,2.81,1.81,4.34,2.47a13.76,13.76,0,0,0,6.6.69c7.63-.63,15.46-3,22.78-.74,2.13.65,4.12,1.67,6.25,2.29a34.05,34.05,0,0,0,9.07,1c3.9.06,7.8.05,11.69-.24,8.37-.61,17.16-2.44,24.87.88,2.49-1.83,2.68-4.67,2.78-7.75q.28-8.7.56-17.39l2.07-63.95a64,64,0,0,0-.49-13.2c-1.41-7.92-5.74-15-10-21.79l-19.89-32c-1.32-2.12,0-4.49.91-6.82a44.16,44.16,0,0,0,2.56-10.38c.32-2.61.3-5.55-1.47-7.49-1-1.09-2.41-1.7-3.55-2.64C343,359.93,342,358,341,356.18A33,33,0,0,0,329.31,344C324.4,341.15,319.06,340.75,313.42,341.42Z" transform="translate(-28 -98.38)" fill="#3f3d56"/><path d="M333.94,370.44c-7.07,1.95-11.45,9.13-13.39,16.2-2.72,9.89-2.06,20.46.34,30.42s6.5,19.43,10.65,28.8a69.18,69.18,0,0,0,3.28,6.7,32.09,32.09,0,0,0,14.68,13.33,27.12,27.12,0,0,0,19.67.87,11.56,11.56,0,0,0,3.3-1.68c3.54-2.72,4.09-7.76,4.35-12.22l.89-15.63a7.87,7.87,0,0,0-.12-2.47,9,9,0,0,0-1.81-3,37.38,37.38,0,0,1-6.4-12.72c-.91-3.23-1.39-6.6-2.79-9.65-.84-1.84-2-3.52-2.91-5.33-2-3.9-2.71-8.27-3.65-12.53q-1.23-5.58-2.94-11.05a18.62,18.62,0,0,0-2.55-5.67c-2.75-3.72-7.63-5.06-12.15-6a14,14,0,0,0-6.58-.32c-2.46.67-4.37,2.57-6.15,4.39" transform="translate(-28 -98.38)" opacity="0.1"/><path d="M334.94,369.44c-7.07,1.95-11.45,9.13-13.39,16.2-2.72,9.89-2.06,20.46.34,30.42s6.5,19.43,10.65,28.8a69.18,69.18,0,0,0,3.28,6.7,32.09,32.09,0,0,0,14.68,13.33,27.12,27.12,0,0,0,19.67.87,11.56,11.56,0,0,0,3.3-1.68c3.54-2.72,4.09-7.76,4.35-12.22l.89-15.63a7.87,7.87,0,0,0-.12-2.47,9,9,0,0,0-1.81-3,37.38,37.38,0,0,1-6.4-12.72c-.91-3.23-1.39-6.6-2.79-9.65-.84-1.84-2-3.52-2.91-5.33-2-3.9-2.71-8.27-3.65-12.53q-1.23-5.58-2.94-11.05a18.62,18.62,0,0,0-2.55-5.67c-2.75-3.72-7.63-5.06-12.15-6a14,14,0,0,0-6.58-.32c-2.46.67-4.37,2.57-6.15,4.39" transform="translate(-28 -98.38)" fill="#3f3d56"/><path d="M403.92,411.18a23.55,23.55,0,0,1-1.32-16.91c3.92,1,5,6.78,9,7.81.59.15,1.22.18,1.82.31,2.8.57,4.78,3,6.23,5.5a29.59,29.59,0,0,1,4.16,12.64,21.17,21.17,0,0,1-3,12.85c.1-.15-7-7.43-7.6-8.18q-1.87-2.19-3.66-4.47a32.06,32.06,0,0,1-3.37-4.53c-.34-.64-.41-1.38-.71-2.06C405,413.13,404.41,412.17,403.92,411.18Z" transform="translate(-28 -98.38)" fill="#cb8c8e"/><path d="M385.69,470a43.69,43.69,0,0,1-12.43,25.37c-1.53,1.51-3.44,3-5.58,2.79-2.31-.24-3.9-2.34-5.55-4-3-3-7-4.79-10.33-7.41a52.67,52.67,0,0,1-4.88-4.57c-4.9-5-9.83-10-13.74-15.83-2.21-3.28-4.1-6.8-6.72-9.76-2.07-2.35-4.56-4.29-6.74-6.53s-4.1-4.92-4.62-8c-.55-3.26-4-5.38-6.17-7.88A27.76,27.76,0,0,1,302.88,411c.35-1.74,1.08-3.69,2.76-4.29a4.47,4.47,0,0,1,2.06-.13c4.22.59,7.35,4.09,10.08,7.37a61.64,61.64,0,0,1,5.15,6.8c3.33,5.41,4.86,11.71,6.34,17.89.87,3.61,4.47,6.28,7.06,8.94l6.5,6.67c1.55,1.59,3.1,3.19,4.8,4.62,4.65,3.94,10.23,6.58,15.8,9a20.05,20.05,0,0,1,2.2-5.12,6.65,6.65,0,0,1,4.48-3c2.58-.33,4.94,1.38,7,3l7.65,6C385.19,469.1,385.75,469.48,385.69,470Z" transform="translate(-28 -98.38)" fill="#fbbebe"/><path d="M397.86,410.32a11.06,11.06,0,0,1,2.19,3.46,22.72,22.72,0,0,1,2.23,11.29,33.73,33.73,0,0,1-1.38,6.17l-2.38,8.19c-3.7,12.7-7.41,25.43-12.41,37.68-4.11-5.33-11.3-6.94-17.14-10.27a4.83,4.83,0,0,1-1.51-1.17,4.3,4.3,0,0,1-.75-2.56,19.13,19.13,0,0,1,1.58-7.14c3.64-9.77,8.69-19.31,9.28-29.71a55.9,55.9,0,0,1,.37-5.79,16.42,16.42,0,0,1,7.7-11.1C389,407.19,394.88,407.4,397.86,410.32Z" transform="translate(-28 -98.38)" opacity="0.1"/><path d="M396.86,408a11.17,11.17,0,0,1,2.19,3.46,22.72,22.72,0,0,1,2.23,11.29A33.55,33.55,0,0,1,399.9,429l-2.38,8.19c-3.7,12.7-7.41,25.43-12.41,37.68-4.11-5.32-11.3-6.94-17.14-10.27a4.8,4.8,0,0,1-1.51-1.16,4.35,4.35,0,0,1-.75-2.56,19.14,19.14,0,0,1,1.58-7.15c3.64-9.77,8.69-19.3,9.28-29.71a55.53,55.53,0,0,1,.37-5.78,16.41,16.41,0,0,1,7.7-11.11C388,404.9,393.88,405.11,396.86,408Z" transform="translate(-28 -98.38)" fill="#f4f6fb"/><path d="M373.69,354.85c2,2.13,2.56,5.21,2.89,8.12.86,7.52.88,15.28-1.46,22.48s-7.3,13.79-14.25,16.78c9.68,1.57,21.18,2.55,27.74-4.75,1.28-1.42,2.32-3.13,3.95-4.16,6.95-4.38,15.77,7.17,23.31,3.89,5-2.16,5.36-8.92,5-14.32l-1.37-20c-.7-10.21-1.59-21-7.44-29.36-5.28-7.57-13.93-12.12-22.72-15-6.32-2-13.36-3.31-19.51-.78-7.85,3.22-23,16.08-22.91,25.59C347.09,357.47,367.09,347.87,373.69,354.85Z" transform="translate(-28 -98.38)" fill="#3f3d56"/><path d="M379.65,432.92a10,10,0,0,0,3.32-.43c1.7-.63,3-2.21,4.83-2.47.92-.13,2.1,0,2.5-.87a3.46,3.46,0,0,0,.13-1.25c.14-2.43,3.19-3.27,5.25-4.57a15.37,15.37,0,0,0,3.41-3.28l7.1-8.39a5.32,5.32,0,0,1,2.7-2.05,4.82,4.82,0,0,1,3.51,1,27.43,27.43,0,0,1,12.12,25.44A4.31,4.31,0,0,1,424,438c-1.11,1.74-3.72,1.32-5.69,1.94-3.77,1.18-4.92,6.07-8.15,8.34-1.45,1-3.24,1.43-4.65,2.47s-2.49,2.86-3.77,4.27c-2,2.26-4.85,3.65-7.59,5l-8.37,4.08a32.87,32.87,0,0,1-5.13,2.14,32.32,32.32,0,0,1-9.32.79l-6.13-.08a3.61,3.61,0,0,1-2-.4,3.35,3.35,0,0,1-.89-1c-3.15-4.73-3.79-10.84-2.67-16.41.93-4.62,3.12-11,6.41-14.51C368.91,431.61,375.69,433,379.65,432.92Z" transform="translate(-28 -98.38)" fill="#3f3d56"/><path d="M355.17,303.35a4.55,4.55,0,0,1,2.31-4.86l7.6-5.71-1.56-2.27,2.93-2.51a2.13,2.13,0,0,0-2.16-.84c.46-3.09-2.18-5.7-4.69-7.54-5.11-3.74-11-6.85-17.26-7.27-3.07-.2-6.15.24-9.22,0-4.14-.26-8.16-1.66-12.31-1.82S312,272,310.26,275.73c-.74,1.62-.84,3.45-1.4,5.14-1.25,3.74-4.55,6.33-7.36,9.1s-5.42,6.48-4.64,10.34a13.62,13.62,0,0,0,1.43,3.55l15.5,29.93A6.89,6.89,0,0,1,319,330.2c2.55-.3,5,.84,7.58,1.16a12,12,0,0,0,10.31-4c3.42-3.94,4.25-14,10.19-15,2.1-.36,5.46,2.29,7.29,1.24C356.52,312.42,355.21,305.57,355.17,303.35Z" transform="translate(-28 -98.38)" fill="#3f3d56"/><g opacity="0.1"><path d="M366.87,399.17c6.95-3,11.9-9.6,14.25-16.79s2.32-15,1.46-22.48c-.33-2.9-.88-6-2.89-8.12-6.6-7-26.6,2.62-26.78-11.44-.11-8.11,10.92-18.65,19-23.58a18.34,18.34,0,0,0-2.13.71c-7.85,3.22-23,16.09-22.91,25.59.18,14.06,20.18,4.47,26.78,11.45,2,2.12,2.56,5.21,2.89,8.12.86,7.51.88,15.28-1.46,22.47s-7.3,13.8-14.25,16.79c8.54,1.38,18.49,2.3,25.22-2.51C380.14,400.93,373.13,400.18,366.87,399.17Z" transform="translate(-28 -98.38)"/><path d="M398.56,390.25a8.88,8.88,0,0,0-1.93,1.74c6.13.4,13.1,7.54,19.24,4.87a6.9,6.9,0,0,0,2.72-2.14C411.87,394.46,404.53,386.49,398.56,390.25Z" transform="translate(-28 -98.38)"/></g><g opacity="0.1"><path d="M363.57,283.29c-.15-.22-.31-.44-.47-.65a5.6,5.6,0,0,1-.05.69A2.24,2.24,0,0,1,363.57,283.29Z" transform="translate(-28 -98.38)"/><path d="M366.71,288a2.13,2.13,0,0,0-2.16-.84,4.85,4.85,0,0,0-.2-2.25l-2.07,1.77,1.56,2.26-7.6,5.72a4.55,4.55,0,0,0-2.31,4.86c0,2.22,1.35,9.07-.81,10.3-1.82,1.05-5.19-1.6-7.28-1.24-5.94,1-6.77,11-10.19,15a12,12,0,0,1-10.31,4c-2.55-.31-5-1.45-7.58-1.15a6.93,6.93,0,0,0-5.22,3.59q-7.73-14.94-15.46-29.87l0,.22a14,14,0,0,0,1.44,3.55L314,333.79a6.93,6.93,0,0,1,5.22-3.59c2.55-.3,5,.84,7.58,1.16a12,12,0,0,0,10.31-4c3.42-3.94,4.25-14,10.19-15,2.09-.36,5.46,2.29,7.28,1.24,2.16-1.23.85-8.08.81-10.3a6.09,6.09,0,0,1,.44-3,6,6,0,0,1,1.87-1.89l7.6-5.71-1.56-2.27Z" transform="translate(-28 -98.38)"/></g><path d="M279.06,505.11c-1,4.27-1.63,8.63-3,12.8-.6,1.88-1.34,3.71-1.93,5.59-.53,1.71-.93,3.44-1.34,5.18l-1.63,7a3.19,3.19,0,0,0,2.48-1.4,9.47,9.47,0,0,0,1.23-2.68l2.73-8.12,2-6c2.84-8.45,5.69-16.92,7.85-25.58.54-2.14,1-4.28,1.47-6.44.18-.83,1.49-5.46.15-5.07-.95.27-2.56,4.49-3,5.41-1,1.84-1.82,3.72-2.63,5.63A83.29,83.29,0,0,0,279.06,505.11Z" transform="translate(-28 -98.38)" opacity="0.1"/><path d="M331.22,393.13s-4.52-1.63-5.63.31c0,0,8.22,3,9.88,7.32,0,0,2.12-2.18-.78-4.95l-.54-4.06Z" transform="translate(-28 -98.38)" fill="#00a66c"/><path d="M338.72,387s.25-2.06-.79-2.28-8.08.19-6.95,8,9.27,4.88,9.27,4.88l3.57-4.16s.76-5.51-4.24-6.84Z" transform="translate(-28 -98.38)" fill="#6c63ff"/><path d="M333.05,382.76s-6.14,3.1-3.16,10.89l2.31-1.34S335.09,385.55,333.05,382.76Z" transform="translate(-28 -98.38)" opacity="0.1"/><path d="M332.83,382.6s-6.13,3.1-3.15,10.89l1.79,1.05S334.88,385.39,332.83,382.6Z" transform="translate(-28 -98.38)" fill="#6c63ff"/><path d="M342.85,390.6a5.32,5.32,0,0,0,1.88,2.72c1.44,1-1.43,3.31-1.43,3.31s-3.88,4.41-7.55,2.26c-2.19-3.69-.54-4.2-.54-4.2S339.79,389.66,342.85,390.6Z" transform="translate(-28 -98.38)" opacity="0.1"/><path d="M343,390.81a5.32,5.32,0,0,0,1.88,2.72c1.43,1-1.44,3.31-1.44,3.31s-3.87,4.41-7.55,2.26-.54-4.19-.54-4.19S339.89,389.87,343,390.81Z" transform="translate(-28 -98.38)" fill="#6c63ff"/><path d="M329.08,382.7s-4.54,1.58-4.18,3.79c0,0,8.28-2.84,12.29-.53,0,0,.27-3-3.72-3.36l-3-2.82Z" transform="translate(-28 -98.38)" fill="#5f3839"/><path d="M331,373.19s-1.1-1.76-2-1.28-6.15,5.23-.38,10.57,10.28-2,10.28-2L339,375s-2.88-4.76-7.6-2.64Z" transform="translate(-28 -98.38)" fill="#6c63ff"/><path d="M324,373.49s-2.82,6.27,4.41,10.45l.95-2.49S327.32,374.38,324,373.49Z" transform="translate(-28 -98.38)" opacity="0.1"/><path d="M323.7,373.5s-2.81,6.27,4.41,10.45l2.05-.31S327.05,374.38,323.7,373.5Z" transform="translate(-28 -98.38)" fill="#6c63ff"/><path d="M336.52,373.41a5.36,5.36,0,0,0,3.18.94c1.76-.11,1,3.47,1,3.47s-.24,5.87-4.45,6.51c-4-1.49-3.06-2.92-3.06-2.92S333.55,374.61,336.52,373.41Z" transform="translate(-28 -98.38)" opacity="0.1"/><path d="M336.74,373.51a5.33,5.33,0,0,0,3.18.94c1.76-.11,1,3.47,1,3.47s-.23,5.87-4.44,6.51-3.06-2.92-3.06-2.92S333.77,374.71,336.74,373.51Z" transform="translate(-28 -98.38)" fill="#6c63ff"/><path d="M313.65,384.57s1.44-1.26,2.23.4l-.67,3.72-4.13,36.84-2.64,4.83Z" transform="translate(-28 -98.38)" fill="#00a66c"/><polygon points="297.89 277.62 280.59 333.82 282.16 334.69 299.32 277.99 297.89 277.62" fill="#00a66c"/><path d="M321.16,401.48S317.28,416.15,313,422s-3.47,10.7-3.47,10.7l1.4.43,11.5-30.63Z" transform="translate(-28 -98.38)" fill="#00a66c"/><polygon points="307.3 290.19 282.62 333.17 283.8 333.81 309.25 290.5 307.3 290.19" fill="#00a66c"/><polygon points="312.75 301.54 282.01 333.58 282.93 334.77 314.06 302.26 312.75 301.54" fill="#00a66c"/><path d="M342.72,402.3s-.41-1.8-1.79-1.46-28.55,30.51-28.55,30.51l1.15.9Z" transform="translate(-28 -98.38)" fill="#00a66c"/><path d="M312.32,382.63s-4.64,1.26-4.42,3.49c0,0,8.45-2.26,12.29.32,0,0,.48-3-3.48-3.61l-2.78-3Z" transform="translate(-28 -98.38)" fill="#00a66c"/><path d="M314.92,373.27s-1-1.83-1.95-1.41-6.5,4.79-1.12,10.51,10.4-1.32,10.4-1.32l.53-5.46s-2.54-4.94-7.4-3.16Z" transform="translate(-28 -98.38)" fill="#6c63ff"/><path d="M307.87,373.09s-3.25,6.06,3.67,10.73l1.12-2.42S311.14,374.2,307.87,373.09Z" transform="translate(-28 -98.38)" opacity="0.1"/><path d="M307.6,373.08s-3.25,6.06,3.67,10.73l2.07-.16S310.88,374.19,307.6,373.08Z" transform="translate(-28 -98.38)" fill="#6c63ff"/><path d="M320.39,373.88A5.35,5.35,0,0,0,323.5,375c1.76,0,.72,3.53.72,3.53s-.64,5.84-4.88,6.19c-3.91-1.76-2.85-3.13-2.85-3.13S317.35,374.87,320.39,373.88Z" transform="translate(-28 -98.38)" opacity="0.1"/><path d="M320.6,374a5.4,5.4,0,0,0,3.11,1.16c1.76,0,.72,3.53.72,3.53s-.64,5.83-4.88,6.18-2.85-3.12-2.85-3.12S317.56,375,320.6,374Z" transform="translate(-28 -98.38)" fill="#6c63ff"/><path d="M324.15,374s-4.64,1.26-4.43,3.49c0,0,8.45-2.26,12.29.31,0,0,.49-3-3.48-3.6l-2.78-3Z" transform="translate(-28 -98.38)" fill="#00a66c"/><path d="M326.74,364.66s-1-1.83-1.95-1.41-6.5,4.79-1.12,10.51,10.4-1.32,10.4-1.32l.53-5.46s-2.54-4.94-7.4-3.16Z" transform="translate(-28 -98.38)" fill="#6c63ff"/><path d="M319.69,364.48s-3.25,6.06,3.67,10.73l1.12-2.42S323,365.59,319.69,364.48Z" transform="translate(-28 -98.38)" opacity="0.1"/><path d="M319.42,364.47s-3.24,6.06,3.67,10.73l2.07-.17S322.7,365.58,319.42,364.47Z" transform="translate(-28 -98.38)" fill="#6c63ff"/><path d="M332.22,365.27a5.31,5.31,0,0,0,3.1,1.15c1.76,0,.72,3.53.72,3.53s-.64,5.84-4.88,6.19c-3.9-1.77-2.85-3.13-2.85-3.13S329.17,366.26,332.22,365.27Z" transform="translate(-28 -98.38)" opacity="0.1"/><path d="M332.43,365.38a5.31,5.31,0,0,0,3.1,1.15c1.76,0,.72,3.53.72,3.53s-.64,5.84-4.88,6.19-2.85-3.13-2.85-3.13S329.38,366.37,332.43,365.38Z" transform="translate(-28 -98.38)" fill="#6c63ff"/><path d="M334.14,386s-4.52-1.63-5.63.31c0,0,8.22,3,9.89,7.32,0,0,2.12-2.18-.78-4.95l-.54-4.06Z" transform="translate(-28 -98.38)" fill="#00a66c"/><path d="M341.64,379.84s.25-2.06-.79-2.28-8.07.19-7,8,9.28,4.88,9.28,4.88l3.57-4.16s.75-5.51-4.25-6.84Z" transform="translate(-28 -98.38)" fill="#6c63ff"/><path d="M336,375.64s-6.14,3.1-3.15,10.89l2.3-1.34S338,378.43,336,375.64Z" transform="translate(-28 -98.38)" opacity="0.1"/><path d="M335.76,375.48s-6.14,3.1-3.16,10.89l1.79,1.05S337.8,378.27,335.76,375.48Z" transform="translate(-28 -98.38)" fill="#6c63ff"/><path d="M345.77,383.48a5.4,5.4,0,0,0,1.88,2.72c1.44,1-1.43,3.31-1.43,3.31s-3.88,4.41-7.55,2.26c-2.18-3.68-.54-4.2-.54-4.2S342.71,382.54,345.77,383.48Z" transform="translate(-28 -98.38)" opacity="0.1"/><path d="M345.88,383.69a5.37,5.37,0,0,0,1.88,2.73c1.44,1-1.43,3.3-1.43,3.3s-3.88,4.41-7.55,2.27-.54-4.2-.54-4.2S342.82,382.75,345.88,383.69Z" transform="translate(-28 -98.38)" fill="#6c63ff"/><path d="M341.39,398.25s-4.52-1.63-5.62.32c0,0,8.21,3,9.88,7.32,0,0,2.12-2.19-.78-4.95l-.54-4.07Z" transform="translate(-28 -98.38)" fill="#00a66c"/><path d="M348.89,392.08s.25-2.06-.79-2.27-8.07.18-6.94,8,9.27,4.89,9.27,4.89l3.57-4.17s.75-5.5-4.25-6.83Z" transform="translate(-28 -98.38)" fill="#6c63ff"/><path d="M343.22,387.88s-6.14,3.1-3.15,10.9l2.3-1.34S345.27,390.67,343.22,387.88Z" transform="translate(-28 -98.38)" opacity="0.1"/><path d="M343,387.72s-6.14,3.1-3.16,10.89l1.79,1.05S345.05,390.51,343,387.72Z" transform="translate(-28 -98.38)" fill="#6c63ff"/><path d="M353,395.72a5.39,5.39,0,0,0,1.87,2.73c1.44,1-1.43,3.3-1.43,3.3s-3.88,4.41-7.55,2.27c-2.18-3.69-.54-4.2-.54-4.2S350,394.78,353,395.72Z" transform="translate(-28 -98.38)" opacity="0.1"/><path d="M353.13,395.94a5.32,5.32,0,0,0,1.88,2.72c1.44,1-1.43,3.31-1.43,3.31s-3.88,4.41-7.55,2.26-.54-4.2-.54-4.2S350.07,395,353.13,395.94Z" transform="translate(-28 -98.38)" fill="#6c63ff"/><path d="M342.31,402.36s-4.52-1.63-5.63.32c0,0,8.22,3,9.88,7.32,0,0,2.13-2.19-.77-4.95l-.55-4.07Z" transform="translate(-28 -98.38)" fill="#00a66c"/><path d="M349.81,396.19s.25-2.05-.79-2.27-8.07.18-6.95,8,9.27,4.89,9.27,4.89l3.57-4.16s.76-5.51-4.24-6.84Z" transform="translate(-28 -98.38)" fill="#6c63ff"/><path d="M344.14,392S338,395.09,341,402.89l2.31-1.34S346.18,394.78,344.14,392Z" transform="translate(-28 -98.38)" opacity="0.1"/><path d="M343.92,391.83s-6.13,3.1-3.15,10.89l1.79,1.06S346,394.62,343.92,391.83Z" transform="translate(-28 -98.38)" fill="#6c63ff"/><path d="M353.94,399.83a5.37,5.37,0,0,0,1.88,2.73c1.44,1-1.43,3.3-1.43,3.3s-3.88,4.42-7.55,2.27c-2.19-3.69-.54-4.2-.54-4.2S350.88,398.89,353.94,399.83Z" transform="translate(-28 -98.38)" opacity="0.1"/><path d="M354.05,400.05a5.32,5.32,0,0,0,1.88,2.72c1.44,1-1.44,3.31-1.44,3.31s-3.87,4.41-7.54,2.26-.55-4.2-.55-4.2S351,399.11,354.05,400.05Z" transform="translate(-28 -98.38)" fill="#6c63ff"/><path d="M320.29,399.68s-4.52-1.64-5.63.31c0,0,8.22,3,9.88,7.32,0,0,2.12-2.18-.78-4.95l-.54-4.07Z" transform="translate(-28 -98.38)" fill="#00a66c"/><path d="M327.79,393.5s.25-2.05-.79-2.27-8.08.19-6.95,8,9.27,4.89,9.27,4.89l3.57-4.16s.76-5.51-4.24-6.84Z" transform="translate(-28 -98.38)" fill="#6c63ff"/><path d="M322.12,389.31S316,392.41,319,400.2l2.31-1.34S324.16,392.1,322.12,389.31Z" transform="translate(-28 -98.38)" opacity="0.1"/><path d="M321.9,389.15s-6.13,3.09-3.15,10.89l1.79,1S324,391.94,321.9,389.15Z" transform="translate(-28 -98.38)" fill="#6c63ff"/><path d="M331.92,397.14a5.33,5.33,0,0,0,1.88,2.73c1.44,1-1.43,3.31-1.43,3.31s-3.88,4.41-7.55,2.26c-2.19-3.69-.54-4.2-.54-4.2S328.86,396.2,331.92,397.14Z" transform="translate(-28 -98.38)" opacity="0.1"/><path d="M332,397.36a5.32,5.32,0,0,0,1.88,2.72c1.43,1-1.44,3.31-1.44,3.31s-3.87,4.41-7.55,2.26-.54-4.2-.54-4.2S329,396.42,332,397.36Z" transform="translate(-28 -98.38)" fill="#6c63ff"/><path d="M322.76,386.21s-4.53-1.64-5.63.31c0,0,8.22,3,9.88,7.32,0,0,2.12-2.18-.78-4.95l-.54-4.07Z" transform="translate(-28 -98.38)" fill="#00a66c"/><path d="M330.26,380s.25-2-.79-2.27-8.08.19-7,8,9.27,4.89,9.27,4.89l3.57-4.16s.75-5.51-4.25-6.84Z" transform="translate(-28 -98.38)" fill="#6c63ff"/><path d="M324.58,375.84s-6.13,3.09-3.15,10.89l2.31-1.34S326.63,378.63,324.58,375.84Z" transform="translate(-28 -98.38)" opacity="0.1"/><path d="M324.37,375.68s-6.14,3.09-3.15,10.89l1.78,1.05S326.42,378.47,324.37,375.68Z" transform="translate(-28 -98.38)" fill="#6c63ff"/><path d="M334.39,383.67a5.37,5.37,0,0,0,1.88,2.73c1.44,1-1.43,3.31-1.43,3.31s-3.88,4.41-7.55,2.26c-2.19-3.69-.54-4.2-.54-4.2S331.32,382.73,334.39,383.67Z" transform="translate(-28 -98.38)" opacity="0.1"/><path d="M334.49,383.89a5.32,5.32,0,0,0,1.88,2.72c1.44,1-1.43,3.31-1.43,3.31s-3.88,4.41-7.55,2.26-.54-4.2-.54-4.2S331.43,383,334.49,383.89Z" transform="translate(-28 -98.38)" fill="#6c63ff"/><path d="M307.7,406.58s12.39,1.37,19.12,22.92-14.44,5.43-14.44,5.43-5.58,1.12-6.45-10.13S307.7,406.58,307.7,406.58Z" transform="translate(-28 -98.38)" fill="#fbbebe"/><rect x="305.58" y="422.97" width="4.62" height="1.37" rx="0.69" ry="0.69" transform="translate(-173.35 62.87) rotate(-23.92)" fill="#e3e8f4"/><path d="M256.69,342.52l-2-1.82c-7.18-6.6-11.93-10.88-11.93-16.22a7.59,7.59,0,0,1,7.68-7.72,8.25,8.25,0,0,1,6.28,2.95,8.22,8.22,0,0,1,6.28-2.95,7.59,7.59,0,0,1,7.67,7.72c0,5.34-4.74,9.62-11.93,16.22Z" transform="translate(-28 -98.38)" fill="#6c63ff" opacity="0.1"/><path d="M228.78,229.06l-2-1.83c-7.19-6.59-11.94-10.88-11.94-16.21a7.59,7.59,0,0,1,7.68-7.72,8.25,8.25,0,0,1,6.28,2.95,8.24,8.24,0,0,1,6.28-2.95,7.59,7.59,0,0,1,7.67,7.72c0,5.33-4.74,9.62-11.93,16.21Z" transform="translate(-28 -98.38)" fill="#6c63ff" opacity="0.1"/><path d="M438.22,283.45l-2-1.83c-7.19-6.59-11.93-10.88-11.93-16.21a7.59,7.59,0,0,1,7.67-7.72,8.24,8.24,0,0,1,6.28,2.95,8.25,8.25,0,0,1,6.28-2.95,7.59,7.59,0,0,1,7.68,7.72c0,5.33-4.75,9.62-11.93,16.21Z" transform="translate(-28 -98.38)" fill="#6c63ff" opacity="0.1"/><path d="M851.93,269.83c-4-5.44-12.27.46-8.53,6.09,1,1.47,2.05,2.9,3.06,4.26,12.32,16.63,18.7,36.82,24.2,56.77,1.34,4.9,2.65,10.13,1.11,15,2.2-13,.77-26.35-2.55-39.08s-8.49-24.89-13.83-36.9A33.11,33.11,0,0,0,851.93,269.83Z" transform="translate(-28 -98.38)" fill="#6c63ff" opacity="0.5"/><path d="M772,304.8c-8.31-.25-9.36,12.35-1.09,13,2.17.17,4.36.22,6.44.28,25.44.69,49.5,9.92,72.61,19.84,5.68,2.43,11.63,5.16,15,10.37-10.42-12.08-24.14-20.93-38.74-27.44s-30.14-10.77-45.68-14.76A39.56,39.56,0,0,0,772,304.8Z" transform="translate(-28 -98.38)" fill="#6c63ff"/><path d="M774.32,335.77c-5.24.2-4.06,7.65,1.22,7.7,1.38,0,2.76-.05,4.08-.11,16-.65,32.48,3.78,48.42,8.65,3.91,1.19,8.05,2.55,10.89,5.48-8.3-6.67-18.2-11.31-28.3-14.53s-20.47-5.08-30.8-6.77A28.25,28.25,0,0,0,774.32,335.77Z" transform="translate(-28 -98.38)" fill="#6c63ff" opacity="0.2"/><path d="M881.69,474.38c1.49,5,8.41,2,7.15-3.09-.33-1.34-.74-2.66-1.12-3.92-4.61-15.39-4.39-32.4-3.63-49.05.18-4.09.47-8.43,2.6-11.91-4.4,9.7-6.44,20.43-7.05,31s.16,21.09,1.08,31.51A28,28,0,0,0,881.69,474.38Z" transform="translate(-28 -98.38)" fill="#6c63ff" opacity="0.5"/><path d="M783.88,262.84c-3.16-.55-3.4,4.05-.25,4.75.83.18,1.66.32,2.45.46,9.67,1.65,18.92,6.38,27.82,11.31,2.19,1.21,4.48,2.55,5.81,4.66a53.15,53.15,0,0,0-15.06-12.27,130.67,130.67,0,0,0-17.53-8A16.51,16.51,0,0,0,783.88,262.84Z" transform="translate(-28 -98.38)" fill="#6c63ff" opacity="0.2"/><path d="M735.12,384.76c-8,4.13-1.24,15.45,7,11.69,2.15-1,4.26-2.08,6.26-3.13,24.49-12.7,52.94-17.37,80.91-21,6.87-.88,14.19-1.65,20.54,1.07-17.31-4.89-35.74-5.29-53.56-3.22s-35.15,6.54-52.31,11.25A46.88,46.88,0,0,0,735.12,384.76Z" transform="translate(-28 -98.38)" fill="#6c63ff"/><path d="M758,428.83c-5.76,5.37,3.23,11.72,9.27,6.56,1.58-1.35,3.09-2.78,4.53-4.13,17.55-16.47,40.74-28.2,63.83-39,5.67-2.65,29-5.36,35.22-5.21-16.26,1.45-49.49,6.53-64.26,13.25s-28.45,15.05-41.92,23.52A44.88,44.88,0,0,0,758,428.83Z" transform="translate(-28 -98.38)" fill="#6c63ff" opacity="0.5"/><path d="M799.09,499.18c-1.68,7.68,9.32,7.79,11.36.11.53-2,1-4,1.37-6C816.9,469.8,829.31,447,842.17,425c3.15-5.4,20.81-20.89,26-24.31-12.56,10.45-37,33.52-45.34,47.44S808,476.63,801.73,491.25A45.83,45.83,0,0,0,799.09,499.18Z" transform="translate(-28 -98.38)" fill="#6c63ff"/><path d="M881.78,229.12c-3.92-8-15.13-1.42-11.57,6.78.93,2.15,2,4.25,3,6.25,12.08,24.43,16.23,52.69,19.33,80.46.77,6.82,1.41,14.08-1.35,20.35,5.06-17.1,5.73-35.37,4-53s-5.88-34.93-10.24-52A46.72,46.72,0,0,0,881.78,229.12Z" transform="translate(-28 -98.38)" fill="#6c63ff"/><path d="M819.3,242.73a1.49,1.49,0,0,0,.68.2c.43,0,.74-.44.92-.84,1-2.12.42-4.88,1.92-6.68a23,23,0,0,1,3.66,6.14l5.76-1.78a8.54,8.54,0,0,1-1.09,6.59,8.9,8.9,0,0,1,2.71,1.84,3,3,0,0,1,.71,3.05,14.66,14.66,0,0,1-4.07.4,26.62,26.62,0,0,1-.43,7.56,1.41,1.41,0,0,1-.49,1,1.38,1.38,0,0,1-1.41-.24,13.34,13.34,0,0,1-4.73-5L821.3,260a2.21,2.21,0,0,1-1,1.28,1.52,1.52,0,0,1-1.79-.61,4.69,4.69,0,0,1-.64-1.94l-.8-4.87a1.19,1.19,0,0,0-.26-.69A1.25,1.25,0,0,0,816,253q-3-.09-6.09-.06c-.35-1.08.73-2.09,1.76-2.54s2.28-.8,2.8-1.81c1.06-2.05-1.69-4.91-.52-6.69C815.31,239.8,817.53,241.85,819.3,242.73Z" transform="translate(-28 -98.38)" fill="#6c63ff"/><path d="M930.38,269.83c4-5.44,12.28.46,8.54,6.09-1,1.47-2,2.9-3.06,4.26-12.32,16.63-18.7,36.82-24.2,56.77-1.34,4.9-2.65,10.13-1.11,15-2.2-13-.77-26.35,2.55-39.08s8.49-24.89,13.83-36.9A33.65,33.65,0,0,1,930.38,269.83Z" transform="translate(-28 -98.38)" fill="#6c63ff" opacity="0.5"/><path d="M1010.29,304.8c8.31-.25,9.36,12.35,1.09,13-2.17.17-4.36.22-6.44.28-25.44.69-49.5,9.92-72.61,19.84-5.68,2.43-11.63,5.16-15,10.37,10.42-12.08,24.14-20.93,38.74-27.44s30.13-10.77,45.68-14.76A39.56,39.56,0,0,1,1010.29,304.8Z" transform="translate(-28 -98.38)" fill="#6c63ff"/><path d="M1008,335.77c5.24.2,4.06,7.65-1.22,7.7-1.38,0-2.76-.05-4.08-.11-16.05-.65-32.48,3.78-48.42,8.65-3.91,1.19-8,2.55-10.89,5.48,8.3-6.67,18.19-11.31,28.3-14.53s20.47-5.08,30.8-6.77A28.19,28.19,0,0,1,1008,335.77Z" transform="translate(-28 -98.38)" fill="#6c63ff" opacity="0.5"/><path d="M998.44,262.84c3.16-.55,3.4,4.05.25,4.75-.83.18-1.66.32-2.45.46-9.67,1.65-18.92,6.38-27.82,11.31-2.19,1.21-4.48,2.55-5.81,4.66a53.15,53.15,0,0,1,15.06-12.27,130.67,130.67,0,0,1,17.53-8A16.51,16.51,0,0,1,998.44,262.84Z" transform="translate(-28 -98.38)" fill="#6c63ff" opacity="0.2"/><path d="M916.22,483.93c-.71,3.12-5.05,1.57-4.48-1.61.15-.83.34-1.65.52-2.43,2.21-9.56,1.41-19.92.29-30-.28-2.49-.62-5.12-2.06-7.16A53.28,53.28,0,0,1,916,461.33a131.75,131.75,0,0,1,.58,19.24A17.29,17.29,0,0,1,916.22,483.93Z" transform="translate(-28 -98.38)" fill="#6c63ff" opacity="0.2"/><path d="M996.41,463.14c2.47,4.18-3.59,3.9-6.25-.29-.7-1.09-1.34-2.19-1.95-3.24-7.52-12.78-19-25.42-30.46-37.63-2.82-3-5.88-6.15-9.44-8.15A148.44,148.44,0,0,1,973.06,435c7.39,7.73,13.92,15.78,20.31,23.82A39.06,39.06,0,0,1,996.41,463.14Z" transform="translate(-28 -98.38)" fill="#6c63ff" opacity="0.5"/><path d="M777,463.14c-2.47,4.18,3.59,3.9,6.26-.29.69-1.09,1.33-2.19,1.95-3.24,7.51-12.78,18.94-25.42,30.46-37.63,2.82-3,5.88-6.15,9.44-8.15A148.44,148.44,0,0,0,800.33,435c-7.39,7.73-13.92,15.78-20.31,23.82A39.17,39.17,0,0,0,777,463.14Z" transform="translate(-28 -98.38)" fill="#6c63ff" opacity="0.2"/><path d="M857.22,483.93c.71,3.12,5,1.57,4.48-1.61-.15-.83-.34-1.65-.52-2.43-2.21-9.56-1.41-19.92-.29-30,.28-2.49.62-5.12,2.06-7.16a53.28,53.28,0,0,0-5.52,18.63,131.75,131.75,0,0,0-.58,19.24A17.29,17.29,0,0,0,857.22,483.93Z" transform="translate(-28 -98.38)" fill="#6c63ff" opacity="0.2"/><path d="M973.16,294.23c3.15-.55,3.39,4.06.24,4.75-.82.19-1.65.32-2.44.46-9.67,1.65-18.92,6.38-27.83,11.31-2.18,1.22-4.48,2.55-5.8,4.66a53.42,53.42,0,0,1,15-12.27,133.35,133.35,0,0,1,17.54-8A18,18,0,0,1,973.16,294.23Z" transform="translate(-28 -98.38)" fill="#6c63ff" opacity="0.2"/><path d="M943.66,232.6c2.73-1.69,4.67,2.49,2,4.31-.7.48-1.42.92-2.1,1.34-8.35,5.14-15.16,13-21.58,20.89-1.57,1.94-3.2,4-3.64,6.49a53.17,53.17,0,0,1,9.37-17A132.73,132.73,0,0,1,941,234.69,17.78,17.78,0,0,1,943.66,232.6Z" transform="translate(-28 -98.38)" fill="#6c63ff" opacity="0.2"/><path d="M1047.2,384.76c8,4.13,1.24,15.45-7,11.69-2.16-1-4.26-2.08-6.27-3.13-24.48-12.7-52.93-17.37-80.91-21-6.86-.88-14.18-1.65-20.53,1.07,17.31-4.89,35.74-5.29,53.56-3.22s35.15,6.54,52.31,11.25A46.88,46.88,0,0,1,1047.2,384.76Z" transform="translate(-28 -98.38)" fill="#6c63ff"/><path d="M1024.31,428.83c5.76,5.37-3.23,11.72-9.27,6.56-1.59-1.35-3.09-2.78-4.53-4.13-17.55-16.47-40.74-28.2-63.83-39-5.67-2.65-29-5.36-35.23-5.21,16.27,1.45,49.5,6.53,64.27,13.25s28.45,15.05,41.91,23.52A44.45,44.45,0,0,1,1024.31,428.83Z" transform="translate(-28 -98.38)" fill="#6c63ff" opacity="0.5"/><path d="M956.46,508c.71,7.84-10.23,6.57-11.29-1.3-.27-2.06-.44-4.12-.61-6.09-2.09-24-11.55-48.19-21.55-71.64-2.45-5.75-18-23.33-22.77-27.38,11.15,11.94,32.52,37.89,39,52.74s11.16,30.19,15.55,45.48A45.33,45.33,0,0,1,956.46,508Z" transform="translate(-28 -98.38)" fill="#6c63ff"/><path d="M963,242.73a1.49,1.49,0,0,1-.68.2c-.43,0-.74-.44-.92-.84-1-2.12-.42-4.88-1.92-6.68a23,23,0,0,0-3.66,6.14l-5.76-1.78a8.54,8.54,0,0,0,1.09,6.59,8.9,8.9,0,0,0-2.71,1.84,3,3,0,0,0-.71,3.05,14.66,14.66,0,0,0,4.07.4,26.62,26.62,0,0,0,.43,7.56,1.41,1.41,0,0,0,.49,1,1.38,1.38,0,0,0,1.41-.24,13.34,13.34,0,0,0,4.73-5L961,260a2.21,2.21,0,0,0,1,1.28,1.52,1.52,0,0,0,1.79-.61,4.53,4.53,0,0,0,.63-1.94l.8-4.87a1.28,1.28,0,0,1,.27-.69,1.25,1.25,0,0,1,.85-.24q3-.09,6.09-.06c.35-1.08-.73-2.09-1.76-2.54s-2.28-.8-2.8-1.81c-1.06-2.05,1.68-4.91.52-6.69C967,239.8,964.79,241.85,963,242.73Z" transform="translate(-28 -98.38)" fill="#6c63ff"/><path d="M980.38,479.73a1.28,1.28,0,0,1-.68.2c-.43,0-.74-.43-.92-.83-1-2.13-.42-4.89-1.92-6.68a22.81,22.81,0,0,0-3.66,6.13l-5.76-1.78a8.57,8.57,0,0,0,1.09,6.6,8.73,8.73,0,0,0-2.71,1.84,3,3,0,0,0-.71,3,14.67,14.67,0,0,0,4.07.41,26.64,26.64,0,0,0,.43,7.56,1.07,1.07,0,0,0,1.9.73,13.34,13.34,0,0,0,4.73-5l2.14,5.11a2.24,2.24,0,0,0,1,1.28,1.53,1.53,0,0,0,1.79-.62,4.49,4.49,0,0,0,.63-1.94l.8-4.87a1.24,1.24,0,0,1,.27-.68,1.21,1.21,0,0,1,.85-.25q3-.07,6.09-.06c.35-1.08-.73-2.08-1.76-2.54s-2.28-.79-2.8-1.8c-1.06-2.06,1.68-4.92.52-6.69C984.37,476.8,982.15,478.85,980.38,479.73Z" transform="translate(-28 -98.38)" fill="#6c63ff" opacity="0.2"/><path d="M1029.15,320.87a1.53,1.53,0,0,1-.68.2c-.44,0-.74-.44-.92-.84-1-2.13-.42-4.89-1.93-6.68a23,23,0,0,0-3.66,6.14l-5.75-1.79a8.56,8.56,0,0,0,1.09,6.6,8.78,8.78,0,0,0-2.71,1.84,3,3,0,0,0-.71,3.05,14.66,14.66,0,0,0,4.07.4,26.64,26.64,0,0,0,.43,7.56,1.36,1.36,0,0,0,.49,1c.42.27,1,0,1.41-.23a13.34,13.34,0,0,0,4.73-5l2.14,5.11a2.27,2.27,0,0,0,.95,1.28,1.54,1.54,0,0,0,1.8-.62,4.45,4.45,0,0,0,.63-1.94l.8-4.86a1.2,1.2,0,0,1,.27-.69,1.24,1.24,0,0,1,.85-.25q3-.07,6.09-.06c.35-1.08-.73-2.08-1.77-2.53s-2.27-.8-2.79-1.81c-1.06-2.06,1.68-4.92.52-6.69C1033.14,317.93,1030.92,320,1029.15,320.87Z" transform="translate(-28 -98.38)" fill="#6c63ff"/><path d="M834.17,503.5a1.9,1.9,0,0,1-.94.28c-.61,0-1-.61-1.29-1.16-1.36-3-.58-6.81-2.68-9.31a32.09,32.09,0,0,0-5.1,8.55l-8-2.48a11.87,11.87,0,0,0,1.52,9.18,12.23,12.23,0,0,0-3.78,2.57,4.17,4.17,0,0,0-1,4.25,20.36,20.36,0,0,0,5.66.56,37.64,37.64,0,0,0,.6,10.54,2,2,0,0,0,.69,1.34c.59.37,1.36,0,2-.33a18.69,18.69,0,0,0,6.6-7l3,7.12a3.11,3.11,0,0,0,1.33,1.78,2.15,2.15,0,0,0,2.5-.86,6.2,6.2,0,0,0,.88-2.7l1.12-6.78a1.6,1.6,0,0,1,.37-1,1.67,1.67,0,0,1,1.18-.34q4.25-.12,8.49-.09c.49-1.5-1-2.9-2.46-3.53s-3.17-1.12-3.89-2.52c-1.48-2.87,2.34-6.85.72-9.32C839.73,499.42,836.64,502.28,834.17,503.5Z" transform="translate(-28 -98.38)" fill="#6c63ff"/><path d="M753.05,325.61a1.94,1.94,0,0,1-.95.28c-.6,0-1-.61-1.28-1.17-1.37-3-.58-6.81-2.68-9.31A32.09,32.09,0,0,0,743,324l-8-2.48a11.93,11.93,0,0,0,1.51,9.19,12.3,12.3,0,0,0-3.77,2.57,4.18,4.18,0,0,0-1,4.24,20.82,20.82,0,0,0,5.67.57,37.22,37.22,0,0,0,.6,10.53,1.93,1.93,0,0,0,.69,1.34c.59.38,1.36,0,1.95-.32a18.57,18.57,0,0,0,6.6-7l3,7.12a3.19,3.19,0,0,0,1.32,1.79,2.15,2.15,0,0,0,2.5-.87,6.26,6.26,0,0,0,.89-2.7l1.11-6.78a1.8,1.8,0,0,1,.37-1,1.7,1.7,0,0,1,1.19-.34q4.25-.12,8.49-.08c.48-1.51-1-2.91-2.47-3.54s-3.16-1.11-3.89-2.52c-1.47-2.86,2.35-6.85.72-9.32C758.61,321.52,755.52,324.38,753.05,325.61Z" transform="translate(-28 -98.38)" fill="#6c63ff"/><path d="M999.21,435.77a1,1,0,0,1-.51.15c-.32,0-.54-.32-.68-.62-.72-1.57-.31-3.61-1.42-4.94a17.14,17.14,0,0,0-2.71,4.54l-4.26-1.32a6.34,6.34,0,0,0,.8,4.88,6.59,6.59,0,0,0-2,1.37,2.2,2.2,0,0,0-.52,2.25,10.81,10.81,0,0,0,3,.3,20.23,20.23,0,0,0,.32,5.6,1.07,1.07,0,0,0,.37.71c.31.2.72,0,1-.17a9.84,9.84,0,0,0,3.5-3.72l1.59,3.78a1.63,1.63,0,0,0,.7.95,1.14,1.14,0,0,0,1.33-.46,3.23,3.23,0,0,0,.47-1.43l.59-3.61a.89.89,0,0,1,.2-.5.87.87,0,0,1,.63-.18c1.5-.05,3-.06,4.51-.05.26-.8-.54-1.54-1.31-1.88s-1.68-.59-2.07-1.33c-.78-1.53,1.25-3.64.39-5C1002.16,433.6,1000.52,435.12,999.21,435.77Z" transform="translate(-28 -98.38)" fill="#6c63ff" opacity="0.2"/><path d="M889,499.4a1,1,0,0,1-.5.15c-.33,0-.55-.33-.69-.62-.72-1.58-.3-3.62-1.42-4.95a17.14,17.14,0,0,0-2.71,4.54l-4.26-1.32a6.33,6.33,0,0,0,.81,4.89,6.49,6.49,0,0,0-2,1.36,2.21,2.21,0,0,0-.52,2.25,10.88,10.88,0,0,0,3,.3,19.86,19.86,0,0,0,.32,5.6,1,1,0,0,0,.36.71c.31.2.72,0,1-.17a9.88,9.88,0,0,0,3.51-3.72l1.58,3.79a1.66,1.66,0,0,0,.71.94,1.12,1.12,0,0,0,1.32-.45,3.31,3.31,0,0,0,.47-1.44l.6-3.6a.91.91,0,0,1,.19-.51.87.87,0,0,1,.63-.18c1.5,0,3-.06,4.51-.05.26-.8-.54-1.54-1.31-1.88s-1.68-.59-2.06-1.33c-.79-1.53,1.24-3.64.38-4.95C892,497.23,890.32,498.74,889,499.4Z" transform="translate(-28 -98.38)" fill="#6c63ff" opacity="0.2"/><path d="M782.36,276.71a1,1,0,0,1-.5.15c-.32,0-.55-.33-.68-.62-.73-1.57-.31-3.62-1.43-4.95a17.19,17.19,0,0,0-2.71,4.55l-4.26-1.32a6.31,6.31,0,0,0,.81,4.88,6.49,6.49,0,0,0-2,1.36,2.25,2.25,0,0,0-.52,2.26,10.88,10.88,0,0,0,3,.3,19.76,19.76,0,0,0,.32,5.59,1,1,0,0,0,.36.72,1,1,0,0,0,1-.18,9.92,9.92,0,0,0,3.51-3.71l1.58,3.78a1.68,1.68,0,0,0,.71,1,1.15,1.15,0,0,0,1.33-.46,3.5,3.5,0,0,0,.47-1.44L784,285a.92.92,0,0,1,.2-.51.94.94,0,0,1,.63-.18c1.5,0,3,0,4.5,0,.26-.8-.54-1.54-1.3-1.88s-1.69-.59-2.07-1.34c-.79-1.52,1.24-3.64.38-4.95C785.31,274.54,783.68,276.06,782.36,276.71Z" transform="translate(-28 -98.38)" fill="#6c63ff" opacity="0.5"/><path d="M839.12,402.2a1,1,0,0,1-.5.15c-.32,0-.55-.33-.68-.62-.73-1.58-.31-3.62-1.43-5a16.74,16.74,0,0,0-2.7,4.55L829.54,400a6.35,6.35,0,0,0,.81,4.88,6.61,6.61,0,0,0-2,1.36,2.25,2.25,0,0,0-.52,2.26,10.88,10.88,0,0,0,3,.3,19.79,19.79,0,0,0,.32,5.59.79.79,0,0,0,1.4.54,9.92,9.92,0,0,0,3.51-3.71l1.58,3.78a1.76,1.76,0,0,0,.71.95,1.15,1.15,0,0,0,1.33-.46,3.23,3.23,0,0,0,.47-1.44l.59-3.6a.92.92,0,0,1,.2-.51.91.91,0,0,1,.63-.18c1.5,0,3-.06,4.51,0,.25-.8-.54-1.54-1.31-1.88s-1.68-.59-2.07-1.34c-.78-1.52,1.24-3.64.38-4.95C842.08,400,840.44,401.55,839.12,402.2Z" transform="translate(-28 -98.38)" fill="#6c63ff" opacity="0.5"/><path d="M797.93,353.28a1,1,0,0,1-.5.15c-.33,0-.55-.33-.69-.62-.72-1.58-.3-3.62-1.42-4.95a17,17,0,0,0-2.71,4.55l-4.26-1.32a6.35,6.35,0,0,0,.8,4.88,6.56,6.56,0,0,0-2,1.36,2.22,2.22,0,0,0-.52,2.26,10.88,10.88,0,0,0,3,.3,19.79,19.79,0,0,0,.32,5.59.78.78,0,0,0,1.4.54,9.82,9.82,0,0,0,3.5-3.71l1.59,3.78a1.72,1.72,0,0,0,.71,1,1.14,1.14,0,0,0,1.32-.46,3.23,3.23,0,0,0,.47-1.44l.6-3.6a.91.91,0,0,1,.19-.51.92.92,0,0,1,.63-.18c1.5,0,3-.06,4.51,0,.26-.8-.54-1.54-1.31-1.88s-1.68-.59-2.06-1.34c-.79-1.52,1.24-3.64.38-4.95C800.88,351.11,799.24,352.63,797.93,353.28Z" transform="translate(-28 -98.38)" fill="#6c63ff" opacity="0.5"/><path d="M974.86,364.8a1,1,0,0,1-.5.15c-.32,0-.54-.33-.68-.62-.73-1.58-.31-3.62-1.42-4.95a16.78,16.78,0,0,0-2.71,4.55l-4.26-1.32a6.35,6.35,0,0,0,.8,4.88,6.61,6.61,0,0,0-2,1.36,2.26,2.26,0,0,0-.52,2.26,11.32,11.32,0,0,0,3,.3,19.81,19.81,0,0,0,.32,5.59.79.79,0,0,0,1.41.54,9.89,9.89,0,0,0,3.5-3.71l1.59,3.78a1.7,1.7,0,0,0,.7.95,1.15,1.15,0,0,0,1.33-.46,3.27,3.27,0,0,0,.47-1.44l.59-3.6a.92.92,0,0,1,.2-.51.91.91,0,0,1,.63-.18c1.5,0,3-.06,4.51-.05.25-.79-.54-1.54-1.31-1.87s-1.68-.59-2.07-1.34c-.78-1.52,1.25-3.64.38-4.95C977.82,362.63,976.18,364.15,974.86,364.8Z" transform="translate(-28 -98.38)" fill="#6c63ff" opacity="0.5"/><path d="M889,355.17a1,1,0,0,1-.5.15c-.33,0-.55-.32-.69-.62-.72-1.57-.3-3.61-1.42-4.94a17.14,17.14,0,0,0-2.71,4.54L879.43,353a6.3,6.3,0,0,0,.81,4.88,6.52,6.52,0,0,0-2,1.37,2.2,2.2,0,0,0-.52,2.25,10.88,10.88,0,0,0,3,.3,19.86,19.86,0,0,0,.32,5.6,1,1,0,0,0,.36.71c.31.2.72,0,1-.17A10,10,0,0,0,886,364.2l1.58,3.78a1.68,1.68,0,0,0,.71.95,1.13,1.13,0,0,0,1.32-.46A3.23,3.23,0,0,0,890,367l.6-3.61a.88.88,0,0,1,.19-.5.93.93,0,0,1,.63-.19c1.5,0,3-.05,4.51,0,.26-.8-.54-1.54-1.31-1.88s-1.68-.59-2.06-1.33c-.79-1.53,1.24-3.64.38-5C892,353,890.32,354.52,889,355.17Z" transform="translate(-28 -98.38)" fill="#6c63ff" opacity="0.2"/><path d="M862.07,366.89a1,1,0,0,1-.51.15c-.32,0-.54-.32-.68-.62-.72-1.57-.31-3.61-1.42-4.94a17.14,17.14,0,0,0-2.71,4.54l-4.26-1.32a6.34,6.34,0,0,0,.8,4.88,6.59,6.59,0,0,0-2,1.37,2.23,2.23,0,0,0-.53,2.25,10.92,10.92,0,0,0,3,.3,20.23,20.23,0,0,0,.32,5.6,1.07,1.07,0,0,0,.37.71c.31.2.72,0,1-.17a9.84,9.84,0,0,0,3.5-3.72l1.59,3.78a1.63,1.63,0,0,0,.7.95,1.13,1.13,0,0,0,1.33-.46,3.23,3.23,0,0,0,.47-1.43l.59-3.6a.89.89,0,0,1,.2-.51.87.87,0,0,1,.63-.18c1.5-.05,3-.06,4.51-.05.26-.8-.54-1.54-1.31-1.88s-1.68-.59-2.07-1.33c-.78-1.53,1.25-3.64.39-5C865,364.72,863.38,366.24,862.07,366.89Z" transform="translate(-28 -98.38)" fill="#6c63ff" opacity="0.3"/><path d="M837,296a1,1,0,0,1-.5.15c-.32,0-.54-.32-.68-.62-.73-1.57-.31-3.62-1.42-4.94a16.87,16.87,0,0,0-2.71,4.54l-4.26-1.32a6.35,6.35,0,0,0,.8,4.88,6.44,6.44,0,0,0-2,1.36,2.25,2.25,0,0,0-.53,2.26,10.92,10.92,0,0,0,3,.3,19.76,19.76,0,0,0,.32,5.59,1.1,1.1,0,0,0,.37.72c.31.2.72,0,1-.18a9.82,9.82,0,0,0,3.5-3.71l1.59,3.78a1.67,1.67,0,0,0,.7,1,1.14,1.14,0,0,0,1.33-.46,3.23,3.23,0,0,0,.47-1.43l.59-3.61a.92.92,0,0,1,.2-.51,1,1,0,0,1,.63-.18c1.5,0,3,0,4.51,0,.25-.8-.54-1.54-1.31-1.88s-1.68-.59-2.07-1.34c-.78-1.52,1.25-3.64.38-4.95C839.91,293.79,838.27,295.31,837,296Z" transform="translate(-28 -98.38)" fill="#6c63ff" opacity="0.2"/><path d="M886.42,388.52a1,1,0,0,1-.5.15.9.9,0,0,1-.68-.62c-.73-1.57-.31-3.62-1.43-4.94a17.14,17.14,0,0,0-2.71,4.54l-4.26-1.32a6.35,6.35,0,0,0,.81,4.88,6.67,6.67,0,0,0-2,1.36,2.25,2.25,0,0,0-.52,2.26,10.88,10.88,0,0,0,3,.3,19.76,19.76,0,0,0,.32,5.59,1,1,0,0,0,.36.72,1,1,0,0,0,1-.17,10,10,0,0,0,3.51-3.72l1.58,3.78a1.68,1.68,0,0,0,.71.95,1.14,1.14,0,0,0,1.33-.46,3.5,3.5,0,0,0,.47-1.43l.59-3.61a.68.68,0,0,1,.83-.69c1.5,0,3,0,4.5,0,.26-.8-.54-1.54-1.3-1.88s-1.69-.59-2.07-1.34c-.78-1.52,1.24-3.64.38-4.95C889.37,386.35,887.74,387.87,886.42,388.52Z" transform="translate(-28 -98.38)" fill="#6c63ff" opacity="0.3"/></svg>