<svg id="0856a1da-3393-4f60-9d09-641e026e226c" data-name="Layer 1" xmlns="http://www.w3.org/2000/svg" xmlns:xlink="http://www.w3.org/1999/xlink" width="708.76" height="778.88" viewBox="0 0 708.76 778.88"><defs><linearGradient id="8d93a506-4139-4d9c-b8e2-3572cfb03c18" x1="337.75" y1="839.44" x2="337.75" y2="335.68" gradientUnits="userSpaceOnUse"><stop offset="0" stop-color="gray" stop-opacity="0.25"/><stop offset="0.54" stop-color="gray" stop-opacity="0.12"/><stop offset="1" stop-color="gray" stop-opacity="0.1"/></linearGradient></defs><title>window_shopping</title><rect x="43.76" y="99.64" width="665" height="433.73" fill="#ededf4"/><ellipse cx="157.68" cy="455.13" rx="56.27" ry="8.92" fill="#3b477b"/><rect x="148.76" y="128.46" width="17.84" height="326.67" fill="#3b477b"/><circle cx="157.68" cy="137.38" r="22.65" fill="#3b477b"/><path d="M453.4,218.53s-8.92,19.22-15.78,59L398.5,234.32s10.51-4.24,21.67-9a84.69,84.69,0,0,1,33.23-6.79Z" transform="translate(-245.62 -60.56)" fill="#6c63ff"/><path d="M453.4,218.53s-8.92,19.22-15.78,59L398.5,234.32s10.51-4.24,21.67-9a84.69,84.69,0,0,1,33.23-6.79Z" transform="translate(-245.62 -60.56)" opacity="0.08"/><path d="M354.58,218.53s12.35,36.37,13,50.78v17.16h72.06V268.63A204.44,204.44,0,0,0,410,238.26a87.57,87.57,0,0,0-55.43-19.72Z" transform="translate(-245.62 -60.56)" fill="#6c63ff"/><path d="M367.61,286.47s-18.53,22-19.9,48,11.67,103.63,11.67,103.63,43.92,15.78,87.84,0c0,0,13.73-79.61,12.35-105s-27.79-58.68-27.79-58.68Z" transform="translate(-245.62 -60.56)" fill="#6c63ff"/><path d="M412.57,266.91s8.92-.69,14.41,2.06,12.7,3,12.7,3" transform="translate(-245.62 -60.56)" opacity="0.08"/><path d="M412.57,271s8.92-.69,14.41,2.06,12.7,3,12.7,3" transform="translate(-245.62 -60.56)" opacity="0.08"/><path d="M412.57,276.52s8.92-.69,14.41,2.06,12.7,3,12.7,3" transform="translate(-245.62 -60.56)" opacity="0.08"/><path d="M371.39,286.82s-5.49,14.41-4.8,16.47-5.49,14.41-5.49,14.41" transform="translate(-245.62 -60.56)" opacity="0.08"/><path d="M375.51,295.74s-5.49,14.41-4.8,16.47-5.49,14.41-5.49,14.41" transform="translate(-245.62 -60.56)" opacity="0.08"/><path d="M437.27,286.82s5.49,14.41,4.8,16.47,5.49,14.41,5.49,14.41" transform="translate(-245.62 -60.56)" opacity="0.08"/><path d="M433.15,295.74s5.49,14.41,4.8,16.47,5.49,14.41,5.49,14.41" transform="translate(-245.62 -60.56)" opacity="0.08"/><ellipse cx="372.48" cy="498.36" rx="56.27" ry="8.92" fill="#3b477b"/><rect x="363.56" y="171.7" width="17.84" height="326.67" fill="#3b477b"/><circle cx="372.48" cy="180.62" r="22.65" fill="#3b477b"/><path d="M583.45,345.84,501.78,459.07,524.43,468s-4.12,4.12-1.37,6.18c0,0,9.61,8.92,35,10.29,0,0,7.55-10.29,22.65,3.43s33.63,2.75,33.63,2.75S628.06,479,643.84,490s35.69-5.49,35.69-5.49,10.29-15.1,32.25-9.61,22-15.1,22-15.1l-83-116.67Z" transform="translate(-245.62 -60.56)" fill="#6c63ff"/><g opacity="0.08"><path d="M713.34,475.2c6,1.21,10.2.4,13.19-1.37A31.41,31.41,0,0,0,713.34,475.2Z" transform="translate(-245.62 -60.56)" fill="#fff"/><path d="M543.64,474.17C540.9,472.11,545,468,545,468l-22.65-8.92,61.08-113.24L501.78,459.07,524.43,468s-4.12,4.12-1.37,6.18c0,0,9.61,8.92,35,10.29a9.66,9.66,0,0,1,3.12-2.5C548.71,478.86,543.64,474.17,543.64,474.17Z" transform="translate(-245.62 -60.56)" fill="#fff"/><path d="M601.29,487.89c-15.1-13.73-22.65-3.43-22.65-3.43-.85,0-1.69-.1-2.5-.16a38.78,38.78,0,0,1,4.56,3.6c10.17,9.25,21.89,7.28,28.46,5A26.52,26.52,0,0,1,601.29,487.89Z" transform="translate(-245.62 -60.56)" fill="#fff"/><path d="M664.43,490c-10-7-19.18-4.82-24.56-2.32a28.69,28.69,0,0,1,4,2.32c7.7,5.35,16.37,4.18,23.24,1.57A21.32,21.32,0,0,1,664.43,490Z" transform="translate(-245.62 -60.56)" fill="#fff"/></g><path d="M657.57,355.1H580.7s-4.8-58.33-11.67-67.25a78.14,78.14,0,0,1,8.65-3.16,129.35,129.35,0,0,1,14-3.51,136.82,136.82,0,0,1,49.4-.45,132.35,132.35,0,0,1,14.14,3.3q5.54,1.61,11.24,3.82S652.76,342.75,657.57,355.1Z" transform="translate(-245.62 -60.56)" fill="#6c63ff"/><path d="M601.16,355.1H590.94c-.13-12.91-9.59-54.65-13.26-70.42a129.35,129.35,0,0,1,14-3.51C592.47,297.78,599.28,342.89,601.16,355.1Z" transform="translate(-245.62 -60.56)" fill="#fff" opacity="0.08"/><path d="M655.25,284c-3.55,15.23-13.28,58-13.41,71.07H631.62c1.89-12.33,8.81-58.15,9.48-74.37A132.35,132.35,0,0,1,655.25,284Z" transform="translate(-245.62 -60.56)" fill="#fff" opacity="0.08"/><ellipse cx="585.92" cy="457.19" rx="56.27" ry="8.92" fill="#3b477b"/><rect x="576.99" y="130.52" width="17.84" height="326.67" fill="#3b477b"/><circle cx="585.92" cy="139.44" r="22.65" fill="#3b477b"/><path d="M870.86,308.18c-.65-2.21-1.3-4.29-1.93-6.16v-25.5l8.24-35c-19.22-28.14-46,0-46,0-29.51-26.08-44.61,0-44.61,0,2.06,4.8,6.86,35,6.86,35v29c-10.92,22.87-14.19,48.29-12.69,73.76l5.14,87.37s49.41,19.22,90.59,0l4.12-73.26A251.3,251.3,0,0,0,870.86,308.18Z" transform="translate(-245.62 -60.56)" fill="#6c63ff"/><g opacity="0.08"><path d="M841.83,242.21S851.57,232,863.51,230c-10.88-3.52-21.67,3-27.51,7.56A66.56,66.56,0,0,1,841.83,242.21Z" transform="translate(-245.62 -60.56)"/><path d="M796.54,467.31l-5.14-87.37c-1.5-25.47,1.77-50.9,12.69-73.76v-29s-4.8-30.2-6.86-35c0,0,5.52-9.53,16.41-11.3-17.7-4.93-26.7,10.62-26.7,10.62,2.06,4.8,6.86,35,6.86,35v29c-10.92,22.87-14.19,48.29-12.69,73.76l5.14,87.37a150,150,0,0,0,45.05,8.48A148,148,0,0,1,796.54,467.31Z" transform="translate(-245.62 -60.56)"/></g><g opacity="0.08"><path d="M821.24,241.52a46.27,46.27,0,0,1,4.93-4.3c-10-7.18-18.14-8.18-24.35-6.7C807.39,231.74,813.86,235,821.24,241.52Z" transform="translate(-245.62 -60.56)"/><path d="M871.21,308.18c-.65-2.21-1.3-4.29-1.93-6.16v-25.5l8.24-35c-8.1-11.86-17.54-13.72-25.75-11.91,5.26,1.29,10.6,4.8,15.45,11.91l-8.24,35V302c.63,1.87,1.27,3.95,1.93,6.16a251.3,251.3,0,0,1,9.74,85.18l-4.12,73.26c-12,5.61-24.73,7.94-36.71,8.43,14.78.59,31.48-1.19,47-8.43L881,393.36A251.3,251.3,0,0,0,871.21,308.18Z" transform="translate(-245.62 -60.56)"/></g><rect x="70.26" y="534" width="60" height="32" fill="#ededf4"/><rect x="130.76" y="567.5" width="60" height="32" fill="#ededf4"/><rect x="191.26" y="534" width="60" height="32" fill="#ededf4"/><rect x="191.76" y="600.5" width="60" height="32" fill="#ededf4"/><rect x="251.76" y="567.5" width="60" height="32" fill="#ededf4"/><rect x="312.26" y="534" width="60" height="32" fill="#ededf4"/><rect x="372.76" y="567.5" width="60" height="32" fill="#ededf4"/><rect x="433.26" y="534" width="60" height="32" fill="#ededf4"/><rect x="433.76" y="600.5" width="60" height="32" fill="#ededf4"/><rect x="493.76" y="567.5" width="60" height="32" fill="#ededf4"/><rect x="648.76" y="534.5" width="60" height="32" fill="#ededf4"/><rect x="587.76" y="568.5" width="60" height="32" fill="#ededf4"/><rect x="114.76" y="67.5" width="60" height="32" fill="#ededf4"/><rect x="174.76" y="33.5" width="60" height="32" fill="#ededf4"/><rect x="235.26" width="60" height="32" fill="#ededf4"/><rect x="235.76" y="66.5" width="60" height="32" fill="#ededf4"/><rect x="295.76" y="33.5" width="60" height="32" fill="#ededf4"/><rect x="356.76" y="67.5" width="60" height="32" fill="#ededf4"/><rect x="416.76" y="33.5" width="60" height="32" fill="#ededf4"/><rect x="477.26" width="60" height="32" fill="#ededf4"/><rect x="477.76" y="66.5" width="60" height="32" fill="#ededf4"/><rect x="537.76" y="33.5" width="60" height="32" fill="#ededf4"/><polygon points="221.26 99.64 43.76 266.06 43.76 299.25 265.26 99.64 221.26 99.64" fill="#fff" opacity="0.3"/><polygon points="43.76 346.09 43.76 413.09 433.76 99.64 376.26 98.5 43.76 346.09" fill="#fff" opacity="0.3"/><path d="M429.53,833l.08-.15.09-.19.06-.16a2.44,2.44,0,0,0,.06-.25c0-.08,0-.15,0-.23s0-.13,0-.19,0-.13,0-.19,0-.12,0-.17,0-.11,0-.16c.18-1.44-.84-3.07-2.1-4.49a9.76,9.76,0,0,0-6.78-3.29c-14.4-.68-30.57-25.35-30.57-25.35l-.65.53a64.78,64.78,0,0,1-4.32-10.37H387l0-.36h0l0-.36h0l-2.22-23,6-68.87a61.77,61.77,0,0,0,4.15-12.88,22.8,22.8,0,0,0,.46-5c0-.12,0-.24,0-.36a23.18,23.18,0,0,0-2.62-10.68l-25.17-48.49c.86.09,1.4.1,1.4.1,7.42-10.59,2.67-26.34-2.62-37.69,1.11-.6,1.86-1,1.86-1a3.62,3.62,0,0,1-.72-.38l.72-.35c-4.32-1.57-7.86-14-9.51-21l2.41-8.8a41.92,41.92,0,0,1,11.6,3.51s-.33-.68-.9-1.9l0,0,.85.42s-.33-.66-.88-1.85h0c-3.06-6.65-13.11-30-13.36-50.51a50.25,50.25,0,0,1,.72-8.15,40.65,40.65,0,0,0,.63-7.78,31.11,31.11,0,0,0-16.4-28.67s-9.76-8-12-17.5c-.74-3.12-3-5.68-5.76-7.72,1-7.47,4.78-14.4,8.61-19.73.43-.08.85-.16,1.27-.26q.74-1,1.45-1.84a26.36,26.36,0,0,0,19.21-25.12,26,26,0,0,0-11.54-21.5c.67-.08,1.42-.59,2.32-2a7.49,7.49,0,0,0,.37-6.64,12.07,12.07,0,0,0-3.05-4.07,31,31,0,0,0-6.69-4.81c-5.63-3.3-11.48-6.68-18-7.45a48.25,48.25,0,0,0-9.95.2l-15.1,1.35c-7.18.64-15.2,1.7-19.65,7.22s-3.78,13.59-8.25,19c-3.3,4-8.72,5.66-12.79,8.9-7.46,5.94-9.43,16.51-7.7,25.72s6.51,17.57,10.57,26.07,7.54,17.73,6.38,27c-1,8-5.35,15.32-6.9,23.26A34.25,34.25,0,0,0,257.41,492a7.38,7.38,0,0,0,1.72,3.11,4.37,4.37,0,0,0,.39.31,4.42,4.42,0,0,0,.36.42c1.48,1.4,3.74,1.58,5.81,1.64,5,.17,10.14.21,14.72,2.15a15.14,15.14,0,0,1,4.2,2.67,10,10,0,0,1,3.06,7.76c-.42,4.4-4.21,9-1.83,12.73l.39,0a5,5,0,0,0,.36.68,28.29,28.29,0,0,0,7.6.19,111.6,111.6,0,0,1,1,12.63c0,4.57-.62,8.44-2.06,10.72h.27l.29,0h.19a8.78,8.78,0,0,1-.75,1.52l2.95-.22a205.46,205.46,0,0,1-12.35,18.26A39,39,0,0,0,275,590.93a35.65,35.65,0,0,0,.14,3.91c.67,7.12,3.23,14.72,9.74,20.77,0,0,2.76,6.69,2.88,12.39a10.8,10.8,0,0,1-.63,3.65V683.4l-9,34.26a123.69,123.69,0,0,0-1.71,20.73c0,10,1.24,21.68,6.21,30.3l7.51,35.72.75.08v10c-.92-.8-1.5-1.36-1.5-1.36L287.16,835l.07,0-.07.71s12.77,2.92,48.81,3.64l1.88,0h2.43l1.18,0H342l1.5,0h.1l1.52-.07.45,0,1-.06.49,0,.93-.07.43,0,1.11-.11.16,0,1.19-.14.33,0,.79-.12.37-.06.71-.12.33-.06.82-.17.13,0,.89-.21.22-.06.61-.16.26-.08.53-.16.23-.07.59-.21.1,0,.63-.26.13-.06.44-.21.16-.08.36-.2.14-.08.39-.24.05,0,.4-.3.05,0,.28-.25.08-.08.22-.23.06-.07.21-.27,0,0a3.17,3.17,0,0,0,.19-.32h0a2.78,2.78,0,0,0,.13-.29l0-.06a2.55,2.55,0,0,0,.07-.26v-.06a2.46,2.46,0,0,0,0-.29h0a2.51,2.51,0,0,0,0-.55c.39-2.63-3.6-5.17-7.1-5.17-7.51,0-32.29-21.14-33.79-22.6-.63-.61-1.77-.42-3.18.27-1.12-1-2.37-2.28-3.58-3.64a3.2,3.2,0,0,0,.75-1.74l-.1-.25a3.14,3.14,0,0,0,.1-.48s-5.1-12.39-5.31-18.32a6.28,6.28,0,0,1,.05-.63l.61-52.32a34.1,34.1,0,0,1,6.25-19c3.1-4.47,6.29-11.39,6.66-21.23l10.41-37.93c13.95,12.9,25,30,26.26,31.9-.81,3.52-5.37,24.14-5.27,44.27,0,.12,0,.24,0,.36a92.71,92.71,0,0,0,1.64,18.26,187.28,187.28,0,0,1,4,36.54c0,4.14-.2,6.47-.2,6.47h0c0,.23,0,.36,0,.36h0c0,.23,0,.36,0,.36h1.5v9.4l-.38-.29-9.39,16.4.2.19-.2.53s15.77,16,54.82,20.41l2.18.23.62.06,1.51.13.58,0,1.89.14h0l1.72.09.5,0,1.2,0h2l1.3,0h.4l.92,0,.36,0,1.12-.09H423l.92-.11.31,0,.65-.11.28-.05.8-.18.12,0,.6-.18.23-.08.42-.16.21-.08.51-.25.11-.07.34-.21.16-.11.23-.18.13-.12a3.18,3.18,0,0,0,.25-.27l.1-.13Z" transform="translate(-245.62 -60.56)" fill="url(#8d93a506-4139-4d9c-b8e2-3572cfb03c18)"/><path d="M357.66,566.66s22.34,33.15,10.09,51.17c0,0-18,0-13.69-19.46a69.15,69.15,0,0,0-1.44-35.31Z" transform="translate(-245.62 -60.56)" fill="#f7c4a7"/><path d="M292.8,794.4v25.94l23.06,2.16,8.65-13-2.16-3.6S312.26,798,310.1,790.79,292.8,794.4,292.8,794.4Z" transform="translate(-245.62 -60.56)" fill="#f7c4a7"/><path d="M302.89,816.74s15.64-17.51,18.74-14.41c1.44,1.44,25.22,22.34,32.43,22.34s16.58,11.53-18,10.81-46.84-3.6-46.84-3.6l2.16-21.62S299.29,818.18,302.89,816.74Z" transform="translate(-245.62 -60.56)" opacity="0.1"/><path d="M302.89,817.46s15.64-17.51,18.74-14.41c1.44,1.44,25.22,22.34,32.43,22.34s16.58,11.53-18,10.81-46.84-3.6-46.84-3.6L291.36,811S299.29,818.9,302.89,817.46Z" transform="translate(-245.62 -60.56)" fill="#f3b5b7"/><path d="M360.54,781.42V801.6l12.25,10.09,13.69-3.6,3.6-7.93s-7.21-10.09-9.37-27.39Z" transform="translate(-245.62 -60.56)" fill="#f7c4a7"/><path d="M370.63,803h8.65l9-7.57s15.52,24.39,29.33,25.06a9.27,9.27,0,0,1,6.5,3.26c3.61,4.18,5.27,10.31-20.34,7.36C366.31,826.83,351.18,811,351.18,811l9-16.22Z" transform="translate(-245.62 -60.56)" opacity="0.1"/><path d="M370.63,803.76h8.65l9-7.57s15.52,24.39,29.33,25.06a9.27,9.27,0,0,1,6.5,3.26c3.61,4.18,5.27,10.31-20.34,7.36-37.48-4.32-52.61-20.18-52.61-20.18l9-16.22Z" transform="translate(-245.62 -60.56)" fill="#f3b5b7"/><path d="M356.94,554.41s4.32,23.06,10.09,25.22c0,0-12.25,5.77-10.09,11.53l-10.09-46.84,12.25,1.44Z" transform="translate(-245.62 -60.56)" opacity="0.1"/><path d="M356.94,553.69s4.32,23.06,10.09,25.22c0,0-12.25,5.77-10.09,11.53L346.85,543.6,359.1,545Z" transform="translate(-245.62 -60.56)" fill="#fc6681"/><path d="M356.94,553.69s4.32,23.06,10.09,25.22c0,0-12.25,5.77-10.09,11.53L346.85,543.6,359.1,545Z" transform="translate(-245.62 -60.56)" opacity="0.1"/><path d="M347.57,581.08l43,85.31a23.39,23.39,0,0,1,2.07,15.1,62.4,62.4,0,0,1-4,12.74l-5.77,68.46L385,785.75H359.1s1.44-18-3.6-43.24,3.6-62,3.6-62-15.85-25.94-33.87-38.92S347.57,581.08,347.57,581.08Z" transform="translate(-245.62 -60.56)" opacity="0.1"/><path d="M347.57,580.35l43,85.31a23.39,23.39,0,0,1,2.07,15.1,62.4,62.4,0,0,1-4,12.74L382.89,762,385,785H359.1s1.44-18-3.6-43.24,3.6-62,3.6-62-15.85-25.94-33.87-38.92S347.57,580.35,347.57,580.35Z" transform="translate(-245.62 -60.56)" fill="#575988"/><path d="M347.57,580.72l43,85.31a23.39,23.39,0,0,1,2.07,15.1,62.4,62.4,0,0,1-4,12.74l-5.77,68.46L385,785.39H359.1s1.44-18-3.6-43.24,3.6-62,3.6-62-15.85-25.94-33.87-38.92S347.57,580.72,347.57,580.72Z" transform="translate(-245.62 -60.56)" opacity="0.05"/><path d="M301.45,542.88s-8.92,15.81-15.51,24.32a38.89,38.89,0,0,0-8.25,27.22c.64,7,3.1,14.55,9.35,20.53,0,0,4.32,10.81,2.16,16.58v51.17l-8.65,33.87s-5.77,31.71,4.32,49.73l7.21,35.31s23.06,2.88,23.78-4.32c0,0-5.77-14.41-5-19.46l.58-51.73a34.4,34.4,0,0,1,6-18.81c3-4.41,6-11.26,6.4-21L362,542.88Z" transform="translate(-245.62 -60.56)" opacity="0.1"/><path d="M301.45,542.16s-8.92,15.81-15.51,24.32a38.89,38.89,0,0,0-8.25,27.22c.64,7,3.1,14.55,9.35,20.53,0,0,4.32,10.81,2.16,16.58V682l-8.65,33.87s-5.77,31.71,4.32,49.73l7.21,35.31s23.06,2.88,23.78-4.32c0,0-5.77-14.41-5-19.46l.58-51.73a34.4,34.4,0,0,1,6-18.81c3-4.41,6-11.26,6.4-21L362,542.16Z" transform="translate(-245.62 -60.56)" fill="#575988"/><path d="M353.34,594.77s5,32.43-13,42.52c0,0-7.21-5,2.88-21.62l.72-22.34Z" transform="translate(-245.62 -60.56)" fill="#f7c4a7"/><path d="M403.79,830.43c-34.06-3.93-49.66-17.38-52.22-19.8l-.39,1.06s15.13,15.85,52.61,20.18c19.17,2.21,23.06-.67,22.29-4C425.36,830.5,420.11,832.31,403.79,830.43Z" transform="translate(-245.62 -60.56)" opacity="0.1"/><path d="M336,834c-32-.67-44.91-3.19-46.63-3.56l-.21,2.12s12.25,2.88,46.84,3.6c21.53.45,26-3.85,24.62-7.16C359.43,831.78,353.05,834.39,336,834Z" transform="translate(-245.62 -60.56)" opacity="0.1"/><path d="M292.44,615.31s17.3,0,22.34-4.32,17.3,0,17.3,0" transform="translate(-245.62 -60.56)" opacity="0.1"/><path d="M288.12,766.65c-10.09-18-4.32-49.73-4.32-49.73l8.65-33.87V631.88c2.16-5.77-2.16-16.58-2.16-16.58-6.25-6-8.71-13.49-9.35-20.53a38.89,38.89,0,0,1,8.25-27.22c6.59-8.51,15.51-24.32,15.51-24.32h57.46l.19-.72H301.81s-8.92,15.81-15.51,24.32A38.89,38.89,0,0,0,278,594.06c.64,7,3.1,14.55,9.35,20.53,0,0,4.32,10.81,2.16,16.58v51.17l-8.65,33.87s-5.77,31.71,4.32,49.73l7.21,35.31s1.09.14,2.79.27Z" transform="translate(-245.62 -60.56)" opacity="0.1"/><path d="M343.25,400.91S326.67,416,326,433.34s-28.11-3.6-28.11-3.6,20.9-9.37,19.46-36.75Z" transform="translate(-245.62 -60.56)" fill="#f7c4a7"/><path d="M313.7,426.13s-22.34-8.65-26.67,28.11l5,48.29s8.65,36.75,2.88,46.12c0,0,59.1-5,76.39,4.32,0,0-17.3-36-13-61.26s-15.13-34.59-15.13-34.59-9.37-7.93-11.53-17.3S313.7,426.13,313.7,426.13Z" transform="translate(-245.62 -60.56)" opacity="0.1"/><path d="M313.7,424.69S291.36,416,287,452.79l4.12,39.44c.55,5.25,1.35,10.48,2.37,15.66,2.18,11.09,5.64,32.48,1.44,39.31,0,0,59.1-5,76.39,4.32,0,0-17.3-36-13-61.26s-15.13-34.59-15.13-34.59-9.37-7.93-11.53-17.3S313.7,424.69,313.7,424.69Z" transform="translate(-245.62 -60.56)" fill="#fc6681"/><path d="M309.38,472.25l25.94,95.85s10.09,23.06,5.77,29.55c0,0,11.53,5.77,16.58,0s-10.81-72.07-10.81-72.07l-9.37-53.33Z" transform="translate(-245.62 -60.56)" opacity="0.1"/><path d="M310.1,471.53,336,567.38s10.09,23.06,5.77,29.55c0,0,11.53,5.77,16.58,0s-10.81-72.07-10.81-72.07l-9.37-53.33Z" transform="translate(-245.62 -60.56)" fill="#fc6681"/><path d="M337.84,487.75s7.21,20.9,10.81,23.06,1.44,18,1.44,18" transform="translate(-245.62 -60.56)" opacity="0.1"/><path d="M316.94,402.71c3.93,2.4,7.67,9,12.61,9a26,26,0,0,0,6.11-.73,66.3,66.3,0,0,1,7.59-8.64l-25.94-7.93C317.57,399.53,318,398.79,316.94,402.71Z" transform="translate(-245.62 -60.56)" opacity="0.1"/><circle cx="83.94" cy="323.77" r="25.94" fill="#f7c4a7"/><g opacity="0.1"><path d="M298.72,546.92c4-7.11.56-28.08-1.59-39-1-5.18-1.82-10.41-2.37-15.66l-4.12-39.44c2.7-22.93,12.41-28.19,19.33-28.9-6.55-.65-19.72,1.57-22.93,28.9l4.12,39.44c.55,5.25,1.35,10.48,2.37,15.66,2.18,11.09,5.64,32.48,1.44,39.31C295,547.2,296.34,547.09,298.72,546.92Z" transform="translate(-245.62 -60.56)"/><path d="M330.28,545.85c16,.08,33,1.32,41.07,5.68,0,0-.31-.65-.84-1.83C360.75,546.55,344.73,545.78,330.28,545.85Z" transform="translate(-245.62 -60.56)"/></g><path d="M338.24,378.3C336,384,332,388.67,327.89,393.18c-2.29,2.54-4.65,5.11-6,8.24a31.5,31.5,0,0,0-2,8.81c-1.6,12.35-3.09,25.51,2.31,36.72,1.51,3.14,3.54,6.06,4.54,9.39,1.82,6.1,0,12.67-2.42,18.58a109.52,109.52,0,0,1-12.78,23.2c-3,4.15-6.38,8.29-7.45,13.29-.72,3.35-.45,7.14-2.57,9.83-2.83,3.59-8.27,3.31-12.8,2.69-2.28-3.72,1.35-8.24,1.75-12.58.45-4.77-3.3-9.12-7.69-11s-9.34-2-14.13-2.12c-2-.07-4.15-.24-5.57-1.62a7.36,7.36,0,0,1-1.65-3.08,34.84,34.84,0,0,1-1.1-17.21c1.49-7.85,5.67-15.06,6.62-23,1.11-9.2-2.23-18.33-6.13-26.73s-8.49-16.66-10.15-25.77.23-19.55,7.39-25.43c3.91-3.21,9.1-4.86,12.27-8.8,4.29-5.33,3.71-13.37,7.92-18.76s12-6.5,18.85-7.14l14.49-1.33a45,45,0,0,1,9.55-.2c6.26.77,11.88,4.1,17.28,7.37,3.43,2.07,7.06,4.37,8.63,8.06a7.6,7.6,0,0,1-.36,6.56c-2.66,4.28-3.92.15-6,1.12C337.58,363.62,339.91,374,338.24,378.3Z" transform="translate(-245.62 -60.56)" opacity="0.1"/><path d="M337.52,377.58c-2.19,5.67-6.27,10.37-10.34,14.87-2.29,2.54-4.65,5.11-6,8.24a31.5,31.5,0,0,0-2,8.81c-1.6,12.35-3.09,25.51,2.31,36.72,1.51,3.14,3.54,6.06,4.54,9.39,1.82,6.1,0,12.67-2.42,18.58a109.52,109.52,0,0,1-12.78,23.2c-3,4.15-6.38,8.29-7.45,13.29-.72,3.35-.45,7.14-2.57,9.83-2.83,3.59-8.27,3.31-12.8,2.69-2.28-3.72,1.35-8.24,1.75-12.58.45-4.77-3.3-9.12-7.69-11s-9.34-2-14.13-2.12c-2-.07-4.15-.24-5.57-1.62a7.36,7.36,0,0,1-1.65-3.08,34.84,34.84,0,0,1-1.1-17.21c1.49-7.85,5.67-15.06,6.62-23,1.11-9.2-2.23-18.33-6.13-26.73s-8.49-16.66-10.15-25.77.23-19.55,7.39-25.43c3.91-3.21,9.1-4.86,12.27-8.8,4.29-5.33,3.71-13.37,7.92-18.76s12-6.5,18.85-7.14l14.49-1.33a45,45,0,0,1,9.55-.2c6.26.77,11.88,4.1,17.28,7.37,3.43,2.07,7.06,4.37,8.63,8.06a7.6,7.6,0,0,1-.36,6.56c-2.66,4.28-3.92.15-6,1.12C336.86,362.9,339.19,373.25,337.52,377.58Z" transform="translate(-245.62 -60.56)" fill="#965d7b"/></svg>