<svg width="16" height="16"  xmlns="http://www.w3.org/2000/svg" xmlns:xlink="http://www.w3.org/1999/xlink" xmlns:serif="http://www.serif.com/" viewBox="0 0 65 65" version="1.1" xml:space="preserve" style="" x="0px" y="0px" fill-rule="evenodd" clip-rule="evenodd" stroke-linejoin="round" stroke-miterlimit="2"><rect serif:id="carrer suitcase sales" x="0.749" y="0.952" width="64" height="64" style="" fill="none"></rect><path d="M51.737,36.95c-4.999,0.038 -9.999,0.06 -14.998,0.068l0,4.887c-0.006,0.193 -0.021,0.225 -0.049,0.309c-0.13,0.401 -0.434,0.674 -0.95,0.691l-5.998,0c-0.205,-0.007 -0.261,-0.028 -0.368,-0.071c-0.372,-0.147 -0.616,-0.431 -0.631,-0.929l0,-4.887c-5,-0.008 -9.999,-0.03 -14.998,-0.068l0,19.975c12.661,0.105 25.323,0.105 37.984,0l0.008,-19.975Zm-44.007,-0.159c-0.018,5.716 -0.037,11.432 0.018,17.148c0.024,1.547 1.361,2.934 2.959,2.959c0.346,0.004 0.693,0.007 1.039,0.01l0,-19.974c-1.021,-0.008 -2.042,-0.018 -3.063,-0.027c-0.323,-0.005 -0.642,-0.045 -0.953,-0.116Zm49.996,0.007c-0.303,0.066 -0.615,0.104 -0.935,0.109c-1.018,0.009 -2.037,0.018 -3.055,0.027l-0.008,19.974c0.346,-0.003 0.692,-0.006 1.039,-0.01c1.546,-0.024 2.944,-1.355 2.959,-2.979l0,-17.121Zm-26.984,-3.889l0,7.996l3.998,0l0,-7.996l-3.998,0Zm28.983,-17.993l-53.977,0c0,5.678 -0.053,11.355 0.001,17.032c0.024,1.554 1.36,2.934 2.959,2.96c1.276,0.012 2.552,0.023 3.828,0.033c0.096,-0.023 0.197,-0.034 0.302,-0.029c0.052,0.007 0.103,0.018 0.152,0.033c5.251,0.041 10.502,0.066 15.753,0.074l0,-3.11c0.006,-0.193 0.021,-0.225 0.049,-0.309c0.13,-0.401 0.434,-0.674 0.95,-0.69l5.998,0c0.021,0 0.041,0.001 0.062,0.002c0.193,0.018 0.223,0.035 0.306,0.068c0.372,0.147 0.616,0.431 0.631,0.929l0,3.11c5.257,-0.008 10.513,-0.033 15.769,-0.074c0.101,-0.026 0.209,-0.038 0.321,-0.033c0.047,0.007 0.093,0.016 0.138,0.029c1.266,-0.01 2.532,-0.021 3.799,-0.033c1.547,-0.025 2.944,-1.355 2.959,-2.979c0,0 0,-17.013 0,-17.013Z" style="" fill-rule="nonzero"></path><path d="M23.741,12.917l0,-3.002c0.01,-1.553 1.343,-2.964 2.96,-2.995c4.024,-0.025 8.048,-0.025 12.072,0c1.553,0.03 2.95,1.367 2.96,2.995l0,3.002l-17.992,0Zm15.993,0c0,-1.008 0.019,-2.017 0,-3.025c-0.017,-0.509 -0.462,-0.956 -0.973,-0.973c-4.006,-0.076 -8.012,0 -12.018,0c-0.531,0.003 -1,0.457 -1.003,1.003l0,2.995l13.994,0Z" style="" fill-rule="nonzero"></path></svg>
