<svg width="16" height="16" xmlns="http://www.w3.org/2000/svg" viewBox="0 0 65 65"><path d="M51.737 36.95c-4.999.038-9.999.06-14.998.068v4.887c-.006.193-.021.225-.049.309-.13.401-.434.674-.95.691h-5.998a.851.851 0 0 1-.368-.071c-.372-.147-.616-.431-.631-.929v-4.887c-5-.008-9.999-.03-14.998-.068v19.975c12.661.105 25.323.105 37.984 0l.008-19.975zM7.73 36.791c-.018 5.716-.037 11.432.018 17.148.024 1.547 1.361 2.934 2.959 2.959l1.039.01V36.934l-3.063-.027a4.6 4.6 0 0 1-.953-.116zm49.996.007a4.733 4.733 0 0 1-.935.109l-3.055.027-.008 19.974 1.039-.01c1.546-.024 2.944-1.355 2.959-2.979V36.798zm-26.984-3.889v7.996h3.998v-7.996h-3.998zm28.983-17.993H5.748c0 5.678-.053 11.355.001 17.032.024 1.554 1.36 2.934 2.959 2.96l3.828.033c.096-.023.197-.034.302-.029a.955.955 0 0 1 .152.033c5.251.041 10.502.066 15.753.074v-3.11c.006-.193.021-.225.049-.309.13-.401.434-.674.95-.69h5.998l.062.002c.193.018.223.035.306.068.372.147.616.431.631.929v3.11c5.257-.008 10.513-.033 15.769-.074.101-.026.209-.038.321-.033.047.007.093.016.138.029l3.799-.033c1.547-.025 2.944-1.355 2.959-2.979V14.916zm-35.984-1.999V9.915c.01-1.553 1.343-2.964 2.96-2.995 4.024-.025 8.048-.025 12.072 0 1.553.03 2.95 1.367 2.96 2.995v3.002H23.741zm15.993 0c0-1.008.019-2.017 0-3.025a1.036 1.036 0 0 0-.973-.973c-4.006-.076-8.012 0-12.018 0-.531.003-1 .457-1.003 1.003v2.995h13.994z"/></svg>
