<svg viewBox="0 0 128 128" height="128" width="128" xmlns="http://www.w3.org/2000/svg" xml:space="preserve" style="fill-rule:evenodd;clip-rule:evenodd;stroke-linejoin:round;stroke-miterlimit:2"><path d="M128 20v88c0 11.038-8.962 20-20 20H20c-11.038 0-20-8.962-20-20V20C0 8.962 8.962 0 20 0h88c11.038 0 20 8.962 20 20Z" style="fill:#0082c9"/><path d="M5 22c-.55 0-1.021-.196-1.412-.587A1.927 1.927 0 0 1 3 20V6c0-.55.196-1.021.588-1.413A1.926 1.926 0 0 1 5 4h1V2h2v2h8V2h2v2h1c.55 0 1.021.196 1.413.587.391.392.587.863.587 1.413v14a1.93 1.93 0 0 1-.587 1.413A1.93 1.93 0 0 1 19 22H5Zm0-2h14V10H5v10Z" style="fill:#fff;fill-rule:nonzero" transform="matrix(5 0 0 5 4 2)"/></svg>