<?xml version="1.0" encoding="UTF-8" standalone="no"?>
<svg xmlns:rdf="http://www.w3.org/1999/02/22-rdf-syntax-ns#" xmlns="http://www.w3.org/2000/svg" version="1.1" xml:space="preserve" height="16" width="16" enable-background="new 0 0 595.275 311.111" y="0px" x="0px" xmlns:cc="http://creativecommons.org/ns#" xmlns:dc="http://purl.org/dc/elements/1.1/" viewBox="0 0 16 15.999999"><path d="m2.5-0.000002c-1.385 0-2.5 1.115-2.5 2.5v11c0 1.385 1.115 2.5 2.5 2.5h11c1.385 0 2.5-1.115 2.5-2.5v-11c0-1.385-1.115-2.5-2.5-2.5h-11zm1.9287 1.5c0.49464 0 0.89258 0.39794 0.89258 0.89258v1.7861c0 0.49464-0.39794 0.89258-0.89258 0.89258s-0.89258-0.39794-0.89258-0.89258v-1.7861c0-0.49464 0.39794-0.89258 0.89258-0.89258zm7.1426 0c0.49464 0 0.89258 0.39794 0.89258 0.89258v1.7861c0 0.49464-0.39794 0.89258-0.89258 0.89258s-0.89258-0.39794-0.89258-0.89258v-1.7861c0-0.49464 0.39794-0.89258 0.89258-0.89258zm-5.8037 1.7861h4.4648v0.89258c0 0.74196 0.5969 1.3389 1.3389 1.3389 0.74196 0 1.3398-0.5969 1.3398-1.3389v-0.83691c0.772 0.1975 1.339 0.8948 1.339 1.7295v7.1426c0 0.98929-0.79685 1.7861-1.7861 1.7861h-8.9277c-0.9895 0-1.7863-0.797-1.7863-1.786v-7.1426c0-0.83473 0.56744-1.5319 1.3389-1.7295v0.83691c0 0.74196 0.59788 1.3389 1.3398 1.3389 0.74196 0 1.3389-0.5969 1.3389-1.3389v-0.89258zm-2.6364 4.0176c-0.024685 0-0.041992 0.01726-0.041992 0.04199v5.2725c0 0.02473 0.017262 0.04199 0.041992 0.04199h9.7373c0.02468 0 0.04199-0.01726 0.04199-0.04199v-5.2725c0-0.02473-0.01726-0.04199-0.04199-0.04199h-9.7373z"/></svg>
