<svg viewBox="0 0 16 16" height="16" width="16" xmlns="http://www.w3.org/2000/svg" xml:space="preserve" style="fill-rule:evenodd;clip-rule:evenodd;stroke-linejoin:round;stroke-miterlimit:2"><path d="M2.5 0h11C14.885 0 16 1.115 16 2.5v11c0 1.385-1.115 2.5-2.5 2.5h-11A2.495 2.495 0 0 1 0 13.5v-11C0 1.115 1.115 0 2.5 0Zm1.35 14.019h8.286c.325 0 .604-.122.836-.367a1.24 1.24 0 0 0 .347-.884V4.009a1.24 1.24 0 0 0-.347-.884 1.112 1.112 0 0 0-.836-.368h-.592V1.506H10.36v1.251H5.626V1.506H4.442v1.251H3.85c-.325 0-.604.123-.836.368-.231.245-.347.54-.347.884v8.759c0 .344.116.639.347.884.232.245.511.367.836.367Zm0-1.251V6.511h8.286v6.257H3.85Z"/></svg>