<svg width="15" height="15" viewBox="0 0 15 15" fill="none" xmlns="http://www.w3.org/2000/svg"><path d="M8.66663 1.11053C8.66663 0.558347 9.1135 0.110535 9.66663 0.110535H13.6385C13.801 0.110535 13.9323 0.13741 14.0479 0.186472C14.1385 0.23491 14.276 0.306472 14.3729 0.40116C14.3729 0.402722 14.3729 0.404285 14.376 0.405535C14.5698 0.59991 14.6385 0.85366 14.6666 1.10741C14.6666 1.10866 14.6666 1.1096 14.6666 1.11053V5.11053C14.6666 5.66366 14.2198 6.11053 13.6666 6.11053C13.1135 6.11053 12.6666 5.66366 12.6666 5.11053V3.52616L7.37288 8.81678C6.98225 9.20741 6.351 9.20741 5.96038 8.81678C5.56975 8.42616 5.56975 7.79491 5.96038 7.40428L11.251 2.11053H9.66663C9.1135 2.11053 8.66663 1.66272 8.66663 1.11053ZM0.666626 3.11053C0.666626 2.00585 1.56194 1.11053 2.66663 1.11053H5.66663C6.21975 1.11053 6.66663 1.55835 6.66663 2.11053C6.66663 2.66366 6.21975 3.11053 5.66663 3.11053H2.66663V12.1105H11.6666V9.11053C11.6666 8.55741 12.1135 8.11053 12.6666 8.11053C13.2198 8.11053 13.6666 8.55741 13.6666 9.11053V12.1105C13.6666 13.2137 12.7698 14.1105 11.6666 14.1105H2.66663C1.56194 14.1105 0.666626 13.2137 0.666626 12.1105V3.11053Z" fill="#0075E0"/></svg>
