<?xml version='1.0' encoding='iso-8859-1'?>
<svg version="1.1" xmlns="http://www.w3.org/2000/svg" viewBox="0 0 26 26" xmlns:xlink="http://www.w3.org/1999/xlink" enable-background="new 0 0 26 26">
  <g>
    <path style="fill:#FFFFFF;" d="m14,22h-2c-0.6,0-1,0.4-1,1v2c0,0.6 0.4,1 1,1h2c0.6,0 1-0.4 1-1v-2c0-0.6-0.4-1-1-1z"/>
    <path style="fill:#FFFFFF;" d="M13,0C8,0,4,4,4,9c0,0.5,0,1,0.1,1.5c0.1,0.6,0.7,0.9,1.3,0.8l1.9-0.6c0.5-0.1,0.8-0.6,0.7-1.1C8,9.4,8,9.2,8,9   c0-2.8,2.2-5,5-5s5,2.2,5,5c0,1.7-1,2.5-2.8,4c-1.7,1.4-3.7,3-4.2,5.9c-0.1,0.6,0.4,1.1,1,1.1h2c0.5,0,0.9-0.3,1-0.8   c0.3-1.2,1.2-2,2.7-3.1C19.6,14.6,22,12.7,22,9C22,4,18,0,13,0z"/>
  </g>
</svg>
