<?xml version="1.0" encoding="utf-8"?>
<!-- Generator: Adobe Illustrator 22.0.1, SVG Export Plug-In . SVG Version: 6.00 Build 0)  -->
<svg version="1.1" id="Layer_1" xmlns="http://www.w3.org/2000/svg" xmlns:xlink="http://www.w3.org/1999/xlink" x="0px" y="0px"
	 viewBox="0 0 21.2 10.2" style="enable-background:new 0 0 21.2 10.2;" xml:space="preserve">
<style type="text/css">
	.st0{fill:none;stroke:#000000;stroke-width:2;}
	.st1{fill:#231F20;}
</style>
<path class="st0" d="M4.1,4.8l4,4l7.3-7.3"/>
<path class="st1" d="M18.9,0l-1.5,0.5c1.3,1.2,2.1,2.8,2.2,4.6c-0.1,1.8-0.9,3.5-2.2,4.6l1.5,0.5c1.4-1.3,2.3-3.1,2.3-5.1
	S20.4,1.3,18.9,0z"/>
<path class="st1" d="M1.6,5.1c0.1,1.8,0.9,3.4,2.2,4.6l-1.5,0.5C0.8,8.9,0,7.1,0,5.1S0.9,1.3,2.3,0l1.5,0.5C2.5,1.6,1.7,3.3,1.6,5.1
	z"/>
</svg>
